G04*
G04 #@! TF.GenerationSoftware,Altium Limited,Altium Designer,25.3.3 (18)*
G04*
G04 Layer_Color=16711935*
%FSLAX44Y44*%
%MOMM*%
G71*
G04*
G04 #@! TF.SameCoordinates,E74E417C-EFC3-4B03-BFDF-08B39AB8E956*
G04*
G04*
G04 #@! TF.FilePolarity,Positive*
G04*
G01*
G75*
%ADD17C,0.2540*%
%ADD110C,0.3810*%
%ADD111C,0.0254*%
D17*
X628815Y208253D02*
Y193018D01*
X638972D01*
X646589Y203175D02*
X651668D01*
X654207Y200636D01*
Y193018D01*
X646589D01*
X644050Y195557D01*
X646589Y198097D01*
X654207D01*
X659285Y203175D02*
Y195557D01*
X661824Y193018D01*
X669442D01*
Y190479D01*
X666903Y187940D01*
X664363D01*
X669442Y193018D02*
Y203175D01*
X682138Y193018D02*
X677059D01*
X674520Y195557D01*
Y200636D01*
X677059Y203175D01*
X682138D01*
X684677Y200636D01*
Y198097D01*
X674520D01*
X689755Y203175D02*
Y193018D01*
Y198097D01*
X692294Y200636D01*
X694834Y203175D01*
X697373D01*
X638972Y-187987D02*
X633893Y-190526D01*
X628815Y-195604D01*
Y-200683D01*
X631354Y-203222D01*
X636432D01*
X638972Y-200683D01*
Y-198143D01*
X636432Y-195604D01*
X628815D01*
X638972Y-127027D02*
X628815D01*
Y-134644D01*
X633893Y-132105D01*
X636432D01*
X638972Y-134644D01*
Y-139722D01*
X636432Y-142262D01*
X631354D01*
X628815Y-139722D01*
X636432Y-81302D02*
Y-66067D01*
X628815Y-73684D01*
X638972D01*
X628815Y-7646D02*
X631354Y-5107D01*
X636432D01*
X638972Y-7646D01*
Y-10185D01*
X636432Y-12724D01*
X633893D01*
X636432D01*
X638972Y-15263D01*
Y-17802D01*
X636432Y-20342D01*
X631354D01*
X628815Y-17802D01*
X638972Y40618D02*
X628815D01*
X638972Y50775D01*
Y53314D01*
X636432Y55853D01*
X631354D01*
X628815Y53314D01*
Y101578D02*
X633893D01*
X631354D01*
Y116813D01*
X628815Y114274D01*
X732933Y193018D02*
Y208253D01*
X743090Y193018D01*
Y208253D01*
X750707Y203175D02*
X755785D01*
X758325Y200636D01*
Y193018D01*
X750707D01*
X748168Y195557D01*
X750707Y198097D01*
X758325D01*
X763403Y193018D02*
Y203175D01*
X765942D01*
X768481Y200636D01*
Y193018D01*
Y200636D01*
X771021Y203175D01*
X773560Y200636D01*
Y193018D01*
X786255D02*
X781177D01*
X778638Y195557D01*
Y200636D01*
X781177Y203175D01*
X786255D01*
X788795Y200636D01*
Y198097D01*
X778638D01*
X732933Y-248947D02*
Y-264182D01*
X740550D01*
X743090Y-261642D01*
Y-259103D01*
X740550Y-256564D01*
X732933D01*
X740550D01*
X743090Y-254025D01*
Y-251486D01*
X740550Y-248947D01*
X732933D01*
X750707Y-264182D02*
X755785D01*
X758325Y-261642D01*
Y-256564D01*
X755785Y-254025D01*
X750707D01*
X748168Y-256564D01*
Y-261642D01*
X750707Y-264182D01*
X765942Y-254025D02*
X771021D01*
X773560Y-256564D01*
Y-264182D01*
X765942D01*
X763403Y-261642D01*
X765942Y-259103D01*
X773560D01*
X778638Y-254025D02*
Y-264182D01*
Y-259103D01*
X781177Y-256564D01*
X783716Y-254025D01*
X786255D01*
X804030Y-248947D02*
Y-264182D01*
X796412D01*
X793873Y-261642D01*
Y-256564D01*
X796412Y-254025D01*
X804030D01*
X824343Y-248947D02*
Y-264182D01*
X834500D01*
X842117Y-254025D02*
X847196D01*
X849735Y-256564D01*
Y-264182D01*
X842117D01*
X839578Y-261642D01*
X842117Y-259103D01*
X849735D01*
X854813Y-254025D02*
Y-261642D01*
X857353Y-264182D01*
X864970D01*
Y-266721D01*
X862431Y-269260D01*
X859892D01*
X864970Y-264182D02*
Y-254025D01*
X877666Y-264182D02*
X872588D01*
X870048Y-261642D01*
Y-256564D01*
X872588Y-254025D01*
X877666D01*
X880205Y-256564D01*
Y-259103D01*
X870048D01*
X885284Y-254025D02*
Y-264182D01*
Y-259103D01*
X887823Y-256564D01*
X890362Y-254025D01*
X892901D01*
X925910Y-251486D02*
X923371Y-248947D01*
X918293D01*
X915754Y-251486D01*
Y-254025D01*
X918293Y-256564D01*
X923371D01*
X925910Y-259103D01*
Y-261642D01*
X923371Y-264182D01*
X918293D01*
X915754Y-261642D01*
X933528Y-251486D02*
Y-254025D01*
X930989D01*
X936067D01*
X933528D01*
Y-261642D01*
X936067Y-264182D01*
X946224Y-254025D02*
X951302D01*
X953841Y-256564D01*
Y-264182D01*
X946224D01*
X943685Y-261642D01*
X946224Y-259103D01*
X953841D01*
X969076Y-254025D02*
X961459D01*
X958920Y-256564D01*
Y-261642D01*
X961459Y-264182D01*
X969076D01*
X974155D02*
Y-248947D01*
Y-259103D02*
X981772Y-254025D01*
X974155Y-259103D02*
X981772Y-264182D01*
X1004625Y-248947D02*
Y-264182D01*
X1012242D01*
X1014782Y-261642D01*
Y-259103D01*
X1012242Y-256564D01*
X1004625D01*
X1012242D01*
X1014782Y-254025D01*
Y-251486D01*
X1012242Y-248947D01*
X1004625D01*
X1022399Y-264182D02*
X1027477D01*
X1030017Y-261642D01*
Y-256564D01*
X1027477Y-254025D01*
X1022399D01*
X1019860Y-256564D01*
Y-261642D01*
X1022399Y-264182D01*
X1037634Y-251486D02*
Y-254025D01*
X1035095D01*
X1040173D01*
X1037634D01*
Y-261642D01*
X1040173Y-264182D01*
X1050330Y-251486D02*
Y-254025D01*
X1047791D01*
X1052869D01*
X1050330D01*
Y-261642D01*
X1052869Y-264182D01*
X1063026D02*
X1068104D01*
X1070643Y-261642D01*
Y-256564D01*
X1068104Y-254025D01*
X1063026D01*
X1060487Y-256564D01*
Y-261642D01*
X1063026Y-264182D01*
X1075722D02*
Y-254025D01*
X1078261D01*
X1080800Y-256564D01*
Y-264182D01*
Y-256564D01*
X1083339Y-254025D01*
X1085879Y-256564D01*
Y-264182D01*
X1113810Y-248947D02*
X1108731D01*
X1106192Y-251486D01*
Y-261642D01*
X1108731Y-264182D01*
X1113810D01*
X1116349Y-261642D01*
Y-251486D01*
X1113810Y-248947D01*
X1121427Y-254025D02*
X1126505Y-264182D01*
X1131584Y-254025D01*
X1144280Y-264182D02*
X1139201D01*
X1136662Y-261642D01*
Y-256564D01*
X1139201Y-254025D01*
X1144280D01*
X1146819Y-256564D01*
Y-259103D01*
X1136662D01*
X1151897Y-254025D02*
Y-264182D01*
Y-259103D01*
X1154436Y-256564D01*
X1156976Y-254025D01*
X1159515D01*
X1167132Y-264182D02*
X1172211D01*
X1169671D01*
Y-248947D01*
X1167132D01*
X1182367Y-254025D02*
X1187446D01*
X1189985Y-256564D01*
Y-264182D01*
X1182367D01*
X1179828Y-261642D01*
X1182367Y-259103D01*
X1189985D01*
X1195063Y-254025D02*
Y-261642D01*
X1197602Y-264182D01*
X1205220D01*
Y-266721D01*
X1202681Y-269260D01*
X1200142D01*
X1205220Y-264182D02*
Y-254025D01*
X732933Y-218467D02*
Y-233702D01*
X740550D01*
X743090Y-231162D01*
Y-228623D01*
X740550Y-226084D01*
X732933D01*
X740550D01*
X743090Y-223545D01*
Y-221006D01*
X740550Y-218467D01*
X732933D01*
X750707Y-233702D02*
X755785D01*
X758325Y-231162D01*
Y-226084D01*
X755785Y-223545D01*
X750707D01*
X748168Y-226084D01*
Y-231162D01*
X750707Y-233702D01*
X765942Y-223545D02*
X771021D01*
X773560Y-226084D01*
Y-233702D01*
X765942D01*
X763403Y-231162D01*
X765942Y-228623D01*
X773560D01*
X778638Y-223545D02*
Y-233702D01*
Y-228623D01*
X781177Y-226084D01*
X783716Y-223545D01*
X786255D01*
X804030Y-218467D02*
Y-233702D01*
X796412D01*
X793873Y-231162D01*
Y-226084D01*
X796412Y-223545D01*
X804030D01*
X824343Y-218467D02*
Y-233702D01*
X834500D01*
X842117Y-223545D02*
X847196D01*
X849735Y-226084D01*
Y-233702D01*
X842117D01*
X839578Y-231162D01*
X842117Y-228623D01*
X849735D01*
X854813Y-223545D02*
Y-231162D01*
X857353Y-233702D01*
X864970D01*
Y-236241D01*
X862431Y-238780D01*
X859892D01*
X864970Y-233702D02*
Y-223545D01*
X877666Y-233702D02*
X872588D01*
X870048Y-231162D01*
Y-226084D01*
X872588Y-223545D01*
X877666D01*
X880205Y-226084D01*
Y-228623D01*
X870048D01*
X885284Y-223545D02*
Y-233702D01*
Y-228623D01*
X887823Y-226084D01*
X890362Y-223545D01*
X892901D01*
X925910Y-221006D02*
X923371Y-218467D01*
X918293D01*
X915754Y-221006D01*
Y-223545D01*
X918293Y-226084D01*
X923371D01*
X925910Y-228623D01*
Y-231162D01*
X923371Y-233702D01*
X918293D01*
X915754Y-231162D01*
X933528Y-221006D02*
Y-223545D01*
X930989D01*
X936067D01*
X933528D01*
Y-231162D01*
X936067Y-233702D01*
X946224Y-223545D02*
X951302D01*
X953841Y-226084D01*
Y-233702D01*
X946224D01*
X943685Y-231162D01*
X946224Y-228623D01*
X953841D01*
X969076Y-223545D02*
X961459D01*
X958920Y-226084D01*
Y-231162D01*
X961459Y-233702D01*
X969076D01*
X974155D02*
Y-218467D01*
Y-228623D02*
X981772Y-223545D01*
X974155Y-228623D02*
X981772Y-233702D01*
X1004625Y-218467D02*
Y-233702D01*
X1012242D01*
X1014782Y-231162D01*
Y-228623D01*
X1012242Y-226084D01*
X1004625D01*
X1012242D01*
X1014782Y-223545D01*
Y-221006D01*
X1012242Y-218467D01*
X1004625D01*
X1022399Y-233702D02*
X1027477D01*
X1030017Y-231162D01*
Y-226084D01*
X1027477Y-223545D01*
X1022399D01*
X1019860Y-226084D01*
Y-231162D01*
X1022399Y-233702D01*
X1037634Y-221006D02*
Y-223545D01*
X1035095D01*
X1040173D01*
X1037634D01*
Y-231162D01*
X1040173Y-233702D01*
X1050330Y-221006D02*
Y-223545D01*
X1047791D01*
X1052869D01*
X1050330D01*
Y-231162D01*
X1052869Y-233702D01*
X1063026D02*
X1068104D01*
X1070643Y-231162D01*
Y-226084D01*
X1068104Y-223545D01*
X1063026D01*
X1060487Y-226084D01*
Y-231162D01*
X1063026Y-233702D01*
X1075722D02*
Y-223545D01*
X1078261D01*
X1080800Y-226084D01*
Y-233702D01*
Y-226084D01*
X1083339Y-223545D01*
X1085879Y-226084D01*
Y-233702D01*
X1116349Y-221006D02*
X1113810Y-218467D01*
X1108731D01*
X1106192Y-221006D01*
Y-223545D01*
X1108731Y-226084D01*
X1113810D01*
X1116349Y-228623D01*
Y-231162D01*
X1113810Y-233702D01*
X1108731D01*
X1106192Y-231162D01*
X1123966Y-233702D02*
X1129045D01*
X1131584Y-231162D01*
Y-226084D01*
X1129045Y-223545D01*
X1123966D01*
X1121427Y-226084D01*
Y-231162D01*
X1123966Y-233702D01*
X1136662D02*
X1141740D01*
X1139201D01*
Y-218467D01*
X1136662D01*
X1159515D02*
Y-233702D01*
X1151897D01*
X1149358Y-231162D01*
Y-226084D01*
X1151897Y-223545D01*
X1159515D01*
X1172211Y-233702D02*
X1167132D01*
X1164593Y-231162D01*
Y-226084D01*
X1167132Y-223545D01*
X1172211D01*
X1174750Y-226084D01*
Y-228623D01*
X1164593D01*
X1179828Y-223545D02*
Y-233702D01*
Y-228623D01*
X1182367Y-226084D01*
X1184906Y-223545D01*
X1187446D01*
X732933Y-187987D02*
Y-203222D01*
X743090D01*
X758325Y-187987D02*
X753246Y-190526D01*
X748168Y-195604D01*
Y-200683D01*
X750707Y-203222D01*
X755785D01*
X758325Y-200683D01*
Y-198143D01*
X755785Y-195604D01*
X748168D01*
X763403Y-205761D02*
X773560D01*
X778638Y-187987D02*
Y-203222D01*
X786255D01*
X788795Y-200683D01*
Y-198143D01*
X786255Y-195604D01*
X778638D01*
X786255D01*
X788795Y-193065D01*
Y-190526D01*
X786255Y-187987D01*
X778638D01*
X796412Y-203222D02*
X801491D01*
X804030Y-200683D01*
Y-195604D01*
X801491Y-193065D01*
X796412D01*
X793873Y-195604D01*
Y-200683D01*
X796412Y-203222D01*
X811647Y-190526D02*
Y-193065D01*
X809108D01*
X814186D01*
X811647D01*
Y-200683D01*
X814186Y-203222D01*
X824343Y-190526D02*
Y-193065D01*
X821804D01*
X826882D01*
X824343D01*
Y-200683D01*
X826882Y-203222D01*
X837039D02*
X842117D01*
X844657Y-200683D01*
Y-195604D01*
X842117Y-193065D01*
X837039D01*
X834500Y-195604D01*
Y-200683D01*
X837039Y-203222D01*
X849735D02*
Y-193065D01*
X852274D01*
X854813Y-195604D01*
Y-203222D01*
Y-195604D01*
X857353Y-193065D01*
X859892Y-195604D01*
Y-203222D01*
X885284D02*
X880205Y-198143D01*
Y-193065D01*
X885284Y-187987D01*
X903058Y-190526D02*
X900518Y-187987D01*
X895440D01*
X892901Y-190526D01*
Y-193065D01*
X895440Y-195604D01*
X900518D01*
X903058Y-198143D01*
Y-200683D01*
X900518Y-203222D01*
X895440D01*
X892901Y-200683D01*
X908136Y-203222D02*
X913214D01*
X910675D01*
Y-193065D01*
X908136D01*
X925910Y-208300D02*
X928449D01*
X930989Y-205761D01*
Y-193065D01*
X923371D01*
X920832Y-195604D01*
Y-200683D01*
X923371Y-203222D01*
X930989D01*
X936067D02*
X941145Y-198143D01*
Y-193065D01*
X936067Y-187987D01*
X732933Y-157507D02*
Y-172742D01*
X740550D01*
X743090Y-170203D01*
Y-160046D01*
X740550Y-157507D01*
X732933D01*
X748168Y-172742D02*
X753246D01*
X750707D01*
Y-162585D01*
X748168D01*
X768481Y-172742D02*
X763403D01*
X760864Y-170203D01*
Y-165124D01*
X763403Y-162585D01*
X768481D01*
X771021Y-165124D01*
Y-167663D01*
X760864D01*
X776099Y-172742D02*
X781177D01*
X778638D01*
Y-157507D01*
X776099D01*
X796412Y-172742D02*
X791334D01*
X788795Y-170203D01*
Y-165124D01*
X791334Y-162585D01*
X796412D01*
X798951Y-165124D01*
Y-167663D01*
X788795D01*
X814186Y-162585D02*
X806569D01*
X804030Y-165124D01*
Y-170203D01*
X806569Y-172742D01*
X814186D01*
X821804Y-160046D02*
Y-162585D01*
X819265D01*
X824343D01*
X821804D01*
Y-170203D01*
X824343Y-172742D01*
X831961Y-162585D02*
Y-172742D01*
Y-167663D01*
X834500Y-165124D01*
X837039Y-162585D01*
X839578D01*
X847196Y-172742D02*
X852274D01*
X849735D01*
Y-162585D01*
X847196D01*
X870048D02*
X862431D01*
X859892Y-165124D01*
Y-170203D01*
X862431Y-172742D01*
X870048D01*
X875127Y-160046D02*
X877666Y-157507D01*
X882744D01*
X885284Y-160046D01*
Y-162585D01*
X882744Y-165124D01*
X880205D01*
X882744D01*
X885284Y-167663D01*
Y-170203D01*
X882744Y-172742D01*
X877666D01*
X875127Y-170203D01*
X732933Y-127027D02*
Y-142262D01*
X743090D01*
X758325Y-127027D02*
X748168D01*
Y-134644D01*
X753246Y-132105D01*
X755785D01*
X758325Y-134644D01*
Y-139722D01*
X755785Y-142262D01*
X750707D01*
X748168Y-139722D01*
X783716Y-142262D02*
X778638Y-137183D01*
Y-132105D01*
X783716Y-127027D01*
X801491Y-129566D02*
X798951Y-127027D01*
X793873D01*
X791334Y-129566D01*
Y-139722D01*
X793873Y-142262D01*
X798951D01*
X801491Y-139722D01*
Y-134644D01*
X796412D01*
X806569Y-142262D02*
Y-127027D01*
X816726Y-142262D01*
Y-127027D01*
X821804D02*
Y-142262D01*
X829422D01*
X831961Y-139722D01*
Y-129566D01*
X829422Y-127027D01*
X821804D01*
X837039Y-142262D02*
X842117Y-137183D01*
Y-132105D01*
X837039Y-127027D01*
X743090Y-99086D02*
X740550Y-96547D01*
X735472D01*
X732933Y-99086D01*
Y-109242D01*
X735472Y-111782D01*
X740550D01*
X743090Y-109242D01*
X750707Y-111782D02*
X755785D01*
X758325Y-109242D01*
Y-104164D01*
X755785Y-101625D01*
X750707D01*
X748168Y-104164D01*
Y-109242D01*
X750707Y-111782D01*
X763403Y-101625D02*
Y-111782D01*
Y-106703D01*
X765942Y-104164D01*
X768481Y-101625D01*
X771021D01*
X786255Y-111782D02*
X781177D01*
X778638Y-109242D01*
Y-104164D01*
X781177Y-101625D01*
X786255D01*
X788795Y-104164D01*
Y-106703D01*
X778638D01*
X804030Y-111782D02*
X793873D01*
X804030Y-101625D01*
Y-99086D01*
X801491Y-96547D01*
X796412D01*
X793873Y-99086D01*
X732933Y-66067D02*
Y-81302D01*
X743090D01*
X755785D02*
Y-66067D01*
X748168Y-73684D01*
X758325D01*
X783716Y-81302D02*
X778638Y-76223D01*
Y-71145D01*
X783716Y-66067D01*
X801491Y-68606D02*
X798951Y-66067D01*
X793873D01*
X791334Y-68606D01*
Y-71145D01*
X793873Y-73684D01*
X798951D01*
X801491Y-76223D01*
Y-78762D01*
X798951Y-81302D01*
X793873D01*
X791334Y-78762D01*
X806569Y-81302D02*
X811647D01*
X809108D01*
Y-71145D01*
X806569D01*
X824343Y-86380D02*
X826882D01*
X829422Y-83841D01*
Y-71145D01*
X821804D01*
X819265Y-73684D01*
Y-78762D01*
X821804Y-81302D01*
X829422D01*
X834500D02*
X839578Y-76223D01*
Y-71145D01*
X834500Y-66067D01*
X732933Y-35587D02*
Y-50822D01*
X740550D01*
X743090Y-48282D01*
Y-38126D01*
X740550Y-35587D01*
X732933D01*
X748168Y-50822D02*
X753246D01*
X750707D01*
Y-40665D01*
X748168D01*
X768481Y-50822D02*
X763403D01*
X760864Y-48282D01*
Y-43204D01*
X763403Y-40665D01*
X768481D01*
X771021Y-43204D01*
Y-45743D01*
X760864D01*
X776099Y-50822D02*
X781177D01*
X778638D01*
Y-35587D01*
X776099D01*
X796412Y-50822D02*
X791334D01*
X788795Y-48282D01*
Y-43204D01*
X791334Y-40665D01*
X796412D01*
X798951Y-43204D01*
Y-45743D01*
X788795D01*
X814186Y-40665D02*
X806569D01*
X804030Y-43204D01*
Y-48282D01*
X806569Y-50822D01*
X814186D01*
X821804Y-38126D02*
Y-40665D01*
X819265D01*
X824343D01*
X821804D01*
Y-48282D01*
X824343Y-50822D01*
X831961Y-40665D02*
Y-50822D01*
Y-45743D01*
X834500Y-43204D01*
X837039Y-40665D01*
X839578D01*
X847196Y-50822D02*
X852274D01*
X849735D01*
Y-40665D01*
X847196D01*
X870048D02*
X862431D01*
X859892Y-43204D01*
Y-48282D01*
X862431Y-50822D01*
X870048D01*
X885284D02*
X875127D01*
X885284Y-40665D01*
Y-38126D01*
X882744Y-35587D01*
X877666D01*
X875127Y-38126D01*
X732933Y-5107D02*
Y-20342D01*
X743090D01*
X748168Y-7646D02*
X750707Y-5107D01*
X755785D01*
X758325Y-7646D01*
Y-10185D01*
X755785Y-12724D01*
X753246D01*
X755785D01*
X758325Y-15263D01*
Y-17802D01*
X755785Y-20342D01*
X750707D01*
X748168Y-17802D01*
X783716Y-20342D02*
X778638Y-15263D01*
Y-10185D01*
X783716Y-5107D01*
X791334Y-20342D02*
Y-5107D01*
X798951D01*
X801491Y-7646D01*
Y-12724D01*
X798951Y-15263D01*
X791334D01*
X809108Y-20342D02*
X814186D01*
X816726Y-17802D01*
Y-12724D01*
X814186Y-10185D01*
X809108D01*
X806569Y-12724D01*
Y-17802D01*
X809108Y-20342D01*
X821804Y-10185D02*
Y-17802D01*
X824343Y-20342D01*
X826882Y-17802D01*
X829422Y-20342D01*
X831961Y-17802D01*
Y-10185D01*
X844657Y-20342D02*
X839578D01*
X837039Y-17802D01*
Y-12724D01*
X839578Y-10185D01*
X844657D01*
X847196Y-12724D01*
Y-15263D01*
X837039D01*
X852274Y-10185D02*
Y-20342D01*
Y-15263D01*
X854813Y-12724D01*
X857353Y-10185D01*
X859892D01*
X867509Y-20342D02*
X872588Y-15263D01*
Y-10185D01*
X867509Y-5107D01*
X743090Y22834D02*
X740550Y25373D01*
X735472D01*
X732933Y22834D01*
Y12678D01*
X735472Y10138D01*
X740550D01*
X743090Y12678D01*
X750707Y10138D02*
X755785D01*
X758325Y12678D01*
Y17756D01*
X755785Y20295D01*
X750707D01*
X748168Y17756D01*
Y12678D01*
X750707Y10138D01*
X763403Y20295D02*
Y10138D01*
Y15217D01*
X765942Y17756D01*
X768481Y20295D01*
X771021D01*
X786255Y10138D02*
X781177D01*
X778638Y12678D01*
Y17756D01*
X781177Y20295D01*
X786255D01*
X788795Y17756D01*
Y15217D01*
X778638D01*
X793873Y10138D02*
X798951D01*
X796412D01*
Y25373D01*
X793873Y22834D01*
X732933Y55853D02*
Y40618D01*
X743090D01*
X758325D02*
X748168D01*
X758325Y50775D01*
Y53314D01*
X755785Y55853D01*
X750707D01*
X748168Y53314D01*
X783716Y40618D02*
X778638Y45697D01*
Y50775D01*
X783716Y55853D01*
X801491Y53314D02*
X798951Y55853D01*
X793873D01*
X791334Y53314D01*
Y43158D01*
X793873Y40618D01*
X798951D01*
X801491Y43158D01*
Y48236D01*
X796412D01*
X806569Y40618D02*
Y55853D01*
X816726Y40618D01*
Y55853D01*
X821804D02*
Y40618D01*
X829422D01*
X831961Y43158D01*
Y53314D01*
X829422Y55853D01*
X821804D01*
X837039Y40618D02*
X842117Y45697D01*
Y50775D01*
X837039Y55853D01*
X732933Y86333D02*
Y71098D01*
X740550D01*
X743090Y73637D01*
Y83794D01*
X740550Y86333D01*
X732933D01*
X748168Y71098D02*
X753246D01*
X750707D01*
Y81255D01*
X748168D01*
X768481Y71098D02*
X763403D01*
X760864Y73637D01*
Y78716D01*
X763403Y81255D01*
X768481D01*
X771021Y78716D01*
Y76177D01*
X760864D01*
X776099Y71098D02*
X781177D01*
X778638D01*
Y86333D01*
X776099D01*
X796412Y71098D02*
X791334D01*
X788795Y73637D01*
Y78716D01*
X791334Y81255D01*
X796412D01*
X798951Y78716D01*
Y76177D01*
X788795D01*
X814186Y81255D02*
X806569D01*
X804030Y78716D01*
Y73637D01*
X806569Y71098D01*
X814186D01*
X821804Y83794D02*
Y81255D01*
X819265D01*
X824343D01*
X821804D01*
Y73637D01*
X824343Y71098D01*
X831961Y81255D02*
Y71098D01*
Y76177D01*
X834500Y78716D01*
X837039Y81255D01*
X839578D01*
X847196Y71098D02*
X852274D01*
X849735D01*
Y81255D01*
X847196D01*
X870048D02*
X862431D01*
X859892Y78716D01*
Y73637D01*
X862431Y71098D01*
X870048D01*
X875127D02*
X880205D01*
X877666D01*
Y86333D01*
X875127Y83794D01*
X732933Y116813D02*
Y101578D01*
X743090D01*
X748168D02*
X753246D01*
X750707D01*
Y116813D01*
X748168Y114274D01*
X760864Y99039D02*
X771021D01*
X776099Y116813D02*
X786255D01*
X781177D01*
Y101578D01*
X793873D02*
X798951D01*
X801491Y104117D01*
Y109196D01*
X798951Y111735D01*
X793873D01*
X791334Y109196D01*
Y104117D01*
X793873Y101578D01*
X806569Y96500D02*
Y111735D01*
X814186D01*
X816726Y109196D01*
Y104117D01*
X814186Y101578D01*
X806569D01*
X842117D02*
X837039Y106657D01*
Y111735D01*
X842117Y116813D01*
X859892Y114274D02*
X857353Y116813D01*
X852274D01*
X849735Y114274D01*
Y111735D01*
X852274Y109196D01*
X857353D01*
X859892Y106657D01*
Y104117D01*
X857353Y101578D01*
X852274D01*
X849735Y104117D01*
X864970Y101578D02*
X870048D01*
X867509D01*
Y111735D01*
X864970D01*
X882744Y96500D02*
X885284D01*
X887823Y99039D01*
Y111735D01*
X880205D01*
X877666Y109196D01*
Y104117D01*
X880205Y101578D01*
X887823D01*
X892901D02*
X897979Y106657D01*
Y111735D01*
X892901Y116813D01*
X732933Y147293D02*
X743090D01*
X738011D01*
Y132058D01*
X750707D02*
X755785D01*
X758325Y134598D01*
Y139676D01*
X755785Y142215D01*
X750707D01*
X748168Y139676D01*
Y134598D01*
X750707Y132058D01*
X763403Y126980D02*
Y142215D01*
X771021D01*
X773560Y139676D01*
Y134598D01*
X771021Y132058D01*
X763403D01*
X804030Y144754D02*
X801491Y147293D01*
X796412D01*
X793873Y144754D01*
Y142215D01*
X796412Y139676D01*
X801491D01*
X804030Y137137D01*
Y134598D01*
X801491Y132058D01*
X796412D01*
X793873Y134598D01*
X811647Y132058D02*
X816726D01*
X819265Y134598D01*
Y139676D01*
X816726Y142215D01*
X811647D01*
X809108Y139676D01*
Y134598D01*
X811647Y132058D01*
X824343D02*
X829422D01*
X826882D01*
Y147293D01*
X824343D01*
X847196D02*
Y132058D01*
X839578D01*
X837039Y134598D01*
Y139676D01*
X839578Y142215D01*
X847196D01*
X859892Y132058D02*
X854813D01*
X852274Y134598D01*
Y139676D01*
X854813Y142215D01*
X859892D01*
X862431Y139676D01*
Y137137D01*
X852274D01*
X867509Y142215D02*
Y132058D01*
Y137137D01*
X870048Y139676D01*
X872588Y142215D01*
X875127D01*
X732933Y177773D02*
X743090D01*
X738011D01*
Y162538D01*
X750707D02*
X755785D01*
X758325Y165077D01*
Y170156D01*
X755785Y172695D01*
X750707D01*
X748168Y170156D01*
Y165077D01*
X750707Y162538D01*
X763403Y157460D02*
Y172695D01*
X771021D01*
X773560Y170156D01*
Y165077D01*
X771021Y162538D01*
X763403D01*
X801491Y177773D02*
X796412D01*
X793873Y175234D01*
Y165077D01*
X796412Y162538D01*
X801491D01*
X804030Y165077D01*
Y175234D01*
X801491Y177773D01*
X809108Y172695D02*
X814186Y162538D01*
X819265Y172695D01*
X831961Y162538D02*
X826882D01*
X824343Y165077D01*
Y170156D01*
X826882Y172695D01*
X831961D01*
X834500Y170156D01*
Y167617D01*
X824343D01*
X839578Y172695D02*
Y162538D01*
Y167617D01*
X842117Y170156D01*
X844657Y172695D01*
X847196D01*
X854813Y162538D02*
X859892D01*
X857353D01*
Y177773D01*
X854813D01*
X870048Y172695D02*
X875127D01*
X877666Y170156D01*
Y162538D01*
X870048D01*
X867509Y165077D01*
X870048Y167617D01*
X877666D01*
X882744Y172695D02*
Y165077D01*
X885284Y162538D01*
X892901D01*
Y159999D01*
X890362Y157460D01*
X887823D01*
X892901Y162538D02*
Y172695D01*
X1240780Y193018D02*
Y208253D01*
X1245858Y203175D01*
X1250937Y208253D01*
Y193018D01*
X1258554Y203175D02*
X1263633D01*
X1266172Y200636D01*
Y193018D01*
X1258554D01*
X1256015Y195557D01*
X1258554Y198097D01*
X1266172D01*
X1273789Y205714D02*
Y203175D01*
X1271250D01*
X1276329D01*
X1273789D01*
Y195557D01*
X1276329Y193018D01*
X1291564D02*
X1286485D01*
X1283946Y195557D01*
Y200636D01*
X1286485Y203175D01*
X1291564D01*
X1294103Y200636D01*
Y198097D01*
X1283946D01*
X1299181Y203175D02*
Y193018D01*
Y198097D01*
X1301720Y200636D01*
X1304259Y203175D01*
X1306799D01*
X1314416Y193018D02*
X1319494D01*
X1316955D01*
Y203175D01*
X1314416D01*
X1329651D02*
X1334730D01*
X1337269Y200636D01*
Y193018D01*
X1329651D01*
X1327112Y195557D01*
X1329651Y198097D01*
X1337269D01*
X1342347Y193018D02*
X1347426D01*
X1344886D01*
Y208253D01*
X1342347D01*
X1250937Y-221006D02*
X1248398Y-218467D01*
X1243319D01*
X1240780Y-221006D01*
Y-223545D01*
X1243319Y-226084D01*
X1248398D01*
X1250937Y-228623D01*
Y-231162D01*
X1248398Y-233702D01*
X1243319D01*
X1240780Y-231162D01*
X1258554Y-233702D02*
X1263633D01*
X1266172Y-231162D01*
Y-226084D01*
X1263633Y-223545D01*
X1258554D01*
X1256015Y-226084D01*
Y-231162D01*
X1258554Y-233702D01*
X1271250D02*
X1276329D01*
X1273789D01*
Y-218467D01*
X1271250D01*
X1294103D02*
Y-233702D01*
X1286485D01*
X1283946Y-231162D01*
Y-226084D01*
X1286485Y-223545D01*
X1294103D01*
X1306799Y-233702D02*
X1301720D01*
X1299181Y-231162D01*
Y-226084D01*
X1301720Y-223545D01*
X1306799D01*
X1309338Y-226084D01*
Y-228623D01*
X1299181D01*
X1314416Y-223545D02*
Y-233702D01*
Y-228623D01*
X1316955Y-226084D01*
X1319494Y-223545D01*
X1322034D01*
X1344886Y-233702D02*
Y-218467D01*
X1352504D01*
X1355043Y-221006D01*
Y-226084D01*
X1352504Y-228623D01*
X1344886D01*
X1349965D02*
X1355043Y-233702D01*
X1367739D02*
X1362661D01*
X1360121Y-231162D01*
Y-226084D01*
X1362661Y-223545D01*
X1367739D01*
X1370278Y-226084D01*
Y-228623D01*
X1360121D01*
X1375356Y-233702D02*
X1382974D01*
X1385513Y-231162D01*
X1382974Y-228623D01*
X1377896D01*
X1375356Y-226084D01*
X1377896Y-223545D01*
X1385513D01*
X1390591Y-233702D02*
X1395670D01*
X1393131D01*
Y-223545D01*
X1390591D01*
X1403287Y-233702D02*
X1410905D01*
X1413444Y-231162D01*
X1410905Y-228623D01*
X1405827D01*
X1403287Y-226084D01*
X1405827Y-223545D01*
X1413444D01*
X1421062Y-221006D02*
Y-223545D01*
X1418522D01*
X1423601D01*
X1421062D01*
Y-231162D01*
X1423601Y-233702D01*
X1240780Y-172742D02*
Y-157507D01*
X1248398D01*
X1250937Y-160046D01*
Y-165124D01*
X1248398Y-167663D01*
X1240780D01*
X1256015Y-162585D02*
Y-172742D01*
Y-167663D01*
X1258554Y-165124D01*
X1261093Y-162585D01*
X1263633D01*
X1278868Y-172742D02*
X1273789D01*
X1271250Y-170203D01*
Y-165124D01*
X1273789Y-162585D01*
X1278868D01*
X1281407Y-165124D01*
Y-167663D01*
X1271250D01*
X1286485Y-177820D02*
Y-162585D01*
X1294103D01*
X1296642Y-165124D01*
Y-170203D01*
X1294103Y-172742D01*
X1286485D01*
X1301720Y-162585D02*
Y-172742D01*
Y-167663D01*
X1304259Y-165124D01*
X1306799Y-162585D01*
X1309338D01*
X1324573Y-172742D02*
X1319494D01*
X1316955Y-170203D01*
Y-165124D01*
X1319494Y-162585D01*
X1324573D01*
X1327112Y-165124D01*
Y-167663D01*
X1316955D01*
X1342347Y-177820D02*
Y-162585D01*
X1334730D01*
X1332190Y-165124D01*
Y-170203D01*
X1334730Y-172742D01*
X1342347D01*
X1362661Y-160046D02*
X1365200Y-157507D01*
X1370278D01*
X1372817Y-160046D01*
Y-162585D01*
X1370278Y-165124D01*
X1367739D01*
X1370278D01*
X1372817Y-167663D01*
Y-170203D01*
X1370278Y-172742D01*
X1365200D01*
X1362661Y-170203D01*
X1377896Y-160046D02*
X1380435Y-157507D01*
X1385513D01*
X1388052Y-160046D01*
Y-162585D01*
X1385513Y-165124D01*
X1382974D01*
X1385513D01*
X1388052Y-167663D01*
Y-170203D01*
X1385513Y-172742D01*
X1380435D01*
X1377896Y-170203D01*
X1393131Y-172742D02*
X1398209D01*
X1395670D01*
Y-157507D01*
X1393131Y-160046D01*
X1405827D02*
X1408366Y-157507D01*
X1413444D01*
X1415983Y-160046D01*
Y-162585D01*
X1413444Y-165124D01*
X1410905D01*
X1413444D01*
X1415983Y-167663D01*
Y-170203D01*
X1413444Y-172742D01*
X1408366D01*
X1405827Y-170203D01*
X1250937Y-96547D02*
X1240780D01*
Y-104164D01*
X1245858D01*
X1240780D01*
Y-111782D01*
X1256015D02*
Y-96547D01*
X1263633D01*
X1266172Y-99086D01*
Y-104164D01*
X1263633Y-106703D01*
X1256015D01*
X1261093D02*
X1266172Y-111782D01*
X1271250Y-104164D02*
X1281407D01*
X1294103Y-111782D02*
Y-96547D01*
X1286485Y-104164D01*
X1296642D01*
X1240780Y-50822D02*
Y-35587D01*
X1248398D01*
X1250937Y-38126D01*
Y-43204D01*
X1248398Y-45743D01*
X1240780D01*
X1256015Y-40665D02*
Y-50822D01*
Y-45743D01*
X1258554Y-43204D01*
X1261093Y-40665D01*
X1263633D01*
X1278868Y-50822D02*
X1273789D01*
X1271250Y-48282D01*
Y-43204D01*
X1273789Y-40665D01*
X1278868D01*
X1281407Y-43204D01*
Y-45743D01*
X1271250D01*
X1286485Y-55900D02*
Y-40665D01*
X1294103D01*
X1296642Y-43204D01*
Y-48282D01*
X1294103Y-50822D01*
X1286485D01*
X1301720Y-40665D02*
Y-50822D01*
Y-45743D01*
X1304259Y-43204D01*
X1306799Y-40665D01*
X1309338D01*
X1324573Y-50822D02*
X1319494D01*
X1316955Y-48282D01*
Y-43204D01*
X1319494Y-40665D01*
X1324573D01*
X1327112Y-43204D01*
Y-45743D01*
X1316955D01*
X1342347Y-55900D02*
Y-40665D01*
X1334730D01*
X1332190Y-43204D01*
Y-48282D01*
X1334730Y-50822D01*
X1342347D01*
X1372817D02*
X1362661D01*
X1372817Y-40665D01*
Y-38126D01*
X1370278Y-35587D01*
X1365200D01*
X1362661Y-38126D01*
X1377896Y-50822D02*
X1382974D01*
X1380435D01*
Y-35587D01*
X1377896Y-38126D01*
X1390591Y-50822D02*
X1395670D01*
X1393131D01*
Y-35587D01*
X1390591Y-38126D01*
X1413444Y-35587D02*
X1408366Y-38126D01*
X1403287Y-43204D01*
Y-48282D01*
X1405827Y-50822D01*
X1410905D01*
X1413444Y-48282D01*
Y-45743D01*
X1410905Y-43204D01*
X1403287D01*
X1250937Y25373D02*
X1240780D01*
Y17756D01*
X1245858D01*
X1240780D01*
Y10138D01*
X1256015D02*
Y25373D01*
X1263633D01*
X1266172Y22834D01*
Y17756D01*
X1263633Y15217D01*
X1256015D01*
X1261093D02*
X1266172Y10138D01*
X1271250Y17756D02*
X1281407D01*
X1294103Y10138D02*
Y25373D01*
X1286485Y17756D01*
X1296642D01*
X1240780Y71098D02*
Y86333D01*
X1248398D01*
X1250937Y83794D01*
Y78716D01*
X1248398Y76177D01*
X1240780D01*
X1256015Y81255D02*
Y71098D01*
Y76177D01*
X1258554Y78716D01*
X1261093Y81255D01*
X1263633D01*
X1278868Y71098D02*
X1273789D01*
X1271250Y73637D01*
Y78716D01*
X1273789Y81255D01*
X1278868D01*
X1281407Y78716D01*
Y76177D01*
X1271250D01*
X1286485Y66020D02*
Y81255D01*
X1294103D01*
X1296642Y78716D01*
Y73637D01*
X1294103Y71098D01*
X1286485D01*
X1301720Y81255D02*
Y71098D01*
Y76177D01*
X1304259Y78716D01*
X1306799Y81255D01*
X1309338D01*
X1324573Y71098D02*
X1319494D01*
X1316955Y73637D01*
Y78716D01*
X1319494Y81255D01*
X1324573D01*
X1327112Y78716D01*
Y76177D01*
X1316955D01*
X1342347Y66020D02*
Y81255D01*
X1334730D01*
X1332190Y78716D01*
Y73637D01*
X1334730Y71098D01*
X1342347D01*
X1362661Y83794D02*
X1365200Y86333D01*
X1370278D01*
X1372817Y83794D01*
Y81255D01*
X1370278Y78716D01*
X1367739D01*
X1370278D01*
X1372817Y76177D01*
Y73637D01*
X1370278Y71098D01*
X1365200D01*
X1362661Y73637D01*
X1377896Y83794D02*
X1380435Y86333D01*
X1385513D01*
X1388052Y83794D01*
Y81255D01*
X1385513Y78716D01*
X1382974D01*
X1385513D01*
X1388052Y76177D01*
Y73637D01*
X1385513Y71098D01*
X1380435D01*
X1377896Y73637D01*
X1393131Y71098D02*
X1398209D01*
X1395670D01*
Y86333D01*
X1393131Y83794D01*
X1405827D02*
X1408366Y86333D01*
X1413444D01*
X1415983Y83794D01*
Y81255D01*
X1413444Y78716D01*
X1410905D01*
X1413444D01*
X1415983Y76177D01*
Y73637D01*
X1413444Y71098D01*
X1408366D01*
X1405827Y73637D01*
X1250937Y144754D02*
X1248398Y147293D01*
X1243319D01*
X1240780Y144754D01*
Y142215D01*
X1243319Y139676D01*
X1248398D01*
X1250937Y137137D01*
Y134598D01*
X1248398Y132058D01*
X1243319D01*
X1240780Y134598D01*
X1258554Y132058D02*
X1263633D01*
X1266172Y134598D01*
Y139676D01*
X1263633Y142215D01*
X1258554D01*
X1256015Y139676D01*
Y134598D01*
X1258554Y132058D01*
X1271250D02*
X1276329D01*
X1273789D01*
Y147293D01*
X1271250D01*
X1294103D02*
Y132058D01*
X1286485D01*
X1283946Y134598D01*
Y139676D01*
X1286485Y142215D01*
X1294103D01*
X1306799Y132058D02*
X1301720D01*
X1299181Y134598D01*
Y139676D01*
X1301720Y142215D01*
X1306799D01*
X1309338Y139676D01*
Y137137D01*
X1299181D01*
X1314416Y142215D02*
Y132058D01*
Y137137D01*
X1316955Y139676D01*
X1319494Y142215D01*
X1322034D01*
X1344886Y132058D02*
Y147293D01*
X1352504D01*
X1355043Y144754D01*
Y139676D01*
X1352504Y137137D01*
X1344886D01*
X1349965D02*
X1355043Y132058D01*
X1367739D02*
X1362661D01*
X1360121Y134598D01*
Y139676D01*
X1362661Y142215D01*
X1367739D01*
X1370278Y139676D01*
Y137137D01*
X1360121D01*
X1375356Y132058D02*
X1382974D01*
X1385513Y134598D01*
X1382974Y137137D01*
X1377896D01*
X1375356Y139676D01*
X1377896Y142215D01*
X1385513D01*
X1390591Y132058D02*
X1395670D01*
X1393131D01*
Y142215D01*
X1390591D01*
X1403287Y132058D02*
X1410905D01*
X1413444Y134598D01*
X1410905Y137137D01*
X1405827D01*
X1403287Y139676D01*
X1405827Y142215D01*
X1413444D01*
X1421062Y144754D02*
Y142215D01*
X1418522D01*
X1423601D01*
X1421062D01*
Y134598D01*
X1423601Y132058D01*
X1459161Y208253D02*
X1469318D01*
X1464239D01*
Y193018D01*
X1474396Y208253D02*
Y193018D01*
Y200636D01*
X1476935Y203175D01*
X1482013D01*
X1484553Y200636D01*
Y193018D01*
X1489631D02*
X1494709D01*
X1492170D01*
Y203175D01*
X1489631D01*
X1512484D02*
X1504866D01*
X1502327Y200636D01*
Y195557D01*
X1504866Y193018D01*
X1512484D01*
X1517562D02*
Y208253D01*
Y198097D02*
X1525179Y203175D01*
X1517562Y198097D02*
X1525179Y193018D01*
X1532797D02*
Y203175D01*
X1540414D01*
X1542954Y200636D01*
Y193018D01*
X1555650D02*
X1550571D01*
X1548032Y195557D01*
Y200636D01*
X1550571Y203175D01*
X1555650D01*
X1558189Y200636D01*
Y198097D01*
X1548032D01*
X1563267Y193018D02*
X1570885D01*
X1573424Y195557D01*
X1570885Y198097D01*
X1565806D01*
X1563267Y200636D01*
X1565806Y203175D01*
X1573424D01*
X1578502Y193018D02*
X1586120D01*
X1588659Y195557D01*
X1586120Y198097D01*
X1581041D01*
X1578502Y200636D01*
X1581041Y203175D01*
X1588659D01*
X1459161Y-221006D02*
X1461700Y-218467D01*
X1466778D01*
X1469318Y-221006D01*
Y-231162D01*
X1466778Y-233702D01*
X1461700D01*
X1459161Y-231162D01*
Y-221006D01*
X1476935Y-236241D02*
X1479474Y-233702D01*
Y-231162D01*
X1476935D01*
Y-233702D01*
X1479474D01*
X1476935Y-236241D01*
X1474396Y-238780D01*
X1489631Y-221006D02*
X1492170Y-218467D01*
X1497249D01*
X1499788Y-221006D01*
Y-231162D01*
X1497249Y-233702D01*
X1492170D01*
X1489631Y-231162D01*
Y-221006D01*
X1504866Y-233702D02*
X1509944D01*
X1507405D01*
Y-218467D01*
X1504866Y-221006D01*
X1517562D02*
X1520101Y-218467D01*
X1525179D01*
X1527719Y-221006D01*
Y-231162D01*
X1525179Y-233702D01*
X1520101D01*
X1517562Y-231162D01*
Y-221006D01*
X1532797Y-233702D02*
Y-223545D01*
X1535336D01*
X1537875Y-226084D01*
Y-233702D01*
Y-226084D01*
X1540414Y-223545D01*
X1542954Y-226084D01*
Y-233702D01*
X1548032D02*
Y-223545D01*
X1550571D01*
X1553110Y-226084D01*
Y-233702D01*
Y-226084D01*
X1555650Y-223545D01*
X1558189Y-226084D01*
Y-233702D01*
X1459161Y-190526D02*
X1461700Y-187987D01*
X1466778D01*
X1469318Y-190526D01*
Y-200683D01*
X1466778Y-203222D01*
X1461700D01*
X1459161Y-200683D01*
Y-190526D01*
X1476935Y-205761D02*
X1479474Y-203222D01*
Y-200683D01*
X1476935D01*
Y-203222D01*
X1479474D01*
X1476935Y-205761D01*
X1474396Y-208300D01*
X1489631Y-190526D02*
X1492170Y-187987D01*
X1497249D01*
X1499788Y-190526D01*
Y-200683D01*
X1497249Y-203222D01*
X1492170D01*
X1489631Y-200683D01*
Y-190526D01*
X1504866D02*
X1507405Y-187987D01*
X1512484D01*
X1515023Y-190526D01*
Y-193065D01*
X1512484Y-195604D01*
X1509944D01*
X1512484D01*
X1515023Y-198143D01*
Y-200683D01*
X1512484Y-203222D01*
X1507405D01*
X1504866Y-200683D01*
X1530258Y-187987D02*
X1520101D01*
Y-195604D01*
X1525179Y-193065D01*
X1527719D01*
X1530258Y-195604D01*
Y-200683D01*
X1527719Y-203222D01*
X1522640D01*
X1520101Y-200683D01*
X1535336Y-203222D02*
Y-193065D01*
X1537875D01*
X1540414Y-195604D01*
Y-203222D01*
Y-195604D01*
X1542954Y-193065D01*
X1545493Y-195604D01*
Y-203222D01*
X1550571D02*
Y-193065D01*
X1553111D01*
X1555650Y-195604D01*
Y-203222D01*
Y-195604D01*
X1558189Y-193065D01*
X1560728Y-195604D01*
Y-203222D01*
X1459161Y-160046D02*
X1461700Y-157507D01*
X1466778D01*
X1469318Y-160046D01*
Y-170203D01*
X1466778Y-172742D01*
X1461700D01*
X1459161Y-170203D01*
Y-160046D01*
X1476935Y-175281D02*
X1479474Y-172742D01*
Y-170203D01*
X1476935D01*
Y-172742D01*
X1479474D01*
X1476935Y-175281D01*
X1474396Y-177820D01*
X1489631Y-160046D02*
X1492170Y-157507D01*
X1497249D01*
X1499788Y-160046D01*
Y-170203D01*
X1497249Y-172742D01*
X1492170D01*
X1489631Y-170203D01*
Y-160046D01*
X1504866Y-170203D02*
X1507405Y-172742D01*
X1512484D01*
X1515023Y-170203D01*
Y-160046D01*
X1512484Y-157507D01*
X1507405D01*
X1504866Y-160046D01*
Y-162585D01*
X1507405Y-165124D01*
X1515023D01*
X1520101Y-170203D02*
X1522640Y-172742D01*
X1527719D01*
X1530258Y-170203D01*
Y-160046D01*
X1527719Y-157507D01*
X1522640D01*
X1520101Y-160046D01*
Y-162585D01*
X1522640Y-165124D01*
X1530258D01*
X1535336Y-172742D02*
Y-162585D01*
X1537875D01*
X1540414Y-165124D01*
Y-172742D01*
Y-165124D01*
X1542954Y-162585D01*
X1545493Y-165124D01*
Y-172742D01*
X1550571D02*
Y-162585D01*
X1553111D01*
X1555650Y-165124D01*
Y-172742D01*
Y-165124D01*
X1558189Y-162585D01*
X1560728Y-165124D01*
Y-172742D01*
X1459161Y-129566D02*
X1461700Y-127027D01*
X1466778D01*
X1469318Y-129566D01*
Y-139722D01*
X1466778Y-142262D01*
X1461700D01*
X1459161Y-139722D01*
Y-129566D01*
X1476935Y-144801D02*
X1479474Y-142262D01*
Y-139722D01*
X1476935D01*
Y-142262D01*
X1479474D01*
X1476935Y-144801D01*
X1474396Y-147340D01*
X1489631Y-129566D02*
X1492170Y-127027D01*
X1497249D01*
X1499788Y-129566D01*
Y-139722D01*
X1497249Y-142262D01*
X1492170D01*
X1489631Y-139722D01*
Y-129566D01*
X1504866Y-142262D02*
X1509944D01*
X1507405D01*
Y-127027D01*
X1504866Y-129566D01*
X1527719Y-127027D02*
X1517562D01*
Y-134644D01*
X1522640Y-132105D01*
X1525179D01*
X1527719Y-134644D01*
Y-139722D01*
X1525179Y-142262D01*
X1520101D01*
X1517562Y-139722D01*
X1532797Y-142262D02*
Y-132105D01*
X1535336D01*
X1537875Y-134644D01*
Y-142262D01*
Y-134644D01*
X1540414Y-132105D01*
X1542954Y-134644D01*
Y-142262D01*
X1548032D02*
Y-132105D01*
X1550571D01*
X1553110Y-134644D01*
Y-142262D01*
Y-134644D01*
X1555650Y-132105D01*
X1558189Y-134644D01*
Y-142262D01*
X1459161Y-99086D02*
X1461700Y-96547D01*
X1466778D01*
X1469318Y-99086D01*
Y-109242D01*
X1466778Y-111782D01*
X1461700D01*
X1459161Y-109242D01*
Y-99086D01*
X1476935Y-114321D02*
X1479474Y-111782D01*
Y-109242D01*
X1476935D01*
Y-111782D01*
X1479474D01*
X1476935Y-114321D01*
X1474396Y-116860D01*
X1499788Y-96547D02*
X1489631D01*
Y-104164D01*
X1494709Y-101625D01*
X1497249D01*
X1499788Y-104164D01*
Y-109242D01*
X1497249Y-111782D01*
X1492170D01*
X1489631Y-109242D01*
X1515023Y-96547D02*
X1504866D01*
Y-104164D01*
X1509944Y-101625D01*
X1512484D01*
X1515023Y-104164D01*
Y-109242D01*
X1512484Y-111782D01*
X1507405D01*
X1504866Y-109242D01*
X1520101Y-99086D02*
X1522640Y-96547D01*
X1527719D01*
X1530258Y-99086D01*
Y-109242D01*
X1527719Y-111782D01*
X1522640D01*
X1520101Y-109242D01*
Y-99086D01*
X1535336Y-111782D02*
Y-101625D01*
X1537875D01*
X1540414Y-104164D01*
Y-111782D01*
Y-104164D01*
X1542954Y-101625D01*
X1545493Y-104164D01*
Y-111782D01*
X1550571D02*
Y-101625D01*
X1553111D01*
X1555650Y-104164D01*
Y-111782D01*
Y-104164D01*
X1558189Y-101625D01*
X1560728Y-104164D01*
Y-111782D01*
X1459161Y-68606D02*
X1461700Y-66067D01*
X1466778D01*
X1469318Y-68606D01*
Y-78762D01*
X1466778Y-81302D01*
X1461700D01*
X1459161Y-78762D01*
Y-68606D01*
X1476935Y-83841D02*
X1479474Y-81302D01*
Y-78762D01*
X1476935D01*
Y-81302D01*
X1479474D01*
X1476935Y-83841D01*
X1474396Y-86380D01*
X1489631Y-68606D02*
X1492170Y-66067D01*
X1497249D01*
X1499788Y-68606D01*
Y-78762D01*
X1497249Y-81302D01*
X1492170D01*
X1489631Y-78762D01*
Y-68606D01*
X1504866Y-81302D02*
X1509944D01*
X1507405D01*
Y-66067D01*
X1504866Y-68606D01*
X1527719Y-66067D02*
X1517562D01*
Y-73684D01*
X1522640Y-71145D01*
X1525179D01*
X1527719Y-73684D01*
Y-78762D01*
X1525179Y-81302D01*
X1520101D01*
X1517562Y-78762D01*
X1532797Y-81302D02*
Y-71145D01*
X1535336D01*
X1537875Y-73684D01*
Y-81302D01*
Y-73684D01*
X1540414Y-71145D01*
X1542954Y-73684D01*
Y-81302D01*
X1548032D02*
Y-71145D01*
X1550571D01*
X1553110Y-73684D01*
Y-81302D01*
Y-73684D01*
X1555650Y-71145D01*
X1558189Y-73684D01*
Y-81302D01*
X1459161Y-38126D02*
X1461700Y-35587D01*
X1466778D01*
X1469318Y-38126D01*
Y-48282D01*
X1466778Y-50822D01*
X1461700D01*
X1459161Y-48282D01*
Y-38126D01*
X1476935Y-53361D02*
X1479474Y-50822D01*
Y-48282D01*
X1476935D01*
Y-50822D01*
X1479474D01*
X1476935Y-53361D01*
X1474396Y-55900D01*
X1489631Y-50822D02*
X1494709D01*
X1492170D01*
Y-35587D01*
X1489631Y-38126D01*
X1502327D02*
X1504866Y-35587D01*
X1509944D01*
X1512484Y-38126D01*
Y-48282D01*
X1509944Y-50822D01*
X1504866D01*
X1502327Y-48282D01*
Y-38126D01*
X1517562Y-48282D02*
X1520101Y-50822D01*
X1525179D01*
X1527719Y-48282D01*
Y-38126D01*
X1525179Y-35587D01*
X1520101D01*
X1517562Y-38126D01*
Y-40665D01*
X1520101Y-43204D01*
X1527719D01*
X1532797Y-50822D02*
Y-40665D01*
X1535336D01*
X1537875Y-43204D01*
Y-50822D01*
Y-43204D01*
X1540414Y-40665D01*
X1542954Y-43204D01*
Y-50822D01*
X1548032D02*
Y-40665D01*
X1550571D01*
X1553110Y-43204D01*
Y-50822D01*
Y-43204D01*
X1555650Y-40665D01*
X1558189Y-43204D01*
Y-50822D01*
X1459161Y-7646D02*
X1461700Y-5107D01*
X1466778D01*
X1469318Y-7646D01*
Y-17802D01*
X1466778Y-20342D01*
X1461700D01*
X1459161Y-17802D01*
Y-7646D01*
X1476935Y-22881D02*
X1479474Y-20342D01*
Y-17802D01*
X1476935D01*
Y-20342D01*
X1479474D01*
X1476935Y-22881D01*
X1474396Y-25420D01*
X1489631Y-7646D02*
X1492170Y-5107D01*
X1497249D01*
X1499788Y-7646D01*
Y-17802D01*
X1497249Y-20342D01*
X1492170D01*
X1489631Y-17802D01*
Y-7646D01*
X1504866Y-20342D02*
X1509944D01*
X1507405D01*
Y-5107D01*
X1504866Y-7646D01*
X1527719Y-5107D02*
X1517562D01*
Y-12724D01*
X1522640Y-10185D01*
X1525179D01*
X1527719Y-12724D01*
Y-17802D01*
X1525179Y-20342D01*
X1520101D01*
X1517562Y-17802D01*
X1532797Y-20342D02*
Y-10185D01*
X1535336D01*
X1537875Y-12724D01*
Y-20342D01*
Y-12724D01*
X1540414Y-10185D01*
X1542954Y-12724D01*
Y-20342D01*
X1548032D02*
Y-10185D01*
X1550571D01*
X1553110Y-12724D01*
Y-20342D01*
Y-12724D01*
X1555650Y-10185D01*
X1558189Y-12724D01*
Y-20342D01*
X1459161Y22834D02*
X1461700Y25373D01*
X1466778D01*
X1469318Y22834D01*
Y12678D01*
X1466778Y10138D01*
X1461700D01*
X1459161Y12678D01*
Y22834D01*
X1476935Y7599D02*
X1479474Y10138D01*
Y12678D01*
X1476935D01*
Y10138D01*
X1479474D01*
X1476935Y7599D01*
X1474396Y5060D01*
X1499788Y25373D02*
X1489631D01*
Y17756D01*
X1494709Y20295D01*
X1497249D01*
X1499788Y17756D01*
Y12678D01*
X1497249Y10138D01*
X1492170D01*
X1489631Y12678D01*
X1515023Y25373D02*
X1504866D01*
Y17756D01*
X1509944Y20295D01*
X1512484D01*
X1515023Y17756D01*
Y12678D01*
X1512484Y10138D01*
X1507405D01*
X1504866Y12678D01*
X1520101Y22834D02*
X1522640Y25373D01*
X1527719D01*
X1530258Y22834D01*
Y12678D01*
X1527719Y10138D01*
X1522640D01*
X1520101Y12678D01*
Y22834D01*
X1535336Y10138D02*
Y20295D01*
X1537875D01*
X1540414Y17756D01*
Y10138D01*
Y17756D01*
X1542954Y20295D01*
X1545493Y17756D01*
Y10138D01*
X1550571D02*
Y20295D01*
X1553111D01*
X1555650Y17756D01*
Y10138D01*
Y17756D01*
X1558189Y20295D01*
X1560728Y17756D01*
Y10138D01*
X1459161Y53314D02*
X1461700Y55853D01*
X1466778D01*
X1469318Y53314D01*
Y43158D01*
X1466778Y40618D01*
X1461700D01*
X1459161Y43158D01*
Y53314D01*
X1476935Y38079D02*
X1479474Y40618D01*
Y43158D01*
X1476935D01*
Y40618D01*
X1479474D01*
X1476935Y38079D01*
X1474396Y35540D01*
X1489631Y53314D02*
X1492170Y55853D01*
X1497249D01*
X1499788Y53314D01*
Y43158D01*
X1497249Y40618D01*
X1492170D01*
X1489631Y43158D01*
Y53314D01*
X1504866Y40618D02*
X1509944D01*
X1507405D01*
Y55853D01*
X1504866Y53314D01*
X1527719Y55853D02*
X1517562D01*
Y48236D01*
X1522640Y50775D01*
X1525179D01*
X1527719Y48236D01*
Y43158D01*
X1525179Y40618D01*
X1520101D01*
X1517562Y43158D01*
X1532797Y40618D02*
Y50775D01*
X1535336D01*
X1537875Y48236D01*
Y40618D01*
Y48236D01*
X1540414Y50775D01*
X1542954Y48236D01*
Y40618D01*
X1548032D02*
Y50775D01*
X1550571D01*
X1553110Y48236D01*
Y40618D01*
Y48236D01*
X1555650Y50775D01*
X1558189Y48236D01*
Y40618D01*
X1459161Y83794D02*
X1461700Y86333D01*
X1466778D01*
X1469318Y83794D01*
Y73637D01*
X1466778Y71098D01*
X1461700D01*
X1459161Y73637D01*
Y83794D01*
X1476935Y68559D02*
X1479474Y71098D01*
Y73637D01*
X1476935D01*
Y71098D01*
X1479474D01*
X1476935Y68559D01*
X1474396Y66020D01*
X1489631Y83794D02*
X1492170Y86333D01*
X1497249D01*
X1499788Y83794D01*
Y73637D01*
X1497249Y71098D01*
X1492170D01*
X1489631Y73637D01*
Y83794D01*
X1504866Y73637D02*
X1507405Y71098D01*
X1512484D01*
X1515023Y73637D01*
Y83794D01*
X1512484Y86333D01*
X1507405D01*
X1504866Y83794D01*
Y81255D01*
X1507405Y78716D01*
X1515023D01*
X1520101Y73637D02*
X1522640Y71098D01*
X1527719D01*
X1530258Y73637D01*
Y83794D01*
X1527719Y86333D01*
X1522640D01*
X1520101Y83794D01*
Y81255D01*
X1522640Y78716D01*
X1530258D01*
X1535336Y71098D02*
Y81255D01*
X1537875D01*
X1540414Y78716D01*
Y71098D01*
Y78716D01*
X1542954Y81255D01*
X1545493Y78716D01*
Y71098D01*
X1550571D02*
Y81255D01*
X1553111D01*
X1555650Y78716D01*
Y71098D01*
Y78716D01*
X1558189Y81255D01*
X1560728Y78716D01*
Y71098D01*
X1459161Y114274D02*
X1461700Y116813D01*
X1466778D01*
X1469318Y114274D01*
Y104117D01*
X1466778Y101578D01*
X1461700D01*
X1459161Y104117D01*
Y114274D01*
X1476935Y99039D02*
X1479474Y101578D01*
Y104117D01*
X1476935D01*
Y101578D01*
X1479474D01*
X1476935Y99039D01*
X1474396Y96500D01*
X1489631Y114274D02*
X1492170Y116813D01*
X1497249D01*
X1499788Y114274D01*
Y104117D01*
X1497249Y101578D01*
X1492170D01*
X1489631Y104117D01*
Y114274D01*
X1504866D02*
X1507405Y116813D01*
X1512484D01*
X1515023Y114274D01*
Y111735D01*
X1512484Y109196D01*
X1509944D01*
X1512484D01*
X1515023Y106657D01*
Y104117D01*
X1512484Y101578D01*
X1507405D01*
X1504866Y104117D01*
X1530258Y116813D02*
X1520101D01*
Y109196D01*
X1525179Y111735D01*
X1527719D01*
X1530258Y109196D01*
Y104117D01*
X1527719Y101578D01*
X1522640D01*
X1520101Y104117D01*
X1535336Y101578D02*
Y111735D01*
X1537875D01*
X1540414Y109196D01*
Y101578D01*
Y109196D01*
X1542954Y111735D01*
X1545493Y109196D01*
Y101578D01*
X1550571D02*
Y111735D01*
X1553111D01*
X1555650Y109196D01*
Y101578D01*
Y109196D01*
X1558189Y111735D01*
X1560728Y109196D01*
Y101578D01*
X1459161Y144754D02*
X1461700Y147293D01*
X1466778D01*
X1469318Y144754D01*
Y134598D01*
X1466778Y132058D01*
X1461700D01*
X1459161Y134598D01*
Y144754D01*
X1476935Y129519D02*
X1479474Y132058D01*
Y134598D01*
X1476935D01*
Y132058D01*
X1479474D01*
X1476935Y129519D01*
X1474396Y126980D01*
X1489631Y144754D02*
X1492170Y147293D01*
X1497249D01*
X1499788Y144754D01*
Y134598D01*
X1497249Y132058D01*
X1492170D01*
X1489631Y134598D01*
Y144754D01*
X1504866Y132058D02*
X1509944D01*
X1507405D01*
Y147293D01*
X1504866Y144754D01*
X1517562D02*
X1520101Y147293D01*
X1525179D01*
X1527719Y144754D01*
Y134598D01*
X1525179Y132058D01*
X1520101D01*
X1517562Y134598D01*
Y144754D01*
X1532797Y132058D02*
Y142215D01*
X1535336D01*
X1537875Y139676D01*
Y132058D01*
Y139676D01*
X1540414Y142215D01*
X1542954Y139676D01*
Y132058D01*
X1548032D02*
Y142215D01*
X1550571D01*
X1553110Y139676D01*
Y132058D01*
Y139676D01*
X1555650Y142215D01*
X1558189Y139676D01*
Y132058D01*
X1634376Y205714D02*
X1631837Y208253D01*
X1626758D01*
X1624219Y205714D01*
Y195557D01*
X1626758Y193018D01*
X1631837D01*
X1634376Y195557D01*
X1641993Y193018D02*
X1647072D01*
X1649611Y195557D01*
Y200636D01*
X1647072Y203175D01*
X1641993D01*
X1639454Y200636D01*
Y195557D01*
X1641993Y193018D01*
X1654689D02*
Y203175D01*
X1662307D01*
X1664846Y200636D01*
Y193018D01*
X1669924D02*
X1677542D01*
X1680081Y195557D01*
X1677542Y198097D01*
X1672463D01*
X1669924Y200636D01*
X1672463Y203175D01*
X1680081D01*
X1687698Y205714D02*
Y203175D01*
X1685159D01*
X1690238D01*
X1687698D01*
Y195557D01*
X1690238Y193018D01*
X1700394Y203175D02*
X1705473D01*
X1708012Y200636D01*
Y193018D01*
X1700394D01*
X1697855Y195557D01*
X1700394Y198097D01*
X1708012D01*
X1713090Y193018D02*
Y203175D01*
X1720708D01*
X1723247Y200636D01*
Y193018D01*
X1730865Y205714D02*
Y203175D01*
X1728325D01*
X1733404D01*
X1730865D01*
Y195557D01*
X1733404Y193018D01*
X1624219Y-221006D02*
X1626758Y-218467D01*
X1631837D01*
X1634376Y-221006D01*
Y-223545D01*
X1631837Y-226084D01*
X1629297D01*
X1631837D01*
X1634376Y-228623D01*
Y-231162D01*
X1631837Y-233702D01*
X1626758D01*
X1624219Y-231162D01*
X1639454Y-233702D02*
Y-231162D01*
X1641993D01*
Y-233702D01*
X1639454D01*
X1662307Y-218467D02*
X1652150D01*
Y-226084D01*
X1657228Y-223545D01*
X1659767D01*
X1662307Y-226084D01*
Y-231162D01*
X1659767Y-233702D01*
X1654689D01*
X1652150Y-231162D01*
X1631837Y-172742D02*
Y-157507D01*
X1624219Y-165124D01*
X1634376D01*
X1639454Y-172742D02*
Y-170203D01*
X1641993D01*
Y-172742D01*
X1639454D01*
X1652150D02*
X1657228D01*
X1654689D01*
Y-157507D01*
X1652150Y-160046D01*
X1631837Y-111782D02*
Y-96547D01*
X1624219Y-104164D01*
X1634376D01*
X1639454Y-111782D02*
Y-109242D01*
X1641993D01*
Y-111782D01*
X1639454D01*
X1662307Y-96547D02*
X1657228Y-99086D01*
X1652150Y-104164D01*
Y-109242D01*
X1654689Y-111782D01*
X1659767D01*
X1662307Y-109242D01*
Y-106703D01*
X1659767Y-104164D01*
X1652150D01*
X1631837Y-50822D02*
Y-35587D01*
X1624219Y-43204D01*
X1634376D01*
X1639454Y-50822D02*
Y-48282D01*
X1641993D01*
Y-50822D01*
X1639454D01*
X1652150D02*
X1657228D01*
X1654689D01*
Y-35587D01*
X1652150Y-38126D01*
X1675002Y-35587D02*
X1669924Y-38126D01*
X1664846Y-43204D01*
Y-48282D01*
X1667385Y-50822D01*
X1672463D01*
X1675002Y-48282D01*
Y-45743D01*
X1672463Y-43204D01*
X1664846D01*
X1631837Y10138D02*
Y25373D01*
X1624219Y17756D01*
X1634376D01*
X1639454Y10138D02*
Y12678D01*
X1641993D01*
Y10138D01*
X1639454D01*
X1662307Y25373D02*
X1657228Y22834D01*
X1652150Y17756D01*
Y12678D01*
X1654689Y10138D01*
X1659767D01*
X1662307Y12678D01*
Y15217D01*
X1659767Y17756D01*
X1652150D01*
X1631837Y71098D02*
Y86333D01*
X1624219Y78716D01*
X1634376D01*
X1639454Y71098D02*
Y73637D01*
X1641993D01*
Y71098D01*
X1639454D01*
X1652150D02*
X1657228D01*
X1654689D01*
Y86333D01*
X1652150Y83794D01*
X1624219Y144754D02*
X1626758Y147293D01*
X1631837D01*
X1634376Y144754D01*
Y142215D01*
X1631837Y139676D01*
X1629297D01*
X1631837D01*
X1634376Y137137D01*
Y134598D01*
X1631837Y132058D01*
X1626758D01*
X1624219Y134598D01*
X1639454Y132058D02*
Y134598D01*
X1641993D01*
Y132058D01*
X1639454D01*
X1662307Y147293D02*
X1652150D01*
Y139676D01*
X1657228Y142215D01*
X1659767D01*
X1662307Y139676D01*
Y134598D01*
X1659767Y132058D01*
X1654689D01*
X1652150Y134598D01*
X1768964Y208253D02*
Y193018D01*
X1776581D01*
X1779120Y195557D01*
Y198097D01*
X1776581Y200636D01*
X1768964D01*
X1776581D01*
X1779120Y203175D01*
Y205714D01*
X1776581Y208253D01*
X1768964D01*
X1786738Y193018D02*
X1791816D01*
X1794355Y195557D01*
Y200636D01*
X1791816Y203175D01*
X1786738D01*
X1784199Y200636D01*
Y195557D01*
X1786738Y193018D01*
X1801973Y203175D02*
X1807051D01*
X1809590Y200636D01*
Y193018D01*
X1801973D01*
X1799434Y195557D01*
X1801973Y198097D01*
X1809590D01*
X1814669Y203175D02*
Y193018D01*
Y198097D01*
X1817208Y200636D01*
X1819747Y203175D01*
X1822286D01*
X1840061Y208253D02*
Y193018D01*
X1832443D01*
X1829904Y195557D01*
Y200636D01*
X1832443Y203175D01*
X1840061D01*
X1860374Y208253D02*
Y193018D01*
X1870531D01*
X1878148Y203175D02*
X1883227D01*
X1885766Y200636D01*
Y193018D01*
X1878148D01*
X1875609Y195557D01*
X1878148Y198097D01*
X1885766D01*
X1890844Y203175D02*
Y195557D01*
X1893383Y193018D01*
X1901001D01*
Y190479D01*
X1898462Y187940D01*
X1895923D01*
X1901001Y193018D02*
Y203175D01*
X1913697Y193018D02*
X1908618D01*
X1906079Y195557D01*
Y200636D01*
X1908618Y203175D01*
X1913697D01*
X1916236Y200636D01*
Y198097D01*
X1906079D01*
X1921314Y203175D02*
Y193018D01*
Y198097D01*
X1923853Y200636D01*
X1926393Y203175D01*
X1928932D01*
X1961941Y205714D02*
X1959402Y208253D01*
X1954324D01*
X1951785Y205714D01*
Y203175D01*
X1954324Y200636D01*
X1959402D01*
X1961941Y198097D01*
Y195557D01*
X1959402Y193018D01*
X1954324D01*
X1951785Y195557D01*
X1969559Y205714D02*
Y203175D01*
X1967020D01*
X1972098D01*
X1969559D01*
Y195557D01*
X1972098Y193018D01*
X1982255Y203175D02*
X1987333D01*
X1989872Y200636D01*
Y193018D01*
X1982255D01*
X1979715Y195557D01*
X1982255Y198097D01*
X1989872D01*
X2005107Y203175D02*
X1997490D01*
X1994951Y200636D01*
Y195557D01*
X1997490Y193018D01*
X2005107D01*
X2010186D02*
Y208253D01*
Y198097D02*
X2017803Y203175D01*
X2010186Y198097D02*
X2017803Y193018D01*
X628815Y-279427D02*
X638972D01*
X633893D01*
Y-294662D01*
X646589D02*
X651668D01*
X654207Y-292122D01*
Y-287044D01*
X651668Y-284505D01*
X646589D01*
X644050Y-287044D01*
Y-292122D01*
X646589Y-294662D01*
X661824Y-281966D02*
Y-284505D01*
X659285D01*
X664363D01*
X661824D01*
Y-292122D01*
X664363Y-294662D01*
X674520Y-284505D02*
X679598D01*
X682138Y-287044D01*
Y-294662D01*
X674520D01*
X671981Y-292122D01*
X674520Y-289583D01*
X682138D01*
X687216Y-294662D02*
X692294D01*
X689755D01*
Y-279427D01*
X687216D01*
X715147D02*
Y-294662D01*
X722765D01*
X725304Y-292122D01*
Y-289583D01*
Y-287044D01*
X722765Y-284505D01*
X715147D01*
X732921Y-294662D02*
X738000D01*
X740539Y-292122D01*
Y-287044D01*
X738000Y-284505D01*
X732921D01*
X730382Y-287044D01*
Y-292122D01*
X732921Y-294662D01*
X748156Y-284505D02*
X753235D01*
X755774Y-287044D01*
Y-294662D01*
X748156D01*
X745617Y-292122D01*
X748156Y-289583D01*
X755774D01*
X760852Y-284505D02*
Y-294662D01*
Y-289583D01*
X763391Y-287044D01*
X765931Y-284505D01*
X768470D01*
X786244Y-279427D02*
Y-294662D01*
X778626D01*
X776087Y-292122D01*
Y-287044D01*
X778626Y-284505D01*
X786244D01*
X809097Y-281966D02*
Y-284505D01*
X806557D01*
X811636D01*
X809097D01*
Y-292122D01*
X811636Y-294662D01*
X819253Y-279427D02*
Y-294662D01*
Y-287044D01*
X821793Y-284505D01*
X826871D01*
X829410Y-287044D01*
Y-294662D01*
X834488D02*
X839567D01*
X837028D01*
Y-284505D01*
X834488D01*
X857341D02*
X849724D01*
X847184Y-287044D01*
Y-292122D01*
X849724Y-294662D01*
X857341D01*
X862419D02*
Y-279427D01*
Y-289583D02*
X870037Y-284505D01*
X862419Y-289583D02*
X870037Y-294662D01*
X877654D02*
Y-284505D01*
X885272D01*
X887811Y-287044D01*
Y-294662D01*
X900507D02*
X895429D01*
X892889Y-292122D01*
Y-287044D01*
X895429Y-284505D01*
X900507D01*
X903046Y-287044D01*
Y-289583D01*
X892889D01*
X908125Y-294662D02*
X915742D01*
X918281Y-292122D01*
X915742Y-289583D01*
X910664D01*
X908125Y-287044D01*
X910664Y-284505D01*
X918281D01*
X923360Y-294662D02*
X930977D01*
X933516Y-292122D01*
X930977Y-289583D01*
X925899D01*
X923360Y-287044D01*
X925899Y-284505D01*
X933516D01*
X938595D02*
X941134D01*
Y-287044D01*
X938595D01*
Y-284505D01*
Y-292122D02*
X941134D01*
Y-294662D01*
X938595D01*
Y-292122D01*
X1459161Y-294662D02*
X1464239D01*
X1461700D01*
Y-279427D01*
X1459161Y-281966D01*
X1474396Y-297201D02*
X1476935Y-294662D01*
Y-292122D01*
X1474396D01*
Y-294662D01*
X1476935D01*
X1474396Y-297201D01*
X1471857Y-299740D01*
X1497249Y-279427D02*
X1487092D01*
Y-287044D01*
X1492170Y-284505D01*
X1494709D01*
X1497249Y-287044D01*
Y-292122D01*
X1494709Y-294662D01*
X1489631D01*
X1487092Y-292122D01*
X1512484Y-279427D02*
X1502327D01*
Y-287044D01*
X1507405Y-284505D01*
X1509944D01*
X1512484Y-287044D01*
Y-292122D01*
X1509944Y-294662D01*
X1504866D01*
X1502327Y-292122D01*
X1517562Y-281966D02*
X1520101Y-279427D01*
X1525179D01*
X1527719Y-281966D01*
Y-284505D01*
X1525179Y-287044D01*
X1527719Y-289583D01*
Y-292122D01*
X1525179Y-294662D01*
X1520101D01*
X1517562Y-292122D01*
Y-289583D01*
X1520101Y-287044D01*
X1517562Y-284505D01*
Y-281966D01*
X1520101Y-287044D02*
X1525179D01*
X1532797Y-294662D02*
Y-284505D01*
X1535336D01*
X1537875Y-287044D01*
Y-294662D01*
Y-287044D01*
X1540414Y-284505D01*
X1542954Y-287044D01*
Y-294662D01*
X1548032D02*
Y-284505D01*
X1550571D01*
X1553110Y-287044D01*
Y-294662D01*
Y-287044D01*
X1555650Y-284505D01*
X1558189Y-287044D01*
Y-294662D01*
D110*
X611035Y185398D02*
X2035583D01*
X611035Y215878D02*
X2035583D01*
X611035Y-271802D02*
Y215878D01*
Y-271802D02*
X715153D01*
X611035Y-241322D02*
X715153D01*
X611035Y-210842D02*
X715153D01*
X611035Y-180362D02*
X715153D01*
X611035Y-149882D02*
X715153D01*
X611035Y-119402D02*
X715153D01*
X611035Y-88922D02*
X715153D01*
X611035Y-58442D02*
X715153D01*
X611035Y-27962D02*
X715153D01*
X611035Y2518D02*
X715153D01*
X611035Y32998D02*
X715153D01*
X611035Y63478D02*
X715153D01*
X611035Y93958D02*
X715153D01*
X611035Y124438D02*
X715153D01*
X611035Y154918D02*
X715153D01*
Y-271802D02*
Y215878D01*
Y-271802D02*
X1223000D01*
X715153Y-241322D02*
X1223000D01*
X715153Y-210842D02*
X1223000D01*
X715153Y-180362D02*
X1223000D01*
X715153Y-149882D02*
X1223000D01*
X715153Y-119402D02*
X1223000D01*
X715153Y-88922D02*
X1223000D01*
X715153Y-58442D02*
X1223000D01*
X715153Y-27962D02*
X1223000D01*
X715153Y2518D02*
X1223000D01*
X715153Y32998D02*
X1223000D01*
X715153Y63478D02*
X1223000D01*
X715153Y93958D02*
X1223000D01*
X715153Y124438D02*
X1223000D01*
X715153Y154918D02*
X1223000D01*
Y-271802D02*
Y215878D01*
Y-271802D02*
X1441381D01*
X1223000Y-241322D02*
X1441381D01*
X1223000Y-210842D02*
X1441381D01*
X1223000Y-180362D02*
X1441381D01*
X1223000Y-149882D02*
X1441381D01*
X1223000Y-119402D02*
X1441381D01*
X1223000Y-88922D02*
X1441381D01*
X1223000Y-58442D02*
X1441381D01*
X1223000Y-27962D02*
X1441381D01*
X1223000Y2518D02*
X1441381D01*
X1223000Y32998D02*
X1441381D01*
X1223000Y63478D02*
X1441381D01*
X1223000Y93958D02*
X1441381D01*
X1223000Y124438D02*
X1441381D01*
X1223000Y154918D02*
X1441381D01*
Y-271802D02*
Y215878D01*
Y-271802D02*
X1606439D01*
X1441381Y-241322D02*
X1606439D01*
X1441381Y-210842D02*
X1606439D01*
X1441381Y-180362D02*
X1606439D01*
X1441381Y-149882D02*
X1606439D01*
X1441381Y-119402D02*
X1606439D01*
X1441381Y-88922D02*
X1606439D01*
X1441381Y-58442D02*
X1606439D01*
X1441381Y-27962D02*
X1606439D01*
X1441381Y2518D02*
X1606439D01*
X1441381Y32998D02*
X1606439D01*
X1441381Y63478D02*
X1606439D01*
X1441381Y93958D02*
X1606439D01*
X1441381Y124438D02*
X1606439D01*
X1441381Y154918D02*
X1606439D01*
Y-271802D02*
Y215878D01*
Y-271802D02*
X1751184D01*
X1606439Y-241322D02*
X1751184D01*
X1606439Y-210842D02*
X1751184D01*
X1606439Y-180362D02*
X1751184D01*
X1606439Y-149882D02*
X1751184D01*
X1606439Y-119402D02*
X1751184D01*
X1606439Y-88922D02*
X1751184D01*
X1606439Y-58442D02*
X1751184D01*
X1606439Y-27962D02*
X1751184D01*
X1606439Y2518D02*
X1751184D01*
X1606439Y32998D02*
X1751184D01*
X1606439Y63478D02*
X1751184D01*
X1606439Y93958D02*
X1751184D01*
X1606439Y124438D02*
X1751184D01*
X1606439Y154918D02*
X1751184D01*
Y-271802D02*
Y215878D01*
Y-271802D02*
X2035583D01*
X1751184Y-241322D02*
X2035583D01*
X1751184Y-210842D02*
X2035583D01*
X1751184Y-180362D02*
X2035583D01*
X1751184Y-149882D02*
X2035583D01*
X1751184Y-119402D02*
X2035583D01*
X1751184Y-88922D02*
X2035583D01*
X1751184Y-58442D02*
X2035583D01*
X1751184Y-27962D02*
X2035583D01*
X1751184Y2518D02*
X2035583D01*
X1751184Y32998D02*
X2035583D01*
X1751184Y63478D02*
X2035583D01*
X1751184Y93958D02*
X2035583D01*
X1751184Y124438D02*
X2035583D01*
X1751184Y154918D02*
X2035583D01*
Y-271802D02*
Y215878D01*
D111*
X2020343Y-271802D02*
X2035583Y-256562D01*
X2005103Y-271802D02*
X2035583Y-241322D01*
X1989863Y-271802D02*
X2020343Y-241322D01*
X1974623Y-271802D02*
X2005103Y-241322D01*
X1959383Y-271802D02*
X1989863Y-241322D01*
X1944143Y-271802D02*
X1974623Y-241322D01*
X1928903Y-271802D02*
X1959383Y-241322D01*
X1913663Y-271802D02*
X1944143Y-241322D01*
X1898423Y-271802D02*
X1928903Y-241322D01*
X1883183Y-271802D02*
X1913663Y-241322D01*
X1867943Y-271802D02*
X1898423Y-241322D01*
X1852703Y-271802D02*
X1883183Y-241322D01*
X1837463Y-271802D02*
X1867943Y-241322D01*
X1822223Y-271802D02*
X1852703Y-241322D01*
X1806983Y-271802D02*
X1837463Y-241322D01*
X1791743Y-271802D02*
X1822223Y-241322D01*
X1776503Y-271802D02*
X1806983Y-241322D01*
X1761263Y-271802D02*
X1791743Y-241322D01*
X1751184Y-266641D02*
X1776503Y-241322D01*
X1751184Y-251401D02*
X1761263Y-241322D01*
X2020343D02*
X2035583Y-226082D01*
X2005103Y-241322D02*
X2035583Y-210842D01*
X1989863Y-241322D02*
X2020343Y-210842D01*
X1974623Y-241322D02*
X2005103Y-210842D01*
X1959383Y-241322D02*
X1989863Y-210842D01*
X1944143Y-241322D02*
X1974623Y-210842D01*
X1928903Y-241322D02*
X1959383Y-210842D01*
X1913663Y-241322D02*
X1944143Y-210842D01*
X1898423Y-241322D02*
X1928903Y-210842D01*
X1883183Y-241322D02*
X1913663Y-210842D01*
X1867943Y-241322D02*
X1898423Y-210842D01*
X1852703Y-241322D02*
X1883183Y-210842D01*
X1837463Y-241322D02*
X1867943Y-210842D01*
X1822223Y-241322D02*
X1852703Y-210842D01*
X1806983Y-241322D02*
X1837463Y-210842D01*
X1791743Y-241322D02*
X1822223Y-210842D01*
X1776503Y-241322D02*
X1806983Y-210842D01*
X1761263Y-241322D02*
X1791743Y-210842D01*
X1751184Y-236161D02*
X1776503Y-210842D01*
X1751184Y-220921D02*
X1761263Y-210842D01*
X2020343D02*
X2035583Y-195602D01*
X2005103Y-210842D02*
X2035583Y-180362D01*
X1989863Y-210842D02*
X2020343Y-180362D01*
X1974623Y-210842D02*
X2005103Y-180362D01*
X1959383Y-210842D02*
X1989863Y-180362D01*
X1944143Y-210842D02*
X1974623Y-180362D01*
X1928903Y-210842D02*
X1959383Y-180362D01*
X1913663Y-210842D02*
X1944143Y-180362D01*
X1898423Y-210842D02*
X1928903Y-180362D01*
X1883183Y-210842D02*
X1913663Y-180362D01*
X1867943Y-210842D02*
X1898423Y-180362D01*
X1852703Y-210842D02*
X1883183Y-180362D01*
X1837463Y-210842D02*
X1867943Y-180362D01*
X1822223Y-210842D02*
X1852703Y-180362D01*
X1806983Y-210842D02*
X1837463Y-180362D01*
X1791743Y-210842D02*
X1822223Y-180362D01*
X1776503Y-210842D02*
X1806983Y-180362D01*
X1761263Y-210842D02*
X1791743Y-180362D01*
X1751184Y-205681D02*
X1776503Y-180362D01*
X1751184Y-190441D02*
X1761263Y-180362D01*
X2020343D02*
X2035583Y-165122D01*
X2005103Y-180362D02*
X2035583Y-149882D01*
X1989863Y-180362D02*
X2020343Y-149882D01*
X1974623Y-180362D02*
X2005103Y-149882D01*
X1959383Y-180362D02*
X1989863Y-149882D01*
X1944143Y-180362D02*
X1974623Y-149882D01*
X1928903Y-180362D02*
X1959383Y-149882D01*
X1913663Y-180362D02*
X1944143Y-149882D01*
X1898423Y-180362D02*
X1928903Y-149882D01*
X1883183Y-180362D02*
X1913663Y-149882D01*
X1867943Y-180362D02*
X1898423Y-149882D01*
X1852703Y-180362D02*
X1883183Y-149882D01*
X1837463Y-180362D02*
X1867943Y-149882D01*
X1822223Y-180362D02*
X1852703Y-149882D01*
X1806983Y-180362D02*
X1837463Y-149882D01*
X1791743Y-180362D02*
X1822223Y-149882D01*
X1776503Y-180362D02*
X1806983Y-149882D01*
X1761263Y-180362D02*
X1791743Y-149882D01*
X1751184Y-175201D02*
X1776503Y-149882D01*
X1751184Y-159961D02*
X1761263Y-149882D01*
X2020343D02*
X2035583Y-134642D01*
X2005103Y-149882D02*
X2035583Y-119402D01*
X1989863Y-149882D02*
X2020343Y-119402D01*
X1974623Y-149882D02*
X2005103Y-119402D01*
X1959383Y-149882D02*
X1989863Y-119402D01*
X1944143Y-149882D02*
X1974623Y-119402D01*
X1928903Y-149882D02*
X1959383Y-119402D01*
X1913663Y-149882D02*
X1944143Y-119402D01*
X1898423Y-149882D02*
X1928903Y-119402D01*
X1883183Y-149882D02*
X1913663Y-119402D01*
X1867943Y-149882D02*
X1898423Y-119402D01*
X1852703Y-149882D02*
X1883183Y-119402D01*
X1837463Y-149882D02*
X1867943Y-119402D01*
X1822223Y-149882D02*
X1852703Y-119402D01*
X1806983Y-149882D02*
X1837463Y-119402D01*
X1791743Y-149882D02*
X1822223Y-119402D01*
X1776503Y-149882D02*
X1806983Y-119402D01*
X1761263Y-149882D02*
X1791743Y-119402D01*
X1751184Y-144721D02*
X1776503Y-119402D01*
X1751184Y-129481D02*
X1761263Y-119402D01*
X2020343D02*
X2035583Y-104162D01*
X2005103Y-119402D02*
X2035583Y-88922D01*
X1989863Y-119402D02*
X2020343Y-88922D01*
X1974623Y-119402D02*
X2005103Y-88922D01*
X1959383Y-119402D02*
X1989863Y-88922D01*
X1944143Y-119402D02*
X1974623Y-88922D01*
X1928903Y-119402D02*
X1959383Y-88922D01*
X1913663Y-119402D02*
X1944143Y-88922D01*
X1898423Y-119402D02*
X1928903Y-88922D01*
X1883183Y-119402D02*
X1913663Y-88922D01*
X1867943Y-119402D02*
X1898423Y-88922D01*
X1852703Y-119402D02*
X1883183Y-88922D01*
X1837463Y-119402D02*
X1867943Y-88922D01*
X1822223Y-119402D02*
X1852703Y-88922D01*
X1806983Y-119402D02*
X1837463Y-88922D01*
X1791743Y-119402D02*
X1822223Y-88922D01*
X1776503Y-119402D02*
X1806983Y-88922D01*
X1761263Y-119402D02*
X1791743Y-88922D01*
X1751184Y-114241D02*
X1776503Y-88922D01*
X1751184Y-99001D02*
X1761263Y-88922D01*
X2020343D02*
X2035583Y-73682D01*
X2005103Y-88922D02*
X2035583Y-58442D01*
X1989863Y-88922D02*
X2020343Y-58442D01*
X1974623Y-88922D02*
X2005103Y-58442D01*
X1959383Y-88922D02*
X1989863Y-58442D01*
X1944143Y-88922D02*
X1974623Y-58442D01*
X1928903Y-88922D02*
X1959383Y-58442D01*
X1913663Y-88922D02*
X1944143Y-58442D01*
X1898423Y-88922D02*
X1928903Y-58442D01*
X1883183Y-88922D02*
X1913663Y-58442D01*
X1867943Y-88922D02*
X1898423Y-58442D01*
X1852703Y-88922D02*
X1883183Y-58442D01*
X1837463Y-88922D02*
X1867943Y-58442D01*
X1822223Y-88922D02*
X1852703Y-58442D01*
X1806983Y-88922D02*
X1837463Y-58442D01*
X1791743Y-88922D02*
X1822223Y-58442D01*
X1776503Y-88922D02*
X1806983Y-58442D01*
X1761263Y-88922D02*
X1791743Y-58442D01*
X1751184Y-83761D02*
X1776503Y-58442D01*
X1751184Y-68521D02*
X1761263Y-58442D01*
X2020343D02*
X2035583Y-43202D01*
X2005103Y-58442D02*
X2035583Y-27962D01*
X1989863Y-58442D02*
X2020343Y-27962D01*
X1974623Y-58442D02*
X2005103Y-27962D01*
X1959383Y-58442D02*
X1989863Y-27962D01*
X1944143Y-58442D02*
X1974623Y-27962D01*
X1928903Y-58442D02*
X1959383Y-27962D01*
X1913663Y-58442D02*
X1944143Y-27962D01*
X1898423Y-58442D02*
X1928903Y-27962D01*
X1883183Y-58442D02*
X1913663Y-27962D01*
X1867943Y-58442D02*
X1898423Y-27962D01*
X1852703Y-58442D02*
X1883183Y-27962D01*
X1837463Y-58442D02*
X1867943Y-27962D01*
X1822223Y-58442D02*
X1852703Y-27962D01*
X1806983Y-58442D02*
X1837463Y-27962D01*
X1791743Y-58442D02*
X1822223Y-27962D01*
X1776503Y-58442D02*
X1806983Y-27962D01*
X1761263Y-58442D02*
X1791743Y-27962D01*
X1751184Y-53281D02*
X1776503Y-27962D01*
X1751184Y-38041D02*
X1761263Y-27962D01*
X2020343D02*
X2035583Y-12722D01*
X2005103Y-27962D02*
X2035583Y2518D01*
X1989863Y-27962D02*
X2020343Y2518D01*
X1974623Y-27962D02*
X2005103Y2518D01*
X1959383Y-27962D02*
X1989863Y2518D01*
X1944143Y-27962D02*
X1974623Y2518D01*
X1928903Y-27962D02*
X1959383Y2518D01*
X1913663Y-27962D02*
X1944143Y2518D01*
X1898423Y-27962D02*
X1928903Y2518D01*
X1883183Y-27962D02*
X1913663Y2518D01*
X1867943Y-27962D02*
X1898423Y2518D01*
X1852703Y-27962D02*
X1883183Y2518D01*
X1837463Y-27962D02*
X1867943Y2518D01*
X1822223Y-27962D02*
X1852703Y2518D01*
X1806983Y-27962D02*
X1837463Y2518D01*
X1791743Y-27962D02*
X1822223Y2518D01*
X1776503Y-27962D02*
X1806983Y2518D01*
X1761263Y-27962D02*
X1791743Y2518D01*
X1751184Y-22801D02*
X1776503Y2518D01*
X1751184Y-7561D02*
X1761263Y2518D01*
X2020343D02*
X2035583Y17758D01*
X2005103Y2518D02*
X2035583Y32998D01*
X1989863Y2518D02*
X2020343Y32998D01*
X1974623Y2518D02*
X2005103Y32998D01*
X1959383Y2518D02*
X1989863Y32998D01*
X1944143Y2518D02*
X1974623Y32998D01*
X1928903Y2518D02*
X1959383Y32998D01*
X1913663Y2518D02*
X1944143Y32998D01*
X1898423Y2518D02*
X1928903Y32998D01*
X1883183Y2518D02*
X1913663Y32998D01*
X1867943Y2518D02*
X1898423Y32998D01*
X1852703Y2518D02*
X1883183Y32998D01*
X1837463Y2518D02*
X1867943Y32998D01*
X1822223Y2518D02*
X1852703Y32998D01*
X1806983Y2518D02*
X1837463Y32998D01*
X1791743Y2518D02*
X1822223Y32998D01*
X1776503Y2518D02*
X1806983Y32998D01*
X1761263Y2518D02*
X1791743Y32998D01*
X1751184Y7679D02*
X1776503Y32998D01*
X1751184Y22919D02*
X1761263Y32998D01*
X2020343D02*
X2035583Y48238D01*
X2005103Y32998D02*
X2035583Y63478D01*
X1989863Y32998D02*
X2020343Y63478D01*
X1974623Y32998D02*
X2005103Y63478D01*
X1959383Y32998D02*
X1989863Y63478D01*
X1944143Y32998D02*
X1974623Y63478D01*
X1928903Y32998D02*
X1959383Y63478D01*
X1913663Y32998D02*
X1944143Y63478D01*
X1898423Y32998D02*
X1928903Y63478D01*
X1883183Y32998D02*
X1913663Y63478D01*
X1867943Y32998D02*
X1898423Y63478D01*
X1852703Y32998D02*
X1883183Y63478D01*
X1837463Y32998D02*
X1867943Y63478D01*
X1822223Y32998D02*
X1852703Y63478D01*
X1806983Y32998D02*
X1837463Y63478D01*
X1791743Y32998D02*
X1822223Y63478D01*
X1776503Y32998D02*
X1806983Y63478D01*
X1761263Y32998D02*
X1791743Y63478D01*
X1751184Y38159D02*
X1776503Y63478D01*
X1751184Y53399D02*
X1761263Y63478D01*
X2020343D02*
X2035583Y78718D01*
X2005103Y63478D02*
X2035583Y93958D01*
X1989863Y63478D02*
X2020343Y93958D01*
X1974623Y63478D02*
X2005103Y93958D01*
X1959383Y63478D02*
X1989863Y93958D01*
X1944143Y63478D02*
X1974623Y93958D01*
X1928903Y63478D02*
X1959383Y93958D01*
X1913663Y63478D02*
X1944143Y93958D01*
X1898423Y63478D02*
X1928903Y93958D01*
X1883183Y63478D02*
X1913663Y93958D01*
X1867943Y63478D02*
X1898423Y93958D01*
X1852703Y63478D02*
X1883183Y93958D01*
X1837463Y63478D02*
X1867943Y93958D01*
X1822223Y63478D02*
X1852703Y93958D01*
X1806983Y63478D02*
X1837463Y93958D01*
X1791743Y63478D02*
X1822223Y93958D01*
X1776503Y63478D02*
X1806983Y93958D01*
X1761263Y63478D02*
X1791743Y93958D01*
X1751184Y68639D02*
X1776503Y93958D01*
X1751184Y83879D02*
X1761263Y93958D01*
X2020343D02*
X2035583Y109198D01*
X2005103Y93958D02*
X2035583Y124438D01*
X1989863Y93958D02*
X2020343Y124438D01*
X1974623Y93958D02*
X2005103Y124438D01*
X1959383Y93958D02*
X1989863Y124438D01*
X1944143Y93958D02*
X1974623Y124438D01*
X1928903Y93958D02*
X1959383Y124438D01*
X1913663Y93958D02*
X1944143Y124438D01*
X1898423Y93958D02*
X1928903Y124438D01*
X1883183Y93958D02*
X1913663Y124438D01*
X1867943Y93958D02*
X1898423Y124438D01*
X1852703Y93958D02*
X1883183Y124438D01*
X1837463Y93958D02*
X1867943Y124438D01*
X1822223Y93958D02*
X1852703Y124438D01*
X1806983Y93958D02*
X1837463Y124438D01*
X1791743Y93958D02*
X1822223Y124438D01*
X1776503Y93958D02*
X1806983Y124438D01*
X1761263Y93958D02*
X1791743Y124438D01*
X1751184Y99119D02*
X1776503Y124438D01*
X1751184Y114359D02*
X1761263Y124438D01*
X2020343D02*
X2035583Y139678D01*
X2005103Y124438D02*
X2035583Y154918D01*
X1989863Y124438D02*
X2020343Y154918D01*
X1974623Y124438D02*
X2005103Y154918D01*
X1959383Y124438D02*
X1989863Y154918D01*
X1944143Y124438D02*
X1974623Y154918D01*
X1928903Y124438D02*
X1959383Y154918D01*
X1913663Y124438D02*
X1944143Y154918D01*
X1898423Y124438D02*
X1928903Y154918D01*
X1883183Y124438D02*
X1913663Y154918D01*
X1867943Y124438D02*
X1898423Y154918D01*
X1852703Y124438D02*
X1883183Y154918D01*
X1837463Y124438D02*
X1867943Y154918D01*
X1822223Y124438D02*
X1852703Y154918D01*
X1806983Y124438D02*
X1837463Y154918D01*
X1791743Y124438D02*
X1822223Y154918D01*
X1776503Y124438D02*
X1806983Y154918D01*
X1761263Y124438D02*
X1791743Y154918D01*
X1751184Y129599D02*
X1776503Y154918D01*
X1751184Y144839D02*
X1761263Y154918D01*
X2020343D02*
X2035583Y170158D01*
X2005103Y154918D02*
X2035583Y185398D01*
X1989863Y154918D02*
X2020343Y185398D01*
X1974623Y154918D02*
X2005103Y185398D01*
X1959383Y154918D02*
X1989863Y185398D01*
X1944143Y154918D02*
X1974623Y185398D01*
X1928903Y154918D02*
X1959383Y185398D01*
X1913663Y154918D02*
X1944143Y185398D01*
X1898423Y154918D02*
X1928903Y185398D01*
X1883183Y154918D02*
X1913663Y185398D01*
X1867943Y154918D02*
X1898423Y185398D01*
X1852703Y154918D02*
X1883183Y185398D01*
X1837463Y154918D02*
X1867943Y185398D01*
X1822223Y154918D02*
X1852703Y185398D01*
X1806983Y154918D02*
X1837463Y185398D01*
X1791743Y154918D02*
X1822223Y185398D01*
X1776503Y154918D02*
X1806983Y185398D01*
X1761263Y154918D02*
X1791743Y185398D01*
X1751184Y160079D02*
X1776503Y185398D01*
X1751184Y175319D02*
X1761263Y185398D01*
M02*
