G04*
G04 #@! TF.GenerationSoftware,Altium Limited,Altium Designer,25.3.3 (18)*
G04*
G04 Layer_Physical_Order=3*
G04 Layer_Color=16440176*
%FSLAX44Y44*%
%MOMM*%
G71*
G04*
G04 #@! TF.SameCoordinates,E74E417C-EFC3-4B03-BFDF-08B39AB8E956*
G04*
G04*
G04 #@! TF.FilePolarity,Positive*
G04*
G01*
G75*
%ADD84C,0.6000*%
%ADD87C,1.2000*%
%ADD88C,1.0000*%
%ADD96C,0.9500*%
%ADD97C,2.0000*%
%ADD98R,2.0000X2.0000*%
%ADD99C,0.6500*%
%ADD101O,2.4000X0.9000*%
%ADD102O,1.7000X0.9000*%
%ADD103C,0.5000*%
%ADD104C,1.6350*%
%ADD105R,1.6350X1.6350*%
%ADD107C,1.5080*%
%ADD108C,1.2800*%
G36*
X20003Y844902D02*
X20145Y844902D01*
X333791D01*
X334000Y781000D01*
X334155Y780845D01*
X336723D01*
Y780006D01*
X337485Y778168D01*
X338891Y776761D01*
X340729Y776000D01*
X342718D01*
X344556Y776761D01*
X345962Y778168D01*
X346723Y780006D01*
Y780845D01*
X486723D01*
Y780006D01*
X487485Y778168D01*
X488891Y776761D01*
X490729Y776000D01*
X492718D01*
X494556Y776761D01*
X495632Y777838D01*
X496902Y777371D01*
Y756593D01*
X495632Y756426D01*
X495455Y757088D01*
X494402Y758912D01*
X492912Y760402D01*
X491088Y761455D01*
X489053Y762000D01*
X486947D01*
X484912Y761455D01*
X483088Y760402D01*
X481598Y758912D01*
X480545Y757088D01*
X480000Y755053D01*
Y752947D01*
X480545Y750912D01*
X481598Y749088D01*
X483088Y747598D01*
X484912Y746545D01*
X486947Y746000D01*
X489053D01*
X491088Y746545D01*
X492912Y747598D01*
X494402Y749088D01*
X495455Y750912D01*
X495632Y751574D01*
X496902Y751407D01*
Y736592D01*
X495632Y736425D01*
X495454Y737088D01*
X494401Y738912D01*
X492912Y740402D01*
X491088Y741455D01*
X489053Y742000D01*
X486946D01*
X484912Y741455D01*
X483088Y740402D01*
X481598Y738912D01*
X480545Y737088D01*
X480000Y735053D01*
Y732947D01*
X480545Y730912D01*
X481598Y729088D01*
X483088Y727598D01*
X484912Y726545D01*
X486946Y726000D01*
X489053D01*
X491088Y726545D01*
X492912Y727598D01*
X494401Y729088D01*
X495454Y730912D01*
X495632Y731575D01*
X496902Y731408D01*
X496902Y675593D01*
X495632Y675426D01*
X495455Y676088D01*
X494402Y677912D01*
X492912Y679402D01*
X491088Y680455D01*
X489053Y681000D01*
X486947D01*
X484912Y680455D01*
X483088Y679402D01*
X481598Y677912D01*
X480545Y676088D01*
X480000Y674053D01*
Y671947D01*
X480545Y669912D01*
X481598Y668088D01*
X483088Y666598D01*
X484912Y665545D01*
X486947Y665000D01*
X489053D01*
X491088Y665545D01*
X492912Y666598D01*
X494402Y668088D01*
X495455Y669912D01*
X495632Y670574D01*
X496902Y670407D01*
X496902Y584629D01*
X495632Y584162D01*
X494556Y585239D01*
X492718Y586000D01*
X490729D01*
X488891Y585239D01*
X487485Y583832D01*
X486723Y581995D01*
Y580006D01*
X487485Y578168D01*
X488891Y576761D01*
X490729Y576000D01*
X492718D01*
X494556Y576761D01*
X495632Y577838D01*
X496902Y577371D01*
X496902Y484629D01*
X495632Y484162D01*
X494556Y485239D01*
X492718Y486000D01*
X490729D01*
X488891Y485239D01*
X487485Y483832D01*
X486723Y481995D01*
Y480006D01*
X487485Y478168D01*
X488891Y476761D01*
X490729Y476000D01*
X492718D01*
X494556Y476761D01*
X495632Y477838D01*
X496902Y477371D01*
X496902Y384629D01*
X495632Y384162D01*
X494556Y385239D01*
X492718Y386000D01*
X490729D01*
X488891Y385239D01*
X487485Y383832D01*
X486723Y381995D01*
Y380006D01*
X487485Y378168D01*
X488891Y376761D01*
X490729Y376000D01*
X492718D01*
X494556Y376761D01*
X495632Y377838D01*
X496902Y377372D01*
X496903Y284629D01*
X495632Y284162D01*
X494556Y285239D01*
X492718Y286000D01*
X490729D01*
X488891Y285239D01*
X487485Y283832D01*
X486723Y281995D01*
Y280006D01*
X487485Y278168D01*
X488891Y276761D01*
X490729Y276000D01*
X492718D01*
X494556Y276761D01*
X495632Y277838D01*
X496903Y277372D01*
X496903Y184629D01*
X495633Y184162D01*
X494556Y185239D01*
X492718Y186000D01*
X490729D01*
X488891Y185239D01*
X487485Y183832D01*
X486723Y181995D01*
Y180006D01*
X487485Y178168D01*
X488891Y176761D01*
X490729Y176000D01*
X492718D01*
X494556Y176761D01*
X495633Y177838D01*
X496903Y177372D01*
X496903Y84628D01*
X495633Y84162D01*
X494556Y85239D01*
X492718Y86000D01*
X490729D01*
X488891Y85239D01*
X487485Y83832D01*
X486723Y81995D01*
Y80006D01*
X487485Y78168D01*
X488891Y76761D01*
X490729Y76000D01*
X492718D01*
X494556Y76761D01*
X495633Y77838D01*
X496903Y77372D01*
X496903Y10000D01*
Y8532D01*
X496330Y5653D01*
X495206Y2941D01*
X493576Y500D01*
X491500Y-1575D01*
X489059Y-3206D01*
X486347Y-4329D01*
X483468Y-4902D01*
X482063Y-4902D01*
X20319Y-4902D01*
X20317Y-4902D01*
X20315Y-4902D01*
X19996Y-4902D01*
X18532D01*
X15653Y-4330D01*
X12941Y-3206D01*
X10500Y-1575D01*
X8425Y500D01*
X6794Y2941D01*
X5670Y5653D01*
X5098Y8532D01*
X5098Y10000D01*
X5098Y830000D01*
Y831468D01*
X5671Y834347D01*
X6794Y837059D01*
X8425Y839500D01*
X10500Y841575D01*
X12941Y843206D01*
X15653Y844330D01*
X18532Y844902D01*
X20000Y844902D01*
X20001Y844902D01*
X20003Y844902D01*
D02*
G37*
%LPC*%
G36*
X76000Y830000D02*
X52000D01*
Y806000D01*
X76000D01*
Y830000D01*
D02*
G37*
G36*
X301995Y811000D02*
X300005D01*
X298168Y810239D01*
X296761Y808832D01*
X296000Y806995D01*
Y805005D01*
X296761Y803168D01*
X298168Y801761D01*
X300005Y801000D01*
X301995D01*
X303832Y801761D01*
X305239Y803168D01*
X306000Y805005D01*
Y806995D01*
X305239Y808832D01*
X303832Y810239D01*
X301995Y811000D01*
D02*
G37*
G36*
X139995D02*
X138005D01*
X136168Y810239D01*
X134761Y808832D01*
X134000Y806995D01*
Y805005D01*
X134761Y803168D01*
X136168Y801761D01*
X138005Y801000D01*
X139995D01*
X141832Y801761D01*
X143239Y803168D01*
X144000Y805005D01*
Y806995D01*
X143239Y808832D01*
X141832Y810239D01*
X139995Y811000D01*
D02*
G37*
G36*
X259445Y811370D02*
X257667D01*
X255951Y810910D01*
X254411Y810021D01*
X253155Y808764D01*
X252266Y807225D01*
X251806Y805508D01*
Y803731D01*
X252266Y802014D01*
X253155Y800475D01*
X254411Y799219D01*
X255951Y798330D01*
X257667Y797870D01*
X259445D01*
X261161Y798330D01*
X262701Y799219D01*
X263957Y800475D01*
X264846Y802014D01*
X265306Y803731D01*
Y805508D01*
X264846Y807225D01*
X263957Y808764D01*
X262701Y810021D01*
X261161Y810910D01*
X259445Y811370D01*
D02*
G37*
G36*
X191445D02*
X189667D01*
X187951Y810910D01*
X186411Y810021D01*
X185155Y808764D01*
X184266Y807225D01*
X183806Y805508D01*
Y803731D01*
X184266Y802014D01*
X185155Y800475D01*
X186411Y799219D01*
X187951Y798330D01*
X189667Y797870D01*
X191445D01*
X193161Y798330D01*
X194701Y799219D01*
X195957Y800475D01*
X196846Y802014D01*
X197306Y803731D01*
Y805508D01*
X196846Y807225D01*
X195957Y808764D01*
X194701Y810021D01*
X193161Y810910D01*
X191445Y811370D01*
D02*
G37*
G36*
X301995Y799000D02*
X300005D01*
X298168Y798239D01*
X296761Y796832D01*
X296000Y794995D01*
Y793005D01*
X296761Y791168D01*
X298168Y789761D01*
X300005Y789000D01*
X301995D01*
X303832Y789761D01*
X305239Y791168D01*
X306000Y793005D01*
Y794995D01*
X305239Y796832D01*
X303832Y798239D01*
X301995Y799000D01*
D02*
G37*
G36*
X139995D02*
X138005D01*
X136168Y798239D01*
X134761Y796832D01*
X134000Y794995D01*
Y793005D01*
X134761Y791168D01*
X136168Y789761D01*
X138005Y789000D01*
X139995D01*
X141832Y789761D01*
X143239Y791168D01*
X144000Y793005D01*
Y794995D01*
X143239Y796832D01*
X141832Y798239D01*
X139995Y799000D01*
D02*
G37*
G36*
X322995Y793000D02*
X321005D01*
X319168Y792239D01*
X317761Y790832D01*
X317000Y788995D01*
Y787005D01*
X317761Y785168D01*
X319168Y783761D01*
X321005Y783000D01*
X322995D01*
X324832Y783761D01*
X326239Y785168D01*
X327000Y787005D01*
Y788995D01*
X326239Y790832D01*
X324832Y792239D01*
X322995Y793000D01*
D02*
G37*
G36*
X292718Y786000D02*
X290729D01*
X288891Y785239D01*
X287485Y783832D01*
X286723Y781995D01*
Y780006D01*
X287485Y778168D01*
X288891Y776761D01*
X290729Y776000D01*
X292718D01*
X294556Y776761D01*
X295962Y778168D01*
X296723Y780006D01*
Y781995D01*
X295962Y783832D01*
X294556Y785239D01*
X292718Y786000D01*
D02*
G37*
G36*
X242718D02*
X240729D01*
X238891Y785239D01*
X237485Y783832D01*
X236723Y781995D01*
Y780006D01*
X237485Y778168D01*
X238891Y776761D01*
X240729Y776000D01*
X242718D01*
X244556Y776761D01*
X245962Y778168D01*
X246723Y780006D01*
Y781995D01*
X245962Y783832D01*
X244556Y785239D01*
X242718Y786000D01*
D02*
G37*
G36*
X192718D02*
X190729D01*
X188891Y785239D01*
X187485Y783832D01*
X186723Y781995D01*
Y780006D01*
X187485Y778168D01*
X188891Y776761D01*
X190729Y776000D01*
X192718D01*
X194556Y776761D01*
X195962Y778168D01*
X196723Y780006D01*
Y781995D01*
X195962Y783832D01*
X194556Y785239D01*
X192718Y786000D01*
D02*
G37*
G36*
X142718D02*
X140729D01*
X138891Y785239D01*
X137485Y783832D01*
X136723Y781995D01*
Y780006D01*
X137485Y778168D01*
X138891Y776761D01*
X140729Y776000D01*
X142718D01*
X144556Y776761D01*
X145962Y778168D01*
X146723Y780006D01*
Y781995D01*
X145962Y783832D01*
X144556Y785239D01*
X142718Y786000D01*
D02*
G37*
G36*
X92718D02*
X90729D01*
X88891Y785239D01*
X87485Y783832D01*
X86723Y781995D01*
Y780006D01*
X87485Y778168D01*
X88891Y776761D01*
X90729Y776000D01*
X92718D01*
X94556Y776761D01*
X95962Y778168D01*
X96723Y780006D01*
Y781995D01*
X95962Y783832D01*
X94556Y785239D01*
X92718Y786000D01*
D02*
G37*
G36*
X42718D02*
X40729D01*
X38891Y785239D01*
X37485Y783832D01*
X36723Y781995D01*
Y780006D01*
X37485Y778168D01*
X38891Y776761D01*
X40729Y776000D01*
X42718D01*
X44556Y776761D01*
X45962Y778168D01*
X46723Y780006D01*
Y781995D01*
X45962Y783832D01*
X44556Y785239D01*
X42718Y786000D01*
D02*
G37*
G36*
X420995Y743000D02*
X419005D01*
X417168Y742239D01*
X415761Y740832D01*
X415687Y740654D01*
X414313D01*
X414239Y740832D01*
X412832Y742239D01*
X410995Y743000D01*
X409005D01*
X407168Y742239D01*
X405761Y740832D01*
X405687Y740654D01*
X404313D01*
X404239Y740832D01*
X402832Y742239D01*
X400994Y743000D01*
X399005D01*
X397168Y742239D01*
X395761Y740832D01*
X395000Y738995D01*
Y737005D01*
X395761Y735168D01*
X397168Y733761D01*
X397346Y733687D01*
Y732313D01*
X397168Y732239D01*
X395761Y730832D01*
X395000Y728995D01*
Y727005D01*
X395761Y725168D01*
X397168Y723761D01*
X397472Y723635D01*
Y722365D01*
X397168Y722239D01*
X395761Y720832D01*
X395000Y718995D01*
Y717005D01*
X395761Y715168D01*
X397168Y713761D01*
X399005Y713000D01*
X400994D01*
X402832Y713761D01*
X404239Y715168D01*
X404313Y715346D01*
X405687D01*
X405761Y715168D01*
X407168Y713761D01*
X409005Y713000D01*
X410995D01*
X412832Y713761D01*
X414239Y715168D01*
X414313Y715346D01*
X415687D01*
X415761Y715168D01*
X417168Y713761D01*
X419005Y713000D01*
X420995D01*
X422832Y713761D01*
X424239Y715168D01*
X425000Y717005D01*
Y718995D01*
X424239Y720832D01*
X422832Y722239D01*
X422528Y722365D01*
Y723635D01*
X422832Y723761D01*
X424239Y725168D01*
X425000Y727005D01*
Y728995D01*
X424239Y730832D01*
X422832Y732239D01*
X422654Y732313D01*
Y733687D01*
X422832Y733761D01*
X424239Y735168D01*
X425000Y737005D01*
Y738995D01*
X424239Y740832D01*
X422832Y742239D01*
X420995Y743000D01*
D02*
G37*
G36*
X338995Y741000D02*
X337006D01*
X335168Y740239D01*
X333761Y738832D01*
X333000Y736995D01*
Y735005D01*
X333524Y733741D01*
X332552Y732769D01*
X331995Y733000D01*
X330005D01*
X328168Y732239D01*
X326761Y730832D01*
X326000Y728994D01*
Y727005D01*
X326761Y725168D01*
X328168Y723761D01*
X330005Y723000D01*
X331995D01*
X333832Y723761D01*
X335239Y725168D01*
X336000Y727005D01*
Y728994D01*
X335476Y730259D01*
X336448Y731231D01*
X337006Y731000D01*
X338995D01*
X340832Y731761D01*
X342239Y733168D01*
X343000Y735005D01*
Y736995D01*
X342239Y738832D01*
X340832Y740239D01*
X338995Y741000D01*
D02*
G37*
G36*
X65580Y751000D02*
X62421D01*
X59369Y750182D01*
X56632Y748603D01*
X54398Y746368D01*
X52818Y743632D01*
X52000Y740580D01*
Y737420D01*
X52818Y734368D01*
X54398Y731632D01*
X56632Y729398D01*
X59369Y727818D01*
X62421Y727000D01*
X65580D01*
X68632Y727818D01*
X71368Y729398D01*
X73603Y731632D01*
X75182Y734368D01*
X76000Y737420D01*
Y740580D01*
X75182Y743632D01*
X73603Y746368D01*
X71368Y748603D01*
X68632Y750182D01*
X65580Y751000D01*
D02*
G37*
G36*
X367718Y736000D02*
X365729D01*
X363891Y735239D01*
X362485Y733832D01*
X361723Y731995D01*
Y730006D01*
X362485Y728168D01*
X363891Y726761D01*
X365729Y726000D01*
X367718D01*
X369556Y726761D01*
X370962Y728168D01*
X371723Y730006D01*
Y731995D01*
X370962Y733832D01*
X369556Y735239D01*
X367718Y736000D01*
D02*
G37*
G36*
X167718D02*
X165729D01*
X163891Y735239D01*
X162485Y733832D01*
X161723Y731995D01*
Y730006D01*
X162485Y728168D01*
X163891Y726761D01*
X165729Y726000D01*
X167718D01*
X169556Y726761D01*
X170962Y728168D01*
X171723Y730006D01*
Y731995D01*
X170962Y733832D01*
X169556Y735239D01*
X167718Y736000D01*
D02*
G37*
G36*
X117718D02*
X115729D01*
X113891Y735239D01*
X112485Y733832D01*
X111723Y731995D01*
Y730006D01*
X112485Y728168D01*
X113891Y726761D01*
X115729Y726000D01*
X117718D01*
X119556Y726761D01*
X120962Y728168D01*
X121723Y730006D01*
Y731995D01*
X120962Y733832D01*
X119556Y735239D01*
X117718Y736000D01*
D02*
G37*
G36*
X17718D02*
X15729D01*
X13891Y735239D01*
X12485Y733832D01*
X11723Y731995D01*
Y730006D01*
X12485Y728168D01*
X13891Y726761D01*
X15729Y726000D01*
X17718D01*
X19556Y726761D01*
X20962Y728168D01*
X21723Y730006D01*
Y731995D01*
X20962Y733832D01*
X19556Y735239D01*
X17718Y736000D01*
D02*
G37*
G36*
X479995Y725000D02*
X478005D01*
X476168Y724239D01*
X474761Y722832D01*
X474000Y720995D01*
Y719005D01*
X474761Y717168D01*
X476168Y715761D01*
X478005Y715000D01*
X479995D01*
X481832Y715761D01*
X483239Y717168D01*
X484000Y719005D01*
Y720995D01*
X483239Y722832D01*
X481832Y724239D01*
X479995Y725000D01*
D02*
G37*
G36*
X301995Y721000D02*
X300005D01*
X298168Y720239D01*
X296761Y718832D01*
X296000Y716995D01*
Y715005D01*
X296761Y713168D01*
X298168Y711761D01*
X300005Y711000D01*
X301995D01*
X303832Y711761D01*
X305239Y713168D01*
X306000Y715005D01*
Y716995D01*
X305239Y718832D01*
X303832Y720239D01*
X301995Y721000D01*
D02*
G37*
G36*
X139995D02*
X138005D01*
X136168Y720239D01*
X134761Y718832D01*
X134000Y716995D01*
Y715005D01*
X134761Y713168D01*
X136168Y711761D01*
X138005Y711000D01*
X139995D01*
X141832Y711761D01*
X143239Y713168D01*
X144000Y715005D01*
Y716995D01*
X143239Y718832D01*
X141832Y720239D01*
X139995Y721000D01*
D02*
G37*
G36*
X322995Y717100D02*
X321006D01*
X319168Y716339D01*
X317761Y714932D01*
X317000Y713094D01*
Y711105D01*
X317761Y709268D01*
X319168Y707861D01*
X321006Y707100D01*
X322995D01*
X324832Y707861D01*
X326239Y709268D01*
X327000Y711105D01*
Y713094D01*
X326239Y714932D01*
X324832Y716339D01*
X322995Y717100D01*
D02*
G37*
G36*
X276995Y709000D02*
X275005D01*
X273168Y708239D01*
X271761Y706832D01*
X271173Y705413D01*
X269827D01*
X269239Y706832D01*
X267832Y708239D01*
X265995Y709000D01*
X264005D01*
X262168Y708239D01*
X260761Y706832D01*
X260173Y705413D01*
X258827D01*
X258239Y706832D01*
X256832Y708239D01*
X254995Y709000D01*
X253005D01*
X251168Y708239D01*
X249761Y706832D01*
X249173Y705413D01*
X247827D01*
X247239Y706832D01*
X245832Y708239D01*
X243995Y709000D01*
X242005D01*
X240168Y708239D01*
X238761Y706832D01*
X238000Y704995D01*
Y703005D01*
X238761Y701168D01*
X240168Y699761D01*
X242005Y699000D01*
X243995D01*
X245832Y699761D01*
X247239Y701168D01*
X247827Y702587D01*
X249173D01*
X249761Y701168D01*
X251168Y699761D01*
X253005Y699000D01*
X254995D01*
X256832Y699761D01*
X258239Y701168D01*
X258827Y702587D01*
X260173D01*
X260761Y701168D01*
X262168Y699761D01*
X264005Y699000D01*
X265995D01*
X267832Y699761D01*
X269239Y701168D01*
X269827Y702587D01*
X271173D01*
X271761Y701168D01*
X273168Y699761D01*
X275005Y699000D01*
X276995D01*
X278832Y699761D01*
X280239Y701168D01*
X281000Y703005D01*
Y704995D01*
X280239Y706832D01*
X278832Y708239D01*
X276995Y709000D01*
D02*
G37*
G36*
X221995Y708000D02*
X220005D01*
X218168Y707239D01*
X216761Y705832D01*
X216173Y704413D01*
X214827D01*
X214239Y705832D01*
X212832Y707239D01*
X210995Y708000D01*
X209005D01*
X207168Y707239D01*
X205761Y705832D01*
X205173Y704413D01*
X203827D01*
X203239Y705832D01*
X201832Y707239D01*
X199995Y708000D01*
X198005D01*
X196168Y707239D01*
X194761Y705832D01*
X194000Y703995D01*
Y702005D01*
X194761Y700168D01*
X196168Y698761D01*
X198005Y698000D01*
X199995D01*
X201832Y698761D01*
X203239Y700168D01*
X203827Y701587D01*
X205173D01*
X205761Y700168D01*
X207168Y698761D01*
X209005Y698000D01*
X210995D01*
X212832Y698761D01*
X214239Y700168D01*
X214827Y701587D01*
X216173D01*
X216761Y700168D01*
X218168Y698761D01*
X220005Y698000D01*
X221995D01*
X223832Y698761D01*
X225239Y700168D01*
X226000Y702005D01*
Y703995D01*
X225239Y705832D01*
X223832Y707239D01*
X221995Y708000D01*
D02*
G37*
G36*
X489995Y717000D02*
X488005D01*
X486168Y716239D01*
X484761Y714832D01*
X484000Y712995D01*
Y711005D01*
X484761Y709168D01*
X485929Y708000D01*
X484761Y706832D01*
X484000Y704994D01*
Y703005D01*
X484524Y701741D01*
X483552Y700769D01*
X482995Y701000D01*
X481006D01*
X479168Y700238D01*
X477761Y698832D01*
X477000Y696994D01*
Y695005D01*
X477761Y693167D01*
X479168Y691761D01*
X481006Y691000D01*
X482995D01*
X483552Y691230D01*
X484524Y690258D01*
X484000Y688995D01*
Y687005D01*
X484761Y685168D01*
X486168Y683761D01*
X488005Y683000D01*
X489995D01*
X491832Y683761D01*
X493239Y685168D01*
X494000Y687005D01*
Y688995D01*
X493239Y690832D01*
X491832Y692239D01*
X489995Y693000D01*
X488005D01*
X487449Y692769D01*
X486477Y693741D01*
X487000Y695005D01*
Y696994D01*
X486476Y698259D01*
X487448Y699231D01*
X488005Y699000D01*
X489995D01*
X491832Y699761D01*
X493239Y701168D01*
X494000Y703005D01*
Y704994D01*
X493239Y706832D01*
X492071Y708000D01*
X493239Y709168D01*
X494000Y711005D01*
Y712995D01*
X493239Y714832D01*
X491832Y716239D01*
X489995Y717000D01*
D02*
G37*
G36*
X338995Y709000D02*
X337006D01*
X335168Y708239D01*
X333761Y706832D01*
X333000Y704995D01*
Y703006D01*
X333761Y701168D01*
X335168Y699761D01*
X337006Y699000D01*
X338995D01*
X340832Y699761D01*
X342239Y701168D01*
X343000Y703006D01*
Y704995D01*
X342239Y706832D01*
X340832Y708239D01*
X338995Y709000D01*
D02*
G37*
G36*
X301995Y709000D02*
X300005D01*
X298168Y708239D01*
X296761Y706832D01*
X296000Y704995D01*
Y703005D01*
X296761Y701168D01*
X298168Y699761D01*
X300005Y699000D01*
X301995D01*
X303832Y699761D01*
X305239Y701168D01*
X306000Y703005D01*
Y704995D01*
X305239Y706832D01*
X303832Y708239D01*
X301995Y709000D01*
D02*
G37*
G36*
X139995D02*
X138005D01*
X136168Y708239D01*
X134761Y706832D01*
X134000Y704995D01*
Y703005D01*
X134761Y701168D01*
X136168Y699761D01*
X138005Y699000D01*
X139995D01*
X141832Y699761D01*
X143239Y701168D01*
X144000Y703005D01*
Y704995D01*
X143239Y706832D01*
X141832Y708239D01*
X139995Y709000D01*
D02*
G37*
G36*
X322995Y700900D02*
X321006D01*
X319168Y700139D01*
X317761Y698732D01*
X317000Y696894D01*
Y694905D01*
X317761Y693067D01*
X319168Y691661D01*
X321006Y690900D01*
X322995D01*
X324832Y691661D01*
X326239Y693067D01*
X327000Y694905D01*
Y696894D01*
X326239Y698732D01*
X324832Y700139D01*
X322995Y700900D01*
D02*
G37*
G36*
X378995Y695000D02*
X377005D01*
X375168Y694239D01*
X373761Y692832D01*
X373000Y690995D01*
Y689005D01*
X373761Y687168D01*
X375168Y685761D01*
X377005Y685000D01*
X378995D01*
X380832Y685761D01*
X382239Y687168D01*
X383000Y689005D01*
Y690995D01*
X382239Y692832D01*
X380832Y694239D01*
X378995Y695000D01*
D02*
G37*
G36*
X362995D02*
X361006D01*
X359168Y694239D01*
X357761Y692832D01*
X357000Y690995D01*
Y689005D01*
X357761Y687168D01*
X359168Y685761D01*
X361006Y685000D01*
X362995D01*
X364832Y685761D01*
X366239Y687168D01*
X367000Y689005D01*
Y690995D01*
X366239Y692832D01*
X364832Y694239D01*
X362995Y695000D01*
D02*
G37*
G36*
X342718Y686000D02*
X340729D01*
X338891Y685239D01*
X337485Y683832D01*
X336723Y681995D01*
Y681259D01*
X335454Y681088D01*
X334401Y682912D01*
X332912Y684402D01*
X331088Y685455D01*
X329053Y686000D01*
X326946D01*
X324912Y685455D01*
X323088Y684402D01*
X321598Y682912D01*
X320545Y681088D01*
X320000Y679053D01*
Y676947D01*
X320545Y674912D01*
X321598Y673088D01*
X323088Y671598D01*
X324912Y670545D01*
X326946Y670000D01*
X329053D01*
X331088Y670545D01*
X332912Y671598D01*
X334401Y673088D01*
X335454Y674912D01*
X336000Y676947D01*
Y678434D01*
X337270Y678687D01*
X337485Y678168D01*
X338891Y676761D01*
X340729Y676000D01*
X342718D01*
X344556Y676761D01*
X345962Y678168D01*
X346723Y680006D01*
Y681995D01*
X345962Y683832D01*
X344556Y685239D01*
X342718Y686000D01*
D02*
G37*
G36*
X142718D02*
X140729D01*
X138891Y685239D01*
X137485Y683832D01*
X136723Y681995D01*
Y680006D01*
X137485Y678168D01*
X138891Y676761D01*
X140729Y676000D01*
X142718D01*
X144556Y676761D01*
X145962Y678168D01*
X146723Y680006D01*
Y681995D01*
X145962Y683832D01*
X144556Y685239D01*
X142718Y686000D01*
D02*
G37*
G36*
X92718D02*
X90729D01*
X88891Y685239D01*
X87485Y683832D01*
X86723Y681995D01*
Y680006D01*
X87485Y678168D01*
X88891Y676761D01*
X90729Y676000D01*
X92718D01*
X94556Y676761D01*
X95962Y678168D01*
X96723Y680006D01*
Y681995D01*
X95962Y683832D01*
X94556Y685239D01*
X92718Y686000D01*
D02*
G37*
G36*
X42718D02*
X40729D01*
X38891Y685239D01*
X37485Y683832D01*
X36723Y681995D01*
Y680006D01*
X37485Y678168D01*
X38891Y676761D01*
X40729Y676000D01*
X42718D01*
X44556Y676761D01*
X45962Y678168D01*
X46723Y680006D01*
Y681995D01*
X45962Y683832D01*
X44556Y685239D01*
X42718Y686000D01*
D02*
G37*
G36*
X450994Y671000D02*
X449005D01*
X447168Y670239D01*
X445761Y668832D01*
X445000Y666994D01*
Y665005D01*
X445230Y664448D01*
X444258Y663476D01*
X442994Y664000D01*
X441005D01*
X439168Y663239D01*
X437761Y661832D01*
X437000Y659994D01*
Y658005D01*
X437761Y656168D01*
X439168Y654761D01*
X441005Y654000D01*
X442994D01*
X444832Y654761D01*
X446239Y656168D01*
X447000Y658005D01*
Y659994D01*
X446769Y660551D01*
X447741Y661523D01*
X449005Y661000D01*
X450994D01*
X452259Y661524D01*
X453231Y660552D01*
X453000Y659994D01*
Y658005D01*
X453761Y656168D01*
X455168Y654761D01*
X457005Y654000D01*
X458994D01*
X460832Y654761D01*
X462239Y656168D01*
X463000Y658005D01*
Y659994D01*
X462239Y661832D01*
X460832Y663239D01*
X458994Y664000D01*
X457005D01*
X455741Y663476D01*
X454769Y664448D01*
X455000Y665005D01*
Y666994D01*
X454239Y668832D01*
X452832Y670239D01*
X450994Y671000D01*
D02*
G37*
G36*
X386995D02*
X385005D01*
X383168Y670239D01*
X381761Y668832D01*
X381000Y666994D01*
Y665005D01*
X381761Y663167D01*
X383168Y661761D01*
X385005Y661000D01*
X386995D01*
X388832Y661761D01*
X390239Y663167D01*
X391000Y665005D01*
Y666994D01*
X390239Y668832D01*
X388832Y670239D01*
X386995Y671000D01*
D02*
G37*
G36*
X370994D02*
X369005D01*
X367168Y670239D01*
X365761Y668832D01*
X365000Y666994D01*
Y665005D01*
X365761Y663167D01*
X367168Y661761D01*
X369005Y661000D01*
X370994D01*
X372832Y661761D01*
X374239Y663167D01*
X375000Y665005D01*
Y666994D01*
X374239Y668832D01*
X372832Y670239D01*
X370994Y671000D01*
D02*
G37*
G36*
X404480Y666485D02*
X402491D01*
X400653Y665724D01*
X399246Y664317D01*
X398485Y662480D01*
Y660491D01*
X399246Y658653D01*
X400653Y657246D01*
X402491Y656485D01*
X404480D01*
X406317Y657246D01*
X407724Y658653D01*
X408485Y660491D01*
Y662480D01*
X407724Y664317D01*
X406317Y665724D01*
X404480Y666485D01*
D02*
G37*
G36*
X418994Y671000D02*
X417005D01*
X415168Y670239D01*
X413761Y668832D01*
X413000Y666994D01*
Y665005D01*
X413761Y663167D01*
X415168Y661761D01*
X417005Y661000D01*
X418994D01*
X420259Y661524D01*
X421231Y660552D01*
X421000Y659994D01*
Y658005D01*
X421761Y656168D01*
X423168Y654761D01*
X425005Y654000D01*
X426995D01*
X428832Y654761D01*
X430239Y656168D01*
X431000Y658005D01*
Y659994D01*
X430239Y661832D01*
X428832Y663239D01*
X426995Y664000D01*
X425005D01*
X423741Y663476D01*
X422769Y664448D01*
X423000Y665005D01*
Y666994D01*
X422239Y668832D01*
X420832Y670239D01*
X418994Y671000D01*
D02*
G37*
G36*
X394995Y659000D02*
X393005D01*
X391168Y658239D01*
X389761Y656832D01*
X389000Y654995D01*
Y653005D01*
X389761Y651168D01*
X391168Y649761D01*
X393005Y649000D01*
X394995D01*
X396832Y649761D01*
X398239Y651168D01*
X399000Y653005D01*
Y654995D01*
X398239Y656832D01*
X396832Y658239D01*
X394995Y659000D01*
D02*
G37*
G36*
X210995Y656100D02*
X209006D01*
X207168Y655339D01*
X205761Y653932D01*
X205000Y652095D01*
Y650106D01*
X205761Y648268D01*
X207168Y646861D01*
X209006Y646100D01*
X210995D01*
X212832Y646861D01*
X214239Y648268D01*
X215000Y650106D01*
Y652095D01*
X214239Y653932D01*
X212832Y655339D01*
X210995Y656100D01*
D02*
G37*
G36*
X232751Y655900D02*
X230762D01*
X228924Y655139D01*
X227518Y653732D01*
X226756Y651895D01*
Y649905D01*
X227518Y648068D01*
X228924Y646661D01*
X230762Y645900D01*
X232751D01*
X234589Y646661D01*
X235995Y648068D01*
X236756Y649905D01*
Y651895D01*
X235995Y653732D01*
X234589Y655139D01*
X232751Y655900D01*
D02*
G37*
G36*
X254995Y655900D02*
X253006D01*
X251168Y655139D01*
X249761Y653732D01*
X249000Y651894D01*
Y649905D01*
X249761Y648067D01*
X251168Y646661D01*
X253006Y645900D01*
X254995D01*
X256833Y646661D01*
X258239Y648067D01*
X259000Y649905D01*
Y651894D01*
X258239Y653732D01*
X256833Y655139D01*
X254995Y655900D01*
D02*
G37*
G36*
X406995Y653000D02*
X405005D01*
X403168Y652239D01*
X401761Y650832D01*
X401000Y648995D01*
Y647005D01*
X401761Y645168D01*
X403168Y643761D01*
X405005Y643000D01*
X406995D01*
X408832Y643761D01*
X410239Y645168D01*
X411000Y647005D01*
Y648995D01*
X410239Y650832D01*
X408832Y652239D01*
X406995Y653000D01*
D02*
G37*
G36*
X145995Y645000D02*
X144005D01*
X142168Y644239D01*
X140761Y642832D01*
X140000Y640994D01*
Y639005D01*
X140761Y637168D01*
X142168Y635761D01*
X144005Y635000D01*
X145995D01*
X147832Y635761D01*
X149239Y637168D01*
X150000Y639005D01*
Y640994D01*
X149239Y642832D01*
X147832Y644239D01*
X145995Y645000D01*
D02*
G37*
G36*
X76000Y651250D02*
X52000D01*
Y627250D01*
X76000D01*
Y651250D01*
D02*
G37*
G36*
X317718Y636000D02*
X315729D01*
X313891Y635239D01*
X312485Y633832D01*
X311723Y631995D01*
Y630006D01*
X312485Y628168D01*
X313891Y626761D01*
X315729Y626000D01*
X317718D01*
X319556Y626761D01*
X320962Y628168D01*
X321723Y630006D01*
Y631995D01*
X320962Y633832D01*
X319556Y635239D01*
X317718Y636000D01*
D02*
G37*
G36*
X17718D02*
X15729D01*
X13891Y635239D01*
X12485Y633832D01*
X11723Y631995D01*
Y630006D01*
X12485Y628168D01*
X13891Y626761D01*
X15729Y626000D01*
X17718D01*
X19556Y626761D01*
X20962Y628168D01*
X21723Y630006D01*
Y631995D01*
X20962Y633832D01*
X19556Y635239D01*
X17718Y636000D01*
D02*
G37*
G36*
X463340Y633575D02*
X460660D01*
X458073Y632882D01*
X455752Y631542D01*
X453858Y629648D01*
X452518Y627327D01*
X451825Y624740D01*
Y622061D01*
X452518Y619473D01*
X453858Y617152D01*
X455752Y615258D01*
X458073Y613918D01*
X460660Y613225D01*
X463340D01*
X465927Y613918D01*
X468248Y615258D01*
X470142Y617152D01*
X471482Y619473D01*
X472175Y622061D01*
Y624740D01*
X471482Y627327D01*
X470142Y629648D01*
X468248Y631542D01*
X465927Y632882D01*
X463340Y633575D01*
D02*
G37*
G36*
X386995Y612600D02*
X385006D01*
X383168Y611839D01*
X381761Y610432D01*
X381000Y608594D01*
Y606605D01*
X381761Y604767D01*
X383168Y603361D01*
X385006Y602600D01*
X386995D01*
X388832Y603361D01*
X390239Y604767D01*
X391000Y606605D01*
Y608594D01*
X390239Y610432D01*
X388832Y611839D01*
X386995Y612600D01*
D02*
G37*
G36*
X292756Y610040D02*
X290244D01*
X287818Y609390D01*
X285642Y608134D01*
X283866Y606358D01*
X282610Y604183D01*
X281960Y601756D01*
Y599244D01*
X282610Y596818D01*
X283866Y594642D01*
X285642Y592866D01*
X287818Y591610D01*
X290244Y590960D01*
X292756D01*
X295182Y591610D01*
X297358Y592866D01*
X299134Y594642D01*
X300390Y596818D01*
X301040Y599244D01*
Y601756D01*
X300390Y604183D01*
X299134Y606358D01*
X297358Y608134D01*
X295182Y609390D01*
X292756Y610040D01*
D02*
G37*
G36*
X227756D02*
X225244D01*
X222818Y609390D01*
X220643Y608134D01*
X218866Y606358D01*
X217610Y604183D01*
X216960Y601756D01*
Y599244D01*
X217610Y596818D01*
X218866Y594642D01*
X220643Y592866D01*
X222818Y591610D01*
X225244Y590960D01*
X227756D01*
X230182Y591610D01*
X232358Y592866D01*
X234134Y594642D01*
X235390Y596818D01*
X236040Y599244D01*
Y601756D01*
X235390Y604183D01*
X234134Y606358D01*
X232358Y608134D01*
X230182Y609390D01*
X227756Y610040D01*
D02*
G37*
G36*
X194756Y610040D02*
X192244D01*
X189818Y609390D01*
X187642Y608134D01*
X185866Y606358D01*
X184610Y604182D01*
X183960Y601756D01*
Y599244D01*
X184610Y596818D01*
X185866Y594642D01*
X187642Y592866D01*
X189818Y591610D01*
X192244Y590960D01*
X194756D01*
X197182Y591610D01*
X199358Y592866D01*
X201134Y594642D01*
X202390Y596818D01*
X203040Y599244D01*
Y601756D01*
X202390Y604182D01*
X201134Y606358D01*
X199358Y608134D01*
X197182Y609390D01*
X194756Y610040D01*
D02*
G37*
G36*
X129756D02*
X127244D01*
X124818Y609390D01*
X122642Y608134D01*
X120866Y606358D01*
X119610Y604182D01*
X118960Y601756D01*
Y599244D01*
X119610Y596818D01*
X120866Y594642D01*
X122642Y592866D01*
X124818Y591610D01*
X127244Y590960D01*
X129756D01*
X132182Y591610D01*
X134358Y592866D01*
X136134Y594642D01*
X137390Y596818D01*
X138040Y599244D01*
Y601756D01*
X137390Y604182D01*
X136134Y606358D01*
X134358Y608134D01*
X132182Y609390D01*
X129756Y610040D01*
D02*
G37*
G36*
X412539Y608175D02*
X409860D01*
X407273Y607482D01*
X404952Y606142D01*
X403058Y604248D01*
X401718Y601927D01*
X401025Y599340D01*
Y596660D01*
X401718Y594073D01*
X403058Y591753D01*
X404952Y589858D01*
X407273Y588518D01*
X409860Y587825D01*
X412539D01*
X415127Y588518D01*
X417448Y589858D01*
X419342Y591753D01*
X420682Y594073D01*
X421375Y596660D01*
Y599340D01*
X420682Y601927D01*
X419342Y604248D01*
X417448Y606142D01*
X415127Y607482D01*
X412539Y608175D01*
D02*
G37*
G36*
X385995Y581000D02*
X384005D01*
X382168Y580239D01*
X380761Y578832D01*
X380000Y576995D01*
X378730Y576695D01*
X377994Y577000D01*
X376005D01*
X375270Y576695D01*
X374000Y576995D01*
X373239Y578832D01*
X371832Y580239D01*
X369995Y581000D01*
X368005D01*
X366168Y580239D01*
X364761Y578832D01*
X364000Y576995D01*
Y575005D01*
X364761Y573168D01*
X365929Y572000D01*
X364761Y570832D01*
X364000Y568995D01*
Y567005D01*
X364761Y565168D01*
X366168Y563761D01*
X368005Y563000D01*
X369995D01*
X371832Y563761D01*
X373239Y565168D01*
X374000Y567005D01*
X375270Y567305D01*
X376005Y567000D01*
X377994D01*
X378730Y567305D01*
X380000Y567005D01*
X380761Y565168D01*
X382168Y563761D01*
X384005Y563000D01*
X385995D01*
X387832Y563761D01*
X389239Y565168D01*
X390000Y567005D01*
Y568995D01*
X389239Y570832D01*
X388071Y572000D01*
X389239Y573168D01*
X390000Y575005D01*
Y576995D01*
X389239Y578832D01*
X387832Y580239D01*
X385995Y581000D01*
D02*
G37*
G36*
X292718Y586000D02*
X290729D01*
X288891Y585239D01*
X287485Y583832D01*
X286723Y581995D01*
Y580006D01*
X287485Y578168D01*
X288891Y576761D01*
X290729Y576000D01*
X292718D01*
X294556Y576761D01*
X295962Y578168D01*
X296723Y580006D01*
Y581995D01*
X295962Y583832D01*
X294556Y585239D01*
X292718Y586000D01*
D02*
G37*
G36*
X242718D02*
X240729D01*
X238891Y585239D01*
X237485Y583832D01*
X236723Y581995D01*
Y580006D01*
X237485Y578168D01*
X238891Y576761D01*
X240729Y576000D01*
X242718D01*
X244556Y576761D01*
X245962Y578168D01*
X246723Y580006D01*
Y581995D01*
X245962Y583832D01*
X244556Y585239D01*
X242718Y586000D01*
D02*
G37*
G36*
X142718D02*
X140729D01*
X138891Y585239D01*
X137485Y583832D01*
X136723Y581995D01*
Y580006D01*
X137485Y578168D01*
X138891Y576761D01*
X140729Y576000D01*
X142718D01*
X144556Y576761D01*
X145962Y578168D01*
X146723Y580006D01*
Y581995D01*
X145962Y583832D01*
X144556Y585239D01*
X142718Y586000D01*
D02*
G37*
G36*
X92718D02*
X90729D01*
X88891Y585239D01*
X87485Y583832D01*
X86723Y581995D01*
Y580006D01*
X87485Y578168D01*
X88891Y576761D01*
X90729Y576000D01*
X92718D01*
X94556Y576761D01*
X95962Y578168D01*
X96723Y580006D01*
Y581995D01*
X95962Y583832D01*
X94556Y585239D01*
X92718Y586000D01*
D02*
G37*
G36*
X42718D02*
X40729D01*
X38891Y585239D01*
X37485Y583832D01*
X36723Y581995D01*
Y580006D01*
X37485Y578168D01*
X38891Y576761D01*
X40729Y576000D01*
X42718D01*
X44556Y576761D01*
X45962Y578168D01*
X46723Y580006D01*
Y581995D01*
X45962Y583832D01*
X44556Y585239D01*
X42718Y586000D01*
D02*
G37*
G36*
X463340Y582775D02*
X460660D01*
X458073Y582082D01*
X455752Y580742D01*
X453858Y578848D01*
X452518Y576527D01*
X451825Y573940D01*
Y571260D01*
X452518Y568673D01*
X453858Y566353D01*
X455752Y564458D01*
X458073Y563119D01*
X460660Y562425D01*
X463340D01*
X465927Y563119D01*
X468248Y564458D01*
X470142Y566353D01*
X471482Y568673D01*
X472175Y571260D01*
Y573940D01*
X471482Y576527D01*
X470142Y578848D01*
X468248Y580742D01*
X465927Y582082D01*
X463340Y582775D01*
D02*
G37*
G36*
X421375D02*
X401025D01*
Y562425D01*
X421375D01*
Y582775D01*
D02*
G37*
G36*
X345994Y571500D02*
X344005D01*
X342168Y570739D01*
X340761Y569332D01*
X340000Y567494D01*
Y565505D01*
X340761Y563668D01*
X342168Y562261D01*
X344005Y561500D01*
X345994D01*
X347832Y562261D01*
X349239Y563668D01*
X350000Y565505D01*
Y567494D01*
X349239Y569332D01*
X347832Y570739D01*
X345994Y571500D01*
D02*
G37*
G36*
X176995Y564000D02*
X175005D01*
X173168Y563239D01*
X171761Y561832D01*
X171000Y559995D01*
Y558005D01*
X171761Y556168D01*
X173168Y554761D01*
X175005Y554000D01*
X176995D01*
X178832Y554761D01*
X180239Y556168D01*
X181000Y558005D01*
Y559995D01*
X180239Y561832D01*
X178832Y563239D01*
X176995Y564000D01*
D02*
G37*
G36*
X65580Y572250D02*
X62421D01*
X59369Y571432D01*
X56632Y569852D01*
X54398Y567618D01*
X52818Y564882D01*
X52000Y561830D01*
Y558670D01*
X52818Y555618D01*
X54398Y552882D01*
X56632Y550648D01*
X59369Y549068D01*
X62421Y548250D01*
X65580D01*
X68632Y549068D01*
X71368Y550648D01*
X73603Y552882D01*
X75182Y555618D01*
X76000Y558670D01*
Y561830D01*
X75182Y564882D01*
X73603Y567618D01*
X71368Y569852D01*
X68632Y571432D01*
X65580Y572250D01*
D02*
G37*
G36*
X129756Y565040D02*
X127244D01*
X124818Y564390D01*
X122642Y563134D01*
X120866Y561358D01*
X119610Y559183D01*
X118960Y556756D01*
Y554244D01*
X119610Y551818D01*
X120866Y549642D01*
X122642Y547866D01*
X124818Y546610D01*
X127244Y545960D01*
X129756D01*
X132182Y546610D01*
X134358Y547866D01*
X136134Y549642D01*
X137390Y551818D01*
X138040Y554244D01*
Y556756D01*
X137390Y559183D01*
X136134Y561358D01*
X134358Y563134D01*
X132182Y564390D01*
X129756Y565040D01*
D02*
G37*
G36*
X292756Y565040D02*
X290244D01*
X287818Y564390D01*
X285642Y563134D01*
X283866Y561358D01*
X282610Y559182D01*
X281960Y556756D01*
Y554244D01*
X282610Y551818D01*
X283866Y549642D01*
X285642Y547866D01*
X287818Y546610D01*
X290244Y545960D01*
X292756D01*
X295182Y546610D01*
X297358Y547866D01*
X299134Y549642D01*
X300390Y551818D01*
X301040Y554244D01*
Y556756D01*
X300390Y559182D01*
X299134Y561358D01*
X297358Y563134D01*
X295182Y564390D01*
X292756Y565040D01*
D02*
G37*
G36*
X227756D02*
X225244D01*
X222818Y564390D01*
X220643Y563134D01*
X218866Y561358D01*
X217610Y559182D01*
X216960Y556756D01*
Y554244D01*
X217610Y551818D01*
X218866Y549642D01*
X220643Y547866D01*
X222818Y546610D01*
X225244Y545960D01*
X227756D01*
X230182Y546610D01*
X232358Y547866D01*
X234134Y549642D01*
X235390Y551818D01*
X236040Y554244D01*
Y556756D01*
X235390Y559182D01*
X234134Y561358D01*
X232358Y563134D01*
X230182Y564390D01*
X227756Y565040D01*
D02*
G37*
G36*
X168995Y553000D02*
X167005D01*
X165168Y552239D01*
X163761Y550832D01*
X163000Y548995D01*
Y547005D01*
X163761Y545168D01*
X165168Y543761D01*
X167005Y543000D01*
X168995D01*
X170832Y543761D01*
X172239Y545168D01*
X173000Y547005D01*
Y548995D01*
X172239Y550832D01*
X170832Y552239D01*
X168995Y553000D01*
D02*
G37*
G36*
X194756Y565040D02*
X192244D01*
X189818Y564390D01*
X187642Y563134D01*
X185866Y561358D01*
X184610Y559183D01*
X183960Y556756D01*
Y554244D01*
X184610Y551818D01*
X185866Y549642D01*
X187642Y547866D01*
X189818Y546610D01*
X192244Y545960D01*
X193093D01*
X193619Y544690D01*
X192761Y543833D01*
X192000Y541995D01*
Y540006D01*
X192761Y538168D01*
X194168Y536761D01*
X196005Y536000D01*
X197994D01*
X199832Y536761D01*
X201239Y538168D01*
X202000Y540006D01*
Y541995D01*
X201239Y543833D01*
X199832Y545239D01*
X198385Y545838D01*
X198172Y547094D01*
X198187Y547190D01*
X199358Y547866D01*
X201134Y549642D01*
X202390Y551818D01*
X203040Y554244D01*
Y556756D01*
X202390Y559183D01*
X201134Y561358D01*
X199358Y563134D01*
X197182Y564390D01*
X194756Y565040D01*
D02*
G37*
G36*
X155495Y537000D02*
X153505D01*
X151668Y536239D01*
X150261Y534832D01*
X149500Y532995D01*
Y531006D01*
X150261Y529168D01*
X151668Y527761D01*
X153505Y527000D01*
X155495D01*
X157332Y527761D01*
X158739Y529168D01*
X159500Y531006D01*
Y532995D01*
X158739Y534832D01*
X157332Y536239D01*
X155495Y537000D01*
D02*
G37*
G36*
X248053Y543000D02*
X245947D01*
X243912Y542455D01*
X242088Y541402D01*
X240598Y539912D01*
X239545Y538088D01*
X239000Y536053D01*
Y533947D01*
X239545Y531912D01*
X240598Y530088D01*
X242088Y528598D01*
X243912Y527545D01*
X245947Y527000D01*
X248053D01*
X250088Y527545D01*
X251912Y528598D01*
X253401Y530088D01*
X254455Y531912D01*
X255000Y533947D01*
Y536053D01*
X254455Y538088D01*
X253401Y539912D01*
X251912Y541402D01*
X250088Y542455D01*
X248053Y543000D01*
D02*
G37*
G36*
X367718Y536000D02*
X365729D01*
X363891Y535239D01*
X362485Y533832D01*
X361723Y531995D01*
Y530006D01*
X362485Y528168D01*
X363891Y526761D01*
X365729Y526000D01*
X367718D01*
X369556Y526761D01*
X370962Y528168D01*
X371723Y530006D01*
Y531995D01*
X370962Y533832D01*
X369556Y535239D01*
X367718Y536000D01*
D02*
G37*
G36*
X317718D02*
X315729D01*
X313891Y535239D01*
X312485Y533832D01*
X311723Y531995D01*
Y530006D01*
X312485Y528168D01*
X313891Y526761D01*
X315729Y526000D01*
X317718D01*
X319556Y526761D01*
X320962Y528168D01*
X321723Y530006D01*
Y531995D01*
X320962Y533832D01*
X319556Y535239D01*
X317718Y536000D01*
D02*
G37*
G36*
X267718D02*
X265729D01*
X263891Y535239D01*
X262485Y533832D01*
X261723Y531995D01*
Y530006D01*
X262485Y528168D01*
X263891Y526761D01*
X265729Y526000D01*
X267718D01*
X269556Y526761D01*
X270962Y528168D01*
X271723Y530006D01*
Y531995D01*
X270962Y533832D01*
X269556Y535239D01*
X267718Y536000D01*
D02*
G37*
G36*
X217718D02*
X215729D01*
X213891Y535239D01*
X212485Y533832D01*
X211723Y531995D01*
Y530006D01*
X212485Y528168D01*
X213891Y526761D01*
X215729Y526000D01*
X217718D01*
X219556Y526761D01*
X220962Y528168D01*
X221723Y530006D01*
Y531995D01*
X220962Y533832D01*
X219556Y535239D01*
X217718Y536000D01*
D02*
G37*
G36*
X117718D02*
X115729D01*
X113891Y535239D01*
X112485Y533832D01*
X111723Y531995D01*
Y530006D01*
X112485Y528168D01*
X113891Y526761D01*
X115729Y526000D01*
X117718D01*
X119556Y526761D01*
X120962Y528168D01*
X121723Y530006D01*
Y531995D01*
X120962Y533832D01*
X119556Y535239D01*
X117718Y536000D01*
D02*
G37*
G36*
X67718D02*
X65729D01*
X63891Y535239D01*
X62485Y533832D01*
X61723Y531995D01*
Y530006D01*
X62485Y528168D01*
X63891Y526761D01*
X65729Y526000D01*
X67718D01*
X69556Y526761D01*
X70962Y528168D01*
X71723Y530006D01*
Y531995D01*
X70962Y533832D01*
X69556Y535239D01*
X67718Y536000D01*
D02*
G37*
G36*
X17718D02*
X15729D01*
X13891Y535239D01*
X12485Y533832D01*
X11723Y531995D01*
Y530006D01*
X12485Y528168D01*
X13891Y526761D01*
X15729Y526000D01*
X17718D01*
X19556Y526761D01*
X20962Y528168D01*
X21723Y530006D01*
Y531995D01*
X20962Y533832D01*
X19556Y535239D01*
X17718Y536000D01*
D02*
G37*
G36*
X338995Y535400D02*
X337006D01*
X335168Y534639D01*
X333761Y533233D01*
X333000Y531395D01*
Y529406D01*
X333761Y527568D01*
X335168Y526161D01*
X337006Y525400D01*
X338995D01*
X340832Y526161D01*
X342239Y527568D01*
X343000Y529406D01*
Y531395D01*
X342239Y533233D01*
X340832Y534639D01*
X338995Y535400D01*
D02*
G37*
G36*
X380995Y529100D02*
X379005D01*
X377168Y528339D01*
X375761Y526932D01*
X375000Y525094D01*
Y523105D01*
X375761Y521268D01*
X377168Y519861D01*
X379005Y519100D01*
X380995D01*
X382832Y519861D01*
X384239Y521268D01*
X385000Y523105D01*
Y525094D01*
X384239Y526932D01*
X382832Y528339D01*
X380995Y529100D01*
D02*
G37*
G36*
X473350Y531806D02*
X465350D01*
X463653Y531583D01*
X462072Y530928D01*
X460714Y529886D01*
X459672Y528528D01*
X459017Y526947D01*
X458794Y525250D01*
X459017Y523553D01*
X459672Y521972D01*
X460714Y520614D01*
X462072Y519572D01*
X463653Y518918D01*
X465350Y518694D01*
X473350D01*
X475047Y518918D01*
X476628Y519572D01*
X477986Y520614D01*
X479027Y521972D01*
X479683Y523553D01*
X479906Y525250D01*
X479683Y526947D01*
X479027Y528528D01*
X477986Y529886D01*
X476628Y530928D01*
X475047Y531583D01*
X473350Y531806D01*
D02*
G37*
G36*
X417718Y536000D02*
X415729D01*
X413891Y535239D01*
X412485Y533832D01*
X411723Y531995D01*
Y530006D01*
X412485Y528168D01*
X413891Y526761D01*
X415729Y526000D01*
X417718D01*
X419556Y526761D01*
X420768Y527974D01*
X421845Y527254D01*
X421717Y526947D01*
X421494Y525250D01*
X421717Y523553D01*
X422372Y521972D01*
X423414Y520614D01*
X424772Y519572D01*
X426353Y518918D01*
X428050Y518694D01*
X443050D01*
X444747Y518918D01*
X446328Y519572D01*
X447686Y520614D01*
X448728Y521972D01*
X449383Y523553D01*
X449606Y525250D01*
X449383Y526947D01*
X448728Y528528D01*
X447686Y529886D01*
X446328Y530928D01*
X444747Y531583D01*
X443050Y531806D01*
X428050D01*
X426353Y531583D01*
X424772Y530928D01*
X423414Y529886D01*
X422620Y528850D01*
X421510Y529491D01*
X421723Y530006D01*
Y531995D01*
X420962Y533832D01*
X419556Y535239D01*
X417718Y536000D01*
D02*
G37*
G36*
X206895Y519500D02*
X205105D01*
X203451Y518815D01*
X202185Y517549D01*
X201674Y516314D01*
X200327D01*
X199815Y517549D01*
X198549Y518815D01*
X196895Y519500D01*
X195105D01*
X193451Y518815D01*
X192185Y517549D01*
X191674Y516314D01*
X190327D01*
X189815Y517549D01*
X188549Y518815D01*
X186895Y519500D01*
X185105D01*
X183451Y518815D01*
X182185Y517549D01*
X181500Y515895D01*
Y514105D01*
X182185Y512451D01*
X183451Y511185D01*
X184687Y510673D01*
Y509327D01*
X183451Y508815D01*
X182185Y507549D01*
X181500Y505895D01*
Y504105D01*
X182185Y502451D01*
X183451Y501185D01*
X184687Y500673D01*
Y499327D01*
X183451Y498815D01*
X182185Y497549D01*
X181500Y495895D01*
Y494105D01*
X182185Y492451D01*
X183451Y491185D01*
X185105Y490500D01*
X186895D01*
X188549Y491185D01*
X189815Y492451D01*
X190327Y493686D01*
X191674D01*
X192185Y492451D01*
X193451Y491185D01*
X195105Y490500D01*
X196895D01*
X198549Y491185D01*
X199815Y492451D01*
X200327Y493686D01*
X201674D01*
X202185Y492451D01*
X203451Y491185D01*
X205105Y490500D01*
X206895D01*
X208549Y491185D01*
X209815Y492451D01*
X210500Y494105D01*
Y495895D01*
X209815Y497549D01*
X208549Y498815D01*
X207314Y499327D01*
Y500673D01*
X208549Y501185D01*
X209815Y502451D01*
X210500Y504105D01*
Y505895D01*
X209815Y507549D01*
X208549Y508815D01*
X207314Y509327D01*
Y510673D01*
X208549Y511185D01*
X209815Y512451D01*
X210500Y514105D01*
Y515895D01*
X209815Y517549D01*
X208549Y518815D01*
X206895Y519500D01*
D02*
G37*
G36*
X160994Y523000D02*
X159005D01*
X157168Y522239D01*
X155761Y520832D01*
X155000Y518995D01*
Y517006D01*
X155761Y515168D01*
X157168Y513761D01*
X159005Y513000D01*
X160994D01*
X162832Y513761D01*
X164239Y515168D01*
X165000Y517006D01*
Y518995D01*
X164239Y520832D01*
X162832Y522239D01*
X160994Y523000D01*
D02*
G37*
G36*
X298994Y519000D02*
X297005D01*
X295168Y518239D01*
X293761Y516832D01*
X293000Y514995D01*
Y513006D01*
X293761Y511168D01*
X295168Y509761D01*
X297005Y509000D01*
X298994D01*
X300832Y509761D01*
X302239Y511168D01*
X303000Y513006D01*
Y514995D01*
X302239Y516832D01*
X300832Y518239D01*
X298994Y519000D01*
D02*
G37*
G36*
X248053Y523000D02*
X245947D01*
X243912Y522455D01*
X242088Y521402D01*
X240598Y519912D01*
X239545Y518088D01*
X239000Y516054D01*
Y513947D01*
X239545Y511912D01*
X240598Y510088D01*
X242088Y508599D01*
X243912Y507545D01*
X245947Y507000D01*
X248053D01*
X250088Y507545D01*
X251912Y508599D01*
X253401Y510088D01*
X254455Y511912D01*
X255000Y513947D01*
Y516054D01*
X254455Y518088D01*
X253401Y519912D01*
X251912Y521402D01*
X250088Y522455D01*
X248053Y523000D01*
D02*
G37*
G36*
X233995Y510000D02*
X232005D01*
X230168Y509239D01*
X228761Y507832D01*
X228000Y505995D01*
Y504006D01*
X228761Y502168D01*
X230168Y500761D01*
X232005Y500000D01*
X233995D01*
X235832Y500761D01*
X237239Y502168D01*
X238000Y504006D01*
Y505995D01*
X237239Y507832D01*
X235832Y509239D01*
X233995Y510000D01*
D02*
G37*
G36*
X160994D02*
X159005D01*
X157168Y509239D01*
X155761Y507832D01*
X155000Y505995D01*
Y504006D01*
X155761Y502168D01*
X157168Y500761D01*
X159005Y500000D01*
X160994D01*
X162832Y500761D01*
X164239Y502168D01*
X165000Y504006D01*
Y505995D01*
X164239Y507832D01*
X162832Y509239D01*
X160994Y510000D01*
D02*
G37*
G36*
X248053Y503000D02*
X245947D01*
X243912Y502455D01*
X242088Y501402D01*
X240599Y499912D01*
X239545Y498088D01*
X239000Y496053D01*
Y493947D01*
X239545Y491912D01*
X240599Y490088D01*
X242088Y488599D01*
X243912Y487545D01*
X245947Y487000D01*
X248053D01*
X250088Y487545D01*
X251912Y488599D01*
X253402Y490088D01*
X254455Y491912D01*
X255000Y493947D01*
Y496053D01*
X254455Y498088D01*
X253402Y499912D01*
X251912Y501402D01*
X250088Y502455D01*
X248053Y503000D01*
D02*
G37*
G36*
X160994Y497000D02*
X159005D01*
X157168Y496239D01*
X155761Y494832D01*
X155000Y492995D01*
Y491006D01*
X155761Y489168D01*
X157168Y487761D01*
X159005Y487000D01*
X160994D01*
X162832Y487761D01*
X164239Y489168D01*
X165000Y491006D01*
Y492995D01*
X164239Y494832D01*
X162832Y496239D01*
X160994Y497000D01*
D02*
G37*
G36*
X392718Y486000D02*
X390729D01*
X388891Y485239D01*
X387485Y483832D01*
X386723Y481995D01*
Y480006D01*
X387485Y478168D01*
X388891Y476761D01*
X390729Y476000D01*
X392718D01*
X394556Y476761D01*
X395962Y478168D01*
X396723Y480006D01*
Y481995D01*
X395962Y483832D01*
X394556Y485239D01*
X392718Y486000D01*
D02*
G37*
G36*
X292718D02*
X290729D01*
X288891Y485239D01*
X287485Y483832D01*
X286723Y481995D01*
Y480006D01*
X287485Y478168D01*
X288891Y476761D01*
X290729Y476000D01*
X292718D01*
X294556Y476761D01*
X295962Y478168D01*
X296723Y480006D01*
Y481995D01*
X295962Y483832D01*
X294556Y485239D01*
X292718Y486000D01*
D02*
G37*
G36*
X92718D02*
X90729D01*
X88891Y485239D01*
X87485Y483832D01*
X86723Y481995D01*
Y480006D01*
X87485Y478168D01*
X88891Y476761D01*
X90729Y476000D01*
X92718D01*
X94556Y476761D01*
X95962Y478168D01*
X96723Y480006D01*
Y481995D01*
X95962Y483832D01*
X94556Y485239D01*
X92718Y486000D01*
D02*
G37*
G36*
X42718D02*
X40729D01*
X38891Y485239D01*
X37485Y483832D01*
X36723Y481995D01*
Y480006D01*
X37485Y478168D01*
X38891Y476761D01*
X40729Y476000D01*
X42718D01*
X44556Y476761D01*
X45962Y478168D01*
X46723Y480006D01*
Y481995D01*
X45962Y483832D01*
X44556Y485239D01*
X42718Y486000D01*
D02*
G37*
G36*
X155495Y483000D02*
X153505D01*
X151668Y482239D01*
X150261Y480832D01*
X149500Y478995D01*
Y477006D01*
X150261Y475168D01*
X151668Y473761D01*
X153505Y473000D01*
X155495D01*
X157332Y473761D01*
X158739Y475168D01*
X159500Y477006D01*
Y478995D01*
X158739Y480832D01*
X157332Y482239D01*
X155495Y483000D01*
D02*
G37*
G36*
X248053Y483000D02*
X245947D01*
X243912Y482454D01*
X242088Y481401D01*
X240598Y479912D01*
X239545Y478088D01*
X239000Y476053D01*
Y473946D01*
X239545Y471912D01*
X240598Y470088D01*
X242088Y468598D01*
X243912Y467545D01*
X245947Y467000D01*
X248053D01*
X250088Y467545D01*
X251912Y468598D01*
X253401Y470088D01*
X254455Y471912D01*
X255000Y473946D01*
Y476053D01*
X254455Y478088D01*
X253401Y479912D01*
X251912Y481401D01*
X250088Y482454D01*
X248053Y483000D01*
D02*
G37*
G36*
X182994Y474000D02*
X181005D01*
X179168Y473239D01*
X177761Y471833D01*
X177000Y469995D01*
Y468006D01*
X177761Y466168D01*
X179168Y464761D01*
X181005Y464000D01*
X182994D01*
X184832Y464761D01*
X186239Y466168D01*
X187000Y468006D01*
Y469995D01*
X186239Y471833D01*
X184832Y473239D01*
X182994Y474000D01*
D02*
G37*
G36*
X213095Y466000D02*
X211105D01*
X209268Y465239D01*
X207861Y463832D01*
X207100Y461995D01*
Y460006D01*
X207861Y458168D01*
X209268Y456761D01*
X211105Y456000D01*
X213095D01*
X214932Y456761D01*
X216339Y458168D01*
X217100Y460006D01*
Y461995D01*
X216339Y463832D01*
X214932Y465239D01*
X213095Y466000D01*
D02*
G37*
G36*
X76000Y472500D02*
X52000D01*
Y448500D01*
X76000D01*
Y472500D01*
D02*
G37*
G36*
X440294Y517000D02*
X438205D01*
X436276Y516201D01*
X434799Y514724D01*
X434000Y512794D01*
Y510706D01*
X434799Y508776D01*
X436075Y507500D01*
X434799Y506224D01*
X434000Y504295D01*
Y502206D01*
X434799Y500276D01*
X436075Y499000D01*
X434799Y497724D01*
X434000Y495794D01*
Y493705D01*
X434799Y491776D01*
X436075Y490500D01*
X434799Y489224D01*
X434000Y487294D01*
Y485206D01*
X434799Y483276D01*
X436075Y482000D01*
X434799Y480724D01*
X434000Y478794D01*
Y476706D01*
X434799Y474776D01*
X436075Y473500D01*
X434799Y472224D01*
X434000Y470295D01*
Y468206D01*
X434799Y466276D01*
X436075Y465000D01*
X434799Y463724D01*
X434000Y461794D01*
Y459706D01*
X434799Y457776D01*
X436075Y456500D01*
X434799Y455224D01*
X434000Y453294D01*
Y451206D01*
X434799Y449276D01*
X436276Y447799D01*
X438205Y447000D01*
X440294D01*
X442224Y447799D01*
X443700Y449276D01*
X444500Y451206D01*
Y453294D01*
X443700Y455224D01*
X442425Y456500D01*
X443700Y457776D01*
X444500Y459706D01*
Y461794D01*
X443700Y463724D01*
X442424Y465000D01*
X443700Y466276D01*
X444500Y468206D01*
Y470295D01*
X443700Y472224D01*
X442425Y473500D01*
X443700Y474776D01*
X444500Y476706D01*
Y478794D01*
X443700Y480724D01*
X442425Y482000D01*
X443700Y483276D01*
X444500Y485206D01*
Y487294D01*
X443700Y489224D01*
X442425Y490500D01*
X443700Y491776D01*
X444500Y493705D01*
Y495794D01*
X443700Y497724D01*
X442424Y499000D01*
X443700Y500276D01*
X444500Y502206D01*
Y504295D01*
X443700Y506224D01*
X442425Y507500D01*
X443700Y508776D01*
X444500Y510706D01*
Y512794D01*
X443700Y514724D01*
X442224Y516201D01*
X440294Y517000D01*
D02*
G37*
G36*
X426795D02*
X424706D01*
X422776Y516201D01*
X421300Y514724D01*
X420500Y512794D01*
Y510706D01*
X421300Y508776D01*
X422575Y507500D01*
X421300Y506224D01*
X420500Y504295D01*
Y502206D01*
X421300Y500276D01*
X422576Y499000D01*
X421300Y497724D01*
X420500Y495794D01*
Y493705D01*
X421300Y491776D01*
X422575Y490500D01*
X421300Y489224D01*
X420500Y487294D01*
Y485206D01*
X421300Y483276D01*
X422575Y482000D01*
X421300Y480724D01*
X420500Y478794D01*
Y476706D01*
X421300Y474776D01*
X422575Y473500D01*
X421300Y472224D01*
X420500Y470295D01*
Y468206D01*
X421300Y466276D01*
X422576Y465000D01*
X421300Y463724D01*
X420500Y461794D01*
Y459706D01*
X421300Y457776D01*
X422575Y456500D01*
X421300Y455224D01*
X420500Y453294D01*
Y451206D01*
X421300Y449276D01*
X422776Y447799D01*
X424706Y447000D01*
X426795D01*
X428724Y447799D01*
X430201Y449276D01*
X431000Y451206D01*
Y453294D01*
X430201Y455224D01*
X428925Y456500D01*
X430201Y457776D01*
X431000Y459706D01*
Y461794D01*
X430201Y463724D01*
X428925Y465000D01*
X430201Y466276D01*
X431000Y468206D01*
Y470295D01*
X430201Y472224D01*
X428925Y473500D01*
X430201Y474776D01*
X431000Y476706D01*
Y478794D01*
X430201Y480724D01*
X428925Y482000D01*
X430201Y483276D01*
X431000Y485206D01*
Y487294D01*
X430201Y489224D01*
X428925Y490500D01*
X430201Y491776D01*
X431000Y493705D01*
Y495794D01*
X430201Y497724D01*
X428925Y499000D01*
X430201Y500276D01*
X431000Y502206D01*
Y504295D01*
X430201Y506224D01*
X428925Y507500D01*
X430201Y508776D01*
X431000Y510706D01*
Y512794D01*
X430201Y514724D01*
X428724Y516201D01*
X426795Y517000D01*
D02*
G37*
G36*
X176995Y449000D02*
X175006D01*
X173168Y448239D01*
X171762Y446832D01*
X171000Y444995D01*
Y443005D01*
X171762Y441168D01*
X173168Y439761D01*
X175006Y439000D01*
X176995D01*
X178833Y439761D01*
X180239Y441168D01*
X181000Y443005D01*
Y444995D01*
X180239Y446832D01*
X178833Y448239D01*
X176995Y449000D01*
D02*
G37*
G36*
X189995Y445000D02*
X188005D01*
X186168Y444239D01*
X184761Y442832D01*
X184000Y440995D01*
Y439006D01*
X184761Y437168D01*
X186168Y435761D01*
X188005Y435000D01*
X189995D01*
X191832Y435761D01*
X193239Y437168D01*
X194000Y439006D01*
Y440995D01*
X193239Y442832D01*
X191832Y444239D01*
X189995Y445000D01*
D02*
G37*
G36*
X473350Y445306D02*
X465350D01*
X463653Y445083D01*
X462072Y444428D01*
X460714Y443386D01*
X459672Y442028D01*
X459017Y440447D01*
X458794Y438750D01*
X459017Y437053D01*
X459672Y435472D01*
X460714Y434114D01*
X462072Y433072D01*
X463653Y432417D01*
X465350Y432194D01*
X473350D01*
X475047Y432417D01*
X476628Y433072D01*
X477986Y434114D01*
X479027Y435472D01*
X479683Y437053D01*
X479906Y438750D01*
X479683Y440447D01*
X479027Y442028D01*
X477986Y443386D01*
X476628Y444428D01*
X475047Y445083D01*
X473350Y445306D01*
D02*
G37*
G36*
X443050D02*
X428050D01*
X426353Y445083D01*
X424772Y444428D01*
X423414Y443386D01*
X422372Y442028D01*
X421717Y440447D01*
X421494Y438750D01*
X421717Y437053D01*
X422372Y435472D01*
X423414Y434114D01*
X424772Y433072D01*
X426353Y432417D01*
X428050Y432194D01*
X443050D01*
X444747Y432417D01*
X446328Y433072D01*
X447686Y434114D01*
X448728Y435472D01*
X449383Y437053D01*
X449606Y438750D01*
X449383Y440447D01*
X448728Y442028D01*
X447686Y443386D01*
X446328Y444428D01*
X444747Y445083D01*
X443050Y445306D01*
D02*
G37*
G36*
X168995Y438000D02*
X167006D01*
X165168Y437239D01*
X163762Y435832D01*
X163000Y433994D01*
Y432005D01*
X163762Y430168D01*
X165168Y428761D01*
X167006Y428000D01*
X168995D01*
X170833Y428761D01*
X172239Y430168D01*
X173000Y432005D01*
Y433994D01*
X172239Y435832D01*
X170833Y437239D01*
X168995Y438000D01*
D02*
G37*
G36*
X367718Y436000D02*
X365729D01*
X363891Y435239D01*
X362485Y433832D01*
X361723Y431995D01*
Y430006D01*
X362485Y428168D01*
X363891Y426761D01*
X365729Y426000D01*
X367718D01*
X369556Y426761D01*
X370962Y428168D01*
X371723Y430006D01*
Y431995D01*
X370962Y433832D01*
X369556Y435239D01*
X367718Y436000D01*
D02*
G37*
G36*
X267718D02*
X265729D01*
X263891Y435239D01*
X262485Y433832D01*
X261723Y431995D01*
Y430006D01*
X262485Y428168D01*
X263891Y426761D01*
X265729Y426000D01*
X267718D01*
X269556Y426761D01*
X270962Y428168D01*
X271723Y430006D01*
Y431995D01*
X270962Y433832D01*
X269556Y435239D01*
X267718Y436000D01*
D02*
G37*
G36*
X117718D02*
X115729D01*
X113891Y435239D01*
X112485Y433832D01*
X111723Y431995D01*
Y430006D01*
X112485Y428168D01*
X113891Y426761D01*
X115729Y426000D01*
X117718D01*
X119556Y426761D01*
X120962Y428168D01*
X121723Y430006D01*
Y431995D01*
X120962Y433832D01*
X119556Y435239D01*
X117718Y436000D01*
D02*
G37*
G36*
X17718D02*
X15729D01*
X13891Y435239D01*
X12485Y433832D01*
X11723Y431995D01*
Y430006D01*
X12485Y428168D01*
X13891Y426761D01*
X15729Y426000D01*
X17718D01*
X19556Y426761D01*
X20962Y428168D01*
X21723Y430006D01*
Y431995D01*
X20962Y433832D01*
X19556Y435239D01*
X17718Y436000D01*
D02*
G37*
G36*
X197995Y431000D02*
X196006D01*
X194168Y430239D01*
X192761Y428833D01*
X192000Y426995D01*
Y425006D01*
X192761Y423168D01*
X194168Y421761D01*
X196006Y421000D01*
X197995D01*
X199833Y421761D01*
X201239Y423168D01*
X202000Y425006D01*
Y426995D01*
X201239Y428833D01*
X199833Y430239D01*
X197995Y431000D01*
D02*
G37*
G36*
X439495Y422000D02*
X437506D01*
X435668Y421239D01*
X434261Y419832D01*
X433500Y417995D01*
Y416006D01*
X434261Y414168D01*
X435668Y412761D01*
X437506Y412000D01*
X439495D01*
X441333Y412761D01*
X442739Y414168D01*
X443500Y416006D01*
Y417995D01*
X442739Y419832D01*
X441333Y421239D01*
X439495Y422000D01*
D02*
G37*
G36*
X155494D02*
X153505D01*
X151668Y421239D01*
X150261Y419832D01*
X149500Y417995D01*
Y416006D01*
X150261Y414168D01*
X151668Y412761D01*
X153505Y412000D01*
X155494D01*
X157332Y412761D01*
X158739Y414168D01*
X159500Y416006D01*
Y417995D01*
X158739Y419832D01*
X157332Y421239D01*
X155494Y422000D01*
D02*
G37*
G36*
X248053Y428000D02*
X245947D01*
X243912Y427455D01*
X242088Y426402D01*
X240599Y424912D01*
X239545Y423088D01*
X239000Y421053D01*
Y418947D01*
X239545Y416912D01*
X240599Y415088D01*
X242088Y413598D01*
X243912Y412545D01*
X245947Y412000D01*
X248053D01*
X250088Y412545D01*
X251912Y413598D01*
X253402Y415088D01*
X254455Y416912D01*
X255000Y418947D01*
Y421053D01*
X254455Y423088D01*
X253402Y424912D01*
X251912Y426402D01*
X250088Y427455D01*
X248053Y428000D01*
D02*
G37*
G36*
X477495Y422000D02*
X475505D01*
X473668Y421239D01*
X472261Y419832D01*
X471500Y417994D01*
Y416005D01*
X472261Y414168D01*
X473668Y412761D01*
X475505Y412000D01*
X477495D01*
X479332Y412761D01*
X480739Y414168D01*
X481500Y416005D01*
Y417994D01*
X480739Y419832D01*
X479332Y421239D01*
X477495Y422000D01*
D02*
G37*
G36*
X350106Y424400D02*
X347894D01*
X345758Y423828D01*
X343842Y422722D01*
X342278Y421158D01*
X341172Y419242D01*
X340600Y417106D01*
Y414894D01*
X341172Y412758D01*
X342278Y410842D01*
X343842Y409278D01*
X345758Y408172D01*
X347894Y407600D01*
X350106D01*
X352242Y408172D01*
X354158Y409278D01*
X355722Y410842D01*
X356828Y412758D01*
X357400Y414894D01*
Y417106D01*
X356828Y419242D01*
X355722Y421158D01*
X354158Y422722D01*
X352242Y423828D01*
X350106Y424400D01*
D02*
G37*
G36*
X206895Y404500D02*
X205105D01*
X203451Y403815D01*
X202185Y402549D01*
X201673Y401314D01*
X200327D01*
X199815Y402549D01*
X198549Y403815D01*
X196895Y404500D01*
X195105D01*
X193451Y403815D01*
X192185Y402549D01*
X191673Y401314D01*
X190327D01*
X189815Y402549D01*
X188549Y403815D01*
X186895Y404500D01*
X185105D01*
X183451Y403815D01*
X182185Y402549D01*
X181500Y400895D01*
Y399105D01*
X182185Y397451D01*
X183451Y396185D01*
X184687Y395673D01*
Y394327D01*
X183451Y393815D01*
X182185Y392549D01*
X181500Y390895D01*
Y389105D01*
X182185Y387451D01*
X183451Y386185D01*
X184687Y385673D01*
Y384327D01*
X183451Y383815D01*
X182185Y382549D01*
X181500Y380895D01*
Y379105D01*
X182185Y377451D01*
X183451Y376185D01*
X185105Y375500D01*
X186895D01*
X188549Y376185D01*
X189815Y377451D01*
X190327Y378686D01*
X191673D01*
X192185Y377451D01*
X193451Y376185D01*
X195105Y375500D01*
X196895D01*
X198549Y376185D01*
X199815Y377451D01*
X200327Y378686D01*
X201673D01*
X202185Y377451D01*
X203451Y376185D01*
X205105Y375500D01*
X206895D01*
X208549Y376185D01*
X209815Y377451D01*
X210500Y379105D01*
Y380895D01*
X209815Y382549D01*
X208549Y383815D01*
X207314Y384327D01*
Y385673D01*
X208549Y386185D01*
X209815Y387451D01*
X210500Y389105D01*
Y390895D01*
X209815Y392549D01*
X208549Y393815D01*
X207314Y394327D01*
Y395673D01*
X208549Y396185D01*
X209815Y397451D01*
X210500Y399105D01*
Y400895D01*
X209815Y402549D01*
X208549Y403815D01*
X206895Y404500D01*
D02*
G37*
G36*
X160995Y408000D02*
X159006D01*
X157168Y407239D01*
X155761Y405832D01*
X155000Y403995D01*
Y402006D01*
X155761Y400168D01*
X157168Y398761D01*
X159006Y398000D01*
X160995D01*
X162833Y398761D01*
X164239Y400168D01*
X165000Y402006D01*
Y403995D01*
X164239Y405832D01*
X162833Y407239D01*
X160995Y408000D01*
D02*
G37*
G36*
X248053Y408000D02*
X245947D01*
X243912Y407455D01*
X242088Y406401D01*
X240599Y404912D01*
X239545Y403088D01*
X239000Y401053D01*
Y398947D01*
X239545Y396912D01*
X240599Y395088D01*
X242088Y393598D01*
X243912Y392545D01*
X245947Y392000D01*
X248053D01*
X250088Y392545D01*
X251912Y393598D01*
X253402Y395088D01*
X254455Y396912D01*
X255000Y398947D01*
Y401053D01*
X254455Y403088D01*
X253402Y404912D01*
X251912Y406401D01*
X250088Y407455D01*
X248053Y408000D01*
D02*
G37*
G36*
X448994Y399500D02*
X447005D01*
X445168Y398739D01*
X443761Y397332D01*
X443000Y395494D01*
Y393505D01*
X443761Y391668D01*
X445168Y390261D01*
X447005Y389500D01*
X448994D01*
X450832Y390261D01*
X452239Y391668D01*
X453000Y393505D01*
Y395494D01*
X452239Y397332D01*
X450832Y398739D01*
X448994Y399500D01*
D02*
G37*
G36*
X474995Y399500D02*
X473005D01*
X471168Y398739D01*
X469761Y397332D01*
X469000Y395494D01*
Y393505D01*
X469761Y391668D01*
X471168Y390261D01*
X473005Y389500D01*
X474995D01*
X476832Y390261D01*
X478239Y391668D01*
X479000Y393505D01*
Y395494D01*
X478239Y397332D01*
X476832Y398739D01*
X474995Y399500D01*
D02*
G37*
G36*
X422995Y399500D02*
X421006D01*
X419168Y398739D01*
X417761Y397332D01*
X417000Y395494D01*
Y393505D01*
X417761Y391668D01*
X419168Y390261D01*
X421006Y389500D01*
X422995D01*
X424832Y390261D01*
X426239Y391668D01*
X427000Y393505D01*
Y395494D01*
X426239Y397332D01*
X424832Y398739D01*
X422995Y399500D01*
D02*
G37*
G36*
X233995Y395000D02*
X232006D01*
X230168Y394239D01*
X228762Y392832D01*
X228000Y390995D01*
Y389006D01*
X228762Y387168D01*
X230168Y385761D01*
X232006Y385000D01*
X233995D01*
X235833Y385761D01*
X237239Y387168D01*
X238000Y389006D01*
Y390995D01*
X237239Y392832D01*
X235833Y394239D01*
X233995Y395000D01*
D02*
G37*
G36*
X160995D02*
X159006D01*
X157168Y394239D01*
X155761Y392832D01*
X155000Y390995D01*
Y389006D01*
X155761Y387168D01*
X157168Y385761D01*
X159006Y385000D01*
X160995D01*
X162833Y385761D01*
X164239Y387168D01*
X165000Y389006D01*
Y390995D01*
X164239Y392832D01*
X162833Y394239D01*
X160995Y395000D01*
D02*
G37*
G36*
X306995Y387000D02*
X305005D01*
X303168Y386239D01*
X301761Y384832D01*
X301000Y382995D01*
Y381005D01*
X301761Y379168D01*
X303168Y377761D01*
X305005Y377000D01*
X306995D01*
X308832Y377761D01*
X310239Y379168D01*
X311000Y381005D01*
Y382995D01*
X310239Y384832D01*
X308832Y386239D01*
X306995Y387000D01*
D02*
G37*
G36*
X392718Y386000D02*
X390729D01*
X388891Y385239D01*
X387485Y383832D01*
X386723Y381995D01*
Y380006D01*
X387485Y378168D01*
X388891Y376761D01*
X390729Y376000D01*
X392718D01*
X394556Y376761D01*
X395962Y378168D01*
X396723Y380006D01*
Y381995D01*
X395962Y383832D01*
X394556Y385239D01*
X392718Y386000D01*
D02*
G37*
G36*
X342718D02*
X340729D01*
X338891Y385239D01*
X337485Y383832D01*
X336723Y381995D01*
Y380006D01*
X337485Y378168D01*
X338891Y376761D01*
X340729Y376000D01*
X342718D01*
X344556Y376761D01*
X345962Y378168D01*
X346723Y380006D01*
Y381995D01*
X345962Y383832D01*
X344556Y385239D01*
X342718Y386000D01*
D02*
G37*
G36*
X92718D02*
X90729D01*
X88891Y385239D01*
X87485Y383832D01*
X86723Y381995D01*
Y380006D01*
X87485Y378168D01*
X88891Y376761D01*
X90729Y376000D01*
X92718D01*
X94556Y376761D01*
X95962Y378168D01*
X96723Y380006D01*
Y381995D01*
X95962Y383832D01*
X94556Y385239D01*
X92718Y386000D01*
D02*
G37*
G36*
X42718D02*
X40729D01*
X38891Y385239D01*
X37485Y383832D01*
X36723Y381995D01*
Y380006D01*
X37485Y378168D01*
X38891Y376761D01*
X40729Y376000D01*
X42718D01*
X44556Y376761D01*
X45962Y378168D01*
X46723Y380006D01*
Y381995D01*
X45962Y383832D01*
X44556Y385239D01*
X42718Y386000D01*
D02*
G37*
G36*
X160995Y382000D02*
X159006D01*
X157168Y381239D01*
X155761Y379832D01*
X155000Y377995D01*
Y376006D01*
X155761Y374168D01*
X157168Y372761D01*
X159006Y372000D01*
X160995D01*
X162833Y372761D01*
X164239Y374168D01*
X165000Y376006D01*
Y377995D01*
X164239Y379832D01*
X162833Y381239D01*
X160995Y382000D01*
D02*
G37*
G36*
X248053Y388000D02*
X245947D01*
X243912Y387455D01*
X242088Y386401D01*
X240598Y384912D01*
X239545Y383088D01*
X239000Y381053D01*
Y378947D01*
X239545Y376912D01*
X240598Y375088D01*
X242088Y373598D01*
X243912Y372545D01*
X245947Y372000D01*
X248053D01*
X250088Y372545D01*
X251912Y373598D01*
X253402Y375088D01*
X254455Y376912D01*
X255000Y378947D01*
Y381053D01*
X254455Y383088D01*
X253402Y384912D01*
X251912Y386401D01*
X250088Y387455D01*
X248053Y388000D01*
D02*
G37*
G36*
X65580Y393501D02*
X62421D01*
X59369Y392683D01*
X56632Y391103D01*
X54398Y388869D01*
X52818Y386133D01*
X52000Y383080D01*
Y379921D01*
X52818Y376869D01*
X54398Y374132D01*
X56632Y371898D01*
X59369Y370318D01*
X62421Y369501D01*
X65580D01*
X68632Y370318D01*
X71368Y371898D01*
X73603Y374132D01*
X75182Y376869D01*
X76000Y379921D01*
Y383080D01*
X75182Y386133D01*
X73603Y388869D01*
X71368Y391103D01*
X68632Y392683D01*
X65580Y393501D01*
D02*
G37*
G36*
X289995Y375000D02*
X288005D01*
X286168Y374239D01*
X284761Y372832D01*
X284000Y370995D01*
Y369005D01*
X284231Y368448D01*
X283259Y367476D01*
X281995Y368000D01*
X280005D01*
X278168Y367239D01*
X276761Y365832D01*
X276000Y363995D01*
Y362005D01*
X276761Y360168D01*
X278168Y358761D01*
X280005Y358000D01*
X281995D01*
X283832Y358761D01*
X285239Y360168D01*
X286000Y362005D01*
Y363995D01*
X285769Y364552D01*
X286741Y365524D01*
X288005Y365000D01*
X289995D01*
X291832Y365761D01*
X293239Y367168D01*
X294000Y369005D01*
Y370995D01*
X293239Y372832D01*
X291832Y374239D01*
X289995Y375000D01*
D02*
G37*
G36*
X358095Y371000D02*
X356106D01*
X354268Y370239D01*
X352861Y368832D01*
X352100Y366994D01*
Y365005D01*
X352861Y363167D01*
X354268Y361761D01*
X356106Y361000D01*
X358095D01*
X359933Y361761D01*
X361339Y363167D01*
X362100Y365005D01*
Y366994D01*
X361339Y368832D01*
X359933Y370239D01*
X358095Y371000D01*
D02*
G37*
G36*
X155494Y368000D02*
X153505D01*
X151667Y367239D01*
X150261Y365832D01*
X149500Y363995D01*
Y362006D01*
X150261Y360168D01*
X151667Y358761D01*
X153505Y358000D01*
X155494D01*
X157332Y358761D01*
X158739Y360168D01*
X159500Y362006D01*
Y363995D01*
X158739Y365832D01*
X157332Y367239D01*
X155494Y368000D01*
D02*
G37*
G36*
X248053Y368000D02*
X245947D01*
X243912Y367455D01*
X242088Y366401D01*
X240598Y364912D01*
X239545Y363088D01*
X239000Y361053D01*
Y358947D01*
X239545Y356912D01*
X240598Y355088D01*
X242088Y353598D01*
X243912Y352545D01*
X245947Y352000D01*
X248053D01*
X250088Y352545D01*
X251912Y353598D01*
X253402Y355088D01*
X254455Y356912D01*
X255000Y358947D01*
Y361053D01*
X254455Y363088D01*
X253402Y364912D01*
X251912Y366401D01*
X250088Y367455D01*
X248053Y368000D01*
D02*
G37*
G36*
X182995Y359000D02*
X181006D01*
X179168Y358239D01*
X177761Y356833D01*
X177000Y354995D01*
Y353006D01*
X177761Y351168D01*
X179168Y349761D01*
X181006Y349000D01*
X182995D01*
X184832Y349761D01*
X186239Y351168D01*
X187000Y353006D01*
Y354995D01*
X186239Y356833D01*
X184832Y358239D01*
X182995Y359000D01*
D02*
G37*
G36*
X213095Y351000D02*
X211106D01*
X209268Y350239D01*
X207861Y348832D01*
X207100Y346995D01*
Y345005D01*
X207861Y343168D01*
X209268Y341761D01*
X211106Y341000D01*
X213095D01*
X214933Y341761D01*
X216339Y343168D01*
X217100Y345005D01*
Y346995D01*
X216339Y348832D01*
X214933Y350239D01*
X213095Y351000D01*
D02*
G37*
G36*
X358095Y350000D02*
X356105D01*
X354268Y349239D01*
X352861Y347832D01*
X352100Y345994D01*
Y344005D01*
X352861Y342167D01*
X354268Y340761D01*
X356105Y340000D01*
X358095D01*
X359932Y340761D01*
X361339Y342167D01*
X362100Y344005D01*
Y345994D01*
X361339Y347832D01*
X359932Y349239D01*
X358095Y350000D01*
D02*
G37*
G36*
X311995Y341000D02*
X310005D01*
X308168Y340239D01*
X306761Y338832D01*
X306000Y336995D01*
Y335005D01*
X306761Y333168D01*
X308168Y331761D01*
X310005Y331000D01*
X311995D01*
X313832Y331761D01*
X315239Y333168D01*
X316000Y335005D01*
Y336995D01*
X315239Y338832D01*
X313832Y340239D01*
X311995Y341000D01*
D02*
G37*
G36*
X467718Y336000D02*
X465729D01*
X463891Y335239D01*
X462485Y333832D01*
X461723Y331995D01*
Y330006D01*
X462485Y328168D01*
X463891Y326761D01*
X465729Y326000D01*
X467718D01*
X469556Y326761D01*
X470962Y328168D01*
X471723Y330006D01*
Y331995D01*
X470962Y333832D01*
X469556Y335239D01*
X467718Y336000D01*
D02*
G37*
G36*
X367718D02*
X365729D01*
X363891Y335239D01*
X362485Y333832D01*
X361723Y331995D01*
Y330006D01*
X362485Y328168D01*
X363891Y326761D01*
X365729Y326000D01*
X367718D01*
X369556Y326761D01*
X370962Y328168D01*
X371723Y330006D01*
Y331995D01*
X370962Y333832D01*
X369556Y335239D01*
X367718Y336000D01*
D02*
G37*
G36*
X267718D02*
X265729D01*
X263891Y335239D01*
X262485Y333832D01*
X261723Y331995D01*
Y330006D01*
X262485Y328168D01*
X263891Y326761D01*
X265729Y326000D01*
X267718D01*
X269556Y326761D01*
X270962Y328168D01*
X271723Y330006D01*
Y331995D01*
X270962Y333832D01*
X269556Y335239D01*
X267718Y336000D01*
D02*
G37*
G36*
X67718D02*
X65729D01*
X63891Y335239D01*
X62485Y333832D01*
X61723Y331995D01*
Y330006D01*
X62485Y328168D01*
X63891Y326761D01*
X65729Y326000D01*
X67718D01*
X69556Y326761D01*
X70962Y328168D01*
X71723Y330006D01*
Y331995D01*
X70962Y333832D01*
X69556Y335239D01*
X67718Y336000D01*
D02*
G37*
G36*
X17718D02*
X15729D01*
X13891Y335239D01*
X12485Y333832D01*
X11723Y331995D01*
Y330006D01*
X12485Y328168D01*
X13891Y326761D01*
X15729Y326000D01*
X17718D01*
X19556Y326761D01*
X20962Y328168D01*
X21723Y330006D01*
Y331995D01*
X20962Y333832D01*
X19556Y335239D01*
X17718Y336000D01*
D02*
G37*
G36*
X176995Y334000D02*
X175006D01*
X173168Y333239D01*
X171761Y331833D01*
X171000Y329995D01*
Y328006D01*
X171761Y326168D01*
X173168Y324762D01*
X175006Y324000D01*
X176995D01*
X178832Y324762D01*
X180239Y326168D01*
X181000Y328006D01*
Y329995D01*
X180239Y331833D01*
X178832Y333239D01*
X176995Y334000D01*
D02*
G37*
G36*
X399495Y330200D02*
X397505D01*
X395668Y329439D01*
X394261Y328032D01*
X393500Y326194D01*
Y324205D01*
X394261Y322368D01*
X395668Y320961D01*
X397505Y320200D01*
X399495D01*
X401332Y320961D01*
X402739Y322368D01*
X403500Y324205D01*
Y326194D01*
X402739Y328032D01*
X401332Y329439D01*
X399495Y330200D01*
D02*
G37*
G36*
X189995Y330000D02*
X188006D01*
X186168Y329239D01*
X184762Y327832D01*
X184000Y325994D01*
Y324005D01*
X184762Y322168D01*
X186168Y320761D01*
X188006Y320000D01*
X189995D01*
X191833Y320761D01*
X193239Y322168D01*
X194000Y324005D01*
Y325994D01*
X193239Y327832D01*
X191833Y329239D01*
X189995Y330000D01*
D02*
G37*
G36*
X168995Y323000D02*
X167006D01*
X165168Y322239D01*
X163761Y320833D01*
X163000Y318995D01*
Y317006D01*
X163761Y315168D01*
X165168Y313762D01*
X167006Y313000D01*
X168995D01*
X170833Y313762D01*
X172239Y315168D01*
X173000Y317006D01*
Y318995D01*
X172239Y320833D01*
X170833Y322239D01*
X168995Y323000D01*
D02*
G37*
G36*
X436922Y364400D02*
X435079D01*
X433298Y363923D01*
X431702Y363001D01*
X430399Y361698D01*
X429477Y360102D01*
X429000Y358322D01*
Y356478D01*
X429477Y354698D01*
X430399Y353102D01*
X431702Y351799D01*
X431899Y351685D01*
Y350415D01*
X431702Y350301D01*
X430399Y348998D01*
X429477Y347402D01*
X429000Y345622D01*
Y343778D01*
X429477Y341998D01*
X430399Y340402D01*
X431702Y339099D01*
X431899Y338985D01*
Y337715D01*
X431702Y337601D01*
X430399Y336298D01*
X429477Y334702D01*
X429000Y332922D01*
Y331078D01*
X429477Y329298D01*
X430399Y327702D01*
X431702Y326399D01*
X431899Y326285D01*
Y325015D01*
X431702Y324901D01*
X430399Y323598D01*
X429477Y322002D01*
X429000Y320222D01*
Y318378D01*
X429477Y316598D01*
X430399Y315002D01*
X431702Y313699D01*
X433298Y312777D01*
X435079Y312300D01*
X436922D01*
X438702Y312777D01*
X440298Y313699D01*
X441601Y315002D01*
X442523Y316598D01*
X443000Y318378D01*
Y320222D01*
X442523Y322002D01*
X441601Y323598D01*
X440298Y324901D01*
X440101Y325015D01*
Y326285D01*
X440298Y326399D01*
X441601Y327702D01*
X442523Y329298D01*
X443000Y331078D01*
Y332922D01*
X442523Y334702D01*
X441601Y336298D01*
X440298Y337601D01*
X440101Y337715D01*
Y338985D01*
X440298Y339099D01*
X441601Y340402D01*
X442523Y341998D01*
X443000Y343778D01*
Y345622D01*
X442523Y347402D01*
X441601Y348998D01*
X440298Y350301D01*
X440101Y350415D01*
Y351685D01*
X440298Y351799D01*
X441601Y353102D01*
X442523Y354698D01*
X443000Y356478D01*
Y358322D01*
X442523Y360102D01*
X441601Y361698D01*
X440298Y363001D01*
X438702Y363923D01*
X436922Y364400D01*
D02*
G37*
G36*
X197995Y316000D02*
X196006D01*
X194168Y315239D01*
X192761Y313832D01*
X192000Y311995D01*
Y310005D01*
X192761Y308168D01*
X194168Y306761D01*
X196006Y306000D01*
X197995D01*
X199832Y306761D01*
X201239Y308168D01*
X202000Y310005D01*
Y311995D01*
X201239Y313832D01*
X199832Y315239D01*
X197995Y316000D01*
D02*
G37*
G36*
X248053Y313000D02*
X245947D01*
X243912Y312455D01*
X242088Y311402D01*
X240599Y309912D01*
X239545Y308088D01*
X239000Y306053D01*
Y303947D01*
X239545Y301912D01*
X240599Y300088D01*
X242088Y298598D01*
X243912Y297545D01*
X245947Y297000D01*
X248053D01*
X250088Y297545D01*
X251912Y298598D01*
X253402Y300088D01*
X254455Y301912D01*
X255000Y303947D01*
Y306053D01*
X254455Y308088D01*
X253402Y309912D01*
X251912Y311402D01*
X250088Y312455D01*
X248053Y313000D01*
D02*
G37*
G36*
X155494Y307000D02*
X153505D01*
X151668Y306239D01*
X150261Y304832D01*
X149500Y302994D01*
Y301005D01*
X150261Y299168D01*
X151668Y297761D01*
X153505Y297000D01*
X155494D01*
X157332Y297761D01*
X158739Y299168D01*
X159500Y301005D01*
Y302994D01*
X158739Y304832D01*
X157332Y306239D01*
X155494Y307000D01*
D02*
G37*
G36*
X206895Y289500D02*
X205105D01*
X203451Y288815D01*
X202185Y287549D01*
X201673Y286313D01*
X200326D01*
X199815Y287549D01*
X198549Y288815D01*
X196895Y289500D01*
X195105D01*
X193451Y288815D01*
X192185Y287549D01*
X191673Y286313D01*
X190327D01*
X189815Y287549D01*
X188549Y288815D01*
X186895Y289500D01*
X185105D01*
X183451Y288815D01*
X182185Y287549D01*
X181500Y285895D01*
Y284105D01*
X182185Y282451D01*
X183451Y281185D01*
X184686Y280673D01*
Y279326D01*
X183451Y278815D01*
X182185Y277549D01*
X181500Y275895D01*
Y274105D01*
X182185Y272451D01*
X183451Y271185D01*
X184686Y270673D01*
Y269326D01*
X183451Y268815D01*
X182185Y267549D01*
X181500Y265895D01*
Y264105D01*
X182185Y262451D01*
X183451Y261185D01*
X185105Y260500D01*
X186895D01*
X188549Y261185D01*
X189815Y262451D01*
X190327Y263686D01*
X191673D01*
X192185Y262451D01*
X193451Y261185D01*
X195105Y260500D01*
X196895D01*
X198549Y261185D01*
X199815Y262451D01*
X200326Y263686D01*
X201673D01*
X202185Y262451D01*
X203451Y261185D01*
X205105Y260500D01*
X206895D01*
X208549Y261185D01*
X209815Y262451D01*
X210500Y264105D01*
Y265895D01*
X209815Y267549D01*
X208549Y268815D01*
X207313Y269326D01*
Y270673D01*
X208549Y271185D01*
X209815Y272451D01*
X210500Y274105D01*
Y275895D01*
X209815Y277549D01*
X208549Y278815D01*
X207313Y279326D01*
Y280673D01*
X208549Y281185D01*
X209815Y282451D01*
X210500Y284105D01*
Y285895D01*
X209815Y287549D01*
X208549Y288815D01*
X206895Y289500D01*
D02*
G37*
G36*
X160995Y293000D02*
X159006D01*
X157168Y292239D01*
X155761Y290832D01*
X155000Y288995D01*
Y287006D01*
X155761Y285168D01*
X157168Y283761D01*
X159006Y283000D01*
X160995D01*
X162832Y283761D01*
X164239Y285168D01*
X165000Y287006D01*
Y288995D01*
X164239Y290832D01*
X162832Y292239D01*
X160995Y293000D01*
D02*
G37*
G36*
X430995Y290000D02*
X429005D01*
X427168Y289239D01*
X425761Y287832D01*
X425000Y285995D01*
Y284005D01*
X425761Y282168D01*
X427168Y280761D01*
X429005Y280000D01*
X430995D01*
X432832Y280761D01*
X434239Y282168D01*
X435000Y284005D01*
Y285995D01*
X434239Y287832D01*
X432832Y289239D01*
X430995Y290000D01*
D02*
G37*
G36*
X248053Y293000D02*
X245947D01*
X243912Y292455D01*
X242088Y291402D01*
X240599Y289912D01*
X239545Y288088D01*
X239000Y286054D01*
Y283947D01*
X239545Y281912D01*
X240599Y280088D01*
X242088Y278599D01*
X243912Y277546D01*
X245947Y277000D01*
X248053D01*
X250088Y277546D01*
X251912Y278599D01*
X253402Y280088D01*
X254455Y281912D01*
X255000Y283947D01*
Y286054D01*
X254455Y288088D01*
X253402Y289912D01*
X251912Y291402D01*
X250088Y292455D01*
X248053Y293000D01*
D02*
G37*
G36*
X442718Y286000D02*
X440729D01*
X438891Y285239D01*
X437485Y283832D01*
X436723Y281995D01*
Y280006D01*
X437485Y278168D01*
X438891Y276761D01*
X440729Y276000D01*
X442718D01*
X444556Y276761D01*
X445962Y278168D01*
X446723Y280006D01*
Y281995D01*
X445962Y283832D01*
X444556Y285239D01*
X442718Y286000D01*
D02*
G37*
G36*
X342718D02*
X340729D01*
X338891Y285239D01*
X337485Y283832D01*
X336723Y281995D01*
Y280006D01*
X337485Y278168D01*
X338891Y276761D01*
X340729Y276000D01*
X342718D01*
X344556Y276761D01*
X345962Y278168D01*
X346723Y280006D01*
Y281995D01*
X345962Y283832D01*
X344556Y285239D01*
X342718Y286000D01*
D02*
G37*
G36*
X292718D02*
X290729D01*
X288891Y285239D01*
X287485Y283832D01*
X286723Y281995D01*
Y280006D01*
X287485Y278168D01*
X288891Y276761D01*
X290729Y276000D01*
X292718D01*
X294556Y276761D01*
X295962Y278168D01*
X296723Y280006D01*
Y281995D01*
X295962Y283832D01*
X294556Y285239D01*
X292718Y286000D01*
D02*
G37*
G36*
X92718D02*
X90729D01*
X88891Y285239D01*
X87485Y283832D01*
X86723Y281995D01*
Y280006D01*
X87485Y278168D01*
X88891Y276761D01*
X90729Y276000D01*
X92718D01*
X94556Y276761D01*
X95962Y278168D01*
X96723Y280006D01*
Y281995D01*
X95962Y283832D01*
X94556Y285239D01*
X92718Y286000D01*
D02*
G37*
G36*
X42718D02*
X40729D01*
X38891Y285239D01*
X37485Y283832D01*
X36723Y281995D01*
Y280006D01*
X37485Y278168D01*
X38891Y276761D01*
X40729Y276000D01*
X42718D01*
X44556Y276761D01*
X45962Y278168D01*
X46723Y280006D01*
Y281995D01*
X45962Y283832D01*
X44556Y285239D01*
X42718Y286000D01*
D02*
G37*
G36*
X233995Y280000D02*
X232006D01*
X230168Y279239D01*
X228761Y277832D01*
X228000Y275995D01*
Y274006D01*
X228761Y272168D01*
X230168Y270761D01*
X232006Y270000D01*
X233995D01*
X235832Y270761D01*
X237239Y272168D01*
X238000Y274006D01*
Y275995D01*
X237239Y277832D01*
X235832Y279239D01*
X233995Y280000D01*
D02*
G37*
G36*
X160995D02*
X159006D01*
X157168Y279239D01*
X155761Y277832D01*
X155000Y275995D01*
Y274006D01*
X155761Y272168D01*
X157168Y270761D01*
X159006Y270000D01*
X160995D01*
X162832Y270761D01*
X164239Y272168D01*
X165000Y274006D01*
Y275995D01*
X164239Y277832D01*
X162832Y279239D01*
X160995Y280000D01*
D02*
G37*
G36*
X76000Y293750D02*
X52000D01*
Y269750D01*
X76000D01*
Y293750D01*
D02*
G37*
G36*
X160995Y267000D02*
X159006D01*
X157168Y266239D01*
X155761Y264832D01*
X155000Y262995D01*
Y261005D01*
X155761Y259168D01*
X157168Y257761D01*
X159006Y257000D01*
X160995D01*
X162832Y257761D01*
X164239Y259168D01*
X165000Y261005D01*
Y262995D01*
X164239Y264832D01*
X162832Y266239D01*
X160995Y267000D01*
D02*
G37*
G36*
X248053Y273000D02*
X245947D01*
X243912Y272455D01*
X242088Y271402D01*
X240599Y269912D01*
X239545Y268088D01*
X239000Y266053D01*
Y263947D01*
X239545Y261912D01*
X240599Y260088D01*
X242088Y258598D01*
X243912Y257545D01*
X245947Y257000D01*
X248053D01*
X250088Y257545D01*
X251912Y258598D01*
X253402Y260088D01*
X254455Y261912D01*
X255000Y263947D01*
Y266053D01*
X254455Y268088D01*
X253402Y269912D01*
X251912Y271402D01*
X250088Y272455D01*
X248053Y273000D01*
D02*
G37*
G36*
X155494Y253000D02*
X153505D01*
X151668Y252239D01*
X150261Y250832D01*
X149500Y248994D01*
Y247005D01*
X150261Y245168D01*
X151668Y243761D01*
X153505Y243000D01*
X155494D01*
X157332Y243761D01*
X158739Y245168D01*
X159500Y247005D01*
Y248994D01*
X158739Y250832D01*
X157332Y252239D01*
X155494Y253000D01*
D02*
G37*
G36*
X248053Y253000D02*
X245947D01*
X243912Y252455D01*
X242088Y251401D01*
X240599Y249912D01*
X239545Y248088D01*
X239000Y246053D01*
Y243947D01*
X239545Y241912D01*
X240599Y240088D01*
X242088Y238598D01*
X243912Y237545D01*
X245947Y237000D01*
X248053D01*
X250088Y237545D01*
X251912Y238598D01*
X253402Y240088D01*
X254455Y241912D01*
X255000Y243947D01*
Y246053D01*
X254455Y248088D01*
X253402Y249912D01*
X251912Y251401D01*
X250088Y252455D01*
X248053Y253000D01*
D02*
G37*
G36*
X182995Y244000D02*
X181006D01*
X179168Y243239D01*
X177761Y241832D01*
X177000Y239995D01*
Y238006D01*
X177761Y236168D01*
X179168Y234761D01*
X181006Y234000D01*
X182995D01*
X184832Y234761D01*
X186239Y236168D01*
X187000Y238006D01*
Y239995D01*
X186239Y241832D01*
X184832Y243239D01*
X182995Y244000D01*
D02*
G37*
G36*
X467718Y236000D02*
X465729D01*
X463891Y235239D01*
X462485Y233832D01*
X461723Y231995D01*
Y230006D01*
X462485Y228168D01*
X463891Y226761D01*
X465729Y226000D01*
X467718D01*
X469556Y226761D01*
X470962Y228168D01*
X471723Y230006D01*
Y231995D01*
X470962Y233832D01*
X469556Y235239D01*
X467718Y236000D01*
D02*
G37*
G36*
X267718D02*
X265729D01*
X263891Y235239D01*
X262485Y233832D01*
X261723Y231995D01*
Y230006D01*
X262485Y228168D01*
X263891Y226761D01*
X265729Y226000D01*
X267718D01*
X269556Y226761D01*
X270962Y228168D01*
X271723Y230006D01*
Y231995D01*
X270962Y233832D01*
X269556Y235239D01*
X267718Y236000D01*
D02*
G37*
G36*
X117718D02*
X115729D01*
X113891Y235239D01*
X112485Y233832D01*
X111723Y231995D01*
Y230006D01*
X112485Y228168D01*
X113891Y226761D01*
X115729Y226000D01*
X117718D01*
X119556Y226761D01*
X120962Y228168D01*
X121723Y230006D01*
Y231995D01*
X120962Y233832D01*
X119556Y235239D01*
X117718Y236000D01*
D02*
G37*
G36*
X17718D02*
X15729D01*
X13891Y235239D01*
X12485Y233832D01*
X11723Y231995D01*
Y230006D01*
X12485Y228168D01*
X13891Y226761D01*
X15729Y226000D01*
X17718D01*
X19556Y226761D01*
X20962Y228168D01*
X21723Y230006D01*
Y231995D01*
X20962Y233832D01*
X19556Y235239D01*
X17718Y236000D01*
D02*
G37*
G36*
X213095Y236000D02*
X211106D01*
X209268Y235239D01*
X207861Y233832D01*
X207100Y231994D01*
Y230005D01*
X207861Y228168D01*
X209268Y226761D01*
X211106Y226000D01*
X213095D01*
X214933Y226761D01*
X216339Y228168D01*
X217100Y230005D01*
Y231994D01*
X216339Y233832D01*
X214933Y235239D01*
X213095Y236000D01*
D02*
G37*
G36*
X310994Y233000D02*
X309005D01*
X307168Y232239D01*
X305761Y230832D01*
X305000Y228995D01*
Y227006D01*
X305761Y225168D01*
X307168Y223761D01*
X309005Y223000D01*
X310994D01*
X312832Y223761D01*
X314239Y225168D01*
X315000Y227006D01*
Y228995D01*
X314239Y230832D01*
X312832Y232239D01*
X310994Y233000D01*
D02*
G37*
G36*
X176995Y219000D02*
X175005D01*
X173168Y218239D01*
X171761Y216832D01*
X171000Y214995D01*
Y213005D01*
X171761Y211168D01*
X173168Y209761D01*
X175005Y209000D01*
X176995D01*
X178832Y209761D01*
X180239Y211168D01*
X181000Y213005D01*
Y214995D01*
X180239Y216832D01*
X178832Y218239D01*
X176995Y219000D01*
D02*
G37*
G36*
X189995Y215000D02*
X188005D01*
X186168Y214239D01*
X184761Y212832D01*
X184000Y210995D01*
Y209006D01*
X184761Y207168D01*
X186168Y205761D01*
X188005Y205000D01*
X189995D01*
X191832Y205761D01*
X193239Y207168D01*
X194000Y209006D01*
Y210995D01*
X193239Y212832D01*
X191832Y214239D01*
X189995Y215000D01*
D02*
G37*
G36*
X168995Y208000D02*
X167005D01*
X165168Y207239D01*
X163761Y205832D01*
X163000Y203995D01*
Y202006D01*
X163761Y200168D01*
X165168Y198761D01*
X167005Y198000D01*
X168995D01*
X170832Y198761D01*
X172239Y200168D01*
X173000Y202006D01*
Y203995D01*
X172239Y205832D01*
X170832Y207239D01*
X168995Y208000D01*
D02*
G37*
G36*
X197994Y201000D02*
X196005D01*
X194168Y200239D01*
X192761Y198833D01*
X192000Y196995D01*
Y195006D01*
X192761Y193168D01*
X194168Y191761D01*
X196005Y191000D01*
X197994D01*
X199832Y191761D01*
X201239Y193168D01*
X202000Y195006D01*
Y196995D01*
X201239Y198833D01*
X199832Y200239D01*
X197994Y201000D01*
D02*
G37*
G36*
X65580Y214750D02*
X62421D01*
X59369Y213932D01*
X56632Y212353D01*
X54398Y210118D01*
X52818Y207382D01*
X52000Y204330D01*
Y201170D01*
X52818Y198118D01*
X54398Y195382D01*
X56632Y193148D01*
X59369Y191568D01*
X62421Y190750D01*
X65580D01*
X68632Y191568D01*
X71368Y193148D01*
X73603Y195382D01*
X75182Y198118D01*
X76000Y201170D01*
Y204330D01*
X75182Y207382D01*
X73603Y210118D01*
X71368Y212353D01*
X68632Y213932D01*
X65580Y214750D01*
D02*
G37*
G36*
X248053Y198000D02*
X245947D01*
X243912Y197455D01*
X242088Y196402D01*
X240598Y194912D01*
X239545Y193088D01*
X239000Y191053D01*
Y188947D01*
X239545Y186912D01*
X240598Y185088D01*
X242088Y183599D01*
X243912Y182545D01*
X245947Y182000D01*
X248053D01*
X250088Y182545D01*
X251912Y183599D01*
X253402Y185088D01*
X254455Y186912D01*
X255000Y188947D01*
Y191053D01*
X254455Y193088D01*
X253402Y194912D01*
X251912Y196402D01*
X250088Y197455D01*
X248053Y198000D01*
D02*
G37*
G36*
X155495Y192000D02*
X153506D01*
X151668Y191239D01*
X150261Y189832D01*
X149500Y187995D01*
Y186006D01*
X150261Y184168D01*
X151668Y182761D01*
X153506Y182000D01*
X155495D01*
X157332Y182761D01*
X158739Y184168D01*
X159500Y186006D01*
Y187995D01*
X158739Y189832D01*
X157332Y191239D01*
X155495Y192000D01*
D02*
G37*
G36*
X442718Y186000D02*
X440729D01*
X438891Y185239D01*
X437485Y183832D01*
X436723Y181995D01*
Y180006D01*
X437485Y178168D01*
X438891Y176761D01*
X440729Y176000D01*
X442718D01*
X444556Y176761D01*
X445962Y178168D01*
X446723Y180006D01*
Y181995D01*
X445962Y183832D01*
X444556Y185239D01*
X442718Y186000D01*
D02*
G37*
G36*
X392718D02*
X390729D01*
X388891Y185239D01*
X387485Y183832D01*
X386723Y181995D01*
Y180006D01*
X387485Y178168D01*
X388891Y176761D01*
X390729Y176000D01*
X392718D01*
X394556Y176761D01*
X395962Y178168D01*
X396723Y180006D01*
Y181995D01*
X395962Y183832D01*
X394556Y185239D01*
X392718Y186000D01*
D02*
G37*
G36*
X292718D02*
X290729D01*
X288891Y185239D01*
X287485Y183832D01*
X286723Y181995D01*
Y180006D01*
X287485Y178168D01*
X288891Y176761D01*
X290729Y176000D01*
X292718D01*
X294556Y176761D01*
X295962Y178168D01*
X296723Y180006D01*
Y181995D01*
X295962Y183832D01*
X294556Y185239D01*
X292718Y186000D01*
D02*
G37*
G36*
X42718D02*
X40729D01*
X38891Y185239D01*
X37485Y183832D01*
X36723Y181995D01*
Y180006D01*
X37485Y178168D01*
X38891Y176761D01*
X40729Y176000D01*
X42718D01*
X44556Y176761D01*
X45962Y178168D01*
X46723Y180006D01*
Y181995D01*
X45962Y183832D01*
X44556Y185239D01*
X42718Y186000D01*
D02*
G37*
G36*
X333494Y185000D02*
X331505D01*
X329668Y184239D01*
X328261Y182833D01*
X327500Y180995D01*
Y179006D01*
X328261Y177168D01*
X329668Y175761D01*
X331505Y175000D01*
X333494D01*
X335332Y175761D01*
X336739Y177168D01*
X337500Y179006D01*
Y180995D01*
X336739Y182833D01*
X335332Y184239D01*
X333494Y185000D01*
D02*
G37*
G36*
X206895Y174500D02*
X205105D01*
X203451Y173815D01*
X202185Y172549D01*
X201674Y171314D01*
X200327D01*
X199815Y172549D01*
X198549Y173815D01*
X196895Y174500D01*
X195105D01*
X193451Y173815D01*
X192185Y172549D01*
X191674Y171314D01*
X190327D01*
X189815Y172549D01*
X188549Y173815D01*
X186895Y174500D01*
X185105D01*
X183451Y173815D01*
X182185Y172549D01*
X181500Y170895D01*
Y169105D01*
X182185Y167451D01*
X183451Y166185D01*
X184687Y165673D01*
Y164327D01*
X183451Y163815D01*
X182185Y162549D01*
X181500Y160895D01*
Y159105D01*
X182185Y157451D01*
X183451Y156185D01*
X184687Y155673D01*
Y154327D01*
X183451Y153815D01*
X182185Y152549D01*
X181500Y150895D01*
Y149105D01*
X182185Y147451D01*
X183451Y146185D01*
X185105Y145500D01*
X186895D01*
X188549Y146185D01*
X189815Y147451D01*
X190327Y148687D01*
X191674D01*
X192185Y147451D01*
X193451Y146185D01*
X195105Y145500D01*
X196895D01*
X198549Y146185D01*
X199815Y147451D01*
X200327Y148687D01*
X201674D01*
X202185Y147451D01*
X203451Y146185D01*
X205105Y145500D01*
X206895D01*
X208549Y146185D01*
X209815Y147451D01*
X210500Y149105D01*
Y150895D01*
X209815Y152549D01*
X208549Y153815D01*
X207314Y154327D01*
Y155673D01*
X208549Y156185D01*
X209815Y157451D01*
X210500Y159105D01*
Y160895D01*
X209815Y162549D01*
X208549Y163815D01*
X207314Y164327D01*
Y165673D01*
X208549Y166185D01*
X209815Y167451D01*
X210500Y169105D01*
Y170895D01*
X209815Y172549D01*
X208549Y173815D01*
X206895Y174500D01*
D02*
G37*
G36*
X160994Y178000D02*
X159005D01*
X157168Y177239D01*
X155761Y175833D01*
X155000Y173995D01*
Y172006D01*
X155761Y170168D01*
X157168Y168762D01*
X159005Y168000D01*
X160994D01*
X162832Y168762D01*
X164239Y170168D01*
X165000Y172006D01*
Y173995D01*
X164239Y175833D01*
X162832Y177239D01*
X160994Y178000D01*
D02*
G37*
G36*
X248053Y178001D02*
X245947D01*
X243912Y177455D01*
X242088Y176402D01*
X240598Y174913D01*
X239545Y173088D01*
X239000Y171054D01*
Y168947D01*
X239545Y166913D01*
X240598Y165088D01*
X242088Y163599D01*
X243912Y162546D01*
X245947Y162001D01*
X248053D01*
X250088Y162546D01*
X251912Y163599D01*
X253402Y165088D01*
X254455Y166913D01*
X255000Y168947D01*
Y171054D01*
X254455Y173088D01*
X253402Y174913D01*
X251912Y176402D01*
X250088Y177455D01*
X248053Y178001D01*
D02*
G37*
G36*
X233995Y165000D02*
X232005D01*
X230168Y164239D01*
X228761Y162833D01*
X228000Y160995D01*
Y159006D01*
X228761Y157168D01*
X230168Y155761D01*
X232005Y155000D01*
X233995D01*
X235832Y155761D01*
X237239Y157168D01*
X238000Y159006D01*
Y160995D01*
X237239Y162833D01*
X235832Y164239D01*
X233995Y165000D01*
D02*
G37*
G36*
X160994D02*
X159005D01*
X157168Y164239D01*
X155761Y162833D01*
X155000Y160995D01*
Y159006D01*
X155761Y157168D01*
X157168Y155761D01*
X159005Y155000D01*
X160994D01*
X162832Y155761D01*
X164239Y157168D01*
X165000Y159006D01*
Y160995D01*
X164239Y162833D01*
X162832Y164239D01*
X160994Y165000D01*
D02*
G37*
G36*
X303995Y154000D02*
X302006D01*
X300168Y153239D01*
X298761Y151832D01*
X298000Y149995D01*
Y148005D01*
X298761Y146168D01*
X300168Y144761D01*
X302006Y144000D01*
X303995D01*
X305832Y144761D01*
X307239Y146168D01*
X308000Y148005D01*
Y149995D01*
X307239Y151832D01*
X305832Y153239D01*
X303995Y154000D01*
D02*
G37*
G36*
X160994Y152000D02*
X159005D01*
X157168Y151239D01*
X155761Y149833D01*
X155000Y147995D01*
Y146006D01*
X155761Y144168D01*
X157168Y142761D01*
X159005Y142000D01*
X160994D01*
X162832Y142761D01*
X164239Y144168D01*
X165000Y146006D01*
Y147995D01*
X164239Y149833D01*
X162832Y151239D01*
X160994Y152000D01*
D02*
G37*
G36*
X248053Y158000D02*
X245947D01*
X243912Y157455D01*
X242088Y156402D01*
X240599Y154912D01*
X239545Y153088D01*
X239000Y151053D01*
Y148947D01*
X239545Y146912D01*
X240599Y145088D01*
X242088Y143599D01*
X243912Y142545D01*
X245947Y142000D01*
X248053D01*
X250088Y142545D01*
X251912Y143599D01*
X253402Y145088D01*
X254455Y146912D01*
X255000Y148947D01*
Y151053D01*
X254455Y153088D01*
X253402Y154912D01*
X251912Y156402D01*
X250088Y157455D01*
X248053Y158000D01*
D02*
G37*
G36*
X155495Y138000D02*
X153506D01*
X151668Y137239D01*
X150261Y135832D01*
X149500Y133995D01*
Y132006D01*
X150261Y130168D01*
X151668Y128761D01*
X153506Y128000D01*
X155495D01*
X157332Y128761D01*
X158739Y130168D01*
X159500Y132006D01*
Y133995D01*
X158739Y135832D01*
X157332Y137239D01*
X155495Y138000D01*
D02*
G37*
G36*
X467718Y136000D02*
X465729D01*
X463891Y135239D01*
X462485Y133832D01*
X461723Y131995D01*
Y130006D01*
X462485Y128168D01*
X463891Y126761D01*
X465729Y126000D01*
X467718D01*
X469556Y126761D01*
X470962Y128168D01*
X471723Y130006D01*
Y131995D01*
X470962Y133832D01*
X469556Y135239D01*
X467718Y136000D01*
D02*
G37*
G36*
X267718D02*
X265729D01*
X263891Y135239D01*
X262485Y133832D01*
X261723Y131995D01*
Y130006D01*
X262485Y128168D01*
X263891Y126761D01*
X265729Y126000D01*
X267718D01*
X269556Y126761D01*
X270962Y128168D01*
X271723Y130006D01*
Y131995D01*
X270962Y133832D01*
X269556Y135239D01*
X267718Y136000D01*
D02*
G37*
G36*
X217718D02*
X215729D01*
X213891Y135239D01*
X212485Y133832D01*
X211723Y131995D01*
Y130006D01*
X212485Y128168D01*
X213891Y126761D01*
X215729Y126000D01*
X217718D01*
X219556Y126761D01*
X220962Y128168D01*
X221723Y130006D01*
Y131995D01*
X220962Y133832D01*
X219556Y135239D01*
X217718Y136000D01*
D02*
G37*
G36*
X117718D02*
X115729D01*
X113891Y135239D01*
X112485Y133832D01*
X111723Y131995D01*
Y130006D01*
X112485Y128168D01*
X113891Y126761D01*
X115729Y126000D01*
X117718D01*
X119556Y126761D01*
X120962Y128168D01*
X121723Y130006D01*
Y131995D01*
X120962Y133832D01*
X119556Y135239D01*
X117718Y136000D01*
D02*
G37*
G36*
X67718D02*
X65729D01*
X63891Y135239D01*
X62485Y133832D01*
X61723Y131995D01*
Y130006D01*
X62485Y128168D01*
X63891Y126761D01*
X65729Y126000D01*
X67718D01*
X69556Y126761D01*
X70962Y128168D01*
X71723Y130006D01*
Y131995D01*
X70962Y133832D01*
X69556Y135239D01*
X67718Y136000D01*
D02*
G37*
G36*
X17718D02*
X15729D01*
X13891Y135239D01*
X12485Y133832D01*
X11723Y131995D01*
Y130006D01*
X12485Y128168D01*
X13891Y126761D01*
X15729Y126000D01*
X17718D01*
X19556Y126761D01*
X20962Y128168D01*
X21723Y130006D01*
Y131995D01*
X20962Y133832D01*
X19556Y135239D01*
X17718Y136000D01*
D02*
G37*
G36*
X248053Y138000D02*
X245947D01*
X243912Y137455D01*
X242088Y136402D01*
X240598Y134912D01*
X239545Y133088D01*
X239000Y131053D01*
Y128947D01*
X239545Y126912D01*
X240598Y125088D01*
X242088Y123598D01*
X243912Y122545D01*
X245947Y122000D01*
X248053D01*
X250088Y122545D01*
X251912Y123598D01*
X253402Y125088D01*
X254455Y126912D01*
X255000Y128947D01*
Y131053D01*
X254455Y133088D01*
X253402Y134912D01*
X251912Y136402D01*
X250088Y137455D01*
X248053Y138000D01*
D02*
G37*
G36*
X182994Y129000D02*
X181005D01*
X179168Y128239D01*
X177761Y126833D01*
X177000Y124995D01*
Y123006D01*
X177761Y121168D01*
X179168Y119761D01*
X181005Y119000D01*
X182994D01*
X184832Y119761D01*
X186239Y121168D01*
X187000Y123006D01*
Y124995D01*
X186239Y126833D01*
X184832Y128239D01*
X182994Y129000D01*
D02*
G37*
G36*
X361294Y124000D02*
X359305D01*
X357467Y123239D01*
X356061Y121832D01*
X355300Y119994D01*
Y118005D01*
X356061Y116168D01*
X357467Y114761D01*
X359305Y114000D01*
X361294D01*
X363132Y114761D01*
X364539Y116168D01*
X365300Y118005D01*
Y119994D01*
X364539Y121832D01*
X363132Y123239D01*
X361294Y124000D01*
D02*
G37*
G36*
X345494D02*
X343505D01*
X341668Y123239D01*
X340261Y121832D01*
X339500Y119994D01*
Y118005D01*
X340261Y116168D01*
X341668Y114761D01*
X343505Y114000D01*
X345494D01*
X347332Y114761D01*
X348739Y116168D01*
X349500Y118005D01*
Y119994D01*
X348739Y121832D01*
X347332Y123239D01*
X345494Y124000D01*
D02*
G37*
G36*
X320495Y124000D02*
X318506D01*
X316668Y123239D01*
X315262Y121832D01*
X314501Y119994D01*
Y118005D01*
X315262Y116168D01*
X316668Y114761D01*
X318506Y114000D01*
X320495D01*
X322333Y114761D01*
X323739Y116168D01*
X324501Y118005D01*
Y119994D01*
X323739Y121832D01*
X322333Y123239D01*
X320495Y124000D01*
D02*
G37*
G36*
X304695D02*
X302706D01*
X300868Y123239D01*
X299462Y121832D01*
X298701Y119994D01*
Y118005D01*
X299462Y116168D01*
X300868Y114761D01*
X302706Y114000D01*
X304695D01*
X306533Y114761D01*
X307939Y116168D01*
X308701Y118005D01*
Y119994D01*
X307939Y121832D01*
X306533Y123239D01*
X304695Y124000D01*
D02*
G37*
G36*
X213095Y121000D02*
X211105D01*
X209268Y120239D01*
X207861Y118833D01*
X207100Y116995D01*
Y115006D01*
X207861Y113168D01*
X209268Y111761D01*
X211105Y111000D01*
X213095D01*
X214932Y111761D01*
X216339Y113168D01*
X217100Y115006D01*
Y116995D01*
X216339Y118833D01*
X214932Y120239D01*
X213095Y121000D01*
D02*
G37*
G36*
X176995Y119000D02*
X175005D01*
X173168Y118239D01*
X171761Y116833D01*
X171000Y114995D01*
Y113006D01*
X171761Y111168D01*
X173168Y109761D01*
X175005Y109000D01*
X176995D01*
X178832Y109761D01*
X180239Y111168D01*
X181000Y113006D01*
Y114995D01*
X180239Y116833D01*
X178832Y118239D01*
X176995Y119000D01*
D02*
G37*
G36*
X207995Y101000D02*
X206005D01*
X204168Y100239D01*
X202761Y98832D01*
X202635Y98528D01*
X201365D01*
X201239Y98832D01*
X199832Y100239D01*
X197995Y101000D01*
X196005D01*
X194168Y100239D01*
X192761Y98832D01*
X192000Y96995D01*
Y95005D01*
X192761Y93168D01*
X194168Y91761D01*
X196005Y91000D01*
X197995D01*
X199832Y91761D01*
X201239Y93168D01*
X201365Y93472D01*
X202635D01*
X202761Y93168D01*
X204168Y91761D01*
X206005Y91000D01*
X207995D01*
X209832Y91761D01*
X211239Y93168D01*
X212000Y95005D01*
Y96995D01*
X211239Y98832D01*
X209832Y100239D01*
X207995Y101000D01*
D02*
G37*
G36*
X168995Y108000D02*
X167006D01*
X165168Y107239D01*
X163761Y105833D01*
X163000Y103995D01*
Y102006D01*
X163761Y100168D01*
X165168Y98762D01*
X167006Y98000D01*
X168995D01*
X170832Y98762D01*
X172239Y100168D01*
X173000Y102006D01*
Y103995D01*
X172239Y105833D01*
X170832Y107239D01*
X168995Y108000D01*
D02*
G37*
G36*
X76000Y115000D02*
X52000D01*
Y91000D01*
X76000D01*
Y115000D01*
D02*
G37*
G36*
X248053Y98000D02*
X245947D01*
X243912Y97455D01*
X242088Y96402D01*
X240598Y94912D01*
X239545Y93088D01*
X239000Y91053D01*
Y88947D01*
X239545Y86912D01*
X240598Y85088D01*
X242088Y83598D01*
X243912Y82545D01*
X245947Y82000D01*
X248053D01*
X250088Y82545D01*
X251912Y83598D01*
X253401Y85088D01*
X254455Y86912D01*
X255000Y88947D01*
Y91053D01*
X254455Y93088D01*
X253401Y94912D01*
X251912Y96402D01*
X250088Y97455D01*
X248053Y98000D01*
D02*
G37*
G36*
X155495Y92000D02*
X153505D01*
X151668Y91239D01*
X150261Y89832D01*
X149500Y87994D01*
Y86005D01*
X150261Y84168D01*
X151668Y82761D01*
X153505Y82000D01*
X155495D01*
X157332Y82761D01*
X158739Y84168D01*
X159500Y86005D01*
Y87994D01*
X158739Y89832D01*
X157332Y91239D01*
X155495Y92000D01*
D02*
G37*
G36*
X442718Y86000D02*
X440729D01*
X438891Y85239D01*
X437485Y83832D01*
X436723Y81995D01*
Y80006D01*
X437485Y78168D01*
X438891Y76761D01*
X440729Y76000D01*
X442718D01*
X444556Y76761D01*
X445962Y78168D01*
X446723Y80006D01*
Y81995D01*
X445962Y83832D01*
X444556Y85239D01*
X442718Y86000D01*
D02*
G37*
G36*
X292718D02*
X290729D01*
X288891Y85239D01*
X287485Y83832D01*
X286723Y81995D01*
Y80006D01*
X287485Y78168D01*
X288891Y76761D01*
X290729Y76000D01*
X292718D01*
X294556Y76761D01*
X295962Y78168D01*
X296723Y80006D01*
Y81995D01*
X295962Y83832D01*
X294556Y85239D01*
X292718Y86000D01*
D02*
G37*
G36*
X42718D02*
X40729D01*
X38891Y85239D01*
X37485Y83832D01*
X36723Y81995D01*
Y80006D01*
X37485Y78168D01*
X38891Y76761D01*
X40729Y76000D01*
X42718D01*
X44556Y76761D01*
X45962Y78168D01*
X46723Y80006D01*
Y81995D01*
X45962Y83832D01*
X44556Y85239D01*
X42718Y86000D01*
D02*
G37*
G36*
X206895Y74500D02*
X205105D01*
X203451Y73815D01*
X202185Y72549D01*
X201674Y71313D01*
X200327D01*
X199815Y72549D01*
X198549Y73815D01*
X196895Y74500D01*
X195105D01*
X193451Y73815D01*
X192185Y72549D01*
X191674Y71313D01*
X190327D01*
X189815Y72549D01*
X188549Y73815D01*
X186895Y74500D01*
X185105D01*
X183451Y73815D01*
X182185Y72549D01*
X181500Y70895D01*
Y69105D01*
X182185Y67451D01*
X183451Y66185D01*
X184687Y65673D01*
Y64327D01*
X183451Y63815D01*
X182185Y62549D01*
X181500Y60895D01*
Y59105D01*
X182185Y57451D01*
X183451Y56185D01*
X184687Y55673D01*
Y54327D01*
X183451Y53815D01*
X182185Y52549D01*
X181500Y50895D01*
Y49105D01*
X182185Y47451D01*
X183451Y46185D01*
X185105Y45500D01*
X186895D01*
X188549Y46185D01*
X189815Y47451D01*
X190327Y48686D01*
X191674D01*
X192185Y47451D01*
X193451Y46185D01*
X195105Y45500D01*
X196895D01*
X198549Y46185D01*
X199815Y47451D01*
X200327Y48686D01*
X201674D01*
X202185Y47451D01*
X203451Y46185D01*
X205105Y45500D01*
X206895D01*
X208549Y46185D01*
X209815Y47451D01*
X210500Y49105D01*
Y50895D01*
X209815Y52549D01*
X208549Y53815D01*
X207314Y54327D01*
Y55673D01*
X208549Y56185D01*
X209815Y57451D01*
X210500Y59105D01*
Y60895D01*
X209815Y62549D01*
X208549Y63815D01*
X207314Y64327D01*
Y65673D01*
X208549Y66185D01*
X209815Y67451D01*
X210500Y69105D01*
Y70895D01*
X209815Y72549D01*
X208549Y73815D01*
X206895Y74500D01*
D02*
G37*
G36*
X160995Y78000D02*
X159005D01*
X157168Y77239D01*
X155761Y75832D01*
X155000Y73995D01*
Y72005D01*
X155761Y70168D01*
X157168Y68761D01*
X159005Y68000D01*
X160995D01*
X162832Y68761D01*
X164239Y70168D01*
X165000Y72005D01*
Y73995D01*
X164239Y75832D01*
X162832Y77239D01*
X160995Y78000D01*
D02*
G37*
G36*
X248053Y78000D02*
X245947D01*
X243912Y77455D01*
X242088Y76402D01*
X240598Y74912D01*
X239545Y73088D01*
X239000Y71053D01*
Y68947D01*
X239545Y66912D01*
X240598Y65088D01*
X242088Y63598D01*
X243912Y62545D01*
X245947Y62000D01*
X248053D01*
X250088Y62545D01*
X251912Y63598D01*
X253401Y65088D01*
X254455Y66912D01*
X255000Y68947D01*
Y71053D01*
X254455Y73088D01*
X253401Y74912D01*
X251912Y76402D01*
X250088Y77455D01*
X248053Y78000D01*
D02*
G37*
G36*
X411995Y70500D02*
X410005D01*
X408168Y69739D01*
X406761Y68332D01*
X406000Y66494D01*
Y64505D01*
X406761Y62668D01*
X408168Y61261D01*
X410005Y60500D01*
X411995D01*
X413832Y61261D01*
X415239Y62668D01*
X416000Y64505D01*
Y66494D01*
X415239Y68332D01*
X413832Y69739D01*
X411995Y70500D01*
D02*
G37*
G36*
X340495Y87000D02*
X338506D01*
X336668Y86239D01*
X335262Y84832D01*
X334501Y82995D01*
Y81005D01*
X335262Y79168D01*
X336668Y77761D01*
X337450Y77437D01*
Y76063D01*
X336668Y75739D01*
X335262Y74332D01*
X334501Y72495D01*
Y70505D01*
X335262Y68668D01*
X336668Y67261D01*
X337450Y66937D01*
Y65563D01*
X336668Y65239D01*
X335262Y63832D01*
X334501Y61995D01*
Y60005D01*
X335262Y58168D01*
X336668Y56761D01*
X338506Y56000D01*
X340495D01*
X342333Y56761D01*
X343739Y58168D01*
X344501Y60005D01*
Y61995D01*
X343739Y63832D01*
X342333Y65239D01*
X341551Y65563D01*
Y66937D01*
X342333Y67261D01*
X343739Y68668D01*
X344501Y70505D01*
Y72495D01*
X343739Y74332D01*
X342333Y75739D01*
X341551Y76063D01*
Y77437D01*
X342333Y77761D01*
X343739Y79168D01*
X344501Y81005D01*
Y82995D01*
X343739Y84832D01*
X342333Y86239D01*
X340495Y87000D01*
D02*
G37*
G36*
X233995Y65000D02*
X232005D01*
X230168Y64239D01*
X228761Y62832D01*
X228000Y60995D01*
Y59005D01*
X228761Y57168D01*
X230168Y55761D01*
X232005Y55000D01*
X233995D01*
X235832Y55761D01*
X237239Y57168D01*
X238000Y59005D01*
Y60995D01*
X237239Y62832D01*
X235832Y64239D01*
X233995Y65000D01*
D02*
G37*
G36*
X160995D02*
X159005D01*
X157168Y64239D01*
X155761Y62832D01*
X155000Y60995D01*
Y59005D01*
X155761Y57168D01*
X157168Y55761D01*
X159005Y55000D01*
X160995D01*
X162832Y55761D01*
X164239Y57168D01*
X165000Y59005D01*
Y60995D01*
X164239Y62832D01*
X162832Y64239D01*
X160995Y65000D01*
D02*
G37*
G36*
Y52000D02*
X159005D01*
X157168Y51239D01*
X155761Y49832D01*
X155000Y47995D01*
Y46005D01*
X155761Y44168D01*
X157168Y42761D01*
X159005Y42000D01*
X160995D01*
X162832Y42761D01*
X164239Y44168D01*
X165000Y46005D01*
Y47995D01*
X164239Y49832D01*
X162832Y51239D01*
X160995Y52000D01*
D02*
G37*
G36*
X248053Y58000D02*
X245947D01*
X243912Y57455D01*
X242088Y56402D01*
X240599Y54912D01*
X239545Y53088D01*
X239000Y51053D01*
Y48947D01*
X239545Y46912D01*
X240599Y45088D01*
X242088Y43598D01*
X243912Y42545D01*
X245947Y42000D01*
X248053D01*
X250088Y42545D01*
X251912Y43598D01*
X253402Y45088D01*
X254455Y46912D01*
X255000Y48947D01*
Y51053D01*
X254455Y53088D01*
X253402Y54912D01*
X251912Y56402D01*
X250088Y57455D01*
X248053Y58000D01*
D02*
G37*
G36*
X155495Y38000D02*
X153505D01*
X151668Y37239D01*
X150261Y35832D01*
X149500Y33995D01*
Y32005D01*
X150261Y30168D01*
X151668Y28761D01*
X153505Y28000D01*
X155495D01*
X157332Y28761D01*
X158739Y30168D01*
X159500Y32005D01*
Y33995D01*
X158739Y35832D01*
X157332Y37239D01*
X155495Y38000D01*
D02*
G37*
G36*
X467718Y36000D02*
X465729D01*
X463891Y35239D01*
X462485Y33832D01*
X461723Y31995D01*
Y30006D01*
X462485Y28168D01*
X463891Y26761D01*
X465729Y26000D01*
X467718D01*
X469556Y26761D01*
X470962Y28168D01*
X471723Y30006D01*
Y31995D01*
X470962Y33832D01*
X469556Y35239D01*
X467718Y36000D01*
D02*
G37*
G36*
X317718D02*
X315729D01*
X313891Y35239D01*
X312485Y33832D01*
X311723Y31995D01*
Y30006D01*
X312485Y28168D01*
X313891Y26761D01*
X315729Y26000D01*
X317718D01*
X319556Y26761D01*
X320962Y28168D01*
X321723Y30006D01*
Y31995D01*
X320962Y33832D01*
X319556Y35239D01*
X317718Y36000D01*
D02*
G37*
G36*
X267718D02*
X265729D01*
X263891Y35239D01*
X262485Y33832D01*
X261723Y31995D01*
Y30006D01*
X262485Y28168D01*
X263891Y26761D01*
X265729Y26000D01*
X267718D01*
X269556Y26761D01*
X270962Y28168D01*
X271723Y30006D01*
Y31995D01*
X270962Y33832D01*
X269556Y35239D01*
X267718Y36000D01*
D02*
G37*
G36*
X217718D02*
X215729D01*
X213891Y35239D01*
X212485Y33832D01*
X211723Y31995D01*
Y30006D01*
X212485Y28168D01*
X213891Y26761D01*
X215729Y26000D01*
X217718D01*
X219556Y26761D01*
X220962Y28168D01*
X221723Y30006D01*
Y31995D01*
X220962Y33832D01*
X219556Y35239D01*
X217718Y36000D01*
D02*
G37*
G36*
X167718D02*
X165729D01*
X163891Y35239D01*
X162485Y33832D01*
X161723Y31995D01*
Y30006D01*
X162485Y28168D01*
X163891Y26761D01*
X165729Y26000D01*
X167718D01*
X169556Y26761D01*
X170962Y28168D01*
X171723Y30006D01*
Y31995D01*
X170962Y33832D01*
X169556Y35239D01*
X167718Y36000D01*
D02*
G37*
G36*
X117718D02*
X115729D01*
X113891Y35239D01*
X112485Y33832D01*
X111723Y31995D01*
Y30006D01*
X112485Y28168D01*
X113891Y26761D01*
X115729Y26000D01*
X117718D01*
X119556Y26761D01*
X120962Y28168D01*
X121723Y30006D01*
Y31995D01*
X120962Y33832D01*
X119556Y35239D01*
X117718Y36000D01*
D02*
G37*
G36*
X17718D02*
X15729D01*
X13891Y35239D01*
X12485Y33832D01*
X11723Y31995D01*
Y30006D01*
X12485Y28168D01*
X13891Y26761D01*
X15729Y26000D01*
X17718D01*
X19556Y26761D01*
X20962Y28168D01*
X21723Y30006D01*
Y31995D01*
X20962Y33832D01*
X19556Y35239D01*
X17718Y36000D01*
D02*
G37*
G36*
X248053Y38000D02*
X245947D01*
X243912Y37455D01*
X242088Y36402D01*
X240598Y34912D01*
X239545Y33088D01*
X239000Y31053D01*
Y28947D01*
X239545Y26912D01*
X240598Y25088D01*
X242088Y23598D01*
X243912Y22545D01*
X245947Y22000D01*
X248053D01*
X250088Y22545D01*
X251912Y23598D01*
X253401Y25088D01*
X254455Y26912D01*
X255000Y28947D01*
Y31053D01*
X254455Y33088D01*
X253401Y34912D01*
X251912Y36402D01*
X250088Y37455D01*
X248053Y38000D01*
D02*
G37*
G36*
X411995Y31500D02*
X410005D01*
X408168Y30739D01*
X406761Y29332D01*
X406000Y27495D01*
Y25505D01*
X406761Y23668D01*
X408168Y22261D01*
X410005Y21500D01*
X411995D01*
X413832Y22261D01*
X415239Y23668D01*
X416000Y25505D01*
Y27495D01*
X415239Y29332D01*
X413832Y30739D01*
X411995Y31500D01*
D02*
G37*
G36*
X182995Y29000D02*
X181005D01*
X179168Y28239D01*
X177761Y26832D01*
X177000Y24995D01*
Y23005D01*
X177761Y21168D01*
X179168Y19761D01*
X181005Y19000D01*
X182995D01*
X184832Y19761D01*
X186239Y21168D01*
X187000Y23005D01*
Y24995D01*
X186239Y26832D01*
X184832Y28239D01*
X182995Y29000D01*
D02*
G37*
G36*
X65580Y36000D02*
X62421D01*
X59369Y35182D01*
X56632Y33603D01*
X54398Y31368D01*
X52818Y28632D01*
X52000Y25580D01*
Y22420D01*
X52818Y19368D01*
X54398Y16632D01*
X56632Y14398D01*
X59369Y12818D01*
X62421Y12000D01*
X65580D01*
X68632Y12818D01*
X71368Y14398D01*
X73603Y16632D01*
X75182Y19368D01*
X76000Y22420D01*
Y25580D01*
X75182Y28632D01*
X73603Y31368D01*
X71368Y33603D01*
X68632Y35182D01*
X65580Y36000D01*
D02*
G37*
G36*
X213095Y21000D02*
X211105D01*
X209268Y20239D01*
X207861Y18832D01*
X207100Y16995D01*
Y15005D01*
X207861Y13168D01*
X209268Y11761D01*
X211105Y11000D01*
X213095D01*
X214932Y11761D01*
X216339Y13168D01*
X217100Y15005D01*
Y16995D01*
X216339Y18832D01*
X214932Y20239D01*
X213095Y21000D01*
D02*
G37*
%LPD*%
D84*
X116723Y731000D02*
D03*
X91723Y281000D02*
D03*
X366723Y431000D02*
D03*
X41723Y181000D02*
D03*
X266723Y31000D02*
D03*
X491723Y181000D02*
D03*
X266723Y531000D02*
D03*
X91723Y481000D02*
D03*
X166723Y731000D02*
D03*
X91723Y381000D02*
D03*
X16723Y731000D02*
D03*
X191723Y781000D02*
D03*
X66723Y131000D02*
D03*
X41723Y481000D02*
D03*
X116723Y131000D02*
D03*
X441723Y81000D02*
D03*
X91723Y581000D02*
D03*
X41723Y381000D02*
D03*
X341723Y281000D02*
D03*
X241723Y581000D02*
D03*
X291723Y81000D02*
D03*
X366723Y731000D02*
D03*
X391723Y381000D02*
D03*
X116723Y31000D02*
D03*
X91723Y681000D02*
D03*
X16723Y231000D02*
D03*
X491723Y281000D02*
D03*
X216723Y131000D02*
D03*
X16723Y31000D02*
D03*
X466723Y131000D02*
D03*
X441723Y281000D02*
D03*
X266723Y331000D02*
D03*
Y231000D02*
D03*
X116723Y431000D02*
D03*
X366723Y531000D02*
D03*
X491723Y81000D02*
D03*
X466723Y231000D02*
D03*
X316723Y531000D02*
D03*
Y31000D02*
D03*
X116723Y231000D02*
D03*
X16723Y531000D02*
D03*
X466723Y31000D02*
D03*
X291723Y181000D02*
D03*
Y781000D02*
D03*
X341723Y681000D02*
D03*
X216723Y531000D02*
D03*
X141723Y681000D02*
D03*
X491723Y381000D02*
D03*
X41723Y681000D02*
D03*
X141723Y781000D02*
D03*
X491723D02*
D03*
X16723Y431000D02*
D03*
X341723Y781000D02*
D03*
X16723Y331000D02*
D03*
X116723Y531000D02*
D03*
X41723Y281000D02*
D03*
X491723Y581000D02*
D03*
X216723Y31000D02*
D03*
X266723Y431000D02*
D03*
X341723Y381000D02*
D03*
X491723Y481000D02*
D03*
X291723Y281000D02*
D03*
X266723Y131000D02*
D03*
X166723Y31000D02*
D03*
X141723Y581000D02*
D03*
X16723Y131000D02*
D03*
X66723Y331000D02*
D03*
X416723Y531000D02*
D03*
X441723Y181000D02*
D03*
X391723D02*
D03*
X91723Y781000D02*
D03*
X316723Y631000D02*
D03*
X66723Y531000D02*
D03*
X41723Y81000D02*
D03*
X366723Y331000D02*
D03*
X291723Y581000D02*
D03*
X41723D02*
D03*
X391723Y481000D02*
D03*
X41723Y781000D02*
D03*
X16723Y631000D02*
D03*
X466723Y331000D02*
D03*
X291723Y481000D02*
D03*
X241723Y781000D02*
D03*
X131500Y214000D02*
D03*
X154500Y187000D02*
D03*
Y133000D02*
D03*
X195900Y116000D02*
D03*
X212100D02*
D03*
X154500Y302000D02*
D03*
Y248000D02*
D03*
X195900Y231000D02*
D03*
X212100D02*
D03*
X154500Y417000D02*
D03*
X154500Y363000D02*
D03*
X195900Y346000D02*
D03*
X212100D02*
D03*
X154500Y532000D02*
D03*
X154500Y478000D02*
D03*
X195900Y461000D02*
D03*
X212100D02*
D03*
X278000Y321500D02*
D03*
X479000Y720000D02*
D03*
X489000Y712000D02*
D03*
X221000Y703000D02*
D03*
X243000Y704000D02*
D03*
X276000D02*
D03*
X265000D02*
D03*
X210000Y703000D02*
D03*
X199000D02*
D03*
X338000Y530400D02*
D03*
X430000Y285000D02*
D03*
X403485Y661485D02*
D03*
X406000Y648000D02*
D03*
X394000Y654000D02*
D03*
X145000Y640000D02*
D03*
X322000Y712100D02*
D03*
X281000Y363000D02*
D03*
X306000Y382000D02*
D03*
X168000Y548000D02*
D03*
X168000Y433000D02*
D03*
X168000Y103000D02*
D03*
X168000Y318000D02*
D03*
X168000Y203000D02*
D03*
X400000Y728000D02*
D03*
Y718000D02*
D03*
X410000D02*
D03*
X420000D02*
D03*
Y728000D02*
D03*
Y738000D02*
D03*
X410000D02*
D03*
X400000D02*
D03*
X322000Y788000D02*
D03*
Y756100D02*
D03*
Y771800D02*
D03*
X289000Y370000D02*
D03*
X311000Y336000D02*
D03*
X380000Y524100D02*
D03*
X182000Y469000D02*
D03*
X160000Y492000D02*
D03*
Y505000D02*
D03*
Y518000D02*
D03*
X233000Y505000D02*
D03*
X197000Y541000D02*
D03*
X182000Y354000D02*
D03*
X160000Y377000D02*
D03*
Y390000D02*
D03*
Y403000D02*
D03*
X233000Y390000D02*
D03*
X197000Y426000D02*
D03*
X182000Y239000D02*
D03*
X160000Y262000D02*
D03*
Y275000D02*
D03*
Y288000D02*
D03*
X233000Y275000D02*
D03*
X197000Y311000D02*
D03*
X182000Y124000D02*
D03*
X160000Y147000D02*
D03*
Y160000D02*
D03*
Y173000D02*
D03*
X233000Y160000D02*
D03*
X197000Y196000D02*
D03*
X197000Y96000D02*
D03*
X207000D02*
D03*
X233000Y60000D02*
D03*
X160000Y73000D02*
D03*
Y60000D02*
D03*
Y47000D02*
D03*
X182000Y24000D02*
D03*
X298000Y514000D02*
D03*
X442000Y659000D02*
D03*
X476500Y417000D02*
D03*
X438500Y417000D02*
D03*
X398500Y325200D02*
D03*
X340900Y345000D02*
D03*
X340900Y366000D02*
D03*
X310000Y293000D02*
D03*
X411000Y65500D02*
D03*
X339501Y82000D02*
D03*
Y61000D02*
D03*
Y71500D02*
D03*
X344500Y119000D02*
D03*
X319501Y119000D02*
D03*
X241500Y623000D02*
D03*
X222500D02*
D03*
X166500Y640000D02*
D03*
Y664000D02*
D03*
X254000Y704000D02*
D03*
X210000Y651100D02*
D03*
X231756Y650900D02*
D03*
X254000Y650900D02*
D03*
Y667100D02*
D03*
X210000Y666900D02*
D03*
X231756Y667100D02*
D03*
X139000Y716000D02*
D03*
Y704000D02*
D03*
Y806000D02*
D03*
Y794000D02*
D03*
X301000Y806000D02*
D03*
Y794000D02*
D03*
Y716000D02*
D03*
Y704000D02*
D03*
X322000Y695900D02*
D03*
X307000Y664000D02*
D03*
X306500Y640000D02*
D03*
X320000Y598000D02*
D03*
X345000Y566500D02*
D03*
X377000Y572000D02*
D03*
X385000Y576000D02*
D03*
Y568000D02*
D03*
X369000D02*
D03*
Y576000D02*
D03*
X386000Y607600D02*
D03*
Y623400D02*
D03*
X450000Y666000D02*
D03*
X362000Y690000D02*
D03*
X370000Y666000D02*
D03*
X378000Y690000D02*
D03*
X386000Y666000D02*
D03*
X418000D02*
D03*
X426000Y659000D02*
D03*
X458000D02*
D03*
X489000Y688000D02*
D03*
Y704000D02*
D03*
X482000Y696000D02*
D03*
X331000Y728000D02*
D03*
X338000Y704000D02*
D03*
Y736000D02*
D03*
X474000Y394500D02*
D03*
X448000Y394500D02*
D03*
X422000Y394500D02*
D03*
X133500Y332000D02*
D03*
X399500Y368000D02*
D03*
X357100Y366000D02*
D03*
X357100Y345000D02*
D03*
X310000Y228000D02*
D03*
X411000Y26500D02*
D03*
X332500Y180000D02*
D03*
X303000Y149000D02*
D03*
X303701Y119000D02*
D03*
X360300Y119000D02*
D03*
X125000Y640000D02*
D03*
X195900Y16000D02*
D03*
X154500Y33000D02*
D03*
Y87000D02*
D03*
X176000Y114000D02*
D03*
X189000Y210000D02*
D03*
X176000Y214000D02*
D03*
X189000Y325000D02*
D03*
X176000Y329000D02*
D03*
X212100Y16000D02*
D03*
X245500Y210000D02*
D03*
X245500Y325000D02*
D03*
X176000Y559000D02*
D03*
X176000Y444000D02*
D03*
X189000Y440000D02*
D03*
X209000Y543000D02*
D03*
X245500Y440000D02*
D03*
D87*
X247000Y130000D02*
D03*
X247000Y150000D02*
D03*
X247000Y170000D02*
D03*
Y190000D02*
D03*
X247000Y245000D02*
D03*
X247000Y265000D02*
D03*
X247000Y285000D02*
D03*
Y305000D02*
D03*
X247000Y360000D02*
D03*
X247000Y380000D02*
D03*
X247000Y400000D02*
D03*
Y420000D02*
D03*
X247000Y475000D02*
D03*
Y515000D02*
D03*
Y535000D02*
D03*
X247000Y495000D02*
D03*
X328000Y678000D02*
D03*
X488000Y673000D02*
D03*
X488000Y734000D02*
D03*
X488000Y754000D02*
D03*
X247000Y30000D02*
D03*
X247000Y50000D02*
D03*
X247000Y70000D02*
D03*
Y90000D02*
D03*
D88*
X436000Y319300D02*
D03*
Y332000D02*
D03*
Y344700D02*
D03*
Y357400D02*
D03*
D96*
X258556Y804620D02*
D03*
X190556D02*
D03*
D97*
X64000Y24000D02*
D03*
Y202750D02*
D03*
Y381501D02*
D03*
Y560250D02*
D03*
Y739000D02*
D03*
D98*
Y103000D02*
D03*
Y281750D02*
D03*
Y460500D02*
D03*
Y639250D02*
D03*
Y818000D02*
D03*
D99*
X439250Y486250D02*
D03*
X425750Y477750D02*
D03*
X439250D02*
D03*
X425750Y486250D02*
D03*
X439250Y494750D02*
D03*
X425750Y469250D02*
D03*
X439250Y460750D02*
D03*
Y503250D02*
D03*
X425750D02*
D03*
Y460750D02*
D03*
X439250Y452250D02*
D03*
Y511750D02*
D03*
X425750D02*
D03*
Y452250D02*
D03*
X439250Y469250D02*
D03*
X425750Y494750D02*
D03*
D101*
X435550Y525250D02*
D03*
Y438750D02*
D03*
D102*
X469350Y525250D02*
D03*
Y438750D02*
D03*
D103*
X196000Y390000D02*
D03*
X206000Y380000D02*
D03*
X196000D02*
D03*
X186000D02*
D03*
X206000Y390000D02*
D03*
Y400000D02*
D03*
X196000D02*
D03*
X186000D02*
D03*
Y390000D02*
D03*
X186000Y275000D02*
D03*
Y285000D02*
D03*
X196000D02*
D03*
X206000D02*
D03*
Y275000D02*
D03*
X186000Y265000D02*
D03*
X196000D02*
D03*
X206000D02*
D03*
X196000Y275000D02*
D03*
X186000Y160000D02*
D03*
Y170000D02*
D03*
X196000D02*
D03*
X206000D02*
D03*
Y160000D02*
D03*
X186000Y150000D02*
D03*
X196000D02*
D03*
X206000D02*
D03*
X196000Y160000D02*
D03*
X186000Y60000D02*
D03*
Y70000D02*
D03*
X196000D02*
D03*
X206000D02*
D03*
Y60000D02*
D03*
X186000Y50000D02*
D03*
X196000D02*
D03*
X206000D02*
D03*
X196000Y60000D02*
D03*
X196000Y505000D02*
D03*
X206000Y495000D02*
D03*
X196000D02*
D03*
X186000D02*
D03*
X206000Y505000D02*
D03*
Y515000D02*
D03*
X196000D02*
D03*
X186000D02*
D03*
Y505000D02*
D03*
D104*
X462000Y623400D02*
D03*
Y572600D02*
D03*
X411200Y623400D02*
D03*
Y598000D02*
D03*
D105*
Y572600D02*
D03*
D107*
X193500Y555500D02*
D03*
X128500D02*
D03*
X193500Y600500D02*
D03*
X128500D02*
D03*
X291500Y555500D02*
D03*
X226500D02*
D03*
X291500Y600500D02*
D03*
X226500D02*
D03*
D108*
X349000Y416000D02*
D03*
Y466000D02*
D03*
M02*
