G04*
G04 #@! TF.GenerationSoftware,Altium Limited,Altium Designer,25.3.3 (18)*
G04*
G04 Layer_Color=16711935*
%FSLAX44Y44*%
%MOMM*%
G71*
G04*
G04 #@! TF.SameCoordinates,E74E417C-EFC3-4B03-BFDF-08B39AB8E956*
G04*
G04*
G04 #@! TF.FilePolarity,Negative*
G04*
G01*
G75*
%ADD77C,1.0500*%
%ADD78C,2.1000*%
%ADD79R,2.1000X2.1000*%
%ADD80C,0.7500*%
%ADD81R,0.7500X0.7500*%
%ADD82O,2.5000X1.0000*%
%ADD83O,1.8000X1.0000*%
%ADD84C,0.6000*%
%ADD85C,1.7350*%
%ADD86R,1.7350X1.7350*%
%ADD87C,1.2000*%
%ADD88C,1.0000*%
%ADD89R,1.6080X1.6080*%
%ADD90C,1.6080*%
%ADD91C,1.3800*%
D77*
X258556Y804620D02*
D03*
X190556D02*
D03*
D78*
X64000Y24000D02*
D03*
Y202750D02*
D03*
Y381501D02*
D03*
Y560250D02*
D03*
Y739000D02*
D03*
D79*
Y103000D02*
D03*
Y281750D02*
D03*
Y460500D02*
D03*
Y639250D02*
D03*
Y818000D02*
D03*
D80*
X439250Y486250D02*
D03*
X425750Y477750D02*
D03*
X439250D02*
D03*
X425750Y486250D02*
D03*
X439250Y494750D02*
D03*
X425750Y469250D02*
D03*
X439250Y460750D02*
D03*
Y503250D02*
D03*
X425750D02*
D03*
Y460750D02*
D03*
X439250Y452250D02*
D03*
Y511750D02*
D03*
X425750D02*
D03*
X439250Y469250D02*
D03*
X425750Y494750D02*
D03*
D81*
Y452250D02*
D03*
D82*
X435550Y525250D02*
D03*
Y438750D02*
D03*
D83*
X469350Y525250D02*
D03*
Y438750D02*
D03*
D84*
X196000Y390000D02*
D03*
X206000Y380000D02*
D03*
X196000D02*
D03*
X186000D02*
D03*
X206000Y390000D02*
D03*
Y400000D02*
D03*
X196000D02*
D03*
X186000D02*
D03*
Y390000D02*
D03*
X186000Y275000D02*
D03*
Y285000D02*
D03*
X196000D02*
D03*
X206000D02*
D03*
Y275000D02*
D03*
X186000Y265000D02*
D03*
X196000D02*
D03*
X206000D02*
D03*
X196000Y275000D02*
D03*
X186000Y160000D02*
D03*
Y170000D02*
D03*
X196000D02*
D03*
X206000D02*
D03*
Y160000D02*
D03*
X186000Y150000D02*
D03*
X196000D02*
D03*
X206000D02*
D03*
X196000Y160000D02*
D03*
X186000Y60000D02*
D03*
Y70000D02*
D03*
X196000D02*
D03*
X206000D02*
D03*
Y60000D02*
D03*
X186000Y50000D02*
D03*
X196000D02*
D03*
X206000D02*
D03*
X196000Y60000D02*
D03*
X196000Y505000D02*
D03*
X206000Y495000D02*
D03*
X196000D02*
D03*
X186000D02*
D03*
X206000Y505000D02*
D03*
Y515000D02*
D03*
X196000D02*
D03*
X186000D02*
D03*
Y505000D02*
D03*
D85*
X462000Y623400D02*
D03*
Y572600D02*
D03*
X411200Y623400D02*
D03*
Y598000D02*
D03*
D86*
Y572600D02*
D03*
D87*
X247000Y130000D02*
D03*
X247000Y150000D02*
D03*
X247000Y170000D02*
D03*
Y190000D02*
D03*
X247000Y245000D02*
D03*
X247000Y265000D02*
D03*
X247000Y285000D02*
D03*
Y305000D02*
D03*
X247000Y360000D02*
D03*
X247000Y380000D02*
D03*
X247000Y400000D02*
D03*
Y420000D02*
D03*
X247000Y475000D02*
D03*
Y515000D02*
D03*
Y535000D02*
D03*
X247000Y495000D02*
D03*
X328000Y678000D02*
D03*
X488000Y673000D02*
D03*
X488000Y734000D02*
D03*
X488000Y754000D02*
D03*
X247000Y30000D02*
D03*
X247000Y50000D02*
D03*
X247000Y70000D02*
D03*
Y90000D02*
D03*
D88*
X436000Y319300D02*
D03*
Y332000D02*
D03*
Y344700D02*
D03*
Y357400D02*
D03*
D89*
X193500Y555500D02*
D03*
X226500Y600500D02*
D03*
D90*
X128500Y555500D02*
D03*
X193500Y600500D02*
D03*
X128500D02*
D03*
X291500Y555500D02*
D03*
X226500D02*
D03*
X291500Y600500D02*
D03*
D91*
X349000Y416000D02*
D03*
Y466000D02*
D03*
M02*
