G04*
G04 #@! TF.GenerationSoftware,Altium Limited,Altium Designer,25.3.3 (18)*
G04*
G04 Layer_Color=8388736*
%FSLAX44Y44*%
%MOMM*%
G71*
G04*
G04 #@! TF.SameCoordinates,E74E417C-EFC3-4B03-BFDF-08B39AB8E956*
G04*
G04*
G04 #@! TF.FilePolarity,Negative*
G04*
G01*
G75*
%ADD47R,1.1200X1.5700*%
%ADD48R,1.5500X1.5500*%
%ADD49R,0.8000X0.8000*%
%ADD50R,0.5000X0.9000*%
%ADD51R,0.9000X0.5000*%
%ADD52R,0.7200X1.5000*%
%ADD53R,1.2000X2.5000*%
%ADD54R,1.6000X3.5000*%
%ADD55R,1.1000X3.6000*%
%ADD56R,0.7000X0.4000*%
%ADD57R,0.4000X0.7000*%
%ADD58R,1.1500X1.5000*%
%ADD59R,1.5500X1.0500*%
%ADD60R,1.1000X0.9000*%
%ADD61R,1.1000X1.5500*%
%ADD62R,1.5500X1.1000*%
%ADD63R,3.3500X3.3500*%
G04:AMPARAMS|DCode=64|XSize=0.91mm|YSize=0.42mm|CornerRadius=0.09mm|HoleSize=0mm|Usage=FLASHONLY|Rotation=0.000|XOffset=0mm|YOffset=0mm|HoleType=Round|Shape=RoundedRectangle|*
%AMROUNDEDRECTD64*
21,1,0.9100,0.2400,0,0,0.0*
21,1,0.7300,0.4200,0,0,0.0*
1,1,0.1800,0.3650,-0.1200*
1,1,0.1800,-0.3650,-0.1200*
1,1,0.1800,-0.3650,0.1200*
1,1,0.1800,0.3650,0.1200*
%
%ADD64ROUNDEDRECTD64*%
G04:AMPARAMS|DCode=65|XSize=0.91mm|YSize=0.42mm|CornerRadius=0.09mm|HoleSize=0mm|Usage=FLASHONLY|Rotation=90.000|XOffset=0mm|YOffset=0mm|HoleType=Round|Shape=RoundedRectangle|*
%AMROUNDEDRECTD65*
21,1,0.9100,0.2400,0,0,90.0*
21,1,0.7300,0.4200,0,0,90.0*
1,1,0.1800,0.1200,0.3650*
1,1,0.1800,0.1200,-0.3650*
1,1,0.1800,-0.1200,-0.3650*
1,1,0.1800,-0.1200,0.3650*
%
%ADD65ROUNDEDRECTD65*%
%ADD66R,1.5700X1.1200*%
%ADD67R,1.0500X1.5500*%
%ADD68R,0.9000X1.1000*%
%ADD69R,1.2500X1.2500*%
G04:AMPARAMS|DCode=70|XSize=1.36mm|YSize=0.71mm|CornerRadius=0.2025mm|HoleSize=0mm|Usage=FLASHONLY|Rotation=90.000|XOffset=0mm|YOffset=0mm|HoleType=Round|Shape=RoundedRectangle|*
%AMROUNDEDRECTD70*
21,1,1.3600,0.3050,0,0,90.0*
21,1,0.9550,0.7100,0,0,90.0*
1,1,0.4050,0.1525,0.4775*
1,1,0.4050,0.1525,-0.4775*
1,1,0.4050,-0.1525,-0.4775*
1,1,0.4050,-0.1525,0.4775*
%
%ADD70ROUNDEDRECTD70*%
%ADD71R,1.4900X1.0600*%
%ADD72R,0.4500X0.9000*%
%ADD73R,2.6000X1.8500*%
%ADD74R,1.2500X0.7000*%
%ADD75R,0.6500X1.2100*%
%ADD76R,1.5000X0.7000*%
%ADD77C,1.0500*%
%ADD78C,2.1000*%
%ADD79R,2.1000X2.1000*%
%ADD80C,0.7500*%
%ADD81R,0.7500X0.7500*%
%ADD82O,2.5000X1.0000*%
%ADD83O,1.8000X1.0000*%
%ADD84C,0.6000*%
%ADD85C,1.7350*%
%ADD86R,1.7350X1.7350*%
%ADD87C,1.2000*%
%ADD88C,1.0000*%
%ADD89R,1.6080X1.6080*%
%ADD90C,1.6080*%
%ADD91C,1.3800*%
D47*
X319701Y119000D02*
D03*
X303501D02*
D03*
X344300D02*
D03*
X360500D02*
D03*
X357100Y366000D02*
D03*
X340900D02*
D03*
X357100Y345000D02*
D03*
X340900D02*
D03*
X212100Y116000D02*
D03*
X195900D02*
D03*
X212100Y231000D02*
D03*
X195900D02*
D03*
X212100Y346000D02*
D03*
X195900D02*
D03*
X212100Y461000D02*
D03*
X195900D02*
D03*
X212100Y16000D02*
D03*
X195900D02*
D03*
D48*
X390250Y747750D02*
D03*
X410000D02*
D03*
X429750D02*
D03*
Y728000D02*
D03*
Y708250D02*
D03*
X410000D02*
D03*
X390250D02*
D03*
Y728000D02*
D03*
X410000D02*
D03*
D49*
X350500Y777500D02*
D03*
Y678500D02*
D03*
X469500D02*
D03*
Y777500D02*
D03*
D50*
X362000Y777000D02*
D03*
X370000D02*
D03*
X378000D02*
D03*
X386000D02*
D03*
X394000D02*
D03*
X402000D02*
D03*
X410000D02*
D03*
X418000D02*
D03*
X426000D02*
D03*
X434000D02*
D03*
X442000D02*
D03*
X450000D02*
D03*
X458000D02*
D03*
Y679000D02*
D03*
X450000D02*
D03*
X442000D02*
D03*
X434000D02*
D03*
X426000D02*
D03*
X418000D02*
D03*
X410000D02*
D03*
X402000D02*
D03*
X394000D02*
D03*
X386000D02*
D03*
X378000D02*
D03*
X370000D02*
D03*
X362000D02*
D03*
D51*
X469000Y768000D02*
D03*
Y760000D02*
D03*
Y752000D02*
D03*
Y744000D02*
D03*
Y736000D02*
D03*
Y728000D02*
D03*
Y720000D02*
D03*
Y712000D02*
D03*
Y704000D02*
D03*
Y696000D02*
D03*
Y688000D02*
D03*
X351000D02*
D03*
Y696000D02*
D03*
Y704000D02*
D03*
Y712000D02*
D03*
Y720000D02*
D03*
Y728000D02*
D03*
Y736000D02*
D03*
Y744000D02*
D03*
Y752000D02*
D03*
Y760000D02*
D03*
Y768000D02*
D03*
D52*
X253756Y690420D02*
D03*
X231756D02*
D03*
X209756D02*
D03*
X286756D02*
D03*
X242756D02*
D03*
X220756D02*
D03*
X264756D02*
D03*
X275756D02*
D03*
X198756D02*
D03*
D53*
X300556Y800420D02*
D03*
Y710420D02*
D03*
X139056D02*
D03*
Y800420D02*
D03*
D54*
X363000Y16000D02*
D03*
X296000D02*
D03*
D55*
X339501Y71500D02*
D03*
X319501D02*
D03*
D56*
X323000Y363000D02*
D03*
Y358000D02*
D03*
Y353000D02*
D03*
X299000D02*
D03*
Y358000D02*
D03*
Y363000D02*
D03*
D57*
X321000Y346000D02*
D03*
X316000D02*
D03*
X311000D02*
D03*
X306000D02*
D03*
X301000D02*
D03*
Y370000D02*
D03*
X306000D02*
D03*
X311000D02*
D03*
X316000D02*
D03*
X321000D02*
D03*
D58*
X131500Y214000D02*
D03*
X150500D02*
D03*
X332500Y180000D02*
D03*
X351500D02*
D03*
X152500Y332000D02*
D03*
X133500D02*
D03*
D59*
X310000Y228000D02*
D03*
Y248000D02*
D03*
X320000Y598000D02*
D03*
Y618000D02*
D03*
D60*
X310000Y273000D02*
D03*
Y293000D02*
D03*
D61*
X476500Y417000D02*
D03*
X457500D02*
D03*
X438500Y417000D02*
D03*
X419500D02*
D03*
X380500Y368000D02*
D03*
X399500D02*
D03*
X135500Y187000D02*
D03*
X154500D02*
D03*
X135500Y133000D02*
D03*
X154500D02*
D03*
X135500Y302000D02*
D03*
X154500D02*
D03*
X135500Y248000D02*
D03*
X154500D02*
D03*
X154500Y417000D02*
D03*
X135500D02*
D03*
X154500Y363000D02*
D03*
X135500D02*
D03*
X135500Y532000D02*
D03*
X154500D02*
D03*
Y478000D02*
D03*
X135500D02*
D03*
X245500Y440000D02*
D03*
X226500D02*
D03*
X226500Y325000D02*
D03*
X245500D02*
D03*
X245500Y210000D02*
D03*
X226500D02*
D03*
X306500Y640000D02*
D03*
X287500D02*
D03*
X241500Y623000D02*
D03*
X260500D02*
D03*
X166500Y664000D02*
D03*
X185500D02*
D03*
X222500Y623000D02*
D03*
X203500D02*
D03*
X166500Y640000D02*
D03*
X185500D02*
D03*
X154500Y33000D02*
D03*
X135500D02*
D03*
X154500Y87000D02*
D03*
X135500D02*
D03*
D62*
X474000Y375500D02*
D03*
Y394500D02*
D03*
X448000Y375500D02*
D03*
Y394500D02*
D03*
X422000Y375500D02*
D03*
Y394500D02*
D03*
X411000Y26500D02*
D03*
Y45500D02*
D03*
Y84500D02*
D03*
Y65500D02*
D03*
X278000Y340500D02*
D03*
Y321500D02*
D03*
X379500Y304500D02*
D03*
Y285500D02*
D03*
X345000Y585500D02*
D03*
Y566500D02*
D03*
D63*
X196000Y390000D02*
D03*
X196000Y275000D02*
D03*
X196000Y160000D02*
D03*
X196000Y60000D02*
D03*
X196000Y505000D02*
D03*
D64*
X220500Y403000D02*
D03*
Y396500D02*
D03*
Y390000D02*
D03*
Y383500D02*
D03*
Y377000D02*
D03*
X171500D02*
D03*
Y383500D02*
D03*
Y390000D02*
D03*
Y396500D02*
D03*
Y403000D02*
D03*
X171500Y288000D02*
D03*
Y281500D02*
D03*
Y275000D02*
D03*
Y268500D02*
D03*
Y262000D02*
D03*
X220500D02*
D03*
Y268500D02*
D03*
Y275000D02*
D03*
Y281500D02*
D03*
Y288000D02*
D03*
X171500Y173000D02*
D03*
Y166500D02*
D03*
Y160000D02*
D03*
Y153500D02*
D03*
Y147000D02*
D03*
X220500D02*
D03*
Y153500D02*
D03*
Y160000D02*
D03*
Y166500D02*
D03*
Y173000D02*
D03*
X171500Y73000D02*
D03*
Y66500D02*
D03*
Y60000D02*
D03*
Y53500D02*
D03*
Y47000D02*
D03*
X220500D02*
D03*
Y53500D02*
D03*
Y60000D02*
D03*
Y66500D02*
D03*
Y73000D02*
D03*
X220500Y518000D02*
D03*
Y511500D02*
D03*
Y505000D02*
D03*
Y498500D02*
D03*
Y492000D02*
D03*
X171500D02*
D03*
Y498500D02*
D03*
Y505000D02*
D03*
Y511500D02*
D03*
Y518000D02*
D03*
D65*
X183000Y414500D02*
D03*
X189500D02*
D03*
X196000D02*
D03*
X202500D02*
D03*
X209000D02*
D03*
Y365500D02*
D03*
X202500D02*
D03*
X196000D02*
D03*
X189500D02*
D03*
X183000D02*
D03*
X183000Y250500D02*
D03*
X189500D02*
D03*
X196000D02*
D03*
X202500D02*
D03*
X209000D02*
D03*
Y299500D02*
D03*
X202500D02*
D03*
X196000D02*
D03*
X189500D02*
D03*
X183000D02*
D03*
X183000Y135500D02*
D03*
X189500D02*
D03*
X196000D02*
D03*
X202500D02*
D03*
X209000D02*
D03*
Y184500D02*
D03*
X202500D02*
D03*
X196000D02*
D03*
X189500D02*
D03*
X183000D02*
D03*
X183000Y35500D02*
D03*
X189500D02*
D03*
X196000D02*
D03*
X202500D02*
D03*
X209000D02*
D03*
Y84500D02*
D03*
X202500D02*
D03*
X196000D02*
D03*
X189500D02*
D03*
X183000D02*
D03*
X183000Y529500D02*
D03*
X189500D02*
D03*
X196000D02*
D03*
X202500D02*
D03*
X209000D02*
D03*
Y480500D02*
D03*
X202500D02*
D03*
X196000D02*
D03*
X189500D02*
D03*
X183000D02*
D03*
D66*
X322000Y712100D02*
D03*
Y695900D02*
D03*
X138000Y168100D02*
D03*
Y151900D02*
D03*
X138000Y266900D02*
D03*
Y283100D02*
D03*
X138000Y398100D02*
D03*
Y381900D02*
D03*
X138000Y513100D02*
D03*
Y496900D02*
D03*
X322000Y756100D02*
D03*
Y739900D02*
D03*
Y788000D02*
D03*
Y771800D02*
D03*
X254000Y650900D02*
D03*
Y667100D02*
D03*
X231756Y667100D02*
D03*
Y650900D02*
D03*
X138000Y68100D02*
D03*
Y51900D02*
D03*
D67*
X189000Y210000D02*
D03*
X209000D02*
D03*
X209000Y325000D02*
D03*
X189000D02*
D03*
X189000Y440000D02*
D03*
X209000D02*
D03*
X387000Y141000D02*
D03*
X367000D02*
D03*
X125000Y640000D02*
D03*
X145000D02*
D03*
X318000Y514000D02*
D03*
X298000D02*
D03*
X286756Y664000D02*
D03*
X306756D02*
D03*
D68*
X377000Y171000D02*
D03*
X397000D02*
D03*
D69*
X359000Y612250D02*
D03*
Y635750D02*
D03*
D70*
X389000Y344800D02*
D03*
X398500Y325200D02*
D03*
X379500D02*
D03*
D71*
X386000Y607600D02*
D03*
Y623400D02*
D03*
X380000Y524100D02*
D03*
Y539900D02*
D03*
X210000Y666900D02*
D03*
Y651100D02*
D03*
D72*
X386750Y587000D02*
D03*
X380250D02*
D03*
X386750Y557000D02*
D03*
X380250D02*
D03*
X367250D02*
D03*
X373750Y587000D02*
D03*
X367250D02*
D03*
X373750Y557000D02*
D03*
D73*
X377000Y572000D02*
D03*
D74*
X338000Y530400D02*
D03*
X360000Y540000D02*
D03*
Y520800D02*
D03*
D75*
X403000Y513600D02*
D03*
Y536400D02*
D03*
D76*
X344500Y158500D02*
D03*
Y139500D02*
D03*
X319500D02*
D03*
Y149000D02*
D03*
Y158500D02*
D03*
D77*
X258556Y804620D02*
D03*
X190556D02*
D03*
D78*
X64000Y24000D02*
D03*
Y202750D02*
D03*
Y381501D02*
D03*
Y560250D02*
D03*
Y739000D02*
D03*
D79*
Y103000D02*
D03*
Y281750D02*
D03*
Y460500D02*
D03*
Y639250D02*
D03*
Y818000D02*
D03*
D80*
X439250Y486250D02*
D03*
X425750Y477750D02*
D03*
X439250D02*
D03*
X425750Y486250D02*
D03*
X439250Y494750D02*
D03*
X425750Y469250D02*
D03*
X439250Y460750D02*
D03*
Y503250D02*
D03*
X425750D02*
D03*
Y460750D02*
D03*
X439250Y452250D02*
D03*
Y511750D02*
D03*
X425750D02*
D03*
X439250Y469250D02*
D03*
X425750Y494750D02*
D03*
D81*
Y452250D02*
D03*
D82*
X435550Y525250D02*
D03*
Y438750D02*
D03*
D83*
X469350Y525250D02*
D03*
Y438750D02*
D03*
D84*
X196000Y390000D02*
D03*
X206000Y380000D02*
D03*
X196000D02*
D03*
X186000D02*
D03*
X206000Y390000D02*
D03*
Y400000D02*
D03*
X196000D02*
D03*
X186000D02*
D03*
Y390000D02*
D03*
X186000Y275000D02*
D03*
Y285000D02*
D03*
X196000D02*
D03*
X206000D02*
D03*
Y275000D02*
D03*
X186000Y265000D02*
D03*
X196000D02*
D03*
X206000D02*
D03*
X196000Y275000D02*
D03*
X186000Y160000D02*
D03*
Y170000D02*
D03*
X196000D02*
D03*
X206000D02*
D03*
Y160000D02*
D03*
X186000Y150000D02*
D03*
X196000D02*
D03*
X206000D02*
D03*
X196000Y160000D02*
D03*
X186000Y60000D02*
D03*
Y70000D02*
D03*
X196000D02*
D03*
X206000D02*
D03*
Y60000D02*
D03*
X186000Y50000D02*
D03*
X196000D02*
D03*
X206000D02*
D03*
X196000Y60000D02*
D03*
X196000Y505000D02*
D03*
X206000Y495000D02*
D03*
X196000D02*
D03*
X186000D02*
D03*
X206000Y505000D02*
D03*
Y515000D02*
D03*
X196000D02*
D03*
X186000D02*
D03*
Y505000D02*
D03*
D85*
X462000Y623400D02*
D03*
Y572600D02*
D03*
X411200Y623400D02*
D03*
Y598000D02*
D03*
D86*
Y572600D02*
D03*
D87*
X247000Y130000D02*
D03*
X247000Y150000D02*
D03*
X247000Y170000D02*
D03*
Y190000D02*
D03*
X247000Y245000D02*
D03*
X247000Y265000D02*
D03*
X247000Y285000D02*
D03*
Y305000D02*
D03*
X247000Y360000D02*
D03*
X247000Y380000D02*
D03*
X247000Y400000D02*
D03*
Y420000D02*
D03*
X247000Y475000D02*
D03*
Y515000D02*
D03*
Y535000D02*
D03*
X247000Y495000D02*
D03*
X328000Y678000D02*
D03*
X488000Y673000D02*
D03*
X488000Y734000D02*
D03*
X488000Y754000D02*
D03*
X247000Y30000D02*
D03*
X247000Y50000D02*
D03*
X247000Y70000D02*
D03*
Y90000D02*
D03*
D88*
X436000Y319300D02*
D03*
Y332000D02*
D03*
Y344700D02*
D03*
Y357400D02*
D03*
D89*
X193500Y555500D02*
D03*
X226500Y600500D02*
D03*
D90*
X128500Y555500D02*
D03*
X193500Y600500D02*
D03*
X128500D02*
D03*
X291500Y555500D02*
D03*
X226500D02*
D03*
X291500Y600500D02*
D03*
D91*
X349000Y416000D02*
D03*
Y466000D02*
D03*
M02*
