G04*
G04 #@! TF.GenerationSoftware,Altium Limited,Altium Designer,25.3.3 (18)*
G04*
G04 Layer_Color=39423*
%FSLAX44Y44*%
%MOMM*%
G71*
G04*
G04 #@! TF.SameCoordinates,E74E417C-EFC3-4B03-BFDF-08B39AB8E956*
G04*
G04*
G04 #@! TF.FilePolarity,Positive*
G04*
G01*
G75*
%ADD17C,0.2540*%
G36*
X451200Y62232D02*
X453216D01*
Y61245D01*
X451397D01*
X451891Y58820D01*
X453216D01*
Y57833D01*
X452102D01*
X452666Y55000D01*
X451679D01*
X451101Y57833D01*
X449015D01*
X449593Y55000D01*
X448592D01*
X448028Y57833D01*
X445956D01*
Y58820D01*
X447817D01*
X447323Y61245D01*
X445956D01*
Y62232D01*
X447126D01*
X446534Y65093D01*
X447535D01*
X448127Y62232D01*
X450199D01*
X449621Y65093D01*
X450608D01*
X451200Y62232D01*
D02*
G37*
G36*
X419806Y64938D02*
X420186Y64868D01*
X420511Y64755D01*
X420793Y64642D01*
X420919Y64572D01*
X421018Y64516D01*
X421117Y64459D01*
X421187Y64403D01*
X421244Y64360D01*
X421286Y64332D01*
X421314Y64318D01*
X421328Y64304D01*
X421596Y64036D01*
X421808Y63740D01*
X421977Y63430D01*
X422118Y63120D01*
X422202Y62852D01*
X422245Y62739D01*
X422273Y62641D01*
X422287Y62556D01*
X422301Y62500D01*
X422315Y62457D01*
Y62443D01*
X421117Y62232D01*
X421060Y62542D01*
X420976Y62810D01*
X420877Y63035D01*
X420779Y63218D01*
X420680Y63359D01*
X420595Y63458D01*
X420539Y63529D01*
X420525Y63543D01*
X420341Y63684D01*
X420144Y63797D01*
X419961Y63867D01*
X419778Y63923D01*
X419608Y63952D01*
X419482Y63980D01*
X419369D01*
X419115Y63966D01*
X418890Y63909D01*
X418692Y63839D01*
X418523Y63768D01*
X418396Y63684D01*
X418297Y63613D01*
X418227Y63557D01*
X418213Y63543D01*
X418058Y63374D01*
X417945Y63190D01*
X417874Y63007D01*
X417818Y62838D01*
X417790Y62683D01*
X417762Y62570D01*
Y62485D01*
Y62471D01*
Y62457D01*
Y62302D01*
X417790Y62161D01*
X417860Y61922D01*
X417959Y61710D01*
X418072Y61527D01*
X418185Y61400D01*
X418283Y61301D01*
X418354Y61245D01*
X418368Y61231D01*
X418382D01*
X418622Y61104D01*
X418847Y61005D01*
X419087Y60935D01*
X419298Y60893D01*
X419482Y60864D01*
X419637Y60836D01*
X419820D01*
X419876Y60850D01*
X419947D01*
X420088Y59793D01*
X419905Y59835D01*
X419735Y59864D01*
X419594Y59892D01*
X419468Y59906D01*
X419369Y59920D01*
X419242D01*
X418946Y59892D01*
X418678Y59835D01*
X418438Y59751D01*
X418241Y59652D01*
X418086Y59553D01*
X417973Y59469D01*
X417903Y59412D01*
X417874Y59384D01*
X417691Y59173D01*
X417550Y58947D01*
X417452Y58722D01*
X417395Y58496D01*
X417353Y58313D01*
X417339Y58158D01*
X417325Y58101D01*
Y58059D01*
Y58031D01*
Y58017D01*
X417353Y57707D01*
X417423Y57425D01*
X417508Y57185D01*
X417621Y56974D01*
X417733Y56804D01*
X417818Y56677D01*
X417889Y56593D01*
X417917Y56565D01*
X418142Y56367D01*
X418382Y56226D01*
X418622Y56128D01*
X418847Y56057D01*
X419045Y56015D01*
X419200Y56001D01*
X419256Y55987D01*
X419341D01*
X419594Y56001D01*
X419834Y56057D01*
X420045Y56128D01*
X420215Y56212D01*
X420356Y56283D01*
X420468Y56353D01*
X420525Y56410D01*
X420553Y56424D01*
X420722Y56621D01*
X420863Y56847D01*
X420990Y57086D01*
X421089Y57340D01*
X421159Y57551D01*
X421187Y57650D01*
X421201Y57735D01*
X421216Y57805D01*
X421230Y57862D01*
X421244Y57890D01*
Y57904D01*
X422442Y57749D01*
X422414Y57523D01*
X422371Y57312D01*
X422245Y56917D01*
X422090Y56579D01*
X422005Y56438D01*
X421920Y56297D01*
X421836Y56170D01*
X421751Y56071D01*
X421681Y55973D01*
X421610Y55902D01*
X421568Y55846D01*
X421526Y55803D01*
X421497Y55775D01*
X421483Y55761D01*
X421314Y55634D01*
X421145Y55507D01*
X420976Y55409D01*
X420793Y55324D01*
X420440Y55183D01*
X420102Y55099D01*
X419947Y55071D01*
X419806Y55042D01*
X419679Y55028D01*
X419566Y55014D01*
X419482Y55000D01*
X419355D01*
X419087Y55014D01*
X418847Y55042D01*
X418607Y55085D01*
X418382Y55141D01*
X418171Y55211D01*
X417987Y55282D01*
X417804Y55367D01*
X417649Y55451D01*
X417494Y55522D01*
X417367Y55606D01*
X417254Y55677D01*
X417170Y55747D01*
X417099Y55803D01*
X417043Y55846D01*
X417015Y55874D01*
X417001Y55888D01*
X416831Y56057D01*
X416690Y56241D01*
X416563Y56424D01*
X416451Y56607D01*
X416366Y56776D01*
X416282Y56960D01*
X416169Y57298D01*
X416141Y57453D01*
X416112Y57594D01*
X416084Y57721D01*
X416070Y57833D01*
X416056Y57918D01*
Y57989D01*
Y58031D01*
Y58045D01*
X416070Y58383D01*
X416127Y58693D01*
X416211Y58961D01*
X416296Y59187D01*
X416380Y59370D01*
X416465Y59511D01*
X416521Y59596D01*
X416535Y59624D01*
X416733Y59835D01*
X416944Y60019D01*
X417170Y60160D01*
X417395Y60272D01*
X417593Y60357D01*
X417748Y60413D01*
X417804Y60427D01*
X417846Y60441D01*
X417874Y60455D01*
X417889D01*
X417649Y60582D01*
X417452Y60709D01*
X417282Y60850D01*
X417141Y60977D01*
X417029Y61090D01*
X416944Y61189D01*
X416902Y61245D01*
X416888Y61273D01*
X416775Y61470D01*
X416690Y61668D01*
X416620Y61865D01*
X416578Y62049D01*
X416549Y62204D01*
X416535Y62316D01*
Y62401D01*
Y62429D01*
X416549Y62669D01*
X416592Y62908D01*
X416648Y63120D01*
X416718Y63303D01*
X416789Y63458D01*
X416845Y63585D01*
X416888Y63656D01*
X416902Y63684D01*
X417043Y63895D01*
X417212Y64078D01*
X417381Y64233D01*
X417550Y64374D01*
X417691Y64473D01*
X417818Y64558D01*
X417903Y64600D01*
X417917Y64614D01*
X417931D01*
X418185Y64727D01*
X418438Y64812D01*
X418692Y64882D01*
X418918Y64924D01*
X419101Y64953D01*
X419256Y64967D01*
X419608D01*
X419806Y64938D01*
D02*
G37*
G36*
X412222D02*
X412602Y64868D01*
X412926Y64755D01*
X413208Y64642D01*
X413335Y64572D01*
X413434Y64516D01*
X413533Y64459D01*
X413603Y64403D01*
X413660Y64360D01*
X413702Y64332D01*
X413730Y64318D01*
X413744Y64304D01*
X414012Y64036D01*
X414223Y63740D01*
X414393Y63430D01*
X414534Y63120D01*
X414618Y62852D01*
X414660Y62739D01*
X414689Y62641D01*
X414703Y62556D01*
X414717Y62500D01*
X414731Y62457D01*
Y62443D01*
X413533Y62232D01*
X413476Y62542D01*
X413392Y62810D01*
X413293Y63035D01*
X413194Y63218D01*
X413096Y63359D01*
X413011Y63458D01*
X412955Y63529D01*
X412941Y63543D01*
X412757Y63684D01*
X412560Y63797D01*
X412377Y63867D01*
X412193Y63923D01*
X412024Y63952D01*
X411897Y63980D01*
X411785D01*
X411531Y63966D01*
X411305Y63909D01*
X411108Y63839D01*
X410939Y63768D01*
X410812Y63684D01*
X410713Y63613D01*
X410643Y63557D01*
X410629Y63543D01*
X410474Y63374D01*
X410361Y63190D01*
X410290Y63007D01*
X410234Y62838D01*
X410206Y62683D01*
X410177Y62570D01*
Y62485D01*
Y62471D01*
Y62457D01*
Y62302D01*
X410206Y62161D01*
X410276Y61922D01*
X410375Y61710D01*
X410488Y61527D01*
X410600Y61400D01*
X410699Y61301D01*
X410770Y61245D01*
X410784Y61231D01*
X410798D01*
X411037Y61104D01*
X411263Y61005D01*
X411503Y60935D01*
X411714Y60893D01*
X411897Y60864D01*
X412052Y60836D01*
X412236D01*
X412292Y60850D01*
X412363D01*
X412504Y59793D01*
X412320Y59835D01*
X412151Y59864D01*
X412010Y59892D01*
X411883Y59906D01*
X411785Y59920D01*
X411658D01*
X411362Y59892D01*
X411094Y59835D01*
X410854Y59751D01*
X410657Y59652D01*
X410502Y59553D01*
X410389Y59469D01*
X410318Y59412D01*
X410290Y59384D01*
X410107Y59173D01*
X409966Y58947D01*
X409867Y58722D01*
X409811Y58496D01*
X409769Y58313D01*
X409755Y58158D01*
X409740Y58101D01*
Y58059D01*
Y58031D01*
Y58017D01*
X409769Y57707D01*
X409839Y57425D01*
X409924Y57185D01*
X410037Y56974D01*
X410149Y56804D01*
X410234Y56677D01*
X410304Y56593D01*
X410333Y56565D01*
X410558Y56367D01*
X410798Y56226D01*
X411037Y56128D01*
X411263Y56057D01*
X411460Y56015D01*
X411615Y56001D01*
X411672Y55987D01*
X411756D01*
X412010Y56001D01*
X412250Y56057D01*
X412461Y56128D01*
X412630Y56212D01*
X412771Y56283D01*
X412884Y56353D01*
X412941Y56410D01*
X412969Y56424D01*
X413138Y56621D01*
X413279Y56847D01*
X413406Y57086D01*
X413504Y57340D01*
X413575Y57551D01*
X413603Y57650D01*
X413617Y57735D01*
X413631Y57805D01*
X413645Y57862D01*
X413660Y57890D01*
Y57904D01*
X414858Y57749D01*
X414829Y57523D01*
X414787Y57312D01*
X414660Y56917D01*
X414505Y56579D01*
X414421Y56438D01*
X414336Y56297D01*
X414252Y56170D01*
X414167Y56071D01*
X414096Y55973D01*
X414026Y55902D01*
X413984Y55846D01*
X413941Y55803D01*
X413913Y55775D01*
X413899Y55761D01*
X413730Y55634D01*
X413561Y55507D01*
X413392Y55409D01*
X413208Y55324D01*
X412856Y55183D01*
X412518Y55099D01*
X412363Y55071D01*
X412222Y55042D01*
X412095Y55028D01*
X411982Y55014D01*
X411897Y55000D01*
X411771D01*
X411503Y55014D01*
X411263Y55042D01*
X411023Y55085D01*
X410798Y55141D01*
X410586Y55211D01*
X410403Y55282D01*
X410220Y55367D01*
X410065Y55451D01*
X409910Y55522D01*
X409783Y55606D01*
X409670Y55677D01*
X409585Y55747D01*
X409515Y55803D01*
X409459Y55846D01*
X409430Y55874D01*
X409416Y55888D01*
X409247Y56057D01*
X409106Y56241D01*
X408979Y56424D01*
X408867Y56607D01*
X408782Y56776D01*
X408697Y56960D01*
X408585Y57298D01*
X408556Y57453D01*
X408528Y57594D01*
X408500Y57721D01*
X408486Y57833D01*
X408472Y57918D01*
Y57989D01*
Y58031D01*
Y58045D01*
X408486Y58383D01*
X408542Y58693D01*
X408627Y58961D01*
X408712Y59187D01*
X408796Y59370D01*
X408881Y59511D01*
X408937Y59596D01*
X408951Y59624D01*
X409148Y59835D01*
X409360Y60019D01*
X409585Y60160D01*
X409811Y60272D01*
X410008Y60357D01*
X410163Y60413D01*
X410220Y60427D01*
X410262Y60441D01*
X410290Y60455D01*
X410304D01*
X410065Y60582D01*
X409867Y60709D01*
X409698Y60850D01*
X409557Y60977D01*
X409445Y61090D01*
X409360Y61189D01*
X409318Y61245D01*
X409304Y61273D01*
X409191Y61470D01*
X409106Y61668D01*
X409036Y61865D01*
X408993Y62049D01*
X408965Y62204D01*
X408951Y62316D01*
Y62401D01*
Y62429D01*
X408965Y62669D01*
X409007Y62908D01*
X409064Y63120D01*
X409134Y63303D01*
X409205Y63458D01*
X409261Y63585D01*
X409304Y63656D01*
X409318Y63684D01*
X409459Y63895D01*
X409628Y64078D01*
X409797Y64233D01*
X409966Y64374D01*
X410107Y64473D01*
X410234Y64558D01*
X410318Y64600D01*
X410333Y64614D01*
X410347D01*
X410600Y64727D01*
X410854Y64812D01*
X411108Y64882D01*
X411334Y64924D01*
X411517Y64953D01*
X411672Y64967D01*
X412024D01*
X412222Y64938D01*
D02*
G37*
G36*
X434650Y64953D02*
X434890Y64938D01*
X435115Y64896D01*
X435327Y64854D01*
X435524Y64797D01*
X435707Y64741D01*
X435876Y64671D01*
X436031Y64600D01*
X436172Y64530D01*
X436285Y64459D01*
X436384Y64403D01*
X436468Y64346D01*
X436539Y64304D01*
X436581Y64262D01*
X436609Y64248D01*
X436623Y64233D01*
X436764Y64093D01*
X436891Y63938D01*
X437018Y63768D01*
X437117Y63599D01*
X437286Y63261D01*
X437399Y62923D01*
X437441Y62767D01*
X437483Y62612D01*
X437512Y62485D01*
X437540Y62373D01*
X437554Y62274D01*
Y62204D01*
X437568Y62161D01*
Y62147D01*
X436342Y62020D01*
X436313Y62344D01*
X436257Y62627D01*
X436172Y62880D01*
X436074Y63078D01*
X435989Y63247D01*
X435905Y63359D01*
X435848Y63430D01*
X435820Y63458D01*
X435608Y63627D01*
X435383Y63754D01*
X435143Y63853D01*
X434932Y63909D01*
X434734Y63952D01*
X434565Y63966D01*
X434509Y63980D01*
X434424D01*
X434128Y63966D01*
X433861Y63909D01*
X433635Y63825D01*
X433438Y63740D01*
X433283Y63642D01*
X433184Y63571D01*
X433113Y63515D01*
X433085Y63486D01*
X432916Y63289D01*
X432789Y63092D01*
X432690Y62894D01*
X432634Y62697D01*
X432592Y62542D01*
X432578Y62401D01*
X432564Y62316D01*
Y62302D01*
Y62288D01*
X432592Y62034D01*
X432648Y61767D01*
X432747Y61527D01*
X432845Y61301D01*
X432958Y61118D01*
X433057Y60963D01*
X433085Y60907D01*
X433113Y60864D01*
X433142Y60850D01*
Y60836D01*
X433254Y60681D01*
X433395Y60526D01*
X433550Y60357D01*
X433719Y60188D01*
X434072Y59849D01*
X434424Y59511D01*
X434608Y59356D01*
X434763Y59215D01*
X434918Y59088D01*
X435045Y58975D01*
X435143Y58891D01*
X435228Y58820D01*
X435284Y58778D01*
X435298Y58764D01*
X435651Y58468D01*
X435975Y58186D01*
X436243Y57932D01*
X436454Y57721D01*
X436638Y57537D01*
X436764Y57411D01*
X436835Y57326D01*
X436863Y57312D01*
Y57298D01*
X437061Y57058D01*
X437216Y56833D01*
X437357Y56607D01*
X437469Y56410D01*
X437554Y56241D01*
X437610Y56114D01*
X437639Y56029D01*
X437653Y56015D01*
Y56001D01*
X437709Y55846D01*
X437737Y55705D01*
X437765Y55564D01*
X437780Y55437D01*
X437794Y55324D01*
Y55240D01*
Y55183D01*
Y55169D01*
X431323D01*
Y56325D01*
X436130D01*
X435961Y56565D01*
X435876Y56663D01*
X435806Y56762D01*
X435735Y56847D01*
X435679Y56903D01*
X435637Y56945D01*
X435623Y56960D01*
X435552Y57030D01*
X435468Y57100D01*
X435270Y57284D01*
X435045Y57495D01*
X434805Y57707D01*
X434579Y57890D01*
X434481Y57975D01*
X434396Y58059D01*
X434326Y58115D01*
X434269Y58158D01*
X434241Y58186D01*
X434227Y58200D01*
X434002Y58397D01*
X433776Y58581D01*
X433579Y58764D01*
X433395Y58919D01*
X433226Y59074D01*
X433085Y59215D01*
X432944Y59342D01*
X432831Y59455D01*
X432719Y59567D01*
X432634Y59652D01*
X432564Y59722D01*
X432493Y59793D01*
X432423Y59878D01*
X432394Y59906D01*
X432197Y60145D01*
X432028Y60357D01*
X431887Y60568D01*
X431774Y60738D01*
X431690Y60893D01*
X431633Y61005D01*
X431605Y61076D01*
X431591Y61104D01*
X431506Y61315D01*
X431450Y61527D01*
X431394Y61724D01*
X431365Y61893D01*
X431351Y62049D01*
X431337Y62161D01*
Y62232D01*
Y62260D01*
X431351Y62471D01*
X431379Y62669D01*
X431408Y62866D01*
X431464Y63035D01*
X431605Y63374D01*
X431746Y63642D01*
X431830Y63768D01*
X431901Y63867D01*
X431972Y63966D01*
X432042Y64036D01*
X432098Y64093D01*
X432127Y64149D01*
X432155Y64163D01*
X432169Y64177D01*
X432324Y64318D01*
X432493Y64445D01*
X432676Y64544D01*
X432860Y64628D01*
X433226Y64769D01*
X433593Y64868D01*
X433748Y64896D01*
X433903Y64924D01*
X434044Y64938D01*
X434156Y64953D01*
X434255Y64967D01*
X434396D01*
X434650Y64953D01*
D02*
G37*
G36*
X426446Y64727D02*
X426600Y64501D01*
X426784Y64276D01*
X426953Y64078D01*
X427122Y63909D01*
X427249Y63768D01*
X427305Y63726D01*
X427348Y63684D01*
X427362Y63670D01*
X427376Y63656D01*
X427672Y63416D01*
X427968Y63190D01*
X428250Y62993D01*
X428532Y62838D01*
X428772Y62697D01*
X428870Y62641D01*
X428955Y62598D01*
X429025Y62556D01*
X429082Y62542D01*
X429110Y62514D01*
X429124D01*
Y61358D01*
X428913Y61442D01*
X428701Y61541D01*
X428489Y61640D01*
X428292Y61738D01*
X428123Y61823D01*
X427982Y61893D01*
X427897Y61950D01*
X427883Y61964D01*
X427869D01*
X427616Y62119D01*
X427390Y62274D01*
X427193Y62415D01*
X427038Y62542D01*
X426897Y62641D01*
X426812Y62725D01*
X426741Y62782D01*
X426727Y62796D01*
Y55169D01*
X425529D01*
Y64967D01*
X426305D01*
X426446Y64727D01*
D02*
G37*
G36*
X384324Y59779D02*
X383196Y59624D01*
X383097Y59779D01*
X382970Y59906D01*
X382858Y60033D01*
X382745Y60131D01*
X382632Y60202D01*
X382547Y60272D01*
X382491Y60300D01*
X382477Y60315D01*
X382294Y60399D01*
X382110Y60470D01*
X381941Y60512D01*
X381772Y60554D01*
X381631Y60568D01*
X381518Y60582D01*
X381250D01*
X381081Y60554D01*
X380785Y60484D01*
X380532Y60385D01*
X380306Y60286D01*
X380137Y60174D01*
X380010Y60075D01*
X379939Y60004D01*
X379911Y59990D01*
Y59976D01*
X379714Y59737D01*
X379573Y59483D01*
X379474Y59215D01*
X379404Y58947D01*
X379361Y58722D01*
X379347Y58623D01*
Y58538D01*
X379333Y58468D01*
Y58411D01*
Y58383D01*
Y58369D01*
Y58172D01*
X379361Y57989D01*
X379432Y57636D01*
X379531Y57340D01*
X379629Y57100D01*
X379742Y56903D01*
X379841Y56748D01*
X379883Y56706D01*
X379911Y56663D01*
X379925Y56649D01*
X379939Y56635D01*
X380052Y56522D01*
X380165Y56424D01*
X380419Y56255D01*
X380658Y56142D01*
X380898Y56071D01*
X381095Y56015D01*
X381265Y56001D01*
X381321Y55987D01*
X381406D01*
X381673Y56001D01*
X381913Y56057D01*
X382124Y56128D01*
X382294Y56212D01*
X382449Y56297D01*
X382561Y56367D01*
X382618Y56424D01*
X382646Y56438D01*
X382815Y56635D01*
X382956Y56847D01*
X383069Y57086D01*
X383154Y57298D01*
X383210Y57509D01*
X383252Y57664D01*
X383266Y57735D01*
X383280Y57777D01*
Y57805D01*
Y57819D01*
X384535Y57721D01*
X384507Y57495D01*
X384465Y57284D01*
X384338Y56889D01*
X384183Y56551D01*
X384098Y56396D01*
X384013Y56269D01*
X383943Y56142D01*
X383858Y56029D01*
X383788Y55944D01*
X383717Y55874D01*
X383661Y55818D01*
X383633Y55761D01*
X383605Y55747D01*
X383591Y55733D01*
X383421Y55606D01*
X383252Y55493D01*
X383069Y55395D01*
X382886Y55310D01*
X382533Y55183D01*
X382181Y55099D01*
X382026Y55056D01*
X381871Y55042D01*
X381744Y55028D01*
X381631Y55014D01*
X381532Y55000D01*
X381406D01*
X381110Y55014D01*
X380828Y55056D01*
X380560Y55113D01*
X380320Y55183D01*
X380094Y55282D01*
X379883Y55381D01*
X379686Y55479D01*
X379517Y55592D01*
X379361Y55705D01*
X379221Y55803D01*
X379108Y55916D01*
X379009Y56001D01*
X378939Y56071D01*
X378882Y56128D01*
X378854Y56170D01*
X378840Y56184D01*
X378699Y56367D01*
X378586Y56565D01*
X378473Y56748D01*
X378389Y56945D01*
X378248Y57326D01*
X378163Y57692D01*
X378135Y57848D01*
X378107Y58003D01*
X378093Y58130D01*
X378079Y58242D01*
X378065Y58341D01*
Y58411D01*
Y58454D01*
Y58468D01*
X378079Y58722D01*
X378107Y58961D01*
X378149Y59201D01*
X378205Y59412D01*
X378276Y59610D01*
X378346Y59807D01*
X378431Y59976D01*
X378502Y60131D01*
X378586Y60272D01*
X378671Y60399D01*
X378741Y60498D01*
X378812Y60596D01*
X378868Y60667D01*
X378910Y60709D01*
X378939Y60738D01*
X378953Y60752D01*
X379122Y60907D01*
X379291Y61048D01*
X379474Y61160D01*
X379658Y61259D01*
X379841Y61358D01*
X380024Y61428D01*
X380362Y61527D01*
X380518Y61569D01*
X380658Y61597D01*
X380785Y61611D01*
X380898Y61626D01*
X380983Y61640D01*
X381293D01*
X381462Y61611D01*
X381800Y61541D01*
X382110Y61442D01*
X382392Y61329D01*
X382618Y61217D01*
X382717Y61160D01*
X382801Y61118D01*
X382872Y61076D01*
X382914Y61048D01*
X382942Y61034D01*
X382956Y61019D01*
X382435Y63656D01*
X378530D01*
Y64797D01*
X383379D01*
X384324Y59779D01*
D02*
G37*
G36*
X444546Y60878D02*
X443179D01*
Y62246D01*
X444546D01*
Y60878D01*
D02*
G37*
G36*
X396884Y64953D02*
X397110Y64924D01*
X397335Y64882D01*
X397533Y64826D01*
X397913Y64671D01*
X398082Y64600D01*
X398223Y64516D01*
X398364Y64417D01*
X398477Y64346D01*
X398590Y64262D01*
X398674Y64191D01*
X398745Y64135D01*
X398787Y64093D01*
X398815Y64064D01*
X398829Y64050D01*
X398984Y63881D01*
X399111Y63684D01*
X399238Y63500D01*
X399337Y63303D01*
X399422Y63092D01*
X399492Y62894D01*
X399591Y62528D01*
X399633Y62344D01*
X399661Y62189D01*
X399675Y62034D01*
X399689Y61908D01*
X399703Y61809D01*
Y61738D01*
Y61682D01*
Y61668D01*
X399689Y61400D01*
X399661Y61160D01*
X399633Y60921D01*
X399577Y60695D01*
X399506Y60498D01*
X399436Y60300D01*
X399365Y60131D01*
X399281Y59976D01*
X399210Y59835D01*
X399140Y59708D01*
X399069Y59610D01*
X398999Y59511D01*
X398942Y59440D01*
X398914Y59398D01*
X398886Y59370D01*
X398872Y59356D01*
X398717Y59201D01*
X398548Y59074D01*
X398378Y58947D01*
X398195Y58849D01*
X398026Y58764D01*
X397857Y58693D01*
X397533Y58595D01*
X397392Y58552D01*
X397251Y58524D01*
X397138Y58510D01*
X397025Y58496D01*
X396940Y58482D01*
X396828D01*
X396560Y58496D01*
X396306Y58538D01*
X396081Y58595D01*
X395869Y58665D01*
X395714Y58722D01*
X395587Y58778D01*
X395503Y58820D01*
X395474Y58834D01*
X395249Y58975D01*
X395051Y59130D01*
X394882Y59285D01*
X394741Y59426D01*
X394643Y59567D01*
X394558Y59666D01*
X394502Y59737D01*
X394488Y59765D01*
Y59652D01*
Y59581D01*
Y59539D01*
Y59525D01*
X394502Y59243D01*
X394516Y58975D01*
X394544Y58736D01*
X394572Y58510D01*
X394614Y58327D01*
X394643Y58186D01*
X394657Y58130D01*
Y58087D01*
X394671Y58073D01*
Y58059D01*
X394741Y57805D01*
X394812Y57580D01*
X394882Y57382D01*
X394953Y57213D01*
X395009Y57086D01*
X395066Y56988D01*
X395094Y56917D01*
X395108Y56903D01*
X395221Y56748D01*
X395333Y56621D01*
X395446Y56508D01*
X395559Y56410D01*
X395644Y56325D01*
X395728Y56269D01*
X395784Y56241D01*
X395799Y56226D01*
X395954Y56142D01*
X396123Y56086D01*
X396278Y56043D01*
X396433Y56015D01*
X396560Y56001D01*
X396659Y55987D01*
X396757D01*
X396983Y56001D01*
X397194Y56043D01*
X397378Y56100D01*
X397533Y56170D01*
X397645Y56226D01*
X397744Y56283D01*
X397800Y56325D01*
X397814Y56339D01*
X397955Y56494D01*
X398068Y56677D01*
X398167Y56875D01*
X398237Y57072D01*
X398294Y57241D01*
X398336Y57396D01*
X398350Y57453D01*
Y57481D01*
X398364Y57509D01*
Y57523D01*
X399520Y57425D01*
X399436Y57016D01*
X399323Y56663D01*
X399182Y56353D01*
X399041Y56100D01*
X398900Y55902D01*
X398829Y55818D01*
X398773Y55747D01*
X398731Y55705D01*
X398689Y55663D01*
X398674Y55648D01*
X398660Y55634D01*
X398519Y55522D01*
X398364Y55423D01*
X398054Y55268D01*
X397744Y55155D01*
X397448Y55085D01*
X397180Y55028D01*
X397067Y55014D01*
X396969D01*
X396898Y55000D01*
X396785D01*
X396391Y55028D01*
X396038Y55085D01*
X395714Y55183D01*
X395446Y55296D01*
X395333Y55338D01*
X395221Y55395D01*
X395136Y55451D01*
X395051Y55493D01*
X394995Y55522D01*
X394953Y55550D01*
X394925Y55578D01*
X394911D01*
X394628Y55818D01*
X394375Y56086D01*
X394177Y56367D01*
X394008Y56635D01*
X393867Y56875D01*
X393811Y56988D01*
X393769Y57072D01*
X393740Y57157D01*
X393712Y57213D01*
X393698Y57241D01*
Y57256D01*
X393628Y57467D01*
X393557Y57707D01*
X393459Y58186D01*
X393388Y58693D01*
X393346Y59173D01*
X393317Y59384D01*
X393303Y59596D01*
Y59779D01*
X393289Y59934D01*
Y60061D01*
Y60160D01*
Y60230D01*
Y60244D01*
Y60568D01*
X393303Y60878D01*
X393332Y61160D01*
X393360Y61428D01*
X393388Y61668D01*
X393416Y61893D01*
X393459Y62105D01*
X393501Y62288D01*
X393543Y62443D01*
X393571Y62584D01*
X393614Y62711D01*
X393642Y62810D01*
X393670Y62880D01*
X393698Y62937D01*
X393712Y62965D01*
Y62979D01*
X393881Y63317D01*
X394065Y63613D01*
X394276Y63867D01*
X394459Y64078D01*
X394643Y64233D01*
X394784Y64346D01*
X394840Y64389D01*
X394882Y64417D01*
X394896Y64445D01*
X394911D01*
X395206Y64614D01*
X395503Y64741D01*
X395799Y64840D01*
X396066Y64896D01*
X396306Y64938D01*
X396405Y64953D01*
X396475D01*
X396546Y64967D01*
X396644D01*
X396884Y64953D01*
D02*
G37*
G36*
X471203Y63768D02*
X467989D01*
Y55169D01*
X466692D01*
Y63768D01*
X463478D01*
Y64924D01*
X471203D01*
Y63768D01*
D02*
G37*
G36*
X462139Y55169D02*
X458629D01*
X458305Y55183D01*
X458009Y55197D01*
X457741Y55226D01*
X457515Y55254D01*
X457318Y55282D01*
X457177Y55296D01*
X457135Y55310D01*
X457092Y55324D01*
X457064D01*
X456810Y55395D01*
X456585Y55479D01*
X456387Y55550D01*
X456218Y55634D01*
X456077Y55705D01*
X455979Y55761D01*
X455922Y55803D01*
X455894Y55818D01*
X455711Y55944D01*
X455556Y56100D01*
X455401Y56241D01*
X455274Y56382D01*
X455161Y56508D01*
X455076Y56607D01*
X455020Y56677D01*
X455006Y56706D01*
X454865Y56931D01*
X454724Y57171D01*
X454611Y57396D01*
X454527Y57622D01*
X454442Y57819D01*
X454386Y57975D01*
X454372Y58031D01*
X454357Y58073D01*
X454343Y58101D01*
Y58115D01*
X454259Y58454D01*
X454188Y58792D01*
X454146Y59116D01*
X454104Y59426D01*
X454090Y59694D01*
Y59807D01*
X454076Y59906D01*
Y59976D01*
Y60047D01*
Y60075D01*
Y60089D01*
X454090Y60568D01*
X454132Y61005D01*
X454202Y61400D01*
X454231Y61583D01*
X454273Y61738D01*
X454315Y61893D01*
X454343Y62020D01*
X454372Y62133D01*
X454414Y62232D01*
X454428Y62316D01*
X454456Y62373D01*
X454470Y62401D01*
Y62415D01*
X454625Y62782D01*
X454809Y63106D01*
X455006Y63388D01*
X455189Y63627D01*
X455358Y63825D01*
X455499Y63966D01*
X455556Y64008D01*
X455598Y64050D01*
X455612Y64064D01*
X455626Y64078D01*
X455852Y64262D01*
X456091Y64403D01*
X456331Y64530D01*
X456557Y64628D01*
X456754Y64699D01*
X456909Y64741D01*
X456965Y64769D01*
X457008D01*
X457036Y64783D01*
X457050D01*
X457290Y64826D01*
X457572Y64868D01*
X457854Y64896D01*
X458135Y64910D01*
X458389Y64924D01*
X462139D01*
Y55169D01*
D02*
G37*
G36*
X444546D02*
X443179D01*
Y56537D01*
X444546D01*
Y55169D01*
D02*
G37*
G36*
X407203Y63642D02*
X402424D01*
X402762Y63233D01*
X403087Y62796D01*
X403369Y62373D01*
X403637Y61964D01*
X403749Y61781D01*
X403848Y61611D01*
X403947Y61456D01*
X404017Y61329D01*
X404073Y61217D01*
X404116Y61146D01*
X404144Y61090D01*
X404158Y61076D01*
X404440Y60512D01*
X404694Y59948D01*
X404905Y59412D01*
X404990Y59173D01*
X405074Y58933D01*
X405159Y58722D01*
X405215Y58524D01*
X405272Y58355D01*
X405314Y58214D01*
X405356Y58087D01*
X405385Y58003D01*
X405399Y57946D01*
Y57932D01*
X405540Y57354D01*
X405596Y57072D01*
X405638Y56818D01*
X405681Y56579D01*
X405723Y56339D01*
X405751Y56142D01*
X405779Y55944D01*
X405793Y55775D01*
X405807Y55620D01*
X405822Y55479D01*
Y55367D01*
X405836Y55282D01*
Y55226D01*
Y55183D01*
Y55169D01*
X404609D01*
X404567Y55705D01*
X404496Y56198D01*
X404426Y56649D01*
X404384Y56861D01*
X404341Y57058D01*
X404313Y57227D01*
X404271Y57382D01*
X404243Y57523D01*
X404215Y57636D01*
X404186Y57721D01*
X404172Y57791D01*
X404158Y57833D01*
Y57848D01*
X403947Y58496D01*
X403721Y59102D01*
X403608Y59398D01*
X403496Y59680D01*
X403369Y59934D01*
X403256Y60188D01*
X403157Y60413D01*
X403059Y60611D01*
X402974Y60780D01*
X402904Y60935D01*
X402833Y61062D01*
X402791Y61146D01*
X402762Y61203D01*
X402748Y61217D01*
X402579Y61513D01*
X402410Y61809D01*
X402241Y62077D01*
X402072Y62330D01*
X401917Y62556D01*
X401762Y62782D01*
X401607Y62979D01*
X401480Y63148D01*
X401353Y63317D01*
X401240Y63458D01*
X401127Y63571D01*
X401043Y63670D01*
X400986Y63754D01*
X400930Y63811D01*
X400902Y63839D01*
X400888Y63853D01*
Y64797D01*
X407203D01*
Y63642D01*
D02*
G37*
G36*
X476574Y65079D02*
X476899Y65037D01*
X477209Y64981D01*
X477477Y64924D01*
X477688Y64868D01*
X477787Y64840D01*
X477857Y64812D01*
X477914Y64783D01*
X477956Y64769D01*
X477984Y64755D01*
X477998D01*
X478280Y64614D01*
X478534Y64459D01*
X478745Y64290D01*
X478914Y64135D01*
X479041Y63994D01*
X479140Y63881D01*
X479211Y63797D01*
X479225Y63782D01*
Y63768D01*
X479366Y63529D01*
X479464Y63289D01*
X479535Y63049D01*
X479577Y62838D01*
X479605Y62655D01*
X479633Y62514D01*
Y62457D01*
Y62415D01*
Y62401D01*
Y62387D01*
X479619Y62147D01*
X479577Y61922D01*
X479521Y61710D01*
X479464Y61527D01*
X479408Y61386D01*
X479352Y61273D01*
X479309Y61203D01*
X479295Y61175D01*
X479154Y60977D01*
X478985Y60794D01*
X478816Y60639D01*
X478647Y60512D01*
X478506Y60399D01*
X478379Y60329D01*
X478294Y60272D01*
X478280Y60258D01*
X478266D01*
X478153Y60202D01*
X478026Y60145D01*
X477744Y60047D01*
X477420Y59948D01*
X477110Y59849D01*
X476828Y59765D01*
X476701Y59737D01*
X476589Y59708D01*
X476504Y59680D01*
X476433Y59666D01*
X476391Y59652D01*
X476377D01*
X476137Y59596D01*
X475912Y59539D01*
X475714Y59483D01*
X475545Y59440D01*
X475376Y59398D01*
X475235Y59356D01*
X475108Y59328D01*
X475010Y59285D01*
X474911Y59257D01*
X474841Y59243D01*
X474728Y59201D01*
X474657Y59187D01*
X474643Y59173D01*
X474432Y59088D01*
X474248Y58989D01*
X474093Y58891D01*
X473981Y58806D01*
X473882Y58722D01*
X473825Y58665D01*
X473783Y58623D01*
X473769Y58609D01*
X473670Y58482D01*
X473600Y58341D01*
X473558Y58200D01*
X473515Y58087D01*
X473501Y57975D01*
X473487Y57890D01*
Y57819D01*
Y57805D01*
X473501Y57636D01*
X473530Y57481D01*
X473572Y57340D01*
X473628Y57227D01*
X473685Y57115D01*
X473727Y57044D01*
X473755Y56988D01*
X473769Y56974D01*
X473882Y56833D01*
X474023Y56720D01*
X474164Y56621D01*
X474291Y56522D01*
X474418Y56466D01*
X474516Y56410D01*
X474587Y56382D01*
X474615Y56367D01*
X474826Y56297D01*
X475052Y56241D01*
X475277Y56212D01*
X475475Y56184D01*
X475644Y56170D01*
X475785Y56156D01*
X475912D01*
X476222Y56170D01*
X476504Y56198D01*
X476758Y56241D01*
X476983Y56297D01*
X477166Y56353D01*
X477308Y56396D01*
X477350Y56410D01*
X477392Y56424D01*
X477406Y56438D01*
X477420D01*
X477646Y56551D01*
X477857Y56677D01*
X478012Y56804D01*
X478153Y56931D01*
X478266Y57030D01*
X478336Y57129D01*
X478379Y57185D01*
X478393Y57199D01*
X478492Y57382D01*
X478590Y57580D01*
X478647Y57791D01*
X478703Y57975D01*
X478745Y58158D01*
X478773Y58285D01*
Y58341D01*
X478788Y58383D01*
Y58397D01*
Y58411D01*
X480000Y58299D01*
X479972Y57946D01*
X479915Y57608D01*
X479831Y57312D01*
X479732Y57044D01*
X479633Y56833D01*
X479591Y56748D01*
X479563Y56677D01*
X479521Y56621D01*
X479507Y56579D01*
X479478Y56551D01*
Y56537D01*
X479267Y56269D01*
X479041Y56029D01*
X478802Y55832D01*
X478576Y55663D01*
X478379Y55536D01*
X478210Y55451D01*
X478153Y55423D01*
X478111Y55395D01*
X478083Y55381D01*
X478069D01*
X477716Y55254D01*
X477350Y55155D01*
X476983Y55099D01*
X476631Y55042D01*
X476462Y55028D01*
X476321Y55014D01*
X476194D01*
X476081Y55000D01*
X475855D01*
X475475Y55014D01*
X475122Y55056D01*
X474798Y55127D01*
X474530Y55197D01*
X474305Y55254D01*
X474206Y55296D01*
X474122Y55324D01*
X474065Y55352D01*
X474023Y55367D01*
X473995Y55381D01*
X473981D01*
X473685Y55536D01*
X473431Y55705D01*
X473205Y55888D01*
X473022Y56057D01*
X472881Y56198D01*
X472782Y56325D01*
X472712Y56410D01*
X472698Y56424D01*
Y56438D01*
X472543Y56706D01*
X472430Y56960D01*
X472359Y57199D01*
X472303Y57425D01*
X472275Y57622D01*
X472247Y57777D01*
Y57833D01*
Y57876D01*
Y57890D01*
Y57904D01*
X472261Y58186D01*
X472303Y58454D01*
X472374Y58693D01*
X472444Y58891D01*
X472529Y59060D01*
X472585Y59187D01*
X472641Y59257D01*
X472655Y59285D01*
X472825Y59497D01*
X473022Y59694D01*
X473233Y59864D01*
X473445Y60019D01*
X473628Y60131D01*
X473783Y60216D01*
X473840Y60244D01*
X473882Y60272D01*
X473910Y60286D01*
X473924D01*
X474037Y60343D01*
X474178Y60385D01*
X474333Y60441D01*
X474502Y60498D01*
X474855Y60596D01*
X475221Y60695D01*
X475390Y60738D01*
X475545Y60780D01*
X475700Y60822D01*
X475827Y60850D01*
X475926Y60878D01*
X476011Y60893D01*
X476067Y60907D01*
X476081D01*
X476363Y60977D01*
X476617Y61034D01*
X476842Y61104D01*
X477040Y61160D01*
X477223Y61231D01*
X477378Y61287D01*
X477519Y61344D01*
X477646Y61386D01*
X477744Y61442D01*
X477829Y61485D01*
X477885Y61513D01*
X477942Y61555D01*
X478012Y61597D01*
X478026Y61611D01*
X478153Y61753D01*
X478238Y61893D01*
X478308Y62034D01*
X478351Y62175D01*
X478379Y62288D01*
X478393Y62387D01*
Y62443D01*
Y62471D01*
X478365Y62697D01*
X478308Y62894D01*
X478224Y63064D01*
X478125Y63218D01*
X478041Y63331D01*
X477956Y63430D01*
X477900Y63486D01*
X477871Y63500D01*
X477759Y63571D01*
X477646Y63642D01*
X477378Y63754D01*
X477096Y63825D01*
X476814Y63881D01*
X476560Y63909D01*
X476447Y63923D01*
X476363Y63938D01*
X476166D01*
X475771Y63923D01*
X475419Y63867D01*
X475136Y63782D01*
X474897Y63698D01*
X474714Y63613D01*
X474573Y63529D01*
X474502Y63472D01*
X474474Y63458D01*
X474277Y63261D01*
X474122Y63049D01*
X473995Y62824D01*
X473910Y62598D01*
X473854Y62387D01*
X473811Y62232D01*
X473797Y62161D01*
X473783Y62119D01*
Y62091D01*
Y62077D01*
X472543Y62175D01*
X472571Y62485D01*
X472641Y62767D01*
X472712Y63035D01*
X472811Y63261D01*
X472895Y63444D01*
X472966Y63585D01*
X472994Y63627D01*
X473022Y63670D01*
X473036Y63684D01*
Y63698D01*
X473219Y63938D01*
X473417Y64149D01*
X473628Y64332D01*
X473840Y64473D01*
X474023Y64600D01*
X474164Y64671D01*
X474220Y64699D01*
X474263Y64727D01*
X474291Y64741D01*
X474305D01*
X474615Y64854D01*
X474953Y64938D01*
X475263Y65009D01*
X475559Y65051D01*
X475827Y65079D01*
X475926D01*
X476025Y65093D01*
X476208D01*
X476574Y65079D01*
D02*
G37*
G36*
X389173Y64953D02*
X389399Y64938D01*
X389793Y64854D01*
X389977Y64797D01*
X390146Y64741D01*
X390301Y64671D01*
X390442Y64600D01*
X390555Y64530D01*
X390667Y64459D01*
X390766Y64403D01*
X390836Y64346D01*
X390893Y64304D01*
X390935Y64262D01*
X390963Y64248D01*
X390977Y64233D01*
X391104Y64093D01*
X391231Y63952D01*
X391330Y63797D01*
X391414Y63642D01*
X391555Y63345D01*
X391640Y63064D01*
X391696Y62824D01*
X391711Y62711D01*
X391725Y62627D01*
X391739Y62542D01*
Y62485D01*
Y62457D01*
Y62443D01*
X391725Y62189D01*
X391682Y61950D01*
X391626Y61738D01*
X391555Y61555D01*
X391499Y61414D01*
X391443Y61301D01*
X391400Y61245D01*
X391386Y61217D01*
X391231Y61048D01*
X391062Y60893D01*
X390879Y60752D01*
X390695Y60639D01*
X390526Y60554D01*
X390399Y60498D01*
X390343Y60470D01*
X390301Y60455D01*
X390287Y60441D01*
X390273D01*
X390597Y60343D01*
X390865Y60216D01*
X391104Y60061D01*
X391302Y59920D01*
X391457Y59779D01*
X391570Y59666D01*
X391626Y59596D01*
X391654Y59581D01*
Y59567D01*
X391809Y59314D01*
X391936Y59046D01*
X392021Y58792D01*
X392077Y58538D01*
X392105Y58313D01*
X392119Y58214D01*
Y58130D01*
X392133Y58073D01*
Y58017D01*
Y57989D01*
Y57975D01*
X392119Y57749D01*
X392091Y57523D01*
X392049Y57312D01*
X391992Y57100D01*
X391851Y56748D01*
X391781Y56579D01*
X391696Y56438D01*
X391612Y56297D01*
X391541Y56184D01*
X391457Y56086D01*
X391400Y56001D01*
X391344Y55930D01*
X391302Y55888D01*
X391273Y55860D01*
X391259Y55846D01*
X391090Y55691D01*
X390907Y55564D01*
X390710Y55451D01*
X390512Y55352D01*
X390329Y55282D01*
X390132Y55211D01*
X389751Y55113D01*
X389582Y55071D01*
X389427Y55042D01*
X389286Y55028D01*
X389159Y55014D01*
X389060Y55000D01*
X388919D01*
X388651Y55014D01*
X388412Y55042D01*
X388172Y55085D01*
X387947Y55127D01*
X387749Y55197D01*
X387552Y55268D01*
X387369Y55338D01*
X387214Y55423D01*
X387073Y55507D01*
X386946Y55578D01*
X386847Y55648D01*
X386748Y55719D01*
X386678Y55761D01*
X386636Y55803D01*
X386607Y55832D01*
X386593Y55846D01*
X386438Y56015D01*
X386297Y56184D01*
X386184Y56353D01*
X386086Y56537D01*
X385987Y56706D01*
X385917Y56889D01*
X385818Y57213D01*
X385776Y57368D01*
X385747Y57509D01*
X385733Y57636D01*
X385719Y57735D01*
X385705Y57819D01*
Y57890D01*
Y57932D01*
Y57946D01*
X385719Y58271D01*
X385776Y58566D01*
X385860Y58834D01*
X385945Y59060D01*
X386029Y59243D01*
X386114Y59384D01*
X386170Y59469D01*
X386184Y59483D01*
Y59497D01*
X386382Y59722D01*
X386593Y59920D01*
X386819Y60075D01*
X387030Y60216D01*
X387228Y60315D01*
X387397Y60385D01*
X387453Y60413D01*
X387495Y60427D01*
X387524Y60441D01*
X387538D01*
X387284Y60554D01*
X387073Y60681D01*
X386889Y60808D01*
X386734Y60935D01*
X386622Y61048D01*
X386537Y61132D01*
X386480Y61189D01*
X386466Y61217D01*
X386339Y61414D01*
X386255Y61611D01*
X386184Y61809D01*
X386142Y62006D01*
X386114Y62161D01*
X386100Y62288D01*
Y62373D01*
Y62387D01*
Y62401D01*
X386114Y62598D01*
X386128Y62782D01*
X386227Y63134D01*
X386354Y63444D01*
X386495Y63712D01*
X386636Y63923D01*
X386706Y64008D01*
X386762Y64093D01*
X386819Y64149D01*
X386861Y64191D01*
X386875Y64205D01*
X386889Y64219D01*
X387044Y64346D01*
X387199Y64473D01*
X387369Y64572D01*
X387538Y64656D01*
X387876Y64783D01*
X388214Y64868D01*
X388355Y64910D01*
X388496Y64924D01*
X388623Y64938D01*
X388736Y64953D01*
X388821Y64967D01*
X388947D01*
X389173Y64953D01*
D02*
G37*
G36*
X476856Y29952D02*
X477096Y29938D01*
X477322Y29896D01*
X477533Y29854D01*
X477730Y29797D01*
X477914Y29741D01*
X478083Y29671D01*
X478238Y29600D01*
X478379Y29530D01*
X478492Y29459D01*
X478590Y29403D01*
X478675Y29346D01*
X478745Y29304D01*
X478788Y29262D01*
X478816Y29248D01*
X478830Y29234D01*
X478971Y29093D01*
X479098Y28937D01*
X479225Y28768D01*
X479323Y28599D01*
X479492Y28261D01*
X479605Y27922D01*
X479648Y27768D01*
X479690Y27612D01*
X479718Y27485D01*
X479746Y27373D01*
X479760Y27274D01*
Y27204D01*
X479774Y27161D01*
Y27147D01*
X478548Y27020D01*
X478520Y27345D01*
X478463Y27627D01*
X478379Y27880D01*
X478280Y28078D01*
X478196Y28247D01*
X478111Y28359D01*
X478055Y28430D01*
X478026Y28458D01*
X477815Y28627D01*
X477589Y28754D01*
X477350Y28853D01*
X477138Y28909D01*
X476941Y28952D01*
X476772Y28966D01*
X476715Y28980D01*
X476631D01*
X476335Y28966D01*
X476067Y28909D01*
X475841Y28825D01*
X475644Y28740D01*
X475489Y28642D01*
X475390Y28571D01*
X475320Y28515D01*
X475292Y28486D01*
X475122Y28289D01*
X474995Y28092D01*
X474897Y27894D01*
X474841Y27697D01*
X474798Y27542D01*
X474784Y27401D01*
X474770Y27316D01*
Y27302D01*
Y27288D01*
X474798Y27034D01*
X474855Y26767D01*
X474953Y26527D01*
X475052Y26301D01*
X475165Y26118D01*
X475263Y25963D01*
X475292Y25907D01*
X475320Y25864D01*
X475348Y25850D01*
Y25836D01*
X475461Y25681D01*
X475602Y25526D01*
X475757Y25357D01*
X475926Y25188D01*
X476278Y24849D01*
X476631Y24511D01*
X476814Y24356D01*
X476969Y24215D01*
X477124Y24088D01*
X477251Y23975D01*
X477350Y23891D01*
X477434Y23820D01*
X477491Y23778D01*
X477505Y23764D01*
X477857Y23468D01*
X478181Y23186D01*
X478449Y22932D01*
X478661Y22721D01*
X478844Y22538D01*
X478971Y22411D01*
X479041Y22326D01*
X479070Y22312D01*
Y22298D01*
X479267Y22058D01*
X479422Y21833D01*
X479563Y21607D01*
X479676Y21410D01*
X479760Y21240D01*
X479817Y21114D01*
X479845Y21029D01*
X479859Y21015D01*
Y21001D01*
X479915Y20846D01*
X479944Y20705D01*
X479972Y20564D01*
X479986Y20437D01*
X480000Y20324D01*
Y20240D01*
Y20183D01*
Y20169D01*
X473530D01*
Y21325D01*
X478336D01*
X478167Y21565D01*
X478083Y21663D01*
X478012Y21762D01*
X477942Y21847D01*
X477885Y21903D01*
X477843Y21945D01*
X477829Y21960D01*
X477759Y22030D01*
X477674Y22101D01*
X477477Y22284D01*
X477251Y22495D01*
X477011Y22707D01*
X476786Y22890D01*
X476687Y22975D01*
X476603Y23059D01*
X476532Y23115D01*
X476476Y23158D01*
X476447Y23186D01*
X476433Y23200D01*
X476208Y23397D01*
X475982Y23581D01*
X475785Y23764D01*
X475602Y23919D01*
X475433Y24074D01*
X475292Y24215D01*
X475151Y24342D01*
X475038Y24455D01*
X474925Y24567D01*
X474841Y24652D01*
X474770Y24722D01*
X474700Y24793D01*
X474629Y24878D01*
X474601Y24906D01*
X474403Y25145D01*
X474234Y25357D01*
X474093Y25568D01*
X473981Y25738D01*
X473896Y25893D01*
X473840Y26005D01*
X473811Y26076D01*
X473797Y26104D01*
X473713Y26316D01*
X473656Y26527D01*
X473600Y26724D01*
X473572Y26893D01*
X473558Y27048D01*
X473544Y27161D01*
Y27232D01*
Y27260D01*
X473558Y27471D01*
X473586Y27669D01*
X473614Y27866D01*
X473670Y28035D01*
X473811Y28374D01*
X473952Y28642D01*
X474037Y28768D01*
X474107Y28867D01*
X474178Y28966D01*
X474248Y29036D01*
X474305Y29093D01*
X474333Y29149D01*
X474361Y29163D01*
X474375Y29177D01*
X474530Y29318D01*
X474700Y29445D01*
X474883Y29544D01*
X475066Y29628D01*
X475433Y29769D01*
X475799Y29868D01*
X475954Y29896D01*
X476109Y29924D01*
X476250Y29938D01*
X476363Y29952D01*
X476462Y29967D01*
X476603D01*
X476856Y29952D01*
D02*
G37*
G36*
X461688D02*
X461928Y29938D01*
X462153Y29896D01*
X462365Y29854D01*
X462562Y29797D01*
X462745Y29741D01*
X462914Y29671D01*
X463069Y29600D01*
X463210Y29530D01*
X463323Y29459D01*
X463422Y29403D01*
X463507Y29346D01*
X463577Y29304D01*
X463619Y29262D01*
X463647Y29248D01*
X463662Y29234D01*
X463802Y29093D01*
X463929Y28937D01*
X464056Y28768D01*
X464155Y28599D01*
X464324Y28261D01*
X464437Y27922D01*
X464479Y27768D01*
X464521Y27612D01*
X464550Y27485D01*
X464578Y27373D01*
X464592Y27274D01*
Y27204D01*
X464606Y27161D01*
Y27147D01*
X463380Y27020D01*
X463351Y27345D01*
X463295Y27627D01*
X463210Y27880D01*
X463112Y28078D01*
X463027Y28247D01*
X462943Y28359D01*
X462886Y28430D01*
X462858Y28458D01*
X462647Y28627D01*
X462421Y28754D01*
X462181Y28853D01*
X461970Y28909D01*
X461773Y28952D01*
X461603Y28966D01*
X461547Y28980D01*
X461462D01*
X461166Y28966D01*
X460899Y28909D01*
X460673Y28825D01*
X460476Y28740D01*
X460321Y28642D01*
X460222Y28571D01*
X460151Y28515D01*
X460123Y28486D01*
X459954Y28289D01*
X459827Y28092D01*
X459729Y27894D01*
X459672Y27697D01*
X459630Y27542D01*
X459616Y27401D01*
X459602Y27316D01*
Y27302D01*
Y27288D01*
X459630Y27034D01*
X459686Y26767D01*
X459785Y26527D01*
X459884Y26301D01*
X459996Y26118D01*
X460095Y25963D01*
X460123Y25907D01*
X460151Y25864D01*
X460180Y25850D01*
Y25836D01*
X460292Y25681D01*
X460433Y25526D01*
X460588Y25357D01*
X460758Y25188D01*
X461110Y24849D01*
X461462Y24511D01*
X461646Y24356D01*
X461801Y24215D01*
X461956Y24088D01*
X462083Y23975D01*
X462181Y23891D01*
X462266Y23820D01*
X462322Y23778D01*
X462336Y23764D01*
X462689Y23468D01*
X463013Y23186D01*
X463281Y22932D01*
X463492Y22721D01*
X463676Y22538D01*
X463802Y22411D01*
X463873Y22326D01*
X463901Y22312D01*
Y22298D01*
X464099Y22058D01*
X464254Y21833D01*
X464395Y21607D01*
X464507Y21410D01*
X464592Y21240D01*
X464648Y21114D01*
X464677Y21029D01*
X464691Y21015D01*
Y21001D01*
X464747Y20846D01*
X464775Y20705D01*
X464803Y20564D01*
X464818Y20437D01*
X464832Y20324D01*
Y20240D01*
Y20183D01*
Y20169D01*
X458361D01*
Y21325D01*
X463168D01*
X462999Y21565D01*
X462914Y21663D01*
X462844Y21762D01*
X462773Y21847D01*
X462717Y21903D01*
X462675Y21945D01*
X462661Y21960D01*
X462590Y22030D01*
X462506Y22101D01*
X462308Y22284D01*
X462083Y22495D01*
X461843Y22707D01*
X461618Y22890D01*
X461519Y22975D01*
X461434Y23059D01*
X461364Y23115D01*
X461307Y23158D01*
X461279Y23186D01*
X461265Y23200D01*
X461040Y23397D01*
X460814Y23581D01*
X460617Y23764D01*
X460433Y23919D01*
X460264Y24074D01*
X460123Y24215D01*
X459982Y24342D01*
X459869Y24455D01*
X459757Y24567D01*
X459672Y24652D01*
X459602Y24722D01*
X459531Y24793D01*
X459461Y24878D01*
X459432Y24906D01*
X459235Y25145D01*
X459066Y25357D01*
X458925Y25568D01*
X458812Y25738D01*
X458728Y25893D01*
X458671Y26005D01*
X458643Y26076D01*
X458629Y26104D01*
X458544Y26316D01*
X458488Y26527D01*
X458432Y26724D01*
X458403Y26893D01*
X458389Y27048D01*
X458375Y27161D01*
Y27232D01*
Y27260D01*
X458389Y27471D01*
X458418Y27669D01*
X458446Y27866D01*
X458502Y28035D01*
X458643Y28374D01*
X458784Y28642D01*
X458869Y28768D01*
X458939Y28867D01*
X459010Y28966D01*
X459080Y29036D01*
X459136Y29093D01*
X459165Y29149D01*
X459193Y29163D01*
X459207Y29177D01*
X459362Y29318D01*
X459531Y29445D01*
X459714Y29544D01*
X459898Y29628D01*
X460264Y29769D01*
X460631Y29868D01*
X460786Y29896D01*
X460941Y29924D01*
X461082Y29938D01*
X461195Y29952D01*
X461293Y29967D01*
X461434D01*
X461688Y29952D01*
D02*
G37*
G36*
X456867Y24779D02*
X455739Y24624D01*
X455640Y24779D01*
X455513Y24906D01*
X455401Y25033D01*
X455288Y25131D01*
X455175Y25202D01*
X455091Y25272D01*
X455034Y25301D01*
X455020Y25315D01*
X454837Y25399D01*
X454654Y25470D01*
X454484Y25512D01*
X454315Y25554D01*
X454174Y25568D01*
X454062Y25582D01*
X453794D01*
X453624Y25554D01*
X453329Y25484D01*
X453075Y25385D01*
X452849Y25286D01*
X452680Y25174D01*
X452553Y25075D01*
X452483Y25004D01*
X452454Y24990D01*
Y24976D01*
X452257Y24737D01*
X452116Y24483D01*
X452017Y24215D01*
X451947Y23947D01*
X451905Y23722D01*
X451891Y23623D01*
Y23538D01*
X451876Y23468D01*
Y23412D01*
Y23383D01*
Y23369D01*
Y23172D01*
X451905Y22989D01*
X451975Y22636D01*
X452074Y22340D01*
X452173Y22101D01*
X452285Y21903D01*
X452384Y21748D01*
X452426Y21706D01*
X452454Y21663D01*
X452468Y21649D01*
X452483Y21635D01*
X452595Y21523D01*
X452708Y21424D01*
X452962Y21255D01*
X453202Y21142D01*
X453441Y21071D01*
X453639Y21015D01*
X453808Y21001D01*
X453864Y20987D01*
X453949D01*
X454217Y21001D01*
X454456Y21057D01*
X454668Y21128D01*
X454837Y21212D01*
X454992Y21297D01*
X455105Y21367D01*
X455161Y21424D01*
X455189Y21438D01*
X455358Y21635D01*
X455499Y21847D01*
X455612Y22086D01*
X455697Y22298D01*
X455753Y22509D01*
X455795Y22664D01*
X455810Y22735D01*
X455824Y22777D01*
Y22805D01*
Y22819D01*
X457078Y22721D01*
X457050Y22495D01*
X457008Y22284D01*
X456881Y21889D01*
X456726Y21551D01*
X456641Y21396D01*
X456557Y21269D01*
X456486Y21142D01*
X456402Y21029D01*
X456331Y20944D01*
X456261Y20874D01*
X456204Y20818D01*
X456176Y20761D01*
X456148Y20747D01*
X456134Y20733D01*
X455965Y20606D01*
X455795Y20493D01*
X455612Y20395D01*
X455429Y20310D01*
X455076Y20183D01*
X454724Y20099D01*
X454569Y20056D01*
X454414Y20042D01*
X454287Y20028D01*
X454174Y20014D01*
X454076Y20000D01*
X453949D01*
X453653Y20014D01*
X453371Y20056D01*
X453103Y20113D01*
X452863Y20183D01*
X452638Y20282D01*
X452426Y20381D01*
X452229Y20479D01*
X452060Y20592D01*
X451905Y20705D01*
X451764Y20803D01*
X451651Y20916D01*
X451552Y21001D01*
X451482Y21071D01*
X451425Y21128D01*
X451397Y21170D01*
X451383Y21184D01*
X451242Y21367D01*
X451129Y21565D01*
X451017Y21748D01*
X450932Y21945D01*
X450791Y22326D01*
X450706Y22692D01*
X450678Y22848D01*
X450650Y23003D01*
X450636Y23129D01*
X450622Y23242D01*
X450608Y23341D01*
Y23412D01*
Y23454D01*
Y23468D01*
X450622Y23722D01*
X450650Y23961D01*
X450692Y24201D01*
X450749Y24412D01*
X450819Y24610D01*
X450890Y24807D01*
X450974Y24976D01*
X451045Y25131D01*
X451129Y25272D01*
X451214Y25399D01*
X451284Y25498D01*
X451355Y25596D01*
X451411Y25667D01*
X451454Y25709D01*
X451482Y25738D01*
X451496Y25752D01*
X451665Y25907D01*
X451834Y26048D01*
X452017Y26160D01*
X452201Y26259D01*
X452384Y26358D01*
X452567Y26428D01*
X452906Y26527D01*
X453061Y26569D01*
X453202Y26597D01*
X453329Y26611D01*
X453441Y26626D01*
X453526Y26640D01*
X453836D01*
X454005Y26611D01*
X454343Y26541D01*
X454654Y26442D01*
X454935Y26330D01*
X455161Y26217D01*
X455260Y26160D01*
X455344Y26118D01*
X455415Y26076D01*
X455457Y26048D01*
X455485Y26033D01*
X455499Y26019D01*
X454978Y28656D01*
X451073D01*
Y29797D01*
X455922D01*
X456867Y24779D01*
D02*
G37*
G36*
X469441Y29938D02*
X469794Y29882D01*
X470090Y29783D01*
X470344Y29685D01*
X470555Y29572D01*
X470640Y29530D01*
X470710Y29473D01*
X470766Y29445D01*
X470809Y29417D01*
X470823Y29389D01*
X470837D01*
X471091Y29163D01*
X471302Y28895D01*
X471485Y28627D01*
X471626Y28374D01*
X471739Y28134D01*
X471796Y28035D01*
X471824Y27937D01*
X471852Y27866D01*
X471880Y27810D01*
X471894Y27782D01*
Y27768D01*
X471951Y27556D01*
X472007Y27345D01*
X472092Y26879D01*
X472162Y26414D01*
X472204Y25977D01*
X472218Y25766D01*
X472233Y25582D01*
Y25413D01*
X472247Y25258D01*
Y25145D01*
Y25047D01*
Y24990D01*
Y24976D01*
X472233Y24483D01*
X472204Y24018D01*
X472162Y23595D01*
X472092Y23200D01*
X472021Y22833D01*
X471936Y22509D01*
X471852Y22213D01*
X471767Y21960D01*
X471683Y21734D01*
X471584Y21537D01*
X471514Y21367D01*
X471443Y21240D01*
X471373Y21128D01*
X471330Y21057D01*
X471302Y21015D01*
X471288Y21001D01*
X471133Y20832D01*
X470964Y20677D01*
X470780Y20536D01*
X470597Y20423D01*
X470414Y20324D01*
X470231Y20240D01*
X470047Y20183D01*
X469878Y20127D01*
X469709Y20085D01*
X469554Y20056D01*
X469413Y20028D01*
X469300Y20014D01*
X469202Y20000D01*
X469061D01*
X468680Y20028D01*
X468328Y20085D01*
X468032Y20183D01*
X467778Y20282D01*
X467566Y20381D01*
X467496Y20437D01*
X467425Y20479D01*
X467369Y20508D01*
X467327Y20536D01*
X467313Y20564D01*
X467299D01*
X467045Y20803D01*
X466833Y21057D01*
X466650Y21339D01*
X466509Y21593D01*
X466396Y21833D01*
X466340Y21931D01*
X466312Y22030D01*
X466284Y22101D01*
X466255Y22157D01*
X466241Y22185D01*
Y22199D01*
X466171Y22411D01*
X466114Y22622D01*
X466030Y23073D01*
X465959Y23538D01*
X465917Y23990D01*
X465903Y24187D01*
X465889Y24370D01*
Y24539D01*
X465875Y24694D01*
Y24807D01*
Y24906D01*
Y24962D01*
Y24976D01*
Y25244D01*
X465889Y25498D01*
Y25723D01*
X465903Y25949D01*
X465931Y26146D01*
X465945Y26344D01*
X465959Y26513D01*
X465988Y26668D01*
X466002Y26809D01*
X466030Y26936D01*
X466044Y27034D01*
X466058Y27119D01*
X466072Y27190D01*
X466086Y27232D01*
X466100Y27260D01*
Y27274D01*
X466185Y27584D01*
X466284Y27866D01*
X466396Y28106D01*
X466481Y28317D01*
X466580Y28500D01*
X466636Y28627D01*
X466692Y28698D01*
X466707Y28726D01*
X466862Y28937D01*
X467017Y29121D01*
X467186Y29276D01*
X467341Y29417D01*
X467482Y29516D01*
X467595Y29586D01*
X467665Y29628D01*
X467679Y29642D01*
X467693D01*
X467919Y29755D01*
X468158Y29826D01*
X468384Y29882D01*
X468596Y29924D01*
X468779Y29952D01*
X468934Y29967D01*
X469061D01*
X469441Y29938D01*
D02*
G37*
G36*
X436511Y46094D02*
X435312D01*
Y47462D01*
X436511D01*
Y46094D01*
D02*
G37*
G36*
X355411Y37707D02*
X354212D01*
Y41569D01*
X354198Y41865D01*
X354184Y42119D01*
X354156Y42344D01*
X354114Y42528D01*
X354072Y42669D01*
X354043Y42782D01*
X354029Y42838D01*
X354015Y42866D01*
X353931Y43035D01*
X353832Y43190D01*
X353719Y43317D01*
X353606Y43430D01*
X353508Y43515D01*
X353423Y43571D01*
X353367Y43613D01*
X353353Y43627D01*
X353169Y43726D01*
X353000Y43797D01*
X352831Y43839D01*
X352690Y43881D01*
X352549Y43895D01*
X352450Y43909D01*
X352366D01*
X352112Y43895D01*
X351886Y43839D01*
X351703Y43782D01*
X351548Y43698D01*
X351421Y43627D01*
X351337Y43557D01*
X351280Y43500D01*
X351266Y43486D01*
X351139Y43317D01*
X351041Y43106D01*
X350970Y42894D01*
X350914Y42683D01*
X350886Y42485D01*
X350872Y42330D01*
Y42274D01*
Y42232D01*
Y42204D01*
Y42189D01*
Y37707D01*
X349673D01*
Y42175D01*
X349687Y42542D01*
X349715Y42866D01*
X349758Y43134D01*
X349800Y43359D01*
X349842Y43543D01*
X349885Y43670D01*
X349913Y43740D01*
X349927Y43768D01*
X350040Y43966D01*
X350167Y44135D01*
X350308Y44276D01*
X350434Y44403D01*
X350561Y44501D01*
X350660Y44572D01*
X350731Y44614D01*
X350759Y44628D01*
X350984Y44727D01*
X351210Y44812D01*
X351435Y44868D01*
X351647Y44896D01*
X351830Y44924D01*
X351985Y44938D01*
X352112D01*
X352337Y44924D01*
X352563Y44896D01*
X352775Y44854D01*
X352972Y44783D01*
X353338Y44628D01*
X353493Y44544D01*
X353634Y44459D01*
X353761Y44360D01*
X353888Y44276D01*
X353987Y44191D01*
X354057Y44121D01*
X354128Y44050D01*
X354170Y44008D01*
X354198Y43980D01*
X354212Y43966D01*
Y47462D01*
X355411D01*
Y37707D01*
D02*
G37*
G36*
X414209Y43416D02*
X412842D01*
Y44783D01*
X414209D01*
Y43416D01*
D02*
G37*
G36*
X337592Y44924D02*
X337888Y44896D01*
X338170Y44854D01*
X338396Y44812D01*
X338593Y44769D01*
X338734Y44727D01*
X338790Y44713D01*
X338833Y44699D01*
X338847Y44685D01*
X338861D01*
X339100Y44586D01*
X339312Y44459D01*
X339495Y44346D01*
X339650Y44233D01*
X339763Y44121D01*
X339848Y44036D01*
X339904Y43980D01*
X339918Y43966D01*
X340045Y43782D01*
X340158Y43585D01*
X340242Y43388D01*
X340313Y43204D01*
X340369Y43021D01*
X340411Y42894D01*
X340426Y42838D01*
Y42796D01*
X340440Y42782D01*
Y42768D01*
X339270Y42612D01*
X339185Y42866D01*
X339100Y43092D01*
X339002Y43275D01*
X338917Y43416D01*
X338833Y43529D01*
X338762Y43599D01*
X338706Y43642D01*
X338692Y43656D01*
X338522Y43754D01*
X338325Y43825D01*
X338114Y43881D01*
X337916Y43909D01*
X337719Y43938D01*
X337578Y43952D01*
X337437D01*
X337113Y43938D01*
X336831Y43895D01*
X336605Y43825D01*
X336408Y43754D01*
X336267Y43670D01*
X336154Y43613D01*
X336084Y43557D01*
X336070Y43543D01*
X335957Y43416D01*
X335872Y43261D01*
X335802Y43092D01*
X335760Y42923D01*
X335731Y42768D01*
X335717Y42627D01*
Y42542D01*
Y42528D01*
Y42514D01*
Y42485D01*
Y42429D01*
Y42330D01*
X335731Y42246D01*
Y42218D01*
Y42204D01*
X335872Y42161D01*
X336027Y42119D01*
X336352Y42034D01*
X336718Y41964D01*
X337056Y41893D01*
X337226Y41865D01*
X337381Y41851D01*
X337522Y41823D01*
X337634Y41809D01*
X337733Y41795D01*
X337803D01*
X337860Y41781D01*
X337874D01*
X338128Y41753D01*
X338339Y41710D01*
X338522Y41682D01*
X338663Y41654D01*
X338776Y41640D01*
X338861Y41611D01*
X338917Y41597D01*
X338931D01*
X339115Y41541D01*
X339270Y41485D01*
X339425Y41414D01*
X339552Y41358D01*
X339664Y41301D01*
X339735Y41245D01*
X339791Y41217D01*
X339805Y41203D01*
X339946Y41104D01*
X340059Y40991D01*
X340172Y40879D01*
X340256Y40766D01*
X340327Y40667D01*
X340383Y40582D01*
X340411Y40526D01*
X340426Y40512D01*
X340496Y40357D01*
X340552Y40188D01*
X340595Y40033D01*
X340623Y39878D01*
X340637Y39751D01*
X340651Y39652D01*
Y39596D01*
Y39567D01*
X340637Y39398D01*
X340623Y39257D01*
X340552Y38961D01*
X340454Y38722D01*
X340341Y38510D01*
X340228Y38341D01*
X340130Y38214D01*
X340059Y38144D01*
X340031Y38115D01*
X339777Y37932D01*
X339495Y37791D01*
X339185Y37692D01*
X338903Y37622D01*
X338649Y37580D01*
X338537Y37566D01*
X338438D01*
X338353Y37552D01*
X338241D01*
X337987Y37566D01*
X337733Y37594D01*
X337508Y37622D01*
X337310Y37664D01*
X337155Y37707D01*
X337028Y37749D01*
X336944Y37763D01*
X336915Y37777D01*
X336676Y37876D01*
X336450Y38003D01*
X336239Y38144D01*
X336027Y38270D01*
X335858Y38397D01*
X335731Y38496D01*
X335647Y38567D01*
X335633Y38595D01*
X335619D01*
X335590Y38412D01*
X335562Y38242D01*
X335534Y38087D01*
X335492Y37960D01*
X335449Y37848D01*
X335421Y37777D01*
X335407Y37721D01*
X335393Y37707D01*
X334138D01*
X334209Y37862D01*
X334279Y38017D01*
X334336Y38158D01*
X334364Y38285D01*
X334406Y38397D01*
X334420Y38482D01*
X334434Y38538D01*
Y38552D01*
X334449Y38651D01*
X334463Y38778D01*
Y38919D01*
X334477Y39074D01*
X334491Y39427D01*
Y39779D01*
X334505Y40117D01*
Y40272D01*
Y40399D01*
Y40512D01*
Y40596D01*
Y40653D01*
Y40667D01*
Y42274D01*
Y42542D01*
X334519Y42782D01*
X334533Y42965D01*
Y43120D01*
X334547Y43233D01*
X334561Y43317D01*
X334575Y43359D01*
Y43374D01*
X334618Y43557D01*
X334674Y43712D01*
X334730Y43839D01*
X334801Y43966D01*
X334857Y44050D01*
X334900Y44121D01*
X334928Y44163D01*
X334942Y44177D01*
X335055Y44290D01*
X335182Y44403D01*
X335322Y44487D01*
X335463Y44572D01*
X335590Y44628D01*
X335689Y44671D01*
X335760Y44699D01*
X335788Y44713D01*
X336013Y44783D01*
X336253Y44840D01*
X336493Y44882D01*
X336732Y44910D01*
X336944Y44924D01*
X337099Y44938D01*
X337254D01*
X337592Y44924D01*
D02*
G37*
G36*
X441417Y37707D02*
X440275D01*
X437582Y44783D01*
X438823D01*
X440387Y40455D01*
X440486Y40174D01*
X440585Y39920D01*
X440655Y39680D01*
X440726Y39497D01*
X440768Y39328D01*
X440810Y39215D01*
X440824Y39144D01*
X440839Y39116D01*
X440923Y39384D01*
X440994Y39652D01*
X441078Y39892D01*
X441149Y40103D01*
X441205Y40286D01*
X441247Y40427D01*
X441261Y40470D01*
X441275Y40512D01*
X441290Y40526D01*
Y40540D01*
X442812Y44783D01*
X444081D01*
X441417Y37707D01*
D02*
G37*
G36*
X327921Y46531D02*
Y44783D01*
X328810D01*
Y43853D01*
X327921D01*
Y39765D01*
Y39567D01*
Y39398D01*
X327907Y39243D01*
X327893Y39088D01*
Y38961D01*
X327879Y38849D01*
X327851Y38665D01*
X327823Y38524D01*
X327809Y38426D01*
X327781Y38369D01*
Y38355D01*
X327724Y38228D01*
X327640Y38129D01*
X327555Y38031D01*
X327485Y37960D01*
X327400Y37890D01*
X327344Y37848D01*
X327301Y37819D01*
X327287Y37805D01*
X327132Y37735D01*
X326977Y37692D01*
X326808Y37650D01*
X326639Y37636D01*
X326498Y37622D01*
X326385Y37608D01*
X326272D01*
X325962Y37622D01*
X325807Y37636D01*
X325666Y37664D01*
X325539Y37678D01*
X325440Y37692D01*
X325384Y37707D01*
X325356D01*
X325511Y38764D01*
X325624Y38750D01*
X325737Y38736D01*
X325835D01*
X325906Y38722D01*
X326047D01*
X326230Y38736D01*
X326357Y38764D01*
X326427Y38792D01*
X326455Y38806D01*
X326554Y38877D01*
X326610Y38947D01*
X326653Y39004D01*
X326667Y39032D01*
X326681Y39102D01*
X326695Y39201D01*
X326709Y39427D01*
X326723Y39525D01*
Y39610D01*
Y39666D01*
Y39694D01*
Y43853D01*
X325511D01*
Y44783D01*
X326723D01*
Y47250D01*
X327921Y46531D01*
D02*
G37*
G36*
X470654Y40399D02*
Y40131D01*
X470640Y39892D01*
X470625Y39708D01*
X470611Y39539D01*
Y39427D01*
X470597Y39342D01*
X470583Y39286D01*
Y39271D01*
X470541Y39088D01*
X470485Y38919D01*
X470428Y38764D01*
X470358Y38637D01*
X470301Y38524D01*
X470259Y38454D01*
X470231Y38397D01*
X470217Y38383D01*
X470104Y38256D01*
X469977Y38144D01*
X469850Y38045D01*
X469709Y37960D01*
X469596Y37890D01*
X469498Y37833D01*
X469441Y37805D01*
X469413Y37791D01*
X469202Y37707D01*
X469004Y37650D01*
X468807Y37608D01*
X468624Y37580D01*
X468469Y37566D01*
X468342Y37552D01*
X468243D01*
X467989Y37566D01*
X467736Y37608D01*
X467510Y37664D01*
X467285Y37735D01*
X467087Y37833D01*
X466904Y37932D01*
X466735Y38031D01*
X466580Y38144D01*
X466439Y38256D01*
X466326Y38355D01*
X466227Y38468D01*
X466143Y38552D01*
X466072Y38623D01*
X466030Y38679D01*
X466002Y38722D01*
X465988Y38736D01*
Y37707D01*
X464916D01*
Y44783D01*
X466114D01*
Y40991D01*
X466129Y40667D01*
X466143Y40385D01*
X466171Y40145D01*
X466213Y39948D01*
X466255Y39793D01*
X466284Y39680D01*
X466298Y39624D01*
X466312Y39596D01*
X466396Y39427D01*
X466495Y39286D01*
X466608Y39159D01*
X466721Y39046D01*
X466819Y38961D01*
X466904Y38905D01*
X466960Y38863D01*
X466988Y38849D01*
X467172Y38764D01*
X467355Y38693D01*
X467524Y38651D01*
X467679Y38609D01*
X467806Y38595D01*
X467905Y38581D01*
X468003D01*
X468201Y38595D01*
X468370Y38623D01*
X468525Y38665D01*
X468652Y38722D01*
X468765Y38764D01*
X468835Y38806D01*
X468891Y38834D01*
X468906Y38849D01*
X469033Y38961D01*
X469131Y39074D01*
X469216Y39201D01*
X469286Y39314D01*
X469329Y39427D01*
X469357Y39511D01*
X469385Y39567D01*
Y39581D01*
X469413Y39737D01*
X469427Y39920D01*
X469441Y40131D01*
Y40343D01*
X469455Y40540D01*
Y40695D01*
Y40766D01*
Y40808D01*
Y40836D01*
Y40850D01*
Y44783D01*
X470654D01*
Y40399D01*
D02*
G37*
G36*
X375146D02*
Y40131D01*
X375132Y39892D01*
X375118Y39708D01*
X375104Y39539D01*
Y39427D01*
X375090Y39342D01*
X375076Y39286D01*
Y39271D01*
X375034Y39088D01*
X374977Y38919D01*
X374921Y38764D01*
X374851Y38637D01*
X374794Y38524D01*
X374752Y38454D01*
X374724Y38397D01*
X374710Y38383D01*
X374597Y38256D01*
X374470Y38144D01*
X374343Y38045D01*
X374202Y37960D01*
X374089Y37890D01*
X373991Y37833D01*
X373934Y37805D01*
X373906Y37791D01*
X373694Y37707D01*
X373497Y37650D01*
X373300Y37608D01*
X373116Y37580D01*
X372962Y37566D01*
X372835Y37552D01*
X372736D01*
X372482Y37566D01*
X372228Y37608D01*
X372003Y37664D01*
X371777Y37735D01*
X371580Y37833D01*
X371397Y37932D01*
X371227Y38031D01*
X371073Y38144D01*
X370932Y38256D01*
X370819Y38355D01*
X370720Y38468D01*
X370635Y38552D01*
X370565Y38623D01*
X370523Y38679D01*
X370494Y38722D01*
X370480Y38736D01*
Y37707D01*
X369409D01*
Y44783D01*
X370607D01*
Y40991D01*
X370621Y40667D01*
X370635Y40385D01*
X370664Y40145D01*
X370706Y39948D01*
X370748Y39793D01*
X370776Y39680D01*
X370790Y39624D01*
X370805Y39596D01*
X370889Y39427D01*
X370988Y39286D01*
X371101Y39159D01*
X371213Y39046D01*
X371312Y38961D01*
X371397Y38905D01*
X371453Y38863D01*
X371481Y38849D01*
X371665Y38764D01*
X371848Y38693D01*
X372017Y38651D01*
X372172Y38609D01*
X372299Y38595D01*
X372398Y38581D01*
X372496D01*
X372694Y38595D01*
X372863Y38623D01*
X373018Y38665D01*
X373145Y38722D01*
X373257Y38764D01*
X373328Y38806D01*
X373384Y38834D01*
X373399Y38849D01*
X373525Y38961D01*
X373624Y39074D01*
X373709Y39201D01*
X373779Y39314D01*
X373821Y39427D01*
X373850Y39511D01*
X373878Y39567D01*
Y39581D01*
X373906Y39737D01*
X373920Y39920D01*
X373934Y40131D01*
Y40343D01*
X373948Y40540D01*
Y40695D01*
Y40766D01*
Y40808D01*
Y40836D01*
Y40850D01*
Y44783D01*
X375146D01*
Y40399D01*
D02*
G37*
G36*
X452835Y44924D02*
X453089Y44896D01*
X453329Y44854D01*
X453554Y44783D01*
X453765Y44713D01*
X453963Y44628D01*
X454146Y44544D01*
X454301Y44445D01*
X454456Y44360D01*
X454583Y44262D01*
X454696Y44177D01*
X454780Y44107D01*
X454851Y44036D01*
X454907Y43994D01*
X454935Y43966D01*
X454950Y43952D01*
X455105Y43754D01*
X455246Y43543D01*
X455373Y43331D01*
X455485Y43106D01*
X455570Y42866D01*
X455640Y42641D01*
X455753Y42189D01*
X455795Y41992D01*
X455824Y41795D01*
X455838Y41626D01*
X455852Y41470D01*
X455866Y41344D01*
Y41259D01*
Y41189D01*
Y41175D01*
X455852Y40864D01*
X455824Y40568D01*
X455781Y40286D01*
X455725Y40033D01*
X455654Y39793D01*
X455584Y39567D01*
X455499Y39370D01*
X455415Y39187D01*
X455330Y39032D01*
X455246Y38891D01*
X455175Y38778D01*
X455105Y38679D01*
X455048Y38595D01*
X455006Y38538D01*
X454978Y38510D01*
X454964Y38496D01*
X454780Y38327D01*
X454597Y38186D01*
X454400Y38059D01*
X454188Y37946D01*
X453991Y37862D01*
X453780Y37777D01*
X453385Y37664D01*
X453202Y37636D01*
X453032Y37608D01*
X452877Y37580D01*
X452751Y37566D01*
X452652Y37552D01*
X452497D01*
X452060Y37580D01*
X451665Y37650D01*
X451313Y37735D01*
X451172Y37791D01*
X451031Y37848D01*
X450904Y37904D01*
X450791Y37960D01*
X450706Y38003D01*
X450622Y38045D01*
X450565Y38087D01*
X450523Y38115D01*
X450495Y38144D01*
X450481D01*
X450199Y38397D01*
X449973Y38665D01*
X449776Y38947D01*
X449635Y39215D01*
X449522Y39455D01*
X449480Y39567D01*
X449438Y39652D01*
X449409Y39737D01*
X449395Y39793D01*
X449381Y39821D01*
Y39835D01*
X450622Y39990D01*
X450735Y39722D01*
X450862Y39497D01*
X450988Y39300D01*
X451101Y39144D01*
X451200Y39032D01*
X451284Y38947D01*
X451355Y38891D01*
X451369Y38877D01*
X451552Y38764D01*
X451735Y38679D01*
X451933Y38623D01*
X452102Y38581D01*
X452257Y38552D01*
X452384Y38538D01*
X452497D01*
X452666Y38552D01*
X452821Y38567D01*
X453103Y38637D01*
X453357Y38736D01*
X453582Y38849D01*
X453751Y38947D01*
X453878Y39046D01*
X453963Y39116D01*
X453977Y39144D01*
X453991D01*
X454188Y39398D01*
X454343Y39680D01*
X454456Y39990D01*
X454541Y40272D01*
X454583Y40526D01*
X454611Y40639D01*
X454625Y40738D01*
Y40822D01*
X454640Y40879D01*
Y40921D01*
Y40935D01*
X449353D01*
X449339Y41076D01*
Y41175D01*
Y41231D01*
Y41245D01*
X449353Y41569D01*
X449381Y41865D01*
X449424Y42147D01*
X449480Y42415D01*
X449551Y42655D01*
X449621Y42880D01*
X449706Y43078D01*
X449790Y43261D01*
X449875Y43430D01*
X449959Y43571D01*
X450030Y43684D01*
X450100Y43782D01*
X450157Y43867D01*
X450199Y43923D01*
X450227Y43952D01*
X450241Y43966D01*
X450410Y44135D01*
X450594Y44290D01*
X450791Y44417D01*
X450988Y44530D01*
X451186Y44628D01*
X451369Y44699D01*
X451566Y44769D01*
X451735Y44812D01*
X451919Y44854D01*
X452074Y44882D01*
X452215Y44910D01*
X452328Y44924D01*
X452426Y44938D01*
X452567D01*
X452835Y44924D01*
D02*
G37*
G36*
X394488D02*
X394741Y44896D01*
X394981Y44854D01*
X395206Y44783D01*
X395418Y44713D01*
X395615Y44628D01*
X395799Y44544D01*
X395954Y44445D01*
X396109Y44360D01*
X396236Y44262D01*
X396348Y44177D01*
X396433Y44107D01*
X396503Y44036D01*
X396560Y43994D01*
X396588Y43966D01*
X396602Y43952D01*
X396757Y43754D01*
X396898Y43543D01*
X397025Y43331D01*
X397138Y43106D01*
X397222Y42866D01*
X397293Y42641D01*
X397406Y42189D01*
X397448Y41992D01*
X397476Y41795D01*
X397490Y41626D01*
X397504Y41470D01*
X397518Y41344D01*
Y41259D01*
Y41189D01*
Y41175D01*
X397504Y40864D01*
X397476Y40568D01*
X397434Y40286D01*
X397378Y40033D01*
X397307Y39793D01*
X397237Y39567D01*
X397152Y39370D01*
X397067Y39187D01*
X396983Y39032D01*
X396898Y38891D01*
X396828Y38778D01*
X396757Y38679D01*
X396701Y38595D01*
X396659Y38538D01*
X396630Y38510D01*
X396616Y38496D01*
X396433Y38327D01*
X396250Y38186D01*
X396052Y38059D01*
X395841Y37946D01*
X395644Y37862D01*
X395432Y37777D01*
X395037Y37664D01*
X394854Y37636D01*
X394685Y37608D01*
X394530Y37580D01*
X394403Y37566D01*
X394304Y37552D01*
X394149D01*
X393712Y37580D01*
X393317Y37650D01*
X392965Y37735D01*
X392824Y37791D01*
X392683Y37848D01*
X392556Y37904D01*
X392444Y37960D01*
X392359Y38003D01*
X392274Y38045D01*
X392218Y38087D01*
X392176Y38115D01*
X392147Y38144D01*
X392133D01*
X391851Y38397D01*
X391626Y38665D01*
X391428Y38947D01*
X391288Y39215D01*
X391175Y39455D01*
X391133Y39567D01*
X391090Y39652D01*
X391062Y39737D01*
X391048Y39793D01*
X391034Y39821D01*
Y39835D01*
X392274Y39990D01*
X392387Y39722D01*
X392514Y39497D01*
X392641Y39300D01*
X392754Y39144D01*
X392852Y39032D01*
X392937Y38947D01*
X393007Y38891D01*
X393022Y38877D01*
X393205Y38764D01*
X393388Y38679D01*
X393585Y38623D01*
X393755Y38581D01*
X393910Y38552D01*
X394036Y38538D01*
X394149D01*
X394318Y38552D01*
X394473Y38567D01*
X394755Y38637D01*
X395009Y38736D01*
X395235Y38849D01*
X395404Y38947D01*
X395531Y39046D01*
X395615Y39116D01*
X395629Y39144D01*
X395644D01*
X395841Y39398D01*
X395996Y39680D01*
X396109Y39990D01*
X396193Y40272D01*
X396236Y40526D01*
X396264Y40639D01*
X396278Y40738D01*
Y40822D01*
X396292Y40879D01*
Y40921D01*
Y40935D01*
X391006D01*
X390992Y41076D01*
Y41175D01*
Y41231D01*
Y41245D01*
X391006Y41569D01*
X391034Y41865D01*
X391076Y42147D01*
X391133Y42415D01*
X391203Y42655D01*
X391273Y42880D01*
X391358Y43078D01*
X391443Y43261D01*
X391527Y43430D01*
X391612Y43571D01*
X391682Y43684D01*
X391753Y43782D01*
X391809Y43867D01*
X391851Y43923D01*
X391880Y43952D01*
X391894Y43966D01*
X392063Y44135D01*
X392246Y44290D01*
X392444Y44417D01*
X392641Y44530D01*
X392838Y44628D01*
X393022Y44699D01*
X393219Y44769D01*
X393388Y44812D01*
X393571Y44854D01*
X393726Y44882D01*
X393867Y44910D01*
X393980Y44924D01*
X394079Y44938D01*
X394220D01*
X394488Y44924D01*
D02*
G37*
G36*
X345205D02*
X345458Y44896D01*
X345698Y44854D01*
X345923Y44783D01*
X346135Y44713D01*
X346332Y44628D01*
X346516Y44544D01*
X346671Y44445D01*
X346826Y44360D01*
X346953Y44262D01*
X347065Y44177D01*
X347150Y44107D01*
X347220Y44036D01*
X347277Y43994D01*
X347305Y43966D01*
X347319Y43952D01*
X347474Y43754D01*
X347615Y43543D01*
X347742Y43331D01*
X347855Y43106D01*
X347939Y42866D01*
X348010Y42641D01*
X348122Y42189D01*
X348165Y41992D01*
X348193Y41795D01*
X348207Y41626D01*
X348221Y41470D01*
X348235Y41344D01*
Y41259D01*
Y41189D01*
Y41175D01*
X348221Y40864D01*
X348193Y40568D01*
X348151Y40286D01*
X348094Y40033D01*
X348024Y39793D01*
X347953Y39567D01*
X347869Y39370D01*
X347784Y39187D01*
X347700Y39032D01*
X347615Y38891D01*
X347545Y38778D01*
X347474Y38679D01*
X347418Y38595D01*
X347375Y38538D01*
X347347Y38510D01*
X347333Y38496D01*
X347150Y38327D01*
X346967Y38186D01*
X346769Y38059D01*
X346558Y37946D01*
X346360Y37862D01*
X346149Y37777D01*
X345754Y37664D01*
X345571Y37636D01*
X345402Y37608D01*
X345247Y37580D01*
X345120Y37566D01*
X345021Y37552D01*
X344866D01*
X344429Y37580D01*
X344034Y37650D01*
X343682Y37735D01*
X343541Y37791D01*
X343400Y37848D01*
X343273Y37904D01*
X343160Y37960D01*
X343076Y38003D01*
X342991Y38045D01*
X342935Y38087D01*
X342893Y38115D01*
X342864Y38144D01*
X342850D01*
X342568Y38397D01*
X342343Y38665D01*
X342145Y38947D01*
X342004Y39215D01*
X341892Y39455D01*
X341849Y39567D01*
X341807Y39652D01*
X341779Y39737D01*
X341765Y39793D01*
X341751Y39821D01*
Y39835D01*
X342991Y39990D01*
X343104Y39722D01*
X343231Y39497D01*
X343358Y39300D01*
X343470Y39144D01*
X343569Y39032D01*
X343654Y38947D01*
X343724Y38891D01*
X343738Y38877D01*
X343922Y38764D01*
X344105Y38679D01*
X344302Y38623D01*
X344471Y38581D01*
X344627Y38552D01*
X344753Y38538D01*
X344866D01*
X345035Y38552D01*
X345190Y38567D01*
X345472Y38637D01*
X345726Y38736D01*
X345952Y38849D01*
X346121Y38947D01*
X346248Y39046D01*
X346332Y39116D01*
X346346Y39144D01*
X346360D01*
X346558Y39398D01*
X346713Y39680D01*
X346826Y39990D01*
X346910Y40272D01*
X346953Y40526D01*
X346981Y40639D01*
X346995Y40738D01*
Y40822D01*
X347009Y40879D01*
Y40921D01*
Y40935D01*
X341722D01*
X341708Y41076D01*
Y41175D01*
Y41231D01*
Y41245D01*
X341722Y41569D01*
X341751Y41865D01*
X341793Y42147D01*
X341849Y42415D01*
X341920Y42655D01*
X341990Y42880D01*
X342075Y43078D01*
X342160Y43261D01*
X342244Y43430D01*
X342329Y43571D01*
X342399Y43684D01*
X342470Y43782D01*
X342526Y43867D01*
X342568Y43923D01*
X342597Y43952D01*
X342611Y43966D01*
X342780Y44135D01*
X342963Y44290D01*
X343160Y44417D01*
X343358Y44530D01*
X343555Y44628D01*
X343738Y44699D01*
X343936Y44769D01*
X344105Y44812D01*
X344288Y44854D01*
X344443Y44882D01*
X344584Y44910D01*
X344697Y44924D01*
X344796Y44938D01*
X344937D01*
X345205Y44924D01*
D02*
G37*
G36*
X445434D02*
X445575Y44896D01*
X445716Y44854D01*
X445829Y44812D01*
X445913Y44769D01*
X445998Y44727D01*
X446040Y44699D01*
X446054Y44685D01*
X446181Y44572D01*
X446308Y44431D01*
X446435Y44262D01*
X446548Y44107D01*
X446661Y43952D01*
X446731Y43825D01*
X446787Y43726D01*
X446801Y43712D01*
Y44783D01*
X447887D01*
Y37707D01*
X446689D01*
Y41400D01*
X446675Y41682D01*
X446661Y41936D01*
X446632Y42175D01*
X446590Y42387D01*
X446548Y42556D01*
X446520Y42683D01*
X446506Y42768D01*
X446491Y42796D01*
X446435Y42951D01*
X446365Y43078D01*
X446294Y43190D01*
X446224Y43289D01*
X446153Y43359D01*
X446111Y43416D01*
X446068Y43444D01*
X446054Y43458D01*
X445942Y43543D01*
X445815Y43599D01*
X445688Y43642D01*
X445589Y43670D01*
X445490Y43684D01*
X445420Y43698D01*
X445350D01*
X445195Y43684D01*
X445039Y43656D01*
X444884Y43613D01*
X444757Y43571D01*
X444645Y43529D01*
X444560Y43486D01*
X444504Y43458D01*
X444490Y43444D01*
X444053Y44544D01*
X444292Y44671D01*
X444518Y44769D01*
X444715Y44840D01*
X444898Y44896D01*
X445053Y44924D01*
X445180Y44938D01*
X445279D01*
X445434Y44924D01*
D02*
G37*
G36*
X436511Y37707D02*
X435312D01*
Y44783D01*
X436511D01*
Y37707D01*
D02*
G37*
G36*
X416634Y44924D02*
X416775Y44896D01*
X416916Y44854D01*
X417029Y44812D01*
X417113Y44769D01*
X417198Y44727D01*
X417240Y44699D01*
X417254Y44685D01*
X417381Y44572D01*
X417508Y44431D01*
X417635Y44262D01*
X417748Y44107D01*
X417860Y43952D01*
X417931Y43825D01*
X417987Y43726D01*
X418001Y43712D01*
Y44783D01*
X419087D01*
Y37707D01*
X417889D01*
Y41400D01*
X417874Y41682D01*
X417860Y41936D01*
X417832Y42175D01*
X417790Y42387D01*
X417748Y42556D01*
X417719Y42683D01*
X417705Y42768D01*
X417691Y42796D01*
X417635Y42951D01*
X417564Y43078D01*
X417494Y43190D01*
X417423Y43289D01*
X417353Y43359D01*
X417311Y43416D01*
X417268Y43444D01*
X417254Y43458D01*
X417141Y43543D01*
X417015Y43599D01*
X416888Y43642D01*
X416789Y43670D01*
X416690Y43684D01*
X416620Y43698D01*
X416549D01*
X416394Y43684D01*
X416239Y43656D01*
X416084Y43613D01*
X415957Y43571D01*
X415844Y43529D01*
X415760Y43486D01*
X415704Y43458D01*
X415690Y43444D01*
X415252Y44544D01*
X415492Y44671D01*
X415718Y44769D01*
X415915Y44840D01*
X416098Y44896D01*
X416253Y44924D01*
X416380Y44938D01*
X416479D01*
X416634Y44924D01*
D02*
G37*
G36*
X414209Y37707D02*
X412842D01*
Y39074D01*
X414209D01*
Y37707D01*
D02*
G37*
G36*
X406780D02*
X405483D01*
Y42034D01*
X403820D01*
X403665Y42020D01*
X403552D01*
X403453Y42006D01*
X403383Y41992D01*
X403326D01*
X403298Y41978D01*
X403284D01*
X403059Y41908D01*
X402960Y41865D01*
X402875Y41823D01*
X402791Y41781D01*
X402734Y41753D01*
X402706Y41738D01*
X402692Y41724D01*
X402579Y41640D01*
X402467Y41541D01*
X402255Y41330D01*
X402156Y41231D01*
X402086Y41146D01*
X402044Y41090D01*
X402029Y41076D01*
X401889Y40879D01*
X401733Y40667D01*
X401578Y40441D01*
X401423Y40230D01*
X401296Y40033D01*
X401198Y39878D01*
X401156Y39821D01*
X401127Y39779D01*
X401099Y39751D01*
Y39737D01*
X399816Y37707D01*
X398209D01*
X399887Y40357D01*
X400084Y40639D01*
X400267Y40893D01*
X400451Y41104D01*
X400606Y41301D01*
X400747Y41442D01*
X400859Y41555D01*
X400930Y41626D01*
X400958Y41654D01*
X401071Y41738D01*
X401198Y41837D01*
X401451Y41992D01*
X401564Y42049D01*
X401649Y42105D01*
X401705Y42133D01*
X401733Y42147D01*
X401480Y42189D01*
X401240Y42232D01*
X401029Y42302D01*
X400817Y42359D01*
X400634Y42429D01*
X400465Y42514D01*
X400310Y42584D01*
X400169Y42655D01*
X400056Y42739D01*
X399943Y42810D01*
X399859Y42866D01*
X399788Y42923D01*
X399732Y42965D01*
X399689Y43007D01*
X399675Y43021D01*
X399661Y43035D01*
X399548Y43176D01*
X399436Y43317D01*
X399267Y43613D01*
X399154Y43909D01*
X399069Y44191D01*
X399013Y44431D01*
X398999Y44530D01*
Y44628D01*
X398984Y44699D01*
Y44755D01*
Y44783D01*
Y44797D01*
X398999Y45093D01*
X399041Y45361D01*
X399111Y45615D01*
X399182Y45827D01*
X399267Y46010D01*
X399323Y46151D01*
X399379Y46235D01*
X399393Y46249D01*
Y46263D01*
X399562Y46489D01*
X399732Y46686D01*
X399915Y46856D01*
X400084Y46982D01*
X400239Y47081D01*
X400366Y47137D01*
X400451Y47180D01*
X400465Y47194D01*
X400479D01*
X400606Y47236D01*
X400761Y47278D01*
X401071Y47349D01*
X401409Y47391D01*
X401719Y47434D01*
X402015Y47448D01*
X402142D01*
X402255Y47462D01*
X406780D01*
Y37707D01*
D02*
G37*
G36*
X386480Y44924D02*
X386734Y44882D01*
X386960Y44826D01*
X387185Y44755D01*
X387383Y44671D01*
X387566Y44572D01*
X387735Y44459D01*
X387876Y44360D01*
X388017Y44248D01*
X388130Y44135D01*
X388228Y44036D01*
X388313Y43952D01*
X388369Y43881D01*
X388412Y43825D01*
X388440Y43782D01*
X388454Y43768D01*
Y44783D01*
X389525D01*
Y37707D01*
X388327D01*
Y41555D01*
Y41795D01*
X388299Y42034D01*
X388271Y42232D01*
X388243Y42415D01*
X388200Y42584D01*
X388158Y42739D01*
X388102Y42880D01*
X388045Y42993D01*
X388003Y43092D01*
X387947Y43176D01*
X387904Y43247D01*
X387862Y43303D01*
X387806Y43374D01*
X387777Y43402D01*
X387566Y43571D01*
X387340Y43684D01*
X387115Y43768D01*
X386917Y43839D01*
X386734Y43867D01*
X386593Y43881D01*
X386537Y43895D01*
X386466D01*
X386297Y43881D01*
X386128Y43867D01*
X385987Y43825D01*
X385874Y43782D01*
X385776Y43740D01*
X385691Y43712D01*
X385649Y43684D01*
X385635Y43670D01*
X385508Y43585D01*
X385395Y43486D01*
X385310Y43388D01*
X385240Y43303D01*
X385198Y43219D01*
X385155Y43148D01*
X385127Y43106D01*
Y43092D01*
X385085Y42937D01*
X385043Y42768D01*
X385014Y42584D01*
X385000Y42401D01*
X384986Y42246D01*
Y42119D01*
Y42020D01*
Y42006D01*
Y41992D01*
Y37707D01*
X383788D01*
Y42049D01*
Y42344D01*
X383802Y42584D01*
X383816Y42782D01*
Y42951D01*
X383830Y43064D01*
X383844Y43148D01*
X383858Y43204D01*
Y43219D01*
X383901Y43402D01*
X383971Y43571D01*
X384028Y43712D01*
X384084Y43853D01*
X384155Y43952D01*
X384197Y44022D01*
X384225Y44078D01*
X384239Y44093D01*
X384352Y44233D01*
X384479Y44346D01*
X384606Y44459D01*
X384747Y44544D01*
X384859Y44614D01*
X384958Y44657D01*
X385014Y44685D01*
X385043Y44699D01*
X385240Y44783D01*
X385451Y44840D01*
X385649Y44882D01*
X385832Y44910D01*
X385987Y44924D01*
X386100Y44938D01*
X386213D01*
X386480Y44924D01*
D02*
G37*
G36*
X364320Y46306D02*
X361106D01*
Y37707D01*
X359809D01*
Y46306D01*
X356595D01*
Y47462D01*
X364320D01*
Y46306D01*
D02*
G37*
G36*
X330219Y44924D02*
X330360Y44896D01*
X330501Y44854D01*
X330614Y44812D01*
X330699Y44769D01*
X330783Y44727D01*
X330826Y44699D01*
X330840Y44685D01*
X330966Y44572D01*
X331093Y44431D01*
X331220Y44262D01*
X331333Y44107D01*
X331446Y43952D01*
X331516Y43825D01*
X331573Y43726D01*
X331587Y43712D01*
Y44783D01*
X332672D01*
Y37707D01*
X331474D01*
Y41400D01*
X331460Y41682D01*
X331446Y41936D01*
X331418Y42175D01*
X331375Y42387D01*
X331333Y42556D01*
X331305Y42683D01*
X331291Y42768D01*
X331277Y42796D01*
X331220Y42951D01*
X331150Y43078D01*
X331079Y43190D01*
X331009Y43289D01*
X330938Y43359D01*
X330896Y43416D01*
X330854Y43444D01*
X330840Y43458D01*
X330727Y43543D01*
X330600Y43599D01*
X330473Y43642D01*
X330374Y43670D01*
X330276Y43684D01*
X330205Y43698D01*
X330135D01*
X329980Y43684D01*
X329825Y43656D01*
X329670Y43613D01*
X329543Y43571D01*
X329430Y43529D01*
X329345Y43486D01*
X329289Y43458D01*
X329275Y43444D01*
X328838Y44544D01*
X329077Y44671D01*
X329303Y44769D01*
X329500Y44840D01*
X329684Y44896D01*
X329839Y44924D01*
X329966Y44938D01*
X330064D01*
X330219Y44924D01*
D02*
G37*
G36*
X431563Y44910D02*
X431732Y44896D01*
X431887Y44868D01*
X432014Y44840D01*
X432113Y44812D01*
X432169Y44797D01*
X432197Y44783D01*
X432366Y44727D01*
X432521Y44671D01*
X432648Y44614D01*
X432761Y44558D01*
X432845Y44516D01*
X432902Y44473D01*
X432944Y44459D01*
X432958Y44445D01*
X433099Y44346D01*
X433212Y44233D01*
X433311Y44107D01*
X433395Y44008D01*
X433466Y43909D01*
X433508Y43839D01*
X433536Y43782D01*
X433550Y43768D01*
X433621Y43613D01*
X433677Y43472D01*
X433705Y43317D01*
X433734Y43190D01*
X433748Y43064D01*
X433762Y42979D01*
Y42923D01*
Y42894D01*
X433748Y42697D01*
X433719Y42528D01*
X433677Y42359D01*
X433635Y42218D01*
X433593Y42105D01*
X433550Y42006D01*
X433522Y41950D01*
X433508Y41936D01*
X433395Y41781D01*
X433268Y41654D01*
X433142Y41541D01*
X433015Y41442D01*
X432902Y41372D01*
X432817Y41315D01*
X432761Y41287D01*
X432733Y41273D01*
X432634Y41231D01*
X432507Y41175D01*
X432225Y41076D01*
X431929Y40991D01*
X431619Y40893D01*
X431351Y40822D01*
X431224Y40780D01*
X431112Y40752D01*
X431027Y40723D01*
X430956Y40709D01*
X430914Y40695D01*
X430900D01*
X430717Y40653D01*
X430562Y40611D01*
X430421Y40568D01*
X430294Y40526D01*
X430181Y40498D01*
X430083Y40455D01*
X429913Y40399D01*
X429801Y40357D01*
X429730Y40315D01*
X429688Y40300D01*
X429674Y40286D01*
X429547Y40202D01*
X429462Y40089D01*
X429392Y39990D01*
X429350Y39892D01*
X429321Y39793D01*
X429307Y39722D01*
Y39666D01*
Y39652D01*
X429321Y39483D01*
X429364Y39342D01*
X429434Y39201D01*
X429505Y39088D01*
X429589Y38990D01*
X429646Y38919D01*
X429702Y38877D01*
X429716Y38863D01*
X429885Y38750D01*
X430068Y38679D01*
X430280Y38623D01*
X430477Y38581D01*
X430661Y38552D01*
X430801Y38538D01*
X430942D01*
X431239Y38552D01*
X431492Y38595D01*
X431704Y38651D01*
X431887Y38722D01*
X432028Y38792D01*
X432141Y38849D01*
X432197Y38891D01*
X432225Y38905D01*
X432380Y39060D01*
X432507Y39243D01*
X432592Y39427D01*
X432662Y39596D01*
X432719Y39751D01*
X432747Y39892D01*
X432775Y39976D01*
Y39990D01*
Y40004D01*
X433959Y39821D01*
X433861Y39427D01*
X433734Y39074D01*
X433579Y38792D01*
X433424Y38552D01*
X433283Y38355D01*
X433156Y38228D01*
X433071Y38144D01*
X433057Y38129D01*
X433043Y38115D01*
X432902Y38017D01*
X432747Y37932D01*
X432408Y37791D01*
X432056Y37692D01*
X431718Y37622D01*
X431563Y37594D01*
X431422Y37580D01*
X431281Y37566D01*
X431168D01*
X431069Y37552D01*
X430942D01*
X430632Y37566D01*
X430364Y37594D01*
X430111Y37636D01*
X429885Y37692D01*
X429702Y37749D01*
X429561Y37791D01*
X429476Y37819D01*
X429462Y37833D01*
X429448D01*
X429208Y37960D01*
X429011Y38087D01*
X428842Y38228D01*
X428687Y38355D01*
X428574Y38468D01*
X428504Y38567D01*
X428447Y38623D01*
X428433Y38651D01*
X428320Y38849D01*
X428236Y39060D01*
X428165Y39243D01*
X428123Y39412D01*
X428095Y39567D01*
X428081Y39680D01*
Y39751D01*
Y39779D01*
X428095Y40004D01*
X428123Y40202D01*
X428179Y40371D01*
X428222Y40526D01*
X428278Y40653D01*
X428335Y40738D01*
X428363Y40794D01*
X428377Y40808D01*
X428489Y40949D01*
X428616Y41076D01*
X428743Y41189D01*
X428870Y41273D01*
X428997Y41344D01*
X429082Y41386D01*
X429138Y41414D01*
X429166Y41428D01*
X429265Y41470D01*
X429378Y41513D01*
X429646Y41611D01*
X429941Y41710D01*
X430238Y41795D01*
X430505Y41879D01*
X430632Y41908D01*
X430731Y41936D01*
X430816Y41964D01*
X430886Y41978D01*
X430928Y41992D01*
X430942D01*
X431097Y42034D01*
X431239Y42077D01*
X431365Y42105D01*
X431478Y42147D01*
X431661Y42189D01*
X431802Y42232D01*
X431901Y42274D01*
X431957Y42288D01*
X431986Y42302D01*
X432000D01*
X432113Y42359D01*
X432211Y42401D01*
X432296Y42457D01*
X432352Y42500D01*
X432408Y42542D01*
X432437Y42584D01*
X432451Y42598D01*
X432465Y42612D01*
X432550Y42753D01*
X432592Y42894D01*
Y42951D01*
X432606Y42993D01*
Y43021D01*
Y43035D01*
X432592Y43162D01*
X432550Y43289D01*
X432493Y43402D01*
X432423Y43486D01*
X432366Y43571D01*
X432310Y43627D01*
X432267Y43656D01*
X432253Y43670D01*
X432098Y43768D01*
X431915Y43839D01*
X431718Y43881D01*
X431535Y43923D01*
X431351Y43938D01*
X431210Y43952D01*
X431069D01*
X430830Y43938D01*
X430604Y43909D01*
X430421Y43853D01*
X430280Y43797D01*
X430153Y43740D01*
X430068Y43684D01*
X430012Y43656D01*
X429998Y43642D01*
X429857Y43515D01*
X429758Y43374D01*
X429674Y43233D01*
X429603Y43106D01*
X429561Y42979D01*
X429533Y42880D01*
X429519Y42824D01*
Y42796D01*
X428349Y42951D01*
X428405Y43190D01*
X428461Y43402D01*
X428532Y43585D01*
X428602Y43754D01*
X428673Y43867D01*
X428729Y43966D01*
X428757Y44022D01*
X428772Y44036D01*
X428898Y44177D01*
X429039Y44304D01*
X429194Y44417D01*
X429350Y44516D01*
X429490Y44586D01*
X429603Y44642D01*
X429674Y44671D01*
X429688Y44685D01*
X429702D01*
X429941Y44769D01*
X430195Y44826D01*
X430435Y44882D01*
X430661Y44910D01*
X430872Y44924D01*
X431027Y44938D01*
X431365D01*
X431563Y44910D01*
D02*
G37*
G36*
X424035Y44924D02*
X424260Y44910D01*
X424697Y44812D01*
X425078Y44685D01*
X425247Y44614D01*
X425402Y44544D01*
X425543Y44473D01*
X425656Y44403D01*
X425769Y44332D01*
X425853Y44276D01*
X425924Y44219D01*
X425980Y44177D01*
X426008Y44163D01*
X426023Y44149D01*
X426220Y43966D01*
X426375Y43754D01*
X426530Y43529D01*
X426643Y43303D01*
X426756Y43064D01*
X426840Y42810D01*
X426911Y42570D01*
X426967Y42344D01*
X427024Y42119D01*
X427052Y41922D01*
X427080Y41724D01*
X427094Y41569D01*
Y41428D01*
X427108Y41330D01*
Y41273D01*
Y41245D01*
X427094Y40921D01*
X427066Y40611D01*
X427024Y40329D01*
X426967Y40061D01*
X426897Y39821D01*
X426826Y39596D01*
X426741Y39384D01*
X426657Y39201D01*
X426572Y39032D01*
X426488Y38891D01*
X426417Y38778D01*
X426347Y38679D01*
X426290Y38595D01*
X426248Y38538D01*
X426220Y38510D01*
X426206Y38496D01*
X426023Y38327D01*
X425839Y38186D01*
X425642Y38059D01*
X425445Y37946D01*
X425247Y37862D01*
X425036Y37777D01*
X424655Y37664D01*
X424486Y37636D01*
X424317Y37608D01*
X424176Y37580D01*
X424049Y37566D01*
X423936Y37552D01*
X423795D01*
X423457Y37566D01*
X423147Y37622D01*
X422851Y37692D01*
X422611Y37763D01*
X422400Y37848D01*
X422315Y37876D01*
X422245Y37904D01*
X422174Y37932D01*
X422132Y37960D01*
X422118Y37975D01*
X422104D01*
X421822Y38158D01*
X421582Y38355D01*
X421371Y38552D01*
X421201Y38750D01*
X421074Y38919D01*
X420976Y39060D01*
X420948Y39116D01*
X420919Y39159D01*
X420905Y39173D01*
Y39187D01*
X420764Y39511D01*
X420666Y39864D01*
X420581Y40216D01*
X420539Y40568D01*
X420511Y40723D01*
Y40864D01*
X420496Y41005D01*
X420482Y41118D01*
Y41217D01*
Y41287D01*
Y41330D01*
Y41344D01*
X420496Y41654D01*
X420525Y41936D01*
X420567Y42204D01*
X420623Y42457D01*
X420694Y42697D01*
X420779Y42908D01*
X420863Y43120D01*
X420948Y43289D01*
X421032Y43444D01*
X421117Y43585D01*
X421201Y43712D01*
X421272Y43811D01*
X421328Y43881D01*
X421371Y43938D01*
X421399Y43966D01*
X421413Y43980D01*
X421596Y44149D01*
X421779Y44290D01*
X421977Y44431D01*
X422174Y44530D01*
X422371Y44628D01*
X422569Y44699D01*
X422949Y44826D01*
X423133Y44854D01*
X423288Y44882D01*
X423429Y44910D01*
X423556Y44924D01*
X423654Y44938D01*
X423795D01*
X424035Y44924D01*
D02*
G37*
G36*
X380024Y44910D02*
X380193Y44896D01*
X380348Y44868D01*
X380475Y44840D01*
X380574Y44812D01*
X380630Y44797D01*
X380658Y44783D01*
X380828Y44727D01*
X380983Y44671D01*
X381110Y44614D01*
X381222Y44558D01*
X381307Y44516D01*
X381363Y44473D01*
X381406Y44459D01*
X381420Y44445D01*
X381561Y44346D01*
X381673Y44233D01*
X381772Y44107D01*
X381857Y44008D01*
X381927Y43909D01*
X381969Y43839D01*
X381998Y43782D01*
X382012Y43768D01*
X382082Y43613D01*
X382139Y43472D01*
X382167Y43317D01*
X382195Y43190D01*
X382209Y43064D01*
X382223Y42979D01*
Y42923D01*
Y42894D01*
X382209Y42697D01*
X382181Y42528D01*
X382139Y42359D01*
X382096Y42218D01*
X382054Y42105D01*
X382012Y42006D01*
X381983Y41950D01*
X381969Y41936D01*
X381857Y41781D01*
X381730Y41654D01*
X381603Y41541D01*
X381476Y41442D01*
X381363Y41372D01*
X381279Y41315D01*
X381222Y41287D01*
X381194Y41273D01*
X381095Y41231D01*
X380969Y41175D01*
X380687Y41076D01*
X380391Y40991D01*
X380080Y40893D01*
X379813Y40822D01*
X379686Y40780D01*
X379573Y40752D01*
X379488Y40723D01*
X379418Y40709D01*
X379376Y40695D01*
X379361D01*
X379178Y40653D01*
X379023Y40611D01*
X378882Y40568D01*
X378755Y40526D01*
X378643Y40498D01*
X378544Y40455D01*
X378375Y40399D01*
X378262Y40357D01*
X378191Y40315D01*
X378149Y40300D01*
X378135Y40286D01*
X378008Y40202D01*
X377924Y40089D01*
X377853Y39990D01*
X377811Y39892D01*
X377783Y39793D01*
X377769Y39722D01*
Y39666D01*
Y39652D01*
X377783Y39483D01*
X377825Y39342D01*
X377895Y39201D01*
X377966Y39088D01*
X378050Y38990D01*
X378107Y38919D01*
X378163Y38877D01*
X378177Y38863D01*
X378346Y38750D01*
X378530Y38679D01*
X378741Y38623D01*
X378939Y38581D01*
X379122Y38552D01*
X379263Y38538D01*
X379404D01*
X379700Y38552D01*
X379954Y38595D01*
X380165Y38651D01*
X380348Y38722D01*
X380489Y38792D01*
X380602Y38849D01*
X380658Y38891D01*
X380687Y38905D01*
X380842Y39060D01*
X380969Y39243D01*
X381053Y39427D01*
X381124Y39596D01*
X381180Y39751D01*
X381208Y39892D01*
X381236Y39976D01*
Y39990D01*
Y40004D01*
X382421Y39821D01*
X382322Y39427D01*
X382195Y39074D01*
X382040Y38792D01*
X381885Y38552D01*
X381744Y38355D01*
X381617Y38228D01*
X381532Y38144D01*
X381518Y38129D01*
X381504Y38115D01*
X381363Y38017D01*
X381208Y37932D01*
X380870Y37791D01*
X380518Y37692D01*
X380179Y37622D01*
X380024Y37594D01*
X379883Y37580D01*
X379742Y37566D01*
X379629D01*
X379531Y37552D01*
X379404D01*
X379094Y37566D01*
X378826Y37594D01*
X378572Y37636D01*
X378346Y37692D01*
X378163Y37749D01*
X378022Y37791D01*
X377938Y37819D01*
X377924Y37833D01*
X377910D01*
X377670Y37960D01*
X377472Y38087D01*
X377303Y38228D01*
X377148Y38355D01*
X377035Y38468D01*
X376965Y38567D01*
X376909Y38623D01*
X376894Y38651D01*
X376782Y38849D01*
X376697Y39060D01*
X376627Y39243D01*
X376584Y39412D01*
X376556Y39567D01*
X376542Y39680D01*
Y39751D01*
Y39779D01*
X376556Y40004D01*
X376584Y40202D01*
X376641Y40371D01*
X376683Y40526D01*
X376740Y40653D01*
X376796Y40738D01*
X376824Y40794D01*
X376838Y40808D01*
X376951Y40949D01*
X377078Y41076D01*
X377205Y41189D01*
X377332Y41273D01*
X377458Y41344D01*
X377543Y41386D01*
X377599Y41414D01*
X377628Y41428D01*
X377726Y41470D01*
X377839Y41513D01*
X378107Y41611D01*
X378403Y41710D01*
X378699Y41795D01*
X378967Y41879D01*
X379094Y41908D01*
X379192Y41936D01*
X379277Y41964D01*
X379347Y41978D01*
X379390Y41992D01*
X379404D01*
X379559Y42034D01*
X379700Y42077D01*
X379827Y42105D01*
X379939Y42147D01*
X380123Y42189D01*
X380264Y42232D01*
X380362Y42274D01*
X380419Y42288D01*
X380447Y42302D01*
X380461D01*
X380574Y42359D01*
X380672Y42401D01*
X380757Y42457D01*
X380813Y42500D01*
X380870Y42542D01*
X380898Y42584D01*
X380912Y42598D01*
X380926Y42612D01*
X381011Y42753D01*
X381053Y42894D01*
Y42951D01*
X381067Y42993D01*
Y43021D01*
Y43035D01*
X381053Y43162D01*
X381011Y43289D01*
X380955Y43402D01*
X380884Y43486D01*
X380828Y43571D01*
X380771Y43627D01*
X380729Y43656D01*
X380715Y43670D01*
X380560Y43768D01*
X380377Y43839D01*
X380179Y43881D01*
X379996Y43923D01*
X379813Y43938D01*
X379672Y43952D01*
X379531D01*
X379291Y43938D01*
X379066Y43909D01*
X378882Y43853D01*
X378741Y43797D01*
X378614Y43740D01*
X378530Y43684D01*
X378473Y43656D01*
X378459Y43642D01*
X378318Y43515D01*
X378220Y43374D01*
X378135Y43233D01*
X378065Y43106D01*
X378022Y42979D01*
X377994Y42880D01*
X377980Y42824D01*
Y42796D01*
X376810Y42951D01*
X376866Y43190D01*
X376923Y43402D01*
X376993Y43585D01*
X377064Y43754D01*
X377134Y43867D01*
X377191Y43966D01*
X377219Y44022D01*
X377233Y44036D01*
X377360Y44177D01*
X377501Y44304D01*
X377656Y44417D01*
X377811Y44516D01*
X377952Y44586D01*
X378065Y44642D01*
X378135Y44671D01*
X378149Y44685D01*
X378163D01*
X378403Y44769D01*
X378657Y44826D01*
X378896Y44882D01*
X379122Y44910D01*
X379333Y44924D01*
X379488Y44938D01*
X379827D01*
X380024Y44910D01*
D02*
G37*
G36*
X476574Y47617D02*
X476899Y47575D01*
X477209Y47518D01*
X477477Y47462D01*
X477688Y47405D01*
X477787Y47377D01*
X477857Y47349D01*
X477914Y47321D01*
X477956Y47307D01*
X477984Y47293D01*
X477998D01*
X478280Y47152D01*
X478534Y46997D01*
X478745Y46827D01*
X478914Y46672D01*
X479041Y46531D01*
X479140Y46419D01*
X479211Y46334D01*
X479225Y46320D01*
Y46306D01*
X479366Y46066D01*
X479464Y45827D01*
X479535Y45587D01*
X479577Y45375D01*
X479605Y45192D01*
X479633Y45051D01*
Y44995D01*
Y44953D01*
Y44938D01*
Y44924D01*
X479619Y44685D01*
X479577Y44459D01*
X479521Y44248D01*
X479464Y44064D01*
X479408Y43923D01*
X479352Y43811D01*
X479309Y43740D01*
X479295Y43712D01*
X479154Y43515D01*
X478985Y43331D01*
X478816Y43176D01*
X478647Y43049D01*
X478506Y42937D01*
X478379Y42866D01*
X478294Y42810D01*
X478280Y42796D01*
X478266D01*
X478153Y42739D01*
X478026Y42683D01*
X477744Y42584D01*
X477420Y42485D01*
X477110Y42387D01*
X476828Y42302D01*
X476701Y42274D01*
X476589Y42246D01*
X476504Y42218D01*
X476433Y42204D01*
X476391Y42189D01*
X476377D01*
X476137Y42133D01*
X475912Y42077D01*
X475714Y42020D01*
X475545Y41978D01*
X475376Y41936D01*
X475235Y41893D01*
X475108Y41865D01*
X475010Y41823D01*
X474911Y41795D01*
X474841Y41781D01*
X474728Y41738D01*
X474657Y41724D01*
X474643Y41710D01*
X474432Y41626D01*
X474248Y41527D01*
X474093Y41428D01*
X473981Y41344D01*
X473882Y41259D01*
X473825Y41203D01*
X473783Y41160D01*
X473769Y41146D01*
X473670Y41019D01*
X473600Y40879D01*
X473558Y40738D01*
X473515Y40625D01*
X473501Y40512D01*
X473487Y40427D01*
Y40357D01*
Y40343D01*
X473501Y40174D01*
X473530Y40019D01*
X473572Y39878D01*
X473628Y39765D01*
X473685Y39652D01*
X473727Y39581D01*
X473755Y39525D01*
X473769Y39511D01*
X473882Y39370D01*
X474023Y39257D01*
X474164Y39159D01*
X474291Y39060D01*
X474418Y39004D01*
X474516Y38947D01*
X474587Y38919D01*
X474615Y38905D01*
X474826Y38834D01*
X475052Y38778D01*
X475277Y38750D01*
X475475Y38722D01*
X475644Y38707D01*
X475785Y38693D01*
X475912D01*
X476222Y38707D01*
X476504Y38736D01*
X476758Y38778D01*
X476983Y38834D01*
X477166Y38891D01*
X477308Y38933D01*
X477350Y38947D01*
X477392Y38961D01*
X477406Y38975D01*
X477420D01*
X477646Y39088D01*
X477857Y39215D01*
X478012Y39342D01*
X478153Y39469D01*
X478266Y39567D01*
X478336Y39666D01*
X478379Y39722D01*
X478393Y39737D01*
X478492Y39920D01*
X478590Y40117D01*
X478647Y40329D01*
X478703Y40512D01*
X478745Y40695D01*
X478773Y40822D01*
Y40879D01*
X478788Y40921D01*
Y40935D01*
Y40949D01*
X480000Y40836D01*
X479972Y40484D01*
X479915Y40145D01*
X479831Y39849D01*
X479732Y39581D01*
X479633Y39370D01*
X479591Y39286D01*
X479563Y39215D01*
X479521Y39159D01*
X479507Y39116D01*
X479478Y39088D01*
Y39074D01*
X479267Y38806D01*
X479041Y38567D01*
X478802Y38369D01*
X478576Y38200D01*
X478379Y38073D01*
X478210Y37989D01*
X478153Y37960D01*
X478111Y37932D01*
X478083Y37918D01*
X478069D01*
X477716Y37791D01*
X477350Y37692D01*
X476983Y37636D01*
X476631Y37580D01*
X476462Y37566D01*
X476321Y37552D01*
X476194D01*
X476081Y37538D01*
X475855D01*
X475475Y37552D01*
X475122Y37594D01*
X474798Y37664D01*
X474530Y37735D01*
X474305Y37791D01*
X474206Y37833D01*
X474122Y37862D01*
X474065Y37890D01*
X474023Y37904D01*
X473995Y37918D01*
X473981D01*
X473685Y38073D01*
X473431Y38242D01*
X473205Y38426D01*
X473022Y38595D01*
X472881Y38736D01*
X472782Y38863D01*
X472712Y38947D01*
X472698Y38961D01*
Y38975D01*
X472543Y39243D01*
X472430Y39497D01*
X472359Y39737D01*
X472303Y39962D01*
X472275Y40160D01*
X472247Y40315D01*
Y40371D01*
Y40413D01*
Y40427D01*
Y40441D01*
X472261Y40723D01*
X472303Y40991D01*
X472374Y41231D01*
X472444Y41428D01*
X472529Y41597D01*
X472585Y41724D01*
X472641Y41795D01*
X472655Y41823D01*
X472825Y42034D01*
X473022Y42232D01*
X473233Y42401D01*
X473445Y42556D01*
X473628Y42669D01*
X473783Y42753D01*
X473840Y42782D01*
X473882Y42810D01*
X473910Y42824D01*
X473924D01*
X474037Y42880D01*
X474178Y42923D01*
X474333Y42979D01*
X474502Y43035D01*
X474855Y43134D01*
X475221Y43233D01*
X475390Y43275D01*
X475545Y43317D01*
X475700Y43359D01*
X475827Y43388D01*
X475926Y43416D01*
X476011Y43430D01*
X476067Y43444D01*
X476081D01*
X476363Y43515D01*
X476617Y43571D01*
X476842Y43642D01*
X477040Y43698D01*
X477223Y43768D01*
X477378Y43825D01*
X477519Y43881D01*
X477646Y43923D01*
X477744Y43980D01*
X477829Y44022D01*
X477885Y44050D01*
X477942Y44093D01*
X478012Y44135D01*
X478026Y44149D01*
X478153Y44290D01*
X478238Y44431D01*
X478308Y44572D01*
X478351Y44713D01*
X478379Y44826D01*
X478393Y44924D01*
Y44981D01*
Y45009D01*
X478365Y45234D01*
X478308Y45432D01*
X478224Y45601D01*
X478125Y45756D01*
X478041Y45869D01*
X477956Y45967D01*
X477900Y46024D01*
X477871Y46038D01*
X477759Y46108D01*
X477646Y46179D01*
X477378Y46292D01*
X477096Y46362D01*
X476814Y46419D01*
X476560Y46447D01*
X476447Y46461D01*
X476363Y46475D01*
X476166D01*
X475771Y46461D01*
X475419Y46405D01*
X475136Y46320D01*
X474897Y46235D01*
X474714Y46151D01*
X474573Y46066D01*
X474502Y46010D01*
X474474Y45996D01*
X474277Y45798D01*
X474122Y45587D01*
X473995Y45361D01*
X473910Y45136D01*
X473854Y44924D01*
X473811Y44769D01*
X473797Y44699D01*
X473783Y44657D01*
Y44628D01*
Y44614D01*
X472543Y44713D01*
X472571Y45023D01*
X472641Y45305D01*
X472712Y45573D01*
X472811Y45798D01*
X472895Y45982D01*
X472966Y46122D01*
X472994Y46165D01*
X473022Y46207D01*
X473036Y46221D01*
Y46235D01*
X473219Y46475D01*
X473417Y46686D01*
X473628Y46870D01*
X473840Y47011D01*
X474023Y47137D01*
X474164Y47208D01*
X474220Y47236D01*
X474263Y47264D01*
X474291Y47278D01*
X474305D01*
X474615Y47391D01*
X474953Y47476D01*
X475263Y47546D01*
X475559Y47589D01*
X475827Y47617D01*
X475926D01*
X476025Y47631D01*
X476208D01*
X476574Y47617D01*
D02*
G37*
G36*
X460165Y44924D02*
X460391Y44896D01*
X460588Y44854D01*
X460758Y44797D01*
X460899Y44741D01*
X461011Y44699D01*
X461068Y44671D01*
X461096Y44657D01*
X461265Y44544D01*
X461434Y44417D01*
X461575Y44290D01*
X461702Y44149D01*
X461815Y44036D01*
X461885Y43938D01*
X461942Y43881D01*
X461956Y43853D01*
Y44783D01*
X463041D01*
Y35000D01*
X461843D01*
Y38440D01*
X461730Y38299D01*
X461603Y38172D01*
X461462Y38059D01*
X461350Y37975D01*
X461237Y37890D01*
X461152Y37833D01*
X461082Y37805D01*
X461068Y37791D01*
X460884Y37707D01*
X460701Y37650D01*
X460518Y37608D01*
X460349Y37580D01*
X460208Y37566D01*
X460095Y37552D01*
X459996D01*
X459700Y37566D01*
X459404Y37622D01*
X459151Y37692D01*
X458911Y37777D01*
X458713Y37862D01*
X458573Y37932D01*
X458516Y37960D01*
X458474Y37989D01*
X458460Y38003D01*
X458446D01*
X458178Y38200D01*
X457952Y38412D01*
X457755Y38623D01*
X457600Y38834D01*
X457473Y39032D01*
X457374Y39187D01*
X457346Y39243D01*
X457318Y39286D01*
X457304Y39314D01*
Y39328D01*
X457177Y39666D01*
X457078Y40004D01*
X457008Y40329D01*
X456951Y40639D01*
X456923Y40893D01*
Y41005D01*
X456909Y41104D01*
Y41189D01*
Y41245D01*
Y41273D01*
Y41287D01*
X456923Y41654D01*
X456965Y42006D01*
X457022Y42316D01*
X457092Y42598D01*
X457163Y42824D01*
X457191Y42923D01*
X457219Y43007D01*
X457247Y43064D01*
X457262Y43106D01*
X457276Y43134D01*
Y43148D01*
X457417Y43444D01*
X457586Y43712D01*
X457755Y43938D01*
X457924Y44121D01*
X458079Y44262D01*
X458206Y44374D01*
X458291Y44431D01*
X458305Y44459D01*
X458319D01*
X458587Y44614D01*
X458854Y44741D01*
X459122Y44826D01*
X459376Y44882D01*
X459588Y44910D01*
X459686Y44924D01*
X459757Y44938D01*
X459912D01*
X460165Y44924D01*
D02*
G37*
G36*
X457332Y100897D02*
X455457D01*
Y102631D01*
X457332D01*
Y100897D01*
D02*
G37*
G36*
X438245Y101362D02*
Y99952D01*
X439105D01*
Y98458D01*
X438245D01*
Y95371D01*
Y95188D01*
Y95033D01*
Y94878D01*
X438231Y94751D01*
Y94525D01*
X438217Y94342D01*
X438202Y94201D01*
Y94116D01*
X438188Y94060D01*
Y94046D01*
X438160Y93891D01*
X438118Y93750D01*
X438075Y93623D01*
X438033Y93524D01*
X437991Y93440D01*
X437963Y93383D01*
X437949Y93341D01*
X437934Y93327D01*
X437850Y93228D01*
X437751Y93144D01*
X437554Y93003D01*
X437469Y92960D01*
X437399Y92918D01*
X437342Y92904D01*
X437328Y92890D01*
X437173Y92833D01*
X437018Y92791D01*
X436863Y92763D01*
X436722Y92749D01*
X436595Y92735D01*
X436497Y92721D01*
X436412D01*
X436116Y92735D01*
X435834Y92763D01*
X435580Y92805D01*
X435369Y92862D01*
X435186Y92904D01*
X435045Y92946D01*
X434960Y92975D01*
X434946Y92989D01*
X434932D01*
X435101Y94441D01*
X435270Y94384D01*
X435425Y94342D01*
X435552Y94314D01*
X435665Y94300D01*
X435750Y94285D01*
X435806Y94271D01*
X435862D01*
X435989Y94285D01*
X436088Y94314D01*
X436144Y94342D01*
X436172Y94356D01*
X436257Y94441D01*
X436299Y94511D01*
X436328Y94567D01*
X436342Y94596D01*
Y94624D01*
X436356Y94680D01*
Y94807D01*
Y94976D01*
X436370Y95145D01*
Y95315D01*
Y95456D01*
Y95512D01*
Y95554D01*
Y95582D01*
Y95597D01*
Y98458D01*
X435087D01*
Y99952D01*
X436370D01*
Y102462D01*
X438245Y101362D01*
D02*
G37*
G36*
X443207Y100093D02*
X443475Y100065D01*
X443742Y100023D01*
X443968Y99952D01*
X444194Y99882D01*
X444405Y99797D01*
X444588Y99713D01*
X444757Y99614D01*
X444912Y99530D01*
X445039Y99431D01*
X445152Y99346D01*
X445251Y99276D01*
X445321Y99205D01*
X445378Y99163D01*
X445406Y99135D01*
X445420Y99121D01*
X445575Y98923D01*
X445716Y98726D01*
X445843Y98515D01*
X445956Y98289D01*
X446040Y98063D01*
X446111Y97838D01*
X446224Y97401D01*
X446266Y97190D01*
X446294Y97006D01*
X446308Y96837D01*
X446322Y96682D01*
X446336Y96569D01*
Y96470D01*
Y96414D01*
Y96400D01*
X446322Y96090D01*
X446294Y95780D01*
X446252Y95512D01*
X446195Y95244D01*
X446125Y95004D01*
X446040Y94779D01*
X445970Y94581D01*
X445871Y94398D01*
X445787Y94229D01*
X445716Y94088D01*
X445631Y93975D01*
X445561Y93877D01*
X445505Y93792D01*
X445462Y93736D01*
X445434Y93708D01*
X445420Y93693D01*
X445237Y93524D01*
X445053Y93369D01*
X444856Y93242D01*
X444645Y93130D01*
X444447Y93031D01*
X444236Y92960D01*
X444039Y92890D01*
X443841Y92848D01*
X443658Y92805D01*
X443489Y92777D01*
X443334Y92749D01*
X443207Y92735D01*
X443108Y92721D01*
X442953D01*
X442699Y92735D01*
X442474Y92749D01*
X442248Y92777D01*
X442037Y92819D01*
X441839Y92862D01*
X441670Y92918D01*
X441501Y92975D01*
X441360Y93045D01*
X441219Y93101D01*
X441106Y93158D01*
X441008Y93214D01*
X440923Y93256D01*
X440867Y93299D01*
X440824Y93327D01*
X440796Y93355D01*
X440782D01*
X440641Y93482D01*
X440500Y93623D01*
X440261Y93933D01*
X440063Y94243D01*
X439922Y94553D01*
X439809Y94835D01*
X439767Y94962D01*
X439725Y95061D01*
X439697Y95145D01*
X439683Y95216D01*
X439669Y95258D01*
Y95272D01*
X441501Y95582D01*
X441558Y95329D01*
X441642Y95103D01*
X441712Y94920D01*
X441797Y94779D01*
X441882Y94666D01*
X441938Y94596D01*
X441980Y94553D01*
X441995Y94539D01*
X442135Y94441D01*
X442276Y94370D01*
X442417Y94314D01*
X442558Y94285D01*
X442685Y94257D01*
X442784Y94243D01*
X442868D01*
X443122Y94271D01*
X443348Y94328D01*
X443531Y94398D01*
X443700Y94497D01*
X443827Y94596D01*
X443912Y94666D01*
X443982Y94722D01*
X443996Y94751D01*
X444067Y94864D01*
X444137Y94976D01*
X444236Y95244D01*
X444320Y95540D01*
X444363Y95836D01*
X444391Y96118D01*
X444405Y96231D01*
Y96330D01*
X444419Y96414D01*
Y96485D01*
Y96527D01*
Y96541D01*
Y96738D01*
X444405Y96936D01*
X444377Y97105D01*
X444349Y97274D01*
X444320Y97415D01*
X444292Y97542D01*
X444208Y97767D01*
X444137Y97937D01*
X444067Y98049D01*
X444024Y98120D01*
X444010Y98148D01*
X443841Y98317D01*
X443658Y98430D01*
X443475Y98515D01*
X443306Y98585D01*
X443136Y98613D01*
X443009Y98627D01*
X442925Y98642D01*
X442897D01*
X442713Y98627D01*
X442544Y98599D01*
X442403Y98557D01*
X442276Y98500D01*
X442178Y98444D01*
X442107Y98402D01*
X442065Y98374D01*
X442051Y98359D01*
X441938Y98247D01*
X441839Y98120D01*
X441769Y97979D01*
X441698Y97852D01*
X441656Y97725D01*
X441628Y97626D01*
X441614Y97570D01*
Y97542D01*
X439767Y97880D01*
X439908Y98275D01*
X440077Y98613D01*
X440261Y98895D01*
X440444Y99135D01*
X440613Y99318D01*
X440740Y99445D01*
X440796Y99487D01*
X440839Y99515D01*
X440853Y99544D01*
X440867D01*
X441177Y99727D01*
X441515Y99868D01*
X441853Y99967D01*
X442178Y100037D01*
X442333Y100065D01*
X442474Y100079D01*
X442601Y100093D01*
X442713D01*
X442798Y100107D01*
X442925D01*
X443207Y100093D01*
D02*
G37*
G36*
X451073D02*
X451313Y100065D01*
X451552Y100009D01*
X451764Y99952D01*
X451975Y99882D01*
X452158Y99797D01*
X452342Y99699D01*
X452497Y99614D01*
X452638Y99515D01*
X452765Y99417D01*
X452877Y99332D01*
X452962Y99262D01*
X453032Y99205D01*
X453089Y99149D01*
X453117Y99121D01*
X453131Y99107D01*
X453286Y98909D01*
X453427Y98698D01*
X453554Y98486D01*
X453667Y98261D01*
X453751Y98021D01*
X453822Y97796D01*
X453935Y97359D01*
X453977Y97147D01*
X454005Y96964D01*
X454019Y96795D01*
X454033Y96654D01*
X454047Y96527D01*
Y96428D01*
Y96372D01*
Y96358D01*
X454033Y96090D01*
X454019Y95822D01*
X453977Y95582D01*
X453935Y95357D01*
X453892Y95131D01*
X453822Y94934D01*
X453765Y94751D01*
X453695Y94581D01*
X453639Y94426D01*
X453568Y94300D01*
X453512Y94187D01*
X453469Y94088D01*
X453413Y94018D01*
X453385Y93961D01*
X453371Y93933D01*
X453357Y93919D01*
X453173Y93708D01*
X452990Y93524D01*
X452779Y93369D01*
X452553Y93228D01*
X452328Y93115D01*
X452102Y93017D01*
X451876Y92932D01*
X451651Y92876D01*
X451454Y92819D01*
X451256Y92791D01*
X451073Y92763D01*
X450918Y92735D01*
X450791D01*
X450706Y92721D01*
X450622D01*
X450213Y92749D01*
X449832Y92805D01*
X449508Y92890D01*
X449226Y92989D01*
X449099Y93045D01*
X449001Y93087D01*
X448902Y93130D01*
X448831Y93172D01*
X448775Y93214D01*
X448719Y93228D01*
X448705Y93256D01*
X448690D01*
X448423Y93482D01*
X448183Y93722D01*
X447986Y93989D01*
X447831Y94243D01*
X447704Y94469D01*
X447662Y94567D01*
X447619Y94652D01*
X447591Y94722D01*
X447563Y94779D01*
X447549Y94807D01*
Y94821D01*
X449409Y95131D01*
X449480Y94948D01*
X449551Y94779D01*
X449621Y94652D01*
X449706Y94539D01*
X449762Y94455D01*
X449818Y94398D01*
X449861Y94370D01*
X449875Y94356D01*
X449987Y94271D01*
X450114Y94215D01*
X450241Y94173D01*
X450354Y94144D01*
X450453Y94130D01*
X450537Y94116D01*
X450608D01*
X450833Y94130D01*
X451045Y94187D01*
X451242Y94257D01*
X451397Y94342D01*
X451524Y94426D01*
X451609Y94497D01*
X451679Y94553D01*
X451693Y94567D01*
X451834Y94751D01*
X451933Y94962D01*
X452017Y95188D01*
X452074Y95385D01*
X452102Y95582D01*
X452116Y95723D01*
X452130Y95780D01*
Y95822D01*
Y95850D01*
Y95864D01*
X447450D01*
Y96259D01*
X447478Y96611D01*
X447520Y96950D01*
X447577Y97260D01*
X447647Y97556D01*
X447718Y97810D01*
X447802Y98049D01*
X447887Y98261D01*
X447972Y98444D01*
X448056Y98613D01*
X448127Y98740D01*
X448197Y98853D01*
X448254Y98938D01*
X448296Y99008D01*
X448324Y99036D01*
X448338Y99050D01*
X448507Y99234D01*
X448705Y99403D01*
X448902Y99544D01*
X449099Y99656D01*
X449311Y99769D01*
X449522Y99854D01*
X449720Y99924D01*
X449917Y99981D01*
X450100Y100023D01*
X450269Y100051D01*
X450424Y100079D01*
X450551Y100093D01*
X450664Y100107D01*
X450819D01*
X451073Y100093D01*
D02*
G37*
G36*
X480000Y92876D02*
X478026D01*
Y96555D01*
X476278D01*
X476067Y96569D01*
X475870D01*
X475686Y96583D01*
X475517Y96597D01*
X475362Y96611D01*
X475235Y96626D01*
X475108D01*
X475010Y96640D01*
X474911Y96654D01*
X474841Y96668D01*
X474784D01*
X474742Y96682D01*
X474714D01*
X474516Y96738D01*
X474333Y96809D01*
X474164Y96879D01*
X474009Y96964D01*
X473882Y97034D01*
X473783Y97091D01*
X473727Y97133D01*
X473699Y97147D01*
X473515Y97288D01*
X473360Y97443D01*
X473205Y97612D01*
X473092Y97753D01*
X472994Y97894D01*
X472923Y98007D01*
X472881Y98078D01*
X472867Y98106D01*
X472754Y98345D01*
X472669Y98599D01*
X472613Y98867D01*
X472571Y99107D01*
X472543Y99304D01*
Y99403D01*
X472529Y99473D01*
Y99544D01*
Y99586D01*
Y99614D01*
Y99628D01*
X472557Y100037D01*
X472613Y100418D01*
X472712Y100728D01*
X472811Y101010D01*
X472867Y101123D01*
X472923Y101221D01*
X472966Y101306D01*
X473022Y101390D01*
X473050Y101447D01*
X473078Y101489D01*
X473106Y101503D01*
Y101517D01*
X473332Y101771D01*
X473558Y101982D01*
X473797Y102152D01*
X474009Y102278D01*
X474206Y102363D01*
X474361Y102434D01*
X474418Y102448D01*
X474460Y102462D01*
X474488Y102476D01*
X474502D01*
X474615Y102504D01*
X474756Y102532D01*
X474925Y102546D01*
X475094Y102560D01*
X475489Y102589D01*
X475884Y102617D01*
X476250D01*
X476405Y102631D01*
X480000D01*
Y92876D01*
D02*
G37*
G36*
X467848Y100093D02*
X467989Y100079D01*
X468130Y100037D01*
X468243Y99995D01*
X468342Y99952D01*
X468426Y99924D01*
X468469Y99896D01*
X468483Y99882D01*
X468624Y99783D01*
X468751Y99642D01*
X468891Y99487D01*
X469004Y99332D01*
X469117Y99177D01*
X469202Y99050D01*
X469258Y98966D01*
X469272Y98952D01*
Y99952D01*
X471006D01*
Y92876D01*
X469131D01*
Y95047D01*
Y95371D01*
Y95667D01*
X469117Y95935D01*
X469103Y96174D01*
Y96400D01*
X469089Y96583D01*
X469075Y96767D01*
X469061Y96908D01*
X469047Y97034D01*
X469033Y97147D01*
X469018Y97232D01*
Y97302D01*
X469004Y97345D01*
X468990Y97387D01*
Y97415D01*
X468934Y97612D01*
X468863Y97781D01*
X468793Y97922D01*
X468722Y98021D01*
X468666Y98106D01*
X468610Y98162D01*
X468581Y98190D01*
X468567Y98204D01*
X468455Y98275D01*
X468342Y98331D01*
X468229Y98374D01*
X468130Y98402D01*
X468046Y98416D01*
X467961Y98430D01*
X467905D01*
X467750Y98416D01*
X467595Y98388D01*
X467454Y98331D01*
X467313Y98275D01*
X467200Y98218D01*
X467115Y98162D01*
X467045Y98134D01*
X467031Y98120D01*
X466439Y99741D01*
X466664Y99868D01*
X466876Y99952D01*
X467087Y100023D01*
X467285Y100065D01*
X467440Y100093D01*
X467566Y100107D01*
X467679D01*
X467848Y100093D01*
D02*
G37*
G36*
X425445Y92876D02*
X418030D01*
Y94525D01*
X423471D01*
Y97175D01*
X418579D01*
Y98825D01*
X423471D01*
Y100982D01*
X418213D01*
Y102631D01*
X425445D01*
Y92876D01*
D02*
G37*
G36*
X408768Y96456D02*
Y94835D01*
X404764D01*
Y92876D01*
X402960D01*
Y94835D01*
X401748D01*
Y96470D01*
X402960D01*
Y102673D01*
X404539D01*
X408768Y96456D01*
D02*
G37*
G36*
X401184D02*
Y94835D01*
X397180D01*
Y92876D01*
X395376D01*
Y94835D01*
X394163D01*
Y96470D01*
X395376D01*
Y102673D01*
X396955D01*
X401184Y96456D01*
D02*
G37*
G36*
X462802Y100093D02*
X463154Y100037D01*
X463478Y99967D01*
X463760Y99882D01*
X463873Y99826D01*
X463986Y99783D01*
X464085Y99755D01*
X464155Y99713D01*
X464225Y99685D01*
X464268Y99656D01*
X464296Y99642D01*
X464310D01*
X464606Y99445D01*
X464860Y99234D01*
X465085Y99008D01*
X465269Y98797D01*
X465410Y98599D01*
X465522Y98444D01*
X465565Y98388D01*
X465579Y98345D01*
X465607Y98317D01*
Y98303D01*
X465762Y97979D01*
X465861Y97655D01*
X465945Y97359D01*
X466002Y97091D01*
X466030Y96851D01*
X466044Y96753D01*
Y96668D01*
X466058Y96611D01*
Y96555D01*
Y96527D01*
Y96513D01*
X466044Y96076D01*
X465988Y95667D01*
X465917Y95315D01*
X465875Y95160D01*
X465832Y95019D01*
X465790Y94892D01*
X465748Y94779D01*
X465706Y94680D01*
X465677Y94596D01*
X465649Y94525D01*
X465621Y94483D01*
X465607Y94455D01*
Y94441D01*
X465410Y94144D01*
X465198Y93891D01*
X464973Y93665D01*
X464761Y93482D01*
X464564Y93341D01*
X464409Y93242D01*
X464352Y93200D01*
X464310Y93172D01*
X464282Y93158D01*
X464268D01*
X463929Y93017D01*
X463605Y92904D01*
X463295Y92833D01*
X462999Y92777D01*
X462759Y92749D01*
X462661Y92735D01*
X462576D01*
X462506Y92721D01*
X462407D01*
X462111Y92735D01*
X461843Y92763D01*
X461575Y92819D01*
X461336Y92890D01*
X461096Y92960D01*
X460884Y93045D01*
X460687Y93144D01*
X460504Y93242D01*
X460349Y93341D01*
X460208Y93440D01*
X460081Y93524D01*
X459982Y93595D01*
X459898Y93665D01*
X459841Y93722D01*
X459813Y93750D01*
X459799Y93764D01*
X459616Y93975D01*
X459461Y94187D01*
X459320Y94398D01*
X459193Y94624D01*
X459094Y94849D01*
X459010Y95075D01*
X458939Y95286D01*
X458883Y95498D01*
X458840Y95681D01*
X458812Y95864D01*
X458784Y96019D01*
X458770Y96160D01*
X458756Y96273D01*
Y96358D01*
Y96414D01*
Y96428D01*
X458770Y96724D01*
X458798Y97006D01*
X458854Y97260D01*
X458911Y97514D01*
X458995Y97739D01*
X459080Y97965D01*
X459179Y98162D01*
X459263Y98345D01*
X459362Y98500D01*
X459461Y98656D01*
X459545Y98768D01*
X459630Y98881D01*
X459686Y98952D01*
X459743Y99022D01*
X459771Y99050D01*
X459785Y99064D01*
X459982Y99248D01*
X460194Y99403D01*
X460405Y99544D01*
X460631Y99670D01*
X460856Y99769D01*
X461068Y99854D01*
X461279Y99924D01*
X461491Y99981D01*
X461674Y100023D01*
X461857Y100051D01*
X462012Y100079D01*
X462153Y100093D01*
X462266Y100107D01*
X462421D01*
X462802Y100093D01*
D02*
G37*
G36*
X390385Y102673D02*
X390625Y102659D01*
X390851Y102617D01*
X391062Y102575D01*
X391259Y102518D01*
X391443Y102462D01*
X391598Y102391D01*
X391739Y102335D01*
X391880Y102264D01*
X391992Y102194D01*
X392077Y102137D01*
X392162Y102081D01*
X392218Y102039D01*
X392260Y101996D01*
X392288Y101982D01*
X392303Y101968D01*
X392429Y101827D01*
X392556Y101686D01*
X392655Y101531D01*
X392739Y101390D01*
X392881Y101080D01*
X392965Y100798D01*
X393022Y100545D01*
X393036Y100432D01*
X393050Y100347D01*
X393064Y100263D01*
Y100206D01*
Y100178D01*
Y100164D01*
X393050Y99924D01*
X393007Y99713D01*
X392965Y99501D01*
X392895Y99332D01*
X392838Y99177D01*
X392796Y99079D01*
X392754Y99008D01*
X392739Y98980D01*
X392599Y98797D01*
X392429Y98627D01*
X392260Y98486D01*
X392077Y98359D01*
X391922Y98275D01*
X391795Y98204D01*
X391711Y98162D01*
X391696Y98148D01*
X391682D01*
X391978Y97993D01*
X392232Y97838D01*
X392444Y97669D01*
X392613Y97500D01*
X392754Y97345D01*
X392852Y97232D01*
X392909Y97147D01*
X392923Y97133D01*
Y97119D01*
X393050Y96865D01*
X393148Y96611D01*
X393205Y96358D01*
X393261Y96132D01*
X393289Y95949D01*
X393303Y95794D01*
Y95737D01*
Y95695D01*
Y95667D01*
Y95653D01*
X393289Y95385D01*
X393261Y95145D01*
X393205Y94906D01*
X393134Y94694D01*
X393064Y94483D01*
X392979Y94300D01*
X392881Y94130D01*
X392782Y93975D01*
X392683Y93848D01*
X392584Y93722D01*
X392500Y93623D01*
X392429Y93538D01*
X392359Y93468D01*
X392303Y93426D01*
X392274Y93397D01*
X392260Y93383D01*
X392091Y93256D01*
X391908Y93158D01*
X391725Y93059D01*
X391541Y92989D01*
X391175Y92862D01*
X390822Y92777D01*
X390653Y92749D01*
X390512Y92735D01*
X390385Y92721D01*
X390273Y92707D01*
X390174Y92692D01*
X390047D01*
X389779Y92707D01*
X389539Y92735D01*
X389300Y92777D01*
X389074Y92819D01*
X388877Y92890D01*
X388694Y92960D01*
X388510Y93031D01*
X388355Y93115D01*
X388214Y93200D01*
X388102Y93271D01*
X387989Y93341D01*
X387904Y93412D01*
X387834Y93454D01*
X387791Y93496D01*
X387763Y93524D01*
X387749Y93538D01*
X387594Y93708D01*
X387467Y93877D01*
X387340Y94060D01*
X387242Y94243D01*
X387157Y94426D01*
X387087Y94610D01*
X386988Y94962D01*
X386946Y95117D01*
X386917Y95258D01*
X386903Y95399D01*
X386889Y95512D01*
X386875Y95611D01*
Y95681D01*
Y95723D01*
Y95737D01*
X386889Y96033D01*
X386946Y96301D01*
X387002Y96555D01*
X387087Y96767D01*
X387157Y96936D01*
X387228Y97063D01*
X387284Y97147D01*
X387298Y97175D01*
X387467Y97401D01*
X387665Y97598D01*
X387876Y97767D01*
X388073Y97894D01*
X388257Y98007D01*
X388398Y98092D01*
X388454Y98120D01*
X388496Y98134D01*
X388525Y98148D01*
X388539D01*
X388313Y98261D01*
X388116Y98388D01*
X387947Y98515D01*
X387806Y98656D01*
X387693Y98768D01*
X387622Y98867D01*
X387566Y98923D01*
X387552Y98952D01*
X387425Y99163D01*
X387340Y99375D01*
X387270Y99572D01*
X387228Y99755D01*
X387199Y99924D01*
X387185Y100051D01*
Y100136D01*
Y100150D01*
Y100164D01*
X387199Y100361D01*
X387214Y100559D01*
X387312Y100911D01*
X387425Y101207D01*
X387566Y101475D01*
X387721Y101686D01*
X387777Y101771D01*
X387834Y101841D01*
X387890Y101898D01*
X387933Y101940D01*
X387947Y101954D01*
X387961Y101968D01*
X388116Y102095D01*
X388271Y102208D01*
X388454Y102307D01*
X388623Y102391D01*
X388990Y102518D01*
X389342Y102603D01*
X389497Y102631D01*
X389652Y102645D01*
X389779Y102659D01*
X389906Y102673D01*
X389991Y102687D01*
X390132D01*
X390385Y102673D01*
D02*
G37*
G36*
X457332Y93186D02*
Y93031D01*
Y92904D01*
Y92777D01*
X457346Y92664D01*
X457360Y92495D01*
Y92368D01*
X457374Y92270D01*
X457388Y92213D01*
X457402Y92185D01*
Y92171D01*
X457459Y92044D01*
X457543Y91945D01*
X457614Y91889D01*
X457628Y91861D01*
X457642D01*
X457797Y91790D01*
X457938Y91748D01*
X458009D01*
X458065Y91734D01*
X458178D01*
X458248Y91748D01*
X458305Y91762D01*
X458319D01*
X458403Y91776D01*
X458474Y91790D01*
X458530Y91804D01*
X458558D01*
X458897Y90211D01*
X458629Y90141D01*
X458516Y90113D01*
X458403Y90099D01*
X458319Y90085D01*
X458262Y90070D01*
X458220Y90056D01*
X458206D01*
X457980Y90028D01*
X457868Y90014D01*
X457783D01*
X457713Y90000D01*
X457600D01*
X457318Y90014D01*
X457078Y90056D01*
X456853Y90099D01*
X456669Y90169D01*
X456529Y90225D01*
X456416Y90268D01*
X456359Y90310D01*
X456331Y90324D01*
X456162Y90451D01*
X456007Y90592D01*
X455894Y90733D01*
X455795Y90874D01*
X455725Y91001D01*
X455683Y91100D01*
X455654Y91170D01*
X455640Y91198D01*
X455612Y91311D01*
X455584Y91438D01*
X455528Y91720D01*
X455499Y92044D01*
X455485Y92354D01*
X455471Y92636D01*
X455457Y92763D01*
Y92876D01*
Y92960D01*
Y93031D01*
Y93073D01*
Y93087D01*
Y99952D01*
X457332D01*
Y93186D01*
D02*
G37*
G36*
X428475Y102321D02*
X428772Y101827D01*
X429011Y101362D01*
X429124Y101151D01*
X429223Y100939D01*
X429307Y100756D01*
X429392Y100573D01*
X429462Y100418D01*
X429519Y100291D01*
X429561Y100178D01*
X429589Y100107D01*
X429617Y100051D01*
Y100037D01*
X429730Y99713D01*
X429829Y99389D01*
X429998Y98754D01*
X430111Y98134D01*
X430153Y97852D01*
X430181Y97584D01*
X430209Y97330D01*
X430238Y97105D01*
X430252Y96893D01*
Y96724D01*
X430266Y96583D01*
Y96485D01*
Y96428D01*
Y96400D01*
X430238Y95822D01*
X430181Y95244D01*
X430097Y94708D01*
X430054Y94455D01*
X429998Y94215D01*
X429956Y94003D01*
X429913Y93806D01*
X429871Y93637D01*
X429829Y93482D01*
X429786Y93369D01*
X429772Y93271D01*
X429744Y93214D01*
Y93200D01*
X429519Y92594D01*
X429279Y92002D01*
X429138Y91734D01*
X429011Y91466D01*
X428884Y91212D01*
X428757Y90987D01*
X428645Y90775D01*
X428532Y90578D01*
X428433Y90409D01*
X428349Y90268D01*
X428278Y90155D01*
X428222Y90070D01*
X428194Y90014D01*
X428179Y90000D01*
X426897D01*
X427009Y90240D01*
X427108Y90451D01*
X427193Y90663D01*
X427277Y90846D01*
X427348Y91029D01*
X427418Y91184D01*
X427475Y91325D01*
X427531Y91466D01*
X427587Y91579D01*
X427616Y91678D01*
X427658Y91762D01*
X427686Y91833D01*
X427700Y91889D01*
X427714Y91931D01*
X427728Y91945D01*
Y91959D01*
X427855Y92340D01*
X427968Y92721D01*
X428052Y93087D01*
X428137Y93426D01*
X428165Y93567D01*
X428194Y93708D01*
X428222Y93820D01*
X428236Y93919D01*
X428264Y94003D01*
Y94060D01*
X428278Y94102D01*
Y94116D01*
X428349Y94539D01*
X428391Y94948D01*
X428433Y95329D01*
X428447Y95667D01*
X428461Y95822D01*
Y95949D01*
X428475Y96076D01*
Y96174D01*
Y96245D01*
Y96315D01*
Y96344D01*
Y96358D01*
X428461Y96950D01*
X428419Y97500D01*
X428391Y97767D01*
X428363Y98007D01*
X428335Y98247D01*
X428306Y98458D01*
X428278Y98656D01*
X428250Y98825D01*
X428222Y98980D01*
X428194Y99121D01*
X428165Y99219D01*
X428151Y99304D01*
X428137Y99346D01*
Y99360D01*
X428067Y99628D01*
X427982Y99910D01*
X427799Y100488D01*
X427587Y101066D01*
X427489Y101348D01*
X427376Y101616D01*
X427277Y101856D01*
X427193Y102081D01*
X427108Y102293D01*
X427024Y102462D01*
X426967Y102603D01*
X426925Y102716D01*
X426897Y102772D01*
X426883Y102800D01*
X428165D01*
X428475Y102321D01*
D02*
G37*
G36*
X416733Y102434D02*
X416592Y102067D01*
X416451Y101729D01*
X416324Y101404D01*
X416211Y101108D01*
X416112Y100827D01*
X416028Y100559D01*
X415943Y100319D01*
X415873Y100107D01*
X415816Y99910D01*
X415760Y99755D01*
X415732Y99614D01*
X415704Y99501D01*
X415675Y99431D01*
X415661Y99375D01*
Y99360D01*
X415549Y98825D01*
X415464Y98303D01*
X415393Y97796D01*
X415365Y97556D01*
X415351Y97330D01*
X415337Y97119D01*
X415323Y96936D01*
Y96767D01*
X415309Y96626D01*
Y96513D01*
Y96428D01*
Y96372D01*
Y96358D01*
Y96076D01*
X415323Y95794D01*
X415337Y95540D01*
X415351Y95301D01*
X415379Y95117D01*
X415393Y94962D01*
Y94906D01*
X415407Y94864D01*
Y94849D01*
Y94835D01*
X415492Y94285D01*
X415549Y94018D01*
X415591Y93778D01*
X415633Y93567D01*
X415675Y93412D01*
X415690Y93355D01*
Y93313D01*
X415704Y93285D01*
Y93271D01*
X415774Y92975D01*
X415844Y92707D01*
X415915Y92453D01*
X415971Y92241D01*
X416028Y92072D01*
X416070Y91945D01*
X416098Y91861D01*
X416112Y91847D01*
Y91833D01*
X416211Y91579D01*
X416324Y91283D01*
X416451Y90973D01*
X416578Y90677D01*
X416704Y90409D01*
X416747Y90296D01*
X416803Y90197D01*
X416831Y90113D01*
X416860Y90056D01*
X416888Y90014D01*
Y90000D01*
X415591D01*
X415379Y90324D01*
X415196Y90648D01*
X415027Y90973D01*
X414858Y91283D01*
X414717Y91593D01*
X414576Y91875D01*
X414463Y92157D01*
X414350Y92411D01*
X414252Y92650D01*
X414181Y92862D01*
X414111Y93045D01*
X414054Y93214D01*
X414012Y93341D01*
X413984Y93426D01*
X413955Y93496D01*
Y93510D01*
X413815Y94102D01*
X413702Y94652D01*
X413660Y94906D01*
X413631Y95160D01*
X413589Y95385D01*
X413575Y95597D01*
X413561Y95794D01*
X413547Y95977D01*
X413533Y96132D01*
X413518Y96259D01*
Y96358D01*
Y96442D01*
Y96485D01*
Y96499D01*
X413547Y97119D01*
X413603Y97697D01*
X413645Y97979D01*
X413702Y98261D01*
X413744Y98515D01*
X413801Y98740D01*
X413857Y98966D01*
X413899Y99163D01*
X413955Y99332D01*
X413998Y99473D01*
X414026Y99600D01*
X414054Y99685D01*
X414082Y99741D01*
Y99755D01*
X414308Y100347D01*
X414562Y100911D01*
X414689Y101179D01*
X414815Y101419D01*
X414942Y101658D01*
X415069Y101884D01*
X415182Y102081D01*
X415281Y102264D01*
X415379Y102420D01*
X415464Y102546D01*
X415534Y102659D01*
X415591Y102730D01*
X415619Y102786D01*
X415633Y102800D01*
X416902D01*
X416733Y102434D01*
D02*
G37*
G36*
X460462Y83543D02*
X459263D01*
Y84910D01*
X460462D01*
Y83543D01*
D02*
G37*
G36*
X410417Y75155D02*
X409219D01*
Y79018D01*
X409205Y79314D01*
X409191Y79567D01*
X409163Y79793D01*
X409120Y79976D01*
X409078Y80117D01*
X409050Y80230D01*
X409036Y80286D01*
X409022Y80315D01*
X408937Y80484D01*
X408838Y80639D01*
X408726Y80766D01*
X408613Y80878D01*
X408514Y80963D01*
X408429Y81019D01*
X408373Y81062D01*
X408359Y81076D01*
X408176Y81174D01*
X408007Y81245D01*
X407837Y81287D01*
X407696Y81330D01*
X407556Y81344D01*
X407457Y81358D01*
X407372D01*
X407118Y81344D01*
X406893Y81287D01*
X406710Y81231D01*
X406555Y81146D01*
X406428Y81076D01*
X406343Y81005D01*
X406287Y80949D01*
X406273Y80935D01*
X406146Y80766D01*
X406047Y80554D01*
X405977Y80343D01*
X405920Y80131D01*
X405892Y79934D01*
X405878Y79779D01*
Y79722D01*
Y79680D01*
Y79652D01*
Y79638D01*
Y75155D01*
X404680D01*
Y79624D01*
X404694Y79990D01*
X404722Y80315D01*
X404764Y80582D01*
X404807Y80808D01*
X404849Y80991D01*
X404891Y81118D01*
X404919Y81189D01*
X404934Y81217D01*
X405046Y81414D01*
X405173Y81583D01*
X405314Y81724D01*
X405441Y81851D01*
X405568Y81950D01*
X405667Y82020D01*
X405737Y82063D01*
X405765Y82077D01*
X405991Y82175D01*
X406216Y82260D01*
X406442Y82316D01*
X406653Y82345D01*
X406837Y82373D01*
X406992Y82387D01*
X407118D01*
X407344Y82373D01*
X407570Y82345D01*
X407781Y82302D01*
X407978Y82232D01*
X408345Y82077D01*
X408500Y81992D01*
X408641Y81908D01*
X408768Y81809D01*
X408895Y81724D01*
X408993Y81640D01*
X409064Y81569D01*
X409134Y81499D01*
X409177Y81456D01*
X409205Y81428D01*
X409219Y81414D01*
Y84910D01*
X410417D01*
Y75155D01*
D02*
G37*
G36*
X454780Y82373D02*
X455076Y82345D01*
X455358Y82302D01*
X455584Y82260D01*
X455781Y82218D01*
X455922Y82175D01*
X455979Y82161D01*
X456021Y82147D01*
X456035Y82133D01*
X456049D01*
X456289Y82034D01*
X456500Y81908D01*
X456684Y81795D01*
X456839Y81682D01*
X456951Y81569D01*
X457036Y81485D01*
X457092Y81428D01*
X457107Y81414D01*
X457233Y81231D01*
X457346Y81033D01*
X457431Y80836D01*
X457501Y80653D01*
X457558Y80470D01*
X457600Y80343D01*
X457614Y80286D01*
Y80244D01*
X457628Y80230D01*
Y80216D01*
X456458Y80061D01*
X456373Y80315D01*
X456289Y80540D01*
X456190Y80723D01*
X456106Y80864D01*
X456021Y80977D01*
X455951Y81048D01*
X455894Y81090D01*
X455880Y81104D01*
X455711Y81203D01*
X455513Y81273D01*
X455302Y81330D01*
X455105Y81358D01*
X454907Y81386D01*
X454766Y81400D01*
X454625D01*
X454301Y81386D01*
X454019Y81344D01*
X453794Y81273D01*
X453596Y81203D01*
X453455Y81118D01*
X453343Y81062D01*
X453272Y81005D01*
X453258Y80991D01*
X453145Y80864D01*
X453061Y80709D01*
X452990Y80540D01*
X452948Y80371D01*
X452920Y80216D01*
X452906Y80075D01*
Y79990D01*
Y79976D01*
Y79962D01*
Y79934D01*
Y79878D01*
Y79779D01*
X452920Y79694D01*
Y79666D01*
Y79652D01*
X453061Y79610D01*
X453216Y79567D01*
X453540Y79483D01*
X453906Y79412D01*
X454245Y79342D01*
X454414Y79314D01*
X454569Y79300D01*
X454710Y79271D01*
X454823Y79257D01*
X454921Y79243D01*
X454992D01*
X455048Y79229D01*
X455062D01*
X455316Y79201D01*
X455528Y79159D01*
X455711Y79130D01*
X455852Y79102D01*
X455965Y79088D01*
X456049Y79060D01*
X456106Y79046D01*
X456120D01*
X456303Y78990D01*
X456458Y78933D01*
X456613Y78863D01*
X456740Y78806D01*
X456853Y78750D01*
X456923Y78693D01*
X456980Y78665D01*
X456994Y78651D01*
X457135Y78552D01*
X457247Y78440D01*
X457360Y78327D01*
X457445Y78214D01*
X457515Y78115D01*
X457572Y78031D01*
X457600Y77975D01*
X457614Y77960D01*
X457684Y77805D01*
X457741Y77636D01*
X457783Y77481D01*
X457811Y77326D01*
X457825Y77199D01*
X457840Y77101D01*
Y77044D01*
Y77016D01*
X457825Y76847D01*
X457811Y76706D01*
X457741Y76410D01*
X457642Y76170D01*
X457529Y75959D01*
X457417Y75789D01*
X457318Y75663D01*
X457247Y75592D01*
X457219Y75564D01*
X456965Y75381D01*
X456684Y75240D01*
X456373Y75141D01*
X456091Y75071D01*
X455838Y75028D01*
X455725Y75014D01*
X455626D01*
X455542Y75000D01*
X455429D01*
X455175Y75014D01*
X454921Y75042D01*
X454696Y75071D01*
X454498Y75113D01*
X454343Y75155D01*
X454217Y75197D01*
X454132Y75212D01*
X454104Y75226D01*
X453864Y75324D01*
X453639Y75451D01*
X453427Y75592D01*
X453216Y75719D01*
X453046Y75846D01*
X452920Y75944D01*
X452835Y76015D01*
X452821Y76043D01*
X452807D01*
X452779Y75860D01*
X452751Y75691D01*
X452722Y75536D01*
X452680Y75409D01*
X452638Y75296D01*
X452609Y75226D01*
X452595Y75169D01*
X452581Y75155D01*
X451327D01*
X451397Y75310D01*
X451468Y75465D01*
X451524Y75606D01*
X451552Y75733D01*
X451595Y75846D01*
X451609Y75930D01*
X451623Y75987D01*
Y76001D01*
X451637Y76100D01*
X451651Y76226D01*
Y76367D01*
X451665Y76522D01*
X451679Y76875D01*
Y77227D01*
X451693Y77566D01*
Y77721D01*
Y77848D01*
Y77960D01*
Y78045D01*
Y78101D01*
Y78115D01*
Y79722D01*
Y79990D01*
X451707Y80230D01*
X451721Y80413D01*
Y80568D01*
X451735Y80681D01*
X451750Y80766D01*
X451764Y80808D01*
Y80822D01*
X451806Y81005D01*
X451862Y81160D01*
X451919Y81287D01*
X451989Y81414D01*
X452046Y81499D01*
X452088Y81569D01*
X452116Y81611D01*
X452130Y81626D01*
X452243Y81738D01*
X452370Y81851D01*
X452511Y81936D01*
X452652Y82020D01*
X452779Y82077D01*
X452877Y82119D01*
X452948Y82147D01*
X452976Y82161D01*
X453202Y82232D01*
X453441Y82288D01*
X453681Y82330D01*
X453921Y82359D01*
X454132Y82373D01*
X454287Y82387D01*
X454442D01*
X454780Y82373D01*
D02*
G37*
G36*
X447196D02*
X447492Y82345D01*
X447774Y82302D01*
X448000Y82260D01*
X448197Y82218D01*
X448338Y82175D01*
X448395Y82161D01*
X448437Y82147D01*
X448451Y82133D01*
X448465D01*
X448705Y82034D01*
X448916Y81908D01*
X449099Y81795D01*
X449254Y81682D01*
X449367Y81569D01*
X449452Y81485D01*
X449508Y81428D01*
X449522Y81414D01*
X449649Y81231D01*
X449762Y81033D01*
X449846Y80836D01*
X449917Y80653D01*
X449973Y80470D01*
X450016Y80343D01*
X450030Y80286D01*
Y80244D01*
X450044Y80230D01*
Y80216D01*
X448874Y80061D01*
X448789Y80315D01*
X448705Y80540D01*
X448606Y80723D01*
X448521Y80864D01*
X448437Y80977D01*
X448366Y81048D01*
X448310Y81090D01*
X448296Y81104D01*
X448127Y81203D01*
X447929Y81273D01*
X447718Y81330D01*
X447520Y81358D01*
X447323Y81386D01*
X447182Y81400D01*
X447041D01*
X446717Y81386D01*
X446435Y81344D01*
X446209Y81273D01*
X446012Y81203D01*
X445871Y81118D01*
X445758Y81062D01*
X445688Y81005D01*
X445674Y80991D01*
X445561Y80864D01*
X445476Y80709D01*
X445406Y80540D01*
X445364Y80371D01*
X445336Y80216D01*
X445321Y80075D01*
Y79990D01*
Y79976D01*
Y79962D01*
Y79934D01*
Y79878D01*
Y79779D01*
X445336Y79694D01*
Y79666D01*
Y79652D01*
X445476Y79610D01*
X445631Y79567D01*
X445956Y79483D01*
X446322Y79412D01*
X446661Y79342D01*
X446830Y79314D01*
X446985Y79300D01*
X447126Y79271D01*
X447239Y79257D01*
X447337Y79243D01*
X447408D01*
X447464Y79229D01*
X447478D01*
X447732Y79201D01*
X447943Y79159D01*
X448127Y79130D01*
X448268Y79102D01*
X448380Y79088D01*
X448465Y79060D01*
X448521Y79046D01*
X448535D01*
X448719Y78990D01*
X448874Y78933D01*
X449029Y78863D01*
X449156Y78806D01*
X449268Y78750D01*
X449339Y78693D01*
X449395Y78665D01*
X449409Y78651D01*
X449551Y78552D01*
X449663Y78440D01*
X449776Y78327D01*
X449861Y78214D01*
X449931Y78115D01*
X449987Y78031D01*
X450016Y77975D01*
X450030Y77960D01*
X450100Y77805D01*
X450157Y77636D01*
X450199Y77481D01*
X450227Y77326D01*
X450241Y77199D01*
X450255Y77101D01*
Y77044D01*
Y77016D01*
X450241Y76847D01*
X450227Y76706D01*
X450157Y76410D01*
X450058Y76170D01*
X449945Y75959D01*
X449832Y75789D01*
X449734Y75663D01*
X449663Y75592D01*
X449635Y75564D01*
X449381Y75381D01*
X449099Y75240D01*
X448789Y75141D01*
X448507Y75071D01*
X448254Y75028D01*
X448141Y75014D01*
X448042D01*
X447957Y75000D01*
X447845D01*
X447591Y75014D01*
X447337Y75042D01*
X447112Y75071D01*
X446914Y75113D01*
X446759Y75155D01*
X446632Y75197D01*
X446548Y75212D01*
X446520Y75226D01*
X446280Y75324D01*
X446054Y75451D01*
X445843Y75592D01*
X445631Y75719D01*
X445462Y75846D01*
X445336Y75944D01*
X445251Y76015D01*
X445237Y76043D01*
X445223D01*
X445195Y75860D01*
X445166Y75691D01*
X445138Y75536D01*
X445096Y75409D01*
X445053Y75296D01*
X445025Y75226D01*
X445011Y75169D01*
X444997Y75155D01*
X443742D01*
X443813Y75310D01*
X443884Y75465D01*
X443940Y75606D01*
X443968Y75733D01*
X444010Y75846D01*
X444024Y75930D01*
X444039Y75987D01*
Y76001D01*
X444053Y76100D01*
X444067Y76226D01*
Y76367D01*
X444081Y76522D01*
X444095Y76875D01*
Y77227D01*
X444109Y77566D01*
Y77721D01*
Y77848D01*
Y77960D01*
Y78045D01*
Y78101D01*
Y78115D01*
Y79722D01*
Y79990D01*
X444123Y80230D01*
X444137Y80413D01*
Y80568D01*
X444151Y80681D01*
X444165Y80766D01*
X444179Y80808D01*
Y80822D01*
X444222Y81005D01*
X444278Y81160D01*
X444335Y81287D01*
X444405Y81414D01*
X444461Y81499D01*
X444504Y81569D01*
X444532Y81611D01*
X444546Y81626D01*
X444659Y81738D01*
X444786Y81851D01*
X444927Y81936D01*
X445068Y82020D01*
X445195Y82077D01*
X445293Y82119D01*
X445364Y82147D01*
X445392Y82161D01*
X445617Y82232D01*
X445857Y82288D01*
X446097Y82330D01*
X446336Y82359D01*
X446548Y82373D01*
X446703Y82387D01*
X446858D01*
X447196Y82373D01*
D02*
G37*
G36*
X400183D02*
X400479Y82345D01*
X400761Y82302D01*
X400986Y82260D01*
X401184Y82218D01*
X401325Y82175D01*
X401381Y82161D01*
X401423Y82147D01*
X401437Y82133D01*
X401451D01*
X401691Y82034D01*
X401903Y81908D01*
X402086Y81795D01*
X402241Y81682D01*
X402354Y81569D01*
X402438Y81485D01*
X402495Y81428D01*
X402509Y81414D01*
X402636Y81231D01*
X402748Y81033D01*
X402833Y80836D01*
X402904Y80653D01*
X402960Y80470D01*
X403002Y80343D01*
X403016Y80286D01*
Y80244D01*
X403030Y80230D01*
Y80216D01*
X401860Y80061D01*
X401776Y80315D01*
X401691Y80540D01*
X401592Y80723D01*
X401508Y80864D01*
X401423Y80977D01*
X401353Y81048D01*
X401296Y81090D01*
X401282Y81104D01*
X401113Y81203D01*
X400916Y81273D01*
X400704Y81330D01*
X400507Y81358D01*
X400310Y81386D01*
X400169Y81400D01*
X400028D01*
X399703Y81386D01*
X399422Y81344D01*
X399196Y81273D01*
X398999Y81203D01*
X398858Y81118D01*
X398745Y81062D01*
X398674Y81005D01*
X398660Y80991D01*
X398548Y80864D01*
X398463Y80709D01*
X398392Y80540D01*
X398350Y80371D01*
X398322Y80216D01*
X398308Y80075D01*
Y79990D01*
Y79976D01*
Y79962D01*
Y79934D01*
Y79878D01*
Y79779D01*
X398322Y79694D01*
Y79666D01*
Y79652D01*
X398463Y79610D01*
X398618Y79567D01*
X398942Y79483D01*
X399309Y79412D01*
X399647Y79342D01*
X399816Y79314D01*
X399971Y79300D01*
X400112Y79271D01*
X400225Y79257D01*
X400324Y79243D01*
X400394D01*
X400451Y79229D01*
X400465D01*
X400718Y79201D01*
X400930Y79159D01*
X401113Y79130D01*
X401254Y79102D01*
X401367Y79088D01*
X401451Y79060D01*
X401508Y79046D01*
X401522D01*
X401705Y78990D01*
X401860Y78933D01*
X402015Y78863D01*
X402142Y78806D01*
X402255Y78750D01*
X402326Y78693D01*
X402382Y78665D01*
X402396Y78651D01*
X402537Y78552D01*
X402650Y78440D01*
X402762Y78327D01*
X402847Y78214D01*
X402918Y78115D01*
X402974Y78031D01*
X403002Y77975D01*
X403016Y77960D01*
X403087Y77805D01*
X403143Y77636D01*
X403185Y77481D01*
X403214Y77326D01*
X403228Y77199D01*
X403242Y77101D01*
Y77044D01*
Y77016D01*
X403228Y76847D01*
X403214Y76706D01*
X403143Y76410D01*
X403045Y76170D01*
X402932Y75959D01*
X402819Y75789D01*
X402720Y75663D01*
X402650Y75592D01*
X402621Y75564D01*
X402368Y75381D01*
X402086Y75240D01*
X401776Y75141D01*
X401494Y75071D01*
X401240Y75028D01*
X401127Y75014D01*
X401029D01*
X400944Y75000D01*
X400831D01*
X400578Y75014D01*
X400324Y75042D01*
X400098Y75071D01*
X399901Y75113D01*
X399746Y75155D01*
X399619Y75197D01*
X399534Y75212D01*
X399506Y75226D01*
X399267Y75324D01*
X399041Y75451D01*
X398829Y75592D01*
X398618Y75719D01*
X398449Y75846D01*
X398322Y75944D01*
X398237Y76015D01*
X398223Y76043D01*
X398209D01*
X398181Y75860D01*
X398153Y75691D01*
X398125Y75536D01*
X398082Y75409D01*
X398040Y75296D01*
X398012Y75226D01*
X397998Y75169D01*
X397984Y75155D01*
X396729D01*
X396800Y75310D01*
X396870Y75465D01*
X396926Y75606D01*
X396955Y75733D01*
X396997Y75846D01*
X397011Y75930D01*
X397025Y75987D01*
Y76001D01*
X397039Y76100D01*
X397053Y76226D01*
Y76367D01*
X397067Y76522D01*
X397081Y76875D01*
Y77227D01*
X397095Y77566D01*
Y77721D01*
Y77848D01*
Y77960D01*
Y78045D01*
Y78101D01*
Y78115D01*
Y79722D01*
Y79990D01*
X397110Y80230D01*
X397124Y80413D01*
Y80568D01*
X397138Y80681D01*
X397152Y80766D01*
X397166Y80808D01*
Y80822D01*
X397208Y81005D01*
X397265Y81160D01*
X397321Y81287D01*
X397392Y81414D01*
X397448Y81499D01*
X397490Y81569D01*
X397518Y81611D01*
X397533Y81626D01*
X397645Y81738D01*
X397772Y81851D01*
X397913Y81936D01*
X398054Y82020D01*
X398181Y82077D01*
X398280Y82119D01*
X398350Y82147D01*
X398378Y82161D01*
X398604Y82232D01*
X398844Y82288D01*
X399083Y82330D01*
X399323Y82359D01*
X399534Y82373D01*
X399689Y82387D01*
X399844D01*
X400183Y82373D01*
D02*
G37*
G36*
X464056Y83980D02*
Y82232D01*
X464944D01*
Y81301D01*
X464056D01*
Y77213D01*
Y77016D01*
Y76847D01*
X464042Y76692D01*
X464028Y76537D01*
Y76410D01*
X464014Y76297D01*
X463986Y76114D01*
X463958Y75973D01*
X463943Y75874D01*
X463915Y75818D01*
Y75803D01*
X463859Y75677D01*
X463774Y75578D01*
X463690Y75479D01*
X463619Y75409D01*
X463535Y75338D01*
X463478Y75296D01*
X463436Y75268D01*
X463422Y75254D01*
X463267Y75183D01*
X463112Y75141D01*
X462943Y75099D01*
X462773Y75085D01*
X462632Y75071D01*
X462520Y75056D01*
X462407D01*
X462097Y75071D01*
X461942Y75085D01*
X461801Y75113D01*
X461674Y75127D01*
X461575Y75141D01*
X461519Y75155D01*
X461491D01*
X461646Y76212D01*
X461758Y76198D01*
X461871Y76184D01*
X461970D01*
X462040Y76170D01*
X462181D01*
X462365Y76184D01*
X462491Y76212D01*
X462562Y76241D01*
X462590Y76255D01*
X462689Y76325D01*
X462745Y76396D01*
X462788Y76452D01*
X462802Y76480D01*
X462816Y76551D01*
X462830Y76649D01*
X462844Y76875D01*
X462858Y76974D01*
Y77058D01*
Y77115D01*
Y77143D01*
Y81301D01*
X461646D01*
Y82232D01*
X462858D01*
Y84699D01*
X464056Y83980D01*
D02*
G37*
G36*
X414012D02*
Y82232D01*
X414900D01*
Y81301D01*
X414012D01*
Y77213D01*
Y77016D01*
Y76847D01*
X413998Y76692D01*
X413984Y76537D01*
Y76410D01*
X413970Y76297D01*
X413941Y76114D01*
X413913Y75973D01*
X413899Y75874D01*
X413871Y75818D01*
Y75803D01*
X413815Y75677D01*
X413730Y75578D01*
X413645Y75479D01*
X413575Y75409D01*
X413490Y75338D01*
X413434Y75296D01*
X413392Y75268D01*
X413378Y75254D01*
X413223Y75183D01*
X413067Y75141D01*
X412898Y75099D01*
X412729Y75085D01*
X412588Y75071D01*
X412475Y75056D01*
X412363D01*
X412052Y75071D01*
X411897Y75085D01*
X411756Y75113D01*
X411629Y75127D01*
X411531Y75141D01*
X411474Y75155D01*
X411446D01*
X411601Y76212D01*
X411714Y76198D01*
X411827Y76184D01*
X411926D01*
X411996Y76170D01*
X412137D01*
X412320Y76184D01*
X412447Y76212D01*
X412518Y76241D01*
X412546Y76255D01*
X412645Y76325D01*
X412701Y76396D01*
X412743Y76452D01*
X412757Y76480D01*
X412771Y76551D01*
X412785Y76649D01*
X412800Y76875D01*
X412814Y76974D01*
Y77058D01*
Y77115D01*
Y77143D01*
Y81301D01*
X411601D01*
Y82232D01*
X412814D01*
Y84699D01*
X414012Y83980D01*
D02*
G37*
G36*
X480000Y75155D02*
X472712D01*
Y76311D01*
X478703D01*
Y79624D01*
X473304D01*
Y80780D01*
X478703D01*
Y83754D01*
X472937D01*
Y84910D01*
X480000D01*
Y75155D01*
D02*
G37*
G36*
X460462D02*
X459263D01*
Y82232D01*
X460462D01*
Y75155D01*
D02*
G37*
G36*
X439217Y82373D02*
X439471Y82330D01*
X439697Y82274D01*
X439922Y82204D01*
X440120Y82119D01*
X440303Y82020D01*
X440472Y81908D01*
X440613Y81809D01*
X440754Y81696D01*
X440867Y81583D01*
X440965Y81485D01*
X441050Y81400D01*
X441106Y81330D01*
X441149Y81273D01*
X441177Y81231D01*
X441191Y81217D01*
Y82232D01*
X442262D01*
Y75155D01*
X441064D01*
Y79004D01*
Y79243D01*
X441036Y79483D01*
X441008Y79680D01*
X440979Y79864D01*
X440937Y80033D01*
X440895Y80188D01*
X440839Y80329D01*
X440782Y80441D01*
X440740Y80540D01*
X440683Y80625D01*
X440641Y80695D01*
X440599Y80752D01*
X440542Y80822D01*
X440514Y80850D01*
X440303Y81019D01*
X440077Y81132D01*
X439852Y81217D01*
X439654Y81287D01*
X439471Y81315D01*
X439330Y81330D01*
X439274Y81344D01*
X439203D01*
X439034Y81330D01*
X438865Y81315D01*
X438724Y81273D01*
X438611Y81231D01*
X438512Y81189D01*
X438428Y81160D01*
X438386Y81132D01*
X438372Y81118D01*
X438245Y81033D01*
X438132Y80935D01*
X438047Y80836D01*
X437977Y80752D01*
X437934Y80667D01*
X437892Y80597D01*
X437864Y80554D01*
Y80540D01*
X437822Y80385D01*
X437780Y80216D01*
X437751Y80033D01*
X437737Y79849D01*
X437723Y79694D01*
Y79567D01*
Y79469D01*
Y79455D01*
Y79441D01*
Y75155D01*
X436525D01*
Y79497D01*
Y79793D01*
X436539Y80033D01*
X436553Y80230D01*
Y80399D01*
X436567Y80512D01*
X436581Y80597D01*
X436595Y80653D01*
Y80667D01*
X436638Y80850D01*
X436708Y81019D01*
X436764Y81160D01*
X436821Y81301D01*
X436891Y81400D01*
X436934Y81470D01*
X436962Y81527D01*
X436976Y81541D01*
X437089Y81682D01*
X437216Y81795D01*
X437342Y81908D01*
X437483Y81992D01*
X437596Y82063D01*
X437695Y82105D01*
X437751Y82133D01*
X437780Y82147D01*
X437977Y82232D01*
X438188Y82288D01*
X438386Y82330D01*
X438569Y82359D01*
X438724Y82373D01*
X438837Y82387D01*
X438950D01*
X439217Y82373D01*
D02*
G37*
G36*
X430787Y75155D02*
X427066D01*
X426727Y75169D01*
X426431Y75183D01*
X426163Y75212D01*
X425938Y75240D01*
X425755Y75268D01*
X425614Y75282D01*
X425529Y75310D01*
X425501D01*
X425261Y75381D01*
X425064Y75451D01*
X424881Y75536D01*
X424726Y75620D01*
X424599Y75677D01*
X424500Y75733D01*
X424444Y75775D01*
X424430Y75789D01*
X424274Y75916D01*
X424134Y76071D01*
X424021Y76226D01*
X423908Y76367D01*
X423823Y76508D01*
X423767Y76607D01*
X423725Y76677D01*
X423711Y76706D01*
X423612Y76931D01*
X423541Y77157D01*
X423485Y77368D01*
X423457Y77566D01*
X423429Y77735D01*
X423415Y77876D01*
Y77960D01*
Y77975D01*
Y77989D01*
X423429Y78299D01*
X423485Y78581D01*
X423570Y78820D01*
X423654Y79046D01*
X423739Y79215D01*
X423823Y79342D01*
X423880Y79426D01*
X423894Y79455D01*
X424091Y79680D01*
X424303Y79864D01*
X424542Y80019D01*
X424754Y80145D01*
X424951Y80244D01*
X425120Y80301D01*
X425177Y80329D01*
X425219Y80343D01*
X425247Y80357D01*
X425261D01*
X425022Y80498D01*
X424810Y80639D01*
X424641Y80794D01*
X424500Y80935D01*
X424387Y81048D01*
X424303Y81160D01*
X424260Y81217D01*
X424246Y81245D01*
X424134Y81456D01*
X424049Y81654D01*
X423979Y81851D01*
X423936Y82034D01*
X423908Y82190D01*
X423894Y82316D01*
Y82387D01*
Y82415D01*
X423908Y82655D01*
X423950Y82894D01*
X424021Y83106D01*
X424091Y83303D01*
X424162Y83472D01*
X424232Y83585D01*
X424274Y83670D01*
X424289Y83698D01*
X424444Y83909D01*
X424613Y84107D01*
X424796Y84262D01*
X424965Y84389D01*
X425106Y84487D01*
X425233Y84558D01*
X425318Y84600D01*
X425332Y84614D01*
X425346D01*
X425614Y84713D01*
X425910Y84783D01*
X426206Y84840D01*
X426488Y84868D01*
X426741Y84896D01*
X426854D01*
X426953Y84910D01*
X430787D01*
Y75155D01*
D02*
G37*
G36*
X469159Y82359D02*
X469329Y82345D01*
X469484Y82316D01*
X469610Y82288D01*
X469709Y82260D01*
X469766Y82246D01*
X469794Y82232D01*
X469963Y82175D01*
X470118Y82119D01*
X470245Y82063D01*
X470358Y82006D01*
X470442Y81964D01*
X470499Y81922D01*
X470541Y81908D01*
X470555Y81893D01*
X470696Y81795D01*
X470809Y81682D01*
X470907Y81555D01*
X470992Y81456D01*
X471063Y81358D01*
X471105Y81287D01*
X471133Y81231D01*
X471147Y81217D01*
X471217Y81062D01*
X471274Y80921D01*
X471302Y80766D01*
X471330Y80639D01*
X471344Y80512D01*
X471358Y80427D01*
Y80371D01*
Y80343D01*
X471344Y80145D01*
X471316Y79976D01*
X471274Y79807D01*
X471232Y79666D01*
X471189Y79553D01*
X471147Y79455D01*
X471119Y79398D01*
X471105Y79384D01*
X470992Y79229D01*
X470865Y79102D01*
X470738Y78990D01*
X470611Y78891D01*
X470499Y78820D01*
X470414Y78764D01*
X470358Y78736D01*
X470329Y78722D01*
X470231Y78679D01*
X470104Y78623D01*
X469822Y78524D01*
X469526Y78440D01*
X469216Y78341D01*
X468948Y78271D01*
X468821Y78228D01*
X468708Y78200D01*
X468624Y78172D01*
X468553Y78158D01*
X468511Y78144D01*
X468497D01*
X468314Y78101D01*
X468158Y78059D01*
X468018Y78017D01*
X467891Y77975D01*
X467778Y77946D01*
X467679Y77904D01*
X467510Y77848D01*
X467397Y77805D01*
X467327Y77763D01*
X467285Y77749D01*
X467270Y77735D01*
X467144Y77650D01*
X467059Y77537D01*
X466988Y77439D01*
X466946Y77340D01*
X466918Y77241D01*
X466904Y77171D01*
Y77115D01*
Y77101D01*
X466918Y76931D01*
X466960Y76790D01*
X467031Y76649D01*
X467101Y76537D01*
X467186Y76438D01*
X467242Y76367D01*
X467299Y76325D01*
X467313Y76311D01*
X467482Y76198D01*
X467665Y76128D01*
X467877Y76071D01*
X468074Y76029D01*
X468257Y76001D01*
X468398Y75987D01*
X468539D01*
X468835Y76001D01*
X469089Y76043D01*
X469300Y76100D01*
X469484Y76170D01*
X469625Y76241D01*
X469737Y76297D01*
X469794Y76339D01*
X469822Y76353D01*
X469977Y76508D01*
X470104Y76692D01*
X470188Y76875D01*
X470259Y77044D01*
X470315Y77199D01*
X470344Y77340D01*
X470372Y77425D01*
Y77439D01*
Y77453D01*
X471556Y77270D01*
X471457Y76875D01*
X471330Y76522D01*
X471175Y76241D01*
X471020Y76001D01*
X470879Y75803D01*
X470752Y75677D01*
X470668Y75592D01*
X470654Y75578D01*
X470640Y75564D01*
X470499Y75465D01*
X470344Y75381D01*
X470005Y75240D01*
X469653Y75141D01*
X469314Y75071D01*
X469159Y75042D01*
X469018Y75028D01*
X468877Y75014D01*
X468765D01*
X468666Y75000D01*
X468539D01*
X468229Y75014D01*
X467961Y75042D01*
X467707Y75085D01*
X467482Y75141D01*
X467299Y75197D01*
X467158Y75240D01*
X467073Y75268D01*
X467059Y75282D01*
X467045D01*
X466805Y75409D01*
X466608Y75536D01*
X466439Y75677D01*
X466284Y75803D01*
X466171Y75916D01*
X466100Y76015D01*
X466044Y76071D01*
X466030Y76100D01*
X465917Y76297D01*
X465832Y76508D01*
X465762Y76692D01*
X465720Y76861D01*
X465691Y77016D01*
X465677Y77129D01*
Y77199D01*
Y77227D01*
X465691Y77453D01*
X465720Y77650D01*
X465776Y77819D01*
X465818Y77975D01*
X465875Y78101D01*
X465931Y78186D01*
X465959Y78242D01*
X465974Y78256D01*
X466086Y78397D01*
X466213Y78524D01*
X466340Y78637D01*
X466467Y78722D01*
X466594Y78792D01*
X466678Y78834D01*
X466735Y78863D01*
X466763Y78877D01*
X466862Y78919D01*
X466974Y78961D01*
X467242Y79060D01*
X467538Y79159D01*
X467834Y79243D01*
X468102Y79328D01*
X468229Y79356D01*
X468328Y79384D01*
X468412Y79412D01*
X468483Y79426D01*
X468525Y79441D01*
X468539D01*
X468694Y79483D01*
X468835Y79525D01*
X468962Y79553D01*
X469075Y79596D01*
X469258Y79638D01*
X469399Y79680D01*
X469498Y79722D01*
X469554Y79737D01*
X469582Y79751D01*
X469596D01*
X469709Y79807D01*
X469808Y79849D01*
X469892Y79906D01*
X469949Y79948D01*
X470005Y79990D01*
X470033Y80033D01*
X470047Y80047D01*
X470062Y80061D01*
X470146Y80202D01*
X470188Y80343D01*
Y80399D01*
X470203Y80441D01*
Y80470D01*
Y80484D01*
X470188Y80611D01*
X470146Y80737D01*
X470090Y80850D01*
X470019Y80935D01*
X469963Y81019D01*
X469907Y81076D01*
X469864Y81104D01*
X469850Y81118D01*
X469695Y81217D01*
X469512Y81287D01*
X469314Y81330D01*
X469131Y81372D01*
X468948Y81386D01*
X468807Y81400D01*
X468666D01*
X468426Y81386D01*
X468201Y81358D01*
X468018Y81301D01*
X467877Y81245D01*
X467750Y81189D01*
X467665Y81132D01*
X467609Y81104D01*
X467595Y81090D01*
X467454Y80963D01*
X467355Y80822D01*
X467270Y80681D01*
X467200Y80554D01*
X467158Y80427D01*
X467129Y80329D01*
X467115Y80272D01*
Y80244D01*
X465945Y80399D01*
X466002Y80639D01*
X466058Y80850D01*
X466129Y81033D01*
X466199Y81203D01*
X466269Y81315D01*
X466326Y81414D01*
X466354Y81470D01*
X466368Y81485D01*
X466495Y81626D01*
X466636Y81753D01*
X466791Y81865D01*
X466946Y81964D01*
X467087Y82034D01*
X467200Y82091D01*
X467270Y82119D01*
X467285Y82133D01*
X467299D01*
X467538Y82218D01*
X467792Y82274D01*
X468032Y82330D01*
X468257Y82359D01*
X468469Y82373D01*
X468624Y82387D01*
X468962D01*
X469159Y82359D01*
D02*
G37*
G36*
X419171Y82373D02*
X419397Y82359D01*
X419834Y82260D01*
X420215Y82133D01*
X420384Y82063D01*
X420539Y81992D01*
X420680Y81922D01*
X420793Y81851D01*
X420905Y81781D01*
X420990Y81724D01*
X421060Y81668D01*
X421117Y81626D01*
X421145Y81611D01*
X421159Y81597D01*
X421357Y81414D01*
X421511Y81203D01*
X421667Y80977D01*
X421779Y80752D01*
X421892Y80512D01*
X421977Y80258D01*
X422047Y80019D01*
X422104Y79793D01*
X422160Y79567D01*
X422188Y79370D01*
X422216Y79173D01*
X422230Y79018D01*
Y78877D01*
X422245Y78778D01*
Y78722D01*
Y78693D01*
X422230Y78369D01*
X422202Y78059D01*
X422160Y77777D01*
X422104Y77509D01*
X422033Y77270D01*
X421963Y77044D01*
X421878Y76833D01*
X421794Y76649D01*
X421709Y76480D01*
X421624Y76339D01*
X421554Y76226D01*
X421483Y76128D01*
X421427Y76043D01*
X421385Y75987D01*
X421357Y75959D01*
X421342Y75944D01*
X421159Y75775D01*
X420976Y75634D01*
X420779Y75507D01*
X420581Y75395D01*
X420384Y75310D01*
X420172Y75226D01*
X419792Y75113D01*
X419622Y75085D01*
X419453Y75056D01*
X419312Y75028D01*
X419185Y75014D01*
X419073Y75000D01*
X418932D01*
X418593Y75014D01*
X418283Y75071D01*
X417987Y75141D01*
X417748Y75212D01*
X417536Y75296D01*
X417452Y75324D01*
X417381Y75352D01*
X417311Y75381D01*
X417268Y75409D01*
X417254Y75423D01*
X417240D01*
X416958Y75606D01*
X416718Y75803D01*
X416507Y76001D01*
X416338Y76198D01*
X416211Y76367D01*
X416112Y76508D01*
X416084Y76565D01*
X416056Y76607D01*
X416042Y76621D01*
Y76635D01*
X415901Y76960D01*
X415802Y77312D01*
X415718Y77664D01*
X415675Y78017D01*
X415647Y78172D01*
Y78313D01*
X415633Y78454D01*
X415619Y78566D01*
Y78665D01*
Y78736D01*
Y78778D01*
Y78792D01*
X415633Y79102D01*
X415661Y79384D01*
X415704Y79652D01*
X415760Y79906D01*
X415830Y80145D01*
X415915Y80357D01*
X416000Y80568D01*
X416084Y80737D01*
X416169Y80892D01*
X416253Y81033D01*
X416338Y81160D01*
X416408Y81259D01*
X416465Y81330D01*
X416507Y81386D01*
X416535Y81414D01*
X416549Y81428D01*
X416733Y81597D01*
X416916Y81738D01*
X417113Y81879D01*
X417311Y81978D01*
X417508Y82077D01*
X417705Y82147D01*
X418086Y82274D01*
X418269Y82302D01*
X418424Y82330D01*
X418565Y82359D01*
X418692Y82373D01*
X418791Y82387D01*
X418932D01*
X419171Y82373D01*
D02*
G37*
%LPC*%
G36*
X450396Y61245D02*
X448324D01*
X448817Y58820D01*
X450890D01*
X450396Y61245D01*
D02*
G37*
G36*
X396574Y63980D02*
X396348D01*
X396207Y63952D01*
X395954Y63881D01*
X395728Y63782D01*
X395531Y63684D01*
X395376Y63571D01*
X395263Y63472D01*
X395192Y63402D01*
X395164Y63388D01*
Y63374D01*
X394981Y63134D01*
X394840Y62866D01*
X394741Y62584D01*
X394685Y62316D01*
X394643Y62091D01*
X394628Y61992D01*
Y61893D01*
X394614Y61823D01*
Y61767D01*
Y61738D01*
Y61724D01*
X394643Y61358D01*
X394699Y61034D01*
X394784Y60766D01*
X394882Y60540D01*
X394995Y60357D01*
X395080Y60230D01*
X395136Y60145D01*
X395164Y60117D01*
X395376Y59920D01*
X395601Y59779D01*
X395827Y59680D01*
X396052Y59610D01*
X396236Y59567D01*
X396391Y59553D01*
X396447Y59539D01*
X396532D01*
X396828Y59567D01*
X397095Y59624D01*
X397335Y59722D01*
X397547Y59835D01*
X397702Y59934D01*
X397829Y60033D01*
X397899Y60089D01*
X397927Y60117D01*
X398111Y60343D01*
X398251Y60596D01*
X398336Y60850D01*
X398406Y61090D01*
X398449Y61301D01*
X398463Y61386D01*
Y61470D01*
X398477Y61541D01*
Y61583D01*
Y61611D01*
Y61626D01*
X398449Y61992D01*
X398392Y62330D01*
X398294Y62627D01*
X398181Y62866D01*
X398082Y63064D01*
X397984Y63204D01*
X397955Y63247D01*
X397927Y63289D01*
X397899Y63303D01*
Y63317D01*
X397786Y63430D01*
X397673Y63543D01*
X397434Y63698D01*
X397194Y63825D01*
X396969Y63895D01*
X396785Y63952D01*
X396630Y63966D01*
X396574Y63980D01*
D02*
G37*
G36*
X460842Y63768D02*
X458587D01*
X458403Y63754D01*
X458220D01*
X458051Y63740D01*
X457769Y63698D01*
X457543Y63670D01*
X457360Y63627D01*
X457233Y63585D01*
X457163Y63571D01*
X457135Y63557D01*
X456881Y63430D01*
X456641Y63275D01*
X456430Y63092D01*
X456246Y62908D01*
X456106Y62739D01*
X455993Y62598D01*
X455965Y62542D01*
X455936Y62500D01*
X455908Y62471D01*
Y62457D01*
X455824Y62302D01*
X455739Y62119D01*
X455612Y61753D01*
X455528Y61358D01*
X455457Y60977D01*
X455443Y60808D01*
X455429Y60639D01*
X455415Y60498D01*
Y60371D01*
X455401Y60258D01*
Y60188D01*
Y60131D01*
Y60117D01*
X455415Y59722D01*
X455443Y59356D01*
X455485Y59032D01*
X455528Y58750D01*
X455556Y58637D01*
X455584Y58538D01*
X455612Y58440D01*
X455626Y58369D01*
X455640Y58313D01*
X455654Y58271D01*
X455669Y58242D01*
Y58228D01*
X455767Y57960D01*
X455880Y57721D01*
X456007Y57509D01*
X456120Y57326D01*
X456218Y57185D01*
X456303Y57086D01*
X456359Y57030D01*
X456373Y57002D01*
X456514Y56889D01*
X456655Y56790D01*
X456796Y56706D01*
X456937Y56621D01*
X457064Y56565D01*
X457163Y56522D01*
X457233Y56508D01*
X457262Y56494D01*
X457473Y56438D01*
X457727Y56396D01*
X457980Y56367D01*
X458220Y56353D01*
X458432Y56339D01*
X458530Y56325D01*
X460842D01*
Y63768D01*
D02*
G37*
G36*
X389032Y63980D02*
X388919D01*
X388680Y63966D01*
X388454Y63909D01*
X388271Y63839D01*
X388102Y63754D01*
X387975Y63670D01*
X387876Y63599D01*
X387806Y63543D01*
X387791Y63529D01*
X387636Y63345D01*
X387524Y63162D01*
X387439Y62979D01*
X387383Y62810D01*
X387355Y62655D01*
X387326Y62528D01*
Y62443D01*
Y62429D01*
Y62415D01*
X387340Y62189D01*
X387397Y61978D01*
X387467Y61795D01*
X387552Y61640D01*
X387636Y61513D01*
X387707Y61428D01*
X387763Y61358D01*
X387777Y61344D01*
X387947Y61203D01*
X388144Y61090D01*
X388327Y61019D01*
X388510Y60963D01*
X388680Y60935D01*
X388806Y60921D01*
X388891Y60907D01*
X388919D01*
X389173Y60921D01*
X389399Y60977D01*
X389596Y61048D01*
X389765Y61132D01*
X389892Y61203D01*
X389991Y61273D01*
X390061Y61329D01*
X390075Y61344D01*
X390216Y61513D01*
X390329Y61710D01*
X390399Y61893D01*
X390456Y62077D01*
X390484Y62232D01*
X390498Y62359D01*
X390512Y62443D01*
Y62457D01*
Y62471D01*
X390498Y62697D01*
X390442Y62894D01*
X390371Y63078D01*
X390287Y63233D01*
X390216Y63359D01*
X390146Y63458D01*
X390089Y63515D01*
X390075Y63529D01*
X389892Y63684D01*
X389709Y63797D01*
X389511Y63867D01*
X389328Y63923D01*
X389159Y63952D01*
X389032Y63980D01*
D02*
G37*
G36*
X389046Y59934D02*
X388962D01*
X388651Y59906D01*
X388369Y59849D01*
X388116Y59751D01*
X387904Y59652D01*
X387735Y59539D01*
X387608Y59440D01*
X387538Y59384D01*
X387510Y59356D01*
X387312Y59130D01*
X387171Y58891D01*
X387073Y58651D01*
X387002Y58440D01*
X386960Y58228D01*
X386946Y58073D01*
X386932Y58017D01*
Y57975D01*
Y57946D01*
Y57932D01*
X386960Y57636D01*
X387016Y57354D01*
X387115Y57115D01*
X387214Y56917D01*
X387312Y56762D01*
X387411Y56635D01*
X387467Y56565D01*
X387495Y56537D01*
X387721Y56353D01*
X387947Y56212D01*
X388186Y56128D01*
X388412Y56057D01*
X388609Y56015D01*
X388778Y56001D01*
X388835Y55987D01*
X388919D01*
X389117Y56001D01*
X389314Y56029D01*
X389497Y56071D01*
X389652Y56114D01*
X389779Y56156D01*
X389878Y56198D01*
X389934Y56226D01*
X389962Y56241D01*
X390132Y56353D01*
X390273Y56466D01*
X390399Y56593D01*
X390498Y56720D01*
X390583Y56818D01*
X390639Y56903D01*
X390667Y56974D01*
X390681Y56988D01*
X390752Y57171D01*
X390808Y57340D01*
X390851Y57509D01*
X390879Y57664D01*
X390893Y57791D01*
X390907Y57890D01*
Y57946D01*
Y57975D01*
X390879Y58271D01*
X390822Y58538D01*
X390738Y58778D01*
X390625Y58989D01*
X390526Y59145D01*
X390442Y59271D01*
X390385Y59342D01*
X390357Y59370D01*
X390146Y59553D01*
X389906Y59694D01*
X389680Y59793D01*
X389455Y59864D01*
X389258Y59906D01*
X389103Y59920D01*
X389046Y59934D01*
D02*
G37*
G36*
X469159Y28980D02*
X469075D01*
X468920Y28966D01*
X468765Y28952D01*
X468624Y28909D01*
X468497Y28853D01*
X468257Y28726D01*
X468046Y28585D01*
X467891Y28430D01*
X467764Y28303D01*
X467721Y28247D01*
X467693Y28205D01*
X467665Y28190D01*
Y28176D01*
X467566Y28007D01*
X467482Y27810D01*
X467397Y27584D01*
X467341Y27345D01*
X467285Y27091D01*
X467242Y26823D01*
X467172Y26287D01*
X467144Y26019D01*
X467129Y25780D01*
X467115Y25554D01*
Y25371D01*
X467101Y25202D01*
Y25075D01*
Y25004D01*
Y24990D01*
Y24976D01*
Y24539D01*
X467129Y24144D01*
X467158Y23792D01*
X467186Y23454D01*
X467228Y23172D01*
X467285Y22904D01*
X467341Y22678D01*
X467383Y22467D01*
X467440Y22298D01*
X467496Y22157D01*
X467538Y22030D01*
X467595Y21931D01*
X467623Y21861D01*
X467651Y21818D01*
X467679Y21790D01*
Y21776D01*
X467792Y21635D01*
X467905Y21523D01*
X468018Y21410D01*
X468130Y21325D01*
X468370Y21184D01*
X468581Y21086D01*
X468779Y21029D01*
X468920Y21001D01*
X468976Y20987D01*
X469061D01*
X469216Y21001D01*
X469357Y21015D01*
X469625Y21114D01*
X469864Y21240D01*
X470076Y21381D01*
X470231Y21523D01*
X470358Y21649D01*
X470428Y21748D01*
X470456Y21762D01*
Y21776D01*
X470555Y21945D01*
X470640Y22143D01*
X470724Y22368D01*
X470780Y22608D01*
X470837Y22862D01*
X470879Y23129D01*
X470950Y23679D01*
X470978Y23933D01*
X470992Y24173D01*
X471006Y24398D01*
Y24581D01*
X471020Y24751D01*
Y24878D01*
Y24948D01*
Y24976D01*
X471006Y25413D01*
X470992Y25808D01*
X470964Y26174D01*
X470922Y26513D01*
X470879Y26809D01*
X470823Y27077D01*
X470766Y27316D01*
X470710Y27528D01*
X470654Y27711D01*
X470611Y27866D01*
X470555Y27993D01*
X470513Y28106D01*
X470470Y28176D01*
X470442Y28233D01*
X470414Y28261D01*
Y28275D01*
X470315Y28402D01*
X470217Y28515D01*
X470104Y28599D01*
X469991Y28684D01*
X469766Y28811D01*
X469554Y28895D01*
X469371Y28937D01*
X469216Y28966D01*
X469159Y28980D01*
D02*
G37*
G36*
X335731Y41259D02*
X335717D01*
X335731Y40808D01*
X335745Y40526D01*
X335760Y40286D01*
X335788Y40089D01*
X335830Y39920D01*
X335872Y39793D01*
X335900Y39694D01*
X335914Y39638D01*
X335929Y39624D01*
X336041Y39441D01*
X336154Y39271D01*
X336295Y39130D01*
X336422Y39018D01*
X336535Y38919D01*
X336633Y38849D01*
X336690Y38806D01*
X336718Y38792D01*
X336930Y38693D01*
X337141Y38623D01*
X337338Y38567D01*
X337536Y38538D01*
X337691Y38510D01*
X337832Y38496D01*
X337944D01*
X338198Y38510D01*
X338410Y38538D01*
X338593Y38595D01*
X338748Y38651D01*
X338861Y38707D01*
X338945Y38764D01*
X339002Y38792D01*
X339016Y38806D01*
X339129Y38933D01*
X339213Y39074D01*
X339284Y39201D01*
X339326Y39328D01*
X339354Y39441D01*
X339368Y39525D01*
Y39596D01*
Y39610D01*
X339354Y39722D01*
X339340Y39835D01*
X339312Y39920D01*
X339284Y40004D01*
X339255Y40075D01*
X339241Y40131D01*
X339213Y40160D01*
Y40174D01*
X339072Y40343D01*
X338903Y40455D01*
X338847Y40498D01*
X338790Y40526D01*
X338748Y40554D01*
X338734D01*
X338593Y40611D01*
X338438Y40653D01*
X338269Y40695D01*
X338100Y40723D01*
X337944Y40752D01*
X337803Y40780D01*
X337719Y40794D01*
X337691D01*
X337451Y40836D01*
X337226Y40864D01*
X337028Y40907D01*
X336831Y40949D01*
X336648Y40991D01*
X336493Y41034D01*
X336338Y41062D01*
X336211Y41104D01*
X336098Y41132D01*
X335999Y41160D01*
X335914Y41189D01*
X335844Y41217D01*
X335788Y41231D01*
X335745Y41245D01*
X335731Y41259D01*
D02*
G37*
G36*
X452638Y43952D02*
X452553D01*
X452384Y43938D01*
X452229Y43923D01*
X451933Y43839D01*
X451679Y43726D01*
X451468Y43599D01*
X451298Y43472D01*
X451172Y43359D01*
X451101Y43275D01*
X451073Y43261D01*
Y43247D01*
X450946Y43064D01*
X450833Y42852D01*
X450763Y42641D01*
X450692Y42415D01*
X450650Y42232D01*
X450622Y42063D01*
Y42006D01*
X450608Y41964D01*
Y41936D01*
Y41922D01*
X454569D01*
X454527Y42246D01*
X454442Y42542D01*
X454343Y42796D01*
X454231Y42993D01*
X454132Y43162D01*
X454033Y43289D01*
X453977Y43359D01*
X453949Y43388D01*
X453723Y43571D01*
X453498Y43712D01*
X453258Y43811D01*
X453032Y43881D01*
X452849Y43923D01*
X452694Y43938D01*
X452638Y43952D01*
D02*
G37*
G36*
X394290D02*
X394206D01*
X394036Y43938D01*
X393881Y43923D01*
X393585Y43839D01*
X393332Y43726D01*
X393120Y43599D01*
X392951Y43472D01*
X392824Y43359D01*
X392754Y43275D01*
X392725Y43261D01*
Y43247D01*
X392599Y43064D01*
X392486Y42852D01*
X392415Y42641D01*
X392345Y42415D01*
X392303Y42232D01*
X392274Y42063D01*
Y42006D01*
X392260Y41964D01*
Y41936D01*
Y41922D01*
X396222D01*
X396179Y42246D01*
X396095Y42542D01*
X395996Y42796D01*
X395883Y42993D01*
X395784Y43162D01*
X395686Y43289D01*
X395629Y43359D01*
X395601Y43388D01*
X395376Y43571D01*
X395150Y43712D01*
X394911Y43811D01*
X394685Y43881D01*
X394502Y43923D01*
X394347Y43938D01*
X394290Y43952D01*
D02*
G37*
G36*
X345007D02*
X344922D01*
X344753Y43938D01*
X344598Y43923D01*
X344302Y43839D01*
X344049Y43726D01*
X343837Y43599D01*
X343668Y43472D01*
X343541Y43359D01*
X343470Y43275D01*
X343442Y43261D01*
Y43247D01*
X343316Y43064D01*
X343203Y42852D01*
X343132Y42641D01*
X343062Y42415D01*
X343019Y42232D01*
X342991Y42063D01*
Y42006D01*
X342977Y41964D01*
Y41936D01*
Y41922D01*
X346938D01*
X346896Y42246D01*
X346811Y42542D01*
X346713Y42796D01*
X346600Y42993D01*
X346501Y43162D01*
X346403Y43289D01*
X346346Y43359D01*
X346318Y43388D01*
X346093Y43571D01*
X345867Y43712D01*
X345627Y43811D01*
X345402Y43881D01*
X345219Y43923D01*
X345064Y43938D01*
X345007Y43952D01*
D02*
G37*
G36*
X405483Y46376D02*
X402410D01*
X402029Y46362D01*
X401705Y46306D01*
X401423Y46235D01*
X401212Y46151D01*
X401029Y46066D01*
X400916Y45996D01*
X400845Y45939D01*
X400817Y45925D01*
X400648Y45742D01*
X400521Y45559D01*
X400437Y45361D01*
X400366Y45192D01*
X400338Y45023D01*
X400324Y44896D01*
X400310Y44812D01*
Y44797D01*
Y44783D01*
X400324Y44614D01*
X400352Y44445D01*
X400394Y44304D01*
X400437Y44177D01*
X400493Y44064D01*
X400535Y43980D01*
X400563Y43923D01*
X400578Y43909D01*
X400676Y43768D01*
X400803Y43642D01*
X400930Y43543D01*
X401057Y43458D01*
X401170Y43402D01*
X401254Y43359D01*
X401311Y43331D01*
X401339Y43317D01*
X401536Y43261D01*
X401762Y43219D01*
X401987Y43190D01*
X402213Y43176D01*
X402410Y43162D01*
X402579Y43148D01*
X405483D01*
Y46376D01*
D02*
G37*
G36*
X423880Y43952D02*
X423795D01*
X423626Y43938D01*
X423471Y43923D01*
X423189Y43853D01*
X422935Y43740D01*
X422724Y43613D01*
X422555Y43486D01*
X422428Y43388D01*
X422343Y43303D01*
X422315Y43289D01*
Y43275D01*
X422202Y43148D01*
X422118Y42993D01*
X421963Y42683D01*
X421850Y42344D01*
X421779Y42034D01*
X421737Y41738D01*
X421723Y41611D01*
Y41499D01*
X421709Y41414D01*
Y41344D01*
Y41301D01*
Y41287D01*
Y41034D01*
X421737Y40794D01*
X421765Y40582D01*
X421808Y40371D01*
X421850Y40188D01*
X421906Y40019D01*
X421949Y39864D01*
X422005Y39722D01*
X422061Y39610D01*
X422118Y39497D01*
X422174Y39412D01*
X422216Y39342D01*
X422259Y39286D01*
X422287Y39243D01*
X422301Y39229D01*
X422315Y39215D01*
X422428Y39102D01*
X422555Y38990D01*
X422794Y38820D01*
X423048Y38707D01*
X423274Y38623D01*
X423485Y38581D01*
X423640Y38552D01*
X423711Y38538D01*
X423795D01*
X423964Y38552D01*
X424119Y38567D01*
X424416Y38637D01*
X424669Y38750D01*
X424881Y38877D01*
X425050Y38990D01*
X425177Y39102D01*
X425261Y39173D01*
X425275Y39201D01*
X425289D01*
X425388Y39342D01*
X425487Y39483D01*
X425628Y39807D01*
X425741Y40145D01*
X425811Y40484D01*
X425853Y40780D01*
X425868Y40907D01*
Y41019D01*
X425882Y41118D01*
Y41189D01*
Y41231D01*
Y41245D01*
X425868Y41485D01*
X425853Y41724D01*
X425825Y41936D01*
X425783Y42133D01*
X425741Y42316D01*
X425698Y42485D01*
X425642Y42627D01*
X425586Y42768D01*
X425529Y42880D01*
X425473Y42993D01*
X425430Y43078D01*
X425388Y43148D01*
X425346Y43204D01*
X425318Y43247D01*
X425289Y43261D01*
Y43275D01*
X425177Y43388D01*
X425050Y43500D01*
X424810Y43670D01*
X424557Y43782D01*
X424317Y43867D01*
X424105Y43923D01*
X423950Y43938D01*
X423880Y43952D01*
D02*
G37*
G36*
X460095Y43994D02*
X460024D01*
X459884Y43980D01*
X459743Y43966D01*
X459489Y43895D01*
X459263Y43782D01*
X459066Y43656D01*
X458911Y43529D01*
X458798Y43430D01*
X458728Y43345D01*
X458699Y43331D01*
Y43317D01*
X458601Y43190D01*
X458516Y43035D01*
X458375Y42711D01*
X458276Y42387D01*
X458206Y42063D01*
X458164Y41767D01*
X458150Y41640D01*
Y41527D01*
X458135Y41428D01*
Y41358D01*
Y41315D01*
Y41301D01*
Y41048D01*
X458164Y40808D01*
X458192Y40582D01*
X458220Y40371D01*
X458262Y40188D01*
X458319Y40019D01*
X458375Y39849D01*
X458418Y39722D01*
X458474Y39596D01*
X458530Y39497D01*
X458573Y39398D01*
X458629Y39328D01*
X458657Y39271D01*
X458685Y39229D01*
X458713Y39215D01*
Y39201D01*
X458826Y39088D01*
X458939Y38990D01*
X459165Y38820D01*
X459390Y38707D01*
X459602Y38623D01*
X459799Y38581D01*
X459940Y38552D01*
X459996Y38538D01*
X460081D01*
X460222Y38552D01*
X460363Y38567D01*
X460617Y38637D01*
X460842Y38750D01*
X461040Y38863D01*
X461195Y38975D01*
X461307Y39088D01*
X461378Y39159D01*
X461406Y39187D01*
X461505Y39314D01*
X461589Y39455D01*
X461730Y39779D01*
X461815Y40103D01*
X461885Y40441D01*
X461928Y40738D01*
X461942Y40864D01*
Y40977D01*
X461956Y41076D01*
Y41146D01*
Y41189D01*
Y41203D01*
Y41456D01*
X461928Y41682D01*
X461899Y41893D01*
X461871Y42105D01*
X461815Y42288D01*
X461773Y42457D01*
X461716Y42612D01*
X461660Y42753D01*
X461618Y42866D01*
X461561Y42979D01*
X461505Y43064D01*
X461462Y43148D01*
X461434Y43204D01*
X461406Y43247D01*
X461378Y43261D01*
Y43275D01*
X461265Y43402D01*
X461152Y43515D01*
X461040Y43613D01*
X460913Y43698D01*
X460687Y43825D01*
X460476Y43909D01*
X460292Y43952D01*
X460151Y43980D01*
X460095Y43994D01*
D02*
G37*
G36*
X450805Y98670D02*
X450706D01*
X450495Y98656D01*
X450312Y98599D01*
X450143Y98529D01*
X450002Y98458D01*
X449889Y98374D01*
X449804Y98303D01*
X449748Y98247D01*
X449734Y98233D01*
X449607Y98063D01*
X449494Y97866D01*
X449424Y97655D01*
X449367Y97457D01*
X449339Y97288D01*
X449325Y97133D01*
X449311Y97077D01*
Y97049D01*
Y97020D01*
Y97006D01*
X452102D01*
X452088Y97274D01*
X452046Y97514D01*
X451989Y97725D01*
X451905Y97894D01*
X451834Y98035D01*
X451764Y98134D01*
X451721Y98204D01*
X451707Y98218D01*
X451552Y98374D01*
X451383Y98486D01*
X451214Y98557D01*
X451059Y98613D01*
X450918Y98642D01*
X450805Y98670D01*
D02*
G37*
G36*
X478026Y100982D02*
X476560D01*
X476419Y100968D01*
X476292D01*
X476166Y100953D01*
X475982D01*
X475841Y100939D01*
X475743Y100925D01*
X475686Y100911D01*
X475672D01*
X475503Y100869D01*
X475348Y100812D01*
X475207Y100742D01*
X475094Y100657D01*
X475010Y100587D01*
X474939Y100531D01*
X474897Y100488D01*
X474883Y100474D01*
X474770Y100333D01*
X474700Y100192D01*
X474643Y100037D01*
X474601Y99896D01*
X474573Y99769D01*
X474558Y99670D01*
Y99614D01*
Y99586D01*
X474573Y99431D01*
X474587Y99290D01*
X474629Y99163D01*
X474671Y99050D01*
X474714Y98952D01*
X474742Y98881D01*
X474770Y98839D01*
X474784Y98825D01*
X474869Y98712D01*
X474981Y98613D01*
X475080Y98529D01*
X475179Y98458D01*
X475263Y98416D01*
X475334Y98374D01*
X475390Y98359D01*
X475404Y98345D01*
X475489Y98317D01*
X475588Y98303D01*
X475813Y98261D01*
X476067Y98233D01*
X476321Y98218D01*
X476574D01*
X476673Y98204D01*
X478026D01*
Y100982D01*
D02*
G37*
G36*
X404764Y99826D02*
Y96470D01*
X407034D01*
X404764Y99826D01*
D02*
G37*
G36*
X397180D02*
Y96470D01*
X399450D01*
X397180Y99826D01*
D02*
G37*
G36*
X462477Y98585D02*
X462407D01*
X462139Y98557D01*
X461899Y98500D01*
X461702Y98402D01*
X461519Y98303D01*
X461378Y98204D01*
X461265Y98106D01*
X461209Y98049D01*
X461180Y98021D01*
X461011Y97796D01*
X460884Y97528D01*
X460800Y97260D01*
X460729Y97006D01*
X460701Y96781D01*
X460687Y96668D01*
Y96583D01*
X460673Y96513D01*
Y96456D01*
Y96428D01*
Y96414D01*
X460701Y96048D01*
X460758Y95709D01*
X460828Y95441D01*
X460927Y95202D01*
X461025Y95033D01*
X461096Y94892D01*
X461152Y94821D01*
X461180Y94793D01*
X461378Y94610D01*
X461575Y94469D01*
X461787Y94384D01*
X461984Y94314D01*
X462153Y94271D01*
X462280Y94257D01*
X462336Y94243D01*
X462407D01*
X462675Y94271D01*
X462914Y94328D01*
X463126Y94412D01*
X463295Y94525D01*
X463450Y94624D01*
X463563Y94708D01*
X463619Y94765D01*
X463647Y94793D01*
X463817Y95019D01*
X463929Y95286D01*
X464014Y95554D01*
X464085Y95822D01*
X464113Y96048D01*
X464127Y96146D01*
Y96245D01*
X464141Y96315D01*
Y96372D01*
Y96400D01*
Y96414D01*
X464113Y96781D01*
X464056Y97105D01*
X463986Y97387D01*
X463887Y97612D01*
X463802Y97781D01*
X463718Y97922D01*
X463662Y97993D01*
X463647Y98021D01*
X463450Y98204D01*
X463239Y98345D01*
X463027Y98444D01*
X462830Y98515D01*
X462661Y98557D01*
X462534Y98571D01*
X462477Y98585D01*
D02*
G37*
G36*
X390202Y101207D02*
X390117D01*
X389934Y101193D01*
X389765Y101151D01*
X389624Y101108D01*
X389497Y101052D01*
X389399Y100982D01*
X389328Y100939D01*
X389286Y100897D01*
X389272Y100883D01*
X389159Y100756D01*
X389088Y100615D01*
X389032Y100474D01*
X388990Y100333D01*
X388962Y100220D01*
X388947Y100122D01*
Y100065D01*
Y100037D01*
X388962Y99840D01*
X389004Y99656D01*
X389046Y99515D01*
X389103Y99389D01*
X389173Y99276D01*
X389215Y99205D01*
X389258Y99163D01*
X389272Y99149D01*
X389399Y99050D01*
X389539Y98966D01*
X389680Y98909D01*
X389822Y98881D01*
X389948Y98853D01*
X390047Y98839D01*
X390132D01*
X390315Y98853D01*
X390484Y98881D01*
X390625Y98938D01*
X390752Y98994D01*
X390851Y99050D01*
X390921Y99107D01*
X390963Y99135D01*
X390977Y99149D01*
X391076Y99276D01*
X391161Y99417D01*
X391217Y99558D01*
X391245Y99699D01*
X391273Y99826D01*
X391288Y99924D01*
Y99995D01*
Y100023D01*
X391273Y100220D01*
X391245Y100389D01*
X391189Y100531D01*
X391133Y100657D01*
X391076Y100756D01*
X391020Y100827D01*
X390992Y100869D01*
X390977Y100883D01*
X390851Y100996D01*
X390710Y101066D01*
X390569Y101123D01*
X390428Y101165D01*
X390301Y101193D01*
X390202Y101207D01*
D02*
G37*
G36*
X390216Y97359D02*
X390103D01*
X389892Y97345D01*
X389695Y97288D01*
X389525Y97232D01*
X389384Y97147D01*
X389272Y97077D01*
X389187Y97006D01*
X389131Y96950D01*
X389117Y96936D01*
X388990Y96767D01*
X388891Y96583D01*
X388821Y96400D01*
X388764Y96217D01*
X388736Y96062D01*
X388722Y95935D01*
Y95850D01*
Y95836D01*
Y95822D01*
X388736Y95540D01*
X388778Y95301D01*
X388849Y95089D01*
X388919Y94920D01*
X388990Y94779D01*
X389060Y94694D01*
X389103Y94624D01*
X389117Y94610D01*
X389272Y94469D01*
X389427Y94370D01*
X389582Y94300D01*
X389737Y94257D01*
X389878Y94229D01*
X389977Y94201D01*
X390075D01*
X390287Y94215D01*
X390484Y94271D01*
X390653Y94342D01*
X390794Y94412D01*
X390907Y94497D01*
X390992Y94553D01*
X391048Y94610D01*
X391062Y94624D01*
X391189Y94807D01*
X391288Y95004D01*
X391358Y95202D01*
X391400Y95399D01*
X391428Y95582D01*
X391457Y95723D01*
Y95780D01*
Y95822D01*
Y95836D01*
Y95850D01*
X391443Y96048D01*
X391400Y96245D01*
X391358Y96414D01*
X391288Y96569D01*
X391231Y96696D01*
X391189Y96795D01*
X391147Y96851D01*
X391133Y96879D01*
X390992Y97034D01*
X390822Y97161D01*
X390653Y97246D01*
X390484Y97302D01*
X390343Y97330D01*
X390216Y97359D01*
D02*
G37*
G36*
X452920Y78707D02*
X452906D01*
X452920Y78256D01*
X452934Y77975D01*
X452948Y77735D01*
X452976Y77537D01*
X453018Y77368D01*
X453061Y77241D01*
X453089Y77143D01*
X453103Y77086D01*
X453117Y77072D01*
X453230Y76889D01*
X453343Y76720D01*
X453484Y76579D01*
X453610Y76466D01*
X453723Y76367D01*
X453822Y76297D01*
X453878Y76255D01*
X453906Y76241D01*
X454118Y76142D01*
X454329Y76071D01*
X454527Y76015D01*
X454724Y75987D01*
X454879Y75959D01*
X455020Y75944D01*
X455133D01*
X455387Y75959D01*
X455598Y75987D01*
X455781Y76043D01*
X455936Y76100D01*
X456049Y76156D01*
X456134Y76212D01*
X456190Y76241D01*
X456204Y76255D01*
X456317Y76382D01*
X456402Y76522D01*
X456472Y76649D01*
X456514Y76776D01*
X456543Y76889D01*
X456557Y76974D01*
Y77044D01*
Y77058D01*
X456543Y77171D01*
X456529Y77284D01*
X456500Y77368D01*
X456472Y77453D01*
X456444Y77523D01*
X456430Y77580D01*
X456402Y77608D01*
Y77622D01*
X456261Y77791D01*
X456091Y77904D01*
X456035Y77946D01*
X455979Y77975D01*
X455936Y78003D01*
X455922D01*
X455781Y78059D01*
X455626Y78101D01*
X455457Y78144D01*
X455288Y78172D01*
X455133Y78200D01*
X454992Y78228D01*
X454907Y78242D01*
X454879D01*
X454640Y78285D01*
X454414Y78313D01*
X454217Y78355D01*
X454019Y78397D01*
X453836Y78440D01*
X453681Y78482D01*
X453526Y78510D01*
X453399Y78552D01*
X453286Y78581D01*
X453187Y78609D01*
X453103Y78637D01*
X453032Y78665D01*
X452976Y78679D01*
X452934Y78693D01*
X452920Y78707D01*
D02*
G37*
G36*
X445336D02*
X445321D01*
X445336Y78256D01*
X445350Y77975D01*
X445364Y77735D01*
X445392Y77537D01*
X445434Y77368D01*
X445476Y77241D01*
X445505Y77143D01*
X445519Y77086D01*
X445533Y77072D01*
X445646Y76889D01*
X445758Y76720D01*
X445899Y76579D01*
X446026Y76466D01*
X446139Y76367D01*
X446238Y76297D01*
X446294Y76255D01*
X446322Y76241D01*
X446534Y76142D01*
X446745Y76071D01*
X446942Y76015D01*
X447140Y75987D01*
X447295Y75959D01*
X447436Y75944D01*
X447549D01*
X447802Y75959D01*
X448014Y75987D01*
X448197Y76043D01*
X448352Y76100D01*
X448465Y76156D01*
X448550Y76212D01*
X448606Y76241D01*
X448620Y76255D01*
X448733Y76382D01*
X448817Y76522D01*
X448888Y76649D01*
X448930Y76776D01*
X448958Y76889D01*
X448973Y76974D01*
Y77044D01*
Y77058D01*
X448958Y77171D01*
X448944Y77284D01*
X448916Y77368D01*
X448888Y77453D01*
X448860Y77523D01*
X448846Y77580D01*
X448817Y77608D01*
Y77622D01*
X448676Y77791D01*
X448507Y77904D01*
X448451Y77946D01*
X448395Y77975D01*
X448352Y78003D01*
X448338D01*
X448197Y78059D01*
X448042Y78101D01*
X447873Y78144D01*
X447704Y78172D01*
X447549Y78200D01*
X447408Y78228D01*
X447323Y78242D01*
X447295D01*
X447055Y78285D01*
X446830Y78313D01*
X446632Y78355D01*
X446435Y78397D01*
X446252Y78440D01*
X446097Y78482D01*
X445942Y78510D01*
X445815Y78552D01*
X445702Y78581D01*
X445603Y78609D01*
X445519Y78637D01*
X445448Y78665D01*
X445392Y78679D01*
X445350Y78693D01*
X445336Y78707D01*
D02*
G37*
G36*
X398322D02*
X398308D01*
X398322Y78256D01*
X398336Y77975D01*
X398350Y77735D01*
X398378Y77537D01*
X398421Y77368D01*
X398463Y77241D01*
X398491Y77143D01*
X398505Y77086D01*
X398519Y77072D01*
X398632Y76889D01*
X398745Y76720D01*
X398886Y76579D01*
X399013Y76466D01*
X399126Y76367D01*
X399224Y76297D01*
X399281Y76255D01*
X399309Y76241D01*
X399520Y76142D01*
X399732Y76071D01*
X399929Y76015D01*
X400126Y75987D01*
X400281Y75959D01*
X400422Y75944D01*
X400535D01*
X400789Y75959D01*
X401000Y75987D01*
X401184Y76043D01*
X401339Y76100D01*
X401451Y76156D01*
X401536Y76212D01*
X401592Y76241D01*
X401607Y76255D01*
X401719Y76382D01*
X401804Y76522D01*
X401874Y76649D01*
X401917Y76776D01*
X401945Y76889D01*
X401959Y76974D01*
Y77044D01*
Y77058D01*
X401945Y77171D01*
X401931Y77284D01*
X401903Y77368D01*
X401874Y77453D01*
X401846Y77523D01*
X401832Y77580D01*
X401804Y77608D01*
Y77622D01*
X401663Y77791D01*
X401494Y77904D01*
X401437Y77946D01*
X401381Y77975D01*
X401339Y78003D01*
X401325D01*
X401184Y78059D01*
X401029Y78101D01*
X400859Y78144D01*
X400690Y78172D01*
X400535Y78200D01*
X400394Y78228D01*
X400310Y78242D01*
X400281D01*
X400042Y78285D01*
X399816Y78313D01*
X399619Y78355D01*
X399422Y78397D01*
X399238Y78440D01*
X399083Y78482D01*
X398928Y78510D01*
X398801Y78552D01*
X398689Y78581D01*
X398590Y78609D01*
X398505Y78637D01*
X398435Y78665D01*
X398378Y78679D01*
X398336Y78693D01*
X398322Y78707D01*
D02*
G37*
G36*
X429490Y83754D02*
X427178D01*
X426868Y83726D01*
X426629Y83712D01*
X426417Y83684D01*
X426262Y83656D01*
X426163Y83642D01*
X426093Y83613D01*
X426079D01*
X425924Y83557D01*
X425783Y83472D01*
X425670Y83388D01*
X425572Y83303D01*
X425501Y83233D01*
X425445Y83162D01*
X425416Y83120D01*
X425402Y83106D01*
X425318Y82965D01*
X425261Y82824D01*
X425219Y82683D01*
X425191Y82542D01*
X425177Y82429D01*
X425163Y82345D01*
Y82288D01*
Y82260D01*
X425177Y82077D01*
X425205Y81908D01*
X425247Y81767D01*
X425289Y81654D01*
X425332Y81555D01*
X425374Y81470D01*
X425402Y81428D01*
X425416Y81414D01*
X425515Y81301D01*
X425642Y81189D01*
X425769Y81104D01*
X425882Y81048D01*
X425994Y80991D01*
X426079Y80949D01*
X426135Y80935D01*
X426163Y80921D01*
X426319Y80892D01*
X426516Y80864D01*
X426713Y80850D01*
X426911Y80836D01*
X427094Y80822D01*
X429490D01*
Y83754D01*
D02*
G37*
G36*
Y79666D02*
X426925D01*
X426629Y79638D01*
X426389Y79610D01*
X426192Y79581D01*
X426037Y79553D01*
X425910Y79525D01*
X425853Y79511D01*
X425825Y79497D01*
X425642Y79426D01*
X425487Y79342D01*
X425346Y79243D01*
X425233Y79145D01*
X425149Y79060D01*
X425092Y78990D01*
X425050Y78933D01*
X425036Y78919D01*
X424937Y78764D01*
X424867Y78609D01*
X424810Y78454D01*
X424782Y78313D01*
X424754Y78186D01*
X424740Y78073D01*
Y78017D01*
Y77989D01*
X424754Y77819D01*
X424768Y77650D01*
X424796Y77509D01*
X424838Y77396D01*
X424881Y77298D01*
X424909Y77213D01*
X424923Y77171D01*
X424937Y77157D01*
X425022Y77030D01*
X425092Y76917D01*
X425191Y76833D01*
X425261Y76748D01*
X425332Y76692D01*
X425388Y76649D01*
X425430Y76621D01*
X425445Y76607D01*
X425684Y76494D01*
X425924Y76410D01*
X426023Y76382D01*
X426107Y76367D01*
X426163Y76353D01*
X426178D01*
X426290Y76339D01*
X426417Y76325D01*
X426713Y76311D01*
X429490D01*
Y79666D01*
D02*
G37*
G36*
X419016Y81400D02*
X418932D01*
X418763Y81386D01*
X418607Y81372D01*
X418326Y81301D01*
X418072Y81189D01*
X417860Y81062D01*
X417691Y80935D01*
X417564Y80836D01*
X417480Y80752D01*
X417452Y80737D01*
Y80723D01*
X417339Y80597D01*
X417254Y80441D01*
X417099Y80131D01*
X416986Y79793D01*
X416916Y79483D01*
X416874Y79187D01*
X416860Y79060D01*
Y78947D01*
X416845Y78863D01*
Y78792D01*
Y78750D01*
Y78736D01*
Y78482D01*
X416874Y78242D01*
X416902Y78031D01*
X416944Y77819D01*
X416986Y77636D01*
X417043Y77467D01*
X417085Y77312D01*
X417141Y77171D01*
X417198Y77058D01*
X417254Y76945D01*
X417311Y76861D01*
X417353Y76790D01*
X417395Y76734D01*
X417423Y76692D01*
X417438Y76677D01*
X417452Y76663D01*
X417564Y76551D01*
X417691Y76438D01*
X417931Y76269D01*
X418185Y76156D01*
X418410Y76071D01*
X418622Y76029D01*
X418777Y76001D01*
X418847Y75987D01*
X418932D01*
X419101Y76001D01*
X419256Y76015D01*
X419552Y76086D01*
X419806Y76198D01*
X420017Y76325D01*
X420186Y76438D01*
X420313Y76551D01*
X420398Y76621D01*
X420412Y76649D01*
X420426D01*
X420525Y76790D01*
X420623Y76931D01*
X420764Y77256D01*
X420877Y77594D01*
X420948Y77932D01*
X420990Y78228D01*
X421004Y78355D01*
Y78468D01*
X421018Y78566D01*
Y78637D01*
Y78679D01*
Y78693D01*
X421004Y78933D01*
X420990Y79173D01*
X420962Y79384D01*
X420919Y79581D01*
X420877Y79765D01*
X420835Y79934D01*
X420779Y80075D01*
X420722Y80216D01*
X420666Y80329D01*
X420609Y80441D01*
X420567Y80526D01*
X420525Y80597D01*
X420482Y80653D01*
X420454Y80695D01*
X420426Y80709D01*
Y80723D01*
X420313Y80836D01*
X420186Y80949D01*
X419947Y81118D01*
X419693Y81231D01*
X419453Y81315D01*
X419242Y81372D01*
X419087Y81386D01*
X419016Y81400D01*
D02*
G37*
%LPD*%
D17*
X320000Y10000D02*
X485000D01*
X320000Y110000D02*
X485000D01*
Y10000D02*
Y110000D01*
X320000Y10000D02*
Y110000D01*
M02*
