G04*
G04 #@! TF.GenerationSoftware,Altium Limited,Altium Designer,25.3.3 (18)*
G04*
G04 Layer_Color=2752767*
%FSLAX44Y44*%
%MOMM*%
G71*
G04*
G04 #@! TF.SameCoordinates,E74E417C-EFC3-4B03-BFDF-08B39AB8E956*
G04*
G04*
G04 #@! TF.FilePolarity,Positive*
G04*
G01*
G75*
%ADD15C,0.1270*%
%ADD17C,0.2540*%
%ADD110C,0.3810*%
%ADD112C,0.4064*%
%ADD113C,0.3556*%
D15*
X475700Y438750D02*
G03*
X475700Y438750I-6350J0D01*
G01*
Y525250D02*
G03*
X475700Y525250I-6350J0D01*
G01*
X67810Y739000D02*
G03*
X67810Y739000I-3810J0D01*
G01*
X70350D02*
G03*
X70350Y739000I-6350J0D01*
G01*
X67810Y818000D02*
G03*
X67810Y818000I-3810J0D01*
G01*
X70350D02*
G03*
X70350Y818000I-6350J0D01*
G01*
X67810Y639250D02*
G03*
X67810Y639250I-3810J0D01*
G01*
X70350D02*
G03*
X70350Y639250I-6350J0D01*
G01*
X67810Y560250D02*
G03*
X67810Y560250I-3810J0D01*
G01*
X70350D02*
G03*
X70350Y560250I-6350J0D01*
G01*
X67810Y460500D02*
G03*
X67810Y460500I-3810J0D01*
G01*
X70350D02*
G03*
X70350Y460500I-6350J0D01*
G01*
X67810Y381501D02*
G03*
X67810Y381501I-3810J0D01*
G01*
X70350D02*
G03*
X70350Y381501I-6350J0D01*
G01*
X67810Y281750D02*
G03*
X67810Y281750I-3810J0D01*
G01*
X70350D02*
G03*
X70350Y281750I-6350J0D01*
G01*
X67810Y202750D02*
G03*
X67810Y202750I-3810J0D01*
G01*
X70350D02*
G03*
X70350Y202750I-6350J0D01*
G01*
X67810Y103000D02*
G03*
X67810Y103000I-3810J0D01*
G01*
X70350D02*
G03*
X70350Y103000I-6350J0D01*
G01*
X67810Y24000D02*
G03*
X67810Y24000I-3810J0D01*
G01*
X70350D02*
G03*
X70350Y24000I-6350J0D01*
G01*
X239150Y433650D02*
X251850D01*
Y446350D01*
X239150D02*
X251850D01*
X239150Y433650D02*
Y446350D01*
X202650Y536650D02*
X215350D01*
Y549350D01*
X202650D02*
X215350D01*
X202650Y536650D02*
Y549350D01*
X182650Y433650D02*
X195350D01*
Y446350D01*
X182650D02*
X195350D01*
X182650Y433650D02*
Y446350D01*
X169650Y437650D02*
X182350D01*
Y450350D01*
X169650D02*
X182350D01*
X169650Y437650D02*
Y450350D01*
X169650Y552650D02*
X182350D01*
Y565350D01*
X169650D02*
X182350D01*
X169650Y552650D02*
Y565350D01*
X239150Y318650D02*
X251850D01*
Y331350D01*
X239150D02*
X251850D01*
X239150Y318650D02*
Y331350D01*
X239150Y203650D02*
X251850D01*
Y216350D01*
X239150D02*
X251850D01*
X239150Y203650D02*
Y216350D01*
X205750Y9650D02*
X218450D01*
Y22350D01*
X205750D02*
X218450D01*
X205750Y9650D02*
Y22350D01*
X169650Y322650D02*
X182350D01*
Y335350D01*
X169650D02*
X182350D01*
X169650Y322650D02*
Y335350D01*
X182650Y318650D02*
X195350D01*
Y331350D01*
X182650D02*
X195350D01*
X182650Y318650D02*
Y331350D01*
X169650Y207650D02*
X182350D01*
Y220350D01*
X169650D02*
X182350D01*
X169650Y207650D02*
Y220350D01*
X182650Y203650D02*
X195350D01*
Y216350D01*
X182650D02*
X195350D01*
X182650Y203650D02*
Y216350D01*
X169650Y107650D02*
X182350D01*
Y120350D01*
X169650D02*
X182350D01*
X169650Y107650D02*
Y120350D01*
X148150Y80650D02*
X160850D01*
Y93350D01*
X148150D02*
X160850D01*
X148150Y80650D02*
Y93350D01*
Y26650D02*
X160850D01*
Y39350D01*
X148150D02*
X160850D01*
X148150Y26650D02*
Y39350D01*
X189550Y9650D02*
X202250D01*
Y22350D01*
X189550D02*
X202250D01*
X189550Y9650D02*
Y22350D01*
X118650Y633650D02*
X131350D01*
Y646350D01*
X118650D02*
X131350D01*
X118650Y633650D02*
Y646350D01*
X353950Y112650D02*
X366650D01*
Y125350D01*
X353950D02*
X366650D01*
X353950Y112650D02*
Y125350D01*
X297351Y112650D02*
X310051D01*
Y125350D01*
X297351D02*
X310051D01*
X297351Y112650D02*
Y125350D01*
X296650Y142650D02*
X309350D01*
Y155350D01*
X296650D02*
X309350D01*
X296650Y142650D02*
Y155350D01*
X326150Y173650D02*
X338850D01*
Y186350D01*
X326150D02*
X338850D01*
X326150Y173650D02*
Y186350D01*
X404650Y20150D02*
X417350D01*
Y32850D01*
X404650D02*
X417350D01*
X404650Y20150D02*
Y32850D01*
X303650Y221650D02*
X316350D01*
Y234350D01*
X303650D02*
X316350D01*
X303650Y221650D02*
Y234350D01*
X350750Y338650D02*
X363450D01*
Y351350D01*
X350750D02*
X363450D01*
X350750Y338650D02*
Y351350D01*
X350750Y359650D02*
X363450D01*
Y372350D01*
X350750D02*
X363450D01*
X350750Y359650D02*
Y372350D01*
X393150Y361650D02*
X405850D01*
Y374350D01*
X393150D02*
X405850D01*
X393150Y361650D02*
Y374350D01*
X127150Y325650D02*
X139850D01*
Y338350D01*
X127150D02*
X139850D01*
X127150Y325650D02*
Y338350D01*
X415650Y388150D02*
X428350D01*
Y400850D01*
X415650D02*
X428350D01*
X415650Y388150D02*
Y400850D01*
X441650Y388150D02*
X454350D01*
Y400850D01*
X441650D02*
X454350D01*
X441650Y388150D02*
Y400850D01*
X467650Y388150D02*
X480350D01*
Y400850D01*
X467650D02*
X480350D01*
X467650Y388150D02*
Y400850D01*
X331650Y729650D02*
X344350D01*
Y742350D01*
X331650D02*
X344350D01*
X331650Y729650D02*
Y742350D01*
Y697650D02*
X344350D01*
Y710350D01*
X331650D02*
X344350D01*
X331650Y697650D02*
Y710350D01*
X324650Y721650D02*
X337350D01*
Y734350D01*
X324650D02*
X337350D01*
X324650Y721650D02*
Y734350D01*
X475650Y689650D02*
X488350D01*
Y702350D01*
X475650D02*
X488350D01*
X475650Y689650D02*
Y702350D01*
X482650Y697650D02*
X495350D01*
Y710350D01*
X482650D02*
X495350D01*
X482650Y697650D02*
Y710350D01*
Y681650D02*
X495350D01*
Y694350D01*
X482650D02*
X495350D01*
X482650Y681650D02*
Y694350D01*
X451650Y652650D02*
X464350D01*
Y665350D01*
X451650D02*
X464350D01*
X451650Y652650D02*
Y665350D01*
X419650Y652650D02*
X432350D01*
Y665350D01*
X419650D02*
X432350D01*
X419650Y652650D02*
Y665350D01*
X411650Y659650D02*
X424350D01*
Y672350D01*
X411650D02*
X424350D01*
X411650Y659650D02*
Y672350D01*
X379650Y659650D02*
X392350D01*
Y672350D01*
X379650D02*
X392350D01*
X379650Y659650D02*
Y672350D01*
X371650Y683650D02*
X384350D01*
Y696350D01*
X371650D02*
X384350D01*
X371650Y683650D02*
Y696350D01*
X363650Y659650D02*
X376350D01*
Y672350D01*
X363650D02*
X376350D01*
X363650Y659650D02*
Y672350D01*
X355650Y683650D02*
X368350D01*
Y696350D01*
X355650D02*
X368350D01*
X355650Y683650D02*
Y696350D01*
X443650Y659650D02*
X456350D01*
Y672350D01*
X443650D02*
X456350D01*
X443650Y659650D02*
Y672350D01*
X379650Y617050D02*
X392350D01*
Y629750D01*
X379650D02*
X392350D01*
X379650Y617050D02*
Y629750D01*
Y601250D02*
X392350D01*
Y613950D01*
X379650D02*
X392350D01*
X379650Y601250D02*
Y613950D01*
X362650Y569650D02*
X375350D01*
Y582350D01*
X362650D02*
X375350D01*
X362650Y569650D02*
Y582350D01*
Y561650D02*
X375350D01*
Y574350D01*
X362650D02*
X375350D01*
X362650Y561650D02*
Y574350D01*
X378650Y561650D02*
X391350D01*
Y574350D01*
X378650D02*
X391350D01*
X378650Y561650D02*
Y574350D01*
Y569650D02*
X391350D01*
Y582350D01*
X378650D02*
X391350D01*
X378650Y569650D02*
Y582350D01*
X370650Y565650D02*
X383350D01*
Y578350D01*
X370650D02*
X383350D01*
X370650Y565650D02*
Y578350D01*
X338650Y560150D02*
X351350D01*
Y572850D01*
X338650D02*
X351350D01*
X338650Y560150D02*
Y572850D01*
X313650Y591650D02*
X326350D01*
Y604350D01*
X313650D02*
X326350D01*
X313650Y591650D02*
Y604350D01*
X300150Y633650D02*
X312850D01*
Y646350D01*
X300150D02*
X312850D01*
X300150Y633650D02*
Y646350D01*
X300650Y657650D02*
X313350D01*
Y670350D01*
X300650D02*
X313350D01*
X300650Y657650D02*
Y670350D01*
X315650Y689550D02*
X328350D01*
Y702250D01*
X315650D02*
X328350D01*
X315650Y689550D02*
Y702250D01*
X294650Y697650D02*
X307350D01*
Y710350D01*
X294650D02*
X307350D01*
X294650Y697650D02*
Y710350D01*
Y709650D02*
X307350D01*
Y722350D01*
X294650D02*
X307350D01*
X294650Y709650D02*
Y722350D01*
Y787650D02*
X307350D01*
Y800350D01*
X294650D02*
X307350D01*
X294650Y787650D02*
Y800350D01*
Y799650D02*
X307350D01*
Y812350D01*
X294650D02*
X307350D01*
X294650Y799650D02*
Y812350D01*
X132650Y787650D02*
X145350D01*
Y800350D01*
X132650D02*
X145350D01*
X132650Y787650D02*
Y800350D01*
Y799650D02*
X145350D01*
Y812350D01*
X132650D02*
X145350D01*
X132650Y799650D02*
Y812350D01*
Y697650D02*
X145350D01*
Y710350D01*
X132650D02*
X145350D01*
X132650Y697650D02*
Y710350D01*
Y709650D02*
X145350D01*
Y722350D01*
X132650D02*
X145350D01*
X132650Y709650D02*
Y722350D01*
X225406Y660750D02*
X238106D01*
Y673450D01*
X225406D02*
X238106D01*
X225406Y660750D02*
Y673450D01*
X203650Y660550D02*
X216350D01*
Y673250D01*
X203650D02*
X216350D01*
X203650Y660550D02*
Y673250D01*
X247650Y660750D02*
X260350D01*
Y673450D01*
X247650D02*
X260350D01*
X247650Y660750D02*
Y673450D01*
Y644550D02*
X260350D01*
Y657250D01*
X247650D02*
X260350D01*
X247650Y644550D02*
Y657250D01*
X225406Y644550D02*
X238106D01*
Y657250D01*
X225406D02*
X238106D01*
X225406Y644550D02*
Y657250D01*
X203650Y644750D02*
X216350D01*
Y657450D01*
X203650D02*
X216350D01*
X203650Y644750D02*
Y657450D01*
X247650Y697650D02*
X260350D01*
Y710350D01*
X247650D02*
X260350D01*
X247650Y697650D02*
Y710350D01*
X160150Y657650D02*
X172850D01*
Y670350D01*
X160150D02*
X172850D01*
X160150Y657650D02*
Y670350D01*
Y633650D02*
X172850D01*
Y646350D01*
X160150D02*
X172850D01*
X160150Y633650D02*
Y646350D01*
X216150Y616650D02*
X228850D01*
Y629350D01*
X216150D02*
X228850D01*
X216150Y616650D02*
Y629350D01*
X235150Y616650D02*
X247850D01*
Y629350D01*
X235150D02*
X247850D01*
X235150Y616650D02*
Y629350D01*
X313151Y112650D02*
X325850D01*
Y125350D01*
X313151D02*
X325850D01*
X313151Y112650D02*
Y125350D01*
X338150Y112650D02*
X350850D01*
Y125350D01*
X338150D02*
X350850D01*
X338150Y112650D02*
Y125350D01*
X333150Y65150D02*
X345850D01*
Y77850D01*
X333150D02*
X345850D01*
X333150Y65150D02*
Y77850D01*
Y54650D02*
X345850D01*
Y67350D01*
X333150D02*
X345850D01*
X333150Y54650D02*
Y67350D01*
Y75650D02*
X345850D01*
Y88350D01*
X333150D02*
X345850D01*
X333150Y75650D02*
Y88350D01*
X404650Y59150D02*
X417350D01*
Y71850D01*
X404650D02*
X417350D01*
X404650Y59150D02*
Y71850D01*
X303650Y286650D02*
X316350D01*
Y299350D01*
X303650D02*
X316350D01*
X303650Y286650D02*
Y299350D01*
X334550Y359650D02*
X347250D01*
Y372350D01*
X334550D02*
X347250D01*
X334550Y359650D02*
Y372350D01*
X334550Y338650D02*
X347250D01*
Y351350D01*
X334550D02*
X347250D01*
X334550Y338650D02*
Y351350D01*
X392150Y318850D02*
X404850D01*
Y331550D01*
X392150D02*
X404850D01*
X392150Y318850D02*
Y331550D01*
X432150Y410650D02*
X444850D01*
Y423350D01*
X432150D02*
X444850D01*
X432150Y410650D02*
Y423350D01*
X470150Y410650D02*
X482850D01*
Y423350D01*
X470150D02*
X482850D01*
X470150Y410650D02*
Y423350D01*
X435650Y652650D02*
X448350D01*
Y665350D01*
X435650D02*
X448350D01*
X435650Y652650D02*
Y665350D01*
X291650Y507650D02*
X304350D01*
Y520350D01*
X291650D02*
X304350D01*
X291650Y507650D02*
Y520350D01*
X175650Y17650D02*
X188350D01*
Y30350D01*
X175650D02*
X188350D01*
X175650Y17650D02*
Y30350D01*
X153650Y40650D02*
X166350D01*
Y53350D01*
X153650D02*
X166350D01*
X153650Y40650D02*
Y53350D01*
Y53650D02*
X166350D01*
Y66350D01*
X153650D02*
X166350D01*
X153650Y53650D02*
Y66350D01*
Y66650D02*
X166350D01*
Y79350D01*
X153650D02*
X166350D01*
X153650Y66650D02*
Y79350D01*
X226650Y53650D02*
X239350D01*
Y66350D01*
X226650D02*
X239350D01*
X226650Y53650D02*
Y66350D01*
X200650Y89650D02*
X213350D01*
Y102350D01*
X200650D02*
X213350D01*
X200650Y89650D02*
Y102350D01*
X190650Y89650D02*
X203350D01*
Y102350D01*
X190650D02*
X203350D01*
X190650Y89650D02*
Y102350D01*
X190650Y189650D02*
X203350D01*
Y202350D01*
X190650D02*
X203350D01*
X190650Y189650D02*
Y202350D01*
X226650Y153650D02*
X239350D01*
Y166350D01*
X226650D02*
X239350D01*
X226650Y153650D02*
Y166350D01*
X153650Y166650D02*
X166350D01*
Y179350D01*
X153650D02*
X166350D01*
X153650Y166650D02*
Y179350D01*
Y153650D02*
X166350D01*
Y166350D01*
X153650D02*
X166350D01*
X153650Y153650D02*
Y166350D01*
Y140650D02*
X166350D01*
Y153350D01*
X153650D02*
X166350D01*
X153650Y140650D02*
Y153350D01*
X175650Y117650D02*
X188350D01*
Y130350D01*
X175650D02*
X188350D01*
X175650Y117650D02*
Y130350D01*
X190650Y304650D02*
X203350D01*
Y317350D01*
X190650D02*
X203350D01*
X190650Y304650D02*
Y317350D01*
X226650Y268650D02*
X239350D01*
Y281350D01*
X226650D02*
X239350D01*
X226650Y268650D02*
Y281350D01*
X153650Y281650D02*
X166350D01*
Y294350D01*
X153650D02*
X166350D01*
X153650Y281650D02*
Y294350D01*
Y268650D02*
X166350D01*
Y281350D01*
X153650D02*
X166350D01*
X153650Y268650D02*
Y281350D01*
Y255650D02*
X166350D01*
Y268350D01*
X153650D02*
X166350D01*
X153650Y255650D02*
Y268350D01*
X175650Y232650D02*
X188350D01*
Y245350D01*
X175650D02*
X188350D01*
X175650Y232650D02*
Y245350D01*
X190650Y419650D02*
X203350D01*
Y432350D01*
X190650D02*
X203350D01*
X190650Y419650D02*
Y432350D01*
X226650Y383650D02*
X239350D01*
Y396350D01*
X226650D02*
X239350D01*
X226650Y383650D02*
Y396350D01*
X153650Y396650D02*
X166350D01*
Y409350D01*
X153650D02*
X166350D01*
X153650Y396650D02*
Y409350D01*
Y383650D02*
X166350D01*
Y396350D01*
X153650D02*
X166350D01*
X153650Y383650D02*
Y396350D01*
Y370650D02*
X166350D01*
Y383350D01*
X153650D02*
X166350D01*
X153650Y370650D02*
Y383350D01*
X175650Y347650D02*
X188350D01*
Y360350D01*
X175650D02*
X188350D01*
X175650Y347650D02*
Y360350D01*
X190650Y534650D02*
X203350D01*
Y547350D01*
X190650D02*
X203350D01*
X190650Y534650D02*
Y547350D01*
X226650Y498650D02*
X239350D01*
Y511350D01*
X226650D02*
X239350D01*
X226650Y498650D02*
Y511350D01*
X153650Y511650D02*
X166350D01*
Y524350D01*
X153650D02*
X166350D01*
X153650Y511650D02*
Y524350D01*
Y498650D02*
X166350D01*
Y511350D01*
X153650D02*
X166350D01*
X153650Y498650D02*
Y511350D01*
Y485650D02*
X166350D01*
Y498350D01*
X153650D02*
X166350D01*
X153650Y485650D02*
Y498350D01*
X175650Y462650D02*
X188350D01*
Y475350D01*
X175650D02*
X188350D01*
X175650Y462650D02*
Y475350D01*
X373650Y517750D02*
X386350D01*
Y530450D01*
X373650D02*
X386350D01*
X373650Y517750D02*
Y530450D01*
X304650Y329650D02*
X317350D01*
Y342350D01*
X304650D02*
X317350D01*
X304650Y329650D02*
Y342350D01*
X282650Y363650D02*
X295350D01*
Y376350D01*
X282650D02*
X295350D01*
X282650Y363650D02*
Y376350D01*
X315650Y765450D02*
X328350D01*
Y778150D01*
X315650D02*
X328350D01*
X315650Y765450D02*
Y778150D01*
Y749750D02*
X328350D01*
Y762450D01*
X315650D02*
X328350D01*
X315650Y749750D02*
Y762450D01*
Y781650D02*
X328350D01*
Y794350D01*
X315650D02*
X328350D01*
X315650Y781650D02*
Y794350D01*
X393650Y731650D02*
X406350D01*
Y744350D01*
X393650D02*
X406350D01*
X393650Y731650D02*
Y744350D01*
X403650Y731650D02*
X416350D01*
Y744350D01*
X403650D02*
X416350D01*
X403650Y731650D02*
Y744350D01*
X413650Y731650D02*
X426350D01*
Y744350D01*
X413650D02*
X426350D01*
X413650Y731650D02*
Y744350D01*
Y721650D02*
X426350D01*
Y734350D01*
X413650D02*
X426350D01*
X413650Y721650D02*
Y734350D01*
Y711650D02*
X426350D01*
Y724350D01*
X413650D02*
X426350D01*
X413650Y711650D02*
Y724350D01*
X403650Y711650D02*
X416350D01*
Y724350D01*
X403650D02*
X416350D01*
X403650Y711650D02*
Y724350D01*
X393650Y711650D02*
X406350D01*
Y724350D01*
X393650D02*
X406350D01*
X393650Y711650D02*
Y724350D01*
Y721650D02*
X406350D01*
Y734350D01*
X393650D02*
X406350D01*
X393650Y721650D02*
Y734350D01*
X161650Y196650D02*
X174350D01*
Y209350D01*
X161650D02*
X174350D01*
X161650Y196650D02*
Y209350D01*
X161650Y311650D02*
X174350D01*
Y324350D01*
X161650D02*
X174350D01*
X161650Y311650D02*
Y324350D01*
X161650Y96650D02*
X174350D01*
Y109350D01*
X161650D02*
X174350D01*
X161650Y96650D02*
Y109350D01*
X161650Y426650D02*
X174350D01*
Y439350D01*
X161650D02*
X174350D01*
X161650Y426650D02*
Y439350D01*
X161650Y541650D02*
X174350D01*
Y554350D01*
X161650D02*
X174350D01*
X161650Y541650D02*
Y554350D01*
X299650Y375650D02*
X312350D01*
Y388350D01*
X299650D02*
X312350D01*
X299650Y375650D02*
Y388350D01*
X274650Y356650D02*
X287350D01*
Y369350D01*
X274650D02*
X287350D01*
X274650Y356650D02*
Y369350D01*
X315650Y705750D02*
X328350D01*
Y718450D01*
X315650D02*
X328350D01*
X315650Y705750D02*
Y718450D01*
X138650Y633650D02*
X151350D01*
Y646350D01*
X138650D02*
X151350D01*
X138650Y633650D02*
Y646350D01*
X387650Y647650D02*
X400350D01*
Y660350D01*
X387650D02*
X400350D01*
X387650Y647650D02*
Y660350D01*
X399650Y641650D02*
X412350D01*
Y654350D01*
X399650D02*
X412350D01*
X399650Y641650D02*
Y654350D01*
X397135Y655135D02*
X409835D01*
Y667835D01*
X397135D02*
X409835D01*
X397135Y655135D02*
Y667835D01*
X423650Y278650D02*
X436350D01*
Y291350D01*
X423650D02*
X436350D01*
X423650Y278650D02*
Y291350D01*
X331650Y524050D02*
X344350D01*
Y536750D01*
X331650D02*
X344350D01*
X331650Y524050D02*
Y536750D01*
X192650Y696650D02*
X205350D01*
Y709350D01*
X192650D02*
X205350D01*
X192650Y696650D02*
Y709350D01*
X203650Y696650D02*
X216350D01*
Y709350D01*
X203650D02*
X216350D01*
X203650Y696650D02*
Y709350D01*
X258650Y697650D02*
X271350D01*
Y710350D01*
X258650D02*
X271350D01*
X258650Y697650D02*
Y710350D01*
X269650Y697650D02*
X282350D01*
Y710350D01*
X269650D02*
X282350D01*
X269650Y697650D02*
Y710350D01*
X236650Y697650D02*
X249350D01*
Y710350D01*
X236650D02*
X249350D01*
X236650Y697650D02*
Y710350D01*
X214650Y696650D02*
X227350D01*
Y709350D01*
X214650D02*
X227350D01*
X214650Y696650D02*
Y709350D01*
X482650Y705650D02*
X495350D01*
Y718350D01*
X482650D02*
X495350D01*
X482650Y705650D02*
Y718350D01*
X472650Y713650D02*
X485350D01*
Y726350D01*
X472650D02*
X485350D01*
X472650Y713650D02*
Y726350D01*
X271650Y315150D02*
X284350D01*
Y327850D01*
X271650D02*
X284350D01*
X271650Y315150D02*
Y327850D01*
X205750Y454650D02*
X218450D01*
Y467350D01*
X205750D02*
X218450D01*
X205750Y454650D02*
Y467350D01*
X189550Y454650D02*
X202250D01*
Y467350D01*
X189550D02*
X202250D01*
X189550Y454650D02*
Y467350D01*
X148150Y471650D02*
X160850D01*
Y484350D01*
X148150D02*
X160850D01*
X148150Y471650D02*
Y484350D01*
X148150Y525650D02*
X160850D01*
Y538350D01*
X148150D02*
X160850D01*
X148150Y525650D02*
Y538350D01*
X205750Y339650D02*
X218450D01*
Y352350D01*
X205750D02*
X218450D01*
X205750Y339650D02*
Y352350D01*
X189550Y339650D02*
X202250D01*
Y352350D01*
X189550D02*
X202250D01*
X189550Y339650D02*
Y352350D01*
X148150Y356650D02*
X160850D01*
Y369350D01*
X148150D02*
X160850D01*
X148150Y356650D02*
Y369350D01*
X148150Y410650D02*
X160850D01*
Y423350D01*
X148150D02*
X160850D01*
X148150Y410650D02*
Y423350D01*
X205750Y224650D02*
X218450D01*
Y237350D01*
X205750D02*
X218450D01*
X205750Y224650D02*
Y237350D01*
X189550Y224650D02*
X202250D01*
Y237350D01*
X189550D02*
X202250D01*
X189550Y224650D02*
Y237350D01*
X148150Y241650D02*
X160850D01*
Y254350D01*
X148150D02*
X160850D01*
X148150Y241650D02*
Y254350D01*
Y295650D02*
X160850D01*
Y308350D01*
X148150D02*
X160850D01*
X148150Y295650D02*
Y308350D01*
X205750Y109650D02*
X218450D01*
Y122350D01*
X205750D02*
X218450D01*
X205750Y109650D02*
Y122350D01*
X189550Y109650D02*
X202250D01*
Y122350D01*
X189550D02*
X202250D01*
X189550Y109650D02*
Y122350D01*
X148150Y126650D02*
X160850D01*
Y139350D01*
X148150D02*
X160850D01*
X148150Y126650D02*
Y139350D01*
Y180650D02*
X160850D01*
Y193350D01*
X148150D02*
X160850D01*
X148150Y180650D02*
Y193350D01*
X125150Y207650D02*
X137850D01*
Y220350D01*
X125150D02*
X137850D01*
X125150Y207650D02*
Y220350D01*
X235373Y774650D02*
X248073D01*
Y787350D01*
X235373D02*
X248073D01*
X235373Y774650D02*
Y787350D01*
X285373Y474650D02*
X298073D01*
Y487350D01*
X285373D02*
X298073D01*
X285373Y474650D02*
Y487350D01*
X460373Y324650D02*
X473073D01*
Y337350D01*
X460373D02*
X473073D01*
X460373Y324650D02*
Y337350D01*
X10373Y624650D02*
X23073D01*
Y637350D01*
X10373D02*
X23073D01*
X10373Y624650D02*
Y637350D01*
X35373Y774650D02*
X48073D01*
Y787350D01*
X35373D02*
X48073D01*
X35373Y774650D02*
Y787350D01*
X385373Y474650D02*
X398073D01*
Y487350D01*
X385373D02*
X398073D01*
X385373Y474650D02*
Y487350D01*
X35373Y574650D02*
X48073D01*
Y587350D01*
X35373D02*
X48073D01*
X35373Y574650D02*
Y587350D01*
X285373Y574650D02*
X298073D01*
Y587350D01*
X285373D02*
X298073D01*
X285373Y574650D02*
Y587350D01*
X360373Y324650D02*
X373073D01*
Y337350D01*
X360373D02*
X373073D01*
X360373Y324650D02*
Y337350D01*
X35373Y74650D02*
X48073D01*
Y87350D01*
X35373D02*
X48073D01*
X35373Y74650D02*
Y87350D01*
X60373Y524650D02*
X73073D01*
Y537350D01*
X60373D02*
X73073D01*
X60373Y524650D02*
Y537350D01*
X310373Y624650D02*
X323073D01*
Y637350D01*
X310373D02*
X323073D01*
X310373Y624650D02*
Y637350D01*
X85373Y774650D02*
X98073D01*
Y787350D01*
X85373D02*
X98073D01*
X85373Y774650D02*
Y787350D01*
X385373Y174650D02*
X398073D01*
Y187350D01*
X385373D02*
X398073D01*
X385373Y174650D02*
Y187350D01*
X435373Y174650D02*
X448073D01*
Y187350D01*
X435373D02*
X448073D01*
X435373Y174650D02*
Y187350D01*
X410373Y524650D02*
X423073D01*
Y537350D01*
X410373D02*
X423073D01*
X410373Y524650D02*
Y537350D01*
X60373Y324650D02*
X73073D01*
Y337350D01*
X60373D02*
X73073D01*
X60373Y324650D02*
Y337350D01*
X10373Y124650D02*
X23073D01*
Y137350D01*
X10373D02*
X23073D01*
X10373Y124650D02*
Y137350D01*
X135373Y574650D02*
X148073D01*
Y587350D01*
X135373D02*
X148073D01*
X135373Y574650D02*
Y587350D01*
X160373Y24650D02*
X173073D01*
Y37350D01*
X160373D02*
X173073D01*
X160373Y24650D02*
Y37350D01*
X260373Y124650D02*
X273073D01*
Y137350D01*
X260373D02*
X273073D01*
X260373Y124650D02*
Y137350D01*
X285373Y274650D02*
X298073D01*
Y287350D01*
X285373D02*
X298073D01*
X285373Y274650D02*
Y287350D01*
X485373Y474650D02*
X498073D01*
Y487350D01*
X485373D02*
X498073D01*
X485373Y474650D02*
Y487350D01*
X335373Y374650D02*
X348073D01*
Y387350D01*
X335373D02*
X348073D01*
X335373Y374650D02*
Y387350D01*
X260373Y424650D02*
X273073D01*
Y437350D01*
X260373D02*
X273073D01*
X260373Y424650D02*
Y437350D01*
X210373Y24650D02*
X223073D01*
Y37350D01*
X210373D02*
X223073D01*
X210373Y24650D02*
Y37350D01*
X485373Y574650D02*
X498073D01*
Y587350D01*
X485373D02*
X498073D01*
X485373Y574650D02*
Y587350D01*
X35373Y274650D02*
X48073D01*
Y287350D01*
X35373D02*
X48073D01*
X35373Y274650D02*
Y287350D01*
X110373Y524650D02*
X123073D01*
Y537350D01*
X110373D02*
X123073D01*
X110373Y524650D02*
Y537350D01*
X10373Y324650D02*
X23073D01*
Y337350D01*
X10373D02*
X23073D01*
X10373Y324650D02*
Y337350D01*
X335373Y774650D02*
X348073D01*
Y787350D01*
X335373D02*
X348073D01*
X335373Y774650D02*
Y787350D01*
X10373Y424650D02*
X23073D01*
Y437350D01*
X10373D02*
X23073D01*
X10373Y424650D02*
Y437350D01*
X485373Y774650D02*
X498073D01*
Y787350D01*
X485373D02*
X498073D01*
X485373Y774650D02*
Y787350D01*
X135373Y774650D02*
X148073D01*
Y787350D01*
X135373D02*
X148073D01*
X135373Y774650D02*
Y787350D01*
X35373Y674650D02*
X48073D01*
Y687350D01*
X35373D02*
X48073D01*
X35373Y674650D02*
Y687350D01*
X485373Y374650D02*
X498073D01*
Y387350D01*
X485373D02*
X498073D01*
X485373Y374650D02*
Y387350D01*
X135373Y674650D02*
X148073D01*
Y687350D01*
X135373D02*
X148073D01*
X135373Y674650D02*
Y687350D01*
X210373Y524650D02*
X223073D01*
Y537350D01*
X210373D02*
X223073D01*
X210373Y524650D02*
Y537350D01*
X335373Y674650D02*
X348073D01*
Y687350D01*
X335373D02*
X348073D01*
X335373Y674650D02*
Y687350D01*
X285373Y774650D02*
X298073D01*
Y787350D01*
X285373D02*
X298073D01*
X285373Y774650D02*
Y787350D01*
Y174650D02*
X298073D01*
Y187350D01*
X285373D02*
X298073D01*
X285373Y174650D02*
Y187350D01*
X460373Y24650D02*
X473073D01*
Y37350D01*
X460373D02*
X473073D01*
X460373Y24650D02*
Y37350D01*
X10373Y524650D02*
X23073D01*
Y537350D01*
X10373D02*
X23073D01*
X10373Y524650D02*
Y537350D01*
X110373Y224650D02*
X123073D01*
Y237350D01*
X110373D02*
X123073D01*
X110373Y224650D02*
Y237350D01*
X310373Y24650D02*
X323073D01*
Y37350D01*
X310373D02*
X323073D01*
X310373Y24650D02*
Y37350D01*
Y524650D02*
X323073D01*
Y537350D01*
X310373D02*
X323073D01*
X310373Y524650D02*
Y537350D01*
X460373Y224650D02*
X473073D01*
Y237350D01*
X460373D02*
X473073D01*
X460373Y224650D02*
Y237350D01*
X485373Y74650D02*
X498073D01*
Y87350D01*
X485373D02*
X498073D01*
X485373Y74650D02*
Y87350D01*
X360373Y524650D02*
X373073D01*
Y537350D01*
X360373D02*
X373073D01*
X360373Y524650D02*
Y537350D01*
X110373Y424650D02*
X123073D01*
Y437350D01*
X110373D02*
X123073D01*
X110373Y424650D02*
Y437350D01*
X260373Y224650D02*
X273073D01*
Y237350D01*
X260373D02*
X273073D01*
X260373Y224650D02*
Y237350D01*
Y324650D02*
X273073D01*
Y337350D01*
X260373D02*
X273073D01*
X260373Y324650D02*
Y337350D01*
X435373Y274650D02*
X448073D01*
Y287350D01*
X435373D02*
X448073D01*
X435373Y274650D02*
Y287350D01*
X460373Y124650D02*
X473073D01*
Y137350D01*
X460373D02*
X473073D01*
X460373Y124650D02*
Y137350D01*
X10373Y24650D02*
X23073D01*
Y37350D01*
X10373D02*
X23073D01*
X10373Y24650D02*
Y37350D01*
X210373Y124650D02*
X223073D01*
Y137350D01*
X210373D02*
X223073D01*
X210373Y124650D02*
Y137350D01*
X485373Y274650D02*
X498073D01*
Y287350D01*
X485373D02*
X498073D01*
X485373Y274650D02*
Y287350D01*
X10373Y224650D02*
X23073D01*
Y237350D01*
X10373D02*
X23073D01*
X10373Y224650D02*
Y237350D01*
X85373Y674650D02*
X98073D01*
Y687350D01*
X85373D02*
X98073D01*
X85373Y674650D02*
Y687350D01*
X110373Y24650D02*
X123073D01*
Y37350D01*
X110373D02*
X123073D01*
X110373Y24650D02*
Y37350D01*
X385373Y374650D02*
X398073D01*
Y387350D01*
X385373D02*
X398073D01*
X385373Y374650D02*
Y387350D01*
X360373Y724650D02*
X373073D01*
Y737350D01*
X360373D02*
X373073D01*
X360373Y724650D02*
Y737350D01*
X285373Y74650D02*
X298073D01*
Y87350D01*
X285373D02*
X298073D01*
X285373Y74650D02*
Y87350D01*
X235373Y574650D02*
X248073D01*
Y587350D01*
X235373D02*
X248073D01*
X235373Y574650D02*
Y587350D01*
X335373Y274650D02*
X348073D01*
Y287350D01*
X335373D02*
X348073D01*
X335373Y274650D02*
Y287350D01*
X35373Y374650D02*
X48073D01*
Y387350D01*
X35373D02*
X48073D01*
X35373Y374650D02*
Y387350D01*
X85373Y574650D02*
X98073D01*
Y587350D01*
X85373D02*
X98073D01*
X85373Y574650D02*
Y587350D01*
X435373Y74650D02*
X448073D01*
Y87350D01*
X435373D02*
X448073D01*
X435373Y74650D02*
Y87350D01*
X110373Y124650D02*
X123073D01*
Y137350D01*
X110373D02*
X123073D01*
X110373Y124650D02*
Y137350D01*
X35373Y474650D02*
X48073D01*
Y487350D01*
X35373D02*
X48073D01*
X35373Y474650D02*
Y487350D01*
X60373Y124650D02*
X73073D01*
Y137350D01*
X60373D02*
X73073D01*
X60373Y124650D02*
Y137350D01*
X185373Y774650D02*
X198073D01*
Y787350D01*
X185373D02*
X198073D01*
X185373Y774650D02*
Y787350D01*
X10373Y724650D02*
X23073D01*
Y737350D01*
X10373D02*
X23073D01*
X10373Y724650D02*
Y737350D01*
X85373Y374650D02*
X98073D01*
Y387350D01*
X85373D02*
X98073D01*
X85373Y374650D02*
Y387350D01*
X160373Y724650D02*
X173073D01*
Y737350D01*
X160373D02*
X173073D01*
X160373Y724650D02*
Y737350D01*
X85373Y474650D02*
X98073D01*
Y487350D01*
X85373D02*
X98073D01*
X85373Y474650D02*
Y487350D01*
X260373Y524650D02*
X273073D01*
Y537350D01*
X260373D02*
X273073D01*
X260373Y524650D02*
Y537350D01*
X485373Y174650D02*
X498073D01*
Y187350D01*
X485373D02*
X498073D01*
X485373Y174650D02*
Y187350D01*
X260373Y24650D02*
X273073D01*
Y37350D01*
X260373D02*
X273073D01*
X260373Y24650D02*
Y37350D01*
X35373Y174650D02*
X48073D01*
Y187350D01*
X35373D02*
X48073D01*
X35373Y174650D02*
Y187350D01*
X360373Y424650D02*
X373073D01*
Y437350D01*
X360373D02*
X373073D01*
X360373Y424650D02*
Y437350D01*
X85373Y274650D02*
X98073D01*
Y287350D01*
X85373D02*
X98073D01*
X85373Y274650D02*
Y287350D01*
X110373Y724650D02*
X123073D01*
Y737350D01*
X110373D02*
X123073D01*
X110373Y724650D02*
Y737350D01*
X240650Y86825D02*
X243825D01*
X240650D02*
Y93175D01*
X243825D01*
Y96350D01*
X250175D01*
Y93175D02*
Y96350D01*
Y93175D02*
X253350D01*
Y86825D02*
Y93175D01*
X250175Y86825D02*
X253350D01*
X250175Y83650D02*
Y86825D01*
X243825Y83650D02*
X250175D01*
X243825D02*
Y86825D01*
X240650Y66825D02*
X243825D01*
X240650D02*
Y73175D01*
X243825D01*
Y76350D01*
X250175D01*
Y73175D02*
Y76350D01*
Y73175D02*
X253350D01*
Y66825D02*
Y73175D01*
X250175Y66825D02*
X253350D01*
X250175Y63650D02*
Y66825D01*
X243825Y63650D02*
X250175D01*
X243825D02*
Y66825D01*
X240650Y46825D02*
X243825D01*
X240650D02*
Y53175D01*
X243825D01*
Y56350D01*
X250175D01*
Y53175D02*
Y56350D01*
Y53175D02*
X253350D01*
Y46825D02*
Y53175D01*
X250175Y46825D02*
X253350D01*
X250175Y43650D02*
Y46825D01*
X243825Y43650D02*
X250175D01*
X243825D02*
Y46825D01*
X240650Y26825D02*
X243825D01*
X240650D02*
Y33175D01*
X243825D01*
Y36350D01*
X250175D01*
Y33175D02*
Y36350D01*
Y33175D02*
X253350D01*
Y26825D02*
Y33175D01*
X250175Y26825D02*
X253350D01*
X250175Y23650D02*
Y26825D01*
X243825Y23650D02*
X250175D01*
X243825D02*
Y26825D01*
X220150Y594150D02*
X226500Y597325D01*
X232850Y594150D01*
X229675Y600500D02*
X232850Y594150D01*
X229675Y600500D02*
X232850Y606850D01*
X226500Y603675D02*
X232850Y606850D01*
X220150D02*
X226500Y603675D01*
X220150Y606850D02*
X223325Y600500D01*
X220150Y594150D02*
X223325Y600500D01*
X285150Y594150D02*
X291500Y597325D01*
X297850Y594150D01*
X294675Y600500D02*
X297850Y594150D01*
X294675Y600500D02*
X297850Y606850D01*
X291500Y603675D02*
X297850Y606850D01*
X285150D02*
X291500Y603675D01*
X285150Y606850D02*
X288325Y600500D01*
X285150Y594150D02*
X288325Y600500D01*
X220150Y549150D02*
X226500Y552325D01*
X232850Y549150D01*
X229675Y555500D02*
X232850Y549150D01*
X229675Y555500D02*
X232850Y561850D01*
X226500Y558675D02*
X232850Y561850D01*
X220150D02*
X226500Y558675D01*
X220150Y561850D02*
X223325Y555500D01*
X220150Y549150D02*
X223325Y555500D01*
X285150Y549150D02*
X291500Y552325D01*
X297850Y549150D01*
X294675Y555500D02*
X297850Y549150D01*
X294675Y555500D02*
X297850Y561850D01*
X291500Y558675D02*
X297850Y561850D01*
X285150D02*
X291500Y558675D01*
X285150Y561850D02*
X288325Y555500D01*
X285150Y549150D02*
X288325Y555500D01*
X347095Y464095D02*
X349000Y462190D01*
X345190Y464095D02*
X347095D01*
X345190D02*
X347095Y466000D01*
X345190Y467905D02*
X347095Y466000D01*
X345190Y467905D02*
X347095D01*
X349000Y469810D01*
X350905Y467905D01*
X352810D01*
X350905Y466000D02*
X352810Y467905D01*
X350905Y466000D02*
X352810Y464095D01*
X350905D02*
X352810D01*
X349000Y462190D02*
X350905Y464095D01*
X345825Y462825D02*
X349000Y459650D01*
X342650Y462825D02*
X345825D01*
X342650D02*
X345825Y466000D01*
X342650Y469175D02*
X345825Y466000D01*
X342650Y469175D02*
X345825D01*
X349000Y472350D01*
X352175Y469175D01*
X355350D01*
X352175Y466000D02*
X355350Y469175D01*
X352175Y466000D02*
X355350Y462825D01*
X352175D02*
X355350D01*
X349000Y459650D02*
X352175Y462825D01*
X347095Y414095D02*
X349000Y412190D01*
X345190Y414095D02*
X347095D01*
X345190D02*
X347095Y416000D01*
X345190Y417905D02*
X347095Y416000D01*
X345190Y417905D02*
X347095D01*
X349000Y419810D01*
X350905Y417905D01*
X352810D01*
X350905Y416000D02*
X352810Y417905D01*
X350905Y416000D02*
X352810Y414095D01*
X350905D02*
X352810D01*
X349000Y412190D02*
X350905Y414095D01*
X345825Y412825D02*
X349000Y409650D01*
X342650Y412825D02*
X345825D01*
X342650D02*
X345825Y416000D01*
X342650Y419175D02*
X345825Y416000D01*
X342650Y419175D02*
X345825D01*
X349000Y422350D01*
X352175Y419175D01*
X355350D01*
X352175Y416000D02*
X355350Y419175D01*
X352175Y416000D02*
X355350Y412825D01*
X352175D02*
X355350D01*
X349000Y409650D02*
X352175Y412825D01*
X481650Y750825D02*
X484825D01*
X481650D02*
Y757175D01*
X484825D01*
Y760350D01*
X491175D01*
Y757175D02*
Y760350D01*
Y757175D02*
X494350D01*
Y750825D02*
Y757175D01*
X491175Y750825D02*
X494350D01*
X491175Y747650D02*
Y750825D01*
X484825Y747650D02*
X491175D01*
X484825D02*
Y750825D01*
X481650Y730825D02*
X484825D01*
X481650D02*
Y737175D01*
X484825D01*
Y740350D01*
X491175D01*
Y737175D02*
Y740350D01*
Y737175D02*
X494350D01*
Y730825D02*
Y737175D01*
X491175Y730825D02*
X494350D01*
X491175Y727650D02*
Y730825D01*
X484825Y727650D02*
X491175D01*
X484825D02*
Y730825D01*
X481650Y669825D02*
X484825D01*
X481650D02*
Y676175D01*
X484825D01*
Y679350D01*
X491175D01*
Y676175D02*
Y679350D01*
Y676175D02*
X494350D01*
Y669825D02*
Y676175D01*
X491175Y669825D02*
X494350D01*
X491175Y666650D02*
Y669825D01*
X484825Y666650D02*
X491175D01*
X484825D02*
Y669825D01*
X321650Y674825D02*
X324825D01*
X321650D02*
Y681175D01*
X324825D01*
Y684350D01*
X331175D01*
Y681175D02*
Y684350D01*
Y681175D02*
X334350D01*
Y674825D02*
Y681175D01*
X331175Y674825D02*
X334350D01*
X331175Y671650D02*
Y674825D01*
X324825Y671650D02*
X331175D01*
X324825D02*
Y674825D01*
X122150Y594150D02*
X128500Y597325D01*
X134850Y594150D01*
X131675Y600500D02*
X134850Y594150D01*
X131675Y600500D02*
X134850Y606850D01*
X128500Y603675D02*
X134850Y606850D01*
X122150D02*
X128500Y603675D01*
X122150Y606850D02*
X125325Y600500D01*
X122150Y594150D02*
X125325Y600500D01*
X187150Y594150D02*
X193500Y597325D01*
X199850Y594150D01*
X196675Y600500D02*
X199850Y594150D01*
X196675Y600500D02*
X199850Y606850D01*
X193500Y603675D02*
X199850Y606850D01*
X187150D02*
X193500Y603675D01*
X187150Y606850D02*
X190325Y600500D01*
X187150Y594150D02*
X190325Y600500D01*
X122150Y549150D02*
X128500Y552325D01*
X134850Y549150D01*
X131675Y555500D02*
X134850Y549150D01*
X131675Y555500D02*
X134850Y561850D01*
X128500Y558675D02*
X134850Y561850D01*
X122150D02*
X128500Y558675D01*
X122150Y561850D02*
X125325Y555500D01*
X122150Y549150D02*
X125325Y555500D01*
X187150Y549150D02*
X193500Y552325D01*
X199850Y549150D01*
X196675Y555500D02*
X199850Y549150D01*
X196675Y555500D02*
X199850Y561850D01*
X193500Y558675D02*
X199850Y561850D01*
X187150D02*
X193500Y558675D01*
X187150Y561850D02*
X190325Y555500D01*
X187150Y549150D02*
X190325Y555500D01*
X429650Y357400D02*
X436000Y351050D01*
X442350Y357400D01*
X436000Y363750D02*
X442350Y357400D01*
X429650D02*
X436000Y363750D01*
X429650Y344700D02*
X436000Y338350D01*
X442350Y344700D01*
X436000Y351050D02*
X442350Y344700D01*
X429650D02*
X436000Y351050D01*
X429650Y332000D02*
X436000Y325650D01*
X442350Y332000D01*
X436000Y338350D02*
X442350Y332000D01*
X429650D02*
X436000Y338350D01*
X429650Y319300D02*
X436000Y312950D01*
X442350Y319300D01*
X436000Y325650D02*
X442350Y319300D01*
X429650D02*
X436000Y325650D01*
X179650Y498650D02*
X192350D01*
Y511350D01*
X179650D02*
X192350D01*
X179650Y498650D02*
Y511350D01*
Y508650D02*
X192350D01*
Y521350D01*
X179650D02*
X192350D01*
X179650Y508650D02*
Y521350D01*
X189650Y508650D02*
X202350D01*
Y521350D01*
X189650D02*
X202350D01*
X189650Y508650D02*
Y521350D01*
X199650Y508650D02*
X212350D01*
Y521350D01*
X199650D02*
X212350D01*
X199650Y508650D02*
Y521350D01*
Y498650D02*
X212350D01*
Y511350D01*
X199650D02*
X212350D01*
X199650Y498650D02*
Y511350D01*
X179650Y488650D02*
X192350D01*
Y501350D01*
X179650D02*
X192350D01*
X179650Y488650D02*
Y501350D01*
X189650Y488650D02*
X202350D01*
Y501350D01*
X189650D02*
X202350D01*
X189650Y488650D02*
Y501350D01*
X199650Y488650D02*
X212350D01*
Y501350D01*
X199650D02*
X212350D01*
X199650Y488650D02*
Y501350D01*
X189650Y498650D02*
X202350D01*
Y511350D01*
X189650D02*
X202350D01*
X189650Y498650D02*
Y511350D01*
X189650Y53650D02*
X202350D01*
Y66350D01*
X189650D02*
X202350D01*
X189650Y53650D02*
Y66350D01*
X199650Y43650D02*
X212350D01*
Y56350D01*
X199650D02*
X212350D01*
X199650Y43650D02*
Y56350D01*
X189650Y43650D02*
X202350D01*
Y56350D01*
X189650D02*
X202350D01*
X189650Y43650D02*
Y56350D01*
X179650Y43650D02*
X192350D01*
Y56350D01*
X179650D02*
X192350D01*
X179650Y43650D02*
Y56350D01*
X199650Y53650D02*
X212350D01*
Y66350D01*
X199650D02*
X212350D01*
X199650Y53650D02*
Y66350D01*
Y63650D02*
X212350D01*
Y76350D01*
X199650D02*
X212350D01*
X199650Y63650D02*
Y76350D01*
X189650Y63650D02*
X202350D01*
Y76350D01*
X189650D02*
X202350D01*
X189650Y63650D02*
Y76350D01*
X179650Y63650D02*
X192350D01*
Y76350D01*
X179650D02*
X192350D01*
X179650Y63650D02*
Y76350D01*
Y53650D02*
X192350D01*
Y66350D01*
X179650D02*
X192350D01*
X179650Y53650D02*
Y66350D01*
X240650Y491825D02*
X243825D01*
X240650D02*
Y498175D01*
X243825D01*
Y501350D01*
X250175D01*
Y498175D02*
Y501350D01*
Y498175D02*
X253350D01*
Y491825D02*
Y498175D01*
X250175Y491825D02*
X253350D01*
X250175Y488650D02*
Y491825D01*
X243825Y488650D02*
X250175D01*
X243825D02*
Y491825D01*
X240650Y531825D02*
X243825D01*
X240650D02*
Y538175D01*
X243825D01*
Y541350D01*
X250175D01*
Y538175D02*
Y541350D01*
Y538175D02*
X253350D01*
Y531825D02*
Y538175D01*
X250175Y531825D02*
X253350D01*
X250175Y528650D02*
Y531825D01*
X243825Y528650D02*
X250175D01*
X243825D02*
Y531825D01*
X240650Y511825D02*
X243825D01*
X240650D02*
Y518175D01*
X243825D01*
Y521350D01*
X250175D01*
Y518175D02*
Y521350D01*
Y518175D02*
X253350D01*
Y511825D02*
Y518175D01*
X250175Y511825D02*
X253350D01*
X250175Y508650D02*
Y511825D01*
X243825Y508650D02*
X250175D01*
X243825D02*
Y511825D01*
X240650Y471825D02*
X243825D01*
X240650D02*
Y478175D01*
X243825D01*
Y481350D01*
X250175D01*
Y478175D02*
Y481350D01*
Y478175D02*
X253350D01*
Y471825D02*
Y478175D01*
X250175Y471825D02*
X253350D01*
X250175Y468650D02*
Y471825D01*
X243825Y468650D02*
X250175D01*
X243825D02*
Y471825D01*
X240650Y416825D02*
X243825D01*
X240650D02*
Y423175D01*
X243825D01*
Y426350D01*
X250175D01*
Y423175D02*
Y426350D01*
Y423175D02*
X253350D01*
Y416825D02*
Y423175D01*
X250175Y416825D02*
X253350D01*
X250175Y413650D02*
Y416825D01*
X243825Y413650D02*
X250175D01*
X243825D02*
Y416825D01*
X240650Y396825D02*
X243825D01*
X240650D02*
Y403175D01*
X243825D01*
Y406350D01*
X250175D01*
Y403175D02*
Y406350D01*
Y403175D02*
X253350D01*
Y396825D02*
Y403175D01*
X250175Y396825D02*
X253350D01*
X250175Y393650D02*
Y396825D01*
X243825Y393650D02*
X250175D01*
X243825D02*
Y396825D01*
X240650Y376825D02*
X243825D01*
X240650D02*
Y383175D01*
X243825D01*
Y386350D01*
X250175D01*
Y383175D02*
Y386350D01*
Y383175D02*
X253350D01*
Y376825D02*
Y383175D01*
X250175Y376825D02*
X253350D01*
X250175Y373650D02*
Y376825D01*
X243825Y373650D02*
X250175D01*
X243825D02*
Y376825D01*
X240650Y356825D02*
X243825D01*
X240650D02*
Y363175D01*
X243825D01*
Y366350D01*
X250175D01*
Y363175D02*
Y366350D01*
Y363175D02*
X253350D01*
Y356825D02*
Y363175D01*
X250175Y356825D02*
X253350D01*
X250175Y353650D02*
Y356825D01*
X243825Y353650D02*
X250175D01*
X243825D02*
Y356825D01*
X240650Y301825D02*
X243825D01*
X240650D02*
Y308175D01*
X243825D01*
Y311350D01*
X250175D01*
Y308175D02*
Y311350D01*
Y308175D02*
X253350D01*
Y301825D02*
Y308175D01*
X250175Y301825D02*
X253350D01*
X250175Y298650D02*
Y301825D01*
X243825Y298650D02*
X250175D01*
X243825D02*
Y301825D01*
X240650Y281825D02*
X243825D01*
X240650D02*
Y288175D01*
X243825D01*
Y291350D01*
X250175D01*
Y288175D02*
Y291350D01*
Y288175D02*
X253350D01*
Y281825D02*
Y288175D01*
X250175Y281825D02*
X253350D01*
X250175Y278650D02*
Y281825D01*
X243825Y278650D02*
X250175D01*
X243825D02*
Y281825D01*
X240650Y261825D02*
X243825D01*
X240650D02*
Y268175D01*
X243825D01*
Y271350D01*
X250175D01*
Y268175D02*
Y271350D01*
Y268175D02*
X253350D01*
Y261825D02*
Y268175D01*
X250175Y261825D02*
X253350D01*
X250175Y258650D02*
Y261825D01*
X243825Y258650D02*
X250175D01*
X243825D02*
Y261825D01*
X240650Y241825D02*
X243825D01*
X240650D02*
Y248175D01*
X243825D01*
Y251350D01*
X250175D01*
Y248175D02*
Y251350D01*
Y248175D02*
X253350D01*
Y241825D02*
Y248175D01*
X250175Y241825D02*
X253350D01*
X250175Y238650D02*
Y241825D01*
X243825Y238650D02*
X250175D01*
X243825D02*
Y241825D01*
X240650Y186825D02*
X243825D01*
X240650D02*
Y193175D01*
X243825D01*
Y196350D01*
X250175D01*
Y193175D02*
Y196350D01*
Y193175D02*
X253350D01*
Y186825D02*
Y193175D01*
X250175Y186825D02*
X253350D01*
X250175Y183650D02*
Y186825D01*
X243825Y183650D02*
X250175D01*
X243825D02*
Y186825D01*
X240650Y166826D02*
X243825D01*
X240650D02*
Y173176D01*
X243825D01*
Y176350D01*
X250175D01*
Y173176D02*
Y176350D01*
Y173176D02*
X253350D01*
Y166826D02*
Y173176D01*
X250175Y166826D02*
X253350D01*
X250175Y163650D02*
Y166826D01*
X243825Y163650D02*
X250175D01*
X243825D02*
Y166826D01*
X240650Y146825D02*
X243825D01*
X240650D02*
Y153175D01*
X243825D01*
Y156350D01*
X250175D01*
Y153175D02*
Y156350D01*
Y153175D02*
X253350D01*
Y146825D02*
Y153175D01*
X250175Y146825D02*
X253350D01*
X250175Y143650D02*
Y146825D01*
X243825Y143650D02*
X250175D01*
X243825D02*
Y146825D01*
X240650Y126825D02*
X243825D01*
X240650D02*
Y133175D01*
X243825D01*
Y136350D01*
X250175D01*
Y133175D02*
Y136350D01*
Y133175D02*
X253350D01*
Y126825D02*
Y133175D01*
X250175Y126825D02*
X253350D01*
X250175Y123650D02*
Y126825D01*
X243825Y123650D02*
X250175D01*
X243825D02*
Y126825D01*
X407390Y568790D02*
X415010D01*
Y576410D01*
X407390D02*
X415010D01*
X407390Y568790D02*
Y576410D01*
X404850Y566250D02*
X417550D01*
Y578950D01*
X404850D02*
X417550D01*
X404850Y566250D02*
Y578950D01*
X407390Y594190D02*
X415010D01*
Y601810D01*
X407390D02*
X415010D01*
X407390Y594190D02*
Y601810D01*
X404850Y591650D02*
X417550D01*
Y604350D01*
X404850D02*
X417550D01*
X404850Y591650D02*
Y604350D01*
X407390Y619590D02*
X415010D01*
Y627210D01*
X407390D02*
X415010D01*
X407390Y619590D02*
Y627210D01*
X404850Y617050D02*
X417550D01*
Y629750D01*
X404850D02*
X417550D01*
X404850Y617050D02*
Y629750D01*
X458190Y568790D02*
X465810D01*
Y576410D01*
X458190D02*
X465810D01*
X458190Y568790D02*
Y576410D01*
X455650Y566250D02*
X468350D01*
Y578950D01*
X455650D02*
X468350D01*
X455650Y566250D02*
Y578950D01*
X458190Y619590D02*
X465810D01*
Y627210D01*
X458190D02*
X465810D01*
X458190Y619590D02*
Y627210D01*
X455650Y617050D02*
X468350D01*
Y629750D01*
X455650D02*
X468350D01*
X455650Y617050D02*
Y629750D01*
X189650Y153650D02*
X202350D01*
Y166350D01*
X189650D02*
X202350D01*
X189650Y153650D02*
Y166350D01*
X199650Y143650D02*
X212350D01*
Y156350D01*
X199650D02*
X212350D01*
X199650Y143650D02*
Y156350D01*
X189650Y143650D02*
X202350D01*
Y156350D01*
X189650D02*
X202350D01*
X189650Y143650D02*
Y156350D01*
X179650Y143650D02*
X192350D01*
Y156350D01*
X179650D02*
X192350D01*
X179650Y143650D02*
Y156350D01*
X199650Y153650D02*
X212350D01*
Y166350D01*
X199650D02*
X212350D01*
X199650Y153650D02*
Y166350D01*
Y163650D02*
X212350D01*
Y176350D01*
X199650D02*
X212350D01*
X199650Y163650D02*
Y176350D01*
X189650Y163650D02*
X202350D01*
Y176350D01*
X189650D02*
X202350D01*
X189650Y163650D02*
Y176350D01*
X179650Y163650D02*
X192350D01*
Y176350D01*
X179650D02*
X192350D01*
X179650Y163650D02*
Y176350D01*
Y153650D02*
X192350D01*
Y166350D01*
X179650D02*
X192350D01*
X179650Y153650D02*
Y166350D01*
X189650Y268650D02*
X202350D01*
Y281350D01*
X189650D02*
X202350D01*
X189650Y268650D02*
Y281350D01*
X199650Y258650D02*
X212350D01*
Y271350D01*
X199650D02*
X212350D01*
X199650Y258650D02*
Y271350D01*
X189650Y258650D02*
X202350D01*
Y271350D01*
X189650D02*
X202350D01*
X189650Y258650D02*
Y271350D01*
X179650Y258650D02*
X192350D01*
Y271350D01*
X179650D02*
X192350D01*
X179650Y258650D02*
Y271350D01*
X199650Y268650D02*
X212350D01*
Y281350D01*
X199650D02*
X212350D01*
X199650Y268650D02*
Y281350D01*
Y278650D02*
X212350D01*
Y291350D01*
X199650D02*
X212350D01*
X199650Y278650D02*
Y291350D01*
X189650Y278650D02*
X202350D01*
Y291350D01*
X189650D02*
X202350D01*
X189650Y278650D02*
Y291350D01*
X179650Y278650D02*
X192350D01*
Y291350D01*
X179650D02*
X192350D01*
X179650Y278650D02*
Y291350D01*
Y268650D02*
X192350D01*
Y281350D01*
X179650D02*
X192350D01*
X179650Y268650D02*
Y281350D01*
X179650Y383650D02*
X192350D01*
Y396350D01*
X179650D02*
X192350D01*
X179650Y383650D02*
Y396350D01*
Y393650D02*
X192350D01*
Y406350D01*
X179650D02*
X192350D01*
X179650Y393650D02*
Y406350D01*
X189650Y393650D02*
X202350D01*
Y406350D01*
X189650D02*
X202350D01*
X189650Y393650D02*
Y406350D01*
X199650Y393650D02*
X212350D01*
Y406350D01*
X199650D02*
X212350D01*
X199650Y393650D02*
Y406350D01*
Y383650D02*
X212350D01*
Y396350D01*
X199650D02*
X212350D01*
X199650Y383650D02*
Y396350D01*
X179650Y373650D02*
X192350D01*
Y386350D01*
X179650D02*
X192350D01*
X179650Y373650D02*
Y386350D01*
X189650Y373650D02*
X202350D01*
Y386350D01*
X189650D02*
X202350D01*
X189650Y373650D02*
Y386350D01*
X199650Y373650D02*
X212350D01*
Y386350D01*
X199650D02*
X212350D01*
X199650Y373650D02*
Y386350D01*
X189650Y383650D02*
X202350D01*
Y396350D01*
X189650D02*
X202350D01*
X189650Y383650D02*
Y396350D01*
X422575Y491575D02*
X425750Y488400D01*
X419400Y491575D02*
X422575D01*
X419400D02*
X422575Y494750D01*
X419400Y497925D02*
X422575Y494750D01*
X419400Y497925D02*
X422575D01*
X425750Y501100D01*
X428925Y497925D01*
X432100D01*
X428925Y494750D02*
X432100Y497925D01*
X428925Y494750D02*
X432100Y491575D01*
X428925D02*
X432100D01*
X425750Y488400D02*
X428925Y491575D01*
X436075Y466075D02*
X439250Y462900D01*
X432900Y466075D02*
X436075D01*
X432900D02*
X436075Y469250D01*
X432900Y472425D02*
X436075Y469250D01*
X432900Y472425D02*
X436075D01*
X439250Y475600D01*
X442425Y472425D01*
X445600D01*
X442425Y469250D02*
X445600Y472425D01*
X442425Y469250D02*
X445600Y466075D01*
X442425D02*
X445600D01*
X439250Y462900D02*
X442425Y466075D01*
X435550Y432400D02*
X441900Y445100D01*
X429200D02*
X441900D01*
X429200D02*
X435550Y432400D01*
Y518900D02*
X441900Y531600D01*
X429200D02*
X441900D01*
X429200D02*
X435550Y518900D01*
X422575Y449075D02*
X425750Y445900D01*
X419400Y449075D02*
X422575D01*
X419400D02*
X422575Y452250D01*
X419400Y455425D02*
X422575Y452250D01*
X419400Y455425D02*
X422575D01*
X425750Y458600D01*
X428925Y455425D01*
X432100D01*
X428925Y452250D02*
X432100Y455425D01*
X428925Y452250D02*
X432100Y449075D01*
X428925D02*
X432100D01*
X425750Y445900D02*
X428925Y449075D01*
X422575Y508575D02*
X425750Y505400D01*
X419400Y508575D02*
X422575D01*
X419400D02*
X422575Y511750D01*
X419400Y514925D02*
X422575Y511750D01*
X419400Y514925D02*
X422575D01*
X425750Y518100D01*
X428925Y514925D01*
X432100D01*
X428925Y511750D02*
X432100Y514925D01*
X428925Y511750D02*
X432100Y508575D01*
X428925D02*
X432100D01*
X425750Y505400D02*
X428925Y508575D01*
X436075D02*
X439250Y505400D01*
X432900Y508575D02*
X436075D01*
X432900D02*
X436075Y511750D01*
X432900Y514925D02*
X436075Y511750D01*
X432900Y514925D02*
X436075D01*
X439250Y518100D01*
X442425Y514925D01*
X445600D01*
X442425Y511750D02*
X445600Y514925D01*
X442425Y511750D02*
X445600Y508575D01*
X442425D02*
X445600D01*
X439250Y505400D02*
X442425Y508575D01*
X436075Y449075D02*
X439250Y445900D01*
X432900Y449075D02*
X436075D01*
X432900D02*
X436075Y452250D01*
X432900Y455425D02*
X436075Y452250D01*
X432900Y455425D02*
X436075D01*
X439250Y458600D01*
X442425Y455425D01*
X445600D01*
X442425Y452250D02*
X445600Y455425D01*
X442425Y452250D02*
X445600Y449075D01*
X442425D02*
X445600D01*
X439250Y445900D02*
X442425Y449075D01*
X422575Y457575D02*
X425750Y454400D01*
X419400Y457575D02*
X422575D01*
X419400D02*
X422575Y460750D01*
X419400Y463925D02*
X422575Y460750D01*
X419400Y463925D02*
X422575D01*
X425750Y467100D01*
X428925Y463925D01*
X432100D01*
X428925Y460750D02*
X432100Y463925D01*
X428925Y460750D02*
X432100Y457575D01*
X428925D02*
X432100D01*
X425750Y454400D02*
X428925Y457575D01*
X422575Y500075D02*
X425750Y496900D01*
X419400Y500075D02*
X422575D01*
X419400D02*
X422575Y503250D01*
X419400Y506425D02*
X422575Y503250D01*
X419400Y506425D02*
X422575D01*
X425750Y509600D01*
X428925Y506425D01*
X432100D01*
X428925Y503250D02*
X432100Y506425D01*
X428925Y503250D02*
X432100Y500075D01*
X428925D02*
X432100D01*
X425750Y496900D02*
X428925Y500075D01*
X436075D02*
X439250Y496900D01*
X432900Y500075D02*
X436075D01*
X432900D02*
X436075Y503250D01*
X432900Y506425D02*
X436075Y503250D01*
X432900Y506425D02*
X436075D01*
X439250Y509600D01*
X442425Y506425D01*
X445600D01*
X442425Y503250D02*
X445600Y506425D01*
X442425Y503250D02*
X445600Y500075D01*
X442425D02*
X445600D01*
X439250Y496900D02*
X442425Y500075D01*
X436075Y457575D02*
X439250Y454400D01*
X432900Y457575D02*
X436075D01*
X432900D02*
X436075Y460750D01*
X432900Y463925D02*
X436075Y460750D01*
X432900Y463925D02*
X436075D01*
X439250Y467100D01*
X442425Y463925D01*
X445600D01*
X442425Y460750D02*
X445600Y463925D01*
X442425Y460750D02*
X445600Y457575D01*
X442425D02*
X445600D01*
X439250Y454400D02*
X442425Y457575D01*
X422575Y466075D02*
X425750Y462900D01*
X419400Y466075D02*
X422575D01*
X419400D02*
X422575Y469250D01*
X419400Y472425D02*
X422575Y469250D01*
X419400Y472425D02*
X422575D01*
X425750Y475600D01*
X428925Y472425D01*
X432100D01*
X428925Y469250D02*
X432100Y472425D01*
X428925Y469250D02*
X432100Y466075D01*
X428925D02*
X432100D01*
X425750Y462900D02*
X428925Y466075D01*
X436075Y491575D02*
X439250Y488400D01*
X432900Y491575D02*
X436075D01*
X432900D02*
X436075Y494750D01*
X432900Y497925D02*
X436075Y494750D01*
X432900Y497925D02*
X436075D01*
X439250Y501100D01*
X442425Y497925D01*
X445600D01*
X442425Y494750D02*
X445600Y497925D01*
X442425Y494750D02*
X445600Y491575D01*
X442425D02*
X445600D01*
X439250Y488400D02*
X442425Y491575D01*
X422575Y483075D02*
X425750Y479900D01*
X419400Y483075D02*
X422575D01*
X419400D02*
X422575Y486250D01*
X419400Y489425D02*
X422575Y486250D01*
X419400Y489425D02*
X422575D01*
X425750Y492600D01*
X428925Y489425D01*
X432100D01*
X428925Y486250D02*
X432100Y489425D01*
X428925Y486250D02*
X432100Y483075D01*
X428925D02*
X432100D01*
X425750Y479900D02*
X428925Y483075D01*
X436075Y474575D02*
X439250Y471400D01*
X432900Y474575D02*
X436075D01*
X432900D02*
X436075Y477750D01*
X432900Y480925D02*
X436075Y477750D01*
X432900Y480925D02*
X436075D01*
X439250Y484100D01*
X442425Y480925D01*
X445600D01*
X442425Y477750D02*
X445600Y480925D01*
X442425Y477750D02*
X445600Y474575D01*
X442425D02*
X445600D01*
X439250Y471400D02*
X442425Y474575D01*
X422575D02*
X425750Y471400D01*
X419400Y474575D02*
X422575D01*
X419400D02*
X422575Y477750D01*
X419400Y480925D02*
X422575Y477750D01*
X419400Y480925D02*
X422575D01*
X425750Y484100D01*
X428925Y480925D01*
X432100D01*
X428925Y477750D02*
X432100Y480925D01*
X428925Y477750D02*
X432100Y474575D01*
X428925D02*
X432100D01*
X425750Y471400D02*
X428925Y474575D01*
X436075Y483075D02*
X439250Y479900D01*
X432900Y483075D02*
X436075D01*
X432900D02*
X436075Y486250D01*
X432900Y489425D02*
X436075Y486250D01*
X432900Y489425D02*
X436075D01*
X439250Y492600D01*
X442425Y489425D01*
X445600D01*
X442425Y486250D02*
X445600Y489425D01*
X442425Y486250D02*
X445600Y483075D01*
X442425D02*
X445600D01*
X439250Y479900D02*
X442425Y483075D01*
X184206Y798270D02*
Y801445D01*
X187381Y804620D01*
X184206Y807795D02*
X187381Y804620D01*
X184206Y807795D02*
Y810970D01*
X187381D01*
X190556Y807795D01*
X193731Y810970D01*
X196906D01*
Y807795D02*
Y810970D01*
X193731Y804620D02*
X196906Y807795D01*
X193731Y804620D02*
X196906Y801445D01*
Y798270D02*
Y801445D01*
X193731Y798270D02*
X196906D01*
X190556Y801445D02*
X193731Y798270D01*
X187381D02*
X190556Y801445D01*
X184206Y798270D02*
X187381D01*
X252206D02*
Y801445D01*
X255381Y804620D01*
X252206Y807795D02*
X255381Y804620D01*
X252206Y807795D02*
Y810970D01*
X255381D01*
X258556Y807795D01*
X261731Y810970D01*
X264906D01*
Y807795D02*
Y810970D01*
X261731Y804620D02*
X264906Y807795D01*
X261731Y804620D02*
X264906Y801445D01*
Y798270D02*
Y801445D01*
X261731Y798270D02*
X264906D01*
X258556Y801445D02*
X261731Y798270D01*
X255381D02*
X258556Y801445D01*
X252206Y798270D02*
X255381D01*
D17*
X643751Y626385D02*
G03*
X643751Y626385I-8467J0D01*
G01*
X640365Y359685D02*
G03*
X640365Y359685I-5080J0D01*
G01*
X643751D02*
G03*
X643751Y359685I-8467J0D01*
G01*
X626818Y732218D02*
X643751D01*
Y749152D01*
X626818D02*
X643751D01*
X626818Y732218D02*
Y749152D01*
X631051Y698352D02*
X635285Y694118D01*
X626818Y698352D02*
X631051D01*
X626818D02*
X631051Y702585D01*
X626818Y706818D02*
X631051Y702585D01*
X626818Y706818D02*
X631051D01*
X635285Y711052D01*
X639518Y706818D01*
X643751D01*
X639518Y702585D02*
X643751Y706818D01*
X639518Y702585D02*
X643751Y698352D01*
X639518D02*
X643751D01*
X635285Y694118D02*
X639518Y698352D01*
X626818Y660252D02*
X631051D01*
X626818D02*
Y668718D01*
X631051D01*
Y672952D01*
X639518D01*
Y668718D02*
Y672952D01*
Y668718D02*
X643751D01*
Y660252D02*
Y668718D01*
X639518Y660252D02*
X643751D01*
X639518Y656018D02*
Y660252D01*
X631051Y656018D02*
X639518D01*
X631051D02*
Y660252D01*
X635285Y579818D02*
X643751Y596752D01*
X626818D02*
X643751D01*
X626818D02*
X635285Y579818D01*
X626818Y550185D02*
X635285Y541718D01*
X643751Y550185D01*
X635285Y558652D02*
X643751Y550185D01*
X626818D02*
X635285Y558652D01*
X632745Y509545D02*
X635285Y507005D01*
X630205Y509545D02*
X632745D01*
X630205D02*
X632745Y512085D01*
X630205Y514625D02*
X632745Y512085D01*
X630205Y514625D02*
X632745D01*
X635285Y517165D01*
X637825Y514625D01*
X640365D01*
X637825Y512085D02*
X640365Y514625D01*
X637825Y512085D02*
X640365Y509545D01*
X637825D02*
X640365D01*
X635285Y507005D02*
X637825Y509545D01*
X631051Y507852D02*
X635285Y503618D01*
X626818Y507852D02*
X631051D01*
X626818D02*
X631051Y512085D01*
X626818Y516318D02*
X631051Y512085D01*
X626818Y516318D02*
X631051D01*
X635285Y520552D01*
X639518Y516318D01*
X643751D01*
X639518Y512085D02*
X643751Y516318D01*
X639518Y512085D02*
X643751Y507852D01*
X639518D02*
X643751D01*
X635285Y503618D02*
X639518Y507852D01*
X626818Y465518D02*
Y469752D01*
X631051Y473985D01*
X626818Y478218D02*
X631051Y473985D01*
X626818Y478218D02*
Y482452D01*
X631051D01*
X635285Y478218D01*
X639518Y482452D01*
X643751D01*
Y478218D02*
Y482452D01*
X639518Y473985D02*
X643751Y478218D01*
X639518Y473985D02*
X643751Y469752D01*
Y465518D02*
Y469752D01*
X639518Y465518D02*
X643751D01*
X635285Y469752D02*
X639518Y465518D01*
X631051D02*
X635285Y469752D01*
X626818Y465518D02*
X631051D01*
X626818Y427418D02*
X635285Y431652D01*
X643751Y427418D01*
X639518Y435885D02*
X643751Y427418D01*
X639518Y435885D02*
X643751Y444352D01*
X635285Y440118D02*
X643751Y444352D01*
X626818D02*
X635285Y440118D01*
X626818Y444352D02*
X631051Y435885D01*
X626818Y427418D02*
X631051Y435885D01*
X630205Y392705D02*
X640365D01*
Y402865D01*
X630205D02*
X640365D01*
X630205Y392705D02*
Y402865D01*
X626818Y389318D02*
X643751D01*
Y406252D01*
X626818D02*
X643751D01*
X626818Y389318D02*
Y406252D01*
X3829918Y739836D02*
X3840075D01*
X3829918Y701736D02*
X3840075D01*
X3829918Y663636D02*
X3840075D01*
X3829918Y630614D02*
X3832458Y633153D01*
X3837536D01*
X3840075Y630614D01*
Y620457D01*
X3837536Y617918D01*
X3832458D01*
X3829918Y620457D01*
Y630614D01*
X3845154Y617918D02*
Y620457D01*
X3847693D01*
Y617918D01*
X3845154D01*
X3857849Y630614D02*
X3860388Y633153D01*
X3865467D01*
X3868006Y630614D01*
Y628075D01*
X3865467Y625536D01*
X3868006Y622997D01*
Y620457D01*
X3865467Y617918D01*
X3860388D01*
X3857849Y620457D01*
Y622997D01*
X3860388Y625536D01*
X3857849Y628075D01*
Y630614D01*
X3860388Y625536D02*
X3865467D01*
X3873084Y630614D02*
X3875623Y633153D01*
X3880702D01*
X3883241Y630614D01*
Y620457D01*
X3880702Y617918D01*
X3875623D01*
X3873084Y620457D01*
Y630614D01*
X3888319D02*
X3890858Y633153D01*
X3895937D01*
X3898476Y630614D01*
Y620457D01*
X3895937Y617918D01*
X3890858D01*
X3888319Y620457D01*
Y630614D01*
X3903554Y617918D02*
Y628075D01*
X3906094D01*
X3908633Y625536D01*
Y617918D01*
Y625536D01*
X3911172Y628075D01*
X3913711Y625536D01*
Y617918D01*
X3918790D02*
Y628075D01*
X3921329D01*
X3923868Y625536D01*
Y617918D01*
Y625536D01*
X3926407Y628075D01*
X3928946Y625536D01*
Y617918D01*
X3954338D02*
X3949260Y622997D01*
Y628075D01*
X3954338Y633153D01*
X3961956Y630614D02*
X3964495Y633153D01*
X3969573D01*
X3972112Y630614D01*
Y628075D01*
X3969573Y625536D01*
X3967034D01*
X3969573D01*
X3972112Y622997D01*
Y620457D01*
X3969573Y617918D01*
X3964495D01*
X3961956Y620457D01*
X3977191Y617918D02*
X3982269D01*
X3979730D01*
Y633153D01*
X3977191Y630614D01*
X3989886Y617918D02*
Y620457D01*
X3992426D01*
Y617918D01*
X3989886D01*
X4012739Y633153D02*
X4002582D01*
Y625536D01*
X4007661Y628075D01*
X4010200D01*
X4012739Y625536D01*
Y620457D01*
X4010200Y617918D01*
X4005122D01*
X4002582Y620457D01*
X4017817Y630614D02*
X4020357Y633153D01*
X4025435D01*
X4027974Y630614D01*
Y620457D01*
X4025435Y617918D01*
X4020357D01*
X4017817Y620457D01*
Y630614D01*
X4033053Y617918D02*
Y628075D01*
X4035592D01*
X4038131Y625536D01*
Y617918D01*
Y625536D01*
X4040670Y628075D01*
X4043209Y625536D01*
Y617918D01*
X4048288D02*
X4053366D01*
X4050827D01*
Y628075D01*
X4048288D01*
X4060984Y617918D02*
X4066062D01*
X4063523D01*
Y633153D01*
X4060984D01*
X4073680Y617918D02*
X4078758Y622997D01*
Y628075D01*
X4073680Y633153D01*
X3829918Y579818D02*
X3834997D01*
X3832458D01*
Y595053D01*
X3829918Y592514D01*
X3842614Y579818D02*
Y582357D01*
X3845154D01*
Y579818D01*
X3842614D01*
X3865467Y595053D02*
X3855310D01*
Y587436D01*
X3860388Y589975D01*
X3862928D01*
X3865467Y587436D01*
Y582357D01*
X3862928Y579818D01*
X3857849D01*
X3855310Y582357D01*
X3870545Y592514D02*
X3873084Y595053D01*
X3878163D01*
X3880702Y592514D01*
Y582357D01*
X3878163Y579818D01*
X3873084D01*
X3870545Y582357D01*
Y592514D01*
X3885780D02*
X3888319Y595053D01*
X3893398D01*
X3895937Y592514D01*
Y582357D01*
X3893398Y579818D01*
X3888319D01*
X3885780Y582357D01*
Y592514D01*
X3901015Y579818D02*
Y589975D01*
X3903554D01*
X3906094Y587436D01*
Y579818D01*
Y587436D01*
X3908633Y589975D01*
X3911172Y587436D01*
Y579818D01*
X3916250D02*
Y589975D01*
X3918790D01*
X3921329Y587436D01*
Y579818D01*
Y587436D01*
X3923868Y589975D01*
X3926407Y587436D01*
Y579818D01*
X3951799D02*
X3946721Y584897D01*
Y589975D01*
X3951799Y595053D01*
X3969573D02*
X3959417D01*
Y587436D01*
X3964495Y589975D01*
X3967034D01*
X3969573Y587436D01*
Y582357D01*
X3967034Y579818D01*
X3961956D01*
X3959417Y582357D01*
X3974651D02*
X3977191Y579818D01*
X3982269D01*
X3984808Y582357D01*
Y592514D01*
X3982269Y595053D01*
X3977191D01*
X3974651Y592514D01*
Y589975D01*
X3977191Y587436D01*
X3984808D01*
X3989886Y579818D02*
Y582357D01*
X3992426D01*
Y579818D01*
X3989886D01*
X4002582Y592514D02*
X4005122Y595053D01*
X4010200D01*
X4012739Y592514D01*
Y582357D01*
X4010200Y579818D01*
X4005122D01*
X4002582Y582357D01*
Y592514D01*
X4027974Y595053D02*
X4022896Y592514D01*
X4017817Y587436D01*
Y582357D01*
X4020357Y579818D01*
X4025435D01*
X4027974Y582357D01*
Y584897D01*
X4025435Y587436D01*
X4017817D01*
X4033053Y579818D02*
Y589975D01*
X4035592D01*
X4038131Y587436D01*
Y579818D01*
Y587436D01*
X4040670Y589975D01*
X4043209Y587436D01*
Y579818D01*
X4048288D02*
X4053366D01*
X4050827D01*
Y589975D01*
X4048288D01*
X4060984Y579818D02*
X4066062D01*
X4063523D01*
Y595053D01*
X4060984D01*
X4073680Y579818D02*
X4078758Y584897D01*
Y589975D01*
X4073680Y595053D01*
X3829918Y549336D02*
X3840075D01*
X3829918Y511236D02*
X3840075D01*
X3829918Y473136D02*
X3840075D01*
X3829918Y435036D02*
X3840075D01*
X3829918Y396936D02*
X3840075D01*
X3829918Y358836D02*
X3840075D01*
X3553139Y739836D02*
X3563296D01*
X3553139Y701736D02*
X3563296D01*
X3553139Y663636D02*
X3563296D01*
X3553139Y617918D02*
X3558217D01*
X3555678D01*
Y633153D01*
X3553139Y630614D01*
X3565835Y617918D02*
Y620457D01*
X3568374D01*
Y617918D01*
X3565835D01*
X3586148D02*
Y633153D01*
X3578531Y625536D01*
X3588687D01*
X3593766Y630614D02*
X3596305Y633153D01*
X3601383D01*
X3603922Y630614D01*
Y620457D01*
X3601383Y617918D01*
X3596305D01*
X3593766Y620457D01*
Y630614D01*
X3609001D02*
X3611540Y633153D01*
X3616618D01*
X3619157Y630614D01*
Y620457D01*
X3616618Y617918D01*
X3611540D01*
X3609001Y620457D01*
Y630614D01*
X3624236Y617918D02*
Y628075D01*
X3626775D01*
X3629314Y625536D01*
Y617918D01*
Y625536D01*
X3631853Y628075D01*
X3634393Y625536D01*
Y617918D01*
X3639471D02*
Y628075D01*
X3642010D01*
X3644549Y625536D01*
Y617918D01*
Y625536D01*
X3647089Y628075D01*
X3649628Y625536D01*
Y617918D01*
X3675020D02*
X3669941Y622997D01*
Y628075D01*
X3675020Y633153D01*
X3692794D02*
X3682637D01*
Y625536D01*
X3687715Y628075D01*
X3690255D01*
X3692794Y625536D01*
Y620457D01*
X3690255Y617918D01*
X3685176D01*
X3682637Y620457D01*
X3708029Y633153D02*
X3697872D01*
Y625536D01*
X3702950Y628075D01*
X3705490D01*
X3708029Y625536D01*
Y620457D01*
X3705490Y617918D01*
X3700411D01*
X3697872Y620457D01*
X3713107Y617918D02*
Y620457D01*
X3715646D01*
Y617918D01*
X3713107D01*
X3725803D02*
X3730881D01*
X3728342D01*
Y633153D01*
X3725803Y630614D01*
X3748656Y617918D02*
X3738499D01*
X3748656Y628075D01*
Y630614D01*
X3746116Y633153D01*
X3741038D01*
X3738499Y630614D01*
X3753734Y617918D02*
Y628075D01*
X3756273D01*
X3758812Y625536D01*
Y617918D01*
Y625536D01*
X3761352Y628075D01*
X3763891Y625536D01*
Y617918D01*
X3768969D02*
X3774048D01*
X3771508D01*
Y628075D01*
X3768969D01*
X3781665Y617918D02*
X3786743D01*
X3784204D01*
Y633153D01*
X3781665D01*
X3794361Y617918D02*
X3799439Y622997D01*
Y628075D01*
X3794361Y633153D01*
X3563296Y579818D02*
X3553139D01*
X3563296Y589975D01*
Y592514D01*
X3560757Y595053D01*
X3555678D01*
X3553139Y592514D01*
X3568374Y579818D02*
Y582357D01*
X3570913D01*
Y579818D01*
X3568374D01*
X3581070D02*
X3586148D01*
X3583609D01*
Y595053D01*
X3581070Y592514D01*
X3593766D02*
X3596305Y595053D01*
X3601383D01*
X3603922Y592514D01*
Y582357D01*
X3601383Y579818D01*
X3596305D01*
X3593766Y582357D01*
Y592514D01*
X3609001D02*
X3611540Y595053D01*
X3616618D01*
X3619157Y592514D01*
Y582357D01*
X3616618Y579818D01*
X3611540D01*
X3609001Y582357D01*
Y592514D01*
X3624236Y579818D02*
Y589975D01*
X3626775D01*
X3629314Y587436D01*
Y579818D01*
Y587436D01*
X3631853Y589975D01*
X3634393Y587436D01*
Y579818D01*
X3639471D02*
Y589975D01*
X3642010D01*
X3644549Y587436D01*
Y579818D01*
Y587436D01*
X3647089Y589975D01*
X3649628Y587436D01*
Y579818D01*
X3675020D02*
X3669941Y584897D01*
Y589975D01*
X3675020Y595053D01*
X3682637Y592514D02*
X3685176Y595053D01*
X3690255D01*
X3692794Y592514D01*
Y589975D01*
X3690255Y587436D01*
X3692794Y584897D01*
Y582357D01*
X3690255Y579818D01*
X3685176D01*
X3682637Y582357D01*
Y584897D01*
X3685176Y587436D01*
X3682637Y589975D01*
Y592514D01*
X3685176Y587436D02*
X3690255D01*
X3708029Y579818D02*
X3697872D01*
X3708029Y589975D01*
Y592514D01*
X3705490Y595053D01*
X3700411D01*
X3697872Y592514D01*
X3713107Y579818D02*
Y582357D01*
X3715646D01*
Y579818D01*
X3713107D01*
X3735960Y595053D02*
X3730881Y592514D01*
X3725803Y587436D01*
Y582357D01*
X3728342Y579818D01*
X3733420D01*
X3735960Y582357D01*
Y584897D01*
X3733420Y587436D01*
X3725803D01*
X3741038Y592514D02*
X3743577Y595053D01*
X3748656D01*
X3751195Y592514D01*
Y589975D01*
X3748656Y587436D01*
X3751195Y584897D01*
Y582357D01*
X3748656Y579818D01*
X3743577D01*
X3741038Y582357D01*
Y584897D01*
X3743577Y587436D01*
X3741038Y589975D01*
Y592514D01*
X3743577Y587436D02*
X3748656D01*
X3756273Y579818D02*
Y589975D01*
X3758812D01*
X3761352Y587436D01*
Y579818D01*
Y587436D01*
X3763891Y589975D01*
X3766430Y587436D01*
Y579818D01*
X3771508D02*
X3776587D01*
X3774048D01*
Y589975D01*
X3771508D01*
X3784204Y579818D02*
X3789283D01*
X3786743D01*
Y595053D01*
X3784204D01*
X3796900Y579818D02*
X3801978Y584897D01*
Y589975D01*
X3796900Y595053D01*
X3553139Y549336D02*
X3563296D01*
X3553139Y511236D02*
X3563296D01*
X3553139Y473136D02*
X3563296D01*
X3553139Y435036D02*
X3563296D01*
X3553139Y396936D02*
X3563296D01*
X3553139Y358836D02*
X3563296D01*
X2308395Y732218D02*
X2303316Y737297D01*
Y742375D01*
X2308395Y747453D01*
X2316012Y732218D02*
Y747453D01*
X2321091Y742375D01*
X2326169Y747453D01*
Y732218D01*
X2331247D02*
X2336326D01*
X2333786D01*
Y742375D01*
X2331247D01*
X2343943D02*
X2354100Y732218D01*
X2349021Y737297D01*
X2354100Y742375D01*
X2343943Y732218D01*
X2366796D02*
X2361717D01*
X2359178Y734758D01*
Y739836D01*
X2361717Y742375D01*
X2366796D01*
X2369335Y739836D01*
Y737297D01*
X2359178D01*
X2384570Y747453D02*
Y732218D01*
X2376952D01*
X2374413Y734758D01*
Y739836D01*
X2376952Y742375D01*
X2384570D01*
X2389648Y732218D02*
X2394727Y737297D01*
Y742375D01*
X2389648Y747453D01*
X2308395Y694118D02*
X2303316Y699197D01*
Y704275D01*
X2308395Y709353D01*
X2316012Y694118D02*
Y709353D01*
X2321091Y704275D01*
X2326169Y709353D01*
Y694118D01*
X2331247D02*
X2336326D01*
X2333786D01*
Y704275D01*
X2331247D01*
X2343943D02*
X2354100Y694118D01*
X2349021Y699197D01*
X2354100Y704275D01*
X2343943Y694118D01*
X2366796D02*
X2361717D01*
X2359178Y696657D01*
Y701736D01*
X2361717Y704275D01*
X2366796D01*
X2369335Y701736D01*
Y699197D01*
X2359178D01*
X2384570Y709353D02*
Y694118D01*
X2376952D01*
X2374413Y696657D01*
Y701736D01*
X2376952Y704275D01*
X2384570D01*
X2389648Y694118D02*
X2394727Y699197D01*
Y704275D01*
X2389648Y709353D01*
X2313473Y666175D02*
X2305855D01*
X2303316Y663636D01*
Y658558D01*
X2305855Y656018D01*
X2313473D01*
X2318551D02*
X2323630D01*
X2321091D01*
Y671253D01*
X2318551Y668714D01*
X2341404Y656018D02*
X2331247D01*
X2341404Y666175D01*
Y668714D01*
X2338865Y671253D01*
X2333786D01*
X2331247Y668714D01*
X2346482D02*
X2349021Y671253D01*
X2354100D01*
X2356639Y668714D01*
Y658558D01*
X2354100Y656018D01*
X2349021D01*
X2346482Y658558D01*
Y668714D01*
X2361717Y671253D02*
Y656018D01*
Y663636D01*
X2364256Y666175D01*
X2369335D01*
X2371874Y663636D01*
Y656018D01*
X2387109Y671253D02*
X2382031Y668714D01*
X2376952Y663636D01*
Y658558D01*
X2379492Y656018D01*
X2384570D01*
X2387109Y658558D01*
Y661097D01*
X2384570Y663636D01*
X2376952D01*
X2392188Y668714D02*
X2394727Y671253D01*
X2399805D01*
X2402344Y668714D01*
Y658558D01*
X2399805Y656018D01*
X2394727D01*
X2392188Y658558D01*
Y668714D01*
X2407422Y656018D02*
Y666175D01*
X2409962D01*
X2412501Y663636D01*
Y656018D01*
Y663636D01*
X2415040Y666175D01*
X2417579Y663636D01*
Y656018D01*
X2422658D02*
X2427736D01*
X2425197D01*
Y671253D01*
X2422658Y668714D01*
X2445510Y656018D02*
X2435354D01*
X2445510Y666175D01*
Y668714D01*
X2442971Y671253D01*
X2437893D01*
X2435354Y668714D01*
X2450589D02*
X2453128Y671253D01*
X2458206D01*
X2460745Y668714D01*
Y658558D01*
X2458206Y656018D01*
X2453128D01*
X2450589Y658558D01*
Y668714D01*
X2465824Y650940D02*
Y666175D01*
X2473441D01*
X2475980Y663636D01*
Y658558D01*
X2473441Y656018D01*
X2465824D01*
X2481059Y668714D02*
X2483598Y671253D01*
X2488676D01*
X2491215Y668714D01*
Y658558D01*
X2488676Y656018D01*
X2483598D01*
X2481059Y658558D01*
Y668714D01*
X2303316Y628075D02*
Y617918D01*
Y622997D01*
X2305855Y625536D01*
X2308395Y628075D01*
X2310934D01*
X2318551Y617918D02*
X2323630D01*
X2321091D01*
Y633153D01*
X2318551Y630614D01*
X2331247Y633153D02*
X2341404D01*
Y630614D01*
X2331247Y620457D01*
Y617918D01*
X2346482Y630614D02*
X2349021Y633153D01*
X2354100D01*
X2356639Y630614D01*
Y620457D01*
X2354100Y617918D01*
X2349021D01*
X2346482Y620457D01*
Y630614D01*
X2361717Y615379D02*
X2371874D01*
X2376952Y620457D02*
X2379492Y617918D01*
X2384570D01*
X2387109Y620457D01*
Y630614D01*
X2384570Y633153D01*
X2379492D01*
X2376952Y630614D01*
Y628075D01*
X2379492Y625536D01*
X2387109D01*
X2392188Y630614D02*
X2394727Y633153D01*
X2399805D01*
X2402344Y630614D01*
Y620457D01*
X2399805Y617918D01*
X2394727D01*
X2392188Y620457D01*
Y630614D01*
X2407422Y633153D02*
Y617918D01*
Y625536D01*
X2409962Y628075D01*
X2415040D01*
X2417579Y625536D01*
Y617918D01*
X2432814Y633153D02*
X2427736Y630614D01*
X2422658Y625536D01*
Y620457D01*
X2425197Y617918D01*
X2430275D01*
X2432814Y620457D01*
Y622997D01*
X2430275Y625536D01*
X2422658D01*
X2437893Y630614D02*
X2440432Y633153D01*
X2445510D01*
X2448049Y630614D01*
Y620457D01*
X2445510Y617918D01*
X2440432D01*
X2437893Y620457D01*
Y630614D01*
X2453128Y615379D02*
X2463284D01*
X2468363Y617918D02*
X2473441D01*
X2470902D01*
Y633153D01*
X2468363Y630614D01*
X2488676Y617918D02*
Y633153D01*
X2481059Y625536D01*
X2491215D01*
X2496294Y630614D02*
X2498833Y633153D01*
X2503911D01*
X2506451Y630614D01*
Y620457D01*
X2503911Y617918D01*
X2498833D01*
X2496294Y620457D01*
Y630614D01*
X2511529Y628075D02*
Y617918D01*
Y622997D01*
X2514068Y625536D01*
X2516607Y628075D01*
X2519146D01*
X2534382Y617918D02*
Y633153D01*
X2526764Y625536D01*
X2536921D01*
X2552156Y633153D02*
X2541999D01*
Y625536D01*
X2547077Y628075D01*
X2549617D01*
X2552156Y625536D01*
Y620457D01*
X2549617Y617918D01*
X2544538D01*
X2541999Y620457D01*
X2557234Y617918D02*
Y628075D01*
X2559773D01*
X2562312Y625536D01*
Y617918D01*
Y625536D01*
X2564852Y628075D01*
X2567391Y625536D01*
Y617918D01*
X2572469Y630614D02*
X2575008Y633153D01*
X2580087D01*
X2582626Y630614D01*
Y620457D01*
X2580087Y617918D01*
X2575008D01*
X2572469Y620457D01*
Y630614D01*
X2587704Y617918D02*
Y628075D01*
X2590244D01*
X2592783Y625536D01*
Y617918D01*
Y625536D01*
X2595322Y628075D01*
X2597861Y625536D01*
Y617918D01*
X2602939Y628075D02*
X2613096Y617918D01*
X2608018Y622997D01*
X2613096Y628075D01*
X2602939Y617918D01*
X2618174Y630614D02*
X2620714Y633153D01*
X2625792D01*
X2628331Y630614D01*
Y620457D01*
X2625792Y617918D01*
X2620714D01*
X2618174Y620457D01*
Y630614D01*
X2303316Y589975D02*
Y579818D01*
Y584897D01*
X2305855Y587436D01*
X2308395Y589975D01*
X2310934D01*
X2328708Y579818D02*
X2318551D01*
X2328708Y589975D01*
Y592514D01*
X2326169Y595053D01*
X2321091D01*
X2318551Y592514D01*
X2341404Y579818D02*
Y595053D01*
X2333786Y587436D01*
X2343943D01*
X2349021Y592514D02*
X2351561Y595053D01*
X2356639D01*
X2359178Y592514D01*
Y582357D01*
X2356639Y579818D01*
X2351561D01*
X2349021Y582357D01*
Y592514D01*
X2364256Y577279D02*
X2374413D01*
X2379492Y582357D02*
X2382031Y579818D01*
X2387109D01*
X2389648Y582357D01*
Y592514D01*
X2387109Y595053D01*
X2382031D01*
X2379492Y592514D01*
Y589975D01*
X2382031Y587436D01*
X2389648D01*
X2394727Y592514D02*
X2397266Y595053D01*
X2402344D01*
X2404883Y592514D01*
Y582357D01*
X2402344Y579818D01*
X2397266D01*
X2394727Y582357D01*
Y592514D01*
X2409962Y595053D02*
Y579818D01*
Y587436D01*
X2412501Y589975D01*
X2417579D01*
X2420119Y587436D01*
Y579818D01*
X2435354Y595053D02*
X2430275Y592514D01*
X2425197Y587436D01*
Y582357D01*
X2427736Y579818D01*
X2432814D01*
X2435354Y582357D01*
Y584897D01*
X2432814Y587436D01*
X2425197D01*
X2440432Y592514D02*
X2442971Y595053D01*
X2448049D01*
X2450589Y592514D01*
Y582357D01*
X2448049Y579818D01*
X2442971D01*
X2440432Y582357D01*
Y592514D01*
X2455667Y577279D02*
X2465824D01*
X2481059Y579818D02*
X2470902D01*
X2481059Y589975D01*
Y592514D01*
X2478520Y595053D01*
X2473441D01*
X2470902Y592514D01*
X2486137Y579818D02*
X2491215D01*
X2488676D01*
Y595053D01*
X2486137Y592514D01*
X2498833D02*
X2501372Y595053D01*
X2506451D01*
X2508990Y592514D01*
Y582357D01*
X2506451Y579818D01*
X2501372D01*
X2498833Y582357D01*
Y592514D01*
X2514068Y589975D02*
Y579818D01*
Y584897D01*
X2516607Y587436D01*
X2519146Y589975D01*
X2521686D01*
X2536921Y579818D02*
Y595053D01*
X2529303Y587436D01*
X2539460D01*
X2554695Y595053D02*
X2544538D01*
Y587436D01*
X2549617Y589975D01*
X2552156D01*
X2554695Y587436D01*
Y582357D01*
X2552156Y579818D01*
X2547077D01*
X2544538Y582357D01*
X2559773Y579818D02*
Y589975D01*
X2562313D01*
X2564852Y587436D01*
Y579818D01*
Y587436D01*
X2567391Y589975D01*
X2569930Y587436D01*
Y579818D01*
X2575008Y592514D02*
X2577548Y595053D01*
X2582626D01*
X2585165Y592514D01*
Y582357D01*
X2582626Y579818D01*
X2577548D01*
X2575008Y582357D01*
Y592514D01*
X2590244Y579818D02*
Y589975D01*
X2592783D01*
X2595322Y587436D01*
Y579818D01*
Y587436D01*
X2597861Y589975D01*
X2600400Y587436D01*
Y579818D01*
X2605479Y589975D02*
X2615635Y579818D01*
X2610557Y584897D01*
X2615635Y589975D01*
X2605479Y579818D01*
X2620714Y592514D02*
X2623253Y595053D01*
X2628331D01*
X2630870Y592514D01*
Y582357D01*
X2628331Y579818D01*
X2623253D01*
X2620714Y582357D01*
Y592514D01*
X2313473Y551875D02*
X2305855D01*
X2303316Y549336D01*
Y544258D01*
X2305855Y541718D01*
X2313473D01*
X2318551D02*
X2323630D01*
X2321091D01*
Y556953D01*
X2318551Y554414D01*
X2331247D02*
X2333786Y556953D01*
X2338865D01*
X2341404Y554414D01*
Y544258D01*
X2338865Y541718D01*
X2333786D01*
X2331247Y544258D01*
Y554414D01*
X2346482D02*
X2349021Y556953D01*
X2354100D01*
X2356639Y554414D01*
Y544258D01*
X2354100Y541718D01*
X2349021D01*
X2346482Y544258D01*
Y554414D01*
X2361717Y556953D02*
Y541718D01*
Y549336D01*
X2364256Y551875D01*
X2369335D01*
X2371874Y549336D01*
Y541718D01*
X2376952Y556953D02*
X2387109D01*
Y554414D01*
X2376952Y544258D01*
Y541718D01*
X2402344Y556953D02*
X2392188D01*
Y549336D01*
X2397266Y551875D01*
X2399805D01*
X2402344Y549336D01*
Y544258D01*
X2399805Y541718D01*
X2394727D01*
X2392188Y544258D01*
X2407422Y541718D02*
Y551875D01*
X2409962D01*
X2412501Y549336D01*
Y541718D01*
Y549336D01*
X2415040Y551875D01*
X2417579Y549336D01*
Y541718D01*
X2422658D02*
X2427736D01*
X2425197D01*
Y556953D01*
X2422658Y554414D01*
X2435354D02*
X2437893Y556953D01*
X2442971D01*
X2445510Y554414D01*
Y544258D01*
X2442971Y541718D01*
X2437893D01*
X2435354Y544258D01*
Y554414D01*
X2450589D02*
X2453128Y556953D01*
X2458206D01*
X2460745Y554414D01*
Y544258D01*
X2458206Y541718D01*
X2453128D01*
X2450589Y544258D01*
Y554414D01*
X2465824Y536640D02*
Y551875D01*
X2473441D01*
X2475980Y549336D01*
Y544258D01*
X2473441Y541718D01*
X2465824D01*
X2481059Y554414D02*
X2483598Y556953D01*
X2488676D01*
X2491215Y554414D01*
Y544258D01*
X2488676Y541718D01*
X2483598D01*
X2481059Y544258D01*
Y554414D01*
X2313473Y513775D02*
X2305855D01*
X2303316Y511236D01*
Y506157D01*
X2305855Y503618D01*
X2313473D01*
X2318551D02*
X2323630D01*
X2321091D01*
Y518853D01*
X2318551Y516314D01*
X2341404Y503618D02*
X2331247D01*
X2341404Y513775D01*
Y516314D01*
X2338865Y518853D01*
X2333786D01*
X2331247Y516314D01*
X2346482D02*
X2349021Y518853D01*
X2354100D01*
X2356639Y516314D01*
Y513775D01*
X2354100Y511236D01*
X2356639Y508697D01*
Y506157D01*
X2354100Y503618D01*
X2349021D01*
X2346482Y506157D01*
Y508697D01*
X2349021Y511236D01*
X2346482Y513775D01*
Y516314D01*
X2349021Y511236D02*
X2354100D01*
X2361717Y518853D02*
Y503618D01*
Y511236D01*
X2364256Y513775D01*
X2369335D01*
X2371874Y511236D01*
Y503618D01*
X2376952Y516314D02*
X2379492Y518853D01*
X2384570D01*
X2387109Y516314D01*
Y513775D01*
X2384570Y511236D01*
X2387109Y508697D01*
Y506157D01*
X2384570Y503618D01*
X2379492D01*
X2376952Y506157D01*
Y508697D01*
X2379492Y511236D01*
X2376952Y513775D01*
Y516314D01*
X2379492Y511236D02*
X2384570D01*
X2402344Y518853D02*
X2392188D01*
Y511236D01*
X2397266Y513775D01*
X2399805D01*
X2402344Y511236D01*
Y506157D01*
X2399805Y503618D01*
X2394727D01*
X2392188Y506157D01*
X2407422Y503618D02*
Y513775D01*
X2409962D01*
X2412501Y511236D01*
Y503618D01*
Y511236D01*
X2415040Y513775D01*
X2417579Y511236D01*
Y503618D01*
X2422658Y516314D02*
X2425197Y518853D01*
X2430275D01*
X2432814Y516314D01*
Y506157D01*
X2430275Y503618D01*
X2425197D01*
X2422658Y506157D01*
Y516314D01*
X2437893Y503618D02*
Y513775D01*
X2440432D01*
X2442971Y511236D01*
Y503618D01*
Y511236D01*
X2445510Y513775D01*
X2448049Y511236D01*
Y503618D01*
X2453128Y513775D02*
X2463284Y503618D01*
X2458206Y508697D01*
X2463284Y513775D01*
X2453128Y503618D01*
X2468363Y516314D02*
X2470902Y518853D01*
X2475980D01*
X2478520Y516314D01*
Y506157D01*
X2475980Y503618D01*
X2470902D01*
X2468363Y506157D01*
Y516314D01*
X2313473Y475675D02*
X2305855D01*
X2303316Y473136D01*
Y468058D01*
X2305855Y465518D01*
X2313473D01*
X2318551Y468058D02*
X2321091Y465518D01*
X2326169D01*
X2328708Y468058D01*
Y478214D01*
X2326169Y480753D01*
X2321091D01*
X2318551Y478214D01*
Y475675D01*
X2321091Y473136D01*
X2328708D01*
X2343943Y480753D02*
X2333786D01*
Y473136D01*
X2338865Y475675D01*
X2341404D01*
X2343943Y473136D01*
Y468058D01*
X2341404Y465518D01*
X2336326D01*
X2333786Y468058D01*
X2349021Y480753D02*
Y465518D01*
Y473136D01*
X2351561Y475675D01*
X2356639D01*
X2359178Y473136D01*
Y465518D01*
X2364256D02*
Y475675D01*
X2371874D01*
X2374413Y473136D01*
Y465518D01*
X2379492Y468058D02*
X2382031Y465518D01*
X2387109D01*
X2389648Y468058D01*
Y478214D01*
X2387109Y480753D01*
X2382031D01*
X2379492Y478214D01*
Y475675D01*
X2382031Y473136D01*
X2389648D01*
X2404883Y480753D02*
X2394727D01*
Y473136D01*
X2399805Y475675D01*
X2402344D01*
X2404883Y473136D01*
Y468058D01*
X2402344Y465518D01*
X2397266D01*
X2394727Y468058D01*
X2409962Y465518D02*
Y475675D01*
X2412501D01*
X2415040Y473136D01*
Y465518D01*
Y473136D01*
X2417579Y475675D01*
X2420119Y473136D01*
Y465518D01*
X2425197Y478214D02*
X2427736Y480753D01*
X2432814D01*
X2435354Y478214D01*
Y468058D01*
X2432814Y465518D01*
X2427736D01*
X2425197Y468058D01*
Y478214D01*
X2440432Y465518D02*
Y475675D01*
X2442971D01*
X2445510Y473136D01*
Y465518D01*
Y473136D01*
X2448049Y475675D01*
X2450589Y473136D01*
Y465518D01*
X2455667Y475675D02*
X2465824Y465518D01*
X2460745Y470597D01*
X2465824Y475675D01*
X2455667Y465518D01*
X2470902Y478214D02*
X2473441Y480753D01*
X2478520D01*
X2481059Y478214D01*
Y468058D01*
X2478520Y465518D01*
X2473441D01*
X2470902Y468058D01*
Y478214D01*
X2308395Y427418D02*
X2303316Y432497D01*
Y437575D01*
X2308395Y442653D01*
X2316012Y427418D02*
Y442653D01*
X2321091Y437575D01*
X2326169Y442653D01*
Y427418D01*
X2331247D02*
X2336326D01*
X2333786D01*
Y437575D01*
X2331247D01*
X2343943D02*
X2354100Y427418D01*
X2349021Y432497D01*
X2354100Y437575D01*
X2343943Y427418D01*
X2366796D02*
X2361717D01*
X2359178Y429958D01*
Y435036D01*
X2361717Y437575D01*
X2366796D01*
X2369335Y435036D01*
Y432497D01*
X2359178D01*
X2384570Y442653D02*
Y427418D01*
X2376952D01*
X2374413Y429958D01*
Y435036D01*
X2376952Y437575D01*
X2384570D01*
X2389648Y427418D02*
X2394727Y432497D01*
Y437575D01*
X2389648Y442653D01*
X2308395Y389318D02*
X2303316Y394397D01*
Y399475D01*
X2308395Y404553D01*
X2316012Y389318D02*
Y404553D01*
X2321091Y399475D01*
X2326169Y404553D01*
Y389318D01*
X2331247D02*
X2336326D01*
X2333786D01*
Y399475D01*
X2331247D01*
X2343943D02*
X2354100Y389318D01*
X2349021Y394397D01*
X2354100Y399475D01*
X2343943Y389318D01*
X2366796D02*
X2361717D01*
X2359178Y391857D01*
Y396936D01*
X2361717Y399475D01*
X2366796D01*
X2369335Y396936D01*
Y394397D01*
X2359178D01*
X2384570Y404553D02*
Y389318D01*
X2376952D01*
X2374413Y391857D01*
Y396936D01*
X2376952Y399475D01*
X2384570D01*
X2389648Y389318D02*
X2394727Y394397D01*
Y399475D01*
X2389648Y404553D01*
X2308395Y351218D02*
X2303316Y356297D01*
Y361375D01*
X2308395Y366453D01*
X2316012Y351218D02*
Y366453D01*
X2321091Y361375D01*
X2326169Y366453D01*
Y351218D01*
X2331247D02*
X2336326D01*
X2333786D01*
Y361375D01*
X2331247D01*
X2343943D02*
X2354100Y351218D01*
X2349021Y356297D01*
X2354100Y361375D01*
X2343943Y351218D01*
X2366796D02*
X2361717D01*
X2359178Y353758D01*
Y358836D01*
X2361717Y361375D01*
X2366796D01*
X2369335Y358836D01*
Y356297D01*
X2359178D01*
X2384570Y366453D02*
Y351218D01*
X2376952D01*
X2374413Y353758D01*
Y358836D01*
X2376952Y361375D01*
X2384570D01*
X2389648Y351218D02*
X2394727Y356297D01*
Y361375D01*
X2389648Y366453D01*
X2113884Y732218D02*
Y747453D01*
X2121501D01*
X2124040Y744914D01*
Y739836D01*
X2121501Y737297D01*
X2113884D01*
X2118962D02*
X2124040Y732218D01*
X2131658D02*
X2136736D01*
X2139275Y734758D01*
Y739836D01*
X2136736Y742375D01*
X2131658D01*
X2129119Y739836D01*
Y734758D01*
X2131658Y732218D01*
X2144354Y742375D02*
Y734758D01*
X2146893Y732218D01*
X2154510D01*
Y742375D01*
X2159589Y732218D02*
Y742375D01*
X2167206D01*
X2169745Y739836D01*
Y732218D01*
X2184980Y747453D02*
Y732218D01*
X2177363D01*
X2174824Y734758D01*
Y739836D01*
X2177363Y742375D01*
X2184980D01*
X2197676Y732218D02*
X2192598D01*
X2190059Y734758D01*
Y739836D01*
X2192598Y742375D01*
X2197676D01*
X2200216Y739836D01*
Y737297D01*
X2190059D01*
X2215451Y747453D02*
Y732218D01*
X2207833D01*
X2205294Y734758D01*
Y739836D01*
X2207833Y742375D01*
X2215451D01*
X2113884Y694118D02*
Y709353D01*
X2121501D01*
X2124040Y706814D01*
Y701736D01*
X2121501Y699197D01*
X2113884D01*
X2118962D02*
X2124040Y694118D01*
X2131658D02*
X2136736D01*
X2139275Y696657D01*
Y701736D01*
X2136736Y704275D01*
X2131658D01*
X2129119Y701736D01*
Y696657D01*
X2131658Y694118D01*
X2144354Y704275D02*
Y696657D01*
X2146893Y694118D01*
X2154510D01*
Y704275D01*
X2159589Y694118D02*
Y704275D01*
X2167206D01*
X2169745Y701736D01*
Y694118D01*
X2184980Y709353D02*
Y694118D01*
X2177363D01*
X2174824Y696657D01*
Y701736D01*
X2177363Y704275D01*
X2184980D01*
X2197676Y694118D02*
X2192598D01*
X2190059Y696657D01*
Y701736D01*
X2192598Y704275D01*
X2197676D01*
X2200216Y701736D01*
Y699197D01*
X2190059D01*
X2215451Y709353D02*
Y694118D01*
X2207833D01*
X2205294Y696657D01*
Y701736D01*
X2207833Y704275D01*
X2215451D01*
X2113884Y656018D02*
Y671253D01*
X2121501D01*
X2124040Y668714D01*
Y663636D01*
X2121501Y661097D01*
X2113884D01*
X2118962D02*
X2124040Y656018D01*
X2131658D02*
X2136736D01*
X2139275Y658558D01*
Y663636D01*
X2136736Y666175D01*
X2131658D01*
X2129119Y663636D01*
Y658558D01*
X2131658Y656018D01*
X2144354Y666175D02*
Y658558D01*
X2146893Y656018D01*
X2154510D01*
Y666175D01*
X2159589Y656018D02*
Y666175D01*
X2167206D01*
X2169745Y663636D01*
Y656018D01*
X2184980Y671253D02*
Y656018D01*
X2177363D01*
X2174824Y658558D01*
Y663636D01*
X2177363Y666175D01*
X2184980D01*
X2197676Y656018D02*
X2192598D01*
X2190059Y658558D01*
Y663636D01*
X2192598Y666175D01*
X2197676D01*
X2200216Y663636D01*
Y661097D01*
X2190059D01*
X2215451Y671253D02*
Y656018D01*
X2207833D01*
X2205294Y658558D01*
Y663636D01*
X2207833Y666175D01*
X2215451D01*
X2113884Y617918D02*
Y633153D01*
X2121501D01*
X2124040Y630614D01*
Y625536D01*
X2121501Y622997D01*
X2113884D01*
X2118962D02*
X2124040Y617918D01*
X2131658D02*
X2136736D01*
X2139275Y620457D01*
Y625536D01*
X2136736Y628075D01*
X2131658D01*
X2129119Y625536D01*
Y620457D01*
X2131658Y617918D01*
X2144354Y628075D02*
Y620457D01*
X2146893Y617918D01*
X2154510D01*
Y628075D01*
X2159589Y617918D02*
Y628075D01*
X2167206D01*
X2169745Y625536D01*
Y617918D01*
X2184980Y633153D02*
Y617918D01*
X2177363D01*
X2174824Y620457D01*
Y625536D01*
X2177363Y628075D01*
X2184980D01*
X2197676Y617918D02*
X2192598D01*
X2190059Y620457D01*
Y625536D01*
X2192598Y628075D01*
X2197676D01*
X2200216Y625536D01*
Y622997D01*
X2190059D01*
X2215451Y633153D02*
Y617918D01*
X2207833D01*
X2205294Y620457D01*
Y625536D01*
X2207833Y628075D01*
X2215451D01*
X2113884Y579818D02*
Y595053D01*
X2121501D01*
X2124040Y592514D01*
Y587436D01*
X2121501Y584897D01*
X2113884D01*
X2118962D02*
X2124040Y579818D01*
X2131658D02*
X2136736D01*
X2139275Y582357D01*
Y587436D01*
X2136736Y589975D01*
X2131658D01*
X2129119Y587436D01*
Y582357D01*
X2131658Y579818D01*
X2144354Y589975D02*
Y582357D01*
X2146893Y579818D01*
X2154510D01*
Y589975D01*
X2159589Y579818D02*
Y589975D01*
X2167206D01*
X2169745Y587436D01*
Y579818D01*
X2184980Y595053D02*
Y579818D01*
X2177363D01*
X2174824Y582357D01*
Y587436D01*
X2177363Y589975D01*
X2184980D01*
X2197676Y579818D02*
X2192598D01*
X2190059Y582357D01*
Y587436D01*
X2192598Y589975D01*
X2197676D01*
X2200216Y587436D01*
Y584897D01*
X2190059D01*
X2215451Y595053D02*
Y579818D01*
X2207833D01*
X2205294Y582357D01*
Y587436D01*
X2207833Y589975D01*
X2215451D01*
X2113884Y541718D02*
Y556953D01*
X2121501D01*
X2124040Y554414D01*
Y549336D01*
X2121501Y546797D01*
X2113884D01*
X2118962D02*
X2124040Y541718D01*
X2131658D02*
X2136736D01*
X2139275Y544258D01*
Y549336D01*
X2136736Y551875D01*
X2131658D01*
X2129119Y549336D01*
Y544258D01*
X2131658Y541718D01*
X2144354Y551875D02*
Y544258D01*
X2146893Y541718D01*
X2154510D01*
Y551875D01*
X2159589Y541718D02*
Y551875D01*
X2167206D01*
X2169745Y549336D01*
Y541718D01*
X2184980Y556953D02*
Y541718D01*
X2177363D01*
X2174824Y544258D01*
Y549336D01*
X2177363Y551875D01*
X2184980D01*
X2197676Y541718D02*
X2192598D01*
X2190059Y544258D01*
Y549336D01*
X2192598Y551875D01*
X2197676D01*
X2200216Y549336D01*
Y546797D01*
X2190059D01*
X2215451Y556953D02*
Y541718D01*
X2207833D01*
X2205294Y544258D01*
Y549336D01*
X2207833Y551875D01*
X2215451D01*
X2113884Y503618D02*
Y518853D01*
X2121501D01*
X2124040Y516314D01*
Y511236D01*
X2121501Y508697D01*
X2113884D01*
X2118962D02*
X2124040Y503618D01*
X2131658D02*
X2136736D01*
X2139275Y506157D01*
Y511236D01*
X2136736Y513775D01*
X2131658D01*
X2129119Y511236D01*
Y506157D01*
X2131658Y503618D01*
X2144354Y513775D02*
Y506157D01*
X2146893Y503618D01*
X2154510D01*
Y513775D01*
X2159589Y503618D02*
Y513775D01*
X2167206D01*
X2169745Y511236D01*
Y503618D01*
X2184980Y518853D02*
Y503618D01*
X2177363D01*
X2174824Y506157D01*
Y511236D01*
X2177363Y513775D01*
X2184980D01*
X2197676Y503618D02*
X2192598D01*
X2190059Y506157D01*
Y511236D01*
X2192598Y513775D01*
X2197676D01*
X2200216Y511236D01*
Y508697D01*
X2190059D01*
X2215451Y518853D02*
Y503618D01*
X2207833D01*
X2205294Y506157D01*
Y511236D01*
X2207833Y513775D01*
X2215451D01*
X2113884Y465518D02*
Y480753D01*
X2121501D01*
X2124040Y478214D01*
Y473136D01*
X2121501Y470597D01*
X2113884D01*
X2118962D02*
X2124040Y465518D01*
X2131658D02*
X2136736D01*
X2139275Y468058D01*
Y473136D01*
X2136736Y475675D01*
X2131658D01*
X2129119Y473136D01*
Y468058D01*
X2131658Y465518D01*
X2144354Y475675D02*
Y468058D01*
X2146893Y465518D01*
X2154510D01*
Y475675D01*
X2159589Y465518D02*
Y475675D01*
X2167206D01*
X2169745Y473136D01*
Y465518D01*
X2184980Y480753D02*
Y465518D01*
X2177363D01*
X2174824Y468058D01*
Y473136D01*
X2177363Y475675D01*
X2184980D01*
X2197676Y465518D02*
X2192598D01*
X2190059Y468058D01*
Y473136D01*
X2192598Y475675D01*
X2197676D01*
X2200216Y473136D01*
Y470597D01*
X2190059D01*
X2215451Y480753D02*
Y465518D01*
X2207833D01*
X2205294Y468058D01*
Y473136D01*
X2207833Y475675D01*
X2215451D01*
X2113884Y427418D02*
Y442653D01*
X2121501D01*
X2124040Y440114D01*
Y435036D01*
X2121501Y432497D01*
X2113884D01*
X2118962D02*
X2124040Y427418D01*
X2131658D02*
X2136736D01*
X2139275Y429958D01*
Y435036D01*
X2136736Y437575D01*
X2131658D01*
X2129119Y435036D01*
Y429958D01*
X2131658Y427418D01*
X2144354Y437575D02*
Y429958D01*
X2146893Y427418D01*
X2154510D01*
Y437575D01*
X2159589Y427418D02*
Y437575D01*
X2167206D01*
X2169745Y435036D01*
Y427418D01*
X2184980Y442653D02*
Y427418D01*
X2177363D01*
X2174824Y429958D01*
Y435036D01*
X2177363Y437575D01*
X2184980D01*
X2197676Y427418D02*
X2192598D01*
X2190059Y429958D01*
Y435036D01*
X2192598Y437575D01*
X2197676D01*
X2200216Y435036D01*
Y432497D01*
X2190059D01*
X2215451Y442653D02*
Y427418D01*
X2207833D01*
X2205294Y429958D01*
Y435036D01*
X2207833Y437575D01*
X2215451D01*
X2118962Y389318D02*
X2113884Y394397D01*
Y399475D01*
X2118962Y404553D01*
X2126579Y389318D02*
Y404553D01*
X2131658Y399475D01*
X2136736Y404553D01*
Y389318D01*
X2141815D02*
X2146893D01*
X2144354D01*
Y399475D01*
X2141815D01*
X2154510D02*
X2164667Y389318D01*
X2159589Y394397D01*
X2164667Y399475D01*
X2154510Y389318D01*
X2177363D02*
X2172285D01*
X2169745Y391857D01*
Y396936D01*
X2172285Y399475D01*
X2177363D01*
X2179902Y396936D01*
Y394397D01*
X2169745D01*
X2195137Y404553D02*
Y389318D01*
X2187520D01*
X2184980Y391857D01*
Y396936D01*
X2187520Y399475D01*
X2195137D01*
X2200216Y389318D02*
X2205294Y394397D01*
Y399475D01*
X2200216Y404553D01*
X2118962Y351218D02*
X2113884Y356297D01*
Y361375D01*
X2118962Y366453D01*
X2126579Y351218D02*
Y366453D01*
X2131658Y361375D01*
X2136736Y366453D01*
Y351218D01*
X2141815D02*
X2146893D01*
X2144354D01*
Y361375D01*
X2141815D01*
X2154510D02*
X2164667Y351218D01*
X2159589Y356297D01*
X2164667Y361375D01*
X2154510Y351218D01*
X2177363D02*
X2172285D01*
X2169745Y353758D01*
Y358836D01*
X2172285Y361375D01*
X2177363D01*
X2179902Y358836D01*
Y356297D01*
X2169745D01*
X2195137Y366453D02*
Y351218D01*
X2187520D01*
X2184980Y353758D01*
Y358836D01*
X2187520Y361375D01*
X2195137D01*
X2200216Y351218D02*
X2205294Y356297D01*
Y361375D01*
X2200216Y366453D01*
X1969140Y732218D02*
X1964062Y737297D01*
Y742375D01*
X1969140Y747453D01*
X1976758Y732218D02*
Y747453D01*
X1981836Y742375D01*
X1986915Y747453D01*
Y732218D01*
X1991993D02*
X1997071D01*
X1994532D01*
Y742375D01*
X1991993D01*
X2004689D02*
X2014845Y732218D01*
X2009767Y737297D01*
X2014845Y742375D01*
X2004689Y732218D01*
X2027541D02*
X2022463D01*
X2019924Y734758D01*
Y739836D01*
X2022463Y742375D01*
X2027541D01*
X2030081Y739836D01*
Y737297D01*
X2019924D01*
X2045316Y747453D02*
Y732218D01*
X2037698D01*
X2035159Y734758D01*
Y739836D01*
X2037698Y742375D01*
X2045316D01*
X2050394Y732218D02*
X2055472Y737297D01*
Y742375D01*
X2050394Y747453D01*
X1964062Y694118D02*
Y709353D01*
X1971680D01*
X1974219Y706814D01*
Y701736D01*
X1971680Y699197D01*
X1964062D01*
X1981836Y704275D02*
X1986915D01*
X1989454Y701736D01*
Y694118D01*
X1981836D01*
X1979297Y696657D01*
X1981836Y699197D01*
X1989454D01*
X2004689Y709353D02*
Y694118D01*
X1997071D01*
X1994532Y696657D01*
Y701736D01*
X1997071Y704275D01*
X2004689D01*
X1964062Y656018D02*
Y671253D01*
X1971680D01*
X1974219Y668714D01*
Y663636D01*
X1971680Y661097D01*
X1964062D01*
X1981836Y666175D02*
X1986915D01*
X1989454Y663636D01*
Y656018D01*
X1981836D01*
X1979297Y658558D01*
X1981836Y661097D01*
X1989454D01*
X2004689Y671253D02*
Y656018D01*
X1997071D01*
X1994532Y658558D01*
Y663636D01*
X1997071Y666175D01*
X2004689D01*
X1964062Y617918D02*
Y633153D01*
X1971680D01*
X1974219Y630614D01*
Y625536D01*
X1971680Y622997D01*
X1964062D01*
X1981836Y628075D02*
X1986915D01*
X1989454Y625536D01*
Y617918D01*
X1981836D01*
X1979297Y620457D01*
X1981836Y622997D01*
X1989454D01*
X2004689Y633153D02*
Y617918D01*
X1997071D01*
X1994532Y620457D01*
Y625536D01*
X1997071Y628075D01*
X2004689D01*
X1964062Y579818D02*
Y595053D01*
X1971680D01*
X1974219Y592514D01*
Y587436D01*
X1971680Y584897D01*
X1964062D01*
X1981836Y589975D02*
X1986915D01*
X1989454Y587436D01*
Y579818D01*
X1981836D01*
X1979297Y582357D01*
X1981836Y584897D01*
X1989454D01*
X2004689Y595053D02*
Y579818D01*
X1997071D01*
X1994532Y582357D01*
Y587436D01*
X1997071Y589975D01*
X2004689D01*
X1964062Y541718D02*
Y556953D01*
X1971680D01*
X1974219Y554414D01*
Y549336D01*
X1971680Y546797D01*
X1964062D01*
X1981836Y551875D02*
X1986915D01*
X1989454Y549336D01*
Y541718D01*
X1981836D01*
X1979297Y544258D01*
X1981836Y546797D01*
X1989454D01*
X2004689Y556953D02*
Y541718D01*
X1997071D01*
X1994532Y544258D01*
Y549336D01*
X1997071Y551875D01*
X2004689D01*
X1964062Y503618D02*
Y518853D01*
X1971680D01*
X1974219Y516314D01*
Y511236D01*
X1971680Y508697D01*
X1964062D01*
X1981836Y513775D02*
X1986915D01*
X1989454Y511236D01*
Y503618D01*
X1981836D01*
X1979297Y506157D01*
X1981836Y508697D01*
X1989454D01*
X2004689Y518853D02*
Y503618D01*
X1997071D01*
X1994532Y506157D01*
Y511236D01*
X1997071Y513775D01*
X2004689D01*
X1964062Y465518D02*
Y480753D01*
X1971680D01*
X1974219Y478214D01*
Y473136D01*
X1971680Y470597D01*
X1964062D01*
X1981836Y475675D02*
X1986915D01*
X1989454Y473136D01*
Y465518D01*
X1981836D01*
X1979297Y468058D01*
X1981836Y470597D01*
X1989454D01*
X2004689Y480753D02*
Y465518D01*
X1997071D01*
X1994532Y468058D01*
Y473136D01*
X1997071Y475675D01*
X2004689D01*
X1964062Y427418D02*
Y442653D01*
X1971680D01*
X1974219Y440114D01*
Y435036D01*
X1971680Y432497D01*
X1964062D01*
X1981836Y437575D02*
X1986915D01*
X1989454Y435036D01*
Y427418D01*
X1981836D01*
X1979297Y429958D01*
X1981836Y432497D01*
X1989454D01*
X2004689Y442653D02*
Y427418D01*
X1997071D01*
X1994532Y429958D01*
Y435036D01*
X1997071Y437575D01*
X2004689D01*
X1964062Y389318D02*
Y404553D01*
X1971680D01*
X1974219Y402014D01*
Y396936D01*
X1971680Y394397D01*
X1964062D01*
X1981836Y399475D02*
X1986915D01*
X1989454Y396936D01*
Y389318D01*
X1981836D01*
X1979297Y391857D01*
X1981836Y394397D01*
X1989454D01*
X2004689Y404553D02*
Y389318D01*
X1997071D01*
X1994532Y391857D01*
Y396936D01*
X1997071Y399475D01*
X2004689D01*
X1964062Y351218D02*
Y366453D01*
X1971680D01*
X1974219Y363914D01*
Y358836D01*
X1971680Y356297D01*
X1964062D01*
X1981836Y361375D02*
X1986915D01*
X1989454Y358836D01*
Y351218D01*
X1981836D01*
X1979297Y353758D01*
X1981836Y356297D01*
X1989454D01*
X2004689Y366453D02*
Y351218D01*
X1997071D01*
X1994532Y353758D01*
Y358836D01*
X1997071Y361375D01*
X2004689D01*
X1509540Y747453D02*
Y732218D01*
X1519697D01*
X1524775D02*
X1529853D01*
X1527314D01*
Y747453D01*
X1524775Y744914D01*
X1537471Y729679D02*
X1547628D01*
X1552706Y747453D02*
X1562863D01*
X1557784D01*
Y732218D01*
X1570480D02*
X1575559D01*
X1578098Y734758D01*
Y739836D01*
X1575559Y742375D01*
X1570480D01*
X1567941Y739836D01*
Y734758D01*
X1570480Y732218D01*
X1583176Y727140D02*
Y742375D01*
X1590794D01*
X1593333Y739836D01*
Y734758D01*
X1590794Y732218D01*
X1583176D01*
X1618725D02*
X1613646Y737297D01*
Y742375D01*
X1618725Y747453D01*
X1636499Y744914D02*
X1633960Y747453D01*
X1628881D01*
X1626342Y744914D01*
Y742375D01*
X1628881Y739836D01*
X1633960D01*
X1636499Y737297D01*
Y734758D01*
X1633960Y732218D01*
X1628881D01*
X1626342Y734758D01*
X1641577Y732218D02*
X1646656D01*
X1644117D01*
Y742375D01*
X1641577D01*
X1659352Y727140D02*
X1661891D01*
X1664430Y729679D01*
Y742375D01*
X1656812D01*
X1654273Y739836D01*
Y734758D01*
X1656812Y732218D01*
X1664430D01*
X1669508D02*
X1674587Y737297D01*
Y742375D01*
X1669508Y747453D01*
X1697439Y739836D02*
X1707596D01*
X1727909Y747453D02*
Y732218D01*
X1738066D01*
X1753301Y747453D02*
X1748223Y744914D01*
X1743144Y739836D01*
Y734758D01*
X1745684Y732218D01*
X1750762D01*
X1753301Y734758D01*
Y737297D01*
X1750762Y739836D01*
X1743144D01*
X1758380Y729679D02*
X1768536D01*
X1773615Y747453D02*
Y732218D01*
X1781232D01*
X1783771Y734758D01*
Y737297D01*
X1781232Y739836D01*
X1773615D01*
X1781232D01*
X1783771Y742375D01*
Y744914D01*
X1781232Y747453D01*
X1773615D01*
X1791389Y732218D02*
X1796467D01*
X1799006Y734758D01*
Y739836D01*
X1796467Y742375D01*
X1791389D01*
X1788850Y739836D01*
Y734758D01*
X1791389Y732218D01*
X1806624Y744914D02*
Y742375D01*
X1804085D01*
X1809163D01*
X1806624D01*
Y734758D01*
X1809163Y732218D01*
X1819320Y744914D02*
Y742375D01*
X1816781D01*
X1821859D01*
X1819320D01*
Y734758D01*
X1821859Y732218D01*
X1832016D02*
X1837094D01*
X1839633Y734758D01*
Y739836D01*
X1837094Y742375D01*
X1832016D01*
X1829476Y739836D01*
Y734758D01*
X1832016Y732218D01*
X1844712D02*
Y742375D01*
X1847251D01*
X1849790Y739836D01*
Y732218D01*
Y739836D01*
X1852329Y742375D01*
X1854868Y739836D01*
Y732218D01*
X1880260D02*
X1875182Y737297D01*
Y742375D01*
X1880260Y747453D01*
X1898034Y744914D02*
X1895495Y747453D01*
X1890417D01*
X1887878Y744914D01*
Y742375D01*
X1890417Y739836D01*
X1895495D01*
X1898034Y737297D01*
Y734758D01*
X1895495Y732218D01*
X1890417D01*
X1887878Y734758D01*
X1903113Y732218D02*
X1908191D01*
X1905652D01*
Y742375D01*
X1903113D01*
X1920887Y727140D02*
X1923426D01*
X1925965Y729679D01*
Y742375D01*
X1918348D01*
X1915809Y739836D01*
Y734758D01*
X1918348Y732218D01*
X1925965D01*
X1931044D02*
X1936122Y737297D01*
Y742375D01*
X1931044Y747453D01*
X1509540Y709353D02*
Y694118D01*
X1519697D01*
X1524775D02*
X1529853D01*
X1527314D01*
Y709353D01*
X1524775Y706814D01*
X1537471Y691579D02*
X1547628D01*
X1552706Y709353D02*
X1562863D01*
X1557784D01*
Y694118D01*
X1570480D02*
X1575559D01*
X1578098Y696657D01*
Y701736D01*
X1575559Y704275D01*
X1570480D01*
X1567941Y701736D01*
Y696657D01*
X1570480Y694118D01*
X1583176Y689040D02*
Y704275D01*
X1590794D01*
X1593333Y701736D01*
Y696657D01*
X1590794Y694118D01*
X1583176D01*
X1618725D02*
X1613646Y699197D01*
Y704275D01*
X1618725Y709353D01*
X1636499Y706814D02*
X1633960Y709353D01*
X1628881D01*
X1626342Y706814D01*
Y704275D01*
X1628881Y701736D01*
X1633960D01*
X1636499Y699197D01*
Y696657D01*
X1633960Y694118D01*
X1628881D01*
X1626342Y696657D01*
X1641577Y694118D02*
X1646656D01*
X1644117D01*
Y704275D01*
X1641577D01*
X1659352Y689040D02*
X1661891D01*
X1664430Y691579D01*
Y704275D01*
X1656812D01*
X1654273Y701736D01*
Y696657D01*
X1656812Y694118D01*
X1664430D01*
X1669508D02*
X1674587Y699197D01*
Y704275D01*
X1669508Y709353D01*
X1697439Y701736D02*
X1707596D01*
X1727909Y709353D02*
Y694118D01*
X1738066D01*
X1753301Y709353D02*
X1748223Y706814D01*
X1743144Y701736D01*
Y696657D01*
X1745684Y694118D01*
X1750762D01*
X1753301Y696657D01*
Y699197D01*
X1750762Y701736D01*
X1743144D01*
X1758380Y691579D02*
X1768536D01*
X1773615Y709353D02*
Y694118D01*
X1781232D01*
X1783771Y696657D01*
Y699197D01*
X1781232Y701736D01*
X1773615D01*
X1781232D01*
X1783771Y704275D01*
Y706814D01*
X1781232Y709353D01*
X1773615D01*
X1791389Y694118D02*
X1796467D01*
X1799006Y696657D01*
Y701736D01*
X1796467Y704275D01*
X1791389D01*
X1788850Y701736D01*
Y696657D01*
X1791389Y694118D01*
X1806624Y706814D02*
Y704275D01*
X1804085D01*
X1809163D01*
X1806624D01*
Y696657D01*
X1809163Y694118D01*
X1819320Y706814D02*
Y704275D01*
X1816781D01*
X1821859D01*
X1819320D01*
Y696657D01*
X1821859Y694118D01*
X1832016D02*
X1837094D01*
X1839633Y696657D01*
Y701736D01*
X1837094Y704275D01*
X1832016D01*
X1829476Y701736D01*
Y696657D01*
X1832016Y694118D01*
X1844712D02*
Y704275D01*
X1847251D01*
X1849790Y701736D01*
Y694118D01*
Y701736D01*
X1852329Y704275D01*
X1854868Y701736D01*
Y694118D01*
X1880260D02*
X1875182Y699197D01*
Y704275D01*
X1880260Y709353D01*
X1898034Y706814D02*
X1895495Y709353D01*
X1890417D01*
X1887878Y706814D01*
Y704275D01*
X1890417Y701736D01*
X1895495D01*
X1898034Y699197D01*
Y696657D01*
X1895495Y694118D01*
X1890417D01*
X1887878Y696657D01*
X1903113Y694118D02*
X1908191D01*
X1905652D01*
Y704275D01*
X1903113D01*
X1920887Y689040D02*
X1923426D01*
X1925965Y691579D01*
Y704275D01*
X1918348D01*
X1915809Y701736D01*
Y696657D01*
X1918348Y694118D01*
X1925965D01*
X1931044D02*
X1936122Y699197D01*
Y704275D01*
X1931044Y709353D01*
X1509540Y671253D02*
Y656018D01*
X1519697D01*
X1524775D02*
X1529853D01*
X1527314D01*
Y671253D01*
X1524775Y668714D01*
X1537471Y653479D02*
X1547628D01*
X1552706Y671253D02*
X1562863D01*
X1557784D01*
Y656018D01*
X1570480D02*
X1575559D01*
X1578098Y658558D01*
Y663636D01*
X1575559Y666175D01*
X1570480D01*
X1567941Y663636D01*
Y658558D01*
X1570480Y656018D01*
X1583176Y650940D02*
Y666175D01*
X1590794D01*
X1593333Y663636D01*
Y658558D01*
X1590794Y656018D01*
X1583176D01*
X1618725D02*
X1613646Y661097D01*
Y666175D01*
X1618725Y671253D01*
X1636499Y668714D02*
X1633960Y671253D01*
X1628881D01*
X1626342Y668714D01*
Y666175D01*
X1628881Y663636D01*
X1633960D01*
X1636499Y661097D01*
Y658558D01*
X1633960Y656018D01*
X1628881D01*
X1626342Y658558D01*
X1641577Y656018D02*
X1646656D01*
X1644117D01*
Y666175D01*
X1641577D01*
X1659352Y650940D02*
X1661891D01*
X1664430Y653479D01*
Y666175D01*
X1656812D01*
X1654273Y663636D01*
Y658558D01*
X1656812Y656018D01*
X1664430D01*
X1669508D02*
X1674587Y661097D01*
Y666175D01*
X1669508Y671253D01*
X1697439Y663636D02*
X1707596D01*
X1727909Y671253D02*
Y656018D01*
X1738066D01*
X1753301Y671253D02*
X1748223Y668714D01*
X1743144Y663636D01*
Y658558D01*
X1745684Y656018D01*
X1750762D01*
X1753301Y658558D01*
Y661097D01*
X1750762Y663636D01*
X1743144D01*
X1758380Y653479D02*
X1768536D01*
X1773615Y671253D02*
Y656018D01*
X1781232D01*
X1783771Y658558D01*
Y661097D01*
X1781232Y663636D01*
X1773615D01*
X1781232D01*
X1783771Y666175D01*
Y668714D01*
X1781232Y671253D01*
X1773615D01*
X1791389Y656018D02*
X1796467D01*
X1799006Y658558D01*
Y663636D01*
X1796467Y666175D01*
X1791389D01*
X1788850Y663636D01*
Y658558D01*
X1791389Y656018D01*
X1806624Y668714D02*
Y666175D01*
X1804085D01*
X1809163D01*
X1806624D01*
Y658558D01*
X1809163Y656018D01*
X1819320Y668714D02*
Y666175D01*
X1816781D01*
X1821859D01*
X1819320D01*
Y658558D01*
X1821859Y656018D01*
X1832016D02*
X1837094D01*
X1839633Y658558D01*
Y663636D01*
X1837094Y666175D01*
X1832016D01*
X1829476Y663636D01*
Y658558D01*
X1832016Y656018D01*
X1844712D02*
Y666175D01*
X1847251D01*
X1849790Y663636D01*
Y656018D01*
Y663636D01*
X1852329Y666175D01*
X1854868Y663636D01*
Y656018D01*
X1880260D02*
X1875182Y661097D01*
Y666175D01*
X1880260Y671253D01*
X1898034Y668714D02*
X1895495Y671253D01*
X1890417D01*
X1887878Y668714D01*
Y666175D01*
X1890417Y663636D01*
X1895495D01*
X1898034Y661097D01*
Y658558D01*
X1895495Y656018D01*
X1890417D01*
X1887878Y658558D01*
X1903113Y656018D02*
X1908191D01*
X1905652D01*
Y666175D01*
X1903113D01*
X1920887Y650940D02*
X1923426D01*
X1925965Y653479D01*
Y666175D01*
X1918348D01*
X1915809Y663636D01*
Y658558D01*
X1918348Y656018D01*
X1925965D01*
X1931044D02*
X1936122Y661097D01*
Y666175D01*
X1931044Y671253D01*
X1509540Y633153D02*
Y617918D01*
X1519697D01*
X1524775D02*
X1529853D01*
X1527314D01*
Y633153D01*
X1524775Y630614D01*
X1537471Y615379D02*
X1547628D01*
X1552706Y633153D02*
X1562863D01*
X1557784D01*
Y617918D01*
X1570480D02*
X1575559D01*
X1578098Y620457D01*
Y625536D01*
X1575559Y628075D01*
X1570480D01*
X1567941Y625536D01*
Y620457D01*
X1570480Y617918D01*
X1583176Y612840D02*
Y628075D01*
X1590794D01*
X1593333Y625536D01*
Y620457D01*
X1590794Y617918D01*
X1583176D01*
X1618725D02*
X1613646Y622997D01*
Y628075D01*
X1618725Y633153D01*
X1636499Y630614D02*
X1633960Y633153D01*
X1628881D01*
X1626342Y630614D01*
Y628075D01*
X1628881Y625536D01*
X1633960D01*
X1636499Y622997D01*
Y620457D01*
X1633960Y617918D01*
X1628881D01*
X1626342Y620457D01*
X1641577Y617918D02*
X1646656D01*
X1644117D01*
Y628075D01*
X1641577D01*
X1659352Y612840D02*
X1661891D01*
X1664430Y615379D01*
Y628075D01*
X1656812D01*
X1654273Y625536D01*
Y620457D01*
X1656812Y617918D01*
X1664430D01*
X1669508D02*
X1674587Y622997D01*
Y628075D01*
X1669508Y633153D01*
X1697439Y625536D02*
X1707596D01*
X1727909Y633153D02*
Y617918D01*
X1738066D01*
X1753301Y633153D02*
X1748223Y630614D01*
X1743144Y625536D01*
Y620457D01*
X1745684Y617918D01*
X1750762D01*
X1753301Y620457D01*
Y622997D01*
X1750762Y625536D01*
X1743144D01*
X1758380Y615379D02*
X1768536D01*
X1773615Y633153D02*
Y617918D01*
X1781232D01*
X1783771Y620457D01*
Y622997D01*
X1781232Y625536D01*
X1773615D01*
X1781232D01*
X1783771Y628075D01*
Y630614D01*
X1781232Y633153D01*
X1773615D01*
X1791389Y617918D02*
X1796467D01*
X1799006Y620457D01*
Y625536D01*
X1796467Y628075D01*
X1791389D01*
X1788850Y625536D01*
Y620457D01*
X1791389Y617918D01*
X1806624Y630614D02*
Y628075D01*
X1804085D01*
X1809163D01*
X1806624D01*
Y620457D01*
X1809163Y617918D01*
X1819320Y630614D02*
Y628075D01*
X1816781D01*
X1821859D01*
X1819320D01*
Y620457D01*
X1821859Y617918D01*
X1832016D02*
X1837094D01*
X1839633Y620457D01*
Y625536D01*
X1837094Y628075D01*
X1832016D01*
X1829476Y625536D01*
Y620457D01*
X1832016Y617918D01*
X1844712D02*
Y628075D01*
X1847251D01*
X1849790Y625536D01*
Y617918D01*
Y625536D01*
X1852329Y628075D01*
X1854868Y625536D01*
Y617918D01*
X1880260D02*
X1875182Y622997D01*
Y628075D01*
X1880260Y633153D01*
X1898034Y630614D02*
X1895495Y633153D01*
X1890417D01*
X1887878Y630614D01*
Y628075D01*
X1890417Y625536D01*
X1895495D01*
X1898034Y622997D01*
Y620457D01*
X1895495Y617918D01*
X1890417D01*
X1887878Y620457D01*
X1903113Y617918D02*
X1908191D01*
X1905652D01*
Y628075D01*
X1903113D01*
X1920887Y612840D02*
X1923426D01*
X1925965Y615379D01*
Y628075D01*
X1918348D01*
X1915809Y625536D01*
Y620457D01*
X1918348Y617918D01*
X1925965D01*
X1931044D02*
X1936122Y622997D01*
Y628075D01*
X1931044Y633153D01*
X1509540Y595053D02*
Y579818D01*
X1519697D01*
X1524775D02*
X1529853D01*
X1527314D01*
Y595053D01*
X1524775Y592514D01*
X1537471Y577279D02*
X1547628D01*
X1552706Y595053D02*
X1562863D01*
X1557784D01*
Y579818D01*
X1570480D02*
X1575559D01*
X1578098Y582357D01*
Y587436D01*
X1575559Y589975D01*
X1570480D01*
X1567941Y587436D01*
Y582357D01*
X1570480Y579818D01*
X1583176Y574740D02*
Y589975D01*
X1590794D01*
X1593333Y587436D01*
Y582357D01*
X1590794Y579818D01*
X1583176D01*
X1618725D02*
X1613646Y584897D01*
Y589975D01*
X1618725Y595053D01*
X1636499Y592514D02*
X1633960Y595053D01*
X1628881D01*
X1626342Y592514D01*
Y589975D01*
X1628881Y587436D01*
X1633960D01*
X1636499Y584897D01*
Y582357D01*
X1633960Y579818D01*
X1628881D01*
X1626342Y582357D01*
X1641577Y579818D02*
X1646656D01*
X1644117D01*
Y589975D01*
X1641577D01*
X1659352Y574740D02*
X1661891D01*
X1664430Y577279D01*
Y589975D01*
X1656812D01*
X1654273Y587436D01*
Y582357D01*
X1656812Y579818D01*
X1664430D01*
X1669508D02*
X1674587Y584897D01*
Y589975D01*
X1669508Y595053D01*
X1697439Y587436D02*
X1707596D01*
X1727909Y595053D02*
Y579818D01*
X1738066D01*
X1753301Y595053D02*
X1748223Y592514D01*
X1743144Y587436D01*
Y582357D01*
X1745684Y579818D01*
X1750762D01*
X1753301Y582357D01*
Y584897D01*
X1750762Y587436D01*
X1743144D01*
X1758380Y577279D02*
X1768536D01*
X1773615Y595053D02*
Y579818D01*
X1781232D01*
X1783771Y582357D01*
Y584897D01*
X1781232Y587436D01*
X1773615D01*
X1781232D01*
X1783771Y589975D01*
Y592514D01*
X1781232Y595053D01*
X1773615D01*
X1791389Y579818D02*
X1796467D01*
X1799006Y582357D01*
Y587436D01*
X1796467Y589975D01*
X1791389D01*
X1788850Y587436D01*
Y582357D01*
X1791389Y579818D01*
X1806624Y592514D02*
Y589975D01*
X1804085D01*
X1809163D01*
X1806624D01*
Y582357D01*
X1809163Y579818D01*
X1819320Y592514D02*
Y589975D01*
X1816781D01*
X1821859D01*
X1819320D01*
Y582357D01*
X1821859Y579818D01*
X1832016D02*
X1837094D01*
X1839633Y582357D01*
Y587436D01*
X1837094Y589975D01*
X1832016D01*
X1829476Y587436D01*
Y582357D01*
X1832016Y579818D01*
X1844712D02*
Y589975D01*
X1847251D01*
X1849790Y587436D01*
Y579818D01*
Y587436D01*
X1852329Y589975D01*
X1854868Y587436D01*
Y579818D01*
X1880260D02*
X1875182Y584897D01*
Y589975D01*
X1880260Y595053D01*
X1898034Y592514D02*
X1895495Y595053D01*
X1890417D01*
X1887878Y592514D01*
Y589975D01*
X1890417Y587436D01*
X1895495D01*
X1898034Y584897D01*
Y582357D01*
X1895495Y579818D01*
X1890417D01*
X1887878Y582357D01*
X1903113Y579818D02*
X1908191D01*
X1905652D01*
Y589975D01*
X1903113D01*
X1920887Y574740D02*
X1923426D01*
X1925965Y577279D01*
Y589975D01*
X1918348D01*
X1915809Y587436D01*
Y582357D01*
X1918348Y579818D01*
X1925965D01*
X1931044D02*
X1936122Y584897D01*
Y589975D01*
X1931044Y595053D01*
X1509540Y556953D02*
Y541718D01*
X1519697D01*
X1524775D02*
X1529853D01*
X1527314D01*
Y556953D01*
X1524775Y554414D01*
X1537471Y539179D02*
X1547628D01*
X1552706Y556953D02*
X1562863D01*
X1557784D01*
Y541718D01*
X1570480D02*
X1575559D01*
X1578098Y544258D01*
Y549336D01*
X1575559Y551875D01*
X1570480D01*
X1567941Y549336D01*
Y544258D01*
X1570480Y541718D01*
X1583176Y536640D02*
Y551875D01*
X1590794D01*
X1593333Y549336D01*
Y544258D01*
X1590794Y541718D01*
X1583176D01*
X1618725D02*
X1613646Y546797D01*
Y551875D01*
X1618725Y556953D01*
X1636499Y554414D02*
X1633960Y556953D01*
X1628881D01*
X1626342Y554414D01*
Y551875D01*
X1628881Y549336D01*
X1633960D01*
X1636499Y546797D01*
Y544258D01*
X1633960Y541718D01*
X1628881D01*
X1626342Y544258D01*
X1641577Y541718D02*
X1646656D01*
X1644117D01*
Y551875D01*
X1641577D01*
X1659352Y536640D02*
X1661891D01*
X1664430Y539179D01*
Y551875D01*
X1656812D01*
X1654273Y549336D01*
Y544258D01*
X1656812Y541718D01*
X1664430D01*
X1669508D02*
X1674587Y546797D01*
Y551875D01*
X1669508Y556953D01*
X1697439Y549336D02*
X1707596D01*
X1727909Y556953D02*
Y541718D01*
X1738066D01*
X1753301Y556953D02*
X1748223Y554414D01*
X1743144Y549336D01*
Y544258D01*
X1745684Y541718D01*
X1750762D01*
X1753301Y544258D01*
Y546797D01*
X1750762Y549336D01*
X1743144D01*
X1758380Y539179D02*
X1768536D01*
X1773615Y556953D02*
Y541718D01*
X1781232D01*
X1783771Y544258D01*
Y546797D01*
X1781232Y549336D01*
X1773615D01*
X1781232D01*
X1783771Y551875D01*
Y554414D01*
X1781232Y556953D01*
X1773615D01*
X1791389Y541718D02*
X1796467D01*
X1799006Y544258D01*
Y549336D01*
X1796467Y551875D01*
X1791389D01*
X1788850Y549336D01*
Y544258D01*
X1791389Y541718D01*
X1806624Y554414D02*
Y551875D01*
X1804085D01*
X1809163D01*
X1806624D01*
Y544258D01*
X1809163Y541718D01*
X1819320Y554414D02*
Y551875D01*
X1816781D01*
X1821859D01*
X1819320D01*
Y544258D01*
X1821859Y541718D01*
X1832016D02*
X1837094D01*
X1839633Y544258D01*
Y549336D01*
X1837094Y551875D01*
X1832016D01*
X1829476Y549336D01*
Y544258D01*
X1832016Y541718D01*
X1844712D02*
Y551875D01*
X1847251D01*
X1849790Y549336D01*
Y541718D01*
Y549336D01*
X1852329Y551875D01*
X1854868Y549336D01*
Y541718D01*
X1880260D02*
X1875182Y546797D01*
Y551875D01*
X1880260Y556953D01*
X1898034Y554414D02*
X1895495Y556953D01*
X1890417D01*
X1887878Y554414D01*
Y551875D01*
X1890417Y549336D01*
X1895495D01*
X1898034Y546797D01*
Y544258D01*
X1895495Y541718D01*
X1890417D01*
X1887878Y544258D01*
X1903113Y541718D02*
X1908191D01*
X1905652D01*
Y551875D01*
X1903113D01*
X1920887Y536640D02*
X1923426D01*
X1925965Y539179D01*
Y551875D01*
X1918348D01*
X1915809Y549336D01*
Y544258D01*
X1918348Y541718D01*
X1925965D01*
X1931044D02*
X1936122Y546797D01*
Y551875D01*
X1931044Y556953D01*
X1509540Y518853D02*
Y503618D01*
X1519697D01*
X1524775D02*
X1529853D01*
X1527314D01*
Y518853D01*
X1524775Y516314D01*
X1537471Y501079D02*
X1547628D01*
X1552706Y518853D02*
X1562863D01*
X1557784D01*
Y503618D01*
X1570480D02*
X1575559D01*
X1578098Y506157D01*
Y511236D01*
X1575559Y513775D01*
X1570480D01*
X1567941Y511236D01*
Y506157D01*
X1570480Y503618D01*
X1583176Y498540D02*
Y513775D01*
X1590794D01*
X1593333Y511236D01*
Y506157D01*
X1590794Y503618D01*
X1583176D01*
X1618725D02*
X1613646Y508697D01*
Y513775D01*
X1618725Y518853D01*
X1636499Y516314D02*
X1633960Y518853D01*
X1628881D01*
X1626342Y516314D01*
Y513775D01*
X1628881Y511236D01*
X1633960D01*
X1636499Y508697D01*
Y506157D01*
X1633960Y503618D01*
X1628881D01*
X1626342Y506157D01*
X1641577Y503618D02*
X1646656D01*
X1644117D01*
Y513775D01*
X1641577D01*
X1659352Y498540D02*
X1661891D01*
X1664430Y501079D01*
Y513775D01*
X1656812D01*
X1654273Y511236D01*
Y506157D01*
X1656812Y503618D01*
X1664430D01*
X1669508D02*
X1674587Y508697D01*
Y513775D01*
X1669508Y518853D01*
X1697439Y511236D02*
X1707596D01*
X1727909Y518853D02*
Y503618D01*
X1738066D01*
X1753301Y518853D02*
X1748223Y516314D01*
X1743144Y511236D01*
Y506157D01*
X1745684Y503618D01*
X1750762D01*
X1753301Y506157D01*
Y508697D01*
X1750762Y511236D01*
X1743144D01*
X1758380Y501079D02*
X1768536D01*
X1773615Y518853D02*
Y503618D01*
X1781232D01*
X1783771Y506157D01*
Y508697D01*
X1781232Y511236D01*
X1773615D01*
X1781232D01*
X1783771Y513775D01*
Y516314D01*
X1781232Y518853D01*
X1773615D01*
X1791389Y503618D02*
X1796467D01*
X1799006Y506157D01*
Y511236D01*
X1796467Y513775D01*
X1791389D01*
X1788850Y511236D01*
Y506157D01*
X1791389Y503618D01*
X1806624Y516314D02*
Y513775D01*
X1804085D01*
X1809163D01*
X1806624D01*
Y506157D01*
X1809163Y503618D01*
X1819320Y516314D02*
Y513775D01*
X1816781D01*
X1821859D01*
X1819320D01*
Y506157D01*
X1821859Y503618D01*
X1832016D02*
X1837094D01*
X1839633Y506157D01*
Y511236D01*
X1837094Y513775D01*
X1832016D01*
X1829476Y511236D01*
Y506157D01*
X1832016Y503618D01*
X1844712D02*
Y513775D01*
X1847251D01*
X1849790Y511236D01*
Y503618D01*
Y511236D01*
X1852329Y513775D01*
X1854868Y511236D01*
Y503618D01*
X1880260D02*
X1875182Y508697D01*
Y513775D01*
X1880260Y518853D01*
X1898034Y516314D02*
X1895495Y518853D01*
X1890417D01*
X1887878Y516314D01*
Y513775D01*
X1890417Y511236D01*
X1895495D01*
X1898034Y508697D01*
Y506157D01*
X1895495Y503618D01*
X1890417D01*
X1887878Y506157D01*
X1903113Y503618D02*
X1908191D01*
X1905652D01*
Y513775D01*
X1903113D01*
X1920887Y498540D02*
X1923426D01*
X1925965Y501079D01*
Y513775D01*
X1918348D01*
X1915809Y511236D01*
Y506157D01*
X1918348Y503618D01*
X1925965D01*
X1931044D02*
X1936122Y508697D01*
Y513775D01*
X1931044Y518853D01*
X1509540Y480753D02*
Y465518D01*
X1519697D01*
X1524775D02*
X1529853D01*
X1527314D01*
Y480753D01*
X1524775Y478214D01*
X1537471Y462979D02*
X1547628D01*
X1552706Y480753D02*
X1562863D01*
X1557784D01*
Y465518D01*
X1570480D02*
X1575559D01*
X1578098Y468058D01*
Y473136D01*
X1575559Y475675D01*
X1570480D01*
X1567941Y473136D01*
Y468058D01*
X1570480Y465518D01*
X1583176Y460440D02*
Y475675D01*
X1590794D01*
X1593333Y473136D01*
Y468058D01*
X1590794Y465518D01*
X1583176D01*
X1618725D02*
X1613646Y470597D01*
Y475675D01*
X1618725Y480753D01*
X1636499Y478214D02*
X1633960Y480753D01*
X1628881D01*
X1626342Y478214D01*
Y475675D01*
X1628881Y473136D01*
X1633960D01*
X1636499Y470597D01*
Y468058D01*
X1633960Y465518D01*
X1628881D01*
X1626342Y468058D01*
X1641577Y465518D02*
X1646656D01*
X1644117D01*
Y475675D01*
X1641577D01*
X1659352Y460440D02*
X1661891D01*
X1664430Y462979D01*
Y475675D01*
X1656812D01*
X1654273Y473136D01*
Y468058D01*
X1656812Y465518D01*
X1664430D01*
X1669508D02*
X1674587Y470597D01*
Y475675D01*
X1669508Y480753D01*
X1697439Y473136D02*
X1707596D01*
X1727909Y480753D02*
Y465518D01*
X1738066D01*
X1753301Y480753D02*
X1748223Y478214D01*
X1743144Y473136D01*
Y468058D01*
X1745684Y465518D01*
X1750762D01*
X1753301Y468058D01*
Y470597D01*
X1750762Y473136D01*
X1743144D01*
X1758380Y462979D02*
X1768536D01*
X1773615Y480753D02*
Y465518D01*
X1781232D01*
X1783771Y468058D01*
Y470597D01*
X1781232Y473136D01*
X1773615D01*
X1781232D01*
X1783771Y475675D01*
Y478214D01*
X1781232Y480753D01*
X1773615D01*
X1791389Y465518D02*
X1796467D01*
X1799006Y468058D01*
Y473136D01*
X1796467Y475675D01*
X1791389D01*
X1788850Y473136D01*
Y468058D01*
X1791389Y465518D01*
X1806624Y478214D02*
Y475675D01*
X1804085D01*
X1809163D01*
X1806624D01*
Y468058D01*
X1809163Y465518D01*
X1819320Y478214D02*
Y475675D01*
X1816781D01*
X1821859D01*
X1819320D01*
Y468058D01*
X1821859Y465518D01*
X1832016D02*
X1837094D01*
X1839633Y468058D01*
Y473136D01*
X1837094Y475675D01*
X1832016D01*
X1829476Y473136D01*
Y468058D01*
X1832016Y465518D01*
X1844712D02*
Y475675D01*
X1847251D01*
X1849790Y473136D01*
Y465518D01*
Y473136D01*
X1852329Y475675D01*
X1854868Y473136D01*
Y465518D01*
X1880260D02*
X1875182Y470597D01*
Y475675D01*
X1880260Y480753D01*
X1898034Y478214D02*
X1895495Y480753D01*
X1890417D01*
X1887878Y478214D01*
Y475675D01*
X1890417Y473136D01*
X1895495D01*
X1898034Y470597D01*
Y468058D01*
X1895495Y465518D01*
X1890417D01*
X1887878Y468058D01*
X1903113Y465518D02*
X1908191D01*
X1905652D01*
Y475675D01*
X1903113D01*
X1920887Y460440D02*
X1923426D01*
X1925965Y462979D01*
Y475675D01*
X1918348D01*
X1915809Y473136D01*
Y468058D01*
X1918348Y465518D01*
X1925965D01*
X1931044D02*
X1936122Y470597D01*
Y475675D01*
X1931044Y480753D01*
X1509540Y442653D02*
Y427418D01*
X1519697D01*
X1524775D02*
X1529853D01*
X1527314D01*
Y442653D01*
X1524775Y440114D01*
X1537471Y424879D02*
X1547628D01*
X1552706Y442653D02*
X1562863D01*
X1557784D01*
Y427418D01*
X1570480D02*
X1575559D01*
X1578098Y429958D01*
Y435036D01*
X1575559Y437575D01*
X1570480D01*
X1567941Y435036D01*
Y429958D01*
X1570480Y427418D01*
X1583176Y422340D02*
Y437575D01*
X1590794D01*
X1593333Y435036D01*
Y429958D01*
X1590794Y427418D01*
X1583176D01*
X1618725D02*
X1613646Y432497D01*
Y437575D01*
X1618725Y442653D01*
X1636499Y440114D02*
X1633960Y442653D01*
X1628881D01*
X1626342Y440114D01*
Y437575D01*
X1628881Y435036D01*
X1633960D01*
X1636499Y432497D01*
Y429958D01*
X1633960Y427418D01*
X1628881D01*
X1626342Y429958D01*
X1641577Y427418D02*
X1646656D01*
X1644117D01*
Y437575D01*
X1641577D01*
X1659352Y422340D02*
X1661891D01*
X1664430Y424879D01*
Y437575D01*
X1656812D01*
X1654273Y435036D01*
Y429958D01*
X1656812Y427418D01*
X1664430D01*
X1669508D02*
X1674587Y432497D01*
Y437575D01*
X1669508Y442653D01*
X1697439Y435036D02*
X1707596D01*
X1727909Y442653D02*
Y427418D01*
X1738066D01*
X1753301Y442653D02*
X1748223Y440114D01*
X1743144Y435036D01*
Y429958D01*
X1745684Y427418D01*
X1750762D01*
X1753301Y429958D01*
Y432497D01*
X1750762Y435036D01*
X1743144D01*
X1758380Y424879D02*
X1768536D01*
X1773615Y442653D02*
Y427418D01*
X1781232D01*
X1783771Y429958D01*
Y432497D01*
X1781232Y435036D01*
X1773615D01*
X1781232D01*
X1783771Y437575D01*
Y440114D01*
X1781232Y442653D01*
X1773615D01*
X1791389Y427418D02*
X1796467D01*
X1799006Y429958D01*
Y435036D01*
X1796467Y437575D01*
X1791389D01*
X1788850Y435036D01*
Y429958D01*
X1791389Y427418D01*
X1806624Y440114D02*
Y437575D01*
X1804085D01*
X1809163D01*
X1806624D01*
Y429958D01*
X1809163Y427418D01*
X1819320Y440114D02*
Y437575D01*
X1816781D01*
X1821859D01*
X1819320D01*
Y429958D01*
X1821859Y427418D01*
X1832016D02*
X1837094D01*
X1839633Y429958D01*
Y435036D01*
X1837094Y437575D01*
X1832016D01*
X1829476Y435036D01*
Y429958D01*
X1832016Y427418D01*
X1844712D02*
Y437575D01*
X1847251D01*
X1849790Y435036D01*
Y427418D01*
Y435036D01*
X1852329Y437575D01*
X1854868Y435036D01*
Y427418D01*
X1880260D02*
X1875182Y432497D01*
Y437575D01*
X1880260Y442653D01*
X1898034Y440114D02*
X1895495Y442653D01*
X1890417D01*
X1887878Y440114D01*
Y437575D01*
X1890417Y435036D01*
X1895495D01*
X1898034Y432497D01*
Y429958D01*
X1895495Y427418D01*
X1890417D01*
X1887878Y429958D01*
X1903113Y427418D02*
X1908191D01*
X1905652D01*
Y437575D01*
X1903113D01*
X1920887Y422340D02*
X1923426D01*
X1925965Y424879D01*
Y437575D01*
X1918348D01*
X1915809Y435036D01*
Y429958D01*
X1918348Y427418D01*
X1925965D01*
X1931044D02*
X1936122Y432497D01*
Y437575D01*
X1931044Y442653D01*
X1509540Y404553D02*
Y389318D01*
X1519697D01*
X1524775D02*
X1529853D01*
X1527314D01*
Y404553D01*
X1524775Y402014D01*
X1537471Y386779D02*
X1547628D01*
X1552706Y404553D02*
X1562863D01*
X1557784D01*
Y389318D01*
X1570480D02*
X1575559D01*
X1578098Y391857D01*
Y396936D01*
X1575559Y399475D01*
X1570480D01*
X1567941Y396936D01*
Y391857D01*
X1570480Y389318D01*
X1583176Y384240D02*
Y399475D01*
X1590794D01*
X1593333Y396936D01*
Y391857D01*
X1590794Y389318D01*
X1583176D01*
X1618725D02*
X1613646Y394397D01*
Y399475D01*
X1618725Y404553D01*
X1636499Y402014D02*
X1633960Y404553D01*
X1628881D01*
X1626342Y402014D01*
Y399475D01*
X1628881Y396936D01*
X1633960D01*
X1636499Y394397D01*
Y391857D01*
X1633960Y389318D01*
X1628881D01*
X1626342Y391857D01*
X1641577Y389318D02*
X1646656D01*
X1644117D01*
Y399475D01*
X1641577D01*
X1659352Y384240D02*
X1661891D01*
X1664430Y386779D01*
Y399475D01*
X1656812D01*
X1654273Y396936D01*
Y391857D01*
X1656812Y389318D01*
X1664430D01*
X1669508D02*
X1674587Y394397D01*
Y399475D01*
X1669508Y404553D01*
X1697439Y396936D02*
X1707596D01*
X1727909Y404553D02*
Y389318D01*
X1738066D01*
X1753301Y404553D02*
X1748223Y402014D01*
X1743144Y396936D01*
Y391857D01*
X1745684Y389318D01*
X1750762D01*
X1753301Y391857D01*
Y394397D01*
X1750762Y396936D01*
X1743144D01*
X1758380Y386779D02*
X1768536D01*
X1773615Y404553D02*
Y389318D01*
X1781232D01*
X1783771Y391857D01*
Y394397D01*
X1781232Y396936D01*
X1773615D01*
X1781232D01*
X1783771Y399475D01*
Y402014D01*
X1781232Y404553D01*
X1773615D01*
X1791389Y389318D02*
X1796467D01*
X1799006Y391857D01*
Y396936D01*
X1796467Y399475D01*
X1791389D01*
X1788850Y396936D01*
Y391857D01*
X1791389Y389318D01*
X1806624Y402014D02*
Y399475D01*
X1804085D01*
X1809163D01*
X1806624D01*
Y391857D01*
X1809163Y389318D01*
X1819320Y402014D02*
Y399475D01*
X1816781D01*
X1821859D01*
X1819320D01*
Y391857D01*
X1821859Y389318D01*
X1832016D02*
X1837094D01*
X1839633Y391857D01*
Y396936D01*
X1837094Y399475D01*
X1832016D01*
X1829476Y396936D01*
Y391857D01*
X1832016Y389318D01*
X1844712D02*
Y399475D01*
X1847251D01*
X1849790Y396936D01*
Y389318D01*
Y396936D01*
X1852329Y399475D01*
X1854868Y396936D01*
Y389318D01*
X1880260D02*
X1875182Y394397D01*
Y399475D01*
X1880260Y404553D01*
X1898034Y402014D02*
X1895495Y404553D01*
X1890417D01*
X1887878Y402014D01*
Y399475D01*
X1890417Y396936D01*
X1895495D01*
X1898034Y394397D01*
Y391857D01*
X1895495Y389318D01*
X1890417D01*
X1887878Y391857D01*
X1903113Y389318D02*
X1908191D01*
X1905652D01*
Y399475D01*
X1903113D01*
X1920887Y384240D02*
X1923426D01*
X1925965Y386779D01*
Y399475D01*
X1918348D01*
X1915809Y396936D01*
Y391857D01*
X1918348Y389318D01*
X1925965D01*
X1931044D02*
X1936122Y394397D01*
Y399475D01*
X1931044Y404553D01*
X1509540Y366453D02*
Y351218D01*
X1519697D01*
X1524775D02*
X1529853D01*
X1527314D01*
Y366453D01*
X1524775Y363914D01*
X1537471Y348679D02*
X1547628D01*
X1552706Y366453D02*
X1562863D01*
X1557784D01*
Y351218D01*
X1570480D02*
X1575559D01*
X1578098Y353758D01*
Y358836D01*
X1575559Y361375D01*
X1570480D01*
X1567941Y358836D01*
Y353758D01*
X1570480Y351218D01*
X1583176Y346140D02*
Y361375D01*
X1590794D01*
X1593333Y358836D01*
Y353758D01*
X1590794Y351218D01*
X1583176D01*
X1618725D02*
X1613646Y356297D01*
Y361375D01*
X1618725Y366453D01*
X1636499Y363914D02*
X1633960Y366453D01*
X1628881D01*
X1626342Y363914D01*
Y361375D01*
X1628881Y358836D01*
X1633960D01*
X1636499Y356297D01*
Y353758D01*
X1633960Y351218D01*
X1628881D01*
X1626342Y353758D01*
X1641577Y351218D02*
X1646656D01*
X1644117D01*
Y361375D01*
X1641577D01*
X1659352Y346140D02*
X1661891D01*
X1664430Y348679D01*
Y361375D01*
X1656812D01*
X1654273Y358836D01*
Y353758D01*
X1656812Y351218D01*
X1664430D01*
X1669508D02*
X1674587Y356297D01*
Y361375D01*
X1669508Y366453D01*
X1697439Y358836D02*
X1707596D01*
X1727909Y366453D02*
Y351218D01*
X1738066D01*
X1753301Y366453D02*
X1748223Y363914D01*
X1743144Y358836D01*
Y353758D01*
X1745684Y351218D01*
X1750762D01*
X1753301Y353758D01*
Y356297D01*
X1750762Y358836D01*
X1743144D01*
X1758380Y348679D02*
X1768536D01*
X1773615Y366453D02*
Y351218D01*
X1781232D01*
X1783771Y353758D01*
Y356297D01*
X1781232Y358836D01*
X1773615D01*
X1781232D01*
X1783771Y361375D01*
Y363914D01*
X1781232Y366453D01*
X1773615D01*
X1791389Y351218D02*
X1796467D01*
X1799006Y353758D01*
Y358836D01*
X1796467Y361375D01*
X1791389D01*
X1788850Y358836D01*
Y353758D01*
X1791389Y351218D01*
X1806624Y363914D02*
Y361375D01*
X1804085D01*
X1809163D01*
X1806624D01*
Y353758D01*
X1809163Y351218D01*
X1819320Y363914D02*
Y361375D01*
X1816781D01*
X1821859D01*
X1819320D01*
Y353758D01*
X1821859Y351218D01*
X1832016D02*
X1837094D01*
X1839633Y353758D01*
Y358836D01*
X1837094Y361375D01*
X1832016D01*
X1829476Y358836D01*
Y353758D01*
X1832016Y351218D01*
X1844712D02*
Y361375D01*
X1847251D01*
X1849790Y358836D01*
Y351218D01*
Y358836D01*
X1852329Y361375D01*
X1854868Y358836D01*
Y351218D01*
X1880260D02*
X1875182Y356297D01*
Y361375D01*
X1880260Y366453D01*
X1898034Y363914D02*
X1895495Y366453D01*
X1890417D01*
X1887878Y363914D01*
Y361375D01*
X1890417Y358836D01*
X1895495D01*
X1898034Y356297D01*
Y353758D01*
X1895495Y351218D01*
X1890417D01*
X1887878Y353758D01*
X1903113Y351218D02*
X1908191D01*
X1905652D01*
Y361375D01*
X1903113D01*
X1920887Y346140D02*
X1923426D01*
X1925965Y348679D01*
Y361375D01*
X1918348D01*
X1915809Y358836D01*
Y353758D01*
X1918348Y351218D01*
X1925965D01*
X1931044D02*
X1936122Y356297D01*
Y361375D01*
X1931044Y366453D01*
X1323154Y732218D02*
Y747453D01*
X1330772D01*
X1333311Y744914D01*
Y739836D01*
X1330772Y737297D01*
X1323154D01*
X1328233D02*
X1333311Y732218D01*
X1340929D02*
X1346007D01*
X1348546Y734758D01*
Y739836D01*
X1346007Y742375D01*
X1340929D01*
X1338389Y739836D01*
Y734758D01*
X1340929Y732218D01*
X1353624Y742375D02*
Y734758D01*
X1356164Y732218D01*
X1363781D01*
Y742375D01*
X1368860Y732218D02*
Y742375D01*
X1376477D01*
X1379016Y739836D01*
Y732218D01*
X1394251Y747453D02*
Y732218D01*
X1386634D01*
X1384095Y734758D01*
Y739836D01*
X1386634Y742375D01*
X1394251D01*
X1323154Y694118D02*
Y709353D01*
X1330772D01*
X1333311Y706814D01*
Y701736D01*
X1330772Y699197D01*
X1323154D01*
X1328233D02*
X1333311Y694118D01*
X1340929D02*
X1346007D01*
X1348546Y696657D01*
Y701736D01*
X1346007Y704275D01*
X1340929D01*
X1338389Y701736D01*
Y696657D01*
X1340929Y694118D01*
X1353624Y704275D02*
Y696657D01*
X1356164Y694118D01*
X1363781D01*
Y704275D01*
X1368860Y694118D02*
Y704275D01*
X1376477D01*
X1379016Y701736D01*
Y694118D01*
X1394251Y709353D02*
Y694118D01*
X1386634D01*
X1384095Y696657D01*
Y701736D01*
X1386634Y704275D01*
X1394251D01*
X1323154Y656018D02*
Y671253D01*
X1330772D01*
X1333311Y668714D01*
Y663636D01*
X1330772Y661097D01*
X1323154D01*
X1328233D02*
X1333311Y656018D01*
X1340929D02*
X1346007D01*
X1348546Y658558D01*
Y663636D01*
X1346007Y666175D01*
X1340929D01*
X1338389Y663636D01*
Y658558D01*
X1340929Y656018D01*
X1353624Y666175D02*
Y658558D01*
X1356164Y656018D01*
X1363781D01*
Y666175D01*
X1368860Y656018D02*
Y666175D01*
X1376477D01*
X1379016Y663636D01*
Y656018D01*
X1394251Y671253D02*
Y656018D01*
X1386634D01*
X1384095Y658558D01*
Y663636D01*
X1386634Y666175D01*
X1394251D01*
X1333311Y630614D02*
X1330772Y633153D01*
X1325694D01*
X1323154Y630614D01*
Y628075D01*
X1325694Y625536D01*
X1330772D01*
X1333311Y622997D01*
Y620457D01*
X1330772Y617918D01*
X1325694D01*
X1323154Y620457D01*
X1338389Y617918D02*
X1343468D01*
X1340929D01*
Y633153D01*
X1338389D01*
X1353624Y617918D02*
X1358703D01*
X1361242Y620457D01*
Y625536D01*
X1358703Y628075D01*
X1353624D01*
X1351085Y625536D01*
Y620457D01*
X1353624Y617918D01*
X1368860Y630614D02*
Y628075D01*
X1366320D01*
X1371399D01*
X1368860D01*
Y620457D01*
X1371399Y617918D01*
X1333311Y592514D02*
X1330772Y595053D01*
X1325694D01*
X1323154Y592514D01*
Y589975D01*
X1325694Y587436D01*
X1330772D01*
X1333311Y584897D01*
Y582357D01*
X1330772Y579818D01*
X1325694D01*
X1323154Y582357D01*
X1338389Y579818D02*
X1343468D01*
X1340929D01*
Y595053D01*
X1338389D01*
X1353624Y579818D02*
X1358703D01*
X1361242Y582357D01*
Y587436D01*
X1358703Y589975D01*
X1353624D01*
X1351085Y587436D01*
Y582357D01*
X1353624Y579818D01*
X1368860Y592514D02*
Y589975D01*
X1366320D01*
X1371399D01*
X1368860D01*
Y582357D01*
X1371399Y579818D01*
X1323154Y541718D02*
Y556953D01*
X1330772D01*
X1333311Y554414D01*
Y549336D01*
X1330772Y546797D01*
X1323154D01*
X1328233D02*
X1333311Y541718D01*
X1340929D02*
X1346007D01*
X1348546Y544258D01*
Y549336D01*
X1346007Y551875D01*
X1340929D01*
X1338389Y549336D01*
Y544258D01*
X1340929Y541718D01*
X1353624Y551875D02*
Y544258D01*
X1356164Y541718D01*
X1363781D01*
Y551875D01*
X1368860Y541718D02*
Y551875D01*
X1376477D01*
X1379016Y549336D01*
Y541718D01*
X1394251Y556953D02*
Y541718D01*
X1386634D01*
X1384095Y544258D01*
Y549336D01*
X1386634Y551875D01*
X1394251D01*
X1323154Y503618D02*
Y518853D01*
X1330772D01*
X1333311Y516314D01*
Y511236D01*
X1330772Y508697D01*
X1323154D01*
X1328233D02*
X1333311Y503618D01*
X1340929D02*
X1346007D01*
X1348546Y506157D01*
Y511236D01*
X1346007Y513775D01*
X1340929D01*
X1338389Y511236D01*
Y506157D01*
X1340929Y503618D01*
X1353624Y513775D02*
Y506157D01*
X1356164Y503618D01*
X1363781D01*
Y513775D01*
X1368860Y503618D02*
Y513775D01*
X1376477D01*
X1379016Y511236D01*
Y503618D01*
X1394251Y518853D02*
Y503618D01*
X1386634D01*
X1384095Y506157D01*
Y511236D01*
X1386634Y513775D01*
X1394251D01*
X1323154Y465518D02*
Y480753D01*
X1330772D01*
X1333311Y478214D01*
Y473136D01*
X1330772Y470597D01*
X1323154D01*
X1328233D02*
X1333311Y465518D01*
X1340929D02*
X1346007D01*
X1348546Y468058D01*
Y473136D01*
X1346007Y475675D01*
X1340929D01*
X1338389Y473136D01*
Y468058D01*
X1340929Y465518D01*
X1353624Y475675D02*
Y468058D01*
X1356164Y465518D01*
X1363781D01*
Y475675D01*
X1368860Y465518D02*
Y475675D01*
X1376477D01*
X1379016Y473136D01*
Y465518D01*
X1394251Y480753D02*
Y465518D01*
X1386634D01*
X1384095Y468058D01*
Y473136D01*
X1386634Y475675D01*
X1394251D01*
X1323154Y427418D02*
Y442653D01*
X1330772D01*
X1333311Y440114D01*
Y435036D01*
X1330772Y432497D01*
X1323154D01*
X1328233D02*
X1333311Y427418D01*
X1340929D02*
X1346007D01*
X1348546Y429958D01*
Y435036D01*
X1346007Y437575D01*
X1340929D01*
X1338389Y435036D01*
Y429958D01*
X1340929Y427418D01*
X1353624Y437575D02*
Y429958D01*
X1356164Y427418D01*
X1363781D01*
Y437575D01*
X1368860Y427418D02*
Y437575D01*
X1376477D01*
X1379016Y435036D01*
Y427418D01*
X1394251Y442653D02*
Y427418D01*
X1386634D01*
X1384095Y429958D01*
Y435036D01*
X1386634Y437575D01*
X1394251D01*
X1323154Y389318D02*
Y404553D01*
X1330772D01*
X1333311Y402014D01*
Y396936D01*
X1330772Y394397D01*
X1323154D01*
X1328233D02*
X1333311Y389318D01*
X1340929D02*
X1346007D01*
X1348546Y391857D01*
Y396936D01*
X1346007Y399475D01*
X1340929D01*
X1338389Y396936D01*
Y391857D01*
X1340929Y389318D01*
X1353624Y399475D02*
Y391857D01*
X1356164Y389318D01*
X1363781D01*
Y399475D01*
X1368860Y389318D02*
Y399475D01*
X1376477D01*
X1379016Y396936D01*
Y389318D01*
X1394251Y404553D02*
Y389318D01*
X1386634D01*
X1384095Y391857D01*
Y396936D01*
X1386634Y399475D01*
X1394251D01*
X1323154Y351218D02*
Y366453D01*
X1330772D01*
X1333311Y363914D01*
Y358836D01*
X1330772Y356297D01*
X1323154D01*
X1328233D02*
X1333311Y351218D01*
X1340929D02*
X1346007D01*
X1348546Y353758D01*
Y358836D01*
X1346007Y361375D01*
X1340929D01*
X1338389Y358836D01*
Y353758D01*
X1340929Y351218D01*
X1353624Y361375D02*
Y353758D01*
X1356164Y351218D01*
X1363781D01*
Y361375D01*
X1368860Y351218D02*
Y361375D01*
X1376477D01*
X1379016Y358836D01*
Y351218D01*
X1394251Y366453D02*
Y351218D01*
X1386634D01*
X1384095Y353758D01*
Y358836D01*
X1386634Y361375D01*
X1394251D01*
X1194662Y732218D02*
Y747453D01*
X1202279D01*
X1204819Y744914D01*
Y739836D01*
X1202279Y737297D01*
X1194662D01*
X1209897Y747453D02*
X1220054D01*
X1214975D01*
Y732218D01*
X1225132Y747453D02*
Y732218D01*
Y739836D01*
X1235289D01*
Y747453D01*
Y732218D01*
X1194662Y694118D02*
Y709353D01*
X1202279D01*
X1204819Y706814D01*
Y701736D01*
X1202279Y699197D01*
X1194662D01*
X1209897Y709353D02*
X1220054D01*
X1214975D01*
Y694118D01*
X1225132Y709353D02*
Y694118D01*
Y701736D01*
X1235289D01*
Y709353D01*
Y694118D01*
X1194662Y656018D02*
Y671253D01*
X1202279D01*
X1204819Y668714D01*
Y663636D01*
X1202279Y661097D01*
X1194662D01*
X1209897Y671253D02*
X1220054D01*
X1214975D01*
Y656018D01*
X1225132Y671253D02*
Y656018D01*
Y663636D01*
X1235289D01*
Y671253D01*
Y656018D01*
X1194662Y617918D02*
Y633153D01*
X1202279D01*
X1204819Y630614D01*
Y625536D01*
X1202279Y622997D01*
X1194662D01*
X1209897Y633153D02*
X1220054D01*
X1214975D01*
Y617918D01*
X1225132Y633153D02*
Y617918D01*
Y625536D01*
X1235289D01*
Y633153D01*
Y617918D01*
X1194662Y579818D02*
Y595053D01*
X1202279D01*
X1204819Y592514D01*
Y587436D01*
X1202279Y584897D01*
X1194662D01*
X1209897Y595053D02*
X1220054D01*
X1214975D01*
Y579818D01*
X1225132Y595053D02*
Y579818D01*
Y587436D01*
X1235289D01*
Y595053D01*
Y579818D01*
X1194662Y541718D02*
Y556953D01*
X1202279D01*
X1204819Y554414D01*
Y549336D01*
X1202279Y546797D01*
X1194662D01*
X1209897Y556953D02*
X1220054D01*
X1214975D01*
Y541718D01*
X1225132Y556953D02*
Y541718D01*
Y549336D01*
X1235289D01*
Y556953D01*
Y541718D01*
X1194662Y503618D02*
Y518853D01*
X1202279D01*
X1204819Y516314D01*
Y511236D01*
X1202279Y508697D01*
X1194662D01*
X1209897Y518853D02*
X1220054D01*
X1214975D01*
Y503618D01*
X1225132Y518853D02*
Y503618D01*
Y511236D01*
X1235289D01*
Y518853D01*
Y503618D01*
X1194662Y465518D02*
Y480753D01*
X1204819Y465518D01*
Y480753D01*
X1209897Y465518D02*
Y480753D01*
X1217514D01*
X1220054Y478214D01*
Y473136D01*
X1217514Y470597D01*
X1209897D01*
X1225132Y480753D02*
X1235289D01*
X1230210D01*
Y465518D01*
X1240367Y480753D02*
Y465518D01*
Y473136D01*
X1250524D01*
Y480753D01*
Y465518D01*
X1194662Y427418D02*
Y442653D01*
X1202279D01*
X1204819Y440114D01*
Y435036D01*
X1202279Y432497D01*
X1194662D01*
X1209897Y442653D02*
X1220054D01*
X1214975D01*
Y427418D01*
X1225132Y442653D02*
Y427418D01*
Y435036D01*
X1235289D01*
Y442653D01*
Y427418D01*
X1194662Y389318D02*
Y404553D01*
X1202279D01*
X1204819Y402014D01*
Y396936D01*
X1202279Y394397D01*
X1194662D01*
X1209897Y404553D02*
X1220054D01*
X1214975D01*
Y389318D01*
X1225132Y404553D02*
Y389318D01*
Y396936D01*
X1235289D01*
Y404553D01*
Y389318D01*
X1194662Y351218D02*
Y366453D01*
X1202279D01*
X1204819Y363914D01*
Y358836D01*
X1202279Y356297D01*
X1194662D01*
X1209897Y366453D02*
X1220054D01*
X1214975D01*
Y351218D01*
X1225132Y366453D02*
Y351218D01*
Y358836D01*
X1235289D01*
Y366453D01*
Y351218D01*
X915343Y744914D02*
X917882Y747453D01*
X922961D01*
X925500Y744914D01*
Y734758D01*
X922961Y732218D01*
X917882D01*
X915343Y734758D01*
Y744914D01*
X930578Y732218D02*
Y734758D01*
X933118D01*
Y732218D01*
X930578D01*
X943274Y744914D02*
X945813Y747453D01*
X950892D01*
X953431Y744914D01*
Y742375D01*
X950892Y739836D01*
X948353D01*
X950892D01*
X953431Y737297D01*
Y734758D01*
X950892Y732218D01*
X945813D01*
X943274Y734758D01*
X958509Y744914D02*
X961048Y747453D01*
X966127D01*
X968666Y744914D01*
Y734758D01*
X966127Y732218D01*
X961048D01*
X958509Y734758D01*
Y744914D01*
X973744D02*
X976283Y747453D01*
X981362D01*
X983901Y744914D01*
Y734758D01*
X981362Y732218D01*
X976283D01*
X973744Y734758D01*
Y744914D01*
X988979Y732218D02*
Y742375D01*
X991519D01*
X994058Y739836D01*
Y732218D01*
Y739836D01*
X996597Y742375D01*
X999136Y739836D01*
Y732218D01*
X1004214D02*
Y742375D01*
X1006754D01*
X1009293Y739836D01*
Y732218D01*
Y739836D01*
X1011832Y742375D01*
X1014371Y739836D01*
Y732218D01*
X1039763D02*
X1034685Y737297D01*
Y742375D01*
X1039763Y747453D01*
X1047381Y732218D02*
X1052459D01*
X1049920D01*
Y747453D01*
X1047381Y744914D01*
X1060076Y732218D02*
X1065155D01*
X1062616D01*
Y747453D01*
X1060076Y744914D01*
X1072772Y732218D02*
Y734758D01*
X1075311D01*
Y732218D01*
X1072772D01*
X1085468Y744914D02*
X1088007Y747453D01*
X1093086D01*
X1095625Y744914D01*
Y742375D01*
X1093086Y739836D01*
X1095625Y737297D01*
Y734758D01*
X1093086Y732218D01*
X1088007D01*
X1085468Y734758D01*
Y737297D01*
X1088007Y739836D01*
X1085468Y742375D01*
Y744914D01*
X1088007Y739836D02*
X1093086D01*
X1100703Y732218D02*
X1105782D01*
X1103242D01*
Y747453D01*
X1100703Y744914D01*
X1113399Y732218D02*
Y742375D01*
X1115938D01*
X1118477Y739836D01*
Y732218D01*
Y739836D01*
X1121017Y742375D01*
X1123556Y739836D01*
Y732218D01*
X1128634D02*
X1133712D01*
X1131173D01*
Y742375D01*
X1128634D01*
X1141330Y732218D02*
X1146408D01*
X1143869D01*
Y747453D01*
X1141330D01*
X1154026Y732218D02*
X1159104Y737297D01*
Y742375D01*
X1154026Y747453D01*
X915343Y706814D02*
X917882Y709353D01*
X922961D01*
X925500Y706814D01*
Y696657D01*
X922961Y694118D01*
X917882D01*
X915343Y696657D01*
Y706814D01*
X930578Y694118D02*
Y696657D01*
X933118D01*
Y694118D01*
X930578D01*
X950892D02*
Y709353D01*
X943274Y701736D01*
X953431D01*
X958509Y706814D02*
X961048Y709353D01*
X966127D01*
X968666Y706814D01*
Y696657D01*
X966127Y694118D01*
X961048D01*
X958509Y696657D01*
Y706814D01*
X973744D02*
X976283Y709353D01*
X981362D01*
X983901Y706814D01*
Y696657D01*
X981362Y694118D01*
X976283D01*
X973744Y696657D01*
Y706814D01*
X988979Y694118D02*
Y704275D01*
X991519D01*
X994058Y701736D01*
Y694118D01*
Y701736D01*
X996597Y704275D01*
X999136Y701736D01*
Y694118D01*
X1004214D02*
Y704275D01*
X1006754D01*
X1009293Y701736D01*
Y694118D01*
Y701736D01*
X1011832Y704275D01*
X1014371Y701736D01*
Y694118D01*
X1039763D02*
X1034685Y699197D01*
Y704275D01*
X1039763Y709353D01*
X1047381Y694118D02*
X1052459D01*
X1049920D01*
Y709353D01*
X1047381Y706814D01*
X1070233Y709353D02*
X1060076D01*
Y701736D01*
X1065155Y704275D01*
X1067694D01*
X1070233Y701736D01*
Y696657D01*
X1067694Y694118D01*
X1062616D01*
X1060076Y696657D01*
X1075311Y694118D02*
Y696657D01*
X1077851D01*
Y694118D01*
X1075311D01*
X1088007Y709353D02*
X1098164D01*
Y706814D01*
X1088007Y696657D01*
Y694118D01*
X1113399Y709353D02*
X1103242D01*
Y701736D01*
X1108321Y704275D01*
X1110860D01*
X1113399Y701736D01*
Y696657D01*
X1110860Y694118D01*
X1105782D01*
X1103242Y696657D01*
X1118477Y694118D02*
Y704275D01*
X1121017D01*
X1123556Y701736D01*
Y694118D01*
Y701736D01*
X1126095Y704275D01*
X1128634Y701736D01*
Y694118D01*
X1133712D02*
X1138791D01*
X1136252D01*
Y704275D01*
X1133712D01*
X1146408Y694118D02*
X1151487D01*
X1148948D01*
Y709353D01*
X1146408D01*
X1159104Y694118D02*
X1164183Y699197D01*
Y704275D01*
X1159104Y709353D01*
X915343Y668714D02*
X917882Y671253D01*
X922961D01*
X925500Y668714D01*
Y658558D01*
X922961Y656018D01*
X917882D01*
X915343Y658558D01*
Y668714D01*
X930578Y656018D02*
Y658558D01*
X933118D01*
Y656018D01*
X930578D01*
X953431Y671253D02*
X948353Y668714D01*
X943274Y663636D01*
Y658558D01*
X945813Y656018D01*
X950892D01*
X953431Y658558D01*
Y661097D01*
X950892Y663636D01*
X943274D01*
X958509Y668714D02*
X961048Y671253D01*
X966127D01*
X968666Y668714D01*
Y658558D01*
X966127Y656018D01*
X961048D01*
X958509Y658558D01*
Y668714D01*
X973744D02*
X976283Y671253D01*
X981362D01*
X983901Y668714D01*
Y658558D01*
X981362Y656018D01*
X976283D01*
X973744Y658558D01*
Y668714D01*
X988979Y656018D02*
Y666175D01*
X991519D01*
X994058Y663636D01*
Y656018D01*
Y663636D01*
X996597Y666175D01*
X999136Y663636D01*
Y656018D01*
X1004214D02*
Y666175D01*
X1006754D01*
X1009293Y663636D01*
Y656018D01*
Y663636D01*
X1011832Y666175D01*
X1014371Y663636D01*
Y656018D01*
X1039763D02*
X1034685Y661097D01*
Y666175D01*
X1039763Y671253D01*
X1057537Y656018D02*
X1047381D01*
X1057537Y666175D01*
Y668714D01*
X1054998Y671253D01*
X1049920D01*
X1047381Y668714D01*
X1062616D02*
X1065155Y671253D01*
X1070233D01*
X1072772Y668714D01*
Y666175D01*
X1070233Y663636D01*
X1067694D01*
X1070233D01*
X1072772Y661097D01*
Y658558D01*
X1070233Y656018D01*
X1065155D01*
X1062616Y658558D01*
X1077851Y656018D02*
Y658558D01*
X1080390D01*
Y656018D01*
X1077851D01*
X1100703Y671253D02*
X1095625Y668714D01*
X1090546Y663636D01*
Y658558D01*
X1093086Y656018D01*
X1098164D01*
X1100703Y658558D01*
Y661097D01*
X1098164Y663636D01*
X1090546D01*
X1115938Y656018D02*
X1105782D01*
X1115938Y666175D01*
Y668714D01*
X1113399Y671253D01*
X1108321D01*
X1105782Y668714D01*
X1121017Y656018D02*
Y666175D01*
X1123556D01*
X1126095Y663636D01*
Y656018D01*
Y663636D01*
X1128634Y666175D01*
X1131173Y663636D01*
Y656018D01*
X1136252D02*
X1141330D01*
X1138791D01*
Y666175D01*
X1136252D01*
X1148948Y656018D02*
X1154026D01*
X1151487D01*
Y671253D01*
X1148948D01*
X1161644Y656018D02*
X1166722Y661097D01*
Y666175D01*
X1161644Y671253D01*
X915343Y630614D02*
X917882Y633153D01*
X922961D01*
X925500Y630614D01*
Y620457D01*
X922961Y617918D01*
X917882D01*
X915343Y620457D01*
Y630614D01*
X930578Y617918D02*
Y620457D01*
X933118D01*
Y617918D01*
X930578D01*
X953431Y633153D02*
X948353Y630614D01*
X943274Y625536D01*
Y620457D01*
X945813Y617918D01*
X950892D01*
X953431Y620457D01*
Y622997D01*
X950892Y625536D01*
X943274D01*
X958509Y630614D02*
X961048Y633153D01*
X966127D01*
X968666Y630614D01*
Y620457D01*
X966127Y617918D01*
X961048D01*
X958509Y620457D01*
Y630614D01*
X973744D02*
X976283Y633153D01*
X981362D01*
X983901Y630614D01*
Y620457D01*
X981362Y617918D01*
X976283D01*
X973744Y620457D01*
Y630614D01*
X988979Y617918D02*
Y628075D01*
X991519D01*
X994058Y625536D01*
Y617918D01*
Y625536D01*
X996597Y628075D01*
X999136Y625536D01*
Y617918D01*
X1004214D02*
Y628075D01*
X1006754D01*
X1009293Y625536D01*
Y617918D01*
Y625536D01*
X1011832Y628075D01*
X1014371Y625536D01*
Y617918D01*
X1039763D02*
X1034685Y622997D01*
Y628075D01*
X1039763Y633153D01*
X1057537Y617918D02*
X1047381D01*
X1057537Y628075D01*
Y630614D01*
X1054998Y633153D01*
X1049920D01*
X1047381Y630614D01*
X1062616D02*
X1065155Y633153D01*
X1070233D01*
X1072772Y630614D01*
Y628075D01*
X1070233Y625536D01*
X1067694D01*
X1070233D01*
X1072772Y622997D01*
Y620457D01*
X1070233Y617918D01*
X1065155D01*
X1062616Y620457D01*
X1077851Y617918D02*
Y620457D01*
X1080390D01*
Y617918D01*
X1077851D01*
X1100703Y633153D02*
X1095625Y630614D01*
X1090546Y625536D01*
Y620457D01*
X1093086Y617918D01*
X1098164D01*
X1100703Y620457D01*
Y622997D01*
X1098164Y625536D01*
X1090546D01*
X1115938Y617918D02*
X1105782D01*
X1115938Y628075D01*
Y630614D01*
X1113399Y633153D01*
X1108321D01*
X1105782Y630614D01*
X1121017Y617918D02*
Y628075D01*
X1123556D01*
X1126095Y625536D01*
Y617918D01*
Y625536D01*
X1128634Y628075D01*
X1131173Y625536D01*
Y617918D01*
X1136252D02*
X1141330D01*
X1138791D01*
Y628075D01*
X1136252D01*
X1148948Y617918D02*
X1154026D01*
X1151487D01*
Y633153D01*
X1148948D01*
X1161644Y617918D02*
X1166722Y622997D01*
Y628075D01*
X1161644Y633153D01*
X915343Y592514D02*
X917882Y595053D01*
X922961D01*
X925500Y592514D01*
Y582357D01*
X922961Y579818D01*
X917882D01*
X915343Y582357D01*
Y592514D01*
X930578Y579818D02*
Y582357D01*
X933118D01*
Y579818D01*
X930578D01*
X953431Y595053D02*
X948353Y592514D01*
X943274Y587436D01*
Y582357D01*
X945813Y579818D01*
X950892D01*
X953431Y582357D01*
Y584897D01*
X950892Y587436D01*
X943274D01*
X958509Y592514D02*
X961048Y595053D01*
X966127D01*
X968666Y592514D01*
Y582357D01*
X966127Y579818D01*
X961048D01*
X958509Y582357D01*
Y592514D01*
X973744D02*
X976283Y595053D01*
X981362D01*
X983901Y592514D01*
Y582357D01*
X981362Y579818D01*
X976283D01*
X973744Y582357D01*
Y592514D01*
X988979Y579818D02*
Y589975D01*
X991519D01*
X994058Y587436D01*
Y579818D01*
Y587436D01*
X996597Y589975D01*
X999136Y587436D01*
Y579818D01*
X1004214D02*
Y589975D01*
X1006754D01*
X1009293Y587436D01*
Y579818D01*
Y587436D01*
X1011832Y589975D01*
X1014371Y587436D01*
Y579818D01*
X1039763D02*
X1034685Y584897D01*
Y589975D01*
X1039763Y595053D01*
X1057537Y579818D02*
X1047381D01*
X1057537Y589975D01*
Y592514D01*
X1054998Y595053D01*
X1049920D01*
X1047381Y592514D01*
X1062616D02*
X1065155Y595053D01*
X1070233D01*
X1072772Y592514D01*
Y589975D01*
X1070233Y587436D01*
X1067694D01*
X1070233D01*
X1072772Y584897D01*
Y582357D01*
X1070233Y579818D01*
X1065155D01*
X1062616Y582357D01*
X1077851Y579818D02*
Y582357D01*
X1080390D01*
Y579818D01*
X1077851D01*
X1100703Y595053D02*
X1095625Y592514D01*
X1090546Y587436D01*
Y582357D01*
X1093086Y579818D01*
X1098164D01*
X1100703Y582357D01*
Y584897D01*
X1098164Y587436D01*
X1090546D01*
X1115938Y579818D02*
X1105782D01*
X1115938Y589975D01*
Y592514D01*
X1113399Y595053D01*
X1108321D01*
X1105782Y592514D01*
X1121017Y579818D02*
Y589975D01*
X1123556D01*
X1126095Y587436D01*
Y579818D01*
Y587436D01*
X1128634Y589975D01*
X1131173Y587436D01*
Y579818D01*
X1136252D02*
X1141330D01*
X1138791D01*
Y589975D01*
X1136252D01*
X1148948Y579818D02*
X1154026D01*
X1151487D01*
Y595053D01*
X1148948D01*
X1161644Y579818D02*
X1166722Y584897D01*
Y589975D01*
X1161644Y595053D01*
X915343Y554414D02*
X917882Y556953D01*
X922961D01*
X925500Y554414D01*
Y544258D01*
X922961Y541718D01*
X917882D01*
X915343Y544258D01*
Y554414D01*
X930578Y541718D02*
Y544258D01*
X933118D01*
Y541718D01*
X930578D01*
X943274Y556953D02*
X953431D01*
Y554414D01*
X943274Y544258D01*
Y541718D01*
X968666Y556953D02*
X958509D01*
Y549336D01*
X963588Y551875D01*
X966127D01*
X968666Y549336D01*
Y544258D01*
X966127Y541718D01*
X961048D01*
X958509Y544258D01*
X973744Y554414D02*
X976283Y556953D01*
X981362D01*
X983901Y554414D01*
Y544258D01*
X981362Y541718D01*
X976283D01*
X973744Y544258D01*
Y554414D01*
X988979Y541718D02*
Y551875D01*
X991519D01*
X994058Y549336D01*
Y541718D01*
Y549336D01*
X996597Y551875D01*
X999136Y549336D01*
Y541718D01*
X1004214D02*
Y551875D01*
X1006754D01*
X1009293Y549336D01*
Y541718D01*
Y549336D01*
X1011832Y551875D01*
X1014371Y549336D01*
Y541718D01*
X1039763D02*
X1034685Y546797D01*
Y551875D01*
X1039763Y556953D01*
X1057537Y541718D02*
X1047381D01*
X1057537Y551875D01*
Y554414D01*
X1054998Y556953D01*
X1049920D01*
X1047381Y554414D01*
X1062616Y544258D02*
X1065155Y541718D01*
X1070233D01*
X1072772Y544258D01*
Y554414D01*
X1070233Y556953D01*
X1065155D01*
X1062616Y554414D01*
Y551875D01*
X1065155Y549336D01*
X1072772D01*
X1077851Y541718D02*
Y544258D01*
X1080390D01*
Y541718D01*
X1077851D01*
X1100703Y556953D02*
X1090546D01*
Y549336D01*
X1095625Y551875D01*
X1098164D01*
X1100703Y549336D01*
Y544258D01*
X1098164Y541718D01*
X1093086D01*
X1090546Y544258D01*
X1105782Y554414D02*
X1108321Y556953D01*
X1113399D01*
X1115938Y554414D01*
Y551875D01*
X1113399Y549336D01*
X1110860D01*
X1113399D01*
X1115938Y546797D01*
Y544258D01*
X1113399Y541718D01*
X1108321D01*
X1105782Y544258D01*
X1121017Y541718D02*
Y551875D01*
X1123556D01*
X1126095Y549336D01*
Y541718D01*
Y549336D01*
X1128634Y551875D01*
X1131173Y549336D01*
Y541718D01*
X1136252D02*
X1141330D01*
X1138791D01*
Y551875D01*
X1136252D01*
X1148948Y541718D02*
X1154026D01*
X1151487D01*
Y556953D01*
X1148948D01*
X1161644Y541718D02*
X1166722Y546797D01*
Y551875D01*
X1161644Y556953D01*
X915343Y516314D02*
X917882Y518853D01*
X922961D01*
X925500Y516314D01*
Y506157D01*
X922961Y503618D01*
X917882D01*
X915343Y506157D01*
Y516314D01*
X930578Y503618D02*
Y506157D01*
X933118D01*
Y503618D01*
X930578D01*
X943274Y516314D02*
X945813Y518853D01*
X950892D01*
X953431Y516314D01*
Y513775D01*
X950892Y511236D01*
X953431Y508697D01*
Y506157D01*
X950892Y503618D01*
X945813D01*
X943274Y506157D01*
Y508697D01*
X945813Y511236D01*
X943274Y513775D01*
Y516314D01*
X945813Y511236D02*
X950892D01*
X968666Y518853D02*
X958509D01*
Y511236D01*
X963588Y513775D01*
X966127D01*
X968666Y511236D01*
Y506157D01*
X966127Y503618D01*
X961048D01*
X958509Y506157D01*
X973744Y516314D02*
X976283Y518853D01*
X981362D01*
X983901Y516314D01*
Y506157D01*
X981362Y503618D01*
X976283D01*
X973744Y506157D01*
Y516314D01*
X988979Y503618D02*
Y513775D01*
X991519D01*
X994058Y511236D01*
Y503618D01*
Y511236D01*
X996597Y513775D01*
X999136Y511236D01*
Y503618D01*
X1004214D02*
Y513775D01*
X1006754D01*
X1009293Y511236D01*
Y503618D01*
Y511236D01*
X1011832Y513775D01*
X1014371Y511236D01*
Y503618D01*
X1039763D02*
X1034685Y508697D01*
Y513775D01*
X1039763Y518853D01*
X1047381Y516314D02*
X1049920Y518853D01*
X1054998D01*
X1057537Y516314D01*
Y513775D01*
X1054998Y511236D01*
X1052459D01*
X1054998D01*
X1057537Y508697D01*
Y506157D01*
X1054998Y503618D01*
X1049920D01*
X1047381Y506157D01*
X1062616Y516314D02*
X1065155Y518853D01*
X1070233D01*
X1072772Y516314D01*
Y513775D01*
X1070233Y511236D01*
X1067694D01*
X1070233D01*
X1072772Y508697D01*
Y506157D01*
X1070233Y503618D01*
X1065155D01*
X1062616Y506157D01*
X1077851Y503618D02*
Y506157D01*
X1080390D01*
Y503618D01*
X1077851D01*
X1098164D02*
Y518853D01*
X1090546Y511236D01*
X1100703D01*
X1105782Y518853D02*
X1115938D01*
Y516314D01*
X1105782Y506157D01*
Y503618D01*
X1121017D02*
Y513775D01*
X1123556D01*
X1126095Y511236D01*
Y503618D01*
Y511236D01*
X1128634Y513775D01*
X1131173Y511236D01*
Y503618D01*
X1136252D02*
X1141330D01*
X1138791D01*
Y513775D01*
X1136252D01*
X1148948Y503618D02*
X1154026D01*
X1151487D01*
Y518853D01*
X1148948D01*
X1161644Y503618D02*
X1166722Y508697D01*
Y513775D01*
X1161644Y518853D01*
X915343Y478214D02*
X917882Y480753D01*
X922961D01*
X925500Y478214D01*
Y468058D01*
X922961Y465518D01*
X917882D01*
X915343Y468058D01*
Y478214D01*
X930578Y465518D02*
Y468058D01*
X933118D01*
Y465518D01*
X930578D01*
X943274Y468058D02*
X945813Y465518D01*
X950892D01*
X953431Y468058D01*
Y478214D01*
X950892Y480753D01*
X945813D01*
X943274Y478214D01*
Y475675D01*
X945813Y473136D01*
X953431D01*
X968666Y480753D02*
X958509D01*
Y473136D01*
X963588Y475675D01*
X966127D01*
X968666Y473136D01*
Y468058D01*
X966127Y465518D01*
X961048D01*
X958509Y468058D01*
X973744Y478214D02*
X976283Y480753D01*
X981362D01*
X983901Y478214D01*
Y468058D01*
X981362Y465518D01*
X976283D01*
X973744Y468058D01*
Y478214D01*
X988979Y465518D02*
Y475675D01*
X991519D01*
X994058Y473136D01*
Y465518D01*
Y473136D01*
X996597Y475675D01*
X999136Y473136D01*
Y465518D01*
X1004214D02*
Y475675D01*
X1006754D01*
X1009293Y473136D01*
Y465518D01*
Y473136D01*
X1011832Y475675D01*
X1014371Y473136D01*
Y465518D01*
X1039763D02*
X1034685Y470597D01*
Y475675D01*
X1039763Y480753D01*
X1047381Y478214D02*
X1049920Y480753D01*
X1054998D01*
X1057537Y478214D01*
Y475675D01*
X1054998Y473136D01*
X1052459D01*
X1054998D01*
X1057537Y470597D01*
Y468058D01*
X1054998Y465518D01*
X1049920D01*
X1047381Y468058D01*
X1062616Y480753D02*
X1072772D01*
Y478214D01*
X1062616Y468058D01*
Y465518D01*
X1077851D02*
Y468058D01*
X1080390D01*
Y465518D01*
X1077851D01*
X1098164D02*
Y480753D01*
X1090546Y473136D01*
X1100703D01*
X1105782Y478214D02*
X1108321Y480753D01*
X1113399D01*
X1115938Y478214D01*
Y468058D01*
X1113399Y465518D01*
X1108321D01*
X1105782Y468058D01*
Y478214D01*
X1121017Y465518D02*
Y475675D01*
X1123556D01*
X1126095Y473136D01*
Y465518D01*
Y473136D01*
X1128634Y475675D01*
X1131173Y473136D01*
Y465518D01*
X1136252D02*
X1141330D01*
X1138791D01*
Y475675D01*
X1136252D01*
X1148948Y465518D02*
X1154026D01*
X1151487D01*
Y480753D01*
X1148948D01*
X1161644Y465518D02*
X1166722Y470597D01*
Y475675D01*
X1161644Y480753D01*
X915343Y427418D02*
X920422D01*
X917882D01*
Y442653D01*
X915343Y440114D01*
X928039Y427418D02*
Y429958D01*
X930578D01*
Y427418D01*
X928039D01*
X940735Y440114D02*
X943274Y442653D01*
X948353D01*
X950892Y440114D01*
Y429958D01*
X948353Y427418D01*
X943274D01*
X940735Y429958D01*
Y440114D01*
X955970D02*
X958509Y442653D01*
X963588D01*
X966127Y440114D01*
Y429958D01*
X963588Y427418D01*
X958509D01*
X955970Y429958D01*
Y440114D01*
X971205D02*
X973744Y442653D01*
X978823D01*
X981362Y440114D01*
Y429958D01*
X978823Y427418D01*
X973744D01*
X971205Y429958D01*
Y440114D01*
X986440Y427418D02*
Y437575D01*
X988979D01*
X991518Y435036D01*
Y427418D01*
Y435036D01*
X994058Y437575D01*
X996597Y435036D01*
Y427418D01*
X1001675D02*
Y437575D01*
X1004214D01*
X1006754Y435036D01*
Y427418D01*
Y435036D01*
X1009293Y437575D01*
X1011832Y435036D01*
Y427418D01*
X1037224D02*
X1032145Y432497D01*
Y437575D01*
X1037224Y442653D01*
X1044841Y440114D02*
X1047381Y442653D01*
X1052459D01*
X1054998Y440114D01*
Y437575D01*
X1052459Y435036D01*
X1049920D01*
X1052459D01*
X1054998Y432497D01*
Y429958D01*
X1052459Y427418D01*
X1047381D01*
X1044841Y429958D01*
X1060076D02*
X1062616Y427418D01*
X1067694D01*
X1070233Y429958D01*
Y440114D01*
X1067694Y442653D01*
X1062616D01*
X1060076Y440114D01*
Y437575D01*
X1062616Y435036D01*
X1070233D01*
X1075311Y427418D02*
Y429958D01*
X1077851D01*
Y427418D01*
X1075311D01*
X1088007Y440114D02*
X1090546Y442653D01*
X1095625D01*
X1098164Y440114D01*
Y437575D01*
X1095625Y435036D01*
X1093086D01*
X1095625D01*
X1098164Y432497D01*
Y429958D01*
X1095625Y427418D01*
X1090546D01*
X1088007Y429958D01*
X1103242Y442653D02*
X1113399D01*
Y440114D01*
X1103242Y429958D01*
Y427418D01*
X1118477D02*
Y437575D01*
X1121017D01*
X1123556Y435036D01*
Y427418D01*
Y435036D01*
X1126095Y437575D01*
X1128634Y435036D01*
Y427418D01*
X1133712D02*
X1138791D01*
X1136252D01*
Y437575D01*
X1133712D01*
X1146408Y427418D02*
X1151487D01*
X1148948D01*
Y442653D01*
X1146408D01*
X1159104Y427418D02*
X1164183Y432497D01*
Y437575D01*
X1159104Y442653D01*
X915343Y389318D02*
X920422D01*
X917882D01*
Y404553D01*
X915343Y402014D01*
X928039Y389318D02*
Y391857D01*
X930578D01*
Y389318D01*
X928039D01*
X940735Y402014D02*
X943274Y404553D01*
X948353D01*
X950892Y402014D01*
Y391857D01*
X948353Y389318D01*
X943274D01*
X940735Y391857D01*
Y402014D01*
X955970Y391857D02*
X958509Y389318D01*
X963588D01*
X966127Y391857D01*
Y402014D01*
X963588Y404553D01*
X958509D01*
X955970Y402014D01*
Y399475D01*
X958509Y396936D01*
X966127D01*
X971205Y402014D02*
X973744Y404553D01*
X978823D01*
X981362Y402014D01*
Y391857D01*
X978823Y389318D01*
X973744D01*
X971205Y391857D01*
Y402014D01*
X986440Y389318D02*
Y399475D01*
X988979D01*
X991518Y396936D01*
Y389318D01*
Y396936D01*
X994058Y399475D01*
X996597Y396936D01*
Y389318D01*
X1001675D02*
Y399475D01*
X1004214D01*
X1006754Y396936D01*
Y389318D01*
Y396936D01*
X1009293Y399475D01*
X1011832Y396936D01*
Y389318D01*
X1037224D02*
X1032145Y394397D01*
Y399475D01*
X1037224Y404553D01*
X1052459Y389318D02*
Y404553D01*
X1044841Y396936D01*
X1054998D01*
X1070233Y389318D02*
X1060076D01*
X1070233Y399475D01*
Y402014D01*
X1067694Y404553D01*
X1062616D01*
X1060076Y402014D01*
X1075311Y389318D02*
Y391857D01*
X1077851D01*
Y389318D01*
X1075311D01*
X1088007Y391857D02*
X1090546Y389318D01*
X1095625D01*
X1098164Y391857D01*
Y402014D01*
X1095625Y404553D01*
X1090546D01*
X1088007Y402014D01*
Y399475D01*
X1090546Y396936D01*
X1098164D01*
X1103242Y389318D02*
X1108321D01*
X1105782D01*
Y404553D01*
X1103242Y402014D01*
X1115938Y389318D02*
Y399475D01*
X1118477D01*
X1121017Y396936D01*
Y389318D01*
Y396936D01*
X1123556Y399475D01*
X1126095Y396936D01*
Y389318D01*
X1131173D02*
X1136252D01*
X1133712D01*
Y399475D01*
X1131173D01*
X1143869Y389318D02*
X1148948D01*
X1146408D01*
Y404553D01*
X1143869D01*
X1156565Y389318D02*
X1161644Y394397D01*
Y399475D01*
X1156565Y404553D01*
X915343Y351218D02*
X920422D01*
X917882D01*
Y366453D01*
X915343Y363914D01*
X928039Y351218D02*
Y353758D01*
X930578D01*
Y351218D01*
X928039D01*
X950892Y366453D02*
X945813Y363914D01*
X940735Y358836D01*
Y353758D01*
X943274Y351218D01*
X948353D01*
X950892Y353758D01*
Y356297D01*
X948353Y358836D01*
X940735D01*
X955970Y363914D02*
X958509Y366453D01*
X963588D01*
X966127Y363914D01*
Y353758D01*
X963588Y351218D01*
X958509D01*
X955970Y353758D01*
Y363914D01*
X971205D02*
X973744Y366453D01*
X978823D01*
X981362Y363914D01*
Y353758D01*
X978823Y351218D01*
X973744D01*
X971205Y353758D01*
Y363914D01*
X986440Y351218D02*
Y361375D01*
X988979D01*
X991518Y358836D01*
Y351218D01*
Y358836D01*
X994058Y361375D01*
X996597Y358836D01*
Y351218D01*
X1001675D02*
Y361375D01*
X1004214D01*
X1006754Y358836D01*
Y351218D01*
Y358836D01*
X1009293Y361375D01*
X1011832Y358836D01*
Y351218D01*
X1037224D02*
X1032145Y356297D01*
Y361375D01*
X1037224Y366453D01*
X1054998D02*
X1049920Y363914D01*
X1044841Y358836D01*
Y353758D01*
X1047381Y351218D01*
X1052459D01*
X1054998Y353758D01*
Y356297D01*
X1052459Y358836D01*
X1044841D01*
X1070233Y351218D02*
X1060076D01*
X1070233Y361375D01*
Y363914D01*
X1067694Y366453D01*
X1062616D01*
X1060076Y363914D01*
X1075311Y351218D02*
Y353758D01*
X1077851D01*
Y351218D01*
X1075311D01*
X1088007Y353758D02*
X1090546Y351218D01*
X1095625D01*
X1098164Y353758D01*
Y363914D01*
X1095625Y366453D01*
X1090546D01*
X1088007Y363914D01*
Y361375D01*
X1090546Y358836D01*
X1098164D01*
X1103242Y353758D02*
X1105782Y351218D01*
X1110860D01*
X1113399Y353758D01*
Y363914D01*
X1110860Y366453D01*
X1105782D01*
X1103242Y363914D01*
Y361375D01*
X1105782Y358836D01*
X1113399D01*
X1118477Y351218D02*
Y361375D01*
X1121017D01*
X1123556Y358836D01*
Y351218D01*
Y358836D01*
X1126095Y361375D01*
X1128634Y358836D01*
Y351218D01*
X1133712D02*
X1138791D01*
X1136252D01*
Y361375D01*
X1133712D01*
X1146408Y351218D02*
X1151487D01*
X1148948D01*
Y366453D01*
X1146408D01*
X1159104Y351218D02*
X1164183Y356297D01*
Y361375D01*
X1159104Y366453D01*
X762983Y325814D02*
X765523Y328353D01*
X770601D01*
X773140Y325814D01*
Y323275D01*
X770601Y320736D01*
X768062D01*
X770601D01*
X773140Y318197D01*
Y315658D01*
X770601Y313118D01*
X765523D01*
X762983Y315658D01*
X778219Y328353D02*
X788375D01*
Y325814D01*
X778219Y315658D01*
Y313118D01*
X793454Y328353D02*
X803610D01*
Y325814D01*
X793454Y315658D01*
Y313118D01*
X823924Y328353D02*
X834081D01*
X829002D01*
Y313118D01*
X841698D02*
X846776D01*
X849315Y315658D01*
Y320736D01*
X846776Y323275D01*
X841698D01*
X839159Y320736D01*
Y315658D01*
X841698Y313118D01*
X856933Y325814D02*
Y323275D01*
X854394D01*
X859472D01*
X856933D01*
Y315658D01*
X859472Y313118D01*
X869629Y323275D02*
X874707D01*
X877246Y320736D01*
Y313118D01*
X869629D01*
X867090Y315658D01*
X869629Y318197D01*
X877246D01*
X882325Y313118D02*
X887403D01*
X884864D01*
Y328353D01*
X882325D01*
X762983Y744914D02*
X765523Y747453D01*
X770601D01*
X773140Y744914D01*
Y742375D01*
X770601Y739836D01*
X768062D01*
X770601D01*
X773140Y737297D01*
Y734758D01*
X770601Y732218D01*
X765523D01*
X762983Y734758D01*
X778219Y744914D02*
X780758Y747453D01*
X785836D01*
X788375Y744914D01*
Y734758D01*
X785836Y732218D01*
X780758D01*
X778219Y734758D01*
Y744914D01*
X803610Y732218D02*
X793454D01*
X803610Y742375D01*
Y744914D01*
X801071Y747453D01*
X795993D01*
X793454Y744914D01*
X762983Y694118D02*
X768062D01*
X765523D01*
Y709353D01*
X762983Y706814D01*
X785836Y709353D02*
X780758Y706814D01*
X775679Y701736D01*
Y696657D01*
X778219Y694118D01*
X783297D01*
X785836Y696657D01*
Y699197D01*
X783297Y701736D01*
X775679D01*
X773140Y656018D02*
X762983D01*
X773140Y666175D01*
Y668714D01*
X770601Y671253D01*
X765523D01*
X762983Y668714D01*
X785836Y656018D02*
Y671253D01*
X778219Y663636D01*
X788375D01*
X773140Y617918D02*
X762983D01*
X773140Y628075D01*
Y630614D01*
X770601Y633153D01*
X765523D01*
X762983Y630614D01*
X773140Y579818D02*
X762983D01*
X773140Y589975D01*
Y592514D01*
X770601Y595053D01*
X765523D01*
X762983Y592514D01*
X770601Y541718D02*
Y556953D01*
X762983Y549336D01*
X773140D01*
Y503618D02*
X762983D01*
X773140Y513775D01*
Y516314D01*
X770601Y518853D01*
X765523D01*
X762983Y516314D01*
X773140Y465518D02*
X762983D01*
X773140Y475675D01*
Y478214D01*
X770601Y480753D01*
X765523D01*
X762983Y478214D01*
Y440114D02*
X765523Y442653D01*
X770601D01*
X773140Y440114D01*
Y437575D01*
X770601Y435036D01*
X773140Y432497D01*
Y429958D01*
X770601Y427418D01*
X765523D01*
X762983Y429958D01*
Y432497D01*
X765523Y435036D01*
X762983Y437575D01*
Y440114D01*
X765523Y435036D02*
X770601D01*
X773140Y404553D02*
X762983D01*
Y396936D01*
X768062Y399475D01*
X770601D01*
X773140Y396936D01*
Y391857D01*
X770601Y389318D01*
X765523D01*
X762983Y391857D01*
Y351218D02*
X768062D01*
X765523D01*
Y366453D01*
X762983Y363914D01*
X775679D02*
X778219Y366453D01*
X783297D01*
X785836Y363914D01*
Y353758D01*
X783297Y351218D01*
X778219D01*
X775679Y353758D01*
Y363914D01*
X1088000Y255980D02*
X1098157D01*
X1088000Y261058D02*
X1098157D01*
X1118470Y250902D02*
Y266137D01*
X1126088D01*
X1128627Y263597D01*
Y258519D01*
X1126088Y255980D01*
X1118470D01*
X1123549D02*
X1128627Y250902D01*
X1136245D02*
X1141323D01*
X1143862Y253441D01*
Y258519D01*
X1141323Y261058D01*
X1136245D01*
X1133706Y258519D01*
Y253441D01*
X1136245Y250902D01*
X1148941Y261058D02*
Y253441D01*
X1151480Y250902D01*
X1159097D01*
Y261058D01*
X1166715Y263597D02*
Y261058D01*
X1164176D01*
X1169254D01*
X1166715D01*
Y253441D01*
X1169254Y250902D01*
X1184489D02*
X1179411D01*
X1176871Y253441D01*
Y258519D01*
X1179411Y261058D01*
X1184489D01*
X1187028Y258519D01*
Y255980D01*
X1176871D01*
X1202263Y266137D02*
Y250902D01*
X1194646D01*
X1192107Y253441D01*
Y258519D01*
X1194646Y261058D01*
X1202263D01*
X1222577Y250902D02*
Y266137D01*
X1230194D01*
X1232734Y263597D01*
Y258519D01*
X1230194Y255980D01*
X1222577D01*
X1240351Y261058D02*
X1245429D01*
X1247969Y258519D01*
Y250902D01*
X1240351D01*
X1237812Y253441D01*
X1240351Y255980D01*
X1247969D01*
X1255586Y263597D02*
Y261058D01*
X1253047D01*
X1258125D01*
X1255586D01*
Y253441D01*
X1258125Y250902D01*
X1265743Y266137D02*
Y250902D01*
Y258519D01*
X1268282Y261058D01*
X1273360D01*
X1275900Y258519D01*
Y250902D01*
X1296213Y266137D02*
Y250902D01*
X1306370D01*
X1319066D02*
X1313987D01*
X1311448Y253441D01*
Y258519D01*
X1313987Y261058D01*
X1319066D01*
X1321605Y258519D01*
Y255980D01*
X1311448D01*
X1326683Y250902D02*
Y261058D01*
X1334301D01*
X1336840Y258519D01*
Y250902D01*
X1346996Y245823D02*
X1349536D01*
X1352075Y248362D01*
Y261058D01*
X1344457D01*
X1341918Y258519D01*
Y253441D01*
X1344457Y250902D01*
X1352075D01*
X1359692Y263597D02*
Y261058D01*
X1357153D01*
X1362232D01*
X1359692D01*
Y253441D01*
X1362232Y250902D01*
X1369849Y266137D02*
Y250902D01*
Y258519D01*
X1372388Y261058D01*
X1377467D01*
X1380006Y258519D01*
Y250902D01*
X1400319Y258519D02*
X1410476D01*
X1405398Y263597D02*
Y253441D01*
X1430789Y266137D02*
X1440946D01*
X1435868D01*
Y250902D01*
X1448564D02*
X1453642D01*
X1456181Y253441D01*
Y258519D01*
X1453642Y261058D01*
X1448564D01*
X1446024Y258519D01*
Y253441D01*
X1448564Y250902D01*
X1463799D02*
X1468877D01*
X1471416Y253441D01*
Y258519D01*
X1468877Y261058D01*
X1463799D01*
X1461259Y258519D01*
Y253441D01*
X1463799Y250902D01*
X1476495D02*
X1481573D01*
X1479034D01*
Y266137D01*
X1476495D01*
X1514582Y263597D02*
X1512043Y266137D01*
X1506965D01*
X1504426Y263597D01*
Y261058D01*
X1506965Y258519D01*
X1512043D01*
X1514582Y255980D01*
Y253441D01*
X1512043Y250902D01*
X1506965D01*
X1504426Y253441D01*
X1519661Y250902D02*
X1524739D01*
X1522200D01*
Y261058D01*
X1519661D01*
X1532357D02*
X1542513D01*
X1532357Y250902D01*
X1542513D01*
X1555209D02*
X1550131D01*
X1547592Y253441D01*
Y258519D01*
X1550131Y261058D01*
X1555209D01*
X1557748Y258519D01*
Y255980D01*
X1547592D01*
X1578062D02*
X1588219D01*
X1578062Y261058D02*
X1588219D01*
X1618689Y263597D02*
X1616149Y266137D01*
X1611071D01*
X1608532Y263597D01*
Y261058D01*
X1611071Y258519D01*
X1616149D01*
X1618689Y255980D01*
Y253441D01*
X1616149Y250902D01*
X1611071D01*
X1608532Y253441D01*
X1623767Y250902D02*
X1628845D01*
X1626306D01*
Y266137D01*
X1623767D01*
X1639002Y250902D02*
X1644080D01*
X1646620Y253441D01*
Y258519D01*
X1644080Y261058D01*
X1639002D01*
X1636463Y258519D01*
Y253441D01*
X1639002Y250902D01*
X1654237Y263597D02*
Y261058D01*
X1651698D01*
X1656776D01*
X1654237D01*
Y253441D01*
X1656776Y250902D01*
X1679629D02*
X1684707D01*
X1682168D01*
Y266137D01*
X1679629D01*
X1699942Y250902D02*
X1694864D01*
X1692325Y253441D01*
Y258519D01*
X1694864Y261058D01*
X1699942D01*
X1702482Y258519D01*
Y255980D01*
X1692325D01*
X1707560Y250902D02*
Y261058D01*
X1715177D01*
X1717717Y258519D01*
Y250902D01*
X1727873Y245823D02*
X1730412D01*
X1732952Y248362D01*
Y261058D01*
X1725334D01*
X1722795Y258519D01*
Y253441D01*
X1725334Y250902D01*
X1732952D01*
X1740569Y263597D02*
Y261058D01*
X1738030D01*
X1743108D01*
X1740569D01*
Y253441D01*
X1743108Y250902D01*
X1750726Y266137D02*
Y250902D01*
Y258519D01*
X1753265Y261058D01*
X1758343D01*
X1760883Y258519D01*
Y250902D01*
X1783735Y261058D02*
X1788813D01*
X1791353Y258519D01*
Y250902D01*
X1783735D01*
X1781196Y253441D01*
X1783735Y255980D01*
X1791353D01*
X1796431Y250902D02*
X1804049D01*
X1806588Y253441D01*
X1804049Y255980D01*
X1798970D01*
X1796431Y258519D01*
X1798970Y261058D01*
X1806588D01*
X1837058Y266137D02*
Y250902D01*
X1829440D01*
X1826901Y253441D01*
Y258519D01*
X1829440Y261058D01*
X1837058D01*
X1849754Y250902D02*
X1844675D01*
X1842136Y253441D01*
Y258519D01*
X1844675Y261058D01*
X1849754D01*
X1852293Y258519D01*
Y255980D01*
X1842136D01*
X1859911Y250902D02*
Y263597D01*
Y258519D01*
X1857371D01*
X1862450D01*
X1859911D01*
Y263597D01*
X1862450Y266137D01*
X1870067Y250902D02*
X1875146D01*
X1872606D01*
Y261058D01*
X1870067D01*
X1882763Y250902D02*
Y261058D01*
X1890381D01*
X1892920Y258519D01*
Y250902D01*
X1905616D02*
X1900537D01*
X1897998Y253441D01*
Y258519D01*
X1900537Y261058D01*
X1905616D01*
X1908155Y258519D01*
Y255980D01*
X1897998D01*
X1923390Y266137D02*
Y250902D01*
X1915773D01*
X1913233Y253441D01*
Y258519D01*
X1915773Y261058D01*
X1923390D01*
X1943703Y250902D02*
X1948782D01*
X1946243D01*
Y261058D01*
X1943703D01*
X1956399Y250902D02*
Y261058D01*
X1964017D01*
X1966556Y258519D01*
Y250902D01*
X1989409Y263597D02*
Y261058D01*
X1986870D01*
X1991948D01*
X1989409D01*
Y253441D01*
X1991948Y250902D01*
X1999565Y266137D02*
Y250902D01*
Y258519D01*
X2002104Y261058D01*
X2007183D01*
X2009722Y258519D01*
Y250902D01*
X2022418D02*
X2017340D01*
X2014800Y253441D01*
Y258519D01*
X2017340Y261058D01*
X2022418D01*
X2024957Y258519D01*
Y255980D01*
X2014800D01*
X2045271Y250902D02*
Y266137D01*
X2052888D01*
X2055427Y263597D01*
Y258519D01*
X2052888Y255980D01*
X2045271D01*
X2070662Y263597D02*
X2068123Y266137D01*
X2063045D01*
X2060506Y263597D01*
Y253441D01*
X2063045Y250902D01*
X2068123D01*
X2070662Y253441D01*
X2075741Y266137D02*
Y250902D01*
X2083358D01*
X2085897Y253441D01*
Y255980D01*
X2083358Y258519D01*
X2075741D01*
X2083358D01*
X2085897Y261058D01*
Y263597D01*
X2083358Y266137D01*
X2075741D01*
X2106211Y250902D02*
X2111289D01*
X2108750D01*
Y266137D01*
X2106211D01*
X2121446Y261058D02*
X2126524D01*
X2129064Y258519D01*
Y250902D01*
X2121446D01*
X2118907Y253441D01*
X2121446Y255980D01*
X2129064D01*
X2134142Y261058D02*
Y253441D01*
X2136681Y250902D01*
X2144299D01*
Y248362D01*
X2141759Y245823D01*
X2139220D01*
X2144299Y250902D02*
Y261058D01*
X2151916Y250902D02*
X2156994D01*
X2159534Y253441D01*
Y258519D01*
X2156994Y261058D01*
X2151916D01*
X2149377Y258519D01*
Y253441D01*
X2151916Y250902D01*
X2164612Y261058D02*
Y253441D01*
X2167151Y250902D01*
X2174769D01*
Y261058D01*
X2182386Y263597D02*
Y261058D01*
X2179847D01*
X2184925D01*
X2182386D01*
Y253441D01*
X2184925Y250902D01*
X1176871Y281373D02*
X1187028D01*
X1176871Y286452D02*
X1187028D01*
X1217498Y288991D02*
X1214959Y291530D01*
X1209881D01*
X1207342Y288991D01*
Y278834D01*
X1209881Y276295D01*
X1214959D01*
X1217498Y278834D01*
X1225116Y286452D02*
X1230194D01*
X1232734Y283913D01*
Y276295D01*
X1225116D01*
X1222577Y278834D01*
X1225116Y281373D01*
X1232734D01*
X1237812Y276295D02*
X1242890D01*
X1240351D01*
Y291530D01*
X1237812D01*
X1260664Y286452D02*
X1253047D01*
X1250508Y283913D01*
Y278834D01*
X1253047Y276295D01*
X1260664D01*
X1265743Y286452D02*
Y278834D01*
X1268282Y276295D01*
X1275900D01*
Y286452D01*
X1280978Y276295D02*
X1286056D01*
X1283517D01*
Y291530D01*
X1280978D01*
X1296213Y286452D02*
X1301291D01*
X1303831Y283913D01*
Y276295D01*
X1296213D01*
X1293674Y278834D01*
X1296213Y281373D01*
X1303831D01*
X1311448Y288991D02*
Y286452D01*
X1308909D01*
X1313987D01*
X1311448D01*
Y278834D01*
X1313987Y276295D01*
X1329222D02*
X1324144D01*
X1321605Y278834D01*
Y283913D01*
X1324144Y286452D01*
X1329222D01*
X1331761Y283913D01*
Y281373D01*
X1321605D01*
X1346996Y291530D02*
Y276295D01*
X1339379D01*
X1336840Y278834D01*
Y283913D01*
X1339379Y286452D01*
X1346996D01*
X1369849Y276295D02*
Y288991D01*
Y283913D01*
X1367310D01*
X1372388D01*
X1369849D01*
Y288991D01*
X1372388Y291530D01*
X1380006Y286452D02*
Y276295D01*
Y281373D01*
X1382545Y283913D01*
X1385084Y286452D01*
X1387623D01*
X1397780Y276295D02*
X1402858D01*
X1405398Y278834D01*
Y283913D01*
X1402858Y286452D01*
X1397780D01*
X1395241Y283913D01*
Y278834D01*
X1397780Y276295D01*
X1410476D02*
Y286452D01*
X1413015D01*
X1415554Y283913D01*
Y276295D01*
Y283913D01*
X1418094Y286452D01*
X1420633Y283913D01*
Y276295D01*
X1443485Y288991D02*
Y286452D01*
X1440946D01*
X1446024D01*
X1443485D01*
Y278834D01*
X1446024Y276295D01*
X1456181D02*
X1461259D01*
X1463799Y278834D01*
Y283913D01*
X1461259Y286452D01*
X1456181D01*
X1453642Y283913D01*
Y278834D01*
X1456181Y276295D01*
X1471416D02*
X1476495D01*
X1479034Y278834D01*
Y283913D01*
X1476495Y286452D01*
X1471416D01*
X1468877Y283913D01*
Y278834D01*
X1471416Y276295D01*
X1484112D02*
X1489191D01*
X1486651D01*
Y291530D01*
X1484112D01*
X1512043Y276295D02*
X1519661D01*
X1522200Y278834D01*
X1519661Y281373D01*
X1514582D01*
X1512043Y283913D01*
X1514582Y286452D01*
X1522200D01*
X1529817Y288991D02*
Y286452D01*
X1527278D01*
X1532357D01*
X1529817D01*
Y278834D01*
X1532357Y276295D01*
X1542513Y286452D02*
X1547592D01*
X1550131Y283913D01*
Y276295D01*
X1542513D01*
X1539974Y278834D01*
X1542513Y281373D01*
X1550131D01*
X1555209Y286452D02*
Y276295D01*
Y281373D01*
X1557748Y283913D01*
X1560287Y286452D01*
X1562827D01*
X1572983Y288991D02*
Y286452D01*
X1570444D01*
X1575522D01*
X1572983D01*
Y278834D01*
X1575522Y276295D01*
X1608532Y286452D02*
X1600914D01*
X1598375Y283913D01*
Y278834D01*
X1600914Y276295D01*
X1608532D01*
X1621228D02*
X1616149D01*
X1613610Y278834D01*
Y283913D01*
X1616149Y286452D01*
X1621228D01*
X1623767Y283913D01*
Y281373D01*
X1613610D01*
X1628845Y276295D02*
Y286452D01*
X1636463D01*
X1639002Y283913D01*
Y276295D01*
X1646620Y288991D02*
Y286452D01*
X1644080D01*
X1649159D01*
X1646620D01*
Y278834D01*
X1649159Y276295D01*
X1656776Y286452D02*
Y276295D01*
Y281373D01*
X1659315Y283913D01*
X1661855Y286452D01*
X1664394D01*
X1679629Y276295D02*
X1674550D01*
X1672011Y278834D01*
Y283913D01*
X1674550Y286452D01*
X1679629D01*
X1682168Y283913D01*
Y281373D01*
X1672011D01*
X1702482Y271217D02*
Y286452D01*
X1710099D01*
X1712638Y283913D01*
Y278834D01*
X1710099Y276295D01*
X1702482D01*
X1720256D02*
X1725334D01*
X1727873Y278834D01*
Y283913D01*
X1725334Y286452D01*
X1720256D01*
X1717717Y283913D01*
Y278834D01*
X1720256Y276295D01*
X1732952D02*
X1740569D01*
X1743108Y278834D01*
X1740569Y281373D01*
X1735491D01*
X1732952Y283913D01*
X1735491Y286452D01*
X1743108D01*
X1748187Y276295D02*
X1753265D01*
X1750726D01*
Y286452D01*
X1748187D01*
X1763422Y288991D02*
Y286452D01*
X1760883D01*
X1765961D01*
X1763422D01*
Y278834D01*
X1765961Y276295D01*
X1773578D02*
X1778657D01*
X1776118D01*
Y286452D01*
X1773578D01*
X1788813Y276295D02*
X1793892D01*
X1796431Y278834D01*
Y283913D01*
X1793892Y286452D01*
X1788813D01*
X1786274Y283913D01*
Y278834D01*
X1788813Y276295D01*
X1801509D02*
Y286452D01*
X1809127D01*
X1811666Y283913D01*
Y276295D01*
X1834519Y288991D02*
Y286452D01*
X1831980D01*
X1837058D01*
X1834519D01*
Y278834D01*
X1837058Y276295D01*
X1847215D02*
X1852293D01*
X1854832Y278834D01*
Y283913D01*
X1852293Y286452D01*
X1847215D01*
X1844675Y283913D01*
Y278834D01*
X1847215Y276295D01*
X1877685Y288991D02*
Y286452D01*
X1875146D01*
X1880224D01*
X1877685D01*
Y278834D01*
X1880224Y276295D01*
X1890381D02*
X1895459D01*
X1897998Y278834D01*
Y283913D01*
X1895459Y286452D01*
X1890381D01*
X1887841Y283913D01*
Y278834D01*
X1890381Y276295D01*
X1905616D02*
X1910694D01*
X1913233Y278834D01*
Y283913D01*
X1910694Y286452D01*
X1905616D01*
X1903076Y283913D01*
Y278834D01*
X1905616Y276295D01*
X1918312D02*
X1923390D01*
X1920851D01*
Y291530D01*
X1918312D01*
X1953860Y276295D02*
X1948782D01*
X1946243Y278834D01*
Y283913D01*
X1948782Y286452D01*
X1953860D01*
X1956399Y283913D01*
Y281373D01*
X1946243D01*
X1961478Y276295D02*
Y286452D01*
X1969095D01*
X1971634Y283913D01*
Y276295D01*
X1986869Y291530D02*
Y276295D01*
X1979252D01*
X1976713Y278834D01*
Y283913D01*
X1979252Y286452D01*
X1986869D01*
X2017340D02*
X2009722D01*
X2007183Y283913D01*
Y278834D01*
X2009722Y276295D01*
X2017340D01*
X2030036D02*
X2024957D01*
X2022418Y278834D01*
Y283913D01*
X2024957Y286452D01*
X2030036D01*
X2032575Y283913D01*
Y281373D01*
X2022418D01*
X2037653Y276295D02*
Y286452D01*
X2045271D01*
X2047810Y283913D01*
Y276295D01*
X2055427Y288991D02*
Y286452D01*
X2052888D01*
X2057966D01*
X2055427D01*
Y278834D01*
X2057966Y276295D01*
X2065584Y286452D02*
Y276295D01*
Y281373D01*
X2068123Y283913D01*
X2070662Y286452D01*
X2073201D01*
X2088437Y276295D02*
X2083358D01*
X2080819Y278834D01*
Y283913D01*
X2083358Y286452D01*
X2088437D01*
X2090976Y283913D01*
Y281373D01*
X2080819D01*
X2111289Y271217D02*
Y286452D01*
X2118907D01*
X2121446Y283913D01*
Y278834D01*
X2118907Y276295D01*
X2111289D01*
X2129063D02*
X2134142D01*
X2136681Y278834D01*
Y283913D01*
X2134142Y286452D01*
X2129063D01*
X2126524Y283913D01*
Y278834D01*
X2129063Y276295D01*
X2141759D02*
X2149377D01*
X2151916Y278834D01*
X2149377Y281373D01*
X2144299D01*
X2141759Y283913D01*
X2144299Y286452D01*
X2151916D01*
X2156994Y276295D02*
X2162073D01*
X2159534D01*
Y286452D01*
X2156994D01*
X2172229Y288991D02*
Y286452D01*
X2169690D01*
X2174769D01*
X2172229D01*
Y278834D01*
X2174769Y276295D01*
X2182386D02*
X2187464D01*
X2184925D01*
Y286452D01*
X2182386D01*
X2197621Y276295D02*
X2202700D01*
X2205239Y278834D01*
Y283913D01*
X2202700Y286452D01*
X2197621D01*
X2195082Y283913D01*
Y278834D01*
X2197621Y276295D01*
X2210317D02*
Y286452D01*
X2217935D01*
X2220474Y283913D01*
Y276295D01*
X2225552D02*
Y278834D01*
X2228091D01*
Y276295D01*
X2225552D01*
D110*
X611631Y758888D02*
X4174749D01*
X611631Y339788D02*
X4174749D01*
X611631Y301688D02*
X4174749D01*
Y796988D01*
X611631D02*
X4174749D01*
X611631Y301688D02*
Y796988D01*
X3818488Y301688D02*
Y796988D01*
X3541709Y301688D02*
Y796988D01*
X3202972Y301688D02*
Y796988D01*
X2864236Y301688D02*
Y796988D01*
X2647380Y301688D02*
Y796988D01*
X2291886Y301688D02*
Y796988D01*
X2102453Y301688D02*
Y796988D01*
X1952632Y301688D02*
Y796988D01*
X1498110Y301688D02*
Y796988D01*
X1311724Y301688D02*
Y796988D01*
X1183232Y301688D02*
Y796988D01*
X903913Y301688D02*
Y796988D01*
X751553Y301688D02*
Y796988D01*
D112*
X3829918Y770318D02*
Y788600D01*
X3839059D01*
X3842106Y785553D01*
Y779459D01*
X3839059Y776412D01*
X3829918D01*
X3836012D02*
X3842106Y770318D01*
X3851247D02*
X3857342D01*
X3860388Y773365D01*
Y779459D01*
X3857342Y782506D01*
X3851247D01*
X3848200Y779459D01*
Y773365D01*
X3851247Y770318D01*
X3866483Y782506D02*
Y773365D01*
X3869529Y770318D01*
X3878671D01*
Y782506D01*
X3887812Y785553D02*
Y782506D01*
X3884765D01*
X3890858D01*
X3887812D01*
Y773365D01*
X3890858Y770318D01*
X3909141D02*
X3903047D01*
X3900000Y773365D01*
Y779459D01*
X3903047Y782506D01*
X3909141D01*
X3912188Y779459D01*
Y776412D01*
X3900000D01*
X3930470Y788600D02*
Y770318D01*
X3921329D01*
X3918282Y773365D01*
Y779459D01*
X3921329Y782506D01*
X3930470D01*
X3954846Y770318D02*
Y788600D01*
X3963987D01*
X3967034Y785553D01*
Y779459D01*
X3963987Y776412D01*
X3954846D01*
X3976175Y782506D02*
X3982269D01*
X3985316Y779459D01*
Y770318D01*
X3976175D01*
X3973128Y773365D01*
X3976175Y776412D01*
X3985316D01*
X3994457Y785553D02*
Y782506D01*
X3991410D01*
X3997504D01*
X3994457D01*
Y773365D01*
X3997504Y770318D01*
X4006645Y788600D02*
Y770318D01*
Y779459D01*
X4009692Y782506D01*
X4015786D01*
X4018833Y779459D01*
Y770318D01*
X4043209Y788600D02*
Y770318D01*
X4055397D01*
X4070632D02*
X4064538D01*
X4061491Y773365D01*
Y779459D01*
X4064538Y782506D01*
X4070632D01*
X4073680Y779459D01*
Y776412D01*
X4061491D01*
X4079774Y770318D02*
Y782506D01*
X4088914D01*
X4091961Y779459D01*
Y770318D01*
X4104149Y764224D02*
X4107197D01*
X4110244Y767271D01*
Y782506D01*
X4101103D01*
X4098056Y779459D01*
Y773365D01*
X4101103Y770318D01*
X4110244D01*
X4119384Y785553D02*
Y782506D01*
X4116338D01*
X4122432D01*
X4119384D01*
Y773365D01*
X4122432Y770318D01*
X4131573Y788600D02*
Y770318D01*
Y779459D01*
X4134620Y782506D01*
X4140714D01*
X4143761Y779459D01*
Y770318D01*
X3553139Y788600D02*
Y770318D01*
Y779459D01*
X3565327D01*
Y788600D01*
Y770318D01*
X3574468D02*
X3580562D01*
X3583609Y773365D01*
Y779459D01*
X3580562Y782506D01*
X3574468D01*
X3571421Y779459D01*
Y773365D01*
X3574468Y770318D01*
X3589703D02*
X3595797D01*
X3592750D01*
Y788600D01*
X3589703D01*
X3614079Y770318D02*
X3607985D01*
X3604938Y773365D01*
Y779459D01*
X3607985Y782506D01*
X3614079D01*
X3617126Y779459D01*
Y776412D01*
X3604938D01*
X3641502Y788600D02*
Y770318D01*
X3653690D01*
X3668925D02*
X3662831D01*
X3659785Y773365D01*
Y779459D01*
X3662831Y782506D01*
X3668925D01*
X3671972Y779459D01*
Y776412D01*
X3659785D01*
X3678066Y770318D02*
Y782506D01*
X3687208D01*
X3690255Y779459D01*
Y770318D01*
X3702443Y764224D02*
X3705490D01*
X3708537Y767271D01*
Y782506D01*
X3699395D01*
X3696349Y779459D01*
Y773365D01*
X3699395Y770318D01*
X3708537D01*
X3717678Y785553D02*
Y782506D01*
X3714631D01*
X3720724D01*
X3717678D01*
Y773365D01*
X3720724Y770318D01*
X3729866Y788600D02*
Y770318D01*
Y779459D01*
X3732913Y782506D01*
X3739007D01*
X3742054Y779459D01*
Y770318D01*
X3214402Y788600D02*
Y770318D01*
Y779459D01*
X3226591D01*
Y788600D01*
Y770318D01*
X3235732D02*
X3241826D01*
X3244873Y773365D01*
Y779459D01*
X3241826Y782506D01*
X3235732D01*
X3232685Y779459D01*
Y773365D01*
X3235732Y770318D01*
X3250967D02*
X3257061D01*
X3254014D01*
Y788600D01*
X3250967D01*
X3275343Y770318D02*
X3269249D01*
X3266202Y773365D01*
Y779459D01*
X3269249Y782506D01*
X3275343D01*
X3278390Y779459D01*
Y776412D01*
X3266202D01*
X3302766Y788600D02*
X3314954D01*
X3308860D01*
Y770318D01*
X3324095D02*
X3330189D01*
X3333236Y773365D01*
Y779459D01*
X3330189Y782506D01*
X3324095D01*
X3321048Y779459D01*
Y773365D01*
X3324095Y770318D01*
X3339330D02*
X3345424D01*
X3342377D01*
Y788600D01*
X3339330D01*
X3363706Y770318D02*
X3357612D01*
X3354565Y773365D01*
Y779459D01*
X3357612Y782506D01*
X3363706D01*
X3366753Y779459D01*
Y776412D01*
X3354565D01*
X3372847Y782506D02*
Y770318D01*
Y776412D01*
X3375894Y779459D01*
X3378941Y782506D01*
X3381988D01*
X3394176D02*
X3400270D01*
X3403317Y779459D01*
Y770318D01*
X3394176D01*
X3391129Y773365D01*
X3394176Y776412D01*
X3403317D01*
X3409411Y770318D02*
Y782506D01*
X3418553D01*
X3421599Y779459D01*
Y770318D01*
X3439882Y782506D02*
X3430740D01*
X3427693Y779459D01*
Y773365D01*
X3430740Y770318D01*
X3439882D01*
X3455117D02*
X3449023D01*
X3445976Y773365D01*
Y779459D01*
X3449023Y782506D01*
X3455117D01*
X3458163Y779459D01*
Y776412D01*
X3445976D01*
X3488634Y770318D02*
X3482540Y776412D01*
Y782506D01*
X3488634Y788600D01*
X3497775Y779459D02*
X3509963D01*
X3516057Y770318D02*
X3522151Y776412D01*
Y782506D01*
X3516057Y788600D01*
X2875666D02*
Y770318D01*
Y779459D01*
X2887854D01*
Y788600D01*
Y770318D01*
X2896995D02*
X2903089D01*
X2906136Y773365D01*
Y779459D01*
X2903089Y782506D01*
X2896995D01*
X2893948Y779459D01*
Y773365D01*
X2896995Y770318D01*
X2912230D02*
X2918324D01*
X2915277D01*
Y788600D01*
X2912230D01*
X2936606Y770318D02*
X2930512D01*
X2927466Y773365D01*
Y779459D01*
X2930512Y782506D01*
X2936606D01*
X2939653Y779459D01*
Y776412D01*
X2927466D01*
X2964030Y788600D02*
X2976218D01*
X2970124D01*
Y770318D01*
X2985359D02*
X2991453D01*
X2994500Y773365D01*
Y779459D01*
X2991453Y782506D01*
X2985359D01*
X2982312Y779459D01*
Y773365D01*
X2985359Y770318D01*
X3000594D02*
X3006688D01*
X3003641D01*
Y788600D01*
X3000594D01*
X3024970Y770318D02*
X3018876D01*
X3015829Y773365D01*
Y779459D01*
X3018876Y782506D01*
X3024970D01*
X3028017Y779459D01*
Y776412D01*
X3015829D01*
X3034111Y782506D02*
Y770318D01*
Y776412D01*
X3037158Y779459D01*
X3040205Y782506D01*
X3043252D01*
X3055440D02*
X3061534D01*
X3064581Y779459D01*
Y770318D01*
X3055440D01*
X3052393Y773365D01*
X3055440Y776412D01*
X3064581D01*
X3070675Y770318D02*
Y782506D01*
X3079816D01*
X3082863Y779459D01*
Y770318D01*
X3101145Y782506D02*
X3092004D01*
X3088957Y779459D01*
Y773365D01*
X3092004Y770318D01*
X3101145D01*
X3116380D02*
X3110286D01*
X3107239Y773365D01*
Y779459D01*
X3110286Y782506D01*
X3116380D01*
X3119427Y779459D01*
Y776412D01*
X3107239D01*
X3149897Y770318D02*
X3143803Y776412D01*
Y782506D01*
X3149897Y788600D01*
X3159038Y779459D02*
X3171227D01*
X3165132Y785553D02*
Y773365D01*
X3177321Y770318D02*
X3183415Y776412D01*
Y782506D01*
X3177321Y788600D01*
X2658810D02*
Y770318D01*
X2667951D01*
X2670998Y773365D01*
Y785553D01*
X2667951Y788600D01*
X2658810D01*
X2686234Y770318D02*
X2680139D01*
X2677092Y773365D01*
Y779459D01*
X2680139Y782506D01*
X2686234D01*
X2689280Y779459D01*
Y776412D01*
X2677092D01*
X2695374Y770318D02*
X2704515D01*
X2707563Y773365D01*
X2704515Y776412D01*
X2698422D01*
X2695374Y779459D01*
X2698422Y782506D01*
X2707563D01*
X2725845D02*
X2716703D01*
X2713657Y779459D01*
Y773365D01*
X2716703Y770318D01*
X2725845D01*
X2731938Y782506D02*
Y770318D01*
Y776412D01*
X2734986Y779459D01*
X2738033Y782506D01*
X2741080D01*
X2750221Y770318D02*
X2756315D01*
X2753268D01*
Y782506D01*
X2750221D01*
X2765456Y764224D02*
Y782506D01*
X2774597D01*
X2777644Y779459D01*
Y773365D01*
X2774597Y770318D01*
X2765456D01*
X2786785Y785553D02*
Y782506D01*
X2783738D01*
X2789832D01*
X2786785D01*
Y773365D01*
X2789832Y770318D01*
X2798973D02*
X2805067D01*
X2802020D01*
Y782506D01*
X2798973D01*
X2817255Y770318D02*
X2823349D01*
X2826396Y773365D01*
Y779459D01*
X2823349Y782506D01*
X2817255D01*
X2814208Y779459D01*
Y773365D01*
X2817255Y770318D01*
X2832490D02*
Y782506D01*
X2841631D01*
X2844678Y779459D01*
Y770318D01*
X2303316Y788600D02*
X2315504D01*
X2309410D01*
Y770318D01*
X2330739D02*
X2324645D01*
X2321598Y773365D01*
Y779459D01*
X2324645Y782506D01*
X2330739D01*
X2333786Y779459D01*
Y776412D01*
X2321598D01*
X2339880Y770318D02*
Y782506D01*
X2342927D01*
X2345974Y779459D01*
Y770318D01*
Y779459D01*
X2349021Y782506D01*
X2352068Y779459D01*
Y770318D01*
X2358163Y764224D02*
Y782506D01*
X2367303D01*
X2370350Y779459D01*
Y773365D01*
X2367303Y770318D01*
X2358163D01*
X2376445D02*
X2382539D01*
X2379492D01*
Y788600D01*
X2376445D01*
X2394727Y782506D02*
X2400821D01*
X2403868Y779459D01*
Y770318D01*
X2394727D01*
X2391680Y773365D01*
X2394727Y776412D01*
X2403868D01*
X2413009Y785553D02*
Y782506D01*
X2409962D01*
X2416056D01*
X2413009D01*
Y773365D01*
X2416056Y770318D01*
X2434338D02*
X2428244D01*
X2425197Y773365D01*
Y779459D01*
X2428244Y782506D01*
X2434338D01*
X2437385Y779459D01*
Y776412D01*
X2425197D01*
X2113884Y770318D02*
Y788600D01*
X2123025D01*
X2126072Y785553D01*
Y779459D01*
X2123025Y776412D01*
X2113884D01*
X2135213Y782506D02*
X2141307D01*
X2144354Y779459D01*
Y770318D01*
X2135213D01*
X2132166Y773365D01*
X2135213Y776412D01*
X2144354D01*
X2162636Y788600D02*
Y770318D01*
X2153495D01*
X2150448Y773365D01*
Y779459D01*
X2153495Y782506D01*
X2162636D01*
X2199200Y785553D02*
X2196153Y788600D01*
X2190059D01*
X2187012Y785553D01*
Y782506D01*
X2190059Y779459D01*
X2196153D01*
X2199200Y776412D01*
Y773365D01*
X2196153Y770318D01*
X2190059D01*
X2187012Y773365D01*
X2205294Y788600D02*
Y770318D01*
Y779459D01*
X2208341Y782506D01*
X2214435D01*
X2217482Y779459D01*
Y770318D01*
X2226623Y782506D02*
X2232717D01*
X2235764Y779459D01*
Y770318D01*
X2226623D01*
X2223576Y773365D01*
X2226623Y776412D01*
X2235764D01*
X2241858Y764224D02*
Y782506D01*
X2250999D01*
X2254046Y779459D01*
Y773365D01*
X2250999Y770318D01*
X2241858D01*
X2269281D02*
X2263187D01*
X2260140Y773365D01*
Y779459D01*
X2263187Y782506D01*
X2269281D01*
X2272328Y779459D01*
Y776412D01*
X2260140D01*
X1964062Y788600D02*
Y776412D01*
X1970156Y770318D01*
X1976250Y776412D01*
Y788600D01*
X1982344Y770318D02*
X1988438D01*
X1985391D01*
Y782506D01*
X1982344D01*
X2000626D02*
X2006720D01*
X2009767Y779459D01*
Y770318D01*
X2000626D01*
X1997579Y773365D01*
X2000626Y776412D01*
X2009767D01*
X2015861Y770318D02*
X2028049Y782506D01*
X2034143Y770318D02*
Y788600D01*
X2043284D01*
X2046331Y785553D01*
Y779459D01*
X2043284Y776412D01*
X2034143D01*
X2055472Y782506D02*
X2061566D01*
X2064613Y779459D01*
Y770318D01*
X2055472D01*
X2052425Y773365D01*
X2055472Y776412D01*
X2064613D01*
X2082896Y788600D02*
Y770318D01*
X2073754D01*
X2070707Y773365D01*
Y779459D01*
X2073754Y782506D01*
X2082896D01*
X1509540Y788600D02*
Y770318D01*
X1518681D01*
X1521728Y773365D01*
Y785553D01*
X1518681Y788600D01*
X1509540D01*
X1527822Y782506D02*
Y770318D01*
Y776412D01*
X1530869Y779459D01*
X1533916Y782506D01*
X1536963D01*
X1546104Y770318D02*
X1552198D01*
X1549151D01*
Y782506D01*
X1546104D01*
X1561339Y770318D02*
X1567433D01*
X1564386D01*
Y788600D01*
X1561339D01*
X1576574Y770318D02*
X1582668D01*
X1579621D01*
Y788600D01*
X1576574D01*
X1610092D02*
Y770318D01*
X1622280D01*
X1631421Y782506D02*
X1637515D01*
X1640562Y779459D01*
Y770318D01*
X1631421D01*
X1628374Y773365D01*
X1631421Y776412D01*
X1640562D01*
X1646656Y782506D02*
Y773365D01*
X1649703Y770318D01*
X1658844D01*
Y767271D01*
X1655797Y764224D01*
X1652750D01*
X1658844Y770318D02*
Y782506D01*
X1674079Y770318D02*
X1667985D01*
X1664938Y773365D01*
Y779459D01*
X1667985Y782506D01*
X1674079D01*
X1677126Y779459D01*
Y776412D01*
X1664938D01*
X1683220Y782506D02*
Y770318D01*
Y776412D01*
X1686267Y779459D01*
X1689314Y782506D01*
X1692361D01*
X1719784Y770318D02*
Y788600D01*
X1728925D01*
X1731972Y785553D01*
Y779459D01*
X1728925Y776412D01*
X1719784D01*
X1741113Y782506D02*
X1747207D01*
X1750254Y779459D01*
Y770318D01*
X1741113D01*
X1738066Y773365D01*
X1741113Y776412D01*
X1750254D01*
X1756348Y770318D02*
X1762442D01*
X1759395D01*
Y782506D01*
X1756348D01*
X1771583D02*
Y770318D01*
Y776412D01*
X1774630Y779459D01*
X1777677Y782506D01*
X1780724D01*
X1323154Y788600D02*
Y770318D01*
Y779459D01*
X1335342D01*
Y788600D01*
Y770318D01*
X1344483D02*
X1350577D01*
X1353624Y773365D01*
Y779459D01*
X1350577Y782506D01*
X1344483D01*
X1341436Y779459D01*
Y773365D01*
X1344483Y770318D01*
X1359718D02*
X1365813D01*
X1362766D01*
Y788600D01*
X1359718D01*
X1384095Y770318D02*
X1378000D01*
X1374953Y773365D01*
Y779459D01*
X1378000Y782506D01*
X1384095D01*
X1387142Y779459D01*
Y776412D01*
X1374953D01*
X1411518Y788600D02*
X1423706D01*
X1417612D01*
Y770318D01*
X1429800Y782506D02*
Y773365D01*
X1432847Y770318D01*
X1441988D01*
Y767271D01*
X1438941Y764224D01*
X1435894D01*
X1441988Y770318D02*
Y782506D01*
X1448082Y764224D02*
Y782506D01*
X1457223D01*
X1460270Y779459D01*
Y773365D01*
X1457223Y770318D01*
X1448082D01*
X1475505D02*
X1469411D01*
X1466364Y773365D01*
Y779459D01*
X1469411Y782506D01*
X1475505D01*
X1478552Y779459D01*
Y776412D01*
X1466364D01*
X1194662Y770318D02*
Y788600D01*
X1203803D01*
X1206850Y785553D01*
Y779459D01*
X1203803Y776412D01*
X1194662D01*
X1212944Y770318D02*
X1219038D01*
X1215991D01*
Y788600D01*
X1212944D01*
X1231226Y782506D02*
X1237320D01*
X1240367Y779459D01*
Y770318D01*
X1231226D01*
X1228179Y773365D01*
X1231226Y776412D01*
X1240367D01*
X1249508Y785553D02*
Y782506D01*
X1246461D01*
X1252555D01*
X1249508D01*
Y773365D01*
X1252555Y770318D01*
X1270837D02*
X1264743D01*
X1261696Y773365D01*
Y779459D01*
X1264743Y782506D01*
X1270837D01*
X1273884Y779459D01*
Y776412D01*
X1261696D01*
X1292166Y788600D02*
Y770318D01*
X1283025D01*
X1279978Y773365D01*
Y779459D01*
X1283025Y782506D01*
X1292166D01*
X915343Y788600D02*
Y770318D01*
Y779459D01*
X927531D01*
Y788600D01*
Y770318D01*
X936672D02*
X942766D01*
X945813Y773365D01*
Y779459D01*
X942766Y782506D01*
X936672D01*
X933625Y779459D01*
Y773365D01*
X936672Y770318D01*
X951907D02*
X958001D01*
X954954D01*
Y788600D01*
X951907D01*
X976283Y770318D02*
X970189D01*
X967142Y773365D01*
Y779459D01*
X970189Y782506D01*
X976283D01*
X979331Y779459D01*
Y776412D01*
X967142D01*
X1015895Y785553D02*
X1012848Y788600D01*
X1006754D01*
X1003707Y785553D01*
Y782506D01*
X1006754Y779459D01*
X1012848D01*
X1015895Y776412D01*
Y773365D01*
X1012848Y770318D01*
X1006754D01*
X1003707Y773365D01*
X1021989Y770318D02*
X1028083D01*
X1025036D01*
Y782506D01*
X1021989D01*
X1037224D02*
X1049412D01*
X1037224Y770318D01*
X1049412D01*
X1064647D02*
X1058553D01*
X1055506Y773365D01*
Y779459D01*
X1058553Y782506D01*
X1064647D01*
X1067694Y779459D01*
Y776412D01*
X1055506D01*
X775172Y785553D02*
X772124Y788600D01*
X766031D01*
X762983Y785553D01*
Y773365D01*
X766031Y770318D01*
X772124D01*
X775172Y773365D01*
X784313Y770318D02*
X790407D01*
X793454Y773365D01*
Y779459D01*
X790407Y782506D01*
X784313D01*
X781265Y779459D01*
Y773365D01*
X784313Y770318D01*
X799548Y782506D02*
Y773365D01*
X802595Y770318D01*
X811736D01*
Y782506D01*
X817830Y770318D02*
Y782506D01*
X826971D01*
X830018Y779459D01*
Y770318D01*
X839159Y785553D02*
Y782506D01*
X836112D01*
X842206D01*
X839159D01*
Y773365D01*
X842206Y770318D01*
X646679Y785553D02*
X643632Y788600D01*
X637538D01*
X634491Y785553D01*
Y782506D01*
X637538Y779459D01*
X643632D01*
X646679Y776412D01*
Y773365D01*
X643632Y770318D01*
X637538D01*
X634491Y773365D01*
X652773Y782506D02*
Y773365D01*
X655820Y770318D01*
X664961D01*
Y767271D01*
X661914Y764224D01*
X658867D01*
X664961Y770318D02*
Y782506D01*
X671055Y770318D02*
Y782506D01*
X674102D01*
X677149Y779459D01*
Y770318D01*
Y779459D01*
X680196Y782506D01*
X683243Y779459D01*
Y770318D01*
X689337Y788600D02*
Y770318D01*
X698478D01*
X701525Y773365D01*
Y776412D01*
Y779459D01*
X698478Y782506D01*
X689337D01*
X710666Y770318D02*
X716760D01*
X719807Y773365D01*
Y779459D01*
X716760Y782506D01*
X710666D01*
X707619Y779459D01*
Y773365D01*
X710666Y770318D01*
X725901D02*
X731995D01*
X728949D01*
Y788600D01*
X725901D01*
D113*
X896794Y266137D02*
Y250902D01*
Y258519D01*
X906951D01*
Y266137D01*
Y250902D01*
X914568D02*
X919647D01*
X922186Y253441D01*
Y258519D01*
X919647Y261058D01*
X914568D01*
X912029Y258519D01*
Y253441D01*
X914568Y250902D01*
X927264D02*
X932343D01*
X929803D01*
Y266137D01*
X927264D01*
X947578Y250902D02*
X942499D01*
X939960Y253441D01*
Y258519D01*
X942499Y261058D01*
X947578D01*
X950117Y258519D01*
Y255980D01*
X939960D01*
X970430Y266137D02*
Y250902D01*
X980587D01*
X993283D02*
X988205D01*
X985665Y253441D01*
Y258519D01*
X988205Y261058D01*
X993283D01*
X995822Y258519D01*
Y255980D01*
X985665D01*
X1000900Y250902D02*
Y261058D01*
X1008518D01*
X1011057Y258519D01*
Y250902D01*
X1021214Y245823D02*
X1023753D01*
X1026292Y248362D01*
Y261058D01*
X1018675D01*
X1016135Y258519D01*
Y253441D01*
X1018675Y250902D01*
X1026292D01*
X1033910Y263597D02*
Y261058D01*
X1031371D01*
X1036449D01*
X1033910D01*
Y253441D01*
X1036449Y250902D01*
X1044066Y266137D02*
Y250902D01*
Y258519D01*
X1046606Y261058D01*
X1051684D01*
X1054223Y258519D01*
Y250902D01*
X896794Y276295D02*
Y291530D01*
X904412D01*
X906951Y288991D01*
Y283913D01*
X904412Y281373D01*
X896794D01*
X901872D02*
X906951Y276295D01*
X914568D02*
X919647D01*
X922186Y278834D01*
Y283913D01*
X919647Y286452D01*
X914568D01*
X912029Y283913D01*
Y278834D01*
X914568Y276295D01*
X927264Y286452D02*
Y278834D01*
X929803Y276295D01*
X937421D01*
Y286452D01*
X945039Y288991D02*
Y286452D01*
X942499D01*
X947578D01*
X945039D01*
Y278834D01*
X947578Y276295D01*
X962813D02*
X957734D01*
X955195Y278834D01*
Y283913D01*
X957734Y286452D01*
X962813D01*
X965352Y283913D01*
Y281373D01*
X955195D01*
X980587Y291530D02*
Y276295D01*
X972970D01*
X970430Y278834D01*
Y283913D01*
X972970Y286452D01*
X980587D01*
X1000900Y276295D02*
Y291530D01*
X1008518D01*
X1011057Y288991D01*
Y283913D01*
X1008518Y281373D01*
X1000900D01*
X1018675Y286452D02*
X1023753D01*
X1026292Y283913D01*
Y276295D01*
X1018675D01*
X1016135Y278834D01*
X1018675Y281373D01*
X1026292D01*
X1033910Y288991D02*
Y286452D01*
X1031371D01*
X1036449D01*
X1033910D01*
Y278834D01*
X1036449Y276295D01*
X1044066Y291530D02*
Y276295D01*
Y283913D01*
X1046606Y286452D01*
X1051684D01*
X1054223Y283913D01*
Y276295D01*
X1074537Y291530D02*
Y276295D01*
X1084693D01*
X1097389D02*
X1092311D01*
X1089772Y278834D01*
Y283913D01*
X1092311Y286452D01*
X1097389D01*
X1099928Y283913D01*
Y281373D01*
X1089772D01*
X1105007Y276295D02*
Y286452D01*
X1112624D01*
X1115163Y283913D01*
Y276295D01*
X1125320Y271217D02*
X1127859D01*
X1130399Y273756D01*
Y286452D01*
X1122781D01*
X1120242Y283913D01*
Y278834D01*
X1122781Y276295D01*
X1130399D01*
X1138016Y288991D02*
Y286452D01*
X1135477D01*
X1140555D01*
X1138016D01*
Y278834D01*
X1140555Y276295D01*
X1148173Y291530D02*
Y276295D01*
Y283913D01*
X1150712Y286452D01*
X1155790D01*
X1158329Y283913D01*
Y276295D01*
X644648Y288991D02*
X642109Y291530D01*
X637030D01*
X634491Y288991D01*
Y286452D01*
X637030Y283913D01*
X642109D01*
X644648Y281373D01*
Y278834D01*
X642109Y276295D01*
X637030D01*
X634491Y278834D01*
X649726Y276295D02*
X654805D01*
X652265D01*
Y291530D01*
X649726D01*
X664961Y276295D02*
X670040D01*
X672579Y278834D01*
Y283913D01*
X670040Y286452D01*
X664961D01*
X662422Y283913D01*
Y278834D01*
X664961Y276295D01*
X680196Y288991D02*
Y286452D01*
X677657D01*
X682735D01*
X680196D01*
Y278834D01*
X682735Y276295D01*
X715745Y291530D02*
Y276295D01*
X708127D01*
X705588Y278834D01*
Y283913D01*
X708127Y286452D01*
X715745D01*
X728441Y276295D02*
X723362D01*
X720823Y278834D01*
Y283913D01*
X723362Y286452D01*
X728441D01*
X730980Y283913D01*
Y281373D01*
X720823D01*
X738597Y276295D02*
Y288991D01*
Y283913D01*
X736058D01*
X741136D01*
X738597D01*
Y288991D01*
X741136Y291530D01*
X748754Y276295D02*
X753832D01*
X751293D01*
Y286452D01*
X748754D01*
X761450Y276295D02*
Y286452D01*
X769068D01*
X771607Y283913D01*
Y276295D01*
X776685D02*
X781763D01*
X779224D01*
Y286452D01*
X776685D01*
X791920Y288991D02*
Y286452D01*
X789381D01*
X794459D01*
X791920D01*
Y278834D01*
X794459Y276295D01*
X802077D02*
X807155D01*
X804616D01*
Y286452D01*
X802077D01*
X817312Y276295D02*
X822390D01*
X824929Y278834D01*
Y283913D01*
X822390Y286452D01*
X817312D01*
X814773Y283913D01*
Y278834D01*
X817312Y276295D01*
X830008D02*
Y286452D01*
X837625D01*
X840164Y283913D01*
Y276295D01*
X845243D02*
X852860D01*
X855399Y278834D01*
X852860Y281373D01*
X847782D01*
X845243Y283913D01*
X847782Y286452D01*
X855399D01*
X875713D02*
X878252D01*
Y283913D01*
X875713D01*
Y286452D01*
Y278834D02*
X878252D01*
Y276295D01*
X875713D01*
Y278834D01*
M02*
