G04*
G04 #@! TF.GenerationSoftware,Altium Limited,Altium Designer,25.3.3 (18)*
G04*
G04 Layer_Physical_Order=4*
G04 Layer_Color=6736896*
%FSLAX44Y44*%
%MOMM*%
G71*
G04*
G04 #@! TF.SameCoordinates,E74E417C-EFC3-4B03-BFDF-08B39AB8E956*
G04*
G04*
G04 #@! TF.FilePolarity,Positive*
G04*
G01*
G75*
%ADD14C,0.2000*%
%ADD84C,0.6000*%
%ADD87C,1.2000*%
%ADD88C,1.0000*%
%ADD93C,0.4000*%
%ADD95C,0.6000*%
%ADD96C,0.9500*%
%ADD97C,2.0000*%
%ADD98R,2.0000X2.0000*%
%ADD99C,0.6500*%
%ADD101O,2.4000X0.9000*%
%ADD102O,1.7000X0.9000*%
%ADD103C,0.5000*%
%ADD104C,1.6350*%
%ADD105R,1.6350X1.6350*%
%ADD107C,1.5080*%
%ADD108C,1.2800*%
%ADD109C,0.7000*%
G36*
X20003Y844902D02*
X20145Y844902D01*
X333791D01*
X334000Y781000D01*
X334155Y780845D01*
X496902D01*
Y756593D01*
X495632Y756426D01*
X495455Y757088D01*
X494402Y758912D01*
X492912Y760402D01*
X491088Y761455D01*
X489053Y762000D01*
X486947D01*
X484912Y761455D01*
X483088Y760402D01*
X481598Y758912D01*
X480545Y757088D01*
X480000Y755053D01*
Y752947D01*
X480545Y750912D01*
X481598Y749088D01*
X483088Y747598D01*
X484912Y746545D01*
X486947Y746000D01*
X489053D01*
X491088Y746545D01*
X492912Y747598D01*
X494402Y749088D01*
X495455Y750912D01*
X495632Y751574D01*
X496902Y751407D01*
Y736592D01*
X495632Y736425D01*
X495454Y737088D01*
X494401Y738912D01*
X492912Y740402D01*
X491088Y741455D01*
X489053Y742000D01*
X486946D01*
X484912Y741455D01*
X483088Y740402D01*
X481598Y738912D01*
X480545Y737088D01*
X480000Y735053D01*
Y732947D01*
X480545Y730912D01*
X481598Y729088D01*
X483088Y727598D01*
X484912Y726545D01*
X486946Y726000D01*
X489053D01*
X491088Y726545D01*
X492912Y727598D01*
X494401Y729088D01*
X495454Y730912D01*
X495632Y731575D01*
X496902Y731408D01*
X496902Y675593D01*
X495632Y675426D01*
X495455Y676088D01*
X494402Y677912D01*
X492912Y679402D01*
X491088Y680455D01*
X489053Y681000D01*
X486947D01*
X484912Y680455D01*
X483088Y679402D01*
X481598Y677912D01*
X480545Y676088D01*
X480000Y674053D01*
Y671947D01*
X480545Y669912D01*
X481598Y668088D01*
X483088Y666598D01*
X484912Y665545D01*
X486947Y665000D01*
X489053D01*
X491088Y665545D01*
X492912Y666598D01*
X494402Y668088D01*
X495455Y669912D01*
X495632Y670574D01*
X496902Y670407D01*
X496903Y10000D01*
Y8532D01*
X496330Y5653D01*
X495206Y2941D01*
X493576Y500D01*
X491500Y-1575D01*
X489059Y-3206D01*
X486347Y-4329D01*
X483468Y-4902D01*
X482063Y-4902D01*
X20319Y-4902D01*
X20317Y-4902D01*
X20315Y-4902D01*
X19996Y-4902D01*
X18532D01*
X15653Y-4330D01*
X12941Y-3206D01*
X10500Y-1575D01*
X8425Y500D01*
X6794Y2941D01*
X5670Y5653D01*
X5098Y8532D01*
X5098Y10000D01*
X5098Y830000D01*
Y831468D01*
X5671Y834347D01*
X6794Y837059D01*
X8425Y839500D01*
X10500Y841575D01*
X12941Y843206D01*
X15653Y844330D01*
X18532Y844902D01*
X20000Y844902D01*
X20001Y844902D01*
X20003Y844902D01*
D02*
G37*
%LPC*%
G36*
X259445Y811370D02*
X257667D01*
X255951Y810910D01*
X254411Y810021D01*
X253155Y808764D01*
X252266Y807225D01*
X251806Y805508D01*
Y803731D01*
X252266Y802014D01*
X253155Y800475D01*
X254411Y799219D01*
X255951Y798330D01*
X257667Y797870D01*
X259445D01*
X261161Y798330D01*
X262701Y799219D01*
X263957Y800475D01*
X264846Y802014D01*
X265306Y803731D01*
Y805508D01*
X264846Y807225D01*
X263957Y808764D01*
X262701Y810021D01*
X261161Y810910D01*
X259445Y811370D01*
D02*
G37*
G36*
X191445D02*
X189667D01*
X187951Y810910D01*
X186411Y810021D01*
X185155Y808764D01*
X184266Y807225D01*
X183806Y805508D01*
Y803731D01*
X184266Y802014D01*
X185155Y800475D01*
X186411Y799219D01*
X187951Y798330D01*
X189667Y797870D01*
X191445D01*
X193161Y798330D01*
X194701Y799219D01*
X195957Y800475D01*
X196846Y802014D01*
X197306Y803731D01*
Y805508D01*
X196846Y807225D01*
X195957Y808764D01*
X194701Y810021D01*
X193161Y810910D01*
X191445Y811370D01*
D02*
G37*
G36*
X322995Y776800D02*
X321005D01*
X319168Y776039D01*
X317761Y774632D01*
X317000Y772794D01*
Y770805D01*
X317761Y768968D01*
X319168Y767561D01*
X321005Y766800D01*
X322995D01*
X324832Y767561D01*
X326239Y768968D01*
X327000Y770805D01*
Y772794D01*
X326239Y774632D01*
X324832Y776039D01*
X322995Y776800D01*
D02*
G37*
G36*
Y761100D02*
X321005D01*
X319168Y760339D01*
X317761Y758932D01*
X317000Y757095D01*
Y755105D01*
X317761Y753268D01*
X319168Y751861D01*
X321005Y751100D01*
X322995D01*
X324832Y751861D01*
X326239Y753268D01*
X327000Y755105D01*
Y757095D01*
X326239Y758932D01*
X324832Y760339D01*
X322995Y761100D01*
D02*
G37*
G36*
X338995Y741000D02*
X337006D01*
X335168Y740239D01*
X333761Y738832D01*
X333000Y736995D01*
Y735005D01*
X333524Y733741D01*
X332552Y732769D01*
X331995Y733000D01*
X330005D01*
X328168Y732239D01*
X326761Y730832D01*
X326000Y728994D01*
Y727005D01*
X326761Y725168D01*
X328168Y723761D01*
X330005Y723000D01*
X331674D01*
X348977Y705697D01*
X348977Y705697D01*
X349969Y705034D01*
X351140Y704801D01*
X359216D01*
X368941Y695076D01*
Y687515D01*
X368941Y687515D01*
X369174Y686344D01*
X369837Y685352D01*
X370957Y684232D01*
X370471Y683059D01*
X363267D01*
X343000Y703326D01*
Y704995D01*
X342239Y706832D01*
X340832Y708239D01*
X338995Y709000D01*
X337006D01*
X335168Y708239D01*
X333761Y706832D01*
X333000Y704995D01*
Y703006D01*
X333761Y701168D01*
X335168Y699761D01*
X337006Y699000D01*
X338674D01*
X359837Y677837D01*
X360830Y677174D01*
X362000Y676941D01*
X378784D01*
X379255Y676329D01*
X378638Y675059D01*
X336537D01*
X335764Y676066D01*
X336000Y676947D01*
Y679053D01*
X335454Y681088D01*
X334401Y682912D01*
X332912Y684402D01*
X331088Y685455D01*
X329053Y686000D01*
X326946D01*
X324912Y685455D01*
X323088Y684402D01*
X321598Y682912D01*
X320545Y681088D01*
X320000Y679053D01*
Y676947D01*
X320545Y674912D01*
X321598Y673088D01*
X323088Y671598D01*
X323579Y671315D01*
X323745Y670056D01*
X273748Y620059D01*
X247068D01*
X246220Y621329D01*
X246500Y622005D01*
Y623995D01*
X245739Y625832D01*
X244332Y627239D01*
X242495Y628000D01*
X240506D01*
X238668Y627239D01*
X237261Y625832D01*
X236500Y623995D01*
Y622005D01*
X236780Y621329D01*
X235932Y620059D01*
X228068D01*
X227220Y621329D01*
X227500Y622005D01*
Y623995D01*
X226739Y625832D01*
X225332Y627239D01*
X223495Y628000D01*
X221506D01*
X219668Y627239D01*
X218261Y625832D01*
X217500Y623995D01*
Y622005D01*
X218261Y620168D01*
X219668Y618761D01*
X220719Y618326D01*
X221017Y616828D01*
X204310Y600121D01*
X203040Y600647D01*
Y601756D01*
X202390Y604182D01*
X201134Y606358D01*
X199358Y608134D01*
X197182Y609390D01*
X194756Y610040D01*
X192244D01*
X189818Y609390D01*
X187642Y608134D01*
X185866Y606358D01*
X184610Y604182D01*
X183960Y601756D01*
Y599244D01*
X184610Y596818D01*
X185866Y594642D01*
X187642Y592866D01*
X189818Y591610D01*
X192244Y590960D01*
X193353D01*
X193879Y589690D01*
X165837Y561648D01*
X165174Y560656D01*
X164941Y559485D01*
X164941Y559485D01*
Y552012D01*
X163761Y550832D01*
X163000Y548995D01*
Y547005D01*
X163761Y545168D01*
X164941Y543988D01*
Y437012D01*
X163762Y435832D01*
X163000Y433994D01*
Y432005D01*
X163762Y430168D01*
X164941Y428988D01*
Y322012D01*
X163761Y320833D01*
X163000Y318995D01*
Y317006D01*
X163761Y315168D01*
X164941Y313988D01*
Y207013D01*
X163761Y205832D01*
X163000Y203995D01*
Y202006D01*
X163761Y200168D01*
X164941Y198988D01*
Y107013D01*
X163761Y105833D01*
X163000Y103995D01*
Y102006D01*
X163761Y100168D01*
X165168Y98762D01*
X167006Y98000D01*
X168995D01*
X170832Y98762D01*
X172239Y100168D01*
X173000Y102006D01*
Y103995D01*
X172239Y105833D01*
X171059Y107013D01*
Y110074D01*
X172329Y110601D01*
X173168Y109761D01*
X175005Y109000D01*
X176995D01*
X178832Y109761D01*
X180239Y111168D01*
X181000Y113006D01*
Y114995D01*
X180239Y116833D01*
X179059Y118013D01*
Y209988D01*
X180239Y211168D01*
X181000Y213005D01*
Y214995D01*
X180239Y216832D01*
X179059Y218012D01*
Y324988D01*
X180239Y326168D01*
X181000Y328006D01*
Y329995D01*
X180239Y331833D01*
X179059Y333013D01*
Y433386D01*
X179195Y433441D01*
X180329Y433598D01*
X180837Y432837D01*
X183837Y429837D01*
X183837Y429837D01*
X184829Y429174D01*
X186000Y428941D01*
X198219D01*
X218323Y408837D01*
X218323Y408837D01*
X219315Y408174D01*
X220486Y407941D01*
X242215D01*
X242556Y406671D01*
X242088Y406401D01*
X240599Y404912D01*
X239545Y403088D01*
X239000Y401053D01*
Y398947D01*
X239545Y396912D01*
X240599Y395088D01*
X242088Y393598D01*
X243912Y392545D01*
X245947Y392000D01*
X248053D01*
X250088Y392545D01*
X251912Y393598D01*
X253402Y395088D01*
X254455Y396912D01*
X254928Y398678D01*
X256142Y399260D01*
X275565Y379837D01*
X276557Y379174D01*
X277728Y378941D01*
X277728Y378941D01*
X301988D01*
X303168Y377761D01*
X305005Y377000D01*
X306995D01*
X308832Y377761D01*
X310239Y379168D01*
X311000Y381005D01*
Y382995D01*
X310239Y384832D01*
X308832Y386239D01*
X306995Y387000D01*
X305005D01*
X303168Y386239D01*
X301988Y385059D01*
X278995D01*
X251726Y412327D01*
X251892Y413587D01*
X251912Y413598D01*
X253402Y415088D01*
X254455Y416912D01*
X255000Y418947D01*
Y421053D01*
X254455Y423088D01*
X253402Y424912D01*
X251912Y426402D01*
X250088Y427455D01*
X248053Y428000D01*
X245947D01*
X243912Y427455D01*
X242088Y426402D01*
X240599Y424912D01*
X239545Y423088D01*
X239000Y421053D01*
Y418947D01*
X239545Y416912D01*
X240459Y415329D01*
X240012Y414059D01*
X221753D01*
X201648Y434163D01*
X200656Y434826D01*
X199486Y435059D01*
X199485Y435059D01*
X187267D01*
X186059Y436267D01*
Y441000D01*
X185826Y442171D01*
X185163Y443163D01*
X185163Y443163D01*
X182406Y445920D01*
X181413Y446583D01*
X180246Y446815D01*
X180239Y446832D01*
X179059Y448013D01*
Y554988D01*
X180012Y555941D01*
X182094D01*
X182094Y555941D01*
X182690Y556060D01*
X183960Y555228D01*
Y554244D01*
X184610Y551818D01*
X185866Y549642D01*
X187642Y547866D01*
X189818Y546610D01*
X192244Y545960D01*
X194756D01*
X197182Y546610D01*
X199358Y547866D01*
X201134Y549642D01*
X202390Y551818D01*
X203040Y554244D01*
Y556756D01*
X202390Y559183D01*
X201134Y561358D01*
X199358Y563134D01*
X197182Y564390D01*
X194756Y565040D01*
X194119D01*
X193633Y566213D01*
X214321Y586901D01*
X265960D01*
X265960Y586901D01*
X267131Y587134D01*
X268123Y587797D01*
X280787Y600461D01*
X281960Y599975D01*
Y599244D01*
X282610Y596818D01*
X283866Y594642D01*
X285642Y592866D01*
X287818Y591610D01*
X290244Y590960D01*
X292756D01*
X295182Y591610D01*
X297358Y592866D01*
X299134Y594642D01*
X300390Y596818D01*
X301040Y599244D01*
Y601756D01*
X300390Y604183D01*
X299134Y606358D01*
X297358Y608134D01*
X295182Y609390D01*
X292756Y610040D01*
X292026D01*
X291539Y611213D01*
X331267Y650941D01*
X389988D01*
X391168Y649761D01*
X393005Y649000D01*
X394995D01*
X395671Y649280D01*
X396941Y648432D01*
Y618796D01*
X396941Y618796D01*
X397174Y617626D01*
X397837Y616633D01*
X405921Y608550D01*
X405921Y608550D01*
X406227Y608345D01*
X406179Y606850D01*
X404952Y606142D01*
X403058Y604248D01*
X401718Y601927D01*
X401025Y599340D01*
Y596660D01*
X401718Y594073D01*
X403058Y591753D01*
X404952Y589858D01*
X407273Y588518D01*
X409860Y587825D01*
X412539D01*
X415127Y588518D01*
X417448Y589858D01*
X419342Y591753D01*
X420682Y594073D01*
X421375Y596660D01*
Y597644D01*
X422548Y598130D01*
X447070Y573608D01*
X447703Y572600D01*
D01*
X448190Y568900D01*
X449618Y565451D01*
X449941Y565030D01*
Y501875D01*
X448671Y501349D01*
X444365Y505656D01*
X443772Y506052D01*
X443700Y506224D01*
X442224Y507701D01*
X440294Y508500D01*
X438205D01*
X436276Y507701D01*
X434799Y506224D01*
X434000Y504295D01*
Y502206D01*
X434799Y500276D01*
X436075Y499000D01*
X434799Y497724D01*
X434000Y495794D01*
Y493705D01*
X434799Y491776D01*
X436075Y490500D01*
X434799Y489224D01*
X434590Y488719D01*
X434000D01*
X434000Y488719D01*
X432829Y488487D01*
X432086Y487990D01*
X431186Y488091D01*
X430564Y488347D01*
X430201Y489224D01*
X428925Y490500D01*
X430201Y491776D01*
X431000Y493705D01*
Y495794D01*
X430201Y497724D01*
X428925Y499000D01*
X430201Y500276D01*
X431000Y502206D01*
Y504295D01*
X430201Y506224D01*
X428724Y507701D01*
X426795Y508500D01*
X424706D01*
X422776Y507701D01*
X421300Y506224D01*
X420500Y504295D01*
Y502206D01*
X421300Y500276D01*
X422576Y499000D01*
X421300Y497724D01*
X420500Y495794D01*
Y493705D01*
X421300Y491776D01*
X422575Y490500D01*
X421300Y489224D01*
X420500Y487294D01*
Y485206D01*
X421300Y483276D01*
X422575Y482000D01*
X421300Y480724D01*
X420500Y478794D01*
Y476706D01*
X421300Y474776D01*
X422575Y473500D01*
X421300Y472224D01*
X420500Y470295D01*
Y468206D01*
X420720Y467676D01*
X419806Y466563D01*
X419744Y466575D01*
X417598Y466148D01*
X415779Y464933D01*
X406035Y455189D01*
X404819Y453369D01*
X404392Y451223D01*
Y371975D01*
X403122Y371449D01*
X402332Y372239D01*
X400495Y373000D01*
X398506D01*
X396668Y372239D01*
X395261Y370832D01*
X394500Y368995D01*
Y367005D01*
X395261Y365168D01*
X396668Y363761D01*
X398506Y363000D01*
X400495D01*
X402332Y363761D01*
X403122Y364551D01*
X404392Y364025D01*
Y353393D01*
X360032Y309032D01*
X358816Y307213D01*
X358389Y305067D01*
Y145290D01*
X340663Y127564D01*
X339448Y125745D01*
X339021Y123599D01*
Y119647D01*
X338892Y119000D01*
X339319Y116854D01*
X340535Y115035D01*
X342354Y113819D01*
X344500Y113392D01*
X346646Y113819D01*
X348465Y115035D01*
X348594Y115163D01*
X349809Y116983D01*
X350236Y119129D01*
Y121276D01*
X367962Y139002D01*
X369178Y140821D01*
X369604Y142967D01*
Y302744D01*
X413965Y347105D01*
X415181Y348924D01*
X415608Y351070D01*
Y448901D01*
X422577Y455870D01*
X423814D01*
X424706Y455500D01*
X426795D01*
X428724Y456299D01*
X430201Y457776D01*
X430351Y458139D01*
X434649D01*
X434799Y457776D01*
X436276Y456299D01*
X438205Y455500D01*
X440294D01*
X442224Y456299D01*
X443700Y457776D01*
X443919Y458303D01*
X445137Y459116D01*
X448671Y462651D01*
X449941Y462125D01*
Y424282D01*
X424525Y398866D01*
X422995Y399500D01*
X421006D01*
X419168Y398739D01*
X417761Y397332D01*
X417000Y395494D01*
Y393505D01*
X417761Y391668D01*
X419168Y390261D01*
X421006Y389500D01*
X422995D01*
X424832Y390261D01*
X426239Y391668D01*
X426611Y392566D01*
X427413Y393102D01*
X453618Y419307D01*
X454791Y418821D01*
Y405617D01*
X448674Y399500D01*
X447005D01*
X445168Y398739D01*
X443761Y397332D01*
X443000Y395494D01*
Y393505D01*
X443761Y391668D01*
X445168Y390261D01*
X447005Y389500D01*
X448994D01*
X450832Y390261D01*
X452239Y391668D01*
X453000Y393505D01*
Y395174D01*
X460013Y402187D01*
X460013Y402187D01*
X460676Y403180D01*
X460909Y404350D01*
X460909Y404350D01*
Y527090D01*
X479768Y545949D01*
X480941Y545463D01*
Y405767D01*
X474674Y399500D01*
X473005D01*
X471168Y398739D01*
X469761Y397332D01*
X469000Y395494D01*
Y393505D01*
X469761Y391668D01*
X471168Y390261D01*
X473005Y389500D01*
X474995D01*
X476832Y390261D01*
X478239Y391668D01*
X479000Y393505D01*
Y395174D01*
X486163Y402337D01*
X486163Y402337D01*
X486826Y403329D01*
X487059Y404500D01*
X487059Y404500D01*
Y659000D01*
X487059Y659000D01*
X486826Y660171D01*
X486163Y661163D01*
X486163Y661163D01*
X464163Y683163D01*
X463171Y683826D01*
X462000Y684059D01*
X462000Y684059D01*
X394267D01*
X387059Y691267D01*
Y692485D01*
X387059Y692485D01*
X386826Y693656D01*
X386163Y694648D01*
X386163Y694648D01*
X382648Y698163D01*
X381656Y698826D01*
X380485Y699059D01*
X380485Y699059D01*
X379267D01*
X343000Y735326D01*
Y736995D01*
X342239Y738832D01*
X340832Y740239D01*
X338995Y741000D01*
D02*
G37*
G36*
X479995Y725000D02*
X478005D01*
X476168Y724239D01*
X474761Y722832D01*
X474000Y720995D01*
Y719005D01*
X474761Y717168D01*
X476168Y715761D01*
X478005Y715000D01*
X479995D01*
X481832Y715761D01*
X483239Y717168D01*
X484000Y719005D01*
Y720995D01*
X483239Y722832D01*
X481832Y724239D01*
X479995Y725000D01*
D02*
G37*
G36*
X322995Y717100D02*
X321006D01*
X319168Y716339D01*
X317988Y715159D01*
X305585D01*
X304415Y714926D01*
X303422Y714263D01*
X302218Y713059D01*
X295172D01*
X295172Y713059D01*
X294001Y712826D01*
X293009Y712163D01*
X293009Y712163D01*
X291837Y710991D01*
X291174Y709999D01*
X290941Y708828D01*
X290941Y708828D01*
Y698572D01*
X279279D01*
X278948Y699454D01*
X278913Y699842D01*
X280239Y701168D01*
X281000Y703005D01*
Y704995D01*
X280239Y706832D01*
X278832Y708239D01*
X276995Y709000D01*
X275005D01*
X273168Y708239D01*
X271761Y706832D01*
X271173Y705413D01*
X269827D01*
X269239Y706832D01*
X267832Y708239D01*
X265995Y709000D01*
X264005D01*
X262168Y708239D01*
X260761Y706832D01*
X260000Y704995D01*
Y703005D01*
X260761Y701168D01*
X262087Y699842D01*
X262052Y699454D01*
X261721Y698572D01*
X246279D01*
X245948Y699454D01*
X245913Y699842D01*
X247239Y701168D01*
X248000Y703005D01*
Y704995D01*
X247239Y706832D01*
X245832Y708239D01*
X243995Y709000D01*
X242005D01*
X240168Y708239D01*
X238761Y706832D01*
X238000Y704995D01*
Y703005D01*
X238761Y701168D01*
X240087Y699842D01*
X240052Y699454D01*
X239721Y698572D01*
X230128D01*
X228957Y698339D01*
X227965Y697676D01*
X191348Y661059D01*
X172068D01*
X171220Y662329D01*
X171500Y663005D01*
Y664995D01*
X170739Y666832D01*
X169332Y668239D01*
X167495Y669000D01*
X165506D01*
X163668Y668239D01*
X162261Y666832D01*
X161500Y664995D01*
Y663005D01*
X161864Y662128D01*
X161830Y660856D01*
X161284Y660461D01*
X160837Y660163D01*
X145674Y645000D01*
X144005D01*
X142168Y644239D01*
X140761Y642832D01*
X140000Y640994D01*
Y639005D01*
X140761Y637168D01*
X142168Y635761D01*
X144005Y635000D01*
X145995D01*
X147832Y635761D01*
X149239Y637168D01*
X150000Y639005D01*
Y640674D01*
X164267Y654941D01*
X192615D01*
X192615Y654941D01*
X193785Y655174D01*
X194778Y655837D01*
X203983Y665042D01*
X205481Y664744D01*
X205761Y664068D01*
X207168Y662661D01*
X209006Y661900D01*
X210995D01*
X212832Y662661D01*
X214239Y664068D01*
X215000Y665905D01*
Y667895D01*
X214239Y669732D01*
X212832Y671139D01*
X212156Y671419D01*
X211858Y672917D01*
X231395Y692454D01*
X292828D01*
X292828Y692454D01*
X293999Y692687D01*
X294991Y693350D01*
X296163Y694522D01*
X296163Y694522D01*
X296826Y695514D01*
X297059Y696684D01*
X297059Y696685D01*
Y706941D01*
X303485D01*
X303485Y706941D01*
X304656Y707174D01*
X305648Y707837D01*
X306852Y709041D01*
X317988D01*
X319168Y707861D01*
X321006Y707100D01*
X322995D01*
X324832Y707861D01*
X326239Y709268D01*
X327000Y711105D01*
Y713094D01*
X326239Y714932D01*
X324832Y716339D01*
X322995Y717100D01*
D02*
G37*
G36*
X221995Y708000D02*
X220005D01*
X218168Y707239D01*
X216761Y705832D01*
X216173Y704413D01*
X214827D01*
X214239Y705832D01*
X212832Y707239D01*
X210995Y708000D01*
X209005D01*
X207168Y707239D01*
X205761Y705832D01*
X205173Y704413D01*
X203827D01*
X203239Y705832D01*
X201832Y707239D01*
X199995Y708000D01*
X198005D01*
X196168Y707239D01*
X194761Y705832D01*
X194000Y703995D01*
Y702005D01*
X194761Y700168D01*
X196168Y698761D01*
X198005Y698000D01*
X199995D01*
X201832Y698761D01*
X203239Y700168D01*
X203827Y701587D01*
X205173D01*
X205761Y700168D01*
X207168Y698761D01*
X209005Y698000D01*
X210995D01*
X212832Y698761D01*
X214239Y700168D01*
X214827Y701587D01*
X216173D01*
X216761Y700168D01*
X218168Y698761D01*
X220005Y698000D01*
X221995D01*
X223832Y698761D01*
X225239Y700168D01*
X226000Y702005D01*
Y703995D01*
X225239Y705832D01*
X223832Y707239D01*
X221995Y708000D01*
D02*
G37*
G36*
X489995Y717000D02*
X488005D01*
X486168Y716239D01*
X484761Y714832D01*
X484000Y712995D01*
Y711005D01*
X484761Y709168D01*
X485929Y708000D01*
X484761Y706832D01*
X484000Y704994D01*
Y703005D01*
X484524Y701741D01*
X483552Y700769D01*
X482995Y701000D01*
X481006D01*
X479168Y700238D01*
X477761Y698832D01*
X477000Y696994D01*
Y695005D01*
X477761Y693167D01*
X479168Y691761D01*
X481006Y691000D01*
X482995D01*
X483552Y691230D01*
X484524Y690258D01*
X484000Y688995D01*
Y687005D01*
X484761Y685168D01*
X486168Y683761D01*
X488005Y683000D01*
X489995D01*
X491832Y683761D01*
X493239Y685168D01*
X494000Y687005D01*
Y688995D01*
X493239Y690832D01*
X491832Y692239D01*
X489995Y693000D01*
X488005D01*
X487449Y692769D01*
X486477Y693741D01*
X487000Y695005D01*
Y696994D01*
X486476Y698259D01*
X487448Y699231D01*
X488005Y699000D01*
X489995D01*
X491832Y699761D01*
X493239Y701168D01*
X494000Y703005D01*
Y704994D01*
X493239Y706832D01*
X492071Y708000D01*
X493239Y709168D01*
X494000Y711005D01*
Y712995D01*
X493239Y714832D01*
X491832Y716239D01*
X489995Y717000D01*
D02*
G37*
G36*
X232751Y672100D02*
X230762D01*
X228924Y671339D01*
X227518Y669932D01*
X226756Y668095D01*
Y666105D01*
X227518Y664268D01*
X228924Y662861D01*
X230762Y662100D01*
X232751D01*
X234589Y662861D01*
X235995Y664268D01*
X236756Y666105D01*
Y668095D01*
X235995Y669932D01*
X234589Y671339D01*
X232751Y672100D01*
D02*
G37*
G36*
X254995Y672100D02*
X253006D01*
X251168Y671339D01*
X249761Y669932D01*
X249000Y668094D01*
Y666105D01*
X249761Y664268D01*
X251168Y662861D01*
X253006Y662100D01*
X254995D01*
X256833Y662861D01*
X258239Y664268D01*
X259000Y666105D01*
Y668094D01*
X258239Y669932D01*
X256833Y671339D01*
X254995Y672100D01*
D02*
G37*
G36*
X307994Y669000D02*
X306005D01*
X304168Y668239D01*
X302761Y666832D01*
X302000Y664995D01*
Y663005D01*
X302761Y661168D01*
X304168Y659761D01*
X306005Y659000D01*
X307994D01*
X309832Y659761D01*
X311239Y661168D01*
X312000Y663005D01*
Y664995D01*
X311239Y666832D01*
X309832Y668239D01*
X307994Y669000D01*
D02*
G37*
G36*
X167495Y645000D02*
X165506D01*
X163668Y644239D01*
X162261Y642832D01*
X161500Y640995D01*
Y639005D01*
X162261Y637168D01*
X163668Y635761D01*
X165506Y635000D01*
X167495D01*
X169332Y635761D01*
X170739Y637168D01*
X171500Y639005D01*
Y640995D01*
X170739Y642832D01*
X169332Y644239D01*
X167495Y645000D01*
D02*
G37*
G36*
X125995Y645000D02*
X124005D01*
X122168Y644239D01*
X120761Y642832D01*
X120000Y640994D01*
Y639005D01*
X120761Y637168D01*
X122168Y635761D01*
X124005Y635000D01*
X125995D01*
X127832Y635761D01*
X129239Y637168D01*
X130000Y639005D01*
Y640994D01*
X129239Y642832D01*
X127832Y644239D01*
X125995Y645000D01*
D02*
G37*
G36*
X386995Y628400D02*
X385006D01*
X383168Y627639D01*
X381761Y626232D01*
X381000Y624395D01*
Y622406D01*
X381761Y620568D01*
X383168Y619161D01*
X385006Y618400D01*
X386995D01*
X388832Y619161D01*
X390239Y620568D01*
X391000Y622406D01*
Y624395D01*
X390239Y626232D01*
X388832Y627639D01*
X386995Y628400D01*
D02*
G37*
G36*
X76000Y830000D02*
X52000D01*
Y806000D01*
X60942D01*
Y757385D01*
X60942Y757385D01*
X61174Y756214D01*
X61837Y755222D01*
X64789Y752270D01*
X64263Y751000D01*
X62421D01*
X59369Y750182D01*
X56632Y748603D01*
X54398Y746368D01*
X52818Y743632D01*
X52000Y740580D01*
Y737420D01*
X52818Y734368D01*
X54398Y731632D01*
X56632Y729398D01*
X59369Y727818D01*
X62421Y727000D01*
X65580D01*
X68632Y727818D01*
X71368Y729398D01*
X73603Y731632D01*
X75182Y734368D01*
X76000Y737420D01*
Y739263D01*
X77270Y739789D01*
X105809Y711251D01*
Y603427D01*
X104635Y602941D01*
X76000Y631576D01*
Y651250D01*
X52000D01*
Y627250D01*
X71674D01*
X101809Y597116D01*
Y412633D01*
X101809Y412632D01*
X102042Y411462D01*
X102705Y410470D01*
X149500Y363674D01*
Y362006D01*
X150261Y360168D01*
X151667Y358761D01*
X153505Y358000D01*
X155494D01*
X157332Y358761D01*
X158739Y360168D01*
X159500Y362006D01*
Y363995D01*
X158739Y365832D01*
X157332Y367239D01*
X155494Y368000D01*
X153826D01*
X107926Y413899D01*
Y518589D01*
X109100Y519075D01*
X149500Y478674D01*
Y477006D01*
X150261Y475168D01*
X151668Y473761D01*
X153505Y473000D01*
X155495D01*
X157332Y473761D01*
X158739Y475168D01*
X159500Y477006D01*
Y478995D01*
X158739Y480832D01*
X157332Y482239D01*
X155495Y483000D01*
X153826D01*
X111926Y524900D01*
Y712517D01*
X111926Y712518D01*
X111693Y713688D01*
X111030Y714680D01*
X111030Y714681D01*
X67059Y758652D01*
Y806000D01*
X76000D01*
Y830000D01*
D02*
G37*
G36*
X320994Y603000D02*
X319005D01*
X317167Y602239D01*
X315761Y600832D01*
X315000Y598995D01*
Y597006D01*
X315761Y595168D01*
X317167Y593761D01*
X319005Y593000D01*
X320994D01*
X322832Y593761D01*
X324239Y595168D01*
X325000Y597006D01*
Y598995D01*
X324239Y600832D01*
X322832Y602239D01*
X320994Y603000D01*
D02*
G37*
G36*
X421375Y582775D02*
X401025D01*
Y562425D01*
X421375D01*
Y582775D01*
D02*
G37*
G36*
X65580Y572250D02*
X62421D01*
X59369Y571432D01*
X56632Y569852D01*
X54398Y567618D01*
X52818Y564882D01*
X52000Y561830D01*
Y558670D01*
X52818Y555618D01*
X54398Y552882D01*
X56632Y550648D01*
X59369Y549068D01*
X62421Y548250D01*
X65580D01*
X68632Y549068D01*
X71368Y550648D01*
X73603Y552882D01*
X75182Y555618D01*
X76000Y558670D01*
Y561830D01*
X75182Y564882D01*
X73603Y567618D01*
X71368Y569852D01*
X68632Y571432D01*
X65580Y572250D01*
D02*
G37*
G36*
X129756Y565040D02*
X127244D01*
X124818Y564390D01*
X122642Y563134D01*
X120866Y561358D01*
X119610Y559183D01*
X118960Y556756D01*
Y554244D01*
X119610Y551818D01*
X120866Y549642D01*
X122642Y547866D01*
X124818Y546610D01*
X127244Y545960D01*
X129756D01*
X132182Y546610D01*
X134358Y547866D01*
X136134Y549642D01*
X137390Y551818D01*
X138040Y554244D01*
Y556756D01*
X137390Y559183D01*
X136134Y561358D01*
X134358Y563134D01*
X132182Y564390D01*
X129756Y565040D01*
D02*
G37*
G36*
X227756Y565040D02*
X225244D01*
X222818Y564390D01*
X220643Y563134D01*
X218866Y561358D01*
X217610Y559182D01*
X216960Y556756D01*
Y554244D01*
X217610Y551818D01*
X218866Y549642D01*
X220643Y547866D01*
X222818Y546610D01*
X225244Y545960D01*
X227756D01*
X230182Y546610D01*
X232358Y547866D01*
X234134Y549642D01*
X235390Y551818D01*
X236040Y554244D01*
Y556756D01*
X235390Y559182D01*
X234134Y561358D01*
X232358Y563134D01*
X230182Y564390D01*
X227756Y565040D01*
D02*
G37*
G36*
X209995Y548000D02*
X208006D01*
X206168Y547239D01*
X204761Y545832D01*
X204000Y543995D01*
Y542005D01*
X204761Y540168D01*
X206168Y538761D01*
X208006Y538000D01*
X209995D01*
X211832Y538761D01*
X213239Y540168D01*
X214000Y542005D01*
Y543995D01*
X213239Y545832D01*
X211832Y547239D01*
X209995Y548000D01*
D02*
G37*
G36*
X155495Y537000D02*
X153505D01*
X151668Y536239D01*
X150261Y534832D01*
X149500Y532995D01*
Y531006D01*
X150261Y529168D01*
X151668Y527761D01*
X153505Y527000D01*
X155495D01*
X157332Y527761D01*
X158739Y529168D01*
X159500Y531006D01*
Y532995D01*
X158739Y534832D01*
X157332Y536239D01*
X155495Y537000D01*
D02*
G37*
G36*
X248053Y543000D02*
X245947D01*
X243912Y542455D01*
X242088Y541402D01*
X240598Y539912D01*
X239545Y538088D01*
X239000Y536053D01*
Y533947D01*
X239545Y531912D01*
X240598Y530088D01*
X242088Y528598D01*
X243912Y527545D01*
X245947Y527000D01*
X248053D01*
X250088Y527545D01*
X251912Y528598D01*
X253401Y530088D01*
X254455Y531912D01*
X255000Y533947D01*
Y536053D01*
X254455Y538088D01*
X253401Y539912D01*
X251912Y541402D01*
X250088Y542455D01*
X248053Y543000D01*
D02*
G37*
G36*
Y523000D02*
X245947D01*
X243912Y522455D01*
X242088Y521402D01*
X240598Y519912D01*
X239545Y518088D01*
X239000Y516054D01*
Y513947D01*
X239545Y511912D01*
X240598Y510088D01*
X242088Y508599D01*
X243912Y507545D01*
X245947Y507000D01*
X248053D01*
X250088Y507545D01*
X251912Y508599D01*
X253401Y510088D01*
X254455Y511912D01*
X255000Y513947D01*
Y516054D01*
X254455Y518088D01*
X253401Y519912D01*
X251912Y521402D01*
X250088Y522455D01*
X248053Y523000D01*
D02*
G37*
G36*
X248053Y503000D02*
X245947D01*
X243912Y502455D01*
X242088Y501402D01*
X240599Y499912D01*
X239545Y498088D01*
X239000Y496053D01*
Y493947D01*
X239545Y491912D01*
X240599Y490088D01*
X242088Y488599D01*
X243912Y487545D01*
X245947Y487000D01*
X248053D01*
X250088Y487545D01*
X251912Y488599D01*
X253402Y490088D01*
X254455Y491912D01*
X255000Y493947D01*
Y496053D01*
X254455Y498088D01*
X253402Y499912D01*
X251912Y501402D01*
X250088Y502455D01*
X248053Y503000D01*
D02*
G37*
G36*
X248053Y483000D02*
X245947D01*
X243912Y482454D01*
X242088Y481401D01*
X240598Y479912D01*
X239545Y478088D01*
X239000Y476053D01*
Y473946D01*
X239545Y471912D01*
X240598Y470088D01*
X242088Y468598D01*
X243912Y467545D01*
X245947Y467000D01*
X248053D01*
X250088Y467545D01*
X251912Y468598D01*
X253401Y470088D01*
X254455Y471912D01*
X255000Y473946D01*
Y476053D01*
X254455Y478088D01*
X253401Y479912D01*
X251912Y481401D01*
X250088Y482454D01*
X248053Y483000D01*
D02*
G37*
G36*
X350106Y474400D02*
X347894D01*
X345758Y473828D01*
X343842Y472722D01*
X342278Y471158D01*
X341172Y469242D01*
X340600Y467106D01*
Y464894D01*
X341172Y462758D01*
X342278Y460842D01*
X343842Y459278D01*
X345758Y458172D01*
X347894Y457600D01*
X350106D01*
X352242Y458172D01*
X354158Y459278D01*
X355722Y460842D01*
X356828Y462758D01*
X357400Y464894D01*
Y467106D01*
X356828Y469242D01*
X355722Y471158D01*
X354158Y472722D01*
X352242Y473828D01*
X350106Y474400D01*
D02*
G37*
G36*
X196895Y466000D02*
X194905D01*
X193068Y465239D01*
X191661Y463832D01*
X190900Y461995D01*
Y460006D01*
X191661Y458168D01*
X193068Y456761D01*
X194905Y456000D01*
X196895D01*
X198732Y456761D01*
X200139Y458168D01*
X200900Y460006D01*
Y461995D01*
X200139Y463832D01*
X198732Y465239D01*
X196895Y466000D01*
D02*
G37*
G36*
X246494Y445000D02*
X244505D01*
X242668Y444239D01*
X241261Y442832D01*
X240500Y440995D01*
Y439006D01*
X241261Y437168D01*
X242668Y435761D01*
X244505Y435000D01*
X246494D01*
X248332Y435761D01*
X249739Y437168D01*
X250500Y439006D01*
Y440995D01*
X249739Y442832D01*
X248332Y444239D01*
X246494Y445000D01*
D02*
G37*
G36*
X155494Y422000D02*
X153505D01*
X151668Y421239D01*
X150261Y419832D01*
X149500Y417995D01*
Y416006D01*
X150261Y414168D01*
X151668Y412761D01*
X153505Y412000D01*
X155494D01*
X157332Y412761D01*
X158739Y414168D01*
X159500Y416006D01*
Y417995D01*
X158739Y419832D01*
X157332Y421239D01*
X155494Y422000D01*
D02*
G37*
G36*
X350106Y424400D02*
X347894D01*
X345758Y423828D01*
X343842Y422722D01*
X342278Y421158D01*
X341172Y419242D01*
X340600Y417106D01*
Y414894D01*
X341172Y412758D01*
X342278Y410842D01*
X343842Y409278D01*
X345758Y408172D01*
X347894Y407600D01*
X350106D01*
X352242Y408172D01*
X354158Y409278D01*
X355722Y410842D01*
X356828Y412758D01*
X357400Y414894D01*
Y417106D01*
X356828Y419242D01*
X355722Y421158D01*
X354158Y422722D01*
X352242Y423828D01*
X350106Y424400D01*
D02*
G37*
G36*
X248053Y388000D02*
X245947D01*
X243912Y387455D01*
X242088Y386401D01*
X240598Y384912D01*
X239545Y383088D01*
X239000Y381053D01*
Y378947D01*
X239545Y376912D01*
X240598Y375088D01*
X242088Y373598D01*
X243912Y372545D01*
X245947Y372000D01*
X248053D01*
X250088Y372545D01*
X251912Y373598D01*
X253402Y375088D01*
X254455Y376912D01*
X255000Y378947D01*
Y381053D01*
X254455Y383088D01*
X253402Y384912D01*
X251912Y386401D01*
X250088Y387455D01*
X248053Y388000D01*
D02*
G37*
G36*
X341895Y371000D02*
X339906D01*
X338068Y370239D01*
X336661Y368832D01*
X335900Y366994D01*
Y365005D01*
X336661Y363167D01*
X338068Y361761D01*
X339906Y361000D01*
X341895D01*
X343732Y361761D01*
X345139Y363167D01*
X345900Y365005D01*
Y366994D01*
X345139Y368832D01*
X343732Y370239D01*
X341895Y371000D01*
D02*
G37*
G36*
X281995Y368000D02*
X280005D01*
X278168Y367239D01*
X276761Y365832D01*
X276000Y363995D01*
Y362005D01*
X276761Y360168D01*
X278168Y358761D01*
X280005Y358000D01*
X281995D01*
X283832Y358761D01*
X285239Y360168D01*
X286000Y362005D01*
Y363995D01*
X285239Y365832D01*
X283832Y367239D01*
X281995Y368000D01*
D02*
G37*
G36*
X248053Y368000D02*
X245947D01*
X243912Y367455D01*
X242088Y366401D01*
X240598Y364912D01*
X239545Y363088D01*
X239000Y361053D01*
Y358947D01*
X239545Y356912D01*
X240598Y355088D01*
X242088Y353598D01*
X243912Y352545D01*
X245947Y352000D01*
X248053D01*
X250088Y352545D01*
X251912Y353598D01*
X253402Y355088D01*
X254455Y356912D01*
X255000Y358947D01*
Y361053D01*
X254455Y363088D01*
X253402Y364912D01*
X251912Y366401D01*
X250088Y367455D01*
X248053Y368000D01*
D02*
G37*
G36*
X436922Y364400D02*
X435079D01*
X433298Y363923D01*
X431702Y363001D01*
X430399Y361698D01*
X429477Y360102D01*
X429000Y358322D01*
Y356478D01*
X429477Y354698D01*
X430399Y353102D01*
X431702Y351799D01*
X433298Y350877D01*
X435079Y350400D01*
X436922D01*
X438702Y350877D01*
X440298Y351799D01*
X441601Y353102D01*
X442523Y354698D01*
X443000Y356478D01*
Y358322D01*
X442523Y360102D01*
X441601Y361698D01*
X440298Y363001D01*
X438702Y363923D01*
X436922Y364400D01*
D02*
G37*
G36*
X196895Y351000D02*
X194906D01*
X193068Y350239D01*
X191661Y348832D01*
X190900Y346995D01*
Y345005D01*
X191661Y343168D01*
X193068Y341761D01*
X194906Y341000D01*
X196895D01*
X198732Y341761D01*
X200139Y343168D01*
X200900Y345005D01*
Y346995D01*
X200139Y348832D01*
X198732Y350239D01*
X196895Y351000D01*
D02*
G37*
G36*
X341894Y350000D02*
X339905D01*
X338068Y349239D01*
X336661Y347832D01*
X335900Y345994D01*
Y344005D01*
X336661Y342167D01*
X338068Y340761D01*
X339905Y340000D01*
X341894D01*
X343732Y340761D01*
X345139Y342167D01*
X345900Y344005D01*
Y345994D01*
X345139Y347832D01*
X343732Y349239D01*
X341894Y350000D01*
D02*
G37*
G36*
X134494Y337000D02*
X132505D01*
X130667Y336239D01*
X129261Y334832D01*
X128500Y332995D01*
Y331006D01*
X129261Y329168D01*
X130667Y327761D01*
X132505Y327000D01*
X134494D01*
X136332Y327761D01*
X137739Y329168D01*
X138500Y331006D01*
Y332995D01*
X137739Y334832D01*
X136332Y336239D01*
X134494Y337000D01*
D02*
G37*
G36*
X246495Y330000D02*
X244506D01*
X242668Y329239D01*
X241261Y327832D01*
X240500Y325994D01*
Y324005D01*
X241261Y322168D01*
X242668Y320761D01*
X244506Y320000D01*
X246495D01*
X248332Y320761D01*
X249739Y322168D01*
X250500Y324005D01*
Y325994D01*
X249739Y327832D01*
X248332Y329239D01*
X246495Y330000D01*
D02*
G37*
G36*
X278994Y326500D02*
X277005D01*
X275168Y325738D01*
X273761Y324332D01*
X273000Y322494D01*
Y320505D01*
X273761Y318667D01*
X275168Y317261D01*
X277005Y316500D01*
X278994D01*
X280832Y317261D01*
X282239Y318667D01*
X283000Y320505D01*
Y322494D01*
X282239Y324332D01*
X280832Y325738D01*
X278994Y326500D01*
D02*
G37*
G36*
X436922Y339000D02*
X435079D01*
X433298Y338523D01*
X431702Y337601D01*
X430399Y336298D01*
X429477Y334702D01*
X429000Y332922D01*
Y331078D01*
X429477Y329298D01*
X430399Y327702D01*
X431702Y326399D01*
X431899Y326285D01*
Y325015D01*
X431702Y324901D01*
X430399Y323598D01*
X429477Y322002D01*
X429000Y320222D01*
Y318378D01*
X429477Y316598D01*
X430399Y315002D01*
X431702Y313699D01*
X433298Y312777D01*
X435079Y312300D01*
X436922D01*
X438702Y312777D01*
X440298Y313699D01*
X441601Y315002D01*
X442523Y316598D01*
X443000Y318378D01*
Y320222D01*
X442523Y322002D01*
X441601Y323598D01*
X440298Y324901D01*
X440101Y325015D01*
Y326285D01*
X440298Y326399D01*
X441601Y327702D01*
X442523Y329298D01*
X443000Y331078D01*
Y332922D01*
X442523Y334702D01*
X441601Y336298D01*
X440298Y337601D01*
X438702Y338523D01*
X436922Y339000D01*
D02*
G37*
G36*
X338000Y536008D02*
X335854Y535581D01*
X334035Y534366D01*
X315535Y515866D01*
X314320Y514047D01*
X313893Y511901D01*
Y297837D01*
X312623Y297325D01*
X310994Y298000D01*
X309005D01*
X307167Y297239D01*
X305761Y295832D01*
X305000Y293995D01*
Y292006D01*
X305761Y290168D01*
X307167Y288761D01*
X309005Y288000D01*
X310994D01*
X312623Y288675D01*
X313893Y288163D01*
Y119000D01*
X314320Y116854D01*
X315535Y115035D01*
X317355Y113819D01*
X319501Y113392D01*
X321646Y113819D01*
X323466Y115035D01*
X324681Y116854D01*
X325108Y119000D01*
Y509578D01*
X341965Y526435D01*
X343181Y528254D01*
X343608Y530400D01*
X343181Y532546D01*
X341965Y534366D01*
X340146Y535581D01*
X338000Y536008D01*
D02*
G37*
G36*
X248053Y313000D02*
X245947D01*
X243912Y312455D01*
X242088Y311402D01*
X240599Y309912D01*
X239545Y308088D01*
X239000Y306053D01*
Y303947D01*
X239545Y301912D01*
X240599Y300088D01*
X242088Y298598D01*
X243912Y297545D01*
X245947Y297000D01*
X248053D01*
X250088Y297545D01*
X251912Y298598D01*
X253402Y300088D01*
X254455Y301912D01*
X255000Y303947D01*
Y306053D01*
X254455Y308088D01*
X253402Y309912D01*
X251912Y311402D01*
X250088Y312455D01*
X248053Y313000D01*
D02*
G37*
G36*
X155494Y307000D02*
X153505D01*
X151668Y306239D01*
X150261Y304832D01*
X149500Y302994D01*
Y301005D01*
X150261Y299168D01*
X151668Y297761D01*
X153505Y297000D01*
X155494D01*
X157332Y297761D01*
X158739Y299168D01*
X159500Y301005D01*
Y302994D01*
X158739Y304832D01*
X157332Y306239D01*
X155494Y307000D01*
D02*
G37*
G36*
X430995Y290000D02*
X429005D01*
X427168Y289239D01*
X425761Y287832D01*
X425000Y285995D01*
Y284005D01*
X425761Y282168D01*
X427168Y280761D01*
X429005Y280000D01*
X430995D01*
X432832Y280761D01*
X434239Y282168D01*
X435000Y284005D01*
Y285995D01*
X434239Y287832D01*
X432832Y289239D01*
X430995Y290000D01*
D02*
G37*
G36*
X248053Y293000D02*
X245947D01*
X243912Y292455D01*
X242088Y291402D01*
X240599Y289912D01*
X239545Y288088D01*
X239000Y286054D01*
Y283947D01*
X239545Y281912D01*
X240599Y280088D01*
X242088Y278599D01*
X243912Y277546D01*
X245947Y277000D01*
X248053D01*
X250088Y277546D01*
X251912Y278599D01*
X253402Y280088D01*
X254455Y281912D01*
X255000Y283947D01*
Y286054D01*
X254455Y288088D01*
X253402Y289912D01*
X251912Y291402D01*
X250088Y292455D01*
X248053Y293000D01*
D02*
G37*
G36*
X248053Y273000D02*
X245947D01*
X243912Y272455D01*
X242088Y271402D01*
X240599Y269912D01*
X239545Y268088D01*
X239000Y266053D01*
Y263947D01*
X239545Y261912D01*
X240599Y260088D01*
X242088Y258598D01*
X243912Y257545D01*
X245947Y257000D01*
X248053D01*
X250088Y257545D01*
X251912Y258598D01*
X253402Y260088D01*
X254455Y261912D01*
X255000Y263947D01*
Y266053D01*
X254455Y268088D01*
X253402Y269912D01*
X251912Y271402D01*
X250088Y272455D01*
X248053Y273000D01*
D02*
G37*
G36*
X76000Y472500D02*
X52000D01*
Y448500D01*
X60942D01*
Y399886D01*
X60942Y399885D01*
X61174Y398715D01*
X61837Y397723D01*
X64789Y394771D01*
X64263Y393501D01*
X62421D01*
X59369Y392683D01*
X56632Y391103D01*
X54398Y388869D01*
X52818Y386133D01*
X52000Y383080D01*
Y379921D01*
X52818Y376869D01*
X54398Y374132D01*
X56632Y371898D01*
X59369Y370318D01*
X62421Y369501D01*
X65580D01*
X68632Y370318D01*
X71368Y371898D01*
X73603Y374132D01*
X75182Y376869D01*
X76000Y379921D01*
Y381764D01*
X77270Y382290D01*
X105809Y353751D01*
Y293633D01*
X105809Y293632D01*
X106041Y292462D01*
X106705Y291469D01*
X149500Y248674D01*
Y247005D01*
X150261Y245168D01*
X151668Y243761D01*
X153505Y243000D01*
X155494D01*
X157332Y243761D01*
X158739Y245168D01*
X159500Y247005D01*
Y248994D01*
X158739Y250832D01*
X157332Y252239D01*
X155494Y253000D01*
X153826D01*
X111926Y294899D01*
Y355018D01*
X111693Y356189D01*
X111030Y357181D01*
X111030Y357181D01*
X67059Y401152D01*
Y448500D01*
X76000D01*
Y472500D01*
D02*
G37*
G36*
X248053Y253000D02*
X245947D01*
X243912Y252455D01*
X242088Y251401D01*
X240599Y249912D01*
X239545Y248088D01*
X239000Y246053D01*
Y243947D01*
X239545Y241912D01*
X240599Y240088D01*
X242088Y238598D01*
X243912Y237545D01*
X245947Y237000D01*
X248053D01*
X250088Y237545D01*
X251912Y238598D01*
X253402Y240088D01*
X254455Y241912D01*
X255000Y243947D01*
Y246053D01*
X254455Y248088D01*
X253402Y249912D01*
X251912Y251401D01*
X250088Y252455D01*
X248053Y253000D01*
D02*
G37*
G36*
X196895Y236000D02*
X194906D01*
X193068Y235239D01*
X191661Y233832D01*
X190900Y231994D01*
Y230005D01*
X191661Y228168D01*
X193068Y226761D01*
X194906Y226000D01*
X196895D01*
X198732Y226761D01*
X200139Y228168D01*
X200900Y230005D01*
Y231994D01*
X200139Y233832D01*
X198732Y235239D01*
X196895Y236000D01*
D02*
G37*
G36*
X76000Y293750D02*
X52000D01*
Y269750D01*
X60942D01*
Y223500D01*
X60942Y223500D01*
X61174Y222330D01*
X61837Y221337D01*
X67669Y215505D01*
X67012Y214367D01*
X65580Y214750D01*
X62421D01*
X59369Y213932D01*
X56632Y212353D01*
X54398Y210118D01*
X52818Y207382D01*
X52000Y204330D01*
Y201170D01*
X52818Y198118D01*
X54398Y195382D01*
X56632Y193148D01*
X59369Y191568D01*
X62421Y190750D01*
X65580D01*
X68632Y191568D01*
X71368Y193148D01*
X73603Y195382D01*
X75182Y198118D01*
X76000Y201170D01*
Y204330D01*
X75617Y205762D01*
X76755Y206419D01*
X149500Y133674D01*
Y132006D01*
X150261Y130168D01*
X151668Y128761D01*
X153506Y128000D01*
X155495D01*
X157332Y128761D01*
X158739Y130168D01*
X159500Y132006D01*
Y133995D01*
X158739Y135832D01*
X157332Y137239D01*
X155495Y138000D01*
X153826D01*
X67059Y224767D01*
Y269750D01*
X76000D01*
Y293750D01*
D02*
G37*
G36*
X132494Y219000D02*
X130505D01*
X128668Y218239D01*
X127261Y216833D01*
X126500Y214995D01*
Y213006D01*
X127261Y211168D01*
X128668Y209761D01*
X130505Y209000D01*
X132494D01*
X134332Y209761D01*
X135739Y211168D01*
X136500Y213006D01*
Y214995D01*
X135739Y216833D01*
X134332Y218239D01*
X132494Y219000D01*
D02*
G37*
G36*
X246494Y215000D02*
X244505D01*
X242668Y214239D01*
X241261Y212832D01*
X240500Y210995D01*
Y209005D01*
X241261Y207168D01*
X242668Y205761D01*
X244505Y205000D01*
X246494D01*
X248332Y205761D01*
X249739Y207168D01*
X250500Y209005D01*
Y210995D01*
X249739Y212832D01*
X248332Y214239D01*
X246494Y215000D01*
D02*
G37*
G36*
X248053Y198000D02*
X245947D01*
X243912Y197455D01*
X242088Y196402D01*
X240598Y194912D01*
X239545Y193088D01*
X239000Y191053D01*
Y188947D01*
X239545Y186912D01*
X240598Y185088D01*
X242088Y183599D01*
X243912Y182545D01*
X245947Y182000D01*
X248053D01*
X250088Y182545D01*
X251912Y183599D01*
X253402Y185088D01*
X254455Y186912D01*
X255000Y188947D01*
Y191053D01*
X254455Y193088D01*
X253402Y194912D01*
X251912Y196402D01*
X250088Y197455D01*
X248053Y198000D01*
D02*
G37*
G36*
X155495Y192000D02*
X153506D01*
X151668Y191239D01*
X150261Y189832D01*
X149500Y187995D01*
Y186006D01*
X150261Y184168D01*
X151668Y182761D01*
X153506Y182000D01*
X155495D01*
X157332Y182761D01*
X158739Y184168D01*
X159500Y186006D01*
Y187995D01*
X158739Y189832D01*
X157332Y191239D01*
X155495Y192000D01*
D02*
G37*
G36*
X248053Y178001D02*
X245947D01*
X243912Y177455D01*
X242088Y176402D01*
X240598Y174913D01*
X239545Y173088D01*
X239000Y171054D01*
Y168947D01*
X239545Y166913D01*
X240598Y165088D01*
X242088Y163599D01*
X243912Y162546D01*
X245947Y162001D01*
X248053D01*
X250088Y162546D01*
X251912Y163599D01*
X253402Y165088D01*
X254455Y166913D01*
X255000Y168947D01*
Y171054D01*
X254455Y173088D01*
X253402Y174913D01*
X251912Y176402D01*
X250088Y177455D01*
X248053Y178001D01*
D02*
G37*
G36*
X248053Y158000D02*
X245947D01*
X243912Y157455D01*
X242088Y156402D01*
X240599Y154912D01*
X239545Y153088D01*
X239000Y151053D01*
Y148947D01*
X239545Y146912D01*
X240599Y145088D01*
X242088Y143599D01*
X243912Y142545D01*
X245947Y142000D01*
X248053D01*
X250088Y142545D01*
X251912Y143599D01*
X253402Y145088D01*
X254455Y146912D01*
X255000Y148947D01*
Y151053D01*
X254455Y153088D01*
X253402Y154912D01*
X251912Y156402D01*
X250088Y157455D01*
X248053Y158000D01*
D02*
G37*
G36*
X248053Y138000D02*
X245947D01*
X243912Y137455D01*
X242088Y136402D01*
X240598Y134912D01*
X239545Y133088D01*
X239000Y131053D01*
Y128947D01*
X239545Y126912D01*
X240598Y125088D01*
X242088Y123598D01*
X243912Y122545D01*
X245947Y122000D01*
X248053D01*
X250088Y122545D01*
X251912Y123598D01*
X253402Y125088D01*
X254455Y126912D01*
X255000Y128947D01*
Y131053D01*
X254455Y133088D01*
X253402Y134912D01*
X251912Y136402D01*
X250088Y137455D01*
X248053Y138000D01*
D02*
G37*
G36*
X196894Y121000D02*
X194905D01*
X193068Y120239D01*
X191661Y118833D01*
X190900Y116995D01*
Y115006D01*
X191661Y113168D01*
X193068Y111761D01*
X194905Y111000D01*
X196894D01*
X198732Y111761D01*
X200139Y113168D01*
X200900Y115006D01*
Y116995D01*
X200139Y118833D01*
X198732Y120239D01*
X196894Y121000D01*
D02*
G37*
G36*
X248053Y98000D02*
X245947D01*
X243912Y97455D01*
X242088Y96402D01*
X240598Y94912D01*
X239545Y93088D01*
X239000Y91053D01*
Y88947D01*
X239545Y86912D01*
X240598Y85088D01*
X242088Y83598D01*
X243912Y82545D01*
X245947Y82000D01*
X248053D01*
X250088Y82545D01*
X251912Y83598D01*
X253401Y85088D01*
X254455Y86912D01*
X255000Y88947D01*
Y91053D01*
X254455Y93088D01*
X253401Y94912D01*
X251912Y96402D01*
X250088Y97455D01*
X248053Y98000D01*
D02*
G37*
G36*
X155495Y92000D02*
X153505D01*
X151668Y91239D01*
X150261Y89832D01*
X149500Y87994D01*
Y86005D01*
X150261Y84168D01*
X151668Y82761D01*
X153505Y82000D01*
X155495D01*
X157332Y82761D01*
X158739Y84168D01*
X159500Y86005D01*
Y87994D01*
X158739Y89832D01*
X157332Y91239D01*
X155495Y92000D01*
D02*
G37*
G36*
X248053Y78000D02*
X245947D01*
X243912Y77455D01*
X242088Y76402D01*
X240598Y74912D01*
X239545Y73088D01*
X239000Y71053D01*
Y68947D01*
X239545Y66912D01*
X240598Y65088D01*
X242088Y63598D01*
X243912Y62545D01*
X245947Y62000D01*
X248053D01*
X250088Y62545D01*
X251912Y63598D01*
X253401Y65088D01*
X254455Y66912D01*
X255000Y68947D01*
Y71053D01*
X254455Y73088D01*
X253401Y74912D01*
X251912Y76402D01*
X250088Y77455D01*
X248053Y78000D01*
D02*
G37*
G36*
X411995Y70500D02*
X410005D01*
X408168Y69739D01*
X406761Y68332D01*
X406000Y66494D01*
Y64505D01*
X406761Y62668D01*
X408168Y61261D01*
X410005Y60500D01*
X411995D01*
X413832Y61261D01*
X415239Y62668D01*
X416000Y64505D01*
Y66494D01*
X415239Y68332D01*
X413832Y69739D01*
X411995Y70500D01*
D02*
G37*
G36*
X248053Y58000D02*
X245947D01*
X243912Y57455D01*
X242088Y56402D01*
X240599Y54912D01*
X239545Y53088D01*
X239000Y51053D01*
Y48947D01*
X239545Y46912D01*
X240599Y45088D01*
X242088Y43598D01*
X243912Y42545D01*
X245947Y42000D01*
X248053D01*
X250088Y42545D01*
X251912Y43598D01*
X253402Y45088D01*
X254455Y46912D01*
X255000Y48947D01*
Y51053D01*
X254455Y53088D01*
X253402Y54912D01*
X251912Y56402D01*
X250088Y57455D01*
X248053Y58000D01*
D02*
G37*
G36*
X76000Y115000D02*
X52000D01*
Y91000D01*
X71674D01*
X131838Y30837D01*
X131838Y30837D01*
X132830Y30174D01*
X134001Y29941D01*
X150488D01*
X151668Y28761D01*
X153505Y28000D01*
X155495D01*
X157332Y28761D01*
X158739Y30168D01*
X159500Y32005D01*
Y33995D01*
X158739Y35832D01*
X157332Y37239D01*
X155495Y38000D01*
X153505D01*
X151668Y37239D01*
X150488Y36059D01*
X135268D01*
X76000Y95326D01*
Y115000D01*
D02*
G37*
G36*
X248053Y38000D02*
X245947D01*
X243912Y37455D01*
X242088Y36402D01*
X240598Y34912D01*
X239545Y33088D01*
X239000Y31053D01*
Y28947D01*
X239545Y26912D01*
X240598Y25088D01*
X242088Y23598D01*
X243912Y22545D01*
X245947Y22000D01*
X248053D01*
X250088Y22545D01*
X251912Y23598D01*
X253401Y25088D01*
X254455Y26912D01*
X255000Y28947D01*
Y31053D01*
X254455Y33088D01*
X253401Y34912D01*
X251912Y36402D01*
X250088Y37455D01*
X248053Y38000D01*
D02*
G37*
G36*
X65580Y36000D02*
X62421D01*
X59369Y35182D01*
X56632Y33603D01*
X54398Y31368D01*
X52818Y28632D01*
X52000Y25580D01*
Y22420D01*
X52818Y19368D01*
X54398Y16632D01*
X56632Y14398D01*
X59369Y12818D01*
X62421Y12000D01*
X65580D01*
X68632Y12818D01*
X71368Y14398D01*
X73603Y16632D01*
X75182Y19368D01*
X76000Y22420D01*
Y25580D01*
X75182Y28632D01*
X73603Y31368D01*
X71368Y33603D01*
X68632Y35182D01*
X65580Y36000D01*
D02*
G37*
G36*
X196894Y21000D02*
X194905D01*
X193068Y20239D01*
X191661Y18832D01*
X190900Y16995D01*
Y15005D01*
X191661Y13168D01*
X193068Y11761D01*
X194905Y11000D01*
X196894D01*
X198732Y11761D01*
X200139Y13168D01*
X200900Y15005D01*
Y16995D01*
X200139Y18832D01*
X198732Y20239D01*
X196894Y21000D01*
D02*
G37*
%LPD*%
D14*
X450825Y572600D02*
G03*
X453000Y565976I11175J0D01*
G01*
X64000Y223500D02*
Y281750D01*
Y223500D02*
X154500Y133000D01*
X64000Y399885D02*
Y460500D01*
Y399885D02*
X108867Y355018D01*
Y293632D02*
Y355018D01*
Y293632D02*
X154500Y248000D01*
X64000Y639250D02*
X104867Y598383D01*
Y412632D02*
Y598383D01*
Y412632D02*
X154500Y363000D01*
X64000Y757385D02*
Y818000D01*
Y757385D02*
X108868Y712518D01*
Y523633D02*
Y712518D01*
Y523633D02*
X154500Y478000D01*
X295172Y710000D02*
X303485D01*
X294000Y696684D02*
Y708828D01*
X230128Y695513D02*
X292828D01*
X294000Y696684D01*
Y708828D02*
X295172Y710000D01*
X192615Y658000D02*
X230128Y695513D01*
X425251Y395265D02*
X453000Y423015D01*
X414291Y610713D02*
X450259Y574744D01*
X450825Y572600D02*
Y574179D01*
X450259Y574744D02*
X450825Y574179D01*
X453000Y423015D02*
Y565976D01*
X422000Y394500D02*
X422765Y395265D01*
X425251D01*
X408084Y610713D02*
X414291D01*
X400000Y618796D02*
X408084Y610713D01*
X400000Y618796D02*
Y656485D01*
X396000Y660485D02*
X400000Y656485D01*
X396000Y660485D02*
Y664485D01*
X380485Y680000D02*
X396000Y664485D01*
X362000Y680000D02*
X380485D01*
X338000Y704000D02*
X362000Y680000D01*
X330000Y654000D02*
X394000D01*
X265960Y589960D02*
X330000Y654000D01*
X176000Y114000D02*
Y559000D01*
X384343Y684000D02*
X391343Y677000D01*
X360483Y707860D02*
X372000Y696343D01*
X391343Y677000D02*
X392000D01*
X372000Y687515D02*
Y696343D01*
X351140Y707860D02*
X360483D01*
X392000Y677000D02*
X392382Y676618D01*
X460725D01*
X375515Y684000D02*
X384343D01*
X372000Y687515D02*
X375515Y684000D01*
X480000Y550507D02*
Y657343D01*
X457850Y528357D02*
X480000Y550507D01*
X460725Y676618D02*
X480000Y657343D01*
X448000Y394500D02*
X457850Y404350D01*
Y528357D01*
X331000Y728000D02*
X351140Y707860D01*
X462000Y681000D02*
X484000Y659000D01*
X474000Y394500D02*
X484000Y404500D01*
Y659000D01*
X393000Y681000D02*
X462000D01*
X338000Y736000D02*
X378000Y696000D01*
X380485D01*
X384000Y690000D02*
X393000Y681000D01*
X384000Y690000D02*
Y692485D01*
X380485Y696000D02*
X384000Y692485D01*
X163000Y658000D02*
X192615D01*
X145000Y640000D02*
X163000Y658000D01*
X305585Y712100D02*
X322000D01*
X303485Y710000D02*
X305585Y712100D01*
X380000Y672000D02*
X386000Y666000D01*
X334727Y672000D02*
X380000D01*
X331728Y669000D02*
X334727Y672000D01*
X327015Y669000D02*
X331728D01*
X275015Y617000D02*
X327015Y669000D01*
X225515Y617000D02*
X275015D01*
X168000Y559485D02*
X225515Y617000D01*
X168000Y548000D02*
Y559485D01*
X168000Y318000D02*
Y548000D01*
X213054Y589960D02*
X265960D01*
X182094Y559000D02*
X213054Y589960D01*
X176000Y559000D02*
X182094D01*
X183000Y435000D02*
X186000Y432000D01*
X183000Y435000D02*
Y441000D01*
X186000Y432000D02*
X199486D01*
X180243Y443757D02*
X183000Y441000D01*
X176243Y443757D02*
X180243D01*
X176000Y444000D02*
X176243Y443757D01*
X199486Y432000D02*
X220486Y411000D01*
X248728D01*
X277728Y382000D01*
X306000D01*
X176000Y114000D02*
X176000Y114000D01*
X168000Y548000D02*
X168000Y548000D01*
Y318000D02*
X168000Y318000D01*
X168000Y318000D02*
X168000Y318000D01*
X168000Y203000D02*
Y318000D01*
X168000Y203000D02*
X168000Y203000D01*
X168000Y203000D02*
X168000Y203000D01*
Y103000D02*
Y203000D01*
Y103000D02*
X168000Y103000D01*
X438661Y485661D02*
X439250Y486250D01*
X434000Y485661D02*
X438661D01*
X426089Y477750D02*
X434000Y485661D01*
X425750Y477750D02*
X426089D01*
X134001Y33000D02*
X154500D01*
X64000Y103000D02*
X134001Y33000D01*
D84*
X116723Y731000D02*
D03*
X91723Y281000D02*
D03*
X366723Y431000D02*
D03*
X41723Y181000D02*
D03*
X266723Y31000D02*
D03*
X491723Y181000D02*
D03*
X266723Y531000D02*
D03*
X91723Y481000D02*
D03*
X166723Y731000D02*
D03*
X91723Y381000D02*
D03*
X16723Y731000D02*
D03*
X191723Y781000D02*
D03*
X66723Y131000D02*
D03*
X41723Y481000D02*
D03*
X116723Y131000D02*
D03*
X441723Y81000D02*
D03*
X91723Y581000D02*
D03*
X41723Y381000D02*
D03*
X341723Y281000D02*
D03*
X241723Y581000D02*
D03*
X291723Y81000D02*
D03*
X366723Y731000D02*
D03*
X391723Y381000D02*
D03*
X116723Y31000D02*
D03*
X91723Y681000D02*
D03*
X16723Y231000D02*
D03*
X491723Y281000D02*
D03*
X216723Y131000D02*
D03*
X16723Y31000D02*
D03*
X466723Y131000D02*
D03*
X441723Y281000D02*
D03*
X266723Y331000D02*
D03*
Y231000D02*
D03*
X116723Y431000D02*
D03*
X366723Y531000D02*
D03*
X491723Y81000D02*
D03*
X466723Y231000D02*
D03*
X316723Y531000D02*
D03*
Y31000D02*
D03*
X116723Y231000D02*
D03*
X16723Y531000D02*
D03*
X466723Y31000D02*
D03*
X291723Y181000D02*
D03*
Y781000D02*
D03*
X341723Y681000D02*
D03*
X216723Y531000D02*
D03*
X141723Y681000D02*
D03*
X491723Y381000D02*
D03*
X41723Y681000D02*
D03*
X141723Y781000D02*
D03*
X491723D02*
D03*
X16723Y431000D02*
D03*
X341723Y781000D02*
D03*
X16723Y331000D02*
D03*
X116723Y531000D02*
D03*
X41723Y281000D02*
D03*
X491723Y581000D02*
D03*
X216723Y31000D02*
D03*
X266723Y431000D02*
D03*
X341723Y381000D02*
D03*
X491723Y481000D02*
D03*
X291723Y281000D02*
D03*
X266723Y131000D02*
D03*
X166723Y31000D02*
D03*
X141723Y581000D02*
D03*
X16723Y131000D02*
D03*
X66723Y331000D02*
D03*
X416723Y531000D02*
D03*
X441723Y181000D02*
D03*
X391723D02*
D03*
X91723Y781000D02*
D03*
X316723Y631000D02*
D03*
X66723Y531000D02*
D03*
X41723Y81000D02*
D03*
X366723Y331000D02*
D03*
X291723Y581000D02*
D03*
X41723D02*
D03*
X391723Y481000D02*
D03*
X41723Y781000D02*
D03*
X16723Y631000D02*
D03*
X466723Y331000D02*
D03*
X291723Y481000D02*
D03*
X241723Y781000D02*
D03*
X131500Y214000D02*
D03*
X154500Y187000D02*
D03*
Y133000D02*
D03*
X195900Y116000D02*
D03*
X212100D02*
D03*
X154500Y302000D02*
D03*
Y248000D02*
D03*
X195900Y231000D02*
D03*
X212100D02*
D03*
X154500Y417000D02*
D03*
X154500Y363000D02*
D03*
X195900Y346000D02*
D03*
X212100D02*
D03*
X154500Y532000D02*
D03*
X154500Y478000D02*
D03*
X195900Y461000D02*
D03*
X212100D02*
D03*
X278000Y321500D02*
D03*
X479000Y720000D02*
D03*
X489000Y712000D02*
D03*
X221000Y703000D02*
D03*
X243000Y704000D02*
D03*
X276000D02*
D03*
X265000D02*
D03*
X210000Y703000D02*
D03*
X199000D02*
D03*
X338000Y530400D02*
D03*
X430000Y285000D02*
D03*
X403485Y661485D02*
D03*
X406000Y648000D02*
D03*
X394000Y654000D02*
D03*
X145000Y640000D02*
D03*
X322000Y712100D02*
D03*
X281000Y363000D02*
D03*
X306000Y382000D02*
D03*
X168000Y548000D02*
D03*
X168000Y433000D02*
D03*
X168000Y103000D02*
D03*
X168000Y318000D02*
D03*
X168000Y203000D02*
D03*
X400000Y728000D02*
D03*
Y718000D02*
D03*
X410000D02*
D03*
X420000D02*
D03*
Y728000D02*
D03*
Y738000D02*
D03*
X410000D02*
D03*
X400000D02*
D03*
X322000Y788000D02*
D03*
Y756100D02*
D03*
Y771800D02*
D03*
X289000Y370000D02*
D03*
X311000Y336000D02*
D03*
X380000Y524100D02*
D03*
X182000Y469000D02*
D03*
X160000Y492000D02*
D03*
Y505000D02*
D03*
Y518000D02*
D03*
X233000Y505000D02*
D03*
X197000Y541000D02*
D03*
X182000Y354000D02*
D03*
X160000Y377000D02*
D03*
Y390000D02*
D03*
Y403000D02*
D03*
X233000Y390000D02*
D03*
X197000Y426000D02*
D03*
X182000Y239000D02*
D03*
X160000Y262000D02*
D03*
Y275000D02*
D03*
Y288000D02*
D03*
X233000Y275000D02*
D03*
X197000Y311000D02*
D03*
X182000Y124000D02*
D03*
X160000Y147000D02*
D03*
Y160000D02*
D03*
Y173000D02*
D03*
X233000Y160000D02*
D03*
X197000Y196000D02*
D03*
X197000Y96000D02*
D03*
X207000D02*
D03*
X233000Y60000D02*
D03*
X160000Y73000D02*
D03*
Y60000D02*
D03*
Y47000D02*
D03*
X182000Y24000D02*
D03*
X298000Y514000D02*
D03*
X442000Y659000D02*
D03*
X476500Y417000D02*
D03*
X438500Y417000D02*
D03*
X398500Y325200D02*
D03*
X340900Y345000D02*
D03*
X340900Y366000D02*
D03*
X310000Y293000D02*
D03*
X411000Y65500D02*
D03*
X339501Y82000D02*
D03*
Y61000D02*
D03*
Y71500D02*
D03*
X344500Y119000D02*
D03*
X319501Y119000D02*
D03*
X241500Y623000D02*
D03*
X222500D02*
D03*
X166500Y640000D02*
D03*
Y664000D02*
D03*
X254000Y704000D02*
D03*
X210000Y651100D02*
D03*
X231756Y650900D02*
D03*
X254000Y650900D02*
D03*
Y667100D02*
D03*
X210000Y666900D02*
D03*
X231756Y667100D02*
D03*
X139000Y716000D02*
D03*
Y704000D02*
D03*
Y806000D02*
D03*
Y794000D02*
D03*
X301000Y806000D02*
D03*
Y794000D02*
D03*
Y716000D02*
D03*
Y704000D02*
D03*
X322000Y695900D02*
D03*
X307000Y664000D02*
D03*
X306500Y640000D02*
D03*
X320000Y598000D02*
D03*
X345000Y566500D02*
D03*
X377000Y572000D02*
D03*
X385000Y576000D02*
D03*
Y568000D02*
D03*
X369000D02*
D03*
Y576000D02*
D03*
X386000Y607600D02*
D03*
Y623400D02*
D03*
X450000Y666000D02*
D03*
X362000Y690000D02*
D03*
X370000Y666000D02*
D03*
X378000Y690000D02*
D03*
X386000Y666000D02*
D03*
X418000D02*
D03*
X426000Y659000D02*
D03*
X458000D02*
D03*
X489000Y688000D02*
D03*
Y704000D02*
D03*
X482000Y696000D02*
D03*
X331000Y728000D02*
D03*
X338000Y704000D02*
D03*
Y736000D02*
D03*
X474000Y394500D02*
D03*
X448000Y394500D02*
D03*
X422000Y394500D02*
D03*
X133500Y332000D02*
D03*
X399500Y368000D02*
D03*
X357100Y366000D02*
D03*
X357100Y345000D02*
D03*
X310000Y228000D02*
D03*
X411000Y26500D02*
D03*
X332500Y180000D02*
D03*
X303000Y149000D02*
D03*
X303701Y119000D02*
D03*
X360300Y119000D02*
D03*
X125000Y640000D02*
D03*
X195900Y16000D02*
D03*
X154500Y33000D02*
D03*
Y87000D02*
D03*
X176000Y114000D02*
D03*
X189000Y210000D02*
D03*
X176000Y214000D02*
D03*
X189000Y325000D02*
D03*
X176000Y329000D02*
D03*
X212100Y16000D02*
D03*
X245500Y210000D02*
D03*
X245500Y325000D02*
D03*
X176000Y559000D02*
D03*
X176000Y444000D02*
D03*
X189000Y440000D02*
D03*
X209000Y543000D02*
D03*
X245500Y440000D02*
D03*
D87*
X247000Y130000D02*
D03*
X247000Y150000D02*
D03*
X247000Y170000D02*
D03*
Y190000D02*
D03*
X247000Y245000D02*
D03*
X247000Y265000D02*
D03*
X247000Y285000D02*
D03*
Y305000D02*
D03*
X247000Y360000D02*
D03*
X247000Y380000D02*
D03*
X247000Y400000D02*
D03*
Y420000D02*
D03*
X247000Y475000D02*
D03*
Y515000D02*
D03*
Y535000D02*
D03*
X247000Y495000D02*
D03*
X328000Y678000D02*
D03*
X488000Y673000D02*
D03*
X488000Y734000D02*
D03*
X488000Y754000D02*
D03*
X247000Y30000D02*
D03*
X247000Y50000D02*
D03*
X247000Y70000D02*
D03*
Y90000D02*
D03*
D88*
X436000Y319300D02*
D03*
Y332000D02*
D03*
Y344700D02*
D03*
Y357400D02*
D03*
D93*
X425533Y460967D02*
X425750Y460750D01*
X438573D02*
X439926D01*
X439358Y503359D02*
X439945Y502772D01*
X441481D01*
X446500Y466247D02*
Y497753D01*
X427894Y462217D02*
X437106D01*
X438573Y460750D01*
X442253Y462000D02*
X446500Y466247D01*
X425750Y460750D02*
X426427D01*
X427894Y462217D01*
X441177Y462000D02*
X442253D01*
X439926Y460750D02*
X441177Y462000D01*
X441481Y502772D02*
X446500Y497753D01*
D95*
X419744Y460967D02*
X425533D01*
D96*
X258556Y804620D02*
D03*
X190556D02*
D03*
D97*
X64000Y24000D02*
D03*
Y202750D02*
D03*
Y381501D02*
D03*
Y560250D02*
D03*
Y739000D02*
D03*
D98*
Y103000D02*
D03*
Y281750D02*
D03*
Y460500D02*
D03*
Y639250D02*
D03*
Y818000D02*
D03*
D99*
X439250Y486250D02*
D03*
X425750Y477750D02*
D03*
X439250D02*
D03*
X425750Y486250D02*
D03*
X439250Y494750D02*
D03*
X425750Y469250D02*
D03*
X439250Y460750D02*
D03*
Y503250D02*
D03*
X425750D02*
D03*
Y460750D02*
D03*
X439250Y452250D02*
D03*
Y511750D02*
D03*
X425750D02*
D03*
Y452250D02*
D03*
X439250Y469250D02*
D03*
X425750Y494750D02*
D03*
D101*
X435550Y525250D02*
D03*
Y438750D02*
D03*
D102*
X469350Y525250D02*
D03*
Y438750D02*
D03*
D103*
X196000Y390000D02*
D03*
X206000Y380000D02*
D03*
X196000D02*
D03*
X186000D02*
D03*
X206000Y390000D02*
D03*
Y400000D02*
D03*
X196000D02*
D03*
X186000D02*
D03*
Y390000D02*
D03*
X186000Y275000D02*
D03*
Y285000D02*
D03*
X196000D02*
D03*
X206000D02*
D03*
Y275000D02*
D03*
X186000Y265000D02*
D03*
X196000D02*
D03*
X206000D02*
D03*
X196000Y275000D02*
D03*
X186000Y160000D02*
D03*
Y170000D02*
D03*
X196000D02*
D03*
X206000D02*
D03*
Y160000D02*
D03*
X186000Y150000D02*
D03*
X196000D02*
D03*
X206000D02*
D03*
X196000Y160000D02*
D03*
X186000Y60000D02*
D03*
Y70000D02*
D03*
X196000D02*
D03*
X206000D02*
D03*
Y60000D02*
D03*
X186000Y50000D02*
D03*
X196000D02*
D03*
X206000D02*
D03*
X196000Y60000D02*
D03*
X196000Y505000D02*
D03*
X206000Y495000D02*
D03*
X196000D02*
D03*
X186000D02*
D03*
X206000Y505000D02*
D03*
Y515000D02*
D03*
X196000D02*
D03*
X186000D02*
D03*
Y505000D02*
D03*
D104*
X462000Y623400D02*
D03*
Y572600D02*
D03*
X411200Y623400D02*
D03*
Y598000D02*
D03*
D105*
Y572600D02*
D03*
D107*
X193500Y555500D02*
D03*
X128500D02*
D03*
X193500Y600500D02*
D03*
X128500D02*
D03*
X291500Y555500D02*
D03*
X226500D02*
D03*
X291500Y600500D02*
D03*
X226500D02*
D03*
D108*
X349000Y416000D02*
D03*
Y466000D02*
D03*
D109*
X319501Y511901D02*
X338000Y530400D01*
X319501Y119000D02*
Y511901D01*
X410000Y351070D02*
Y451223D01*
X419744Y460967D01*
X363997Y305067D02*
X410000Y351070D01*
X344629Y119129D02*
Y123599D01*
X363997Y142967D01*
Y305067D01*
X344500Y119000D02*
X344629Y119129D01*
M02*
