G04*
G04 #@! TF.GenerationSoftware,Altium Limited,Altium Designer,25.3.3 (18)*
G04*
G04 Layer_Physical_Order=1*
G04 Layer_Color=255*
%FSLAX44Y44*%
%MOMM*%
G71*
G04*
G04 #@! TF.SameCoordinates,E74E417C-EFC3-4B03-BFDF-08B39AB8E956*
G04*
G04*
G04 #@! TF.FilePolarity,Positive*
G04*
G01*
G75*
%ADD14C,0.2000*%
%ADD18R,1.0200X1.4700*%
%ADD19R,1.4500X1.4500*%
%ADD20R,0.7000X0.7000*%
%ADD21R,0.4000X0.8000*%
%ADD22R,0.8000X0.4000*%
%ADD23R,0.6200X1.4000*%
%ADD24R,1.1000X2.4000*%
%ADD25R,1.5000X3.4000*%
%ADD26R,1.0000X3.5000*%
%ADD27R,0.6000X0.3000*%
%ADD28R,0.3000X0.6000*%
%ADD29R,1.0500X1.4000*%
%ADD30R,1.4500X0.9500*%
%ADD31R,1.0000X0.8000*%
%ADD32R,1.0000X1.4500*%
%ADD33R,1.4500X1.0000*%
G04:AMPARAMS|DCode=34|XSize=0.81mm|YSize=0.32mm|CornerRadius=0.04mm|HoleSize=0mm|Usage=FLASHONLY|Rotation=0.000|XOffset=0mm|YOffset=0mm|HoleType=Round|Shape=RoundedRectangle|*
%AMROUNDEDRECTD34*
21,1,0.8100,0.2400,0,0,0.0*
21,1,0.7300,0.3200,0,0,0.0*
1,1,0.0800,0.3650,-0.1200*
1,1,0.0800,-0.3650,-0.1200*
1,1,0.0800,-0.3650,0.1200*
1,1,0.0800,0.3650,0.1200*
%
%ADD34ROUNDEDRECTD34*%
G04:AMPARAMS|DCode=35|XSize=0.81mm|YSize=0.32mm|CornerRadius=0.04mm|HoleSize=0mm|Usage=FLASHONLY|Rotation=90.000|XOffset=0mm|YOffset=0mm|HoleType=Round|Shape=RoundedRectangle|*
%AMROUNDEDRECTD35*
21,1,0.8100,0.2400,0,0,90.0*
21,1,0.7300,0.3200,0,0,90.0*
1,1,0.0800,0.1200,0.3650*
1,1,0.0800,0.1200,-0.3650*
1,1,0.0800,-0.1200,-0.3650*
1,1,0.0800,-0.1200,0.3650*
%
%ADD35ROUNDEDRECTD35*%
%ADD36R,1.4700X1.0200*%
%ADD37R,0.9500X1.4500*%
%ADD38R,0.8000X1.0000*%
%ADD39R,1.1500X1.1500*%
G04:AMPARAMS|DCode=40|XSize=1.26mm|YSize=0.61mm|CornerRadius=0.1525mm|HoleSize=0mm|Usage=FLASHONLY|Rotation=90.000|XOffset=0mm|YOffset=0mm|HoleType=Round|Shape=RoundedRectangle|*
%AMROUNDEDRECTD40*
21,1,1.2600,0.3050,0,0,90.0*
21,1,0.9550,0.6100,0,0,90.0*
1,1,0.3050,0.1525,0.4775*
1,1,0.3050,0.1525,-0.4775*
1,1,0.3050,-0.1525,-0.4775*
1,1,0.3050,-0.1525,0.4775*
%
%ADD40ROUNDEDRECTD40*%
%ADD41R,1.3900X0.9600*%
%ADD42R,0.3500X0.8000*%
%ADD43R,2.5000X1.7500*%
%ADD44R,1.1500X0.6000*%
%ADD45R,0.5500X1.1100*%
%ADD46R,1.4000X0.6000*%
%ADD84C,0.6000*%
%ADD87C,1.2000*%
%ADD88C,1.0000*%
%ADD92R,3.2500X3.2500*%
%ADD93C,0.4000*%
%ADD94C,0.3000*%
%ADD95C,0.6000*%
%ADD96C,0.9500*%
%ADD97C,2.0000*%
%ADD98R,2.0000X2.0000*%
%ADD99C,0.6500*%
%ADD100R,0.6500X0.6500*%
%ADD101O,2.4000X0.9000*%
%ADD102O,1.7000X0.9000*%
%ADD103C,0.5000*%
%ADD104C,1.6350*%
%ADD105R,1.6350X1.6350*%
%ADD106R,1.5080X1.5080*%
%ADD107C,1.5080*%
%ADD108C,1.2800*%
G36*
X20003Y844902D02*
X20145Y844902D01*
X333791D01*
X334000Y781000D01*
X334155Y780845D01*
X496902D01*
Y756593D01*
X495632Y756426D01*
X495455Y757088D01*
X494402Y758912D01*
X492912Y760402D01*
X491088Y761455D01*
X489053Y762000D01*
X486947D01*
X484912Y761455D01*
X483088Y760402D01*
X481598Y758912D01*
X480545Y757088D01*
X480000Y755053D01*
Y752947D01*
X480545Y750912D01*
X480560Y750886D01*
X478381Y748706D01*
X477717Y747714D01*
X477485Y746543D01*
X477485Y746543D01*
Y742810D01*
X476173Y741499D01*
X475000Y741985D01*
X475000Y748000D01*
X475000Y749270D01*
Y756000D01*
Y762730D01*
X475000Y764000D01*
X475000Y765270D01*
Y772000D01*
X463000D01*
X463000Y764000D01*
X463000Y762730D01*
Y756000D01*
X463000Y748000D01*
X463000Y746730D01*
Y740000D01*
Y732000D01*
X463000D01*
Y732000D01*
X463000D01*
X463000Y724000D01*
X463000Y722730D01*
Y716000D01*
Y709270D01*
X463000Y708000D01*
X463000D01*
Y708000D01*
X463000D01*
Y701270D01*
X463000Y700000D01*
X463000D01*
Y700000D01*
X463000D01*
Y692000D01*
Y685652D01*
X462000Y685000D01*
X461730Y685000D01*
X455270D01*
X454000Y685000D01*
Y685000D01*
X454000D01*
Y685000D01*
X439270D01*
X438000Y685000D01*
X436730Y685000D01*
X430000Y685000D01*
X428730Y685000D01*
X415270D01*
X414000Y685000D01*
Y685000D01*
X414000D01*
Y685000D01*
X407270D01*
X406000Y685000D01*
Y685000D01*
X406000D01*
Y685000D01*
X391270D01*
X390000Y685000D01*
Y685000D01*
X390000D01*
Y685000D01*
X382000D01*
Y673000D01*
X382941D01*
X382941Y672999D01*
X382941Y672999D01*
Y670012D01*
X381761Y668832D01*
X381000Y666994D01*
Y665005D01*
X381761Y663167D01*
X383168Y661761D01*
X385005Y661000D01*
X386995D01*
X388832Y661761D01*
X389671Y662600D01*
X390941Y662074D01*
Y658012D01*
X389761Y656832D01*
X389000Y654995D01*
Y653005D01*
X389761Y651168D01*
X391168Y649761D01*
X393005Y649000D01*
X394995D01*
X396832Y649761D01*
X398239Y651168D01*
X399000Y653005D01*
Y654995D01*
X398239Y656832D01*
X397059Y658012D01*
Y673000D01*
X399684D01*
Y664755D01*
X399246Y664317D01*
X398485Y662480D01*
Y660491D01*
X399246Y658653D01*
X400653Y657246D01*
X402491Y656485D01*
X404480D01*
X404993Y656698D01*
X405131Y656630D01*
X405999Y655740D01*
X405850Y654991D01*
X405850Y654991D01*
Y653258D01*
X405592Y653000D01*
X405005D01*
X403168Y652239D01*
X401761Y650832D01*
X401000Y648995D01*
Y647005D01*
X401280Y646329D01*
X400432Y645059D01*
X391651D01*
X386047Y650663D01*
X385055Y651326D01*
X383884Y651559D01*
X383884Y651559D01*
X350351D01*
X350351Y651559D01*
X349180Y651326D01*
X348188Y650663D01*
X348188Y650663D01*
X334087Y636562D01*
X333424Y635570D01*
X333191Y634399D01*
X333191Y634399D01*
Y626267D01*
X330423Y623499D01*
X329250Y623985D01*
Y624750D01*
X310750D01*
Y611250D01*
X311022D01*
X311508Y610077D01*
X304990Y603559D01*
X300557D01*
X300390Y604183D01*
X299134Y606358D01*
X297358Y608134D01*
X295182Y609390D01*
X292756Y610040D01*
X290244D01*
X287818Y609390D01*
X285642Y608134D01*
X283866Y606358D01*
X282610Y604183D01*
X281960Y601756D01*
Y599244D01*
X282610Y596818D01*
X283866Y594642D01*
X285642Y592866D01*
X287818Y591610D01*
X290244Y590960D01*
X292756D01*
X295182Y591610D01*
X297358Y592866D01*
X299134Y594642D01*
X300390Y596818D01*
X300557Y597441D01*
X306257D01*
X306257Y597441D01*
X307428Y597674D01*
X308420Y598337D01*
X309576Y599494D01*
X310750Y599007D01*
Y591250D01*
X329250D01*
Y604750D01*
X316492D01*
X316006Y605923D01*
X317274Y607191D01*
X328492D01*
X328492Y607191D01*
X329663Y607424D01*
X330655Y608087D01*
X342413Y619845D01*
X343076Y620837D01*
X343309Y622007D01*
X343309Y622008D01*
Y631475D01*
X350077Y638243D01*
X351250Y637757D01*
Y628000D01*
X355941D01*
X356174Y626829D01*
X356837Y625837D01*
X361501Y621173D01*
X361015Y620000D01*
X351250D01*
Y615309D01*
X350079Y615076D01*
X349087Y614413D01*
X342837Y608163D01*
X342174Y607170D01*
X341941Y606000D01*
X341941Y606000D01*
Y592500D01*
X341941Y592500D01*
X335750D01*
Y578500D01*
X354250D01*
Y592500D01*
X348059D01*
X348059Y592500D01*
Y604733D01*
X350077Y606751D01*
X351250Y606265D01*
Y604500D01*
X355941D01*
X356174Y603330D01*
X356837Y602337D01*
X364905Y594270D01*
X364379Y593000D01*
X363500D01*
Y581000D01*
X390500D01*
Y583941D01*
X391670Y584174D01*
X392663Y584837D01*
X401047Y593221D01*
X402306Y593055D01*
X403058Y591753D01*
X404952Y589858D01*
X407273Y588518D01*
X409860Y587825D01*
X412539D01*
X415127Y588518D01*
X417448Y589858D01*
X419342Y591753D01*
X420682Y594073D01*
X421375Y596660D01*
Y599340D01*
X420682Y601927D01*
X419342Y604248D01*
X417448Y606142D01*
X415127Y607482D01*
X412539Y608175D01*
X409860D01*
X407273Y607482D01*
X404952Y606142D01*
X403058Y604248D01*
X401718Y601927D01*
X401358Y600584D01*
X401025D01*
X401025Y600584D01*
X399854Y600351D01*
X398862Y599688D01*
X398862Y599688D01*
X391673Y592499D01*
X390500Y592985D01*
Y593000D01*
X389809D01*
X389576Y594170D01*
X388913Y595163D01*
X382113Y601963D01*
X381120Y602626D01*
X379950Y602859D01*
X379950Y602859D01*
X379075D01*
X371463Y610471D01*
Y618596D01*
X371230Y619767D01*
X370567Y620759D01*
X364499Y626827D01*
X364985Y628000D01*
X366750D01*
Y641441D01*
X377729D01*
X385333Y633837D01*
X386326Y633174D01*
X387496Y632941D01*
X387496Y632941D01*
X404836D01*
X405176Y631671D01*
X404952Y631542D01*
X403058Y629648D01*
X401718Y627327D01*
X401025Y624740D01*
Y622061D01*
X401718Y619473D01*
X403058Y617152D01*
X404952Y615258D01*
X407273Y613918D01*
X409860Y613225D01*
X412539D01*
X415127Y613918D01*
X417448Y615258D01*
X419342Y617152D01*
X420682Y619473D01*
X421375Y622061D01*
Y624740D01*
X420682Y627327D01*
X419342Y629648D01*
X417448Y631542D01*
X417224Y631671D01*
X417564Y632941D01*
X427485D01*
X427485Y632941D01*
X428656Y633174D01*
X429648Y633837D01*
X452163Y656351D01*
X452163Y656351D01*
X452254Y656488D01*
X453687Y656347D01*
X453761Y656168D01*
X455168Y654761D01*
X457005Y654000D01*
X458994D01*
X460832Y654761D01*
X462239Y656168D01*
X463000Y658005D01*
Y659994D01*
X462239Y661832D01*
X461059Y663012D01*
Y673000D01*
X462000D01*
Y683348D01*
X463000Y684000D01*
X463270Y684000D01*
X475000D01*
Y684941D01*
X484988D01*
X486168Y683761D01*
X488005Y683000D01*
X489995D01*
X491832Y683761D01*
X493239Y685168D01*
X494000Y687005D01*
Y688995D01*
X493239Y690832D01*
X491832Y692239D01*
X489995Y693000D01*
X488005D01*
X487449Y692769D01*
X486477Y693741D01*
X487000Y695005D01*
Y696994D01*
X486476Y698259D01*
X487448Y699231D01*
X488005Y699000D01*
X489995D01*
X491832Y699761D01*
X493239Y701168D01*
X494000Y703005D01*
Y704994D01*
X493239Y706832D01*
X492071Y708000D01*
X493239Y709168D01*
X494000Y711005D01*
Y712995D01*
X493239Y714832D01*
X491832Y716239D01*
X489995Y717000D01*
X488005D01*
X486168Y716239D01*
X484987Y715059D01*
X482926D01*
X482399Y716329D01*
X483239Y717168D01*
X484000Y719005D01*
Y720995D01*
X483239Y722832D01*
X481832Y724239D01*
X479995Y725000D01*
X478122D01*
X477869Y725305D01*
X477485Y726159D01*
X480552Y729226D01*
X481598Y729088D01*
X483088Y727598D01*
X484912Y726545D01*
X486946Y726000D01*
X489053D01*
X491088Y726545D01*
X492912Y727598D01*
X494401Y729088D01*
X495454Y730912D01*
X495632Y731575D01*
X496902Y731408D01*
X496902Y675593D01*
X495632Y675426D01*
X495455Y676088D01*
X494402Y677912D01*
X492912Y679402D01*
X491088Y680455D01*
X489053Y681000D01*
X486947D01*
X484912Y680455D01*
X483088Y679402D01*
X481598Y677912D01*
X480545Y676088D01*
X480000Y674053D01*
Y671947D01*
X480545Y669912D01*
X481598Y668088D01*
X483088Y666598D01*
X484912Y665545D01*
X486947Y665000D01*
X489053D01*
X491088Y665545D01*
X492912Y666598D01*
X494402Y668088D01*
X495455Y669912D01*
X495632Y670574D01*
X496902Y670407D01*
X496903Y10000D01*
Y8532D01*
X496330Y5653D01*
X495206Y2941D01*
X493576Y500D01*
X491500Y-1575D01*
X489059Y-3206D01*
X486347Y-4329D01*
X483468Y-4902D01*
X482063Y-4902D01*
X20319Y-4902D01*
X20317Y-4902D01*
X20315Y-4902D01*
X19996Y-4902D01*
X18532D01*
X15653Y-4330D01*
X12941Y-3206D01*
X10500Y-1575D01*
X8425Y500D01*
X6794Y2941D01*
X5670Y5653D01*
X5098Y8532D01*
X5098Y10000D01*
X5098Y830000D01*
Y831468D01*
X5671Y834347D01*
X6794Y837059D01*
X8425Y839500D01*
X10500Y841575D01*
X12941Y843206D01*
X15653Y844330D01*
X18532Y844902D01*
X20000Y844902D01*
X20001Y844902D01*
X20003Y844902D01*
D02*
G37*
%LPC*%
G36*
X76000Y830000D02*
X52000D01*
Y806000D01*
X76000D01*
Y830000D01*
D02*
G37*
G36*
X259445Y811370D02*
X257667D01*
X255951Y810910D01*
X254411Y810021D01*
X253155Y808764D01*
X252266Y807225D01*
X251806Y805508D01*
Y803731D01*
X252266Y802014D01*
X253155Y800475D01*
X254411Y799219D01*
X255951Y798330D01*
X257667Y797870D01*
X259445D01*
X261161Y798330D01*
X262701Y799219D01*
X263957Y800475D01*
X264846Y802014D01*
X265306Y803731D01*
Y805508D01*
X264846Y807225D01*
X263957Y808764D01*
X262701Y810021D01*
X261161Y810910D01*
X259445Y811370D01*
D02*
G37*
G36*
X191445D02*
X189667D01*
X187951Y810910D01*
X186411Y810021D01*
X185155Y808764D01*
X184266Y807225D01*
X183806Y805508D01*
Y803731D01*
X184266Y802014D01*
X185155Y800475D01*
X186411Y799219D01*
X187951Y798330D01*
X189667Y797870D01*
X191445D01*
X193161Y798330D01*
X194701Y799219D01*
X195957Y800475D01*
X196846Y802014D01*
X197306Y803731D01*
Y805508D01*
X196846Y807225D01*
X195957Y808764D01*
X194701Y810021D01*
X193161Y810910D01*
X191445Y811370D01*
D02*
G37*
G36*
X331350Y778900D02*
X312650D01*
Y764700D01*
X331350D01*
Y778900D01*
D02*
G37*
G36*
Y763200D02*
X312650D01*
Y749000D01*
X331350D01*
X331350Y749000D01*
X332620Y749080D01*
X333889Y748232D01*
X335450Y747922D01*
X335450Y747922D01*
X345000D01*
Y740255D01*
X345000Y739059D01*
X345000Y739059D01*
X342012D01*
X340832Y740239D01*
X338995Y741000D01*
X337006D01*
X335168Y740239D01*
X333761Y738832D01*
X333000Y736995D01*
Y735005D01*
X333524Y733741D01*
X332552Y732769D01*
X331995Y733000D01*
X330005D01*
X328168Y732239D01*
X326761Y730832D01*
X326000Y728994D01*
Y727005D01*
X326761Y725168D01*
X328168Y723761D01*
X330005Y723000D01*
X331995D01*
X333832Y723761D01*
X335012Y724941D01*
X344206D01*
X345000Y724000D01*
X345000Y722730D01*
Y715059D01*
X331853D01*
X331350Y715159D01*
Y719200D01*
X312650D01*
Y705000D01*
X331350D01*
Y708859D01*
X331450Y708941D01*
X331450Y708941D01*
X334074D01*
X334600Y707671D01*
X333761Y706832D01*
X333000Y704995D01*
Y703006D01*
X333761Y701168D01*
X335168Y699761D01*
X337006Y699000D01*
X338878D01*
X339131Y698696D01*
X339515Y697841D01*
X335970Y694296D01*
X335307Y693304D01*
X335074Y692133D01*
X335074Y692133D01*
Y689400D01*
X331114Y685440D01*
X331088Y685455D01*
X329053Y686000D01*
X326946D01*
X324912Y685455D01*
X323088Y684402D01*
X321598Y682912D01*
X320545Y681088D01*
X320537Y681059D01*
X314552D01*
X303028Y692583D01*
X302035Y693246D01*
X300865Y693479D01*
X300865Y693479D01*
X291856D01*
Y699420D01*
X282126D01*
X280856Y699420D01*
X280287Y699420D01*
X279761Y700690D01*
X280239Y701168D01*
X281000Y703005D01*
Y704995D01*
X280239Y706832D01*
X278832Y708239D01*
X276995Y709000D01*
X275005D01*
X273168Y708239D01*
X271761Y706832D01*
X271173Y705413D01*
X269827D01*
X269239Y706832D01*
X267832Y708239D01*
X265995Y709000D01*
X264005D01*
X262168Y708239D01*
X260761Y706832D01*
X260000Y704995D01*
Y703005D01*
X260761Y701168D01*
X261239Y700690D01*
X260713Y699420D01*
X259656D01*
Y681420D01*
X261453D01*
Y676488D01*
X261453Y676488D01*
X261656Y675470D01*
X261560Y675136D01*
X260905Y674200D01*
X244650D01*
Y660000D01*
X262941D01*
Y632250D01*
X253500D01*
Y613750D01*
X267500D01*
Y627924D01*
X268163Y628587D01*
X268163Y628587D01*
X268826Y629579D01*
X269059Y630750D01*
Y675000D01*
X269059Y675000D01*
X268826Y676171D01*
X268163Y677163D01*
X268163Y677163D01*
X267571Y677755D01*
Y680522D01*
X268469Y681420D01*
X270656Y681420D01*
X271126Y681420D01*
X272698D01*
Y653994D01*
X272698Y653994D01*
X272930Y652823D01*
X273593Y651831D01*
X280500Y644924D01*
Y630750D01*
X294500D01*
Y649250D01*
X284826D01*
X280596Y653480D01*
X281122Y654750D01*
X293506D01*
Y673250D01*
X289815D01*
Y681420D01*
X291856D01*
Y687361D01*
X299598D01*
X311122Y675837D01*
X312114Y675174D01*
X313285Y674941D01*
X320537D01*
X320545Y674912D01*
X321598Y673088D01*
X323088Y671598D01*
X324912Y670545D01*
X326946Y670000D01*
X329053D01*
X331088Y670545D01*
X332912Y671598D01*
X334401Y673088D01*
X335454Y674912D01*
X336000Y676947D01*
Y679053D01*
X335454Y681088D01*
X335439Y681114D01*
X340296Y685970D01*
X340296Y685970D01*
X340959Y686963D01*
X341192Y688133D01*
X341192Y688133D01*
Y690866D01*
X343267Y692941D01*
X345000D01*
Y692000D01*
X357000D01*
Y698730D01*
X357000Y700000D01*
X357000Y701270D01*
Y706730D01*
X357000Y708000D01*
X357000D01*
Y708000D01*
X357000D01*
Y716000D01*
Y722730D01*
X357000Y724000D01*
X357000Y725270D01*
Y730730D01*
X357000Y732000D01*
X357000D01*
Y732000D01*
X357000D01*
Y740000D01*
Y748000D01*
X357000D01*
X357000Y749270D01*
Y756000D01*
X351394D01*
X351000Y756078D01*
X337140D01*
X334234Y758984D01*
X332911Y759868D01*
X331350Y760178D01*
Y763200D01*
D02*
G37*
G36*
X65580Y751000D02*
X62421D01*
X59369Y750182D01*
X56632Y748603D01*
X54398Y746368D01*
X52818Y743632D01*
X52000Y740580D01*
Y737420D01*
X52818Y734368D01*
X54398Y731632D01*
X56632Y729398D01*
X59369Y727818D01*
X62421Y727000D01*
X65580D01*
X68632Y727818D01*
X71368Y729398D01*
X73603Y731632D01*
X75182Y734368D01*
X76000Y737420D01*
Y740580D01*
X75182Y743632D01*
X73603Y746368D01*
X71368Y748603D01*
X68632Y750182D01*
X65580Y751000D01*
D02*
G37*
G36*
X243995Y709000D02*
X242005D01*
X240168Y708239D01*
X238761Y706832D01*
X238000Y704995D01*
Y703005D01*
X238761Y701168D01*
X239239Y700690D01*
X238713Y699420D01*
X236856Y699420D01*
X236386Y699420D01*
X226656D01*
Y699420D01*
X225856D01*
X225455Y700690D01*
X226000Y702005D01*
Y703995D01*
X225239Y705832D01*
X223832Y707239D01*
X221995Y708000D01*
X220005D01*
X218168Y707239D01*
X216761Y705832D01*
X216173Y704413D01*
X214827D01*
X214239Y705832D01*
X212832Y707239D01*
X210995Y708000D01*
X209005D01*
X207168Y707239D01*
X205761Y705832D01*
X205173Y704413D01*
X203827D01*
X203239Y705832D01*
X201832Y707239D01*
X199995Y708000D01*
X198005D01*
X196168Y707239D01*
X194761Y705832D01*
X194000Y703995D01*
Y702005D01*
X194545Y700690D01*
X193850Y699420D01*
X193656D01*
Y686682D01*
X193507Y686583D01*
X193507Y686583D01*
X183337Y676413D01*
X182674Y675421D01*
X182441Y674250D01*
X181698Y673250D01*
X178500D01*
Y654750D01*
X191462D01*
X191878Y654750D01*
X192404Y653480D01*
X188174Y649250D01*
X178500D01*
Y630750D01*
X192500D01*
Y644924D01*
X200741Y653165D01*
X200741Y653165D01*
X201404Y654157D01*
X201637Y655328D01*
Y660100D01*
X217697D01*
Y643773D01*
X206174Y632250D01*
X196500D01*
Y613750D01*
X210500D01*
Y627924D01*
X214230Y631654D01*
X215500Y631128D01*
Y613750D01*
X229500D01*
Y632250D01*
X216622D01*
X216096Y633520D01*
X222919Y640343D01*
X223582Y641336D01*
X223815Y642506D01*
X223815Y642506D01*
Y660000D01*
X241106D01*
Y674200D01*
X236854D01*
Y680482D01*
X237656Y681420D01*
X238126Y681420D01*
X247856D01*
Y699420D01*
X247287D01*
X246761Y700690D01*
X247239Y701168D01*
X248000Y703005D01*
Y704995D01*
X247239Y706832D01*
X245832Y708239D01*
X243995Y709000D01*
D02*
G37*
G36*
X366000Y685000D02*
X364730Y685000D01*
X358000D01*
Y673000D01*
X365734Y673000D01*
X366000Y673000D01*
X366941Y672206D01*
Y670012D01*
X365761Y668832D01*
X365000Y666994D01*
Y665005D01*
X365761Y663167D01*
X367168Y661761D01*
X369005Y661000D01*
X370994D01*
X372832Y661761D01*
X374239Y663167D01*
X375000Y665005D01*
Y666994D01*
X374239Y668832D01*
X373059Y670012D01*
Y672999D01*
X373059Y673000D01*
X374000Y673000D01*
Y685000D01*
X367270D01*
X366000Y685000D01*
D02*
G37*
G36*
X313506Y673250D02*
X300006D01*
Y654750D01*
X313506D01*
Y673250D01*
D02*
G37*
G36*
X173500D02*
X159500D01*
Y654750D01*
X173500D01*
Y673250D01*
D02*
G37*
G36*
X313500Y649250D02*
X299500D01*
Y630750D01*
X313500D01*
Y649250D01*
D02*
G37*
G36*
X173500D02*
X159500D01*
Y630750D01*
X173500D01*
Y649250D01*
D02*
G37*
G36*
X131750Y649250D02*
X118250D01*
Y630750D01*
X131750D01*
Y649250D01*
D02*
G37*
G36*
X76000Y651250D02*
X52000D01*
Y627250D01*
X76000D01*
Y651250D01*
D02*
G37*
G36*
X394950Y630200D02*
X377050D01*
Y616600D01*
X394950D01*
Y630200D01*
D02*
G37*
G36*
X248500Y632250D02*
X234500D01*
Y613750D01*
X248500D01*
Y632250D01*
D02*
G37*
G36*
X463340Y633575D02*
X460660D01*
X458073Y632882D01*
X455752Y631542D01*
X453858Y629648D01*
X452518Y627327D01*
X451825Y624740D01*
Y622061D01*
X452518Y619473D01*
X453858Y617152D01*
X455752Y615258D01*
X458073Y613918D01*
X460660Y613225D01*
X463340D01*
X465927Y613918D01*
X468248Y615258D01*
X470142Y617152D01*
X471482Y619473D01*
X472175Y622061D01*
Y624740D01*
X471482Y627327D01*
X470142Y629648D01*
X468248Y631542D01*
X465927Y632882D01*
X463340Y633575D01*
D02*
G37*
G36*
X236040Y610040D02*
X216960D01*
Y590960D01*
X236040D01*
Y610040D01*
D02*
G37*
G36*
X194756Y610040D02*
X192244D01*
X189818Y609390D01*
X187642Y608134D01*
X185866Y606358D01*
X184610Y604182D01*
X183960Y601756D01*
Y599244D01*
X184610Y596818D01*
X185866Y594642D01*
X187642Y592866D01*
X189818Y591610D01*
X192244Y590960D01*
X194756D01*
X197182Y591610D01*
X199358Y592866D01*
X201134Y594642D01*
X202390Y596818D01*
X203040Y599244D01*
Y601756D01*
X202390Y604182D01*
X201134Y606358D01*
X199358Y608134D01*
X197182Y609390D01*
X194756Y610040D01*
D02*
G37*
G36*
X463340Y582775D02*
X460660D01*
X458073Y582082D01*
X455752Y580742D01*
X453858Y578848D01*
X452518Y576527D01*
X451825Y573940D01*
Y571260D01*
X452518Y568673D01*
X453858Y566353D01*
X455752Y564458D01*
X458073Y563119D01*
X460660Y562425D01*
X463340D01*
X465927Y563119D01*
X468248Y564458D01*
X470142Y566353D01*
X471482Y568673D01*
X472175Y571260D01*
Y573940D01*
X471482Y576527D01*
X470142Y578848D01*
X468248Y580742D01*
X465927Y582082D01*
X463340Y582775D01*
D02*
G37*
G36*
X421375D02*
X401025D01*
Y562425D01*
X421375D01*
Y582775D01*
D02*
G37*
G36*
X176995Y564000D02*
X175005D01*
X173168Y563239D01*
X171761Y561832D01*
X171000Y559995D01*
Y558005D01*
X171761Y556168D01*
X172941Y554988D01*
Y551926D01*
X171671Y551400D01*
X170832Y552239D01*
X168995Y553000D01*
X167005D01*
X165168Y552239D01*
X163761Y550832D01*
X163000Y548995D01*
Y547005D01*
X163761Y545168D01*
X165168Y543761D01*
X167005Y543000D01*
X167624D01*
X179353Y531271D01*
Y525850D01*
X179539Y524913D01*
X180070Y524120D01*
X180863Y523589D01*
X181800Y523403D01*
X184200D01*
X185136Y523589D01*
X185316Y523709D01*
X186250Y524015D01*
X187183Y523709D01*
X187363Y523589D01*
X188300Y523403D01*
X190700D01*
X191636Y523589D01*
X192430Y524120D01*
X192961Y524913D01*
X193147Y525850D01*
Y533150D01*
X192961Y534086D01*
X192430Y534880D01*
X191636Y535411D01*
X191632Y535411D01*
X191063Y536263D01*
X191063Y536263D01*
X179059Y548267D01*
Y554988D01*
X180239Y556168D01*
X181000Y558005D01*
Y559995D01*
X180239Y561832D01*
X178832Y563239D01*
X176995Y564000D01*
D02*
G37*
G36*
X65580Y572250D02*
X62421D01*
X59369Y571432D01*
X56632Y569852D01*
X54398Y567618D01*
X52818Y564882D01*
X52000Y561830D01*
Y558670D01*
X52818Y555618D01*
X54398Y552882D01*
X56632Y550648D01*
X59369Y549068D01*
X62421Y548250D01*
X65580D01*
X68632Y549068D01*
X71368Y550648D01*
X73603Y552882D01*
X75182Y555618D01*
X76000Y558670D01*
Y561830D01*
X75182Y564882D01*
X73603Y567618D01*
X71368Y569852D01*
X68632Y571432D01*
X65580Y572250D01*
D02*
G37*
G36*
X203040Y565040D02*
X183960D01*
Y545960D01*
X203040D01*
Y565040D01*
D02*
G37*
G36*
X151750Y649250D02*
X138250D01*
Y630750D01*
X141941D01*
Y595267D01*
X126337Y579663D01*
X125674Y578671D01*
X125441Y577500D01*
X125441Y577500D01*
Y564557D01*
X124818Y564390D01*
X122642Y563134D01*
X120866Y561358D01*
X119610Y559183D01*
X118960Y556756D01*
Y554244D01*
X119610Y551818D01*
X120866Y549642D01*
X122642Y547866D01*
X124818Y546610D01*
X127244Y545960D01*
X129756D01*
X132182Y546610D01*
X134358Y547866D01*
X136134Y549642D01*
X137390Y551818D01*
X138040Y554244D01*
Y556756D01*
X137390Y559183D01*
X136134Y561358D01*
X134358Y563134D01*
X132182Y564390D01*
X131559Y564557D01*
Y576233D01*
X147163Y591837D01*
X147163Y591837D01*
X147826Y592829D01*
X148059Y594000D01*
Y630750D01*
X151750D01*
Y649250D01*
D02*
G37*
G36*
X227756Y565040D02*
X225244D01*
X222818Y564390D01*
X220643Y563134D01*
X218866Y561358D01*
X217610Y559182D01*
X216960Y556756D01*
Y554244D01*
X217610Y551818D01*
X218866Y549642D01*
X220643Y547866D01*
X222818Y546610D01*
X225244Y545960D01*
X227756D01*
X230182Y546610D01*
X232358Y547866D01*
X234134Y549642D01*
X235390Y551818D01*
X236040Y554244D01*
Y556756D01*
X235390Y559182D01*
X234134Y561358D01*
X232358Y563134D01*
X230182Y564390D01*
X227756Y565040D01*
D02*
G37*
G36*
X390500Y563000D02*
X370000D01*
Y551000D01*
X376172D01*
Y547957D01*
X375922Y546700D01*
X371050D01*
Y544160D01*
X370950Y544078D01*
X370950Y544078D01*
X367750D01*
Y545000D01*
X352250D01*
Y535000D01*
X367750D01*
Y535922D01*
X370547D01*
X371050Y535822D01*
Y533100D01*
X388950D01*
Y535822D01*
X393061D01*
X395366Y533516D01*
X395366Y533516D01*
X396689Y532632D01*
X398250Y532322D01*
Y528850D01*
X407750D01*
Y543950D01*
X398250D01*
Y543900D01*
X396980Y543221D01*
X396311Y543668D01*
X394750Y543979D01*
X394750Y543978D01*
X388950D01*
Y546700D01*
X384534D01*
X384328Y546950D01*
X384328Y546950D01*
Y551000D01*
X390500D01*
Y555412D01*
X390518Y555439D01*
X390828Y557000D01*
X390518Y558560D01*
X390500Y558587D01*
Y563000D01*
D02*
G37*
G36*
X248053Y543000D02*
X245947D01*
X243912Y542455D01*
X242088Y541402D01*
X240598Y539912D01*
X239545Y538088D01*
X239000Y536053D01*
Y533947D01*
X239545Y531912D01*
X239560Y531886D01*
X228733Y521059D01*
X225688D01*
X225086Y521461D01*
X224150Y521647D01*
X216850D01*
X215914Y521461D01*
X215120Y520931D01*
X214589Y520137D01*
X214403Y519200D01*
Y516800D01*
X214589Y515864D01*
X214710Y515684D01*
X215015Y514750D01*
X214710Y513816D01*
X214589Y513636D01*
X214403Y512700D01*
Y510300D01*
X214589Y509364D01*
X215120Y508570D01*
X215914Y508039D01*
X216850Y507853D01*
X224150D01*
X225086Y508039D01*
X225689Y508442D01*
X232115D01*
X232115Y508442D01*
X233285Y508675D01*
X234277Y509338D01*
X236881Y511941D01*
X239537D01*
X239545Y511912D01*
X240598Y510088D01*
X242088Y508599D01*
X243912Y507545D01*
X245947Y507000D01*
X248053D01*
X250088Y507545D01*
X251912Y508599D01*
X253401Y510088D01*
X254455Y511912D01*
X255000Y513947D01*
Y516054D01*
X254455Y518088D01*
X253401Y519912D01*
X251912Y521402D01*
X250088Y522455D01*
X248053Y523000D01*
X245947D01*
X243912Y522455D01*
X242088Y521402D01*
X240598Y519912D01*
X239545Y518088D01*
X239537Y518059D01*
X236180D01*
X235654Y519329D01*
X243886Y527560D01*
X243912Y527545D01*
X245947Y527000D01*
X248053D01*
X250088Y527545D01*
X251912Y528598D01*
X253401Y530088D01*
X254455Y531912D01*
X255000Y533947D01*
Y536053D01*
X254455Y538088D01*
X253401Y539912D01*
X251912Y541402D01*
X250088Y542455D01*
X248053Y543000D01*
D02*
G37*
G36*
X345750Y535400D02*
X330250D01*
Y525400D01*
X345750D01*
Y535400D01*
D02*
G37*
G36*
X209995Y548000D02*
X208006D01*
X206168Y547239D01*
X204761Y545832D01*
X204000Y543995D01*
Y542005D01*
X204761Y540168D01*
X205941Y538988D01*
Y534688D01*
X205539Y534086D01*
X205353Y533150D01*
Y525850D01*
X205539Y524913D01*
X206070Y524120D01*
X206863Y523589D01*
X207800Y523403D01*
X210200D01*
X211136Y523589D01*
X211930Y524120D01*
X212461Y524913D01*
X212647Y525850D01*
Y533150D01*
X212461Y534086D01*
X212059Y534688D01*
Y538988D01*
X213239Y540168D01*
X214000Y542005D01*
Y543995D01*
X213239Y545832D01*
X211832Y547239D01*
X209995Y548000D01*
D02*
G37*
G36*
X161500Y541250D02*
X147500D01*
Y522750D01*
X161500D01*
Y541250D01*
D02*
G37*
G36*
X367750Y525800D02*
X352250D01*
Y523859D01*
X351079Y523626D01*
X350087Y522963D01*
X344183Y517059D01*
X324750D01*
Y523250D01*
X311250D01*
Y504750D01*
X324750D01*
Y510941D01*
X345450D01*
X345450Y510941D01*
X346621Y511174D01*
X347613Y511837D01*
X351132Y515356D01*
X352250Y515800D01*
Y515800D01*
X352250Y515800D01*
X355950D01*
X356232Y514383D01*
X357116Y513059D01*
X359459Y510716D01*
X359459Y510716D01*
X360783Y509832D01*
X362343Y509522D01*
X398250D01*
Y506050D01*
X407750D01*
Y506173D01*
X408923Y506659D01*
X415216Y500366D01*
X415216Y500366D01*
X416539Y499482D01*
X418100Y499172D01*
X420951D01*
X421478Y497902D01*
X421300Y497724D01*
X420500Y495794D01*
Y493705D01*
X421300Y491776D01*
X422575Y490500D01*
X421300Y489224D01*
X420500Y487294D01*
Y485206D01*
X421300Y483276D01*
X422575Y482000D01*
X421300Y480724D01*
X420500Y478794D01*
Y476706D01*
X421300Y474776D01*
X422575Y473500D01*
X421300Y472224D01*
X420500Y470295D01*
Y468665D01*
X417337Y465501D01*
X416674Y464509D01*
X416441Y463339D01*
X416441Y463338D01*
Y426250D01*
X412500D01*
Y407750D01*
X426500D01*
Y426250D01*
X422559D01*
Y455015D01*
X423829Y455863D01*
X424706Y455500D01*
X426795D01*
X428724Y456299D01*
X430201Y457776D01*
X431000Y459706D01*
Y461794D01*
X430201Y463724D01*
X428925Y465000D01*
X430201Y466276D01*
X431000Y468206D01*
Y470295D01*
X430201Y472224D01*
X428925Y473500D01*
X430201Y474776D01*
X431000Y476706D01*
Y478794D01*
X430201Y480724D01*
X428925Y482000D01*
X430201Y483276D01*
X431000Y485206D01*
Y487294D01*
X430201Y489224D01*
X428925Y490500D01*
X430201Y491776D01*
X431000Y493705D01*
Y495794D01*
X430201Y497724D01*
X430023Y497902D01*
X430549Y499172D01*
X434451D01*
X434977Y497902D01*
X434799Y497724D01*
X434000Y495794D01*
Y493705D01*
X434799Y491776D01*
X436075Y490500D01*
X434799Y489224D01*
X434000Y487294D01*
Y485206D01*
X434799Y483276D01*
X436075Y482000D01*
X434799Y480724D01*
X434000Y478794D01*
Y476706D01*
X434799Y474776D01*
X436075Y473500D01*
X434799Y472224D01*
X434000Y470295D01*
Y468206D01*
X434799Y466276D01*
X436075Y465000D01*
X434799Y463724D01*
X434000Y461794D01*
Y459706D01*
X434799Y457776D01*
X436276Y456299D01*
X438205Y455500D01*
X440294D01*
X442224Y456299D01*
X443700Y457776D01*
X444500Y459706D01*
Y461794D01*
X443700Y463724D01*
X442424Y465000D01*
X443700Y466276D01*
X444500Y468206D01*
Y470295D01*
X443700Y472224D01*
X442425Y473500D01*
X443700Y474776D01*
X444500Y476706D01*
Y478794D01*
X443700Y480724D01*
X442425Y482000D01*
X443700Y483276D01*
X444064Y484153D01*
X445562Y484451D01*
X451941Y478072D01*
Y426250D01*
X450500D01*
Y407750D01*
X464500D01*
Y426250D01*
X458059D01*
Y479339D01*
X457826Y480509D01*
X457163Y481501D01*
X444500Y494165D01*
Y495794D01*
X443700Y497724D01*
X442424Y499000D01*
X443700Y500276D01*
X444500Y502206D01*
Y504295D01*
X443700Y506224D01*
X442224Y507701D01*
X440294Y508500D01*
X438205D01*
X436276Y507701D01*
X435904Y507329D01*
X429096D01*
X428724Y507701D01*
X426795Y508500D01*
X424706D01*
X422776Y507701D01*
X422404Y507329D01*
X419789D01*
X410634Y516484D01*
X409311Y517368D01*
X407750Y517678D01*
Y521150D01*
X398250D01*
Y517678D01*
X367750D01*
Y525800D01*
D02*
G37*
G36*
X142500Y541250D02*
X128500D01*
Y522750D01*
X132441D01*
Y520200D01*
X128650D01*
Y506000D01*
X147350D01*
Y508442D01*
X166311D01*
X166913Y508039D01*
X167850Y507853D01*
X175150D01*
X176086Y508039D01*
X176880Y508570D01*
X177411Y509364D01*
X177597Y510300D01*
Y512700D01*
X177411Y513636D01*
X176880Y514430D01*
X176086Y514961D01*
X175150Y515147D01*
X167850D01*
X166913Y514961D01*
X166313Y514559D01*
X147350D01*
Y520200D01*
X138559D01*
Y522750D01*
X142500D01*
Y541250D01*
D02*
G37*
G36*
X248053Y503000D02*
X245947D01*
X243912Y502455D01*
X242088Y501402D01*
X240599Y499912D01*
X239545Y498088D01*
X239538Y498059D01*
X236707D01*
X234103Y500663D01*
X233110Y501326D01*
X231940Y501559D01*
X231940Y501559D01*
X225688D01*
X225086Y501961D01*
X224150Y502147D01*
X216850D01*
X215914Y501961D01*
X215120Y501431D01*
X214589Y500637D01*
X214403Y499700D01*
Y497300D01*
X214589Y496364D01*
X214710Y496184D01*
X215015Y495250D01*
X214710Y494316D01*
X214589Y494136D01*
X214403Y493200D01*
Y490800D01*
X214589Y489863D01*
X215120Y489070D01*
X215914Y488539D01*
X216850Y488353D01*
X224150D01*
X225086Y488539D01*
X225689Y488941D01*
X228733D01*
X239560Y478114D01*
X239545Y478088D01*
X239000Y476053D01*
Y473946D01*
X239545Y471912D01*
X240598Y470088D01*
X242088Y468598D01*
X243912Y467545D01*
X245947Y467000D01*
X248053D01*
X250088Y467545D01*
X251912Y468598D01*
X253401Y470088D01*
X254455Y471912D01*
X255000Y473946D01*
Y476053D01*
X254455Y478088D01*
X253401Y479912D01*
X251912Y481401D01*
X250088Y482454D01*
X248053Y483000D01*
X245947D01*
X243912Y482454D01*
X243886Y482440D01*
X235654Y490671D01*
X236180Y491941D01*
X239538D01*
X239545Y491912D01*
X240599Y490088D01*
X242088Y488599D01*
X243912Y487545D01*
X245947Y487000D01*
X248053D01*
X250088Y487545D01*
X251912Y488599D01*
X253402Y490088D01*
X254455Y491912D01*
X255000Y493947D01*
Y496053D01*
X254455Y498088D01*
X253402Y499912D01*
X251912Y501402D01*
X250088Y502455D01*
X248053Y503000D01*
D02*
G37*
G36*
X147350Y504000D02*
X128650D01*
Y489800D01*
X132441D01*
Y487250D01*
X128500D01*
Y468750D01*
X142500D01*
Y487250D01*
X138559D01*
Y489800D01*
X147350D01*
Y495441D01*
X166312D01*
X166913Y495039D01*
X167850Y494853D01*
X175150D01*
X176086Y495039D01*
X176880Y495570D01*
X177411Y496364D01*
X177597Y497300D01*
Y499700D01*
X177411Y500637D01*
X176880Y501431D01*
X176086Y501961D01*
X175150Y502147D01*
X167850D01*
X166913Y501961D01*
X166312Y501559D01*
X147350D01*
Y504000D01*
D02*
G37*
G36*
X161500Y487250D02*
X147500D01*
Y468750D01*
X161500D01*
Y487250D01*
D02*
G37*
G36*
X350106Y474400D02*
X347894D01*
X345758Y473828D01*
X343842Y472722D01*
X342278Y471158D01*
X341172Y469242D01*
X340600Y467106D01*
Y464894D01*
X341172Y462758D01*
X342278Y460842D01*
X343842Y459278D01*
X345758Y458172D01*
X347894Y457600D01*
X350106D01*
X352242Y458172D01*
X354158Y459278D01*
X355722Y460842D01*
X356828Y462758D01*
X357400Y464894D01*
Y467106D01*
X356828Y469242D01*
X355722Y471158D01*
X354158Y472722D01*
X352242Y473828D01*
X350106Y474400D01*
D02*
G37*
G36*
X197200Y486597D02*
X194800D01*
X193864Y486411D01*
X193070Y485881D01*
X192539Y485087D01*
X192353Y484150D01*
Y476850D01*
X192539Y475914D01*
X192941Y475312D01*
Y470350D01*
X188800D01*
Y451650D01*
X203000D01*
Y470350D01*
X199059D01*
Y475312D01*
X199461Y475914D01*
X199647Y476850D01*
Y484150D01*
X199461Y485087D01*
X198930Y485881D01*
X198137Y486411D01*
X197200Y486597D01*
D02*
G37*
G36*
X76000Y472500D02*
X52000D01*
Y448500D01*
X76000D01*
Y472500D01*
D02*
G37*
G36*
X176995Y449000D02*
X175006D01*
X173168Y448239D01*
X171762Y446832D01*
X171000Y444995D01*
Y443005D01*
X171762Y441168D01*
X172942Y439988D01*
Y436926D01*
X171672Y436400D01*
X170833Y437239D01*
X168995Y438000D01*
X167006D01*
X165168Y437239D01*
X163762Y435832D01*
X163000Y433994D01*
Y432005D01*
X163762Y430168D01*
X165168Y428761D01*
X167006Y428000D01*
X167624D01*
X179353Y416271D01*
Y410850D01*
X179540Y409913D01*
X180070Y409119D01*
X180864Y408589D01*
X181800Y408403D01*
X184200D01*
X185137Y408589D01*
X185931Y409119D01*
X186570D01*
X187364Y408589D01*
X188300Y408403D01*
X190700D01*
X191637Y408589D01*
X192430Y409119D01*
X192961Y409913D01*
X193147Y410850D01*
Y418150D01*
X192961Y419086D01*
X192430Y419880D01*
X192168Y420056D01*
X191976Y421020D01*
X191313Y422013D01*
X191313Y422013D01*
X179059Y434267D01*
Y439988D01*
X180239Y441168D01*
X181000Y443005D01*
Y444995D01*
X180239Y446832D01*
X178833Y448239D01*
X176995Y449000D01*
D02*
G37*
G36*
X252500Y449250D02*
X238500D01*
Y430750D01*
X252500D01*
Y449250D01*
D02*
G37*
G36*
X215750Y449250D02*
X202250D01*
Y430750D01*
X205942D01*
Y419688D01*
X205539Y419086D01*
X205353Y418150D01*
Y410850D01*
X205539Y409913D01*
X206070Y409119D01*
X206864Y408589D01*
X207800Y408403D01*
X210200D01*
X211137Y408589D01*
X211931Y409119D01*
X212461Y409913D01*
X212647Y410850D01*
Y418150D01*
X212461Y419086D01*
X212059Y419688D01*
Y430750D01*
X215750D01*
Y436941D01*
X219500D01*
Y430750D01*
X233500D01*
Y449250D01*
X219500D01*
Y443059D01*
X215750D01*
Y449250D01*
D02*
G37*
G36*
X248053Y428000D02*
X245947D01*
X243912Y427455D01*
X242088Y426402D01*
X240599Y424912D01*
X239545Y423088D01*
X239000Y421053D01*
Y418947D01*
X239545Y416912D01*
X239561Y416886D01*
X228733Y406059D01*
X225688D01*
X225087Y406460D01*
X224150Y406647D01*
X216850D01*
X215914Y406460D01*
X215120Y405930D01*
X214590Y405136D01*
X214403Y404200D01*
Y401800D01*
X214590Y400863D01*
X214710Y400684D01*
X215015Y399750D01*
X214710Y398816D01*
X214590Y398636D01*
X214403Y397700D01*
Y395300D01*
X214590Y394363D01*
X215120Y393570D01*
X215914Y393039D01*
X216850Y392853D01*
X224150D01*
X225087Y393039D01*
X225688Y393441D01*
X232115D01*
X232115Y393441D01*
X233286Y393674D01*
X234278Y394337D01*
X236882Y396941D01*
X239538D01*
X239545Y396912D01*
X240599Y395088D01*
X242088Y393598D01*
X243912Y392545D01*
X245947Y392000D01*
X248053D01*
X250088Y392545D01*
X251912Y393598D01*
X253402Y395088D01*
X254455Y396912D01*
X255000Y398947D01*
Y401053D01*
X254455Y403088D01*
X253402Y404912D01*
X251912Y406401D01*
X250088Y407455D01*
X248053Y408000D01*
X245947D01*
X243912Y407455D01*
X242088Y406401D01*
X240599Y404912D01*
X239545Y403088D01*
X239538Y403059D01*
X236181D01*
X235655Y404328D01*
X243886Y412560D01*
X243912Y412545D01*
X245947Y412000D01*
X248053D01*
X250088Y412545D01*
X251912Y413598D01*
X253402Y415088D01*
X254455Y416912D01*
X255000Y418947D01*
Y421053D01*
X254455Y423088D01*
X253402Y424912D01*
X251912Y426402D01*
X250088Y427455D01*
X248053Y428000D01*
D02*
G37*
G36*
X161500Y426250D02*
X147500D01*
Y407750D01*
X161500D01*
Y426250D01*
D02*
G37*
G36*
X142500D02*
X128500D01*
Y407750D01*
X132441D01*
Y405200D01*
X128650D01*
Y391000D01*
X147350D01*
Y393441D01*
X166312D01*
X166914Y393039D01*
X167850Y392853D01*
X175150D01*
X176087Y393039D01*
X176880Y393570D01*
X177411Y394363D01*
X177597Y395300D01*
Y397700D01*
X177411Y398636D01*
X176880Y399430D01*
X176087Y399961D01*
X175150Y400147D01*
X167850D01*
X166914Y399961D01*
X166312Y399559D01*
X147350D01*
Y405200D01*
X138559D01*
Y407750D01*
X142500D01*
Y426250D01*
D02*
G37*
G36*
X457250Y401500D02*
X438750D01*
Y387500D01*
X457250D01*
Y401500D01*
D02*
G37*
G36*
X483250Y401500D02*
X464750D01*
Y387500D01*
X483250D01*
Y401500D01*
D02*
G37*
G36*
X431250Y401500D02*
X412750D01*
Y387500D01*
X431250D01*
Y401500D01*
D02*
G37*
G36*
X248053Y388000D02*
X245947D01*
X243912Y387455D01*
X242088Y386401D01*
X240598Y384912D01*
X239545Y383088D01*
X239537Y383058D01*
X236707D01*
X234103Y385662D01*
X233111Y386326D01*
X231940Y386558D01*
X231940Y386558D01*
X225689D01*
X225087Y386961D01*
X224150Y387147D01*
X216850D01*
X215914Y386961D01*
X215120Y386430D01*
X214590Y385637D01*
X214403Y384700D01*
Y382300D01*
X214590Y381364D01*
X214710Y381184D01*
X215015Y380250D01*
X214710Y379316D01*
X214590Y379136D01*
X214403Y378200D01*
Y375800D01*
X214590Y374863D01*
X215120Y374070D01*
X215914Y373539D01*
X216850Y373353D01*
X224150D01*
X225087Y373539D01*
X225688Y373941D01*
X228733D01*
X239560Y363114D01*
X239545Y363088D01*
X239000Y361053D01*
Y358947D01*
X239545Y356912D01*
X240598Y355088D01*
X242088Y353598D01*
X243912Y352545D01*
X245947Y352000D01*
X248053D01*
X250088Y352545D01*
X251912Y353598D01*
X253402Y355088D01*
X254455Y356912D01*
X255000Y358947D01*
Y361053D01*
X254455Y363088D01*
X253402Y364912D01*
X251912Y366401D01*
X250088Y367455D01*
X248053Y368000D01*
X245947D01*
X243912Y367455D01*
X243886Y367440D01*
X235655Y375671D01*
X236181Y376941D01*
X239537D01*
X239545Y376912D01*
X240598Y375088D01*
X242088Y373598D01*
X243912Y372545D01*
X245947Y372000D01*
X248053D01*
X250088Y372545D01*
X251912Y373598D01*
X253402Y375088D01*
X254455Y376912D01*
X255000Y378947D01*
Y381053D01*
X254455Y383088D01*
X253402Y384912D01*
X251912Y386401D01*
X250088Y387455D01*
X248053Y388000D01*
D02*
G37*
G36*
X147350Y389000D02*
X128650D01*
Y374800D01*
X132441D01*
Y372250D01*
X128500D01*
Y353750D01*
X142500D01*
Y372250D01*
X138559D01*
Y374800D01*
X147350D01*
Y380441D01*
X166313D01*
X166914Y380039D01*
X167850Y379853D01*
X175150D01*
X176087Y380039D01*
X176880Y380570D01*
X177411Y381364D01*
X177597Y382300D01*
Y384700D01*
X177411Y385637D01*
X176880Y386430D01*
X176087Y386961D01*
X175150Y387147D01*
X167850D01*
X166914Y386961D01*
X166311Y386558D01*
X147350D01*
Y389000D01*
D02*
G37*
G36*
X65580Y393501D02*
X62421D01*
X59369Y392683D01*
X56632Y391103D01*
X54398Y388869D01*
X52818Y386133D01*
X52000Y383080D01*
Y379921D01*
X52818Y376869D01*
X54398Y374132D01*
X56632Y371898D01*
X59369Y370318D01*
X62421Y369501D01*
X65580D01*
X68632Y370318D01*
X71368Y371898D01*
X73603Y374132D01*
X75182Y376869D01*
X76000Y379921D01*
Y383080D01*
X75182Y386133D01*
X73603Y388869D01*
X71368Y391103D01*
X68632Y392683D01*
X65580Y393501D01*
D02*
G37*
G36*
X306995Y387000D02*
X305005D01*
X303168Y386239D01*
X301761Y384832D01*
X301000Y382995D01*
Y381005D01*
X301761Y379168D01*
X302941Y377988D01*
Y375000D01*
X302500D01*
Y366500D01*
X294000D01*
Y366059D01*
X285013D01*
X283832Y367239D01*
X281995Y368000D01*
X280005D01*
X278168Y367239D01*
X276761Y365832D01*
X276000Y363995D01*
Y362005D01*
X276761Y360168D01*
X278168Y358761D01*
X280005Y358000D01*
X281995D01*
X283832Y358761D01*
X285012Y359941D01*
X294000D01*
Y359500D01*
X304000D01*
Y365000D01*
X318000D01*
Y359500D01*
Y351000D01*
X317500D01*
Y341000D01*
X324500D01*
Y349431D01*
X326522D01*
X327331Y348622D01*
Y347900D01*
X327603Y346534D01*
X328377Y345376D01*
X331277Y342476D01*
X332434Y341703D01*
X333800Y341431D01*
Y335650D01*
X348000D01*
Y354350D01*
X333800D01*
Y354043D01*
X332530Y353517D01*
X330523Y355523D01*
X329366Y356297D01*
X328000Y356568D01*
Y364957D01*
X329270Y365483D01*
X331277Y363476D01*
X332435Y362703D01*
X333800Y362431D01*
Y356650D01*
X348000D01*
Y375350D01*
X333800D01*
Y372706D01*
X332627Y372220D01*
X332323Y372523D01*
X331166Y373297D01*
X329800Y373569D01*
X324500D01*
Y375000D01*
X309059D01*
Y377988D01*
X310239Y379168D01*
X311000Y381005D01*
Y382995D01*
X310239Y384832D01*
X308832Y386239D01*
X306995Y387000D01*
D02*
G37*
G36*
X457250Y382500D02*
X438750D01*
Y368500D01*
X442015D01*
X442501Y367326D01*
X438952Y363778D01*
X438702Y363923D01*
X436922Y364400D01*
X435079D01*
X433298Y363923D01*
X431702Y363001D01*
X430399Y361698D01*
X429477Y360102D01*
X429000Y358322D01*
Y356478D01*
X429477Y354698D01*
X430399Y353102D01*
X431702Y351799D01*
X433298Y350877D01*
X435079Y350400D01*
X436922D01*
X438702Y350877D01*
X440298Y351799D01*
X441601Y353102D01*
X442523Y354698D01*
X443000Y356478D01*
Y358322D01*
X442820Y358994D01*
X450163Y366337D01*
X450163Y366337D01*
X450826Y367329D01*
X451059Y368500D01*
X457250D01*
Y382500D01*
D02*
G37*
G36*
X406500Y377250D02*
X392500D01*
Y358750D01*
X406500D01*
Y377250D01*
D02*
G37*
G36*
X161500Y372250D02*
X147500D01*
Y353750D01*
X161500D01*
Y372250D01*
D02*
G37*
G36*
X314500Y351000D02*
X307500D01*
Y341000D01*
X314500D01*
Y351000D01*
D02*
G37*
G36*
X304000Y356500D02*
X294000D01*
Y356059D01*
X292830Y355826D01*
X291837Y355163D01*
X288462Y351787D01*
X287799Y350795D01*
X287566Y349625D01*
X287566Y349624D01*
Y348639D01*
X287250Y347500D01*
X268750D01*
Y333500D01*
X287250D01*
Y337441D01*
X288420Y337674D01*
X289413Y338337D01*
X292788Y341712D01*
X293451Y342705D01*
X293684Y343875D01*
Y348358D01*
X294826Y349500D01*
X297500D01*
Y341000D01*
X304500D01*
Y351000D01*
X304000D01*
Y356500D01*
D02*
G37*
G36*
X483250Y382500D02*
X464750D01*
Y368500D01*
X468015D01*
X468501Y367327D01*
X439333Y338159D01*
X438702Y338523D01*
X436922Y339000D01*
X435079D01*
X433298Y338523D01*
X431702Y337601D01*
X430399Y336298D01*
X429477Y334702D01*
X429000Y332922D01*
Y332422D01*
X427730Y331896D01*
X425059Y334567D01*
Y368500D01*
X431250D01*
Y382500D01*
X412750D01*
Y368500D01*
X418941D01*
Y333300D01*
X418941Y333300D01*
X419174Y332129D01*
X419837Y331137D01*
X429370Y321604D01*
X429000Y320222D01*
Y318378D01*
X429477Y316598D01*
X430399Y315002D01*
X431702Y313699D01*
X433298Y312777D01*
X435079Y312300D01*
X436922D01*
X438702Y312777D01*
X440298Y313699D01*
X441601Y315002D01*
X442523Y316598D01*
X443000Y318378D01*
Y320222D01*
X442523Y322002D01*
X441601Y323598D01*
X440298Y324901D01*
X440101Y325015D01*
Y326285D01*
X440298Y326399D01*
X441601Y327702D01*
X442523Y329298D01*
X443000Y331078D01*
Y332922D01*
X442947Y333121D01*
X476163Y366337D01*
X476826Y367330D01*
X477059Y368500D01*
X483250D01*
Y382500D01*
D02*
G37*
G36*
X197200Y371597D02*
X194800D01*
X193864Y371411D01*
X193070Y370881D01*
X192539Y370087D01*
X192353Y369150D01*
Y361850D01*
X192539Y360914D01*
X192942Y360312D01*
Y355350D01*
X188800D01*
Y336650D01*
X203000D01*
Y355350D01*
X199059D01*
Y360313D01*
X199461Y360914D01*
X199647Y361850D01*
Y369150D01*
X199461Y370087D01*
X198930Y370881D01*
X198136Y371411D01*
X197200Y371597D01*
D02*
G37*
G36*
X350106Y424400D02*
X347894D01*
X345758Y423828D01*
X343842Y422722D01*
X342278Y421158D01*
X341172Y419242D01*
X340600Y417106D01*
Y414894D01*
X341172Y412758D01*
X342278Y410842D01*
X343842Y409278D01*
X345758Y408172D01*
X347894Y407600D01*
X350106D01*
X352242Y408172D01*
X352407Y408267D01*
X377441Y383233D01*
Y377250D01*
X373500D01*
Y358750D01*
X377441D01*
X377674Y357579D01*
X378337Y356587D01*
X381162Y353762D01*
X382155Y353099D01*
X383325Y352866D01*
X383325Y352866D01*
X383944D01*
X384586Y351596D01*
X384155Y350950D01*
X383881Y349575D01*
Y340025D01*
X384155Y338650D01*
X384934Y337484D01*
X386100Y336704D01*
X387475Y336431D01*
X390525D01*
X391900Y336704D01*
X393066Y337484D01*
X393845Y338650D01*
X394119Y340025D01*
Y349575D01*
X393845Y350950D01*
X393066Y352116D01*
X392059Y352790D01*
Y353100D01*
X392059Y353100D01*
X391826Y354271D01*
X391163Y355263D01*
X391163Y355263D01*
X388338Y358088D01*
X388197Y358182D01*
X387500Y358750D01*
Y377250D01*
X383559D01*
Y384500D01*
X383326Y385671D01*
X382663Y386663D01*
X382663Y386663D01*
X356733Y412593D01*
X356828Y412758D01*
X357400Y414894D01*
Y417106D01*
X356828Y419242D01*
X355722Y421158D01*
X354158Y422722D01*
X352242Y423828D01*
X350106Y424400D01*
D02*
G37*
G36*
X140750Y341000D02*
X126250D01*
Y323000D01*
X140750D01*
Y341000D01*
D02*
G37*
G36*
X252500Y334250D02*
X238500D01*
Y315750D01*
X252500D01*
Y334250D01*
D02*
G37*
G36*
X215750Y334250D02*
X202250D01*
Y315750D01*
X205941D01*
Y304688D01*
X205539Y304087D01*
X205353Y303150D01*
Y295850D01*
X205539Y294914D01*
X206070Y294120D01*
X206864Y293589D01*
X207800Y293403D01*
X210200D01*
X211136Y293589D01*
X211930Y294120D01*
X212461Y294914D01*
X212647Y295850D01*
Y303150D01*
X212461Y304087D01*
X212059Y304688D01*
Y315750D01*
X215750D01*
Y321941D01*
X219500D01*
Y315750D01*
X233500D01*
Y334250D01*
X219500D01*
Y328059D01*
X215750D01*
Y334250D01*
D02*
G37*
G36*
X287250Y328500D02*
X268750D01*
Y314500D01*
X287250D01*
Y328500D01*
D02*
G37*
G36*
X381025Y333569D02*
X377975D01*
X376600Y333295D01*
X375434Y332516D01*
X374655Y331350D01*
X374381Y329975D01*
Y320425D01*
X374655Y319050D01*
X375434Y317884D01*
X376441Y317210D01*
Y311500D01*
X370250D01*
Y297500D01*
X388750D01*
Y311500D01*
X382559D01*
Y317210D01*
X383566Y317884D01*
X384346Y319050D01*
X384619Y320425D01*
Y329975D01*
X384346Y331350D01*
X383566Y332516D01*
X382400Y333295D01*
X381025Y333569D01*
D02*
G37*
G36*
X248053Y313000D02*
X245947D01*
X243912Y312455D01*
X242088Y311402D01*
X240599Y309912D01*
X239545Y308088D01*
X239000Y306053D01*
Y303947D01*
X239545Y301912D01*
X239560Y301886D01*
X228733Y291059D01*
X225688D01*
X225087Y291461D01*
X224150Y291647D01*
X216850D01*
X215914Y291461D01*
X215120Y290930D01*
X214590Y290137D01*
X214403Y289200D01*
Y286800D01*
X214590Y285864D01*
X215120Y285070D01*
Y284431D01*
X214590Y283637D01*
X214403Y282700D01*
Y280300D01*
X214590Y279364D01*
X215120Y278570D01*
X215914Y278039D01*
X216850Y277853D01*
X224150D01*
X225087Y278039D01*
X225688Y278442D01*
X232115D01*
X232115Y278441D01*
X233285Y278674D01*
X234278Y279337D01*
X236882Y281941D01*
X239538D01*
X239545Y281912D01*
X240599Y280088D01*
X242088Y278599D01*
X243912Y277546D01*
X245947Y277000D01*
X248053D01*
X250088Y277546D01*
X251912Y278599D01*
X253402Y280088D01*
X254455Y281912D01*
X255000Y283947D01*
Y286054D01*
X254455Y288088D01*
X253402Y289912D01*
X251912Y291402D01*
X250088Y292455D01*
X248053Y293000D01*
X245947D01*
X243912Y292455D01*
X242088Y291402D01*
X240599Y289912D01*
X239545Y288088D01*
X239537Y288059D01*
X236181D01*
X235655Y289329D01*
X243886Y297560D01*
X243912Y297545D01*
X245947Y297000D01*
X248053D01*
X250088Y297545D01*
X251912Y298598D01*
X253402Y300088D01*
X254455Y301912D01*
X255000Y303947D01*
Y306053D01*
X254455Y308088D01*
X253402Y309912D01*
X251912Y311402D01*
X250088Y312455D01*
X248053Y313000D01*
D02*
G37*
G36*
X159750Y341000D02*
X145250D01*
Y323000D01*
X159351D01*
X159985Y322712D01*
X160525Y322051D01*
X160667Y321338D01*
X161329Y320345D01*
X163000Y318675D01*
Y317006D01*
X163761Y315168D01*
X165168Y313762D01*
X167006Y313000D01*
X168674D01*
X179341Y302333D01*
Y300100D01*
X179341Y300100D01*
X179353Y300041D01*
Y295850D01*
X179539Y294914D01*
X180070Y294120D01*
X180864Y293589D01*
X181800Y293403D01*
X184200D01*
X185137Y293589D01*
X185930Y294120D01*
X186570D01*
X187364Y293589D01*
X188300Y293403D01*
X190700D01*
X191636Y293589D01*
X192430Y294120D01*
X192961Y294914D01*
X193147Y295850D01*
Y303150D01*
X192961Y304087D01*
X192430Y304881D01*
X192168Y305056D01*
X191976Y306021D01*
X191313Y307013D01*
X191313Y307013D01*
X179059Y319267D01*
Y324988D01*
X180239Y326168D01*
X181000Y328006D01*
Y329995D01*
X180239Y331833D01*
X178832Y333239D01*
X176995Y334000D01*
X175006D01*
X173168Y333239D01*
X171761Y331833D01*
X171000Y329995D01*
Y328006D01*
X171761Y326168D01*
X172941Y324988D01*
Y321926D01*
X171672Y321400D01*
X170833Y322239D01*
X168995Y323000D01*
X167326D01*
X166551Y323775D01*
Y328258D01*
X166551Y328258D01*
X166318Y329428D01*
X165655Y330421D01*
X165655Y330421D01*
X161913Y334163D01*
X160921Y334826D01*
X159750Y335059D01*
Y341000D01*
D02*
G37*
G36*
X161500Y311250D02*
X147500D01*
Y292750D01*
X161500D01*
Y311250D01*
D02*
G37*
G36*
X317000Y299000D02*
X303000D01*
Y287000D01*
X317000D01*
Y299000D01*
D02*
G37*
G36*
X388750Y292500D02*
X370250D01*
Y278500D01*
X388750D01*
Y281941D01*
X425988D01*
X427168Y280761D01*
X429005Y280000D01*
X430995D01*
X432832Y280761D01*
X434239Y282168D01*
X435000Y284005D01*
Y285995D01*
X434239Y287832D01*
X432832Y289239D01*
X430995Y290000D01*
X429005D01*
X427168Y289239D01*
X425988Y288059D01*
X388750D01*
Y292500D01*
D02*
G37*
G36*
X142500Y311250D02*
X128500D01*
Y292750D01*
X132441D01*
Y290200D01*
X128650D01*
Y276000D01*
X147350D01*
Y278442D01*
X166312D01*
X166914Y278039D01*
X167850Y277853D01*
X175150D01*
X176087Y278039D01*
X176880Y278570D01*
X177411Y279364D01*
X177597Y280300D01*
Y282700D01*
X177411Y283637D01*
X176880Y284431D01*
X176087Y284961D01*
X175150Y285147D01*
X167850D01*
X166914Y284961D01*
X166312Y284559D01*
X147350D01*
Y290200D01*
X138559D01*
Y292750D01*
X142500D01*
Y311250D01*
D02*
G37*
G36*
X76000Y293750D02*
X52000D01*
Y269750D01*
X76000D01*
Y293750D01*
D02*
G37*
G36*
X248053Y273000D02*
X245947D01*
X243912Y272455D01*
X242088Y271402D01*
X240599Y269912D01*
X239545Y268088D01*
X239538Y268059D01*
X236707D01*
X234103Y270663D01*
X233110Y271326D01*
X231940Y271559D01*
X231940Y271559D01*
X225688D01*
X225087Y271961D01*
X224150Y272147D01*
X216850D01*
X215914Y271961D01*
X215120Y271430D01*
X214590Y270636D01*
X214403Y269700D01*
Y267300D01*
X214590Y266364D01*
X214710Y266184D01*
X215015Y265250D01*
X214710Y264316D01*
X214590Y264137D01*
X214403Y263200D01*
Y260800D01*
X214590Y259864D01*
X215120Y259070D01*
X215914Y258539D01*
X216850Y258353D01*
X224150D01*
X225087Y258539D01*
X225688Y258941D01*
X228733D01*
X239560Y248114D01*
X239545Y248088D01*
X239000Y246053D01*
Y243947D01*
X239545Y241912D01*
X240599Y240088D01*
X242088Y238598D01*
X243912Y237545D01*
X245947Y237000D01*
X248053D01*
X250088Y237545D01*
X251912Y238598D01*
X253402Y240088D01*
X254455Y241912D01*
X255000Y243947D01*
Y246053D01*
X254455Y248088D01*
X253402Y249912D01*
X251912Y251401D01*
X250088Y252455D01*
X248053Y253000D01*
X245947D01*
X243912Y252455D01*
X243886Y252440D01*
X235655Y260671D01*
X236181Y261941D01*
X239538D01*
X239545Y261912D01*
X240599Y260088D01*
X242088Y258598D01*
X243912Y257545D01*
X245947Y257000D01*
X248053D01*
X250088Y257545D01*
X251912Y258598D01*
X253402Y260088D01*
X254455Y261912D01*
X255000Y263947D01*
Y266053D01*
X254455Y268088D01*
X253402Y269912D01*
X251912Y271402D01*
X250088Y272455D01*
X248053Y273000D01*
D02*
G37*
G36*
X147350Y274000D02*
X128650D01*
Y259800D01*
X132441D01*
Y257250D01*
X128500D01*
Y238750D01*
X142500D01*
Y257250D01*
X138559D01*
Y259800D01*
X147350D01*
Y265441D01*
X166312D01*
X166914Y265039D01*
X167850Y264853D01*
X175150D01*
X176087Y265039D01*
X176880Y265570D01*
X177411Y266364D01*
X177597Y267300D01*
Y269700D01*
X177411Y270636D01*
X176880Y271430D01*
X176087Y271961D01*
X175150Y272147D01*
X167850D01*
X166914Y271961D01*
X166312Y271559D01*
X147350D01*
Y274000D01*
D02*
G37*
G36*
X317000Y279000D02*
X303000D01*
Y267000D01*
X306941D01*
Y254750D01*
X306941Y254750D01*
X306941Y254750D01*
X300750D01*
Y241250D01*
X319250D01*
Y254750D01*
X313059D01*
X313058Y254751D01*
Y267000D01*
X317000D01*
Y279000D01*
D02*
G37*
G36*
X161500Y257250D02*
X147500D01*
Y238750D01*
X161500D01*
Y257250D01*
D02*
G37*
G36*
X197200Y256597D02*
X194800D01*
X193864Y256411D01*
X193070Y255880D01*
X192539Y255086D01*
X192353Y254150D01*
Y246850D01*
X192539Y245914D01*
X192941Y245311D01*
Y240350D01*
X188800D01*
Y221650D01*
X203000D01*
Y240350D01*
X199059D01*
Y245313D01*
X199461Y245914D01*
X199647Y246850D01*
Y254150D01*
X199461Y255086D01*
X198930Y255880D01*
X198136Y256411D01*
X197200Y256597D01*
D02*
G37*
G36*
X233500Y219250D02*
X219500D01*
Y213059D01*
X215750D01*
Y219250D01*
X202250D01*
Y200750D01*
X205941D01*
Y189688D01*
X205539Y189086D01*
X205353Y188150D01*
Y180850D01*
X205539Y179914D01*
X206070Y179120D01*
X206863Y178589D01*
X207800Y178403D01*
X210200D01*
X211136Y178589D01*
X211930Y179120D01*
X212461Y179914D01*
X212647Y180850D01*
Y188150D01*
X212461Y189086D01*
X212059Y189688D01*
Y200750D01*
X215750D01*
Y206941D01*
X219500D01*
Y200750D01*
X233500D01*
Y219250D01*
D02*
G37*
G36*
X157750Y223000D02*
X143250D01*
Y205000D01*
X157750D01*
Y210941D01*
X157750Y210941D01*
X157750Y210941D01*
X171988D01*
X172941Y209988D01*
Y206926D01*
X171671Y206400D01*
X170832Y207239D01*
X168995Y208000D01*
X167005D01*
X165168Y207239D01*
X163761Y205832D01*
X163000Y203995D01*
Y202006D01*
X163761Y200168D01*
X165168Y198761D01*
X167005Y198000D01*
X167624D01*
X179353Y186271D01*
Y180850D01*
X179539Y179914D01*
X180070Y179120D01*
X180863Y178589D01*
X181800Y178403D01*
X184200D01*
X185136Y178589D01*
X185930Y179120D01*
X186569D01*
X187363Y178589D01*
X188300Y178403D01*
X190700D01*
X191636Y178589D01*
X192430Y179120D01*
X192960Y179914D01*
X193147Y180850D01*
Y188150D01*
X192960Y189086D01*
X192430Y189880D01*
X192168Y190056D01*
X191976Y191021D01*
X191313Y192013D01*
X191313Y192013D01*
X179059Y204267D01*
Y209988D01*
X180239Y211168D01*
X181000Y213005D01*
Y214995D01*
X180239Y216832D01*
X178832Y218239D01*
X176995Y219000D01*
X175005D01*
X173168Y218239D01*
X171988Y217059D01*
X157751D01*
X157750Y217059D01*
Y223000D01*
D02*
G37*
G36*
X138750D02*
X124250D01*
Y205000D01*
X138750D01*
Y223000D01*
D02*
G37*
G36*
X252500Y219250D02*
X238500D01*
Y200750D01*
X252500D01*
Y219250D01*
D02*
G37*
G36*
X65580Y214750D02*
X62421D01*
X59369Y213932D01*
X56632Y212353D01*
X54398Y210118D01*
X52818Y207382D01*
X52000Y204330D01*
Y201170D01*
X52818Y198118D01*
X54398Y195382D01*
X56632Y193148D01*
X59369Y191568D01*
X62421Y190750D01*
X65580D01*
X68632Y191568D01*
X71368Y193148D01*
X73603Y195382D01*
X75182Y198118D01*
X76000Y201170D01*
Y204330D01*
X75182Y207382D01*
X73603Y210118D01*
X71368Y212353D01*
X68632Y213932D01*
X65580Y214750D01*
D02*
G37*
G36*
X248053Y198000D02*
X245947D01*
X243912Y197455D01*
X242088Y196402D01*
X240598Y194912D01*
X239545Y193088D01*
X239000Y191053D01*
Y188947D01*
X239545Y186912D01*
X239560Y186886D01*
X228733Y176059D01*
X225688D01*
X225086Y176461D01*
X224150Y176647D01*
X216850D01*
X215914Y176461D01*
X215120Y175930D01*
X214589Y175136D01*
X214403Y174200D01*
Y171800D01*
X214589Y170863D01*
X215120Y170070D01*
Y169430D01*
X214589Y168636D01*
X214403Y167700D01*
Y165300D01*
X214589Y164363D01*
X215120Y163570D01*
X215914Y163039D01*
X216850Y162853D01*
X224150D01*
X225086Y163039D01*
X225688Y163441D01*
X232115D01*
X232115Y163441D01*
X233285Y163674D01*
X234277Y164337D01*
X236881Y166941D01*
X239538D01*
X239545Y166913D01*
X240598Y165088D01*
X242088Y163599D01*
X243912Y162546D01*
X245947Y162001D01*
X248053D01*
X250088Y162546D01*
X251912Y163599D01*
X253402Y165088D01*
X254455Y166913D01*
X255000Y168947D01*
Y171054D01*
X254455Y173088D01*
X253402Y174913D01*
X251912Y176402D01*
X250088Y177455D01*
X248053Y178001D01*
X245947D01*
X243912Y177455D01*
X242088Y176402D01*
X240598Y174913D01*
X239545Y173088D01*
X239537Y173058D01*
X236180D01*
X235654Y174328D01*
X243886Y182560D01*
X243912Y182545D01*
X245947Y182000D01*
X248053D01*
X250088Y182545D01*
X251912Y183599D01*
X253402Y185088D01*
X254455Y186912D01*
X255000Y188947D01*
Y191053D01*
X254455Y193088D01*
X253402Y194912D01*
X251912Y196402D01*
X250088Y197455D01*
X248053Y198000D01*
D02*
G37*
G36*
X161500Y196250D02*
X147500D01*
Y177750D01*
X161500D01*
Y196250D01*
D02*
G37*
G36*
X358750Y189000D02*
X344250D01*
Y171000D01*
X346015D01*
X346501Y169827D01*
X342337Y165663D01*
X341674Y164671D01*
X341441Y163500D01*
X335500D01*
Y158855D01*
X334230Y157965D01*
X333758Y158059D01*
X333757Y158059D01*
X328500D01*
Y163500D01*
X310500D01*
Y153500D01*
X323846D01*
X324509Y152837D01*
X324509Y152837D01*
X325501Y152174D01*
X326672Y151941D01*
X326672Y151941D01*
X332491D01*
X336594Y147837D01*
X337587Y147174D01*
X338757Y146941D01*
X338758Y146941D01*
X350243D01*
X350243Y146941D01*
X351413Y147174D01*
X352406Y147837D01*
X367163Y162595D01*
X367826Y163587D01*
X368059Y164757D01*
Y167941D01*
X371000D01*
Y164000D01*
X383000D01*
Y178000D01*
X371000D01*
Y174059D01*
X366172D01*
X366172Y174059D01*
X365001Y173826D01*
X364009Y173163D01*
X364009Y173163D01*
X362837Y171991D01*
X362174Y170999D01*
X361941Y169828D01*
X361941Y169828D01*
Y166024D01*
X354673Y158757D01*
X353500Y159242D01*
Y163500D01*
X350485D01*
X349999Y164673D01*
X353663Y168337D01*
X353663Y168337D01*
X354326Y169329D01*
X354559Y170500D01*
X355636Y171000D01*
X358750D01*
Y189000D01*
D02*
G37*
G36*
X142500Y196250D02*
X128500D01*
Y177750D01*
X132441D01*
Y175200D01*
X128650D01*
Y161000D01*
X147350D01*
Y163441D01*
X166312D01*
X166913Y163039D01*
X167850Y162853D01*
X175150D01*
X176086Y163039D01*
X176880Y163570D01*
X177411Y164363D01*
X177597Y165300D01*
Y167700D01*
X177411Y168636D01*
X176880Y169430D01*
X176086Y169961D01*
X175150Y170147D01*
X167850D01*
X166913Y169961D01*
X166312Y169559D01*
X147350D01*
Y175200D01*
X138559D01*
Y177750D01*
X142500D01*
Y196250D01*
D02*
G37*
G36*
X248053Y158000D02*
X245947D01*
X243912Y157455D01*
X242088Y156402D01*
X240599Y154912D01*
X239545Y153088D01*
X239538Y153059D01*
X236707D01*
X234102Y155663D01*
X233110Y156326D01*
X231940Y156559D01*
X231940Y156559D01*
X225689D01*
X225086Y156961D01*
X224150Y157147D01*
X216850D01*
X215914Y156961D01*
X215120Y156431D01*
X214589Y155637D01*
X214403Y154700D01*
Y152300D01*
X214589Y151364D01*
X214710Y151184D01*
X215015Y150250D01*
X214710Y149317D01*
X214589Y149136D01*
X214403Y148200D01*
Y145800D01*
X214589Y144863D01*
X215120Y144070D01*
X215914Y143539D01*
X216850Y143353D01*
X224150D01*
X225086Y143539D01*
X225688Y143941D01*
X228733D01*
X239560Y133114D01*
X239545Y133088D01*
X239000Y131053D01*
Y128947D01*
X239545Y126912D01*
X240598Y125088D01*
X242088Y123598D01*
X243912Y122545D01*
X245947Y122000D01*
X248053D01*
X250088Y122545D01*
X251912Y123598D01*
X253402Y125088D01*
X254455Y126912D01*
X255000Y128947D01*
Y131053D01*
X254455Y133088D01*
X253402Y134912D01*
X251912Y136402D01*
X250088Y137455D01*
X248053Y138000D01*
X245947D01*
X243912Y137455D01*
X243886Y137440D01*
X235654Y145671D01*
X236180Y146941D01*
X239538D01*
X239545Y146912D01*
X240599Y145088D01*
X242088Y143599D01*
X243912Y142545D01*
X245947Y142000D01*
X248053D01*
X250088Y142545D01*
X251912Y143599D01*
X253402Y145088D01*
X254455Y146912D01*
X255000Y148947D01*
Y151053D01*
X254455Y153088D01*
X253402Y154912D01*
X251912Y156402D01*
X250088Y157455D01*
X248053Y158000D01*
D02*
G37*
G36*
X147350Y159000D02*
X128650D01*
Y144800D01*
X132441D01*
Y142250D01*
X128500D01*
Y123750D01*
X142500D01*
Y142250D01*
X138559D01*
Y144800D01*
X147350D01*
Y150441D01*
X166313D01*
X166913Y150040D01*
X167850Y149853D01*
X175150D01*
X176086Y150040D01*
X176880Y150570D01*
X177411Y151364D01*
X177597Y152300D01*
Y154700D01*
X177411Y155637D01*
X176880Y156431D01*
X176086Y156961D01*
X175150Y157147D01*
X167850D01*
X166913Y156961D01*
X166311Y156559D01*
X147350D01*
Y159000D01*
D02*
G37*
G36*
X373750Y150250D02*
X360250D01*
Y144059D01*
X359079Y143826D01*
X358087Y143163D01*
X358087Y143163D01*
X357483Y142558D01*
X353500D01*
Y144500D01*
X335500D01*
Y134500D01*
X340422D01*
Y128350D01*
X337200D01*
Y109650D01*
X351400D01*
Y128350D01*
X348578D01*
Y134500D01*
X353500D01*
Y136441D01*
X358750D01*
X358750Y136441D01*
X358980Y136487D01*
X360250Y135483D01*
Y131750D01*
X373750D01*
Y150250D01*
D02*
G37*
G36*
X403000Y178000D02*
X391000D01*
Y164000D01*
X391015D01*
X391501Y162827D01*
X384837Y156163D01*
X384174Y155171D01*
X383941Y154000D01*
X383941Y154000D01*
Y150250D01*
X380250D01*
Y131750D01*
X393750D01*
Y150250D01*
X390059D01*
Y152733D01*
X399163Y161837D01*
X399163Y161837D01*
X399826Y162829D01*
X400059Y164000D01*
X403000D01*
Y178000D01*
D02*
G37*
G36*
X161500Y142250D02*
X147500D01*
Y123750D01*
X161500D01*
Y142250D01*
D02*
G37*
G36*
X197200Y141597D02*
X194800D01*
X193864Y141411D01*
X193070Y140881D01*
X192539Y140087D01*
X192353Y139150D01*
Y131850D01*
X192539Y130914D01*
X192941Y130312D01*
Y125350D01*
X188800D01*
Y106650D01*
X203000D01*
Y125350D01*
X199059D01*
Y130312D01*
X199461Y130914D01*
X199647Y131850D01*
Y139150D01*
X199461Y140087D01*
X198930Y140881D01*
X198137Y141411D01*
X197200Y141597D01*
D02*
G37*
G36*
X176995Y119000D02*
X175005D01*
X173168Y118239D01*
X171761Y116833D01*
X171000Y114995D01*
Y113006D01*
X171761Y111168D01*
X172941Y109988D01*
Y106926D01*
X171671Y106400D01*
X170832Y107239D01*
X168995Y108000D01*
X167006D01*
X165168Y107239D01*
X163761Y105833D01*
X163000Y103995D01*
Y102006D01*
X163761Y100168D01*
X165168Y98762D01*
X167006Y98000D01*
X167624D01*
X179353Y86271D01*
Y80850D01*
X179539Y79914D01*
X180070Y79120D01*
X180864Y78589D01*
X181800Y78403D01*
X184200D01*
X185136Y78589D01*
X185930Y79120D01*
X186570D01*
X187363Y78589D01*
X188300Y78403D01*
X190700D01*
X191636Y78589D01*
X192430Y79120D01*
X192961Y79914D01*
X193147Y80850D01*
Y88150D01*
X192961Y89087D01*
X192430Y89880D01*
X192168Y90056D01*
X191976Y91021D01*
X191313Y92013D01*
X191313Y92013D01*
X179059Y104267D01*
Y109988D01*
X180239Y111168D01*
X181000Y113006D01*
Y114995D01*
X180239Y116833D01*
X178832Y118239D01*
X176995Y119000D01*
D02*
G37*
G36*
X76000Y115000D02*
X52000D01*
Y91000D01*
X76000D01*
Y115000D01*
D02*
G37*
G36*
X248053Y98000D02*
X245947D01*
X243912Y97455D01*
X242088Y96402D01*
X240598Y94912D01*
X239545Y93088D01*
X239000Y91053D01*
Y88947D01*
X239545Y86912D01*
X239560Y86886D01*
X228733Y76059D01*
X225688D01*
X225086Y76461D01*
X224150Y76647D01*
X216850D01*
X215914Y76461D01*
X215120Y75930D01*
X214589Y75136D01*
X214403Y74200D01*
Y71800D01*
X214589Y70864D01*
X215120Y70070D01*
Y69430D01*
X214589Y68637D01*
X214403Y67700D01*
Y65300D01*
X214589Y64364D01*
X215120Y63570D01*
X215914Y63039D01*
X216850Y62853D01*
X224150D01*
X225086Y63039D01*
X225688Y63441D01*
X232115D01*
X232115Y63441D01*
X233285Y63674D01*
X234278Y64337D01*
X236882Y66941D01*
X239537D01*
X239545Y66912D01*
X240598Y65088D01*
X242088Y63598D01*
X243912Y62545D01*
X245947Y62000D01*
X248053D01*
X250088Y62545D01*
X251912Y63598D01*
X253401Y65088D01*
X254455Y66912D01*
X255000Y68947D01*
Y71053D01*
X254455Y73088D01*
X253401Y74912D01*
X251912Y76402D01*
X250088Y77455D01*
X248053Y78000D01*
X245947D01*
X243912Y77455D01*
X242088Y76402D01*
X240598Y74912D01*
X239545Y73088D01*
X239537Y73059D01*
X236180D01*
X235654Y74329D01*
X243886Y82560D01*
X243912Y82545D01*
X245947Y82000D01*
X248053D01*
X250088Y82545D01*
X251912Y83598D01*
X253401Y85088D01*
X254455Y86912D01*
X255000Y88947D01*
Y91053D01*
X254455Y93088D01*
X253401Y94912D01*
X251912Y96402D01*
X250088Y97455D01*
X248053Y98000D01*
D02*
G37*
G36*
X161500Y96250D02*
X147500D01*
Y77750D01*
X161500D01*
Y96250D01*
D02*
G37*
G36*
X328500Y144500D02*
X310500D01*
Y134500D01*
X315422D01*
X315422Y134499D01*
Y128350D01*
X312601D01*
Y109650D01*
X315422D01*
Y91000D01*
X312500D01*
Y52000D01*
X326501D01*
Y68441D01*
X327671Y68674D01*
X328663Y69337D01*
X332042Y72716D01*
X332705Y73708D01*
X332938Y74879D01*
X332938Y74879D01*
Y87354D01*
X334525Y88941D01*
X362487D01*
X369091Y82337D01*
X370083Y81674D01*
X371254Y81441D01*
X371254Y81441D01*
X401750D01*
Y77500D01*
X420250D01*
Y91500D01*
X401750D01*
Y87559D01*
X372521D01*
X365917Y94163D01*
X364925Y94826D01*
X363754Y95059D01*
X363754Y95059D01*
X333258D01*
X332087Y94826D01*
X331095Y94163D01*
X331095Y94163D01*
X327771Y90838D01*
X327705Y90842D01*
X326501Y91000D01*
Y91000D01*
X323579D01*
Y109650D01*
X326801D01*
Y128350D01*
X323579D01*
Y134499D01*
X323579Y134500D01*
X323579Y134500D01*
X328500D01*
Y144500D01*
D02*
G37*
G36*
X142500Y96250D02*
X128500D01*
Y77750D01*
X132441D01*
Y75200D01*
X128650D01*
Y61000D01*
X147350D01*
Y63441D01*
X166312D01*
X166914Y63039D01*
X167850Y62853D01*
X175150D01*
X176086Y63039D01*
X176880Y63570D01*
X177411Y64364D01*
X177597Y65300D01*
Y67700D01*
X177411Y68637D01*
X176880Y69430D01*
X176086Y69961D01*
X175150Y70147D01*
X167850D01*
X166914Y69961D01*
X166312Y69559D01*
X147350D01*
Y75200D01*
X138559D01*
Y77750D01*
X142500D01*
Y96250D01*
D02*
G37*
G36*
X248053Y58000D02*
X245947D01*
X243912Y57455D01*
X242088Y56402D01*
X240599Y54912D01*
X239545Y53088D01*
X239537Y53059D01*
X236707D01*
X234103Y55663D01*
X233110Y56326D01*
X231940Y56559D01*
X231940Y56559D01*
X225688D01*
X225086Y56961D01*
X224150Y57147D01*
X216850D01*
X215914Y56961D01*
X215120Y56430D01*
X214589Y55636D01*
X214403Y54700D01*
Y52300D01*
X214589Y51364D01*
X214709Y51184D01*
X215015Y50250D01*
X214709Y49316D01*
X214589Y49137D01*
X214403Y48200D01*
Y45800D01*
X214589Y44864D01*
X215120Y44070D01*
X215914Y43539D01*
X216850Y43353D01*
X224150D01*
X225086Y43539D01*
X225688Y43941D01*
X228733D01*
X239560Y33114D01*
X239545Y33088D01*
X239000Y31053D01*
Y28947D01*
X239545Y26912D01*
X240598Y25088D01*
X242088Y23598D01*
X243912Y22545D01*
X245947Y22000D01*
X248053D01*
X250088Y22545D01*
X251912Y23598D01*
X253401Y25088D01*
X254455Y26912D01*
X255000Y28947D01*
Y31053D01*
X254455Y33088D01*
X253401Y34912D01*
X251912Y36402D01*
X250088Y37455D01*
X248053Y38000D01*
X245947D01*
X243912Y37455D01*
X243886Y37440D01*
X235654Y45671D01*
X236180Y46941D01*
X239537D01*
X239545Y46912D01*
X240599Y45088D01*
X242088Y43598D01*
X243912Y42545D01*
X245947Y42000D01*
X248053D01*
X250088Y42545D01*
X251912Y43598D01*
X253402Y45088D01*
X254455Y46912D01*
X255000Y48947D01*
Y51053D01*
X254455Y53088D01*
X253402Y54912D01*
X251912Y56402D01*
X250088Y57455D01*
X248053Y58000D01*
D02*
G37*
G36*
X147350Y59000D02*
X128650D01*
Y44800D01*
X132441D01*
Y42250D01*
X128500D01*
Y23750D01*
X142500D01*
Y42250D01*
X138559D01*
Y44800D01*
X147350D01*
Y50441D01*
X166312D01*
X166914Y50039D01*
X167850Y49853D01*
X175150D01*
X176086Y50039D01*
X176880Y50570D01*
X177411Y51364D01*
X177597Y52300D01*
Y54700D01*
X177411Y55636D01*
X176880Y56430D01*
X176086Y56961D01*
X175150Y57147D01*
X167850D01*
X166914Y56961D01*
X166312Y56559D01*
X147350D01*
Y59000D01*
D02*
G37*
G36*
X420250Y72500D02*
X401750D01*
Y58500D01*
X407941D01*
Y52500D01*
X401750D01*
Y38500D01*
X420250D01*
Y52500D01*
X414059D01*
Y58500D01*
X420250D01*
Y72500D01*
D02*
G37*
G36*
X161500Y42250D02*
X147500D01*
Y23750D01*
X161500D01*
Y42250D01*
D02*
G37*
G36*
X65580Y36000D02*
X62421D01*
X59369Y35182D01*
X56632Y33603D01*
X54398Y31368D01*
X52818Y28632D01*
X52000Y25580D01*
Y22420D01*
X52818Y19368D01*
X54398Y16632D01*
X56632Y14398D01*
X59369Y12818D01*
X62421Y12000D01*
X65580D01*
X68632Y12818D01*
X71368Y14398D01*
X73603Y16632D01*
X75182Y19368D01*
X76000Y22420D01*
Y25580D01*
X75182Y28632D01*
X73603Y31368D01*
X71368Y33603D01*
X68632Y35182D01*
X65580Y36000D01*
D02*
G37*
G36*
X197200Y41597D02*
X194800D01*
X193864Y41411D01*
X193070Y40880D01*
X192540Y40086D01*
X192353Y39150D01*
Y31850D01*
X192540Y30914D01*
X192941Y30312D01*
Y25350D01*
X188800D01*
Y6650D01*
X203000D01*
Y25350D01*
X199059D01*
Y30312D01*
X199461Y30914D01*
X199647Y31850D01*
Y39150D01*
X199461Y40086D01*
X198930Y40880D01*
X198137Y41411D01*
X197200Y41597D01*
D02*
G37*
G36*
X372500Y35000D02*
X353500D01*
Y-3000D01*
X372500D01*
Y35000D01*
D02*
G37*
G36*
X305500D02*
X286500D01*
Y-3000D01*
X305500D01*
Y35000D01*
D02*
G37*
%LPD*%
D14*
X313285Y678000D02*
X328000D01*
X300865Y690420D02*
X313285Y678000D01*
X286756Y690420D02*
X300865D01*
X139599Y166500D02*
X171500D01*
X135500Y170600D02*
X138000Y168100D01*
X139599Y166500D01*
X135500Y170600D02*
Y187000D01*
X139600Y153500D02*
X171500D01*
X138000Y151900D02*
X139600Y153500D01*
X135500Y149400D02*
X138000Y151900D01*
X135500Y133000D02*
Y149400D01*
X220500Y147000D02*
X230000D01*
X247000Y130000D01*
X235440Y150000D02*
X247000D01*
X220500Y153500D02*
X231940D01*
X235440Y150000D01*
X220500Y166500D02*
X232115D01*
X235614Y170000D02*
X247000D01*
X232115Y166500D02*
X235614Y170000D01*
X230000Y173000D02*
X247000Y190000D01*
X220500Y173000D02*
X230000D01*
X195900Y116000D02*
X196000Y116100D01*
Y136000D01*
X135500Y285600D02*
Y302000D01*
Y285600D02*
X138000Y283100D01*
X139600Y281500D01*
X171500D01*
X139600Y268500D02*
X171500D01*
X138000Y266900D02*
X139600Y268500D01*
X135500Y264400D02*
X138000Y266900D01*
X135500Y248000D02*
Y264400D01*
X230000Y262000D02*
X247000Y245000D01*
X220500Y262000D02*
X230000D01*
X235440Y265000D02*
X247000D01*
X220500Y268500D02*
X231940D01*
X235440Y265000D01*
X235615Y285000D02*
X247000D01*
X232115Y281500D02*
X235615Y285000D01*
X220500Y281500D02*
X232115D01*
X230000Y288000D02*
X247000Y305000D01*
X220500Y288000D02*
X230000D01*
X195900Y231000D02*
X196000Y231100D01*
Y251000D01*
X139600Y396500D02*
X171500D01*
X138000Y398100D02*
X139600Y396500D01*
X135500Y400600D02*
X138000Y398100D01*
X135500Y400600D02*
Y417000D01*
X139600Y383500D02*
X171500D01*
X138000Y381900D02*
X139600Y383500D01*
X135500Y379400D02*
X138000Y381900D01*
X135500Y363000D02*
Y379400D01*
X230000Y377000D02*
X247000Y360000D01*
X220500Y377000D02*
X230000D01*
X220500Y383500D02*
X231940D01*
X235440Y380000D02*
X247000D01*
X231940Y383500D02*
X235440Y380000D01*
X220500Y396500D02*
X232115D01*
X235615Y400000D02*
X247000D01*
X232115Y396500D02*
X235615Y400000D01*
X230000Y403000D02*
X247000Y420000D01*
X220500Y403000D02*
X230000D01*
X195900Y346000D02*
X196000Y346100D01*
Y366000D01*
X139600Y511500D02*
X171500D01*
X135500Y515600D02*
X138000Y513100D01*
X139600Y511500D01*
X135500Y515600D02*
Y532000D01*
Y478000D02*
Y494400D01*
X139600Y498500D02*
X171500D01*
X135500Y494400D02*
X138000Y496900D01*
X139600Y498500D01*
X230000Y492000D02*
X247000Y475000D01*
X220500Y492000D02*
X230000D01*
X235440Y495000D02*
X247000D01*
X220500Y498500D02*
X231940D01*
X235440Y495000D01*
X235614Y515000D02*
X247000D01*
X232115Y511500D02*
X235614Y515000D01*
X220500Y511500D02*
X232115D01*
X230000Y518000D02*
X247000Y535000D01*
X220500Y518000D02*
X230000D01*
X196000Y461100D02*
Y481001D01*
X195900Y461000D02*
X196000Y461100D01*
X264512Y676488D02*
X266000Y675000D01*
X264512Y690176D02*
X264756Y690420D01*
X264512Y676488D02*
Y690176D01*
X264756Y703756D02*
X265000Y704000D01*
X264756Y690420D02*
Y703756D01*
X266000Y630750D02*
Y675000D01*
X260500Y625250D02*
X266000Y630750D01*
X260500Y623000D02*
Y625250D01*
X220756Y642506D02*
Y690420D01*
X209756Y686520D02*
Y690420D01*
X185500Y674250D02*
X195670Y684420D01*
X196656D02*
X198756Y686520D01*
X275756Y653994D02*
X287500Y642250D01*
X185500Y664000D02*
Y674250D01*
Y640000D02*
Y642250D01*
X198578Y675342D02*
X209756Y686520D01*
X198578Y655328D02*
Y675342D01*
X185500Y642250D02*
X198578Y655328D01*
X195670Y684420D02*
X196656D01*
X198756Y686520D02*
Y690420D01*
X275756Y653994D02*
Y690420D01*
X287500Y640000D02*
Y642250D01*
X203500Y623000D02*
Y625250D01*
X220756Y642506D01*
X286756Y664000D02*
Y690420D01*
X276000Y690664D02*
Y704000D01*
X275756Y690420D02*
X276000Y690664D01*
X254000Y690664D02*
Y704000D01*
X253756Y690420D02*
X254000Y690664D01*
X243000Y690664D02*
Y704000D01*
X242756Y690420D02*
X243000Y690664D01*
X221000Y690664D02*
Y703000D01*
X220756Y690420D02*
X221000Y690664D01*
X210000Y690664D02*
Y703000D01*
X209756Y690420D02*
X210000Y690664D01*
X199000Y690664D02*
Y703000D01*
X198756Y690420D02*
X199000Y690664D01*
X188900Y530100D02*
X189500Y529500D01*
X176000Y547000D02*
X188900Y534100D01*
X176000Y547000D02*
Y559000D01*
X188900Y530100D02*
Y534100D01*
X470829Y720000D02*
X479000D01*
X470829Y720000D02*
X470829Y720000D01*
X479000D02*
X479000Y720000D01*
X489000Y712000D02*
X489000Y712000D01*
X479576Y712000D02*
X489000D01*
X469000Y712000D02*
X479576D01*
X479576Y712000D01*
X379500Y285500D02*
X380000Y285000D01*
X430000D01*
X425000Y642000D02*
X442000Y659000D01*
X390384Y642000D02*
X425000D01*
X383884Y648500D02*
X390384Y642000D01*
X350351Y648500D02*
X383884D01*
X336250Y634399D02*
X350351Y648500D01*
X336250Y625000D02*
Y634399D01*
X329250Y618000D02*
X336250Y625000D01*
X320000Y618000D02*
X329250D01*
X427485Y636000D02*
X450000Y658514D01*
X378996Y644500D02*
X387496Y636000D01*
X427485D01*
X450000Y658514D02*
Y666000D01*
X352007Y644500D02*
X378996D01*
X340250Y632742D02*
X352007Y644500D01*
X340250Y622007D02*
Y632742D01*
X328492Y610250D02*
X340250Y622007D01*
X316007Y610250D02*
X328492D01*
X306257Y600500D02*
X316007Y610250D01*
X291500Y600500D02*
X306257D01*
X408909Y651991D02*
Y654991D01*
X402743Y662228D02*
X403485Y661485D01*
X406000Y648000D02*
Y649082D01*
X408909Y651991D01*
X402743Y662228D02*
Y678257D01*
X408909Y654991D02*
X410000Y656082D01*
X402000Y679000D02*
X402743Y678257D01*
X410000Y656082D02*
Y679000D01*
X394000Y654000D02*
Y679000D01*
X168000Y318000D02*
X182400Y303600D01*
X306000Y382000D02*
X306000Y382000D01*
X306000Y370000D02*
Y382000D01*
X281000Y363000D02*
X281000Y363000D01*
X299000D01*
X150500Y214000D02*
X157750D01*
X157750Y214000D01*
X176000D01*
X182400Y300100D02*
X183000Y299500D01*
X182400Y300100D02*
Y303600D01*
X163492Y322508D02*
X168000Y318000D01*
X152500Y332000D02*
X159750D01*
X163492Y328258D01*
Y322508D02*
Y328258D01*
X183000Y184500D02*
Y186950D01*
X168000Y431950D02*
Y433000D01*
X168000Y101950D02*
Y103000D01*
X168000Y431950D02*
X183000Y416950D01*
X168000Y101950D02*
X183000Y86950D01*
X168000Y546950D02*
X183000Y531950D01*
X168000Y201950D02*
X183000Y186950D01*
X183000Y414500D02*
Y416950D01*
X168000Y546950D02*
Y548000D01*
X168000Y201950D02*
Y203000D01*
X183000Y529500D02*
Y531950D01*
X183000Y84500D02*
Y86950D01*
X338133Y688133D02*
Y692133D01*
X342000Y696000D02*
X351000D01*
X338133Y692133D02*
X342000Y696000D01*
X328000Y678000D02*
X338133Y688133D01*
X469000Y728000D02*
X475000D01*
X480000Y732999D01*
X486999D01*
X488000Y734000D01*
X469000Y736000D02*
X475000D01*
X480543Y741543D01*
Y746543D01*
X488000Y754000D01*
X128500Y555500D02*
Y577500D01*
X145000Y594000D02*
Y640000D01*
X128500Y577500D02*
X145000Y594000D01*
X380500Y368000D02*
Y384500D01*
X349000Y416000D02*
X380500Y384500D01*
X425412Y469250D02*
X425750D01*
X419500Y463339D02*
X425412Y469250D01*
X419500Y417000D02*
Y463339D01*
X294000Y353000D02*
X299000D01*
X290625Y349625D02*
X294000Y353000D01*
X290625Y343875D02*
Y349625D01*
X287250Y340500D02*
X290625Y343875D01*
X278000Y340500D02*
X287250D01*
X380500Y358750D02*
Y368000D01*
Y358750D02*
X383325Y355925D01*
X386175D01*
X389000Y353100D01*
Y344800D02*
Y353100D01*
X379500Y304500D02*
Y325200D01*
X310000Y248000D02*
Y254750D01*
X310000Y254750D02*
X310000Y254750D01*
X310000Y254750D02*
Y273000D01*
X344500Y158500D02*
Y163500D01*
X351500Y170500D01*
Y180000D01*
X333758Y155000D02*
X338757Y150000D01*
X350243D02*
X365000Y164757D01*
X338757Y150000D02*
X350243D01*
X365000Y164757D02*
Y169828D01*
X366172Y171000D02*
X377000D01*
X365000Y169828D02*
X366172Y171000D01*
X325500Y156171D02*
X326672Y155000D01*
X323500Y158500D02*
X325500Y156500D01*
X319500Y158500D02*
X323500D01*
X325500Y156171D02*
Y156500D01*
X326672Y155000D02*
X333758D01*
X397000Y164000D02*
Y171000D01*
X387000Y154000D02*
X397000Y164000D01*
X387000Y141000D02*
Y154000D01*
X360250Y141000D02*
X367000D01*
X358750Y139500D02*
X360250Y141000D01*
X344500Y139500D02*
X358750D01*
X411000Y45500D02*
Y65500D01*
X319501Y71500D02*
X326501D01*
X329879Y74879D01*
Y88621D01*
X333258Y92000D01*
X363754D01*
X371254Y84500D01*
X411000D01*
X318000Y514000D02*
X345450D01*
X352250Y520800D01*
X360000D01*
X345000Y585500D02*
Y592500D01*
X345000Y592500D01*
Y606000D01*
X351250Y612250D01*
X359000D01*
Y604500D02*
Y612250D01*
Y604500D02*
X367700Y595800D01*
X377450D01*
X380250Y593000D01*
Y587000D02*
Y593000D01*
X410725Y597525D02*
X411200Y598000D01*
X401025Y597525D02*
X410725D01*
X390500Y587000D02*
X401025Y597525D01*
X386750Y587000D02*
X390500D01*
X386750D02*
Y593000D01*
X379950Y599800D02*
X386750Y593000D01*
X377808Y599800D02*
X379950D01*
X368404Y609203D02*
X377808Y599800D01*
X368404Y609203D02*
Y618596D01*
X359000Y628000D02*
X368404Y618596D01*
X359000Y628000D02*
Y635750D01*
X469000Y704000D02*
X489000D01*
X469000Y696000D02*
X475000D01*
X475000Y696000D01*
X482000D01*
X469000Y688000D02*
X489000D01*
X458000Y659000D02*
Y679000D01*
X450000Y673000D02*
Y679000D01*
X450000Y672999D02*
X450000Y673000D01*
X450000Y666000D02*
Y672999D01*
X442000Y659000D02*
Y679000D01*
X426000Y659000D02*
Y679000D01*
X418000Y673000D02*
Y679000D01*
X418000Y672999D02*
X418000Y673000D01*
X418000Y666000D02*
Y672999D01*
X386000Y673000D02*
Y679000D01*
X386000Y672999D02*
X386000Y673000D01*
X386000Y666000D02*
Y672999D01*
X370000Y673000D02*
Y679000D01*
X370000Y672999D02*
X370000Y673000D01*
X370000Y666000D02*
Y672999D01*
X322000Y712100D02*
X331350D01*
X331450Y712000D01*
X351000D01*
X345000Y736000D02*
X351000D01*
X345000Y736000D02*
X345000Y736000D01*
X338000Y736000D02*
X345000D01*
X331000Y728000D02*
X351000D01*
X338000Y704000D02*
X351000D01*
X338000Y704000D02*
X338000Y704000D01*
X436000Y332000D02*
X437500D01*
X474000Y368500D01*
Y375500D01*
X436000Y357400D02*
X436900D01*
X448000Y368500D01*
Y375500D01*
X422000Y333300D02*
X436000Y319300D01*
X422000Y333300D02*
Y375500D01*
X455000Y419500D02*
X457500Y417000D01*
X439589Y494750D02*
X455000Y479339D01*
Y419500D02*
Y479339D01*
X439250Y494750D02*
X439589D01*
X209000Y543000D02*
X209000Y543000D01*
X209000Y529500D02*
X209000Y529500D01*
Y543000D01*
X209000Y414500D02*
Y440000D01*
X209000Y440000D01*
X209000Y440000D01*
X226500D01*
X176000Y433000D02*
Y444000D01*
X189400Y414600D02*
Y417894D01*
X176000Y433000D02*
X189150Y419850D01*
Y418144D02*
X189400Y417894D01*
Y414600D02*
X189500Y414500D01*
X189150Y418144D02*
Y419850D01*
X176000Y203000D02*
Y214000D01*
Y203000D02*
X189150Y189850D01*
X195900Y16000D02*
X196000Y16100D01*
X138000Y68100D02*
X139600Y66500D01*
X135500Y70600D02*
X138000Y68100D01*
X196000Y16100D02*
Y36000D01*
X232115Y66500D02*
X235614Y70000D01*
X231940Y53500D02*
X235440Y50000D01*
X247000D01*
X235614Y70000D02*
X247000D01*
X220500Y47000D02*
X230000D01*
X220500Y53500D02*
X231940D01*
X220500Y66500D02*
X232115D01*
X220500Y73000D02*
X230000D01*
X230000Y47000D02*
X247000Y30000D01*
X230000Y73000D02*
X247000Y90000D01*
X209000Y184500D02*
Y210000D01*
X209000Y210000D01*
X209000Y210000D01*
X226500D01*
X189150Y188144D02*
X189400Y187894D01*
Y184600D02*
X189500Y184500D01*
X189400Y184600D02*
Y187894D01*
X189150Y188144D02*
Y189850D01*
X135500Y33000D02*
Y49400D01*
X138000Y51900D01*
X139600Y53500D01*
X139600Y66500D02*
X171500D01*
X139600Y53500D02*
X171500D01*
X135500Y70600D02*
Y87000D01*
X189400Y84600D02*
X189500Y84500D01*
X176000Y103000D02*
Y114000D01*
Y103000D02*
X189150Y89850D01*
X189400Y84600D02*
Y87894D01*
X189150Y88145D02*
X189400Y87894D01*
X189150Y88145D02*
Y89850D01*
X189150Y303145D02*
X189400Y302895D01*
Y299600D02*
Y302895D01*
Y299600D02*
X189500Y299500D01*
X209000D02*
Y325000D01*
X209000Y325000D01*
X209000Y325000D01*
X226500D01*
X176000Y318000D02*
X189150Y304850D01*
X176000Y318000D02*
Y329000D01*
X189150Y303145D02*
Y304850D01*
D18*
X319701Y119000D02*
D03*
X303501D02*
D03*
X344300D02*
D03*
X360500D02*
D03*
X357100Y366000D02*
D03*
X340900D02*
D03*
X357100Y345000D02*
D03*
X340900D02*
D03*
X212100Y116000D02*
D03*
X195900D02*
D03*
X212100Y231000D02*
D03*
X195900D02*
D03*
X212100Y346000D02*
D03*
X195900D02*
D03*
X212100Y461000D02*
D03*
X195900D02*
D03*
X212100Y16000D02*
D03*
X195900D02*
D03*
D19*
X390250Y747750D02*
D03*
X410000D02*
D03*
X429750D02*
D03*
Y728000D02*
D03*
Y708250D02*
D03*
X410000D02*
D03*
X390250D02*
D03*
Y728000D02*
D03*
X410000D02*
D03*
D20*
X350500Y777500D02*
D03*
Y678500D02*
D03*
X469500D02*
D03*
Y777500D02*
D03*
D21*
X362000Y777000D02*
D03*
X370000D02*
D03*
X378000D02*
D03*
X386000D02*
D03*
X394000D02*
D03*
X402000D02*
D03*
X410000D02*
D03*
X418000D02*
D03*
X426000D02*
D03*
X434000D02*
D03*
X442000D02*
D03*
X450000D02*
D03*
X458000D02*
D03*
Y679000D02*
D03*
X450000D02*
D03*
X442000D02*
D03*
X434000D02*
D03*
X426000D02*
D03*
X418000D02*
D03*
X410000D02*
D03*
X402000D02*
D03*
X394000D02*
D03*
X386000D02*
D03*
X378000D02*
D03*
X370000D02*
D03*
X362000D02*
D03*
D22*
X469000Y768000D02*
D03*
Y760000D02*
D03*
Y752000D02*
D03*
Y744000D02*
D03*
Y736000D02*
D03*
Y728000D02*
D03*
Y720000D02*
D03*
Y712000D02*
D03*
Y704000D02*
D03*
Y696000D02*
D03*
Y688000D02*
D03*
X351000D02*
D03*
Y696000D02*
D03*
Y704000D02*
D03*
Y712000D02*
D03*
Y720000D02*
D03*
Y728000D02*
D03*
Y736000D02*
D03*
Y744000D02*
D03*
Y752000D02*
D03*
Y760000D02*
D03*
Y768000D02*
D03*
D23*
X253756Y690420D02*
D03*
X231756D02*
D03*
X209756D02*
D03*
X286756D02*
D03*
X242756D02*
D03*
X220756D02*
D03*
X264756D02*
D03*
X275756D02*
D03*
X198756D02*
D03*
D24*
X300556Y800420D02*
D03*
Y710420D02*
D03*
X139056D02*
D03*
Y800420D02*
D03*
D25*
X363000Y16000D02*
D03*
X296000D02*
D03*
D26*
X339501Y71500D02*
D03*
X319501D02*
D03*
D27*
X323000Y363000D02*
D03*
Y358000D02*
D03*
Y353000D02*
D03*
X299000D02*
D03*
Y358000D02*
D03*
Y363000D02*
D03*
D28*
X321000Y346000D02*
D03*
X316000D02*
D03*
X311000D02*
D03*
X306000D02*
D03*
X301000D02*
D03*
Y370000D02*
D03*
X306000D02*
D03*
X311000D02*
D03*
X316000D02*
D03*
X321000D02*
D03*
D29*
X131500Y214000D02*
D03*
X150500D02*
D03*
X332500Y180000D02*
D03*
X351500D02*
D03*
X152500Y332000D02*
D03*
X133500D02*
D03*
D30*
X310000Y228000D02*
D03*
Y248000D02*
D03*
X320000Y598000D02*
D03*
Y618000D02*
D03*
D31*
X310000Y273000D02*
D03*
Y293000D02*
D03*
D32*
X476500Y417000D02*
D03*
X457500D02*
D03*
X438500Y417000D02*
D03*
X419500D02*
D03*
X380500Y368000D02*
D03*
X399500D02*
D03*
X135500Y187000D02*
D03*
X154500D02*
D03*
X135500Y133000D02*
D03*
X154500D02*
D03*
X135500Y302000D02*
D03*
X154500D02*
D03*
X135500Y248000D02*
D03*
X154500D02*
D03*
X154500Y417000D02*
D03*
X135500D02*
D03*
X154500Y363000D02*
D03*
X135500D02*
D03*
X135500Y532000D02*
D03*
X154500D02*
D03*
Y478000D02*
D03*
X135500D02*
D03*
X245500Y440000D02*
D03*
X226500D02*
D03*
X226500Y325000D02*
D03*
X245500D02*
D03*
X245500Y210000D02*
D03*
X226500D02*
D03*
X306500Y640000D02*
D03*
X287500D02*
D03*
X241500Y623000D02*
D03*
X260500D02*
D03*
X166500Y664000D02*
D03*
X185500D02*
D03*
X222500Y623000D02*
D03*
X203500D02*
D03*
X166500Y640000D02*
D03*
X185500D02*
D03*
X154500Y33000D02*
D03*
X135500D02*
D03*
X154500Y87000D02*
D03*
X135500D02*
D03*
D33*
X474000Y375500D02*
D03*
Y394500D02*
D03*
X448000Y375500D02*
D03*
Y394500D02*
D03*
X422000Y375500D02*
D03*
Y394500D02*
D03*
X411000Y26500D02*
D03*
Y45500D02*
D03*
Y84500D02*
D03*
Y65500D02*
D03*
X278000Y340500D02*
D03*
Y321500D02*
D03*
X379500Y304500D02*
D03*
Y285500D02*
D03*
X345000Y585500D02*
D03*
Y566500D02*
D03*
D34*
X220500Y403000D02*
D03*
Y396500D02*
D03*
Y390000D02*
D03*
Y383500D02*
D03*
Y377000D02*
D03*
X171500D02*
D03*
Y383500D02*
D03*
Y390000D02*
D03*
Y396500D02*
D03*
Y403000D02*
D03*
X171500Y288000D02*
D03*
Y281500D02*
D03*
Y275000D02*
D03*
Y268500D02*
D03*
Y262000D02*
D03*
X220500D02*
D03*
Y268500D02*
D03*
Y275000D02*
D03*
Y281500D02*
D03*
Y288000D02*
D03*
X171500Y173000D02*
D03*
Y166500D02*
D03*
Y160000D02*
D03*
Y153500D02*
D03*
Y147000D02*
D03*
X220500D02*
D03*
Y153500D02*
D03*
Y160000D02*
D03*
Y166500D02*
D03*
Y173000D02*
D03*
X171500Y73000D02*
D03*
Y66500D02*
D03*
Y60000D02*
D03*
Y53500D02*
D03*
Y47000D02*
D03*
X220500D02*
D03*
Y53500D02*
D03*
Y60000D02*
D03*
Y66500D02*
D03*
Y73000D02*
D03*
X220500Y518000D02*
D03*
Y511500D02*
D03*
Y505000D02*
D03*
Y498500D02*
D03*
Y492000D02*
D03*
X171500D02*
D03*
Y498500D02*
D03*
Y505000D02*
D03*
Y511500D02*
D03*
Y518000D02*
D03*
D35*
X183000Y414500D02*
D03*
X189500D02*
D03*
X196000D02*
D03*
X202500D02*
D03*
X209000D02*
D03*
Y365500D02*
D03*
X202500D02*
D03*
X196000D02*
D03*
X189500D02*
D03*
X183000D02*
D03*
X183000Y250500D02*
D03*
X189500D02*
D03*
X196000D02*
D03*
X202500D02*
D03*
X209000D02*
D03*
Y299500D02*
D03*
X202500D02*
D03*
X196000D02*
D03*
X189500D02*
D03*
X183000D02*
D03*
X183000Y135500D02*
D03*
X189500D02*
D03*
X196000D02*
D03*
X202500D02*
D03*
X209000D02*
D03*
Y184500D02*
D03*
X202500D02*
D03*
X196000D02*
D03*
X189500D02*
D03*
X183000D02*
D03*
X183000Y35500D02*
D03*
X189500D02*
D03*
X196000D02*
D03*
X202500D02*
D03*
X209000D02*
D03*
Y84500D02*
D03*
X202500D02*
D03*
X196000D02*
D03*
X189500D02*
D03*
X183000D02*
D03*
X183000Y529500D02*
D03*
X189500D02*
D03*
X196000D02*
D03*
X202500D02*
D03*
X209000D02*
D03*
Y480500D02*
D03*
X202500D02*
D03*
X196000D02*
D03*
X189500D02*
D03*
X183000D02*
D03*
D36*
X322000Y712100D02*
D03*
Y695900D02*
D03*
X138000Y168100D02*
D03*
Y151900D02*
D03*
X138000Y266900D02*
D03*
Y283100D02*
D03*
X138000Y398100D02*
D03*
Y381900D02*
D03*
X138000Y513100D02*
D03*
Y496900D02*
D03*
X322000Y756100D02*
D03*
Y739900D02*
D03*
Y788000D02*
D03*
Y771800D02*
D03*
X254000Y650900D02*
D03*
Y667100D02*
D03*
X231756Y667100D02*
D03*
Y650900D02*
D03*
X138000Y68100D02*
D03*
Y51900D02*
D03*
D37*
X189000Y210000D02*
D03*
X209000D02*
D03*
X209000Y325000D02*
D03*
X189000D02*
D03*
X189000Y440000D02*
D03*
X209000D02*
D03*
X387000Y141000D02*
D03*
X367000D02*
D03*
X125000Y640000D02*
D03*
X145000D02*
D03*
X318000Y514000D02*
D03*
X298000D02*
D03*
X286756Y664000D02*
D03*
X306756D02*
D03*
D38*
X377000Y171000D02*
D03*
X397000D02*
D03*
D39*
X359000Y612250D02*
D03*
Y635750D02*
D03*
D40*
X389000Y344800D02*
D03*
X398500Y325200D02*
D03*
X379500D02*
D03*
D41*
X386000Y607600D02*
D03*
Y623400D02*
D03*
X380000Y524100D02*
D03*
Y539900D02*
D03*
X210000Y666900D02*
D03*
Y651100D02*
D03*
D42*
X386750Y587000D02*
D03*
X380250D02*
D03*
X386750Y557000D02*
D03*
X380250D02*
D03*
X367250D02*
D03*
X373750Y587000D02*
D03*
X367250D02*
D03*
X373750Y557000D02*
D03*
D43*
X377000Y572000D02*
D03*
D44*
X338000Y530400D02*
D03*
X360000Y540000D02*
D03*
Y520800D02*
D03*
D45*
X403000Y513600D02*
D03*
Y536400D02*
D03*
D46*
X344500Y158500D02*
D03*
Y139500D02*
D03*
X319500D02*
D03*
Y149000D02*
D03*
Y158500D02*
D03*
D84*
X116723Y731000D02*
D03*
X91723Y281000D02*
D03*
X366723Y431000D02*
D03*
X41723Y181000D02*
D03*
X266723Y31000D02*
D03*
X491723Y181000D02*
D03*
X266723Y531000D02*
D03*
X91723Y481000D02*
D03*
X166723Y731000D02*
D03*
X91723Y381000D02*
D03*
X16723Y731000D02*
D03*
X191723Y781000D02*
D03*
X66723Y131000D02*
D03*
X41723Y481000D02*
D03*
X116723Y131000D02*
D03*
X441723Y81000D02*
D03*
X91723Y581000D02*
D03*
X41723Y381000D02*
D03*
X341723Y281000D02*
D03*
X241723Y581000D02*
D03*
X291723Y81000D02*
D03*
X366723Y731000D02*
D03*
X391723Y381000D02*
D03*
X116723Y31000D02*
D03*
X91723Y681000D02*
D03*
X16723Y231000D02*
D03*
X491723Y281000D02*
D03*
X216723Y131000D02*
D03*
X16723Y31000D02*
D03*
X466723Y131000D02*
D03*
X441723Y281000D02*
D03*
X266723Y331000D02*
D03*
Y231000D02*
D03*
X116723Y431000D02*
D03*
X366723Y531000D02*
D03*
X491723Y81000D02*
D03*
X466723Y231000D02*
D03*
X316723Y531000D02*
D03*
Y31000D02*
D03*
X116723Y231000D02*
D03*
X16723Y531000D02*
D03*
X466723Y31000D02*
D03*
X291723Y181000D02*
D03*
Y781000D02*
D03*
X341723Y681000D02*
D03*
X216723Y531000D02*
D03*
X141723Y681000D02*
D03*
X491723Y381000D02*
D03*
X41723Y681000D02*
D03*
X141723Y781000D02*
D03*
X491723D02*
D03*
X16723Y431000D02*
D03*
X341723Y781000D02*
D03*
X16723Y331000D02*
D03*
X116723Y531000D02*
D03*
X41723Y281000D02*
D03*
X491723Y581000D02*
D03*
X216723Y31000D02*
D03*
X266723Y431000D02*
D03*
X341723Y381000D02*
D03*
X491723Y481000D02*
D03*
X291723Y281000D02*
D03*
X266723Y131000D02*
D03*
X166723Y31000D02*
D03*
X141723Y581000D02*
D03*
X16723Y131000D02*
D03*
X66723Y331000D02*
D03*
X416723Y531000D02*
D03*
X441723Y181000D02*
D03*
X391723D02*
D03*
X91723Y781000D02*
D03*
X316723Y631000D02*
D03*
X66723Y531000D02*
D03*
X41723Y81000D02*
D03*
X366723Y331000D02*
D03*
X291723Y581000D02*
D03*
X41723D02*
D03*
X391723Y481000D02*
D03*
X41723Y781000D02*
D03*
X16723Y631000D02*
D03*
X466723Y331000D02*
D03*
X291723Y481000D02*
D03*
X241723Y781000D02*
D03*
X131500Y214000D02*
D03*
X154500Y187000D02*
D03*
Y133000D02*
D03*
X195900Y116000D02*
D03*
X212100D02*
D03*
X154500Y302000D02*
D03*
Y248000D02*
D03*
X195900Y231000D02*
D03*
X212100D02*
D03*
X154500Y417000D02*
D03*
X154500Y363000D02*
D03*
X195900Y346000D02*
D03*
X212100D02*
D03*
X154500Y532000D02*
D03*
X154500Y478000D02*
D03*
X195900Y461000D02*
D03*
X212100D02*
D03*
X278000Y321500D02*
D03*
X479000Y720000D02*
D03*
X489000Y712000D02*
D03*
X221000Y703000D02*
D03*
X243000Y704000D02*
D03*
X276000D02*
D03*
X265000D02*
D03*
X210000Y703000D02*
D03*
X199000D02*
D03*
X338000Y530400D02*
D03*
X430000Y285000D02*
D03*
X403485Y661485D02*
D03*
X406000Y648000D02*
D03*
X394000Y654000D02*
D03*
X145000Y640000D02*
D03*
X322000Y712100D02*
D03*
X281000Y363000D02*
D03*
X306000Y382000D02*
D03*
X168000Y548000D02*
D03*
X168000Y433000D02*
D03*
X168000Y103000D02*
D03*
X168000Y318000D02*
D03*
X168000Y203000D02*
D03*
X400000Y728000D02*
D03*
Y718000D02*
D03*
X410000D02*
D03*
X420000D02*
D03*
Y728000D02*
D03*
Y738000D02*
D03*
X410000D02*
D03*
X400000D02*
D03*
X322000Y788000D02*
D03*
Y756100D02*
D03*
Y771800D02*
D03*
X289000Y370000D02*
D03*
X311000Y336000D02*
D03*
X380000Y524100D02*
D03*
X182000Y469000D02*
D03*
X160000Y492000D02*
D03*
Y505000D02*
D03*
Y518000D02*
D03*
X233000Y505000D02*
D03*
X197000Y541000D02*
D03*
X182000Y354000D02*
D03*
X160000Y377000D02*
D03*
Y390000D02*
D03*
Y403000D02*
D03*
X233000Y390000D02*
D03*
X197000Y426000D02*
D03*
X182000Y239000D02*
D03*
X160000Y262000D02*
D03*
Y275000D02*
D03*
Y288000D02*
D03*
X233000Y275000D02*
D03*
X197000Y311000D02*
D03*
X182000Y124000D02*
D03*
X160000Y147000D02*
D03*
Y160000D02*
D03*
Y173000D02*
D03*
X233000Y160000D02*
D03*
X197000Y196000D02*
D03*
X197000Y96000D02*
D03*
X207000D02*
D03*
X233000Y60000D02*
D03*
X160000Y73000D02*
D03*
Y60000D02*
D03*
Y47000D02*
D03*
X182000Y24000D02*
D03*
X298000Y514000D02*
D03*
X442000Y659000D02*
D03*
X476500Y417000D02*
D03*
X438500Y417000D02*
D03*
X398500Y325200D02*
D03*
X340900Y345000D02*
D03*
X340900Y366000D02*
D03*
X310000Y293000D02*
D03*
X411000Y65500D02*
D03*
X339501Y82000D02*
D03*
Y61000D02*
D03*
Y71500D02*
D03*
X344500Y119000D02*
D03*
X319501Y119000D02*
D03*
X241500Y623000D02*
D03*
X222500D02*
D03*
X166500Y640000D02*
D03*
Y664000D02*
D03*
X254000Y704000D02*
D03*
X210000Y651100D02*
D03*
X231756Y650900D02*
D03*
X254000Y650900D02*
D03*
Y667100D02*
D03*
X210000Y666900D02*
D03*
X231756Y667100D02*
D03*
X139000Y716000D02*
D03*
Y704000D02*
D03*
Y806000D02*
D03*
Y794000D02*
D03*
X301000Y806000D02*
D03*
Y794000D02*
D03*
Y716000D02*
D03*
Y704000D02*
D03*
X322000Y695900D02*
D03*
X307000Y664000D02*
D03*
X306500Y640000D02*
D03*
X320000Y598000D02*
D03*
X345000Y566500D02*
D03*
X377000Y572000D02*
D03*
X385000Y576000D02*
D03*
Y568000D02*
D03*
X369000D02*
D03*
Y576000D02*
D03*
X386000Y607600D02*
D03*
Y623400D02*
D03*
X450000Y666000D02*
D03*
X362000Y690000D02*
D03*
X370000Y666000D02*
D03*
X378000Y690000D02*
D03*
X386000Y666000D02*
D03*
X418000D02*
D03*
X426000Y659000D02*
D03*
X458000D02*
D03*
X489000Y688000D02*
D03*
Y704000D02*
D03*
X482000Y696000D02*
D03*
X331000Y728000D02*
D03*
X338000Y704000D02*
D03*
Y736000D02*
D03*
X474000Y394500D02*
D03*
X448000Y394500D02*
D03*
X422000Y394500D02*
D03*
X133500Y332000D02*
D03*
X399500Y368000D02*
D03*
X357100Y366000D02*
D03*
X357100Y345000D02*
D03*
X310000Y228000D02*
D03*
X411000Y26500D02*
D03*
X332500Y180000D02*
D03*
X303000Y149000D02*
D03*
X303701Y119000D02*
D03*
X360300Y119000D02*
D03*
X125000Y640000D02*
D03*
X195900Y16000D02*
D03*
X154500Y33000D02*
D03*
Y87000D02*
D03*
X176000Y114000D02*
D03*
X189000Y210000D02*
D03*
X176000Y214000D02*
D03*
X189000Y325000D02*
D03*
X176000Y329000D02*
D03*
X212100Y16000D02*
D03*
X245500Y210000D02*
D03*
X245500Y325000D02*
D03*
X176000Y559000D02*
D03*
X176000Y444000D02*
D03*
X189000Y440000D02*
D03*
X209000Y543000D02*
D03*
X245500Y440000D02*
D03*
D87*
X247000Y130000D02*
D03*
X247000Y150000D02*
D03*
X247000Y170000D02*
D03*
Y190000D02*
D03*
X247000Y245000D02*
D03*
X247000Y265000D02*
D03*
X247000Y285000D02*
D03*
Y305000D02*
D03*
X247000Y360000D02*
D03*
X247000Y380000D02*
D03*
X247000Y400000D02*
D03*
Y420000D02*
D03*
X247000Y475000D02*
D03*
Y515000D02*
D03*
Y535000D02*
D03*
X247000Y495000D02*
D03*
X328000Y678000D02*
D03*
X488000Y673000D02*
D03*
X488000Y734000D02*
D03*
X488000Y754000D02*
D03*
X247000Y30000D02*
D03*
X247000Y50000D02*
D03*
X247000Y70000D02*
D03*
Y90000D02*
D03*
D88*
X436000Y319300D02*
D03*
Y332000D02*
D03*
Y344700D02*
D03*
Y357400D02*
D03*
D92*
X196000Y390000D02*
D03*
X196000Y275000D02*
D03*
X196000Y160000D02*
D03*
X196000Y60000D02*
D03*
X196000Y505000D02*
D03*
D93*
X322000Y756100D02*
X331350D01*
X335450Y752000D01*
X351000D01*
X319501Y71500D02*
Y119000D01*
X344500Y119000D02*
Y139500D01*
X319500Y134500D02*
Y139500D01*
Y134500D02*
X319501Y134500D01*
Y119000D02*
Y134500D01*
X360000Y515943D02*
Y520800D01*
Y515943D02*
X362343Y513600D01*
X403000D01*
X407750D01*
X418100Y503250D01*
X425750D01*
X439250D01*
X398250Y536400D02*
X403000D01*
X394750Y539900D02*
X398250Y536400D01*
X380000Y539900D02*
X394750D01*
X371050D02*
X380000D01*
X370950Y540000D02*
X371050Y539900D01*
X360000Y540000D02*
X370950D01*
X380250Y557000D02*
X386750D01*
X380000Y539900D02*
Y546700D01*
X380250Y546950D01*
Y557000D01*
D94*
X321000Y370000D02*
X329800D01*
X333800Y366000D01*
X340900D01*
X323000Y353000D02*
X328000D01*
X330900Y350100D01*
Y347900D02*
Y350100D01*
Y347900D02*
X333800Y345000D01*
X340900D01*
D95*
X231756Y667100D02*
Y690420D01*
D96*
X258556Y804620D02*
D03*
X190556D02*
D03*
D97*
X64000Y24000D02*
D03*
Y202750D02*
D03*
Y381501D02*
D03*
Y560250D02*
D03*
Y739000D02*
D03*
D98*
Y103000D02*
D03*
Y281750D02*
D03*
Y460500D02*
D03*
Y639250D02*
D03*
Y818000D02*
D03*
D99*
X439250Y486250D02*
D03*
X425750Y477750D02*
D03*
X439250D02*
D03*
X425750Y486250D02*
D03*
X439250Y494750D02*
D03*
X425750Y469250D02*
D03*
X439250Y460750D02*
D03*
Y503250D02*
D03*
X425750D02*
D03*
Y460750D02*
D03*
X439250Y452250D02*
D03*
Y511750D02*
D03*
X425750D02*
D03*
X439250Y469250D02*
D03*
X425750Y494750D02*
D03*
D100*
Y452250D02*
D03*
D101*
X435550Y525250D02*
D03*
Y438750D02*
D03*
D102*
X469350Y525250D02*
D03*
Y438750D02*
D03*
D103*
X196000Y390000D02*
D03*
X206000Y380000D02*
D03*
X196000D02*
D03*
X186000D02*
D03*
X206000Y390000D02*
D03*
Y400000D02*
D03*
X196000D02*
D03*
X186000D02*
D03*
Y390000D02*
D03*
X186000Y275000D02*
D03*
Y285000D02*
D03*
X196000D02*
D03*
X206000D02*
D03*
Y275000D02*
D03*
X186000Y265000D02*
D03*
X196000D02*
D03*
X206000D02*
D03*
X196000Y275000D02*
D03*
X186000Y160000D02*
D03*
Y170000D02*
D03*
X196000D02*
D03*
X206000D02*
D03*
Y160000D02*
D03*
X186000Y150000D02*
D03*
X196000D02*
D03*
X206000D02*
D03*
X196000Y160000D02*
D03*
X186000Y60000D02*
D03*
Y70000D02*
D03*
X196000D02*
D03*
X206000D02*
D03*
Y60000D02*
D03*
X186000Y50000D02*
D03*
X196000D02*
D03*
X206000D02*
D03*
X196000Y60000D02*
D03*
X196000Y505000D02*
D03*
X206000Y495000D02*
D03*
X196000D02*
D03*
X186000D02*
D03*
X206000Y505000D02*
D03*
Y515000D02*
D03*
X196000D02*
D03*
X186000D02*
D03*
Y505000D02*
D03*
D104*
X462000Y623400D02*
D03*
Y572600D02*
D03*
X411200Y623400D02*
D03*
Y598000D02*
D03*
D105*
Y572600D02*
D03*
D106*
X193500Y555500D02*
D03*
X226500Y600500D02*
D03*
D107*
X128500Y555500D02*
D03*
X193500Y600500D02*
D03*
X128500D02*
D03*
X291500Y555500D02*
D03*
X226500D02*
D03*
X291500Y600500D02*
D03*
D108*
X349000Y416000D02*
D03*
Y466000D02*
D03*
M02*
