M48
;Layer_Color=9474304
;FILE_FORMAT=4:4
METRIC,LZ
;TYPE=PLATED
T01F00S00C0.3000
T02F00S00C0.4000
T03F00S00C0.6000
T05F00S00C0.7500
T06F00S00C0.8500
T07F00S00C1.0000
T08F00S00C1.0900
T09F00S00C1.6000
;TYPE=NON_PLATED
T10F00S00C0.9500
%
T01
X00316723Y00031
X00339501Y00061
Y000715
Y00082
X003445Y00119
X003603
X00319501Y00119
X003325Y0018
X00391723Y00181
X00441723
X00491723
X00466723Y00131
X00441723Y00081
X00411Y000655
Y000265
X00466723Y00031
X00491723Y00081
X00466723Y00231
X00491723Y00281
X00441723
X0043Y00285
X003985Y003252
X00366723Y00331
X003571Y00345
X003409
X003409Y00366
X003571
X003995Y00368
X00466723Y00331
X00311Y00336
X0031Y00293
X00341723Y00281
X0031Y00228
X00266723Y00231
X002455Y0021
X002121Y00231
X001959
X00182Y00239
X00186Y00265
Y00275
Y00285
X00196
X00206
Y00275
Y00265
X00196
Y00275
X0016Y00275
Y00262
X001545Y00248
X0016Y00288
X001545Y00302
X00168Y00318
X00176Y00329
X00189Y00325
X00197Y00311
X001959Y00346
X002121
X00182Y00354
X001545Y00363
X001335Y00332
X00066723Y00331
X00016723
X00041723Y00281
X00091723
X00116723Y00231
X001315Y00214
X00176Y00214
X00189Y0021
X00197Y00196
X00196Y0017
X00186
Y0016
Y0015
X00196
X00206
Y0016
Y0017
X00196Y0016
X0016Y0016
Y00147
X001545Y00133
X00182Y00124
X00176Y00114
X00168Y00103
X001545Y00087
X0016Y00073
Y0006
Y00047
X001545Y00033
X00166723Y00031
X00182Y00024
X001959Y00016
X002121
X00216723Y00031
X00206Y0005
Y0006
Y0007
X00196
X00186
Y0006
Y0005
X00196
Y0006
X00233Y0006
X00207Y00096
X00197
X001959Y00116
X002121
X00216723Y00131
X00233Y0016
X00266723Y00131
X00303701Y00119
X00303Y00149
X00291723Y00181
Y00081
X00266723Y00031
X00116723
Y00131
X00066723
X00016723
X00041723Y00181
X00016723Y00231
X00041723Y00081
X00016723Y00031
X0016Y00173
X001545Y00187
X00168Y00203
X00233Y00275
X002455Y00325
X00266723Y00331
X00278Y003215
X00281Y00363
X00289Y0037
X00291723Y00281
X00233Y0039
X00206Y0039
X00196
Y0038
X00206
X00186
Y0039
Y004
X00196
X00206
X00197Y00426
X00189Y0044
X00176Y00444
X00168Y00433
X001545Y00417
X0016Y00403
Y0039
Y00377
X00091723Y00381
X00041723
X00016723Y00431
X00041723Y00481
X00091723
X001545Y00478
X0016Y00492
Y00505
Y00518
X001545Y00532
X00168Y00548
X00176Y00559
X00197Y00541
X00209Y00543
X00216723Y00531
X00206Y00515
Y00505
X00196
Y00495
X00206
X00186
Y00505
Y00515
X00196
X00233Y00505
X00266723Y00531
X00298Y00514
X00291723Y00481
X00266723Y00431
X002455Y0044
X002121Y00461
X001959
X00182Y00469
X00116723Y00431
Y00531
X00066723
X00016723
X00041723Y00581
X00091723
X00141723
X00145Y0064
X00125
X001665Y0064
Y00664
X00141723Y00681
X00139Y00704
Y00716
X00116723Y00731
X00166723
X00199Y00703
X0021
X00221
X00243Y00704
X00254
X00265
X00276
X00301
Y00716
X00254Y006671
Y006509
X00231756Y006509
Y006671
X0021Y006669
Y006511
X002225Y00623
X002415
X00241723Y00581
X00291723
X00091723Y00681
X00041723
X00016723Y00731
Y00631
X003065Y0064
X00316723Y00631
X0032Y00598
X00345Y005665
X00369Y00568
Y00576
X00377Y00572
X00385Y00576
Y00568
X00386Y006076
Y006234
X00394Y00654
X00403485Y00661485
X00406Y00648
X00418Y00666
X00426Y00659
X00442
X0045Y00666
X00458Y00659
X00489Y00688
X00482Y00696
X00489Y00704
X00489Y00712
X00479Y0072
X0042Y00718
Y00728
Y00738
X0041
X004
Y00728
Y00718
X0041
X00366723Y00731
X00338Y00736
X00331Y00728
X00322Y007121
Y006959
X00338Y00704
X00341723Y00681
X00362Y0069
X00378
X00386Y00666
X0037
X00307Y00664
X00322Y007561
X00316723Y00531
X00338Y005304
X00366723Y00531
X0038Y005241
X00416723Y00531
X00391723Y00481
X00366723Y00431
X00391723Y00381
X00422Y003945
X00448Y003945
X00474Y003945
X004765Y00417
X004385Y00417
X00491723Y00381
Y00481
Y00581
X00341723Y00381
X00306Y00382
X00322Y007718
Y00788
X00341723Y00781
X00491723
X00291723
X00301Y00794
Y00806
X00241723Y00781
X00191723
X00141723
X00139Y00794
Y00806
X00091723Y00781
X00041723
T02
X0042575Y0045225
Y0046075
Y0046925
Y0047775
Y0048625
Y0049475
Y0050325
Y0051175
X0043925
Y0050325
Y0049475
Y0048625
Y0047775
Y0046925
Y0046075
Y0045225
T03
X00247Y0003
X00247Y0005
X00247Y0007
Y0009
X00247Y0013
X00247Y0015
X00247Y0017
Y0019
X00247Y00245
X00247Y00265
X00247Y00285
Y00305
X00247Y0036
X00247Y0038
X00247Y004
Y0042
X00247Y00475
X00247Y00495
X00247Y00515
Y00535
X00328Y00678
X00488Y00673
X00488Y00734
X00488Y00754
T05
X00436Y003193
Y00332
Y003447
Y003574
T06
X00349Y00416
Y00466
T07
X001285Y005555
Y006005
X001935
X002265Y006005
Y005555
X001935Y005555
X002915Y005555
Y006005
T08
X004112Y005726
Y00598
Y006234
X00462
Y005726
T09
X00064Y00024
Y00103
Y0020275
Y0028175
Y00381501
Y004605
Y0056025
Y0063925
Y00739
Y00818
T10
X00190556Y0080462
X00258556
M30
